<?xml version="1.0" encoding="UTF-8" standalone="no"?>
<!-- Created with Inkscape (http://www.inkscape.org/) -->
<svg
   xmlns:dc="http://purl.org/dc/elements/1.1/"
   xmlns:cc="http://web.resource.org/cc/"
   xmlns:rdf="http://www.w3.org/1999/02/22-rdf-syntax-ns#"
   xmlns:svg="http://www.w3.org/2000/svg"
   xmlns="http://www.w3.org/2000/svg"
   xmlns:xlink="http://www.w3.org/1999/xlink"
   xmlns:sodipodi="http://inkscape.sourceforge.net/DTD/s odipodi-0.dtd"
   xmlns:inkscape="http://www.inkscape.org/namespaces/inkscape"
   width="24"
   height="24"
   id="svg2"
   sodipodi:version="0.32"
   inkscape:version="0.43"
   version="1.0"
   sodipodi:docbase="/home/hbons/Desktop/Gaim Refresh/emotes/scalable"
   sodipodi:docname="beauty.svg"
   inkscape:export-filename="/home/hbons/Desktop/Gaim Refresh/emotes/beauty.png"
   inkscape:export-xdpi="90"
   inkscape:export-ydpi="90">
  <defs
     id="defs4">
    <radialGradient
       inkscape:collect="always"
       xlink:href="#linearGradient3254"
       id="radialGradient3260"
       cx="7.055284"
       cy="11.57828"
       fx="7.055284"
       fy="11.57828"
       r="1.6257142"
       gradientTransform="matrix(1,0,0,0.436893,0,6.519808)"
       gradientUnits="userSpaceOnUse" />
    <linearGradient
       inkscape:collect="always"
       id="linearGradient3254">
      <stop
         style="stop-color:#cc0000;stop-opacity:1;"
         offset="0"
         id="stop3256" />
      <stop
         style="stop-color:#cc0000;stop-opacity:0;"
         offset="1"
         id="stop3258" />
    </linearGradient>
    <radialGradient
       inkscape:collect="always"
       xlink:href="#linearGradient3254"
       id="radialGradient3262"
       cx="7.055284"
       cy="11.57828"
       fx="7.055284"
       fy="11.57828"
       r="1.6257142"
       gradientTransform="matrix(1,0,0,0.436893,0,6.519808)"
       gradientUnits="userSpaceOnUse" />
    <linearGradient
       inkscape:collect="always"
       id="linearGradient3150">
      <stop
         style="stop-color:#2e3436;stop-opacity:1;"
         offset="0"
         id="stop3152" />
      <stop
         style="stop-color:#2e3436;stop-opacity:0;"
         offset="1"
         id="stop3154" />
    </linearGradient>
    <linearGradient
       inkscape:collect="always"
       id="linearGradient3104">
      <stop
         style="stop-color:#eeeeec;stop-opacity:1;"
         offset="0"
         id="stop3106" />
      <stop
         style="stop-color:#eeeeec;stop-opacity:0;"
         offset="1"
         id="stop3108" />
    </linearGradient>
    <radialGradient
       inkscape:collect="always"
       xlink:href="#linearGradient3104"
       id="radialGradient3114"
       cx="8.3343515"
       cy="14.186539"
       fx="8.3343515"
       fy="14.186539"
       r="9.975256"
       gradientUnits="userSpaceOnUse"
       gradientTransform="matrix(-0.9327,0.932656,-0.947494,-0.947449,33.02126,11.96667)" />
    <radialGradient
       inkscape:collect="always"
       xlink:href="#linearGradient3150"
       id="radialGradient3156"
       cx="10.748654"
       cy="10.457643"
       fx="10.748654"
       fy="10.457643"
       r="6.6449099"
       gradientTransform="matrix(-0.842757,5.698892e-16,-4.565819e-9,-0.35721,19.80716,14.19321)"
       gradientUnits="userSpaceOnUse" />
  </defs>
  <sodipodi:namedview
     id="base"
     pagecolor="#ffffff"
     bordercolor="#666666"
     borderopacity="1.0"
     inkscape:pageopacity="0.0"
     inkscape:pageshadow="2"
     inkscape:zoom="25.730843"
     inkscape:cx="21.630801"
     inkscape:cy="13.666951"
     inkscape:document-units="px"
     inkscape:current-layer="layer1"
     showgrid="true"
     fill="#a40000"
     inkscape:window-width="1268"
     inkscape:window-height="971"
     inkscape:window-x="6"
     inkscape:window-y="21"
     inkscape:grid-points="true" />
  <metadata
     id="metadata7">
    <rdf:RDF>
      <cc:Work
         rdf:about="">
        <dc:format>image/svg+xml</dc:format>
        <dc:type
           rdf:resource="http://purl.org/dc/dcmitype/StillImage" />
      </cc:Work>
    </rdf:RDF>
  </metadata>
  <g
     inkscape:label="Layer 1"
     inkscape:groupmode="layer"
     id="layer1">
    <path
       sodipodi:type="arc"
       style="opacity:0.6;fill:url(#radialGradient3156);fill-opacity:1.0;stroke:none;stroke-width:1;stroke-miterlimit:4;stroke-dasharray:none;stroke-opacity:1"
       id="path3140"
       sodipodi:cx="10.748654"
       sodipodi:cy="10.457643"
       sodipodi:rx="6.6449099"
       sodipodi:ry="2.3675451"
       d="M 17.393564 10.457643 A 6.6449099 2.3675451 0 1 1  4.1037445,10.457643 A 6.6449099 2.3675451 0 1 1  17.393564 10.457643 z"
       transform="matrix(1.504911,0,0,1.300982,-4.175772,6.474929)" />
    <path
       sodipodi:type="arc"
       style="opacity:1;fill:#edd400;fill-opacity:1;stroke:#f57900;stroke-width:1.05276573;stroke-miterlimit:4;stroke-dasharray:none;stroke-opacity:1"
       id="path1307"
       sodipodi:cx="11.806158"
       sodipodi:cy="10.983024"
       sodipodi:rx="9.975256"
       sodipodi:ry="9.975256"
       d="M 21.781414 10.983024 A 9.975256 9.975256 0 1 1  1.8309021,10.983024 A 9.975256 9.975256 0 1 1  21.781414 10.983024 z"
       transform="matrix(0.952236,0,0,0.952236,0.757713,1.541608)" />
    <path
       sodipodi:type="arc"
       style="opacity:0.79545455;fill:url(#radialGradient3114);fill-opacity:1.0;stroke:none;stroke-width:1.05274069;stroke-miterlimit:4;stroke-dasharray:none;stroke-opacity:1"
       id="path3102"
       sodipodi:cx="11.806158"
       sodipodi:cy="10.983024"
       sodipodi:rx="9.975256"
       sodipodi:ry="9.975256"
       d="M 21.781414 10.983024 A 9.975256 9.975256 0 1 1  1.8309021,10.983024 A 9.975256 9.975256 0 1 1  21.781414 10.983024 z"
       transform="matrix(0.8019,0,0,0.801938,2.532654,3.191833)" />
    <path
       sodipodi:type="arc"
       style="opacity:0.4;fill:url(#radialGradient3262);fill-opacity:1.0;stroke:none;stroke-width:1;stroke-miterlimit:4;stroke-dasharray:none;stroke-opacity:1"
       id="path2333"
       sodipodi:cx="7.055284"
       sodipodi:cy="11.57828"
       sodipodi:rx="1.6257142"
       sodipodi:ry="0.71026349"
       d="M 8.6809982 11.57828 A 1.6257142 0.71026349 0 1 1  5.4295698,11.57828 A 1.6257142 0.71026349 0 1 1  8.6809982 11.57828 z"
       transform="matrix(1.845345,0,0,2.815857,-6.019437,-20.60278)" />
    <path
       sodipodi:type="arc"
       style="opacity:0.5;fill:none;fill-opacity:1.0;stroke:#ffffff;stroke-width:1.17343897;stroke-miterlimit:4;stroke-dasharray:none;stroke-opacity:1"
       id="path2184"
       sodipodi:cx="11.806158"
       sodipodi:cy="10.983024"
       sodipodi:rx="9.975256"
       sodipodi:ry="9.975256"
       d="M 21.781414 10.983024 A 9.975256 9.975256 0 1 1  1.8309021,10.983024 A 9.975256 9.975256 0 1 1  21.781414 10.983024 z"
       transform="matrix(0.852176,0,0,0.852216,1.93909,2.639626)" />
    <path
       sodipodi:type="arc"
       style="opacity:0.4;fill:url(#radialGradient3260);fill-opacity:1.0;stroke:none;stroke-width:1;stroke-miterlimit:4;stroke-dasharray:none;stroke-opacity:1"
       id="path3240"
       sodipodi:cx="7.055284"
       sodipodi:cy="11.57828"
       sodipodi:rx="1.6257142"
       sodipodi:ry="0.71026349"
       d="M 8.6809982 11.57828 A 1.6257142 0.71026349 0 1 1  5.4295698,11.57828 A 1.6257142 0.71026349 0 1 1  8.6809982 11.57828 z"
       transform="matrix(1.845345,0,0,2.815857,3.980563,-20.60278)" />
    <path
       style="opacity:1;fill:#a40000;fill-opacity:1;stroke:none;stroke-width:1;stroke-miterlimit:4;stroke-dasharray:none;stroke-opacity:1"
       d="M 17,13 C 16.413519,15.283765 14.403819,17 12,17 C 9.596182,17 7.586481,15.283765 7,13 C 8.053747,14.478811 9.904443,16.044402 12,16.044402 C 14.095556,16.044403 15.946253,14.478811 17,13 z "
       id="path2186"
       sodipodi:nodetypes="cscsc" />
    <path
       sodipodi:type="arc"
       style="opacity:1;fill:#2e3436;fill-opacity:1;stroke:none;stroke-width:1;stroke-miterlimit:4;stroke-dasharray:none;stroke-opacity:1"
       id="path2191"
       sodipodi:cx="9.0598059"
       sodipodi:cy="8.7845774"
       sodipodi:rx="1.1679889"
       sodipodi:ry="1.4520943"
       d="M 10.227795 8.7845774 A 1.1679889 1.4520943 0 1 1  7.891817,8.7845774 A 1.1679889 1.4520943 0 1 1  10.227795 8.7845774 z"
       transform="matrix(0.856172,0,0,1.377321,2.243245,-2.099183)" />
    <path
       sodipodi:type="arc"
       style="opacity:1;fill:#2e3436;fill-opacity:1;stroke:none;stroke-width:1;stroke-miterlimit:4;stroke-dasharray:none;stroke-opacity:1"
       id="path2193"
       sodipodi:cx="9.0598059"
       sodipodi:cy="8.7845774"
       sodipodi:rx="1.1679889"
       sodipodi:ry="1.4520943"
       d="M 10.227795 8.7845774 A 1.1679889 1.4520943 0 1 1  7.891817,8.7845774 A 1.1679889 1.4520943 0 1 1  10.227795 8.7845774 z"
       transform="matrix(0.856174,0,0,1.377321,6.243226,-2.099183)" />
    <path
       style="fill:#204a87;fill-opacity:1;fill-rule:evenodd;stroke:none;stroke-width:1;stroke-miterlimit:4;stroke-opacity:1"
       d="M 7,-18 C 7,-18 9.0388639,-17.052621 9.0388639,-14.98954 L 9,-14 L 8,-14 C 8,-17.150131 7,-18 7,-18 z "
       id="rect2372"
       sodipodi:nodetypes="ccccc"
       transform="matrix(0,1,-1,0,0,0)" />
    <path
       style="fill:#204a87;fill-opacity:1;fill-rule:evenodd;stroke:none;stroke-width:1;stroke-miterlimit:4;stroke-opacity:1"
       d="M 6,7 C 6,7 7.007164,9.0388639 9.070245,9.0388639 L 10.059785,9 L 10.059785,8 C 6.909654,8 6,7 6,7 z "
       id="path2385"
       sodipodi:nodetypes="ccccc" />
    <path
       style="fill:#204a87;fill-opacity:1;fill-rule:evenodd;stroke:none;stroke-width:1;stroke-miterlimit:4;stroke-opacity:1"
       d="M 9,5 C 9,5 8.1068832,7.1063019 9.5657018,8.5651205 L 10.292893,9.2373499 L 11,8.5302432 C 8.772521,6.3027642 9,5 9,5 z "
       id="path2399"
       sodipodi:nodetypes="ccccc" />
    <path
       style="fill:#204a87;fill-opacity:1;fill-rule:evenodd;stroke:none;stroke-width:1;stroke-miterlimit:4;stroke-opacity:1"
       d="M 15,5 C 15,5 15.522739,7.1063019 14.063921,8.5651205 L 13.33673,9.2373499 L 12.629623,8.5302432 C 14.857101,6.3027642 15,5 15,5 z "
       id="path2401"
       sodipodi:nodetypes="ccccc" />
  </g>
</svg>
