<?xml version="1.0" encoding="UTF-8" standalone="no"?>
<!-- Created with Inkscape (http://www.inkscape.org/) -->
<svg
   xmlns:dc="http://purl.org/dc/elements/1.1/"
   xmlns:cc="http://web.resource.org/cc/"
   xmlns:rdf="http://www.w3.org/1999/02/22-rdf-syntax-ns#"
   xmlns:svg="http://www.w3.org/2000/svg"
   xmlns="http://www.w3.org/2000/svg"
   xmlns:xlink="http://www.w3.org/1999/xlink"
   xmlns:sodipodi="http://inkscape.sourceforge.net/DTD/s odipodi-0.dtd"
   xmlns:inkscape="http://www.inkscape.org/namespaces/inkscape"
   width="24"
   height="24"
   id="svg2"
   sodipodi:version="0.32"
   inkscape:version="0.43"
   version="1.0"
   sodipodi:docbase="/home/hbons/Desktop/Gaim Refresh/emotes/scalable"
   sodipodi:docname="doctor.svg"
   inkscape:export-filename="/home/hbons/Desktop/Gaim Refresh/emotes/face-smile.png"
   inkscape:export-xdpi="90"
   inkscape:export-ydpi="90">
  <defs
     id="defs4">
    <linearGradient
       inkscape:collect="always"
       id="linearGradient6629">
      <stop
         style="stop-color:#d3d7cf;stop-opacity:1;"
         offset="0"
         id="stop6631" />
      <stop
         style="stop-color:#d3d7cf;stop-opacity:0;"
         offset="1"
         id="stop6633" />
    </linearGradient>
    <linearGradient
       inkscape:collect="always"
       id="linearGradient3150">
      <stop
         style="stop-color:#2e3436;stop-opacity:1;"
         offset="0"
         id="stop3152" />
      <stop
         style="stop-color:#2e3436;stop-opacity:0;"
         offset="1"
         id="stop3154" />
    </linearGradient>
    <linearGradient
       inkscape:collect="always"
       id="linearGradient3104">
      <stop
         style="stop-color:#eeeeec;stop-opacity:1;"
         offset="0"
         id="stop3106" />
      <stop
         style="stop-color:#eeeeec;stop-opacity:0;"
         offset="1"
         id="stop3108" />
    </linearGradient>
    <radialGradient
       inkscape:collect="always"
       xlink:href="#linearGradient3104"
       id="radialGradient3114"
       cx="8.3343515"
       cy="14.186539"
       fx="8.3343515"
       fy="14.186539"
       r="9.975256"
       gradientUnits="userSpaceOnUse"
       gradientTransform="matrix(-0.9327,0.932656,-0.947494,-0.947449,33.02126,11.96667)" />
    <radialGradient
       inkscape:collect="always"
       xlink:href="#linearGradient3150"
       id="radialGradient3156"
       cx="10.748654"
       cy="10.457643"
       fx="10.748654"
       fy="10.457643"
       r="6.6449099"
       gradientTransform="matrix(-0.842757,5.698892e-16,-4.565819e-9,-0.35721,19.80716,14.19321)"
       gradientUnits="userSpaceOnUse" />
    <radialGradient
       inkscape:collect="always"
       xlink:href="#linearGradient6629"
       id="radialGradient6635"
       cx="11.999995"
       cy="15.093184"
       fx="11.999995"
       fy="15.093184"
       r="6.9957802"
       gradientTransform="matrix(2.687272,-9.03296e-23,-1.139652e-22,1.347035,-20.24726,-5.251976)"
       gradientUnits="userSpaceOnUse" />
  </defs>
  <sodipodi:namedview
     id="base"
     pagecolor="#ffffff"
     bordercolor="#666666"
     borderopacity="1.0"
     inkscape:pageopacity="0.0"
     inkscape:pageshadow="2"
     inkscape:zoom="27.577635"
     inkscape:cx="20.742075"
     inkscape:cy="14.231157"
     inkscape:document-units="px"
     inkscape:current-layer="layer1"
     showgrid="true"
     fill="#eeeeec"
     inkscape:window-width="1268"
     inkscape:window-height="971"
     inkscape:window-x="6"
     inkscape:window-y="21" />
  <metadata
     id="metadata7">
    <rdf:RDF>
      <cc:Work
         rdf:about="">
        <dc:format>image/svg+xml</dc:format>
        <dc:type
           rdf:resource="http://purl.org/dc/dcmitype/StillImage" />
      </cc:Work>
    </rdf:RDF>
  </metadata>
  <g
     inkscape:label="Layer 1"
     inkscape:groupmode="layer"
     id="layer1">
    <path
       sodipodi:type="arc"
       style="opacity:0.6;fill:url(#radialGradient3156);fill-opacity:1.0;stroke:none;stroke-width:1;stroke-miterlimit:4;stroke-dasharray:none;stroke-opacity:1"
       id="path3140"
       sodipodi:cx="10.748654"
       sodipodi:cy="10.457643"
       sodipodi:rx="6.6449099"
       sodipodi:ry="2.3675451"
       d="M 17.393564 10.457643 A 6.6449099 2.3675451 0 1 1  4.1037445,10.457643 A 6.6449099 2.3675451 0 1 1  17.393564 10.457643 z"
       transform="matrix(1.504911,0,0,1.300982,-4.175772,6.474929)" />
    <path
       sodipodi:type="arc"
       style="opacity:1;fill:#edd400;fill-opacity:1;stroke:#f57900;stroke-width:1.05276573;stroke-miterlimit:4;stroke-dasharray:none;stroke-opacity:1"
       id="path1307"
       sodipodi:cx="11.806158"
       sodipodi:cy="10.983024"
       sodipodi:rx="9.975256"
       sodipodi:ry="9.975256"
       d="M 21.781414 10.983024 A 9.975256 9.975256 0 1 1  1.8309021,10.983024 A 9.975256 9.975256 0 1 1  21.781414 10.983024 z"
       transform="matrix(0.952236,0,0,0.952236,0.757713,1.541608)" />
    <path
       sodipodi:type="arc"
       style="opacity:0.79545455;fill:url(#radialGradient3114);fill-opacity:1.0;stroke:none;stroke-width:1.05274069;stroke-miterlimit:4;stroke-dasharray:none;stroke-opacity:1"
       id="path3102"
       sodipodi:cx="11.806158"
       sodipodi:cy="10.983024"
       sodipodi:rx="9.975256"
       sodipodi:ry="9.975256"
       d="M 21.781414 10.983024 A 9.975256 9.975256 0 1 1  1.8309021,10.983024 A 9.975256 9.975256 0 1 1  21.781414 10.983024 z"
       transform="matrix(0.8019,0,0,0.801938,2.532654,3.191833)" />
    <path
       sodipodi:type="arc"
       style="opacity:0.5;fill:none;fill-opacity:1.0;stroke:#ffffff;stroke-width:1.17343897;stroke-miterlimit:4;stroke-dasharray:none;stroke-opacity:1"
       id="path2184"
       sodipodi:cx="11.806158"
       sodipodi:cy="10.983024"
       sodipodi:rx="9.975256"
       sodipodi:ry="9.975256"
       d="M 21.781414 10.983024 A 9.975256 9.975256 0 1 1  1.8309021,10.983024 A 9.975256 9.975256 0 1 1  21.781414 10.983024 z"
       transform="matrix(0.852176,0,0,0.852216,1.93909,2.639626)" />
    <rect
       style="opacity:1;fill:#eeeeec;fill-opacity:1;fill-rule:evenodd;stroke:#888a85;stroke-width:1.00017202;stroke-miterlimit:4;stroke-dasharray:none;stroke-opacity:1"
       id="rect6620"
       width="5.9038911"
       height="1.8640901"
       x="6.1425033"
       y="11.272849"
       rx="0.49978602"
       ry="0.49975118"
       transform="matrix(0.969169,0.246396,-0.271776,0.962361,0,0)" />
    <rect
       style="opacity:1;fill:#eeeeec;fill-opacity:1;fill-rule:evenodd;stroke:#888a85;stroke-width:1.0002197;stroke-miterlimit:4;stroke-dasharray:none;stroke-opacity:1"
       id="rect6622"
       width="5.8962679"
       height="1.8508935"
       x="-16.921103"
       y="17.184555"
       rx="0.49978295"
       ry="0.49974778"
       transform="matrix(-0.969562,0.244845,0.273469,0.961881,0,0)" />
    <path
       style="fill:#ffffff;fill-opacity:1;fill-rule:evenodd;stroke:none;stroke-width:0.99999976;stroke-miterlimit:4;stroke-opacity:1"
       d="M 5.5042143,13.486524 L 18.495775,13.486524 L 17.552982,19.499999 L 6.410746,19.499999 L 5.5042143,13.486524 z "
       id="path6637"
       sodipodi:nodetypes="ccccc" />
    <path
       style="fill:url(#radialGradient6635);fill-opacity:1.0;fill-rule:evenodd;stroke:#888a85;stroke-width:0.99999976;stroke-miterlimit:4;stroke-opacity:1"
       d="M 5.5042143,13.486524 L 18.495775,13.486524 L 17.552982,19.499999 L 6.410746,19.499999 L 5.5042143,13.486524 z "
       id="rect6618"
       sodipodi:nodetypes="ccccc" />
    <path
       sodipodi:type="inkscape:offset"
       inkscape:radius="-0.98984754"
       inkscape:original="M 5.5 13.5 L 6.40625 19.5 L 17.5625 19.5 L 18.5 13.5 L 5.5 13.5 z "
       xlink:href="#rect6618"
       style="fill:none;fill-opacity:1;fill-rule:evenodd;stroke:#ffffff;stroke-width:0.99999976;stroke-miterlimit:4;stroke-opacity:1;opacity:0.4"
       id="path6627"
       inkscape:href="#rect6618"
       d="M 6.65625,14.5 L 7.25,18.5 L 16.71875,18.5 L 17.34375,14.5 L 6.65625,14.5 z " />
    <path
       sodipodi:type="arc"
       style="opacity:1;fill:#2e3436;fill-opacity:1;stroke:none;stroke-width:1;stroke-miterlimit:4;stroke-dasharray:none;stroke-opacity:1"
       id="path2191"
       sodipodi:cx="9.0598059"
       sodipodi:cy="8.7845774"
       sodipodi:rx="1.1679889"
       sodipodi:ry="1.4520943"
       d="M 10.227795 8.7845774 A 1.1679889 1.4520943 0 1 1  7.891817,8.7845774 A 1.1679889 1.4520943 0 1 1  10.227795 8.7845774 z"
       transform="matrix(0.856173,0,0,1.377321,2.243239,-2.099183)" />
    <path
       sodipodi:type="arc"
       style="opacity:1;fill:#2e3436;fill-opacity:1;stroke:none;stroke-width:1;stroke-miterlimit:4;stroke-dasharray:none;stroke-opacity:1"
       id="path2193"
       sodipodi:cx="9.0598059"
       sodipodi:cy="8.7845774"
       sodipodi:rx="1.1679889"
       sodipodi:ry="1.4520943"
       d="M 10.227795 8.7845774 A 1.1679889 1.4520943 0 1 1  7.891817,8.7845774 A 1.1679889 1.4520943 0 1 1  10.227795 8.7845774 z"
       transform="matrix(0.856173,0,0,1.377321,6.243238,-2.099183)" />
    <path
       style="fill:#eeeeec;fill-opacity:1;fill-rule:evenodd;stroke:#888a85;stroke-width:1.00000012;stroke-miterlimit:4;stroke-opacity:1"
       d="M 8.5305014,1.4929178 L 15.472687,1.4929178 C 16.597656,1.4929178 17.503318,2.3985792 17.503318,3.5235488 L 17.503318,6.473026 C 17.503318,7.5979956 16.597656,8.5036571 15.472687,8.5036571 L 8.5305014,8.5036571 C 7.4055318,8.5036571 6.4998703,7.5979956 6.4998703,6.473026 L 6.4998703,3.5235488 C 6.4998703,2.3985792 7.4055318,1.4929178 8.5305014,1.4929178 z "
       id="rect6643" />
    <rect
       style="opacity:1;fill:#cc0000;fill-opacity:1;fill-rule:evenodd;stroke:none;stroke-width:1;stroke-miterlimit:4;stroke-dasharray:none;stroke-opacity:1"
       id="rect6639"
       width="2"
       height="6"
       x="11"
       y="2" />
    <path
       sodipodi:type="inkscape:offset"
       inkscape:radius="-1.0154907"
       inkscape:original="M 8.53125 1.5 C 7.4062804 1.5 6.5 2.4062804 6.5 3.53125 L 6.5 6.46875 C 6.5 7.5937196 7.4062804 8.4999998 8.53125 8.5 L 15.46875 8.5 C 16.593719 8.5 17.499999 7.5937198 17.5 6.46875 L 17.5 3.53125 C 17.5 2.4062804 16.593719 1.5 15.46875 1.5 L 8.53125 1.5 z "
       xlink:href="#rect6643"
       style="fill:none;fill-opacity:1;fill-rule:evenodd;stroke:#ffffff;stroke-width:1.00000012;stroke-miterlimit:4;stroke-opacity:1;opacity:0.4"
       id="path6648"
       inkscape:href="#rect6643"
       d="M 8.53125,2.5 C 7.9516695,2.5 7.5,2.9516695 7.5,3.53125 L 7.5,6.46875 C 7.5,7.0483305 7.9516693,7.4999999 8.53125,7.5 L 15.46875,7.5 C 16.04833,7.5 16.499999,7.0483315 16.5,6.46875 L 16.5,3.53125 C 16.5,2.9516699 16.04833,2.5 15.46875,2.5 L 8.53125,2.5 z " />
    <rect
       style="opacity:1;fill:#cc0000;fill-opacity:1;fill-rule:evenodd;stroke:none;stroke-width:1;stroke-miterlimit:4;stroke-dasharray:none;stroke-opacity:1"
       id="rect6641"
       width="2"
       height="6"
       x="4"
       y="-15"
       transform="matrix(-4.947215e-17,1,-1,-3.435566e-17,0,0)" />
  </g>
</svg>
