<?xml version="1.0" encoding="UTF-8" standalone="no"?>
<!-- Created with Inkscape (http://www.inkscape.org/) -->
<svg
   xmlns:dc="http://purl.org/dc/elements/1.1/"
   xmlns:cc="http://web.resource.org/cc/"
   xmlns:rdf="http://www.w3.org/1999/02/22-rdf-syntax-ns#"
   xmlns:svg="http://www.w3.org/2000/svg"
   xmlns="http://www.w3.org/2000/svg"
   xmlns:xlink="http://www.w3.org/1999/xlink"
   xmlns:sodipodi="http://inkscape.sourceforge.net/DTD/s odipodi-0.dtd"
   xmlns:inkscape="http://www.inkscape.org/namespaces/inkscape"
   width="24"
   height="24"
   id="svg2"
   sodipodi:version="0.32"
   inkscape:version="0.43"
   version="1.0"
   sodipodi:docbase="/home/hbons/Desktop/Gaim Refresh/emotes/scalable"
   sodipodi:docname="thumbs-up.svg"
   inkscape:export-filename="/home/hbons/Desktop/Gaim Refresh/emotes/thumbs-up.png"
   inkscape:export-xdpi="90"
   inkscape:export-ydpi="90">
  <defs
     id="defs4">
    <linearGradient
       inkscape:collect="always"
       id="linearGradient3150">
      <stop
         style="stop-color:#2e3436;stop-opacity:1;"
         offset="0"
         id="stop3152" />
      <stop
         style="stop-color:#2e3436;stop-opacity:0;"
         offset="1"
         id="stop3154" />
    </linearGradient>
    <radialGradient
       inkscape:collect="always"
       xlink:href="#linearGradient3150"
       id="radialGradient3156"
       cx="10.748654"
       cy="10.457643"
       fx="10.748654"
       fy="10.457643"
       r="6.6449099"
       gradientTransform="matrix(-0.842757,5.698892e-16,-4.565819e-9,-0.35721,19.80716,14.19321)"
       gradientUnits="userSpaceOnUse" />
    <linearGradient
       inkscape:collect="always"
       id="linearGradient2301">
      <stop
         style="stop-color:#ffffff;stop-opacity:1;"
         offset="0"
         id="stop2303" />
      <stop
         style="stop-color:#ffffff;stop-opacity:0;"
         offset="1"
         id="stop2305" />
    </linearGradient>
    <linearGradient
       inkscape:collect="always"
       xlink:href="#linearGradient2301"
       id="linearGradient2307"
       x1="26.59111"
       y1="15.416265"
       x2="7.7206392"
       y2="10.359937"
       gradientUnits="userSpaceOnUse" />
  </defs>
  <sodipodi:namedview
     id="base"
     pagecolor="#ffffff"
     bordercolor="#666666"
     borderopacity="1.0"
     inkscape:pageopacity="0.0"
     inkscape:pageshadow="2"
     inkscape:zoom="20.899939"
     inkscape:cx="22.736203"
     inkscape:cy="14.155824"
     inkscape:document-units="px"
     inkscape:current-layer="layer1"
     showgrid="true"
     fill="#ce5c00"
     showguides="true"
     inkscape:guide-bbox="true"
     inkscape:window-width="1268"
     inkscape:window-height="971"
     inkscape:window-x="6"
     inkscape:window-y="21" />
  <metadata
     id="metadata7">
    <rdf:RDF>
      <cc:Work
         rdf:about="">
        <dc:format>image/svg+xml</dc:format>
        <dc:type
           rdf:resource="http://purl.org/dc/dcmitype/StillImage" />
      </cc:Work>
    </rdf:RDF>
  </metadata>
  <g
     inkscape:label="Layer 1"
     inkscape:groupmode="layer"
     id="layer1">
    <path
       sodipodi:type="arc"
       style="opacity:0.4;fill:url(#radialGradient3156);fill-opacity:1;stroke:none;stroke-width:1;stroke-miterlimit:4;stroke-dasharray:none;stroke-opacity:1"
       id="path3140"
       sodipodi:cx="10.748654"
       sodipodi:cy="10.457643"
       sodipodi:rx="6.6449099"
       sodipodi:ry="2.3675451"
       d="M 17.393564 10.457643 A 6.6449099 2.3675451 0 1 1  4.1037445,10.457643 A 6.6449099 2.3675451 0 1 1  17.393564 10.457643 z"
       transform="matrix(1.472149,0,0,1.478325,-4.041324,4.040207)" />
    <path
       style="opacity:1;fill:#fcaf3e;fill-opacity:1;fill-rule:evenodd;stroke:#f57900;stroke-width:1;stroke-miterlimit:4;stroke-opacity:1"
       d="M 4.4272042,12.50435 C 4.4272042,11.39995 8.2753637,9.8790049 8.2753637,9.8790049 C 6.0744003,6.864642 5.2499662,4.3835648 7.4114431,3.5713344 C 9.5567582,2.7651772 11.288616,9.0466858 15.073934,9.5803879 C 17.351839,9.9015558 19.579467,11.332573 19.579467,11.332573 L 20.416696,16.795753 C 20.416696,16.795753 14.501118,20.586636 9.1385252,20.586636 C 7.8255591,20.586636 4.4272042,17.440262 4.4272042,12.50435 z "
       id="rect2277"
       sodipodi:nodetypes="cczsccss" />
    <rect
       style="opacity:1;fill:#ce5c00;fill-opacity:1;fill-rule:evenodd;stroke:none;stroke-width:1;stroke-miterlimit:4;stroke-dasharray:none;stroke-opacity:1"
       id="rect2290"
       width="2.1410265"
       height="0.97348136"
       x="4.1681261"
       y="18.226345"
       transform="matrix(0.87548,-0.483254,0.128983,0.991647,0,0)" />
    <path
       style="fill:#ce5c00;fill-opacity:1;fill-rule:evenodd;stroke:none;stroke-width:1;stroke-miterlimit:4;stroke-opacity:1"
       d="M 4.9999972,13.916437 L 6.8360111,13.025178 L 6.9999972,14.133919 L 5.1639833,15.025178 L 4.9999972,13.916437 z "
       id="rect2288" />
    <rect
       style="opacity:1;fill:#ce5c00;fill-opacity:1;fill-rule:evenodd;stroke:none;stroke-width:1;stroke-miterlimit:4;stroke-dasharray:none;stroke-opacity:1"
       id="rect2292"
       width="2.1413295"
       height="0.97405714"
       x="4.9587111"
       y="20.629993"
       transform="matrix(0.875358,-0.483475,0.128907,0.991657,0,0)" />
    <path
       sodipodi:type="inkscape:offset"
       inkscape:radius="-1.0127089"
       inkscape:original="M 7.40625 3.5625 C 5.2447731 4.3747304 6.0802864 6.8606375 8.28125 9.875 C 8.28125 9.875 4.4375001 11.3956 4.4375 12.5 C 4.4375 17.435912 7.8120341 20.59375 9.125 20.59375 C 14.487593 20.59375 20.406249 16.78125 20.40625 16.78125 L 19.59375 11.34375 C 19.59375 11.34375 17.340405 9.9149177 15.0625 9.59375 C 11.277182 9.0600479 9.551565 2.7563428 7.40625 3.5625 z "
       xlink:href="#rect2277"
       style="opacity:0.33000004;fill:url(#linearGradient2307);fill-opacity:1;fill-rule:evenodd;stroke:#ffffff;stroke-width:1;stroke-miterlimit:4;stroke-opacity:1"
       id="path2286"
       inkscape:href="#rect2277"
       d="M 8.75,3.46875 C 8.3889695,3.6044165 8.2866996,3.7348737 8.21875,3.875 C 8.1508004,4.0151263 8.1083506,4.2491275 8.1875,4.65625 C 8.3457987,5.4704949 9.0354632,6.8006073 10.09375,8.25 C 10.275883,8.5017409 10.332384,8.823154 10.247023,9.1219173 C 10.161662,9.4206806 9.9438866,9.6637291 9.65625,9.78125 C 9.65625,9.78125 8.7385508,10.142465 7.84375,10.625 C 7.3963496,10.866267 6.9590251,11.15056 6.6875,11.375 C 6.4159749,11.59944 6.4375,11.780088 6.4375,11.46875 C 6.4375,13.70592 7.2292382,15.531101 8.125,16.78125 C 8.5728809,17.406324 9.0359693,17.888418 9.4375,18.1875 C 9.8390307,18.486582 10.202705,18.5625 10.125,18.5625 C 14.62713,18.5625 19.503414,15.702478 20.3125,15.21875 L 19.65625,10.96875 C 19.152748,10.678478 17.574425,9.7977004 15.90625,9.5625 C 13.488856,9.2216652 11.998267,7.2152559 10.8125,5.65625 C 10.219616,4.8767471 9.6864056,4.1892334 9.28125,3.8125 C 9.0786722,3.6241333 8.9181899,3.5275708 8.84375,3.5 C 8.7693101,3.4724292 8.7938358,3.4522776 8.75,3.46875 z " />
  </g>
</svg>
