<?xml version="1.0" encoding="UTF-8" standalone="no"?>
<!-- Created with Inkscape (http://www.inkscape.org/) -->
<svg
   xmlns:dc="http://purl.org/dc/elements/1.1/"
   xmlns:cc="http://web.resource.org/cc/"
   xmlns:rdf="http://www.w3.org/1999/02/22-rdf-syntax-ns#"
   xmlns:svg="http://www.w3.org/2000/svg"
   xmlns="http://www.w3.org/2000/svg"
   xmlns:xlink="http://www.w3.org/1999/xlink"
   xmlns:sodipodi="http://inkscape.sourceforge.net/DTD/s odipodi-0.dtd"
   xmlns:inkscape="http://www.inkscape.org/namespaces/inkscape"
   width="24"
   height="24"
   id="svg2"
   sodipodi:version="0.32"
   inkscape:version="0.43"
   version="1.0"
   sodipodi:docbase="/home/hbons/Desktop/Gaim Refresh/emotes/scalable"
   sodipodi:docname="turtle.svg"
   inkscape:export-filename="/home/hbons/Desktop/Gaim Refresh/emotes/turtle.png"
   inkscape:export-xdpi="90"
   inkscape:export-ydpi="90">
  <defs
     id="defs4">
    <linearGradient
       inkscape:collect="always"
       id="linearGradient3150">
      <stop
         style="stop-color:#2e3436;stop-opacity:1;"
         offset="0"
         id="stop3152" />
      <stop
         style="stop-color:#2e3436;stop-opacity:0;"
         offset="1"
         id="stop3154" />
    </linearGradient>
    <radialGradient
       inkscape:collect="always"
       xlink:href="#linearGradient3150"
       id="radialGradient3156"
       cx="9.9707184"
       cy="9.0231543"
       fx="9.9707184"
       fy="9.0231543"
       r="6.6449099"
       gradientTransform="matrix(-0.967329,-1.194556e-8,3.246689e-17,-0.239785,21.14615,12.78978)"
       gradientUnits="userSpaceOnUse" />
    <linearGradient
       inkscape:collect="always"
       id="linearGradient2220">
      <stop
         style="stop-color:#ffffff;stop-opacity:1;"
         offset="0"
         id="stop2222" />
      <stop
         style="stop-color:#ffffff;stop-opacity:0;"
         offset="1"
         id="stop2224" />
    </linearGradient>
    <radialGradient
       inkscape:collect="always"
       xlink:href="#linearGradient2220"
       id="radialGradient2226"
       cx="14.480017"
       cy="6.2007046"
       fx="14.480017"
       fy="3.7429423"
       r="5.5"
       gradientTransform="matrix(1.137693,-1.543924e-8,1.078291e-8,0.723986,-2.473814,3.894761)"
       gradientUnits="userSpaceOnUse" />
  </defs>
  <sodipodi:namedview
     id="base"
     pagecolor="#ffffff"
     bordercolor="#666666"
     borderopacity="1.0"
     inkscape:pageopacity="0.0"
     inkscape:pageshadow="2"
     inkscape:zoom="24.082386"
     inkscape:cx="23.013295"
     inkscape:cy="15.442779"
     inkscape:document-units="px"
     inkscape:current-layer="layer1"
     showgrid="true"
     fill="#2e3436"
     showguides="true"
     inkscape:guide-bbox="true"
     inkscape:window-width="1268"
     inkscape:window-height="971"
     inkscape:window-x="6"
     inkscape:window-y="21" />
  <metadata
     id="metadata7">
    <rdf:RDF>
      <cc:Work
         rdf:about="">
        <dc:format>image/svg+xml</dc:format>
        <dc:type
           rdf:resource="http://purl.org/dc/dcmitype/StillImage" />
      </cc:Work>
    </rdf:RDF>
  </metadata>
  <g
     inkscape:label="Layer 1"
     inkscape:groupmode="layer"
     id="layer1">
    <path
       style="fill:#c17d11;fill-opacity:1;fill-rule:evenodd;stroke:#8f5902;stroke-width:0.99999928;stroke-miterlimit:4;stroke-opacity:1"
       d="M 1.9235196,7.5010097 C 1.486732,8.1835774 0.73013571,10.56992 3.6474743,11.355444 C 4.1930454,11.502344 4.7689983,11.483155 5.3325276,11.483642 C 5.7134185,11.744415 5.9072423,12.211262 6.1913675,12.57045 C 6.6871041,13.248358 7.1558585,14.023121 7.9189127,14.419587 C 8.3508972,14.568619 8.8312731,14.474371 9.2653785,14.371713 C 9.9743873,14.199608 10.345511,13.473126 10.424134,12.791706 C 10.54432,11.90619 10.601512,10.875362 9.9626755,10.165587 C 9.20578,9.3076198 8.3390086,9.0683628 7.3410078,8.6308679 C 6.7277717,7.8699415 5.9926062,6.5024078 4.8693438,6.5024078 C 3.7589305,6.5024078 2.4657491,6.7117316 1.9235196,7.5010097 z "
       id="path2180"
       sodipodi:nodetypes="cscccssscsc" />
    <path
       sodipodi:type="inkscape:offset"
       inkscape:radius="-0.99399596"
       inkscape:original="M 4.875 6.5 C 3.7645867 6.4999998 2.4797295 6.7107219 1.9375 7.5 C 1.5007124 8.1825679 0.73891141 10.558226 3.65625 11.34375 C 4.2018211 11.49065 4.7802207 11.468263 5.34375 11.46875 C 5.7246409 11.729523 5.9033748 12.203312 6.1875 12.5625 C 6.6832365 13.240408 7.1431958 14.009784 7.90625 14.40625 C 8.3382343 14.555282 8.8158946 14.477658 9.25 14.375 C 9.9590083 14.202895 10.358877 13.46267 10.4375 12.78125 C 10.557686 11.895734 10.607587 10.866025 9.96875 10.15625 C 9.2118549 9.2982824 8.3417508 9.0624949 7.34375 8.625 C 6.730514 7.8640735 5.9982624 6.5 4.875 6.5 z "
       xlink:href="#path2180"
       style="opacity:0.25;fill:none;fill-opacity:1;fill-rule:evenodd;stroke:#ffffff;stroke-width:0.99999928;stroke-miterlimit:4;stroke-opacity:1"
       id="path2228"
       inkscape:href="#path2180"
       d="M 4.875,6.53125 C 4.3837465,6.53125 3.84272,6.5726408 3.4375,6.6875 C 3.03228,6.8023592 2.8003466,6.975555 2.71875,7.09375 C 2.6499144,7.2007956 2.4284805,7.8130967 2.5,8.25 C 2.5715195,8.6869033 2.7113601,9.0860802 3.90625,9.40625 C 4.258525,9.5006416 4.754095,9.4994926 5.34375,9.5 C 5.5459576,9.503826 5.7421883,9.5692362 5.90625,9.6875 C 6.6357691,10.184525 6.8261828,10.789396 6.96875,10.96875 C 6.979397,10.978934 6.9898162,10.989353 7,11 C 7.505724,11.688199 7.8815648,12.216728 8.3125,12.46875 C 8.4514703,12.494391 8.6905153,12.486436 9.03125,12.40625 C 9.2046811,12.364356 9.3593675,12.091852 9.40625,11.6875 C 9.5204317,10.850319 9.5047862,10.160001 9.21875,9.84375 C 8.6507355,9.203021 8.0058906,9.0285715 6.9375,8.5625 C 6.7918679,8.4999825 6.6632937,8.4035519 6.5625,8.28125 C 6.1934076,7.825496 5.8787176,7.3138006 5.5625,6.96875 C 5.2462824,6.6236994 5.0332712,6.53125 4.875,6.53125 z " />
    <path
       style="fill:#c17d11;fill-opacity:1;fill-rule:evenodd;stroke:#8f5902;stroke-width:1.00000131;stroke-miterlimit:4;stroke-opacity:1"
       d="M 18.380154,15.500013 L 18.617592,13.449867 L 21.5,15.481415 L 18.380154,15.500013 z "
       id="path2240"
       sodipodi:nodetypes="cccc" />
    <path
       sodipodi:type="arc"
       style="opacity:0.6;fill:url(#radialGradient3156);fill-opacity:1;stroke:none;stroke-width:1;stroke-miterlimit:4;stroke-dasharray:none;stroke-opacity:1"
       id="path3140"
       sodipodi:cx="10.748654"
       sodipodi:cy="10.457643"
       sodipodi:rx="6.6449099"
       sodipodi:ry="2.3675451"
       d="M 17.393564 10.457643 A 6.6449099 2.3675451 0 1 1  4.1037445,10.457643 A 6.6449099 2.3675451 0 1 1  17.393564 10.457643 z"
       transform="matrix(1.655402,0,0,1.478325,-5.793349,2.040211)" />
    <path
       style="fill:#c17d11;fill-opacity:1;fill-rule:evenodd;stroke:#8f5902;stroke-width:0.99999958;stroke-miterlimit:4;stroke-dasharray:none;stroke-opacity:1"
       d="M 11.499862,17.314043 C 11.499862,16.65142 11.045319,15.495783 9.9849261,15.495783 C 8.9245326,15.495783 8.5012247,16.598463 8.5012247,17.261084 C 8.5012247,17.923709 8.9245326,18.496799 9.9849261,18.496799 C 11.045319,18.496799 11.499862,17.976669 11.499862,17.314043 z "
       id="path2269"
       sodipodi:nodetypes="csssc" />
    <path
       style="fill:#c17d11;fill-opacity:1;fill-rule:evenodd;stroke:#8f5902;stroke-width:0.99999946;stroke-miterlimit:4;stroke-dasharray:none;stroke-opacity:1"
       d="M 18.498911,17.314042 C 18.498911,16.651419 18.044492,15.495782 16.984386,15.495782 C 15.924281,15.495782 15.501088,16.598462 15.501088,17.261083 C 15.501088,17.923708 15.924281,18.496798 16.984386,18.496798 C 18.044492,18.496798 18.498911,17.976668 18.498911,17.314042 z "
       id="path2195"
       sodipodi:nodetypes="csssc" />
    <path
       style="fill:#73d216;fill-opacity:1;fill-rule:evenodd;stroke:#2f6700;stroke-width:1.00000012;stroke-miterlimit:4;stroke-opacity:1"
       d="M 20.500046,13.830202 C 20.500046,17.325705 7.5001064,17.325705 7.5001064,13.830202 C 7.5001064,10.334695 10.412092,7.4977709 14.000076,7.4977709 C 17.58806,7.4977709 20.500046,10.334695 20.500046,13.830202 z "
       id="path2202" />
    <path
       sodipodi:type="inkscape:offset"
       inkscape:radius="-1.0086972"
       inkscape:original="M 14 7.5 C 10.412016 7.5 7.5000001 10.348243 7.5 13.84375 C 7.5 17.339253 20.5 17.339253 20.5 13.84375 C 20.5 10.348243 17.587984 7.5000001 14 7.5 z "
       xlink:href="#path2202"
       style="opacity:0.5;fill:url(#radialGradient2226);fill-opacity:1;fill-rule:evenodd;stroke:none;stroke-width:1;stroke-miterlimit:4;stroke-opacity:1"
       id="path2210"
       inkscape:href="#path2202"
       d="M 14,7.5 C 10.948372,7.5 8.4999998,9.9214762 8.5,12.875 C 8.5,13.002674 8.5409451,13.08766 8.75,13.28125 C 8.9590549,13.47484 9.3496616,13.717065 9.875,13.90625 C 10.925677,14.28462 12.465813,14.5 14,14.5 C 15.534187,14.5 17.074323,14.28462 18.125,13.90625 C 18.650338,13.717065 19.040945,13.47484 19.25,13.28125 C 19.459055,13.08766 19.5,13.002674 19.5,12.875 C 19.5,9.9214753 17.05163,7.5000001 14,7.5 z "
       transform="matrix(1.090909,0,0,1.142857,-1.181816,-1.571427)" />
    <path
       sodipodi:type="inkscape:offset"
       inkscape:radius="-1.0086972"
       inkscape:original="M 14 7.5 C 10.412016 7.5 7.5000001 10.348243 7.5 13.84375 C 7.5 17.339253 20.5 17.339253 20.5 13.84375 C 20.5 10.348243 17.587984 7.5000001 14 7.5 z "
       xlink:href="#path2202"
       style="opacity:0.4;fill:none;fill-opacity:1;fill-rule:evenodd;stroke:#ffffff;stroke-width:1;stroke-miterlimit:4;stroke-opacity:1"
       id="path2337"
       inkscape:href="#path2202"
       d="M 14,7.5 C 10.948372,7.5 8.4999998,9.9214762 8.5,12.875 C 8.5,13.002674 8.5409451,13.08766 8.75,13.28125 C 8.9590549,13.47484 9.3496616,13.717065 9.875,13.90625 C 10.925677,14.28462 12.465813,14.5 14,14.5 C 15.534187,14.5 17.074323,14.28462 18.125,13.90625 C 18.650338,13.717065 19.040945,13.47484 19.25,13.28125 C 19.459055,13.08766 19.5,13.002674 19.5,12.875 C 19.5,9.9214753 17.05163,7.5000001 14,7.5 z " />
    <path
       sodipodi:type="arc"
       style="opacity:1;fill:#2e3436;fill-opacity:1;fill-rule:evenodd;stroke:none;stroke-width:1;stroke-miterlimit:4;stroke-dasharray:none;stroke-opacity:1"
       id="path2245"
       sodipodi:cx="2.9697978"
       sodipodi:cy="13.27573"
       sodipodi:rx="0.45689198"
       sodipodi:ry="0.39343476"
       d="M 3.4266898 13.27573 A 0.45689198 0.39343476 0 1 1  2.5129059,13.27573 A 0.45689198 0.39343476 0 1 1  3.4266898 13.27573 z"
       transform="matrix(1.139792,0,0,2.54173,1.13581,-24.74333)" />
    <image
       id="image2204"
       height="48.350616"
       width="48.350616"
       sodipodi:absref="/home/hbons/Desktop/Gaim Refresh/Tango-Palette.png"
       xlink:href="/home/hbons/Desktop/Gaim Refresh/Tango-Palette.png"
       x="-50"
       y="-13.350616" />
  </g>
</svg>
