/* XPM */
static char * aol_icon_xpm[] = {
"12 12 47 1",
" 	c None",
".	c #9B9BD6",
"+	c #2222A6",
"@	c #4D4DB7",
"#	c #9696D5",
"$	c #000098",
"%	c #04049A",
"&	c #2C2CAA",
"*	c #8989CF",
"=	c #C8C8E9",
"-	c #C2C2E6",
";	c #FBFBFD",
">	c #3838AF",
",	c #010199",
"'	c #8787CF",
")	c #F6F6FB",
"!	c #9595D4",
"~	c #3C3CB1",
"{	c #10109F",
"]	c #1212A0",
"^	c #2424A7",
"/	c #6E6EC5",
"(	c #000099",
"_	c #8F8FD2",
":	c #4A4AB6",
"<	c #AAAADD",
"[	c #ADADDE",
"}	c #1717A2",
"|	c #4C4CB7",
"1	c #05059B",
"2	c #C3C3E7",
"3	c #4242B3",
"4	c #1A1AA3",
"5	c #6363C0",
"6	c #4E4EB8",
"7	c #9797D5",
"8	c #9A9AD6",
"9	c #E4E4F4",
"0	c #7373C7",
"a	c #C4C4E7",
"b	c #1B1BA3",
"c	c #03039A",
"d	c #4F4FB8",
"e	c #F4F4FA",
"f	c #FEFEFE",
"g	c #6565C1",
"h	c #7171C6",
"     .      ",
"     +@     ",
"    #$%     ",
"    &*=.    ",
"   .---;    ",
"   ->$,')   ",
"  !~{$$]-   ",
"  ^/($$$_:  ",
" <([,$$}|1  ",
" ^$23$$45$6 ",
"7$$8900ab$c ",
"|&&defeg&&&h"};
