/* XPM */
static char * away_icon_xpm[] = {
"12 13 83 1",
" 	c None",
".	c #4C4D44",
"+	c #77786C",
"@	c #52534A",
"#	c #4F4E47",
"$	c #A9AA98",
"%	c #ADAE9C",
"&	c #757369",
"*	c #504D48",
"=	c #45453F",
"-	c #A3A393",
";	c #A7A796",
">	c #6D6D62",
",	c #A6A698",
"'	c #ACAC9E",
")	c #4F4E48",
"!	c #565656",
"~	c #73746F",
"{	c #999A8A",
"]	c #A5A594",
"^	c #A7A695",
"/	c #A9AB9B",
"(	c #AAAB9E",
"_	c #A7A698",
":	c #44423D",
"<	c #7D7D7D",
"[	c #808180",
"}	c #636359",
"|	c #D5D5BF",
"1	c #AAA999",
"2	c #75756A",
"3	c #B2B1A2",
"4	c #E5E4D0",
"5	c #969487",
"6	c #363231",
"7	c #3C3C3C",
"8	c #71726D",
"9	c #9C9D8D",
"0	c #A1A090",
"a	c #B1B2A0",
"b	c #B4B5A3",
"c	c #B8B7A5",
"d	c #DDDBC7",
"e	c #868379",
"f	c #302E2A",
"g	c #3F3F39",
"h	c #A8A998",
"i	c #A0A090",
"j	c #727166",
"k	c #B0B0A1",
"l	c #B1B1A1",
"m	c #79796D",
"n	c #B5B4A2",
"o	c #F2F1D9",
"p	c #9E9D8D",
"q	c #31302C",
"r	c #4B4C44",
"s	c #A8A997",
"t	c #ABAB9A",
"u	c #B0B09E",
"v	c #AEAD9E",
"w	c #78766D",
"x	c #B6B5A4",
"y	c #F1F1D9",
"z	c #B6B6A3",
"A	c #52524A",
"B	c #4A4A42",
"C	c #AAAA98",
"D	c #E8E9D1",
"E	c #B5B5A3",
"F	c #EDEDD5",
"G	c #B2B2A0",
"H	c #515149",
"I	c #4B4B43",
"J	c #B1B19F",
"K	c #EDEFD6",
"L	c #DFE0C8",
"M	c #A1A190",
"N	c #525149",
"O	c #B4B5A2",
"P	c #9FA08F",
"Q	c #3A3A33",
"R	c #505148",
"   .+@      ",
"  #$%&*     ",
" =-;>,')    ",
"!~{]^/(_:   ",
"<[}|123456  ",
"78902abcdef ",
"ghijklmnopq ",
"rstuvwxyzA  ",
" BCDaEFGH   ",
"  IJKLMI    ",
"   NOPQ     ",
"    Rr      ",
"            "};
