/* XPM */
static char *yahoo_sleep[] = {
/* width height ncolors chars_per_pixel */
"18 18 23 1",
/* colors */
"  c #CCCC33",
". c #003366",
"X c #999999",
"o c #CCCCFF",
"O c #999966",
"+ c #FF9999",
"@ c #336699",
"# c #663333",
"$ c #FFCCCC",
"% c #848200",
"& c #993333",
"* c #FFFF33",
"= c #CCFFFF",
"- c #CC3333",
"; c #2A3F00",
": c #666666",
"> c #6699CC",
", c #FFFFFF",
"< c #FFFF00",
"4 c #FBFBFB",
"2 c #CCCC66",
"3 c #FFBD00",
"1 c None",
/* pixels */
"111111@@@@@@111111",
"111111@=,=,@111111",
"1111X#@@.,.1>@@@@>",
"111#   .=.@@@,,==@",
"11# **@=,,,@>@.,.1",
"1# ***@.......,.@>",
": ****O  ***@,=,=@",
"# ***O*** * @....@",
"&**** ;;; * **O&11",
"-****  oo**O;;O-11",
"&**$$$***OO ooO&11",
"#*3$$$*****   +#11",
": *3$  ***** ++:11",
":%*** %3  %#* %:11",
"1:3*********  :111",
"11:3*<<<<    :1111",
"111:%22<<22%:11111",
"1111::&##&::111111"
};
