/* XPM */
static char *yahoo_question[] = {
/* width height ncolors chars_per_pixel */
"18 18 28 1",
/* colors */
"  c #996633",
". c #CCCC33",
"X c #777777",
"o c #FFFF99",
"O c #CCCCFF",
"+ c #336699",
"@ c #663333",
"# c #999933",
"$ c #FF9966",
"% c #B2B2B2",
"& c #330099",
"* c #993333",
"= c #CC9933",
"- c #FFFF33",
"; c #929292",
": c #996699",
"> c #9999FF",
", c #CCFFFF",
"< c #666666",
"1 c #FFCC99",
"2 c #9933FF",
"3 c #FFFFFF",
"4 c #996666",
"5 c #CCCC66",
"6 c #FFBD00",
"7 c #9999CC",
"8 c #D3D3D3",
"9 c None",
/* pixels */
"3338;@@@@@@;833333",
"33%@.------.@%3333",
"3%@--###-----@%333",
"8@o.#-.---.--o@833",
"<.o..33.-33=-o5<33",
"@oo..3&=-&3=555@%3",
"@oo-.=>=.>. 22222%",
"@-----=.-. 2O,,,72",
"@--------- >,++>,&",
"@---=##=--= +4=&,&",
"@61---55:-5===+,>&",
"X=6-1$$---55=&,>&%",
"8@.5--55-555=+&&%3",
"3%@655555555=;%%33",
"33%@=555555=+&7%33",
"3338;X*@@*X;&3&833",
"3333333333337&7833",
"333333333333333333"
};
