/* XPM */
static char *yahoo_ghost[] = {
/* width height ncolors chars_per_pixel */
"18 18 12 1",
/* colors */
"  c #000000",
". c #3366CC",
"X c #CCCCFF",
"o c #3399CC",
"O c #9999FF",
"+ c #CCFFFF",
"@ c #330066",
"# c #6699CC",
"$ c #FFFFFF",
"% c #FBFBFB",
"& c #660066",
"* c None",
/* pixels */
"$$$$$$$$$$$$$$$$$$",
"$$$$$$&&&&&&$$$$$$",
"$$$$&&##XXXX&&$$$$",
"$$$&##OOX$OOXX&$$$",
"$$&##XO@$$@OXXX&$$",
"$$&#XXO&$$&OX%X&$$",
"$&&#X++O++O+XXX&&$",
"$&#OX++++++$$XXO&$",
"$&.OX+++++%$$XXO&$",
"$&oOX+$+   %$XXO&$",
"$&oOX++ &&& XXXO&$",
"$&oOX++ &&& X$$O&$",
"$&oOXX++&&&%XX$O&$",
"$&o#OXX#OX#O$O#O&$",
"$&o&#O#&##&#O#&o&$",
"$&&$&#&$&&$&#&$&&$",
"$&$$$&$$$$$$&$$$&$",
"$$$$$$$$$$$$$$$$$$"
};
