/* XPM */
static char *yahoo_mean[] = {
/* width height ncolors chars_per_pixel */
"18 18 16 1",
/* colors */
"  c #000000",
". c #996633",
"X c #777777",
"o c #663333",
"O c #999933",
"+ c #B2B2B2",
"@ c #993333",
"# c #CC9933",
"$ c #FFFF33",
"% c #929292",
"& c #666666",
"* c #FBFBFB",
"= c #CCCC66",
"- c #FFBD00",
"; c #D3D3D3",
": c None",
/* pixels */
"******************",
"****;%oooooo%;****",
"***+o=$$$$$=Oo+***",
"**+o$$$$$$$$=Oo+**",
"*;o$$=$$$$$$$=Oo;*",
"*&=$$=O.o$$Oo.OO&*",
"*o$$$$=O$O$O$.=Oo*",
"*o$$$$=o*O= *.=Oo*",
"*o$$$$$========Oo*",
"*o$$$##$$$$$$=.Oo*",
"*o$$$$###OOO..=Oo*",
"*o=$$$$$$$$$$$=Oo*",
"*&O$$$$$$===$==O&*",
"*;o-$$$$$$$$==Oo;*",
"**+o-$$$$$$==Oo+**",
"***+o#======Oo+***",
"****;%X@oo@X%;****",
"******************"
};
