/* XPM */
static char *yahoo_devil[] = {
/* width height ncolors chars_per_pixel */
"18 18 18 1",
/* colors */
"  c #333366",
". c #777777",
"X c #CCCCFF",
"o c #663333",
"O c #B2B2B2",
"+ c #666699",
"@ c #FF0000",
"# c #848200",
"$ c #929292",
"% c #A50021",
"& c #666666",
"* c #5C5C5C",
"= c #CC99FF",
"- c #FBFBFB",
"; c #9999CC",
": c #D3D3D3",
"> c #669999",
", c None",
/* pixels */
"o,,,,,,,,,,,,,,,,o",
"o%o,:$oooooo$:,o%o",
", @oo#=oooo=#oo@ ,",
", o%=XX=oo=XX=%o ,",
",= =XXXX==XXXX= =,",
",&=X;XXXXXXXX;X=&,",
",&=X;##XXXX##;X=&,",
",&=XXX- ;; -XXX=&,",
",&=XXXX+;;+XXXX=&,",
",&=X;XXXXXXXX;X=&,",
",&=XX+XXXXXX+XX=&,",
",.;XXX++++++XXX=.,",
",$#XXXXX--XXXXX#$,",
",:.=XXX;::;XXX=.:,",
",,O.=XX*;;*XX=.O,,",
",,,O.#=>**>=#.O,,,",
",,,,:$.&**&.$:,,,,",
",,,,,,,,,,,,,,,,,,"
};
