/* XPM */
static char *yahoo_bye[] = {
/* width height ncolors chars_per_pixel */
"18 18 20 1",
/* colors */
"  c #000000",
". c #CCCC33",
"X c #999999",
"o c #CCCCFF",
"O c #999966",
"+ c #FF9999",
"@ c #CCCCCC",
"# c #663333",
"$ c #848200",
"% c #993333",
"& c #FFFF33",
"* c #CC3333",
"= c #666666",
"- c #FFFFFF",
"; c #FFFF00",
": c #FBFBFB",
"> c #CCCC66",
", c #CC6666",
"< c #FFFFCC",
"1 c None",
/* pixels */
"::::::X######X::::",
":::::#........#:::",
"::::#.&&&&&&&..#::",
":::#.&&&&OO&&&..#:",
"::=.&&&&O..&&&...=",
":#.&X=XO-- &&.OOO#",
":%X==-==X--&&.- O%",
"X==-=<=-=oo&.---.*",
"=-=<=<=<=&&OO.oo+%",
"=<=<=<=<===&..+++#",
"=<=<---@O-=&&&,+,=",
"=<-<@@@.--=,,%&.$=",
"=<-@<@.--=&&&&..=:",
"=<-<<@--<=;$$$.=::",
":=<-<<--=;;>>>=:::",
"::=<---=%##%==::::",
":::=====::::::::::",
"::::::::::::::::::"
};
