/* XPM */
static char *yahoo_cow[] = {
/* width height ncolors chars_per_pixel */
"18 18 18 1",
/* colors */
"  c #000000",
". c #996633",
"X c #999999",
"o c #333366",
"O c #FF9999",
"+ c #373737",
"@ c #CC9966",
"# c #CCCCCC",
"$ c #663333",
"% c #FFCCCC",
"& c #CC9933",
"* c #555F00",
"= c #FFFFFF",
"- c #FBFBFB",
"; c #CCCC66",
": c #666633",
"> c #FFCC66",
", c None",
/* pixels */
"---$----------$---",
"--$=$$@....@$$=$--",
"-- ==#o>>>>o#== --",
"--@ Xo.>>>>.oX @--",
"-..*o>;;>>;;>o*..-",
".>>$>;::>>::;>*>>.",
".>o$>:&&>>&&:>*o>.",
".o-$>...>>...>*-o.",
".--$>=o=>>=o=>*--.",
"---$>>>&&&&>>>*---",
"--.>&&......&>>+--",
"--.&&.O%%%%O.&&+--",
"--.&.O$O%%O$O.&+--",
"--.&.%O%%%%O%.&*--",
"---.O%%%%%%%%O*---",
"----.*OOOOOO*.----",
"-----&******&-----",
"------&    &------"
};
