/* XPM */
static char *yahoo_wink[] = {
/* width height ncolors chars_per_pixel */
"18 18 19 1",
/* colors */
"  c #996633",
". c #CCCC33",
"X c #FF6666",
"o c #777777",
"O c #663333",
"+ c #999933",
"@ c #B2B2B2",
"# c #FFCCCC",
"$ c #993333",
"% c #CC9933",
"& c #FFFF33",
"* c #929292",
"= c #666666",
"- c #FBFBFB",
"; c #CCCC66",
": c #FFBD00",
"> c #D3D3D3",
", c #CC6666",
"< c None",
/* pixels */
"------------------",
"---->=OOOOOO=>----",
"---@O+.......O@---",
"--@O+..&&&&&&&O@--",
"->O+..&&&&&&&&&O>-",
"-=+..&&&&&&. .&.=-",
"-O+..++ #&&o- &&O-",
"-O+..&&. #&+O &&O-",
"-O+..&&&......&&O-",
"-O+..,.&&&&&&&&&O-",
"-O+ ,+&&&&&&&&&&O-",
"-O+.+,.&&&&&&&&&O-",
"-=+..+,.&&&.+&&+=-",
"->O+...,,,X+&&;O>-",
"--@O+..&&&&&&:O@--",
"---@O+;;++;;%O@---",
"---->*$OOOO$*>----",
"------------------"
};
