/* XPM */
static char *yahoo_question[] = {
/* width height ncolors chars_per_pixel */
"18 18 28 1",
/* colors */
"  c #996633",
". c #CCCC33",
"X c #777777",
"o c #FFFF99",
"O c #CCCCFF",
"+ c #336699",
"@ c #663333",
"# c #999933",
"$ c #FF9966",
"% c #B2B2B2",
"& c #330099",
"* c #993333",
"= c #CC9933",
"- c #FFFF33",
"; c #929292",
": c #996699",
"> c #9999FF",
", c #CCFFFF",
"< c #666666",
"1 c #FFCC99",
"2 c #9933FF",
"3 c #FFFFFF",
"4 c #996666",
"5 c #CCCC66",
"6 c #FFBD00",
"7 c #9999CC",
"8 c #D3D3D3",
"9 c None",
/* pixels */
"9998;@@@@@@;899999",
"99%@.------.@%9999",
"9%@--###-----@%999",
"8@o.#-.---.--o@899",
"<.o..33.-33=-o5<99",
"@oo..3&=-&3=555@%9",
"@oo-.=>=.>. 22222%",
"@-----=.-. 2O,,,72",
"@--------- >,++>,&",
"@---=##=--= +4=&,&",
"@61---55:-5===+,>&",
"X=6-1$$---55=&,>&%",
"8@.5--55-555=+&&%9",
"9%@655555555=;%%99",
"99%@=555555=+&7%99",
"9998;X*@@*X;&9&899",
"9999999999997&7899",
"999999999999999999"
};
