/* XPM */
static char *yahoo_sunglas[] = {
/* width height ncolors chars_per_pixel */
"18 18 20 1",
/* colors */
"  c #CCCC33",
". c #777777",
"X c #373737",
"o c #336699",
"O c #663333",
"+ c #B2B2B2",
"@ c #848200",
"# c #993333",
"$ c #CC9933",
"% c #FFFF33",
"& c #929292",
"* c #000066",
"= c #666666",
"- c #5C5C5C",
"; c #FFFF00",
"1 c #FFFFFF",
"> c #CCCC66",
", c #FFBD00",
"< c #D3D3D3",
": c None",
/* pixels */
"::::::::::::::::::",
"::::<&OOOOOO&<::::",
":::+O %%%%%% O+:::",
"::+O%%%%%%%%%%O+::",
":<O%%%%%%%%%%%%O<:",
":O  %%%%%%%%%%  O:",
":*@            @*:",
":*******XX*******:",
":O X-&&-*o-&&-X O:",
":O  XXXo  oXXX  O:",
":O % $$ %% $$ % O:",
":=,%%%%%%%%%%%% .:",
":&@%%@ %%%%%%%;@&:",
":<.,%%@   %%%;,.<:",
"::+.,%;;;;;;;,.+::",
":::+.@,>>>>,@.+:::",
"::::<&.#OO#.&<::::",
"::::::::::::::::::"
};
