/* XPM */
static char *yahoo_blush[] = {
/* width height ncolors chars_per_pixel */
"18 18 22 1",
/* colors */
"  c #000000",
". c #CCCC33",
"X c #FF6666",
"o c #FFCC33",
"O c #777777",
"+ c #CC9999",
"@ c #999966",
"# c #663333",
"$ c #CCFF33",
"% c #FF9966",
"& c #B2B2B2",
"* c #848200",
"= c #993333",
"- c #FFFF33",
"; c #929292",
": c #FF9933",
"> c #2A3F00",
", c #666666",
"< c #FBFBFB",
"1 c #CCCC66",
"2 c #D3D3D3",
"3 c None",
/* pixels */
"333333333333333333",
"33332;==##==;23333",
"333&#.------.#&333",
"33&#o--+.@.+-$#&33",
"32#o--+-----+-$#23",
"3,*o-----------.,3",
"3#oo-----------.#3",
"3#oo-@.+*.*+.@-.=3",
"3=oo-.<<>. <<<-.=3",
"3=ooooo<<<<<.ooo=3",
"3=o:::o----o:::o=3",
"3#oXXXo----oXXXo=3",
"3O*oXX%----%XXo1O3",
"32#oo--%%%%----#23",
"33&#oo-------1#&33",
"333&#*oo1111*#&333",
"33332O==##==O23333",
"333333333333333333"
};
