/* XPM */
static char *yahoo_monkey[] = {
/* width height ncolors chars_per_pixel */
"18 18 125 2",
/* colors */
"   c #000000",
" . c #CAA86D",
" X c #070300",
" o c #B39560",
" O c #AB8D58",
" + c #484B50",
" @ c #673812",
" # c #B8945E",
" $ c #4F2A0E",
" % c #A48754",
" & c #7B5F39",
" * c #60320E",
" = c #C9A76B",
" - c #C7A569",
" ; c #5C2E0A",
" : c #DBB676",
" > c #937A4D",
" , c #2D1400",
" < c #603411",
" 1 c #432005",
" 2 c #836D47",
" 3 c #C6A56B",
" 4 c #06090B",
" 5 c #AB8C57",
" 6 c #6B3B15",
" 7 c #6A3B14",
" 8 c #D4B072",
" 9 c #693913",
" 0 c #9E8354",
" q c #7C6743",
" w c #A1A4A6",
" e c #8B744B",
" r c #653712",
" t c #877047",
" y c #886D3E",
" u c #352D1E",
" i c #2A1606",
" p c #766340",
" a c #D4AF6E",
" s c #623512",
" d c #603310",
" f c #C7A66B",
" g c #6D3C16",
" h c #24170D",
" j c #6A3A13",
" k c #8B7147",
" l c #B39561",
" z c #7A6640",
" x c #4E280B",
" c c #493D27",
" v c #673813",
" b c #A38551",
" n c #6C5B3C",
" m c #733F18",
" M c #DBB674",
" N c #675537",
" B c #80693F",
" V c #8A754C",
" C c #CBA96E",
" Z c #5D300C",
" A c #5B2E0A",
" S c #552D0E",
" D c #6F3D17",
" F c #080401",
" G c #4F2708",
" H c #8D7448",
" J c #5F3411",
" K c #474542",
" L c #180400",
" P c #2A190B",
" I c #8E764C",
" U c #5D3412",
" Y c #5A300F",
" T c #ADADFF",
" R c #653713",
" E c #CEAC70",
" W c #9A8154",
" Q c #713E18",
" ! c #725F3D",
" ~ c #B69762",
" ^ c #C7A66C",
" / c #D7B375",
" ( c #6C3C16",
" ) c #D5B173",
" _ c #BF9E64",
" ` c #6A3A14",
" ' c #693A13",
" ] c #BD9C62",
" [ c #292420",
" { c #A18657",
" } c #754118",
" | c #FFFFFF",
".  c #AA8D59",
".. c #937849",
".X c #663813",
".o c #D0AD71",
".O c #62340F",
".+ c #2F2015",
".@ c #6C685E",
".# c #9A8053",
".$ c #432E18",
".% c #543D22",
".& c #907649",
".* c #623612",
".= c #5E320E",
".- c #DAB677",
".; c #50290A",
".: c #6B3B14",
".> c #6E5C3B",
"., c #C1A168",
".< c #967B4B",
".1 c #683914",
".2 c #827F76",
".3 c #52381C",
".4 c #643510",
".5 c #6C5C3C",
".6 c #423620",
".7 c #372F1F",
".8 c #4F2B0F",
".9 c #633E1C",
".0 c #060606",
".q c #BD9F67",
".w c #0000FF",
".e c #643713",
".r c None",
/* pixels */
" r r r r r r r r r r r r r r r r r r",
" r r r r r r r r r         r r r r r",
" r r r     r r     1 d.: j   r r r r",
" r r.$.&..     A r ` 6 g g *   r r r",
" r.$ t.> W k x.e D s S.8 U '  .$.$ r",
".$.  2 q u & J R.X.; [ 4 F <  .6 y.$",
".$ =.# c.7.%.* D.1 , w r   i X   >.$",
".$ - N I.5.3 d m.4 P r r r.0 r.2 B.$",
".$ O ~ l p.9 9 } J 1 T.w r w T.@.$ r",
" r.$ M.- # s v g.O h [ [ r.w w.+.$ r",
" r r.$ !.$ @ D D $ 4 K.# b ( F + r r",
" r r r   G ( 6 Y  .q ) C., o 0   r r",
" r r r   ; Q 6   n ) 3 ^ ^ E.o H   r",
" r r r  .=.1 7   V.o ^ 3 .         r",
" r r r r     Z L z / 3 3   { e a   r",
" r r r r r r       b 8 C f C : %   r",
" r r r r r r r r r     5 _ ].<   r r",
" r r r r r r r r r r r         r r r"
};
