/* XPM */
static char *yahoo_lamp[] = {
/* width height ncolors chars_per_pixel */
"18 18 10 1",
/* colors */
"  c #7F802D",
". c #FFFF99",
"X c #663333",
"o c #999933",
"O c #FFFF33",
"+ c #000080",
"@ c #FFFFFF",
"# c #FBFBFB",
"$ c #CCCC66",
"% c None",
/* pixels */
"@@@@@........@@@@@",
"@@@...XXXXXX...@@@",
"@@..XXOOOOOOXX..@@",
"@..XOOooOOooOOX..@",
"@.X.Oo##OO##oO.X.@",
"@.X.Oo#+OO+#oO.X.@",
"@.X.Oo#+OO+#oO$X.@",
"@.X.OOooOOooOOOX.@",
"@.XOOOOOOOOOOOOX.@",
"@..XoO OOOO OOX..@",
"@@..XOO    OOX..@@",
"@@@..XOOooOOX..@@@",
"@@@@..XOOOOX..@@@@",
"@@@@@.XOOOOX.@@@@@",
"@@@@@..XXXX..@@@@@",
"@@@@@.Xo...X.@@@@@",
"@@@@@.XooooX.@@@@@",
"@@@@@@.XXXX.@@@@@@"
};
