/* XPM */
static char *yahoo_sad[] = {
/* width height ncolors chars_per_pixel */
"18 18 20 1",
/* colors */
"  c #000000",
". c #CCCC33",
"X c #CC6633",
"o c #777777",
"O c #999966",
"+ c #663333",
"@ c #B2B2B2",
"# c #330099",
"$ c #993333",
"% c #CC9933",
"& c #FFFF33",
"* c #929292",
"= c #2A3F00",
"- c #666666",
"; c #FFFF00",
": c #FBFBFB",
"> c #CCCC66",
", c #FFBD00",
"< c #D3D3D3",
"1 c None",
/* pixels */
"::::::::::::::::::",
"::::<*++++++*<::::",
":::@+.&&&&&&.+@:::",
"::@+&&O=&&=O&&+@::",
":<+&&O.&&&&.O&&+<:",
":-.&&=: && :=&&.-:",
":+&&&=:#&&#:=&&&+:",
":+&&.O......O.&&+:",
":+&..&&&&&&&&&.&+:",
":+&&&&&&&&&&&&&&+:",
":+&&&&&&&&&&&&&&+:",
":+&&&.%XXXX%.&&&+:",
":*%&.%&;&&&&%.&%*:",
":<+..&&&&&&&&.>+<:",
"::@+,&&.OO.&&,+@::",
":::@+%>>>>>%o+@:::",
"::::<*o$++$o*<::::",
"::::::::::::::::::"
};
