/* XPM */
static char *yahoo_cry[] = {
/* width height ncolors chars_per_pixel */
"18 18 21 1",
/* colors */
"  c #000000",
". c #CCCC33",
"X c #777777",
"o c #CCCCFF",
"O c #6666CC",
"+ c #663333",
"@ c #999933",
"# c #B2B2B2",
"$ c #FF00FF",
"% c #848200",
"& c #993333",
"* c #FFFF33",
"= c #929292",
"- c #9999FF",
"; c #CC3333",
": c #666666",
"> c #FFFF00",
", c #FBFBFB",
"< c #D3D3D3",
"1 c #FFFFCC",
"2 c None",
/* pixels */
"222222222222222o-O",
"22222222222222oO-$",
"222<=++++++=<2222o",
"22#+.>>>>*>.+#2OOO",
"2#+.>>>>>>>>*+#o$O",
"<+.>>>>>>>>>>*+<o-",
":..>>@@@@@@>>>.:2o",
"+..>@,,,,,,@>>>+22",
"+..@::::::::@.>+22",
"+..          .>+22",
"+..          .*+22",
"+..          .>+22",
"+@.  +;;;;+  .*+22",
"=%. ........ .@=22",
"<+.>>>>>>>>>>.+<22",
"2#+.>>>>>>>>.+#222",
"22#+@.1111.@+#2222",
"222<=X&++&X=<22222"
};
