/* XPM */
static char *yahoo_laughloud[] = {
/* width height ncolors chars_per_pixel */
"18 18 28 1",
/* colors */
"  c #000000",
". c #CCCC33",
"X c #FF6666",
"o c #FFCC33",
"O c #777777",
"+ c #FF9999",
"@ c #990000",
"# c #663333",
"$ c #999933",
"% c #CCFF33",
"& c #B2B2B2",
"* c #FFCCCC",
"= c #FF0000",
"- c #848200",
"; c #993333",
": c #CC9933",
"> c #FFFF33",
", c #336666",
"< c #848284",
"1 c #CC3333",
"2 c #666666",
"3 c #7FBF00",
"4 c #FFFF00",
"5 c #FBFBFB",
"6 c #D3D3D3",
"7 c #99CC33",
"8 c #FFFFCC",
"9 c None",
/* pixels */
"555555555555555555",
"55556O######O65555",
"555&#:4444>>:#&555",
"55&#>44444444>#&55",
"56#>.$, 55, $.>#65",
"52:>>>>>>>>>>>>:25",
"5#++$$$$$$$$$$++#5",
"51+@$55555555$@+15",
"51+- 22222222 -+15",
"5;*-          -*;5",
"5#>-          ->#5",
"5#>-          ->#5",
"5$:.@ @@==@@ @.:<5",
"56#>7@=5*XX=@.%#65",
"55&#%.3-----7%#&55",
"555&#o%8888%o#&555",
"55556O;;##;;O65555",
"555555555555555555"
};
