/* XPM */
static char *yahoo_smiley[] = {
/* width height ncolors chars_per_pixel */
"18 18 24 1",
/* colors */
"  c #000000",
". c #CCCC33",
"X c #99FF66",
"o c #777777",
"O c #CCCCFF",
"+ c #FF9999",
"@ c #990000",
"# c #663333",
"$ c #B2B2B2",
"% c #FFCCCC",
"& c #848200",
"* c #993333",
"= c #FFFF33",
"- c #929292",
"; c #CC3333",
": c #666666",
"> c #3333CC",
", c #FFFF00",
"< c #FBFBFB",
"1 c #CCCC66",
"2 c #FFBD00",
"3 c #D3D3D3",
"4 c #666633",
"5 c None",
/* pixels */
"<<<<<<<<<<<<<<<<<<",
"<<<<3-######-3<<<<",
"<<<$#.======.#$<<<",
"<<$#==========#$<<",
"<3#============#3<",
"<:.==== == ====.:<",
"<#=====>==>=====#<",
"<*=====O==O=====*<",
"<;=22=..&&..=22=;<",
"<*2%%%======%%%2*<",
"<#2%@%======%@%2#<",
"<o2X%+.====.+%%2o<",
"<-&=XX.&44&2XX,&-<",
"<3o2===....==,2o3<",
"<<$o2=,,,,,,,2o$<<",
"<<<$o&211112&o$<<<",
"<<<<3-o*##*o-3<<<<",
"<<<<<<<<<<<<<<<<<<"
};
