/* XPM */
static char *yahoo_glasses[] = {
/* width height ncolors chars_per_pixel */
"18 18 19 1",
/* colors */
"  c #000000",
". c #CCCC33",
"X c #CCCCFF",
"o c #373737",
"O c #663333",
"+ c #848200",
"@ c #993333",
"# c #FFFF33",
"$ c #808080",
"% c #CCFFFF",
"& c #666666",
"* c #FFFFFF",
"= c #FFFF00",
"- c #FBFBFB",
"; c #CCCC66",
": c #FFBD00",
"> c #CC6666",
", c #FFFFCC",
"< c None",
/* pixels */
"------------------",
"-----$OOOOOO$-----",
"----O........O----",
"--- ..######.. ---",
"-oooooo.##.oooooo-",
"o%&,+ *o##o* +*&%o",
"o%O,.**oooo**.#O%o",
"o%@##X+o#.o+X##@%o",
"o%@###oo++o###.@%o",
"-ooooo#####oooooo-",
"-- @###>>>>>##@ --",
"--O:## ** ** #:O--",
"--$+##@** **@#+$--",
"---O:##>>>>>#:O---",
"----O:#====#:O----",
"-----&+;;;;+&-----",
"------$@OO@$------",
"------------------"
};
