/* XPM */
static char *yahoo_angel[] = {
/* width height ncolors chars_per_pixel */
"18 18 27 1",
/* colors */
"  c #000000",
". c #CCCC33",
"X c #999999",
"o c #99FF66",
"O c #FFFF99",
"+ c #CCCCFF",
"@ c #999966",
"# c #FF9999",
"$ c #990000",
"% c #CC9966",
"& c #663333",
"* c #FFCCCC",
"= c #848200",
"- c #993333",
"; c #FFFF33",
": c #CC3333",
"> c #666666",
", c #FFCC99",
"< c #3333CC",
"1 c #FFFFFF",
"2 c #FFFF00",
"3 c #FBFBFB",
"4 c #CCCC66",
"5 c #FFBD00",
"6 c #666633",
"7 c #FFFFCC",
"8 c None",
/* pixels */
"3OOO;%4%4,%,%;OO33",
"OOO%%11111111,%OO3",
"OO%111,,,,,,11O%O3",
"3OO%%1O1O1O1;%%OO3",
"33X&7%@%44%@%77X33",
"33&;;77777777;;&33",
"3>.;;;; ;; ;;;;.>3",
"3&;;;;;<;;<;;;;;&3",
"3-;;;;;+;;+;;;;;-3",
"3:;55;..==..;55;:3",
"3-5***;;;;;;***5-3",
"3&5*$*;;;;;;*$*5&3",
"3>5o*#.;;;;.#**5>3",
"3>=;oo.=66=5oo2=>3",
"33>5;;;....;;25>33",
"333>5;22222225>333",
"3333>=544445=>3333",
"33333>>-&&->>33333"
};
