/* XPM */
static char *yahoo_tongue[] = {
/* width height ncolors chars_per_pixel */
"18 18 31 1",
/* colors */
"  c #CCCC33",
". c #FF99CC",
"X c #CC6633",
"o c #FFCC33",
"O c #777777",
"+ c #FFFF99",
"@ c #FF9999",
"# c #6666CC",
"$ c #FFCCFF",
"% c #990000",
"& c #FFFF66",
"* c #663333",
"= c #999933",
"- c #B2B2B2",
"; c #FFCCCC",
": c #FF0000",
"> c #848200",
", c #993333",
"< c #CC9933",
"1 c #555F00",
"2 c #FFFF33",
"3 c #929292",
"4 c #CC3333",
"5 c #666666",
"6 c #FFFF00",
"7 c #FBFBFB",
"8 c #CCCC66",
"9 c #FFBD00",
"0 c #D3D3D3",
"q c #FF7F00",
"w c None",
/* pixels */
"777777777777777777",
"77770,,****,,07777",
"777-* 262626 *-777",
"77-* 22222222 *-77",
"70* 62+++++++2 *07",
"75>22+++++++++2 57",
"7* 2+ 1#+++1# & *7",
"7, 2+= 7;==;7=+2,7",
"7, 6+++2222++++2,7",
"7, .;o$222222<;$,7",
"7*.;% $22222221.*7",
"7* . <oo2666<<$2*7",
"7O>2;o%X1*14%%2XO7",
"70* 22o%$q:%q*X*77",
"77-*922o%@q4qq*-77",
"777-*998o%@@@*-777",
"777703O,*****=7777",
"777777777777777777"
};
