/* XPM */
static char *yahoo_ooooh[] = {
/* width height ncolors chars_per_pixel */
"18 18 21 1",
/* colors */
"  c #000000",
". c #CCCC33",
"X c #FFFFAA",
"o c #777777",
"O c #663333",
"+ c #999933",
"@ c #B2B2B2",
"# c #330099",
"$ c #993333",
"% c #CC9933",
"& c #FFFF33",
"* c #929292",
"= c #848284",
"- c #666666",
"; c #5C5C5C",
": c #FBFBFB",
"> c #CCCC66",
", c #FFBD00",
"< c #D3D3D3",
"1 c #FFFFCC",
"2 c None",
/* pixels */
"::::::::::::::::::",
"::::<*OOOOOO*<::::",
":::@O>>>>>>>>O@:::",
"::@O>+o;&&;o+>O@::",
":<O>+&&&++&&&+>O<:",
":->&.1:#..#:1.&>-:",
":O>&.%::-=::%.&>O:",
":O>XX&=-..-=&XX>O:",
":O>XXXXXXXXXXXX>O:",
":O>&XXXXXXXXXX&>O:",
":O>&&&&&>>>&&&&>O:",
":O,>&&>%   %&&&,O:",
":o%>>&> OOO >&>%o:",
":<O>>>> OOO >>,O<:",
"::@O,>>%OOO%>,O@::",
":::@O%>>>>>>%O@:::",
"::::<*o$OO$o*<::::",
"::::::::::::::::::"
};
