/* XPM */
static char *yahoo_angry[] = {
/* width height ncolors chars_per_pixel */
"18 18 21 1",
/* colors */
"  c #000000",
". c #CCCC33",
"X c #CC6633",
"o c #777777",
"O c #CC9999",
"+ c #FF9999",
"@ c #993366",
"# c #CC9966",
"$ c #FF66FF",
"% c #999933",
"& c #B2B2B2",
"* c #993333",
"= c #CC9933",
"- c #929292",
"; c #996699",
": c #990099",
"> c #FBFBFB",
", c #CCFFCC",
"< c #D3D3D3",
"1 c #CC6666",
"2 c None",
/* pixels */
">>>>>>>>>>>>>>>>>>",
">>>><-*::::*-<>>>>",
">>>&*oOOOOOOo*&>>>",
">>&*-++++++++-*&>>",
"><*-+.++++++.+-*<>",
">o@+++.++++.+++@o>",
">*-$%;;,++,;;%$-*>",
">:&$+;.;..;.;+$&:>",
">:&$;;> ## >;;$&:>",
">:&XX@@@@@@@@XX&:>",
">:&O$$$$$$$$$$+&:>",
">*-++========++&*>",
">oo++++++++++++oo>",
"><*-+++1111+++-*<>",
">>&*-++++++++-*&>>",
">>>&*o++..++o*&>>>",
">>>><-@::::@-<>>>>",
">>>>>>>>>>>>>>>>>>"
};
