/* XPM */
static char *yahoo_bigsmile[] = {
/* width height ncolors chars_per_pixel */
"18 18 25 1",
/* colors */
"  c #CCCC33",
". c #FFCC33",
"X c #777777",
"o c #3366CC",
"O c #CCCCFF",
"+ c #663333",
"@ c #CCFF33",
"# c #B2B2B2",
"$ c #993333",
"% c #CC9933",
"& c #FFFF33",
"* c #929292",
"= c #3399CC",
"- c #9999FF",
"; c #CCFFFF",
": c #330066",
"> c #666666",
", c #6699CC",
"< c #FFFF00",
"1 c #FBFBFB",
"2 c #660066",
"3 c #D3D3D3",
"4 c #CC6666",
"5 c #FFFFCC",
"6 c None",
/* pixels */
"111111111111111111",
"11113X++++++X31111",
"111#+%<11111%+#111",
"11#+%<%%    11+#11",
"13+% %1:<<:< 11+31",
"1>%% <<<&&&&&11%>1",
"1222222222222222+1",
"12,OOO-OO-OO-OO=+1",
"12oO;;-;;-11-1Oo+1",
"12=-O;-;;-;1-O-=+1",
"12+#-ooooooo--1X>1",
"1>+o;;-;;-;1-1-XX1",
"1*$+#O-;;-11-OX%*1",
"13+4+4-OO-OOXX@+31",
"11#+%*4$$$$4*@+#11",
"111#+%%  55@.+#111",
"11113X$$++$$X31111",
"111111111111111111"
};
