/* XPM */
static char *yahoo_alien[] = {
/* width height ncolors chars_per_pixel */
"18 18 14 1",
/* colors */
"  c #000000",
". c #CCCC33",
"X c #009933",
"o c #99FF66",
"O c #777777",
"+ c #00FF00",
"@ c #00FF99",
"# c #006633",
"$ c #666666",
"% c #3333CC",
"& c #FFFF00",
"* c #FBFBFB",
"= c #0000FF",
"- c None",
/* pixels */
"*###**********###*",
"#**##********#***#",
"#+**##########**+#",
"+&+*#X++++++X#*+&+",
"*+*#++++++++++#*+*",
"**#++++++++++++#**",
"*$X++++ ++ ++++X$*",
"*#+++++%++%+++++#*",
"*#+++++=++=+++++#*",
"*#+XX+..XX..+XX+#*",
"*#X@@@++++++@@@X#*",
"*#X@X@++++++@X@X#*",
"*#Xo@XX++++.X@@X#*",
"**XXooXXXXXXoo+X**",
"**#X+++@@@@+++XO**",
"***#X++++++++XO***",
"****#XX@@@@XXO****",
"******######******"
};
