/* XPM */
static char *yahoo_love[] = {
/* width height ncolors chars_per_pixel */
"18 18 29 1",
/* colors */
"  c #000000",
". c #CCCC33",
"X c #0066CC",
"o c #777777",
"O c #CCCCFF",
"+ c #FF9999",
"@ c #FFCCFF",
"# c #990000",
"$ c #663333",
"% c #999933",
"& c #B2B2B2",
"* c #FFCCCC",
"= c #FF0000",
"- c #993333",
"; c #CC9933",
": c #FFFF33",
"> c #929292",
", c #66FFCC",
"< c #CC3333",
"1 c #666666",
"2 c #FFFF00",
"3 c #FBFBFB",
"4 c #CCCC66",
"5 c #FFBD00",
"6 c #D3D3D3",
"7 c #666633",
"8 c #CC6666",
"9 c #FFFFCC",
"0 c None",
/* pixels */
"3333333333333#3#33",
"3333333333333+=+33",
"3336>$$$$$$>@3=333",
"33&$.::::::.$@3@33",
"3&$::::::::::$@333",
"6$:::O::::O:::$@33",
"1.::X3X33X3X::.133",
"$:::5, :: ,.:::$33",
"$::::OX::X333::<33",
"$::::::::33333:-39",
"$:@8@:::33.##53$$5",
"$::@..::3.#*+$=++$",
"$::::@.%%7#+====+$",
">;:::::::37#====$.",
"6$.:::::::37#==$.2",
"3&$5:::..::3;$$.:3",
"33&$;444444;+%5:33",
"3336>o-$$-o>333333"
};
