/* XPM */
static char *yahoo_sst[] = {
/* width height ncolors chars_per_pixel */
"18 18 11 1",
/* colors */
"  c #000000",
". c #CCCC33",
"X c #000084",
"o c #C0C0C0",
"O c #663333",
"+ c #FFFF33",
"@ c #808080",
"# c #666666",
"$ c #FFFFFF",
"% c #FFFF00",
"& c None",
/* pixels */
"&&&&&&OOOOOO&&&&&&",
"&&&&OO.$$$$$OO&&&&",
"&&&O.+++$$++$$O&&&",
"&&O.++$X++X$$$.O&&",
"&&O.+$$X++X$$$$O&&",
"&O.++++$++$++$$.O&",
"&O.++++%.#.++++.O&",
"&O.%++%.#$#.+%%+O&",
"&O.%%%..#$#..%+.O&",
"&O.+++..#$#..++.O&",
"&&O+++###o#..+.O&&",
"&&O+###$#@##++.O&&",
"&&###$#$# $#+..O&&",
"&&#$#$#o $$#..O&&&",
"&&#$#o#o $#.OO&&&&",
"&&#$##o#o #O&&&&&&",
"&&&##oo$$#&&&&&&&&",
"&&&&######&&&&&&&&"
};
