/* XPM */
static char *yahoo_pig[] = {
/* width height ncolors chars_per_pixel */
"18 18 8 1",
/* colors */
"  c #000000",
". c #612727",
"X c #D5A5A5",
"o c #990000",
"O c #FFCCCC",
"+ c #FFFFFF",
"@ c #0000FF",
"# c None",
/* pixels */
"+..++++++++++++..+",
".OO.++oooooo++.OO.",
".OXX..OOOOOO..XXO.",
".X..XOXXOOXXOX..X.",
".X.XXX+@OO@+XXX.X.",
"+.XXOX+@OO@+XOXX.+",
"+oXOOX+oooo+XOOOo+",
"+oXOOXoOOOOoXOOOo+",
"+oXOOoOOOOOOoOOOo+",
"+oXOOoOoOOoOoOOOo+",
"+oOOOoOoOOoOoOOOo+",
"+oOOOoOOOOOOoOOXo+",
"++oOOOooooooOOOo++",
"++oXOOOooooOOOXo++",
"+++oXOO    OOXo+++",
"++++ooXXXXXXoo++++",
"++++++oooooo++++++",
"++++++++++++++++++"
};
