/* XPM */
static char *yahoo_clown[] = {
/* width height ncolors chars_per_pixel */
"18 18 16 1",
/* colors */
"  c #CCCC33",
". c #777777",
"X c #990000",
"o c #663333",
"O c #B2B2B2",
"+ c #FFCCCC",
"@ c #FF0000",
"# c #848200",
"$ c #993333",
"% c #929292",
"& c #CC3333",
"* c #3333CC",
"= c #FFFFFF",
"- c #FBFBFB",
"; c #0000FF",
": c None",
/* pixels */
"XXX::::::::::::XXX",
":XXX:%oooooo%:XXX:",
"XXXXo ====== oXXXX",
"XXXo==XX==XX==oXXX",
":Xo==X======X==oX:",
":X =X=;;==;;=X= X:",
":o====;*==;;====o:",
":$=====XX@@=====$:",
":&=++=XX@@@@=++=&:",
":$++++XXX@@X++++$:",
":o++++=XXXX=++++o:",
":.++X+ ==== +X++.:",
":%#=+X+XXXX+X+=#%:",
"::.===XXXXXX===.::",
"::O.====XX====.O::",
":::O.#======#.O:::",
":::::%.$oo$.%:::::",
"::::::::::::::::::"
};
