<?xml version="1.0" encoding="UTF-8" standalone="no"?>
<!-- Created with Inkscape (http://www.inkscape.org/) -->
<svg
   xmlns:dc="http://purl.org/dc/elements/1.1/"
   xmlns:cc="http://creativecommons.org/ns#"
   xmlns:rdf="http://www.w3.org/1999/02/22-rdf-syntax-ns#"
   xmlns:svg="http://www.w3.org/2000/svg"
   xmlns="http://www.w3.org/2000/svg"
   xmlns:xlink="http://www.w3.org/1999/xlink"
   xmlns:sodipodi="http://sodipodi.sourceforge.net/DTD/sodipodi-0.dtd"
   xmlns:inkscape="http://www.inkscape.org/namespaces/inkscape"
   width="48"
   height="48"
   id="svg2"
   sodipodi:version="0.32"
   inkscape:version="0.46"
   version="1.0"
   sodipodi:docbase="/home/hbons/Desktop/2.1.1/dialogs"
   sodipodi:docname="cool.svg"
   inkscape:export-filename="/home/hbons/Desktop/newstyle.png"
   inkscape:export-xdpi="90"
   inkscape:export-ydpi="90"
   inkscape:output_extension="org.inkscape.output.svg.inkscape"
   sodipodi:modified="true">
  <defs
     id="defs4">
    <linearGradient
       inkscape:collect="always"
       id="linearGradient3104">
      <stop
         style="stop-color:#eeeeec;stop-opacity:1;"
         offset="0"
         id="stop3106" />
      <stop
         style="stop-color:#eeeeec;stop-opacity:0;"
         offset="1"
         id="stop3108" />
    </linearGradient>
    <radialGradient
       inkscape:collect="always"
       xlink:href="#linearGradient3104"
       id="radialGradient3114"
       cx="8.3343515"
       cy="14.186539"
       fx="8.3343515"
       fy="14.186539"
       r="9.975256"
       gradientUnits="userSpaceOnUse"
       gradientTransform="matrix(-0.9327,0.932656,-0.947494,-0.947449,33.02126,11.96667)" />
    <filter
       inkscape:collect="always"
       x="-0.27879593"
       width="1.5575919"
       y="-0.78248727"
       height="2.5649745"
       id="filter3405">
      <feGaussianBlur
         inkscape:collect="always"
         stdDeviation="1.5438116"
         id="feGaussianBlur3407" />
    </filter>
    <radialGradient
       gradientUnits="userSpaceOnUse"
       r="8.6620579"
       fy="19.008621"
       fx="31.112698"
       cy="19.008621"
       cx="31.112698"
       id="radialGradient3822"
       xlink:href="#linearGradient3816"
       inkscape:collect="always" />
    <linearGradient
       id="linearGradient3816"
       inkscape:collect="always">
      <stop
         id="stop3818"
         offset="0"
         style="stop-color:#000000;stop-opacity:1;" />
      <stop
         id="stop3820"
         offset="1"
         style="stop-color:#000000;stop-opacity:0;" />
    </linearGradient>
    <linearGradient
       id="linearGradient3121"
       inkscape:collect="always">
      <stop
         id="stop3123"
         offset="0"
         style="stop-color:#d3d7cf;stop-opacity:1;" />
      <stop
         id="stop3125"
         offset="1"
         style="stop-color:#d3d7cf;stop-opacity:0;" />
    </linearGradient>
    <radialGradient
       inkscape:collect="always"
       xlink:href="#linearGradient3104"
       id="radialGradient3794"
       gradientUnits="userSpaceOnUse"
       gradientTransform="matrix(-0.9327,0.932656,-0.947494,-0.947449,33.02126,11.96667)"
       cx="8.3343515"
       cy="14.186539"
       fx="8.3343515"
       fy="14.186539"
       r="9.975256" />
    <linearGradient
       inkscape:collect="always"
       xlink:href="#linearGradient3121"
       id="linearGradient3802"
       gradientUnits="userSpaceOnUse"
       x1="42.925175"
       y1="40.136646"
       x2="42.925175"
       y2="15.474488" />
    <filter
       inkscape:collect="always"
       x="-0.47282609"
       width="1.9456522"
       y="-0.47282609"
       height="1.9456522"
       id="filter4019">
      <feGaussianBlur
         inkscape:collect="always"
         stdDeviation="1.552286"
         id="feGaussianBlur4021" />
    </filter>
  </defs>
  <sodipodi:namedview
     id="base"
     pagecolor="#ffffff"
     bordercolor="#666666"
     borderopacity="1.0"
     inkscape:pageopacity="0.0"
     inkscape:pageshadow="2"
     inkscape:zoom="15.839192"
     inkscape:cx="40.272536"
     inkscape:cy="20.18158"
     inkscape:document-units="px"
     inkscape:current-layer="layer1"
     showgrid="true"
     fill="#fce94f"
     inkscape:window-width="1440"
     inkscape:window-height="847"
     inkscape:window-x="3"
     inkscape:window-y="25"
     width="48px"
     height="48px" />
  <metadata
     id="metadata7">
    <rdf:RDF>
      <cc:Work
         rdf:about="">
        <dc:format>image/svg+xml</dc:format>
        <dc:type
           rdf:resource="http://purl.org/dc/dcmitype/StillImage" />
      </cc:Work>
    </rdf:RDF>
  </metadata>
  <g
     inkscape:label="Layer 1"
     inkscape:groupmode="layer"
     id="layer1">
    <path
       sodipodi:type="arc"
       style="opacity:0.64044949;fill:#2e3436;fill-opacity:1;stroke:none;stroke-width:1;stroke-miterlimit:4;stroke-dasharray:none;stroke-opacity:1;filter:url(#filter3405)"
       id="path3140"
       sodipodi:cx="10.748654"
       sodipodi:cy="10.457643"
       sodipodi:rx="6.6449099"
       sodipodi:ry="2.3675451"
       d="M 17.393564 10.457643 A 6.6449099 2.3675451 0 1 1  4.1037445,10.457643 A 6.6449099 2.3675451 0 1 1  17.393564 10.457643 z"
       transform="matrix(2.2723916,0,0,1.6905173,-0.1758194,23.510748)" />
    <path
       sodipodi:type="arc"
       style="opacity:1;fill:#edd400;fill-opacity:1;stroke:#cc6400;stroke-width:0.55559433;stroke-miterlimit:4;stroke-dasharray:none;stroke-opacity:1"
       id="path1307"
       sodipodi:cx="11.806158"
       sodipodi:cy="10.983024"
       sodipodi:rx="9.975256"
       sodipodi:ry="9.975256"
       d="M 21.781414 10.983024 A 9.975256 9.975256 0 1 1  1.8309021,10.983024 A 9.975256 9.975256 0 1 1  21.781414 10.983024 z"
       transform="matrix(1.8043406,0,0,1.8043406,3.1976696,7.6828846)" />
    <path
       sodipodi:type="arc"
       style="opacity:0.79545456;fill:url(#radialGradient3114);fill-opacity:1;stroke:none;stroke-width:1.05274069;stroke-miterlimit:4;stroke-dasharray:none;stroke-opacity:1"
       id="path3102"
       sodipodi:cx="11.806158"
       sodipodi:cy="10.983024"
       sodipodi:rx="9.975256"
       sodipodi:ry="9.975256"
       d="M 21.781414 10.983024 A 9.975256 9.975256 0 1 1  1.8309021,10.983024 A 9.975256 9.975256 0 1 1  21.781414 10.983024 z"
       transform="matrix(1.6958412,0,0,1.6958412,4.3182736,9.0348912)" />
    <path
       sodipodi:type="arc"
       style="opacity:0.64044949;fill:none;fill-opacity:1;stroke:#ffffff;stroke-width:0.58677971;stroke-miterlimit:4;stroke-dasharray:none;stroke-opacity:1"
       id="path2184"
       sodipodi:cx="11.806158"
       sodipodi:cy="10.983024"
       sodipodi:rx="9.975256"
       sodipodi:ry="9.975256"
       d="M 21.781414 10.983024 A 9.975256 9.975256 0 1 1  1.8309021,10.983024 A 9.975256 9.975256 0 1 1  21.781414 10.983024 z"
       transform="matrix(1.7042169,0,0,1.7042169,4.3797455,8.7825453)" />
    <path
       style="fill:#eeeeec;fill-opacity:1;stroke:#fea523;stroke-width:1;stroke-miterlimit:4;stroke-opacity:1"
       d="M 23.500001,23.5 C 23.500001,26.26 21.260002,28.500001 18.500001,28.500001 C 15.740001,28.500001 13.5,26.26 13.5,23.5 C 13.5,20.74 15.740001,18.5 18.500001,18.5 C 21.260002,18.5 23.500001,20.74 23.500001,23.5 z "
       id="path3154" />
    <path
       sodipodi:type="arc"
       style="opacity:1;fill:#2e3436;fill-opacity:1;stroke:none;stroke-width:0.98640186;stroke-miterlimit:4;stroke-dasharray:none;stroke-opacity:1"
       id="path2172"
       sodipodi:cx="9.7069349"
       sodipodi:cy="9.6526775"
       sodipodi:rx="1.0259361"
       sodipodi:ry="1.9413869"
       d="M 10.732871 9.6526775 A 1.0259361 1.9413869 0 1 1  8.6809988,9.6526775 A 1.0259361 1.9413869 0 1 1  10.732871 9.6526775 z"
       transform="matrix(1.9494387,0,0,1.2877392,1.0769258,12.069869)" />
    <path
       sodipodi:type="arc"
       style="opacity:1;fill:#eeeeec;fill-opacity:1;stroke:#fea523;stroke-width:0.282258;stroke-miterlimit:4;stroke-dasharray:none;stroke-opacity:1"
       id="path3152"
       sodipodi:cx="9.7069349"
       sodipodi:cy="9.6526775"
       sodipodi:rx="1.0259361"
       sodipodi:ry="1.9413869"
       d="M 10.732871 9.6526775 A 1.0259361 1.9413869 0 1 1  8.6809988,9.6526775 A 1.0259361 1.9413869 0 1 1  10.732871 9.6526775 z"
       transform="matrix(4.8735976,0,0,2.5754783,-16.807694,-1.3602618)" />
    <path
       sodipodi:type="arc"
       style="opacity:1;fill:#2e3436;fill-opacity:1;stroke:none;stroke-width:0.98640186;stroke-miterlimit:4;stroke-dasharray:none;stroke-opacity:1"
       id="path3148"
       sodipodi:cx="9.7069349"
       sodipodi:cy="9.6526775"
       sodipodi:rx="1.0259361"
       sodipodi:ry="1.9413869"
       d="M 10.732871 9.6526775 A 1.0259361 1.9413869 0 1 1  8.6809988,9.6526775 A 1.0259361 1.9413869 0 1 1  10.732871 9.6526775 z"
       transform="matrix(1.9494393,0,0,1.2877392,10.076919,12.069869)" />
    <path
       style="opacity:1;fill:#ce5c00;fill-opacity:1;stroke:none;stroke-width:1;stroke-miterlimit:4;stroke-dasharray:none;stroke-opacity:1"
       d="M 36,31 C 35.958854,34.901861 33.103799,38.559709 28.776926,39.671439 C 24.450054,40.78317 20.070187,38.984235 18,35.624852 C 24.906148,40.499205 32.307884,37.963138 36,31 z "
       id="path2186"
       sodipodi:nodetypes="cscc" />
    <path
       sodipodi:type="arc"
       style="opacity:0.64044949;fill:none;fill-opacity:1;stroke:#f57900;stroke-width:0.3774938;stroke-miterlimit:4;stroke-dasharray:none;stroke-opacity:1"
       id="path2259"
       sodipodi:cx="8.3258924"
       sodipodi:cy="9.2232141"
       sodipodi:rx="1.2276785"
       sodipodi:ry="1.7410715"
       d="M 7.2133909,8.4869402 A 1.2276785,1.7410715 0 0 1 9.288462,8.1425499"
       transform="matrix(3.5277688,0.705265,-0.6665314,1.855957,7.1597185,-7.1449202)"
       sodipodi:start="3.5782199"
       sodipodi:end="5.6135639"
       sodipodi:open="true" />
    <path
       sodipodi:type="arc"
       style="opacity:0.64044949;fill:none;fill-opacity:1;stroke:#f57900;stroke-width:0.3774938;stroke-miterlimit:4;stroke-dasharray:none;stroke-opacity:1"
       id="path2261"
       sodipodi:cx="8.3258924"
       sodipodi:cy="9.2232141"
       sodipodi:rx="1.2276785"
       sodipodi:ry="1.7410715"
       d="M 7.2133909,8.4869402 A 1.2276785,1.7410715 0 0 1 9.288462,8.1425499"
       transform="matrix(-3.5277688,0.705265,0.6665314,1.855957,41.208475,-4.1630498)"
       sodipodi:start="3.5782199"
       sodipodi:end="5.6135639"
       sodipodi:open="true" />
    <path
       d="M 39.774755 19.008621 A 8.6620579 8.6620579 0 1 1  22.45064,19.008621 A 8.6620579 8.6620579 0 1 1  39.774755 19.008621 z"
       sodipodi:ry="8.6620579"
       sodipodi:rx="8.6620579"
       sodipodi:cy="19.008621"
       sodipodi:cx="31.112698"
       id="path4318"
       style="opacity:0.5;color:#000000;fill:url(#radialGradient3822);fill-opacity:1;fill-rule:evenodd;stroke:none;stroke-width:1px;stroke-linecap:round;stroke-linejoin:round;marker:none;marker-start:none;marker-mid:none;marker-end:none;stroke-miterlimit:4;stroke-dasharray:none;stroke-dashoffset:0;stroke-opacity:1;visibility:visible;display:inline;overflow:visible"
       sodipodi:type="arc"
       transform="matrix(2.383972,0,0,1.117487,-126.51617,-6.51091)" />
    <path
       sodipodi:type="arc"
       style="fill:#edd400;fill-opacity:1;stroke:#f57900;stroke-width:0.53913003;stroke-miterlimit:4;stroke-dasharray:none;stroke-opacity:1"
       id="path3777"
       sodipodi:cx="11.806158"
       sodipodi:cy="10.983024"
       sodipodi:rx="9.975256"
       sodipodi:ry="9.975256"
       d="M 21.781414 10.983024 A 9.975256 9.975256 0 1 1  1.8309021,10.983024 A 9.975256 9.975256 0 1 1  21.781414 10.983024 z"
       transform="matrix(1.854646,0,0,1.855034,-73.894233,-16.92925)" />
    <path
       sodipodi:type="arc"
       style="opacity:0.79545456;fill:url(#radialGradient3794);fill-opacity:1;stroke:none;stroke-width:1.05274069;stroke-miterlimit:4;stroke-dasharray:none;stroke-opacity:1"
       id="path3779"
       sodipodi:cx="11.806158"
       sodipodi:cy="10.983024"
       sodipodi:rx="9.975256"
       sodipodi:ry="9.975256"
       d="M 21.781414 10.983024 A 9.975256 9.975256 0 1 1  1.8309021,10.983024 A 9.975256 9.975256 0 1 1  21.781414 10.983024 z"
       transform="matrix(1.704217,0,0,1.704217,-72.114719,-15.27377)" />
    <path
       sodipodi:type="arc"
       style="opacity:0.5;fill:none;fill-opacity:1;stroke:#ffffff;stroke-width:0.57006598;stroke-miterlimit:4;stroke-dasharray:none;stroke-opacity:1"
       id="path3781"
       sodipodi:cx="11.806158"
       sodipodi:cy="10.983024"
       sodipodi:rx="9.975256"
       sodipodi:ry="9.975256"
       d="M 21.781414 10.983024 A 9.975256 9.975256 0 1 1  1.8309021,10.983024 A 9.975256 9.975256 0 1 1  21.781414 10.983024 z"
       transform="matrix(1.75441,0,0,1.753957,-72.710295,-15.8184)" />
    <path
       style="fill:#2e3436;fill-opacity:1;stroke:none;stroke-width:1;stroke-miterlimit:4;stroke-dasharray:none;stroke-opacity:1"
       d="M -40.994465,6.44368 C -42.284723,11.58215 -46.706062,15.44368 -51.994464,15.44368 C -57.282865,15.44368 -61.704206,11.58215 -62.994465,6.44368 C -60.676222,9.771006 -56.60469,12.862964 -51.994464,12.862964 C -47.384241,12.862965 -43.312708,9.771006 -40.994465,6.44368 z "
       id="path3783"
       sodipodi:nodetypes="cscsc" />
    <path
       sodipodi:type="arc"
       style="fill:#2e3436;fill-opacity:1;stroke:none;stroke-width:1;stroke-miterlimit:4;stroke-dasharray:none;stroke-opacity:1"
       id="path2191"
       sodipodi:cx="9.0598059"
       sodipodi:cy="8.7845774"
       sodipodi:rx="1.1679889"
       sodipodi:ry="1.4520943"
       d="M 10.227795 8.7845774 A 1.1679889 1.4520943 0 1 1  7.891817,8.7845774 A 1.1679889 1.4520943 0 1 1  10.227795 8.7845774 z"
       transform="matrix(1.712345,0,0,2.754643,-71.507978,-24.75469)" />
    <path
       sodipodi:type="arc"
       style="fill:#2e3436;fill-opacity:1;stroke:none;stroke-width:1;stroke-miterlimit:4;stroke-dasharray:none;stroke-opacity:1"
       id="path2193"
       sodipodi:cx="9.0598059"
       sodipodi:cy="8.7845774"
       sodipodi:rx="1.1679889"
       sodipodi:ry="1.4520943"
       d="M 10.227795 8.7845774 A 1.1679889 1.4520943 0 1 1  7.891817,8.7845774 A 1.1679889 1.4520943 0 1 1  10.227795 8.7845774 z"
       transform="matrix(1.712345,0,0,2.754643,-63.507982,-24.75469)" />
    <path
       style="color:#000000;fill:#eeeeec;fill-opacity:1;fill-rule:evenodd;stroke:#787878;stroke-width:1;stroke-linecap:butt;stroke-linejoin:miter;marker:none;marker-start:none;marker-mid:none;marker-end:none;stroke-miterlimit:4;stroke-dasharray:none;stroke-dashoffset:0;stroke-opacity:1;visibility:visible;display:inline;overflow:visible"
       d="M -28.915806,-30.045106 C -38.151045,-29.672823 -45.494406,-23.578958 -45.494406,-16.150506 C -45.494406,-11.885137 -43.740879,-7.375575 -39.928265,-4.826694 C -39.119658,-1.264309 -41.449395,1.502456 -41.852958,1.937782 C -41.122621,1.734237 -35.350978,0.114212 -33.186244,-2.295759 C -31.004272,-2.388266 -29.763575,-2.255902 -27.997203,-2.255902 C -18.344516,-2.255902 -10.499998,-8.482425 -10.5,-16.150506 C -10.5,-23.818587 -18.344516,-30.045106 -27.997203,-30.045106 C -28.298849,-30.045106 -28.617895,-30.057116 -28.915806,-30.045106 z "
       id="path13316"
       sodipodi:nodetypes="cscccsssc" />
    <path
       sodipodi:type="inkscape:offset"
       inkscape:radius="-1.0020103"
       inkscape:original="M -28.90625 -30.03125 C -38.141489 -29.658966 -45.5 -23.584702 -45.5 -16.15625 C -45.499998 -11.890882 -43.750114 -7.361381 -39.9375 -4.8125 C -39.128893 -1.250115 -41.440187 1.502174 -41.84375 1.9375 C -41.113412 1.733955 -35.352234 0.128721 -33.1875 -2.28125 C -31.005527 -2.373757 -29.766372 -2.25 -28 -2.25 C -18.347312 -2.2499999 -10.499998 -8.488169 -10.5 -16.15625 C -10.5 -23.824332 -18.347313 -30.03125 -28 -30.03125 C -28.301645 -30.031249 -28.608339 -30.04326 -28.90625 -30.03125 z "
       xlink:href="#path13316"
       style="color:#000000;fill:none;fill-opacity:1;fill-rule:evenodd;stroke:none;stroke-width:1;stroke-linecap:butt;stroke-linejoin:miter;marker:none;marker-start:none;marker-mid:none;marker-end:none;stroke-miterlimit:4;stroke-dasharray:none;stroke-dashoffset:0;stroke-opacity:1;visibility:visible;display:inline;overflow:visible"
       id="path13323"
       inkscape:href="#path13316"
       d="M 44.125,10.5 C 35.308909,10.855387 28.5,16.639515 28.5,23.40625 C 28.5,27.397567 30.147439,31.550115 33.625,33.875 C 33.835747,34.023343 33.981239,34.247178 34.03125,34.5 C 34.490803,36.524599 34.051533,38.324325 33.46875,39.65625 C 33.930328,39.493414 34.045022,39.492531 34.5625,39.28125 C 36.305088,38.56977 38.200088,37.553862 39.0625,36.59375 C 39.244281,36.384758 39.504456,36.260327 39.78125,36.25 C 42.026592,36.154804 43.292249,36.3125 45,36.3125 C 54.22098,36.312499 61.500002,30.39071 61.5,23.40625 C 61.5,16.421791 54.220979,10.5 45,10.5 C 44.671757,10.5 44.368389,10.490188 44.125,10.5 z "
       transform="translate(-72.994465,-39.55632)" />
    <path
       sodipodi:type="inkscape:offset"
       inkscape:radius="-1.0109046"
       inkscape:original="M -28.90625 -30.03125 C -38.141489 -29.658966 -45.5 -23.584702 -45.5 -16.15625 C -45.499998 -11.890882 -43.750114 -7.361381 -39.9375 -4.8125 C -39.128893 -1.250115 -41.440187 1.502174 -41.84375 1.9375 C -41.113412 1.733955 -35.352234 0.128721 -33.1875 -2.28125 C -31.005527 -2.373757 -29.766372 -2.25 -28 -2.25 C -18.347312 -2.2499999 -10.499998 -8.488169 -10.5 -16.15625 C -10.5 -23.824332 -18.347313 -30.03125 -28 -30.03125 C -28.301645 -30.031249 -28.608339 -30.04326 -28.90625 -30.03125 z "
       xlink:href="#path13316"
       style="color:#000000;fill:url(#linearGradient3802);fill-opacity:1;fill-rule:evenodd;stroke:#ffffff;stroke-width:1;stroke-linecap:butt;stroke-linejoin:miter;marker:none;marker-start:none;marker-mid:none;marker-end:none;stroke-miterlimit:4;stroke-dasharray:none;stroke-dashoffset:0;stroke-opacity:1;visibility:visible;display:inline;overflow:visible"
       id="path1336"
       inkscape:href="#path13316"
       d="M 44.125,10.5 C 35.31263,10.855237 28.5,16.645389 28.5,23.40625 C 28.5,27.395135 30.150413,31.552103 33.625,33.875 C 33.846858,34.018204 34.003884,34.242526 34.0625,34.5 C 34.519684,36.514161 34.077673,38.294264 33.5,39.625 C 33.948389,39.466107 34.062909,39.485228 34.5625,39.28125 C 36.304559,38.569986 38.202041,37.520438 39.0625,36.5625 C 39.25032,36.365929 39.509394,36.253288 39.78125,36.25 C 42.027154,36.154781 43.29277,36.3125 45,36.3125 C 54.217148,36.312499 61.500002,30.384642 61.5,23.40625 C 61.5,16.427859 54.217147,10.5 45,10.5 C 44.671521,10.5 44.367905,10.490207 44.125,10.5 z "
       transform="translate(-72.994465,-39.55632)" />
    <path
       sodipodi:type="arc"
       style="fill:#555753;fill-opacity:1;stroke:none;stroke-width:1;stroke-miterlimit:4;stroke-dasharray:none;stroke-opacity:1"
       id="path1397"
       sodipodi:cx="9.0598059"
       sodipodi:cy="8.7845774"
       sodipodi:rx="1.1679889"
       sodipodi:ry="1.4520943"
       d="M 10.227795 8.7845774 A 1.1679889 1.4520943 0 1 1  7.891817,8.7845774 A 1.1679889 1.4520943 0 1 1  10.227795 8.7845774 z"
       transform="matrix(0.856174,0,0,0.688661,-39.751235,-16.60591)" />
    <path
       sodipodi:type="arc"
       style="fill:#555753;fill-opacity:1;stroke:none;stroke-width:1;stroke-miterlimit:4;stroke-dasharray:none;stroke-opacity:1"
       id="path1403"
       sodipodi:cx="9.0598059"
       sodipodi:cy="8.7845774"
       sodipodi:rx="1.1679889"
       sodipodi:ry="1.4520943"
       d="M 10.227795 8.7845774 A 1.1679889 1.4520943 0 1 1  7.891817,8.7845774 A 1.1679889 1.4520943 0 1 1  10.227795 8.7845774 z"
       transform="matrix(0.856172,0,0,0.688662,-35.751215,-16.60592)" />
    <path
       sodipodi:type="arc"
       style="fill:#555753;fill-opacity:1;stroke:none;stroke-width:1;stroke-miterlimit:4;stroke-dasharray:none;stroke-opacity:1"
       id="path1405"
       sodipodi:cx="9.0598059"
       sodipodi:cy="8.7845774"
       sodipodi:rx="1.1679889"
       sodipodi:ry="1.4520943"
       d="M 10.227795 8.7845774 A 1.1679889 1.4520943 0 1 1  7.891817,8.7845774 A 1.1679889 1.4520943 0 1 1  10.227795 8.7845774 z"
       transform="matrix(0.856173,0,0,0.688662,-31.751225,-16.60593)" />
    <path
       style="opacity:0.78977272;fill:#2e3436;fill-opacity:1;stroke:none;stroke-width:1.66300178;stroke-miterlimit:4;stroke-dasharray:none;stroke-opacity:1"
       d="M 6.9375 23 C 6.6605 23 6.4375 23.223 6.4375 23.5 C 6.4375 23.777 6.6605 24 6.9375 24 L 11.0625 24 C 11.531404 27.382552 14.351819 30 17.75 30 C 21.272241 30 24.193903 27.155019 24.5 23.59375 C 24.806096 27.15502 27.727762 30 31.25 30 C 34.648185 30 37.468596 27.382552 37.9375 24 L 42.0625 24 C 42.3395 24 42.5625 23.777 42.5625 23.5 C 42.5625 23.223 42.3395 23 42.0625 23 L 38 23 L 24.5 23 L 11.5 23 L 11 23 L 6.9375 23 z "
       id="path2264" />
    <path
       sodipodi:type="arc"
       style="opacity:1;fill:#eeeeec;fill-opacity:1;stroke:none;stroke-width:1;stroke-miterlimit:4;stroke-dasharray:none;stroke-opacity:1;filter:url(#filter4019)"
       id="path3813"
       sodipodi:cx="13.826463"
       sodipodi:cy="24.19828"
       sodipodi:rx="3.2829957"
       sodipodi:ry="3.2829957"
       d="M 17.109458 24.19828 A 3.2829957 3.2829957 0 1 1  10.543467,24.19828 A 3.2829957 3.2829957 0 1 1  17.109458 24.19828 z"
       transform="matrix(0.9137996,0,0,0.9137994,-1.6346163,0.8876255)" />
  </g>
</svg>
