<?xml version="1.0" encoding="UTF-8" standalone="no"?>
<!-- Created with Inkscape (http://www.inkscape.org/) -->
<svg
   xmlns:dc="http://purl.org/dc/elements/1.1/"
   xmlns:cc="http://creativecommons.org/ns#"
   xmlns:rdf="http://www.w3.org/1999/02/22-rdf-syntax-ns#"
   xmlns:svg="http://www.w3.org/2000/svg"
   xmlns="http://www.w3.org/2000/svg"
   xmlns:xlink="http://www.w3.org/1999/xlink"
   xmlns:sodipodi="http://sodipodi.sourceforge.net/DTD/sodipodi-0.dtd"
   xmlns:inkscape="http://www.inkscape.org/namespaces/inkscape"
   width="48"
   height="48"
   id="svg2"
   sodipodi:version="0.32"
   inkscape:version="0.46"
   version="1.0"
   sodipodi:docbase="/home/hbons/Desktop"
   sodipodi:docname="question.svg"
   inkscape:export-filename="/home/hbons/Bureaublad/question.png"
   inkscape:export-xdpi="90"
   inkscape:export-ydpi="90"
   inkscape:output_extension="org.inkscape.output.svg.inkscape"
   sodipodi:modified="true">
  <defs
     id="defs4">
    <inkscape:perspective
       sodipodi:type="inkscape:persp3d"
       inkscape:vp_x="0 : 24 : 1"
       inkscape:vp_y="0 : 1000 : 0"
       inkscape:vp_z="48 : 24 : 1"
       inkscape:persp3d-origin="24 : 16 : 1"
       id="perspective92" />
    <linearGradient
       inkscape:collect="always"
       id="linearGradient11586">
      <stop
         style="stop-color:#ffffff;stop-opacity:1;"
         offset="0"
         id="stop11588" />
      <stop
         style="stop-color:#ffffff;stop-opacity:0;"
         offset="1"
         id="stop11590" />
    </linearGradient>
    <linearGradient
       inkscape:collect="always"
       id="linearGradient11570">
      <stop
         style="stop-color:#0a387a;stop-opacity:1"
         offset="0"
         id="stop11572" />
      <stop
         style="stop-color:#368eec;stop-opacity:1"
         offset="1"
         id="stop11574" />
    </linearGradient>
    <linearGradient
       id="linearGradient11493"
       inkscape:collect="always">
      <stop
         id="stop11495"
         offset="0"
         style="stop-color:#555753;stop-opacity:1" />
      <stop
         id="stop11497"
         offset="1"
         style="stop-color:#070808;stop-opacity:1" />
    </linearGradient>
    <linearGradient
       id="linearGradient11487"
       inkscape:collect="always">
      <stop
         id="stop11489"
         offset="0"
         style="stop-color:#538ac5;stop-opacity:1" />
      <stop
         id="stop11491"
         offset="1"
         style="stop-color:#ffffff;stop-opacity:1" />
    </linearGradient>
    <linearGradient
       inkscape:collect="always"
       id="linearGradient11474">
      <stop
         style="stop-color:#558bc5;stop-opacity:1"
         offset="0"
         id="stop11476" />
      <stop
         style="stop-color:#ffffff;stop-opacity:1"
         offset="1"
         id="stop11478" />
    </linearGradient>
    <linearGradient
       inkscape:collect="always"
       id="linearGradient11418">
      <stop
         style="stop-color:#ffffff;stop-opacity:1;"
         offset="0"
         id="stop11420" />
      <stop
         style="stop-color:#ffffff;stop-opacity:0;"
         offset="1"
         id="stop11422" />
    </linearGradient>
    <linearGradient
       inkscape:collect="always"
       id="linearGradient11333">
      <stop
         style="stop-color:#ffffff;stop-opacity:1;"
         offset="0"
         id="stop11335" />
      <stop
         style="stop-color:#ffffff;stop-opacity:0;"
         offset="1"
         id="stop11337" />
    </linearGradient>
    <linearGradient
       id="linearGradient11316"
       inkscape:collect="always">
      <stop
         id="stop11318"
         offset="0"
         style="stop-color:#edd400;stop-opacity:1" />
      <stop
         id="stop11320"
         offset="1"
         style="stop-color:#f6c93b;stop-opacity:0;" />
    </linearGradient>
    <linearGradient
       inkscape:collect="always"
       id="linearGradient11304">
      <stop
         style="stop-color:#ffffff;stop-opacity:1;"
         offset="0"
         id="stop11306" />
      <stop
         style="stop-color:#ffffff;stop-opacity:0;"
         offset="1"
         id="stop11308" />
    </linearGradient>
    <linearGradient
       inkscape:collect="always"
       id="linearGradient11292">
      <stop
         style="stop-color:#ffffff;stop-opacity:1;"
         offset="0"
         id="stop11294" />
      <stop
         style="stop-color:#ffffff;stop-opacity:0;"
         offset="1"
         id="stop11296" />
    </linearGradient>
    <linearGradient
       inkscape:collect="always"
       id="linearGradient11259">
      <stop
         style="stop-color:#ffffff;stop-opacity:1;"
         offset="0"
         id="stop11261" />
      <stop
         style="stop-color:#ffffff;stop-opacity:0;"
         offset="1"
         id="stop11263" />
    </linearGradient>
    <linearGradient
       inkscape:collect="always"
       id="linearGradient11241">
      <stop
         style="stop-color:#4f381b;stop-opacity:0.97254902"
         offset="0"
         id="stop11243" />
      <stop
         style="stop-color:#a87b42;stop-opacity:0.96078432"
         offset="1"
         id="stop11245" />
    </linearGradient>
    <linearGradient
       inkscape:collect="always"
       id="linearGradient11208">
      <stop
         style="stop-color:#c32f00;stop-opacity:1"
         offset="0"
         id="stop11210" />
      <stop
         style="stop-color:#6c1300;stop-opacity:1"
         offset="1"
         id="stop11212" />
    </linearGradient>
    <linearGradient
       inkscape:collect="always"
       id="linearGradient11196">
      <stop
         style="stop-color:#555753;stop-opacity:1"
         offset="0"
         id="stop11198" />
      <stop
         style="stop-color:#000000;stop-opacity:1"
         offset="1"
         id="stop11200" />
    </linearGradient>
    <linearGradient
       inkscape:collect="always"
       xlink:href="#linearGradient11241"
       id="linearGradient10406"
       gradientUnits="userSpaceOnUse"
       x1="14.365882"
       y1="19.515574"
       x2="11.215483"
       y2="8.2263536" />
    <linearGradient
       inkscape:collect="always"
       xlink:href="#linearGradient11493"
       id="linearGradient11202"
       x1="9.7069349"
       y1="8.5495605"
       x2="9.9879932"
       y2="10.59237"
       gradientUnits="userSpaceOnUse" />
    <linearGradient
       inkscape:collect="always"
       xlink:href="#linearGradient11196"
       id="linearGradient11206"
       gradientUnits="userSpaceOnUse"
       x1="9.7069349"
       y1="8.5495605"
       x2="9.9879932"
       y2="10.59237" />
    <linearGradient
       inkscape:collect="always"
       xlink:href="#linearGradient11208"
       id="linearGradient11214"
       x1="22.919643"
       y1="33.491837"
       x2="22.919643"
       y2="36.402832"
       gradientUnits="userSpaceOnUse"
       gradientTransform="matrix(-1,0,0,1,45.999931,1.885788e-7)" />
    <radialGradient
       inkscape:collect="always"
       xlink:href="#linearGradient11316"
       id="radialGradient11271"
       gradientUnits="userSpaceOnUse"
       gradientTransform="matrix(1.8771377,9.6878354e-8,-5.330884e-8,1.0893079,-10.4827,-2.6428601)"
       cx="11.873854"
       cy="12.147273"
       fx="11.594166"
       fy="8.8655272"
       r="9.975256" />
    <radialGradient
       inkscape:collect="always"
       xlink:href="#linearGradient11292"
       id="radialGradient11298"
       cx="24.00321"
       cy="34.70562"
       fx="24.00321"
       fy="34.70562"
       r="12.133846"
       gradientTransform="matrix(1.5208182,0,0,0.7073167,-12.501486,7.9416791)"
       gradientUnits="userSpaceOnUse" />
    <linearGradient
       inkscape:collect="always"
       xlink:href="#linearGradient11304"
       id="linearGradient11310"
       x1="8.9530411"
       y1="6.2636566"
       x2="10.732871"
       y2="9.6526775"
       gradientUnits="userSpaceOnUse" />
    <linearGradient
       inkscape:collect="always"
       xlink:href="#linearGradient11304"
       id="linearGradient11314"
       gradientUnits="userSpaceOnUse"
       x1="8.9530411"
       y1="6.2636566"
       x2="10.732871"
       y2="9.6526775" />
    <radialGradient
       inkscape:collect="always"
       xlink:href="#linearGradient11259"
       id="radialGradient11327"
       gradientUnits="userSpaceOnUse"
       gradientTransform="matrix(1.023438,0,0,0.8870879,-0.2709505,0.7064648)"
       cx="11.736404"
       cy="7.3689327"
       fx="11.800528"
       fy="1.1734189"
       r="9.975256" />
    <linearGradient
       inkscape:collect="always"
       xlink:href="#linearGradient11333"
       id="linearGradient11339"
       x1="14.6875"
       y1="11.875"
       x2="20.6875"
       y2="22.5625"
       gradientUnits="userSpaceOnUse"
       gradientTransform="translate(-2.0000685,1.885788e-7)" />
    <linearGradient
       inkscape:collect="always"
       xlink:href="#linearGradient11333"
       id="linearGradient11343"
       gradientUnits="userSpaceOnUse"
       x1="14.6875"
       y1="11.875"
       x2="20.6875"
       y2="22.5625"
       gradientTransform="translate(10.999931,1.885788e-7)" />
    <linearGradient
       inkscape:collect="always"
       xlink:href="#linearGradient11418"
       id="linearGradient11424"
       x1="22.915459"
       y1="34.796875"
       x2="22.854631"
       y2="29.835938"
       gradientUnits="userSpaceOnUse" />
    <filter
       inkscape:collect="always"
       id="filter11462"
       x="-0.078992675"
       width="1.1579853"
       y="-0.19133781"
       height="1.3826756">
      <feGaussianBlur
         inkscape:collect="always"
         stdDeviation="0.448448"
         id="feGaussianBlur11464" />
    </filter>
    <linearGradient
       inkscape:collect="always"
       xlink:href="#linearGradient11487"
       id="linearGradient11480"
       x1="14.728965"
       y1="15.785595"
       x2="16.957989"
       y2="24.104429"
       gradientUnits="userSpaceOnUse"
       gradientTransform="translate(-2.0000685,1.885788e-7)" />
    <filter
       inkscape:collect="always"
       id="filter11503"
       x="-0.11697236"
       width="1.2339447"
       y="-0.32830241"
       height="1.6566048">
      <feGaussianBlur
         inkscape:collect="always"
         stdDeviation="0.64772565"
         id="feGaussianBlur11505" />
    </filter>
    <linearGradient
       inkscape:collect="always"
       xlink:href="#linearGradient11474"
       id="linearGradient11507"
       gradientUnits="userSpaceOnUse"
       gradientTransform="matrix(-1,0,0,1,45.999932,1.885788e-7)"
       x1="14.728965"
       y1="15.785595"
       x2="16.957989"
       y2="24.104429" />
    <linearGradient
       inkscape:collect="always"
       xlink:href="#linearGradient11570"
       id="linearGradient11576"
       x1="48.140072"
       y1="17.348257"
       x2="36.310215"
       y2="9.2333107"
       gradientUnits="userSpaceOnUse"
       gradientTransform="translate(0,-2)" />
    <linearGradient
       inkscape:collect="always"
       xlink:href="#linearGradient11586"
       id="linearGradient11592"
       x1="39.704506"
       y1="13.248698"
       x2="54.781696"
       y2="18.949747"
       gradientUnits="userSpaceOnUse" />
  </defs>
  <sodipodi:namedview
     id="base"
     pagecolor="#ffffff"
     bordercolor="#666666"
     borderopacity="1.0"
     inkscape:pageopacity="0.0"
     inkscape:pageshadow="2"
     inkscape:zoom="16"
     inkscape:cx="30.755674"
     inkscape:cy="25.718908"
     inkscape:document-units="px"
     inkscape:current-layer="layer1"
     showgrid="true"
     fill="#fce94f"
     inkscape:window-width="1440"
     inkscape:window-height="847"
     inkscape:window-x="0"
     inkscape:window-y="0"
     width="48px"
     height="48px"
     inkscape:snap-bbox="true"
     inkscape:snap-nodes="false"
     objecttolerance="10"
     gridtolerance="10"
     showguides="true"
     inkscape:guide-bbox="true">
    <inkscape:grid
       type="xygrid"
       id="grid10393"
       visible="true"
       enabled="true" />
  </sodipodi:namedview>
  <metadata
     id="metadata7">
    <rdf:RDF>
      <cc:Work
         rdf:about="">
        <dc:format>image/svg+xml</dc:format>
        <dc:type
           rdf:resource="http://purl.org/dc/dcmitype/StillImage" />
      </cc:Work>
    </rdf:RDF>
  </metadata>
  <g
     inkscape:label="Layer 1"
     inkscape:groupmode="layer"
     id="layer1">
    <path
       transform="matrix(2.257367,0,0,2.7454598,-1.263726,9.7889628)"
       d="M 17.393564,10.457643 A 6.6449099,2.3675451 0 1 1 4.1037445,10.457643 A 6.6449099,2.3675451 0 1 1 17.393564,10.457643 z"
       sodipodi:ry="2.3675451"
       sodipodi:rx="6.6449099"
       sodipodi:cy="10.457643"
       sodipodi:cx="10.748654"
       id="path17958"
       style="opacity:0.7342342;fill:#2e3436;fill-opacity:1;stroke:none;stroke-width:1;stroke-miterlimit:4;stroke-dasharray:none;stroke-opacity:1;display:inline;filter:url(#filter11503);enable-background:new"
       sodipodi:type="arc" />
    <path
       transform="matrix(2.0549539,0,0,2.0549096,-2.2611787,1.4304378)"
       d="M 21.781414,10.983024 A 9.975256,9.975256 0 1 1 1.8309021,10.983024 A 9.975256,9.975256 0 1 1 21.781414,10.983024 z"
       sodipodi:ry="9.975256"
       sodipodi:rx="9.975256"
       sodipodi:cy="10.983024"
       sodipodi:cx="11.806158"
       id="path17960"
       style="opacity:1;fill:#e08700;fill-opacity:1;stroke:url(#linearGradient10406);stroke-width:0.4878417;stroke-miterlimit:4;stroke-dasharray:none;stroke-opacity:1;display:inline;enable-background:new"
       sodipodi:type="arc" />
    <path
       transform="matrix(1.904713,0,0,1.904713,-0.4874115,3.0804919)"
       d="M 21.781414,10.983024 A 9.975256,9.975256 0 1 1 1.8309021,10.983024 A 9.975256,9.975256 0 1 1 21.781414,10.983024 z"
       sodipodi:ry="9.975256"
       sodipodi:rx="9.975256"
       sodipodi:cy="10.983024"
       sodipodi:cx="11.806158"
       id="path11247"
       style="opacity:1;fill:url(#radialGradient11271);fill-opacity:1;stroke:none;stroke-width:0.51155168;stroke-miterlimit:4;stroke-dasharray:none;stroke-opacity:1;display:inline;enable-background:new"
       sodipodi:type="arc" />
    <path
       transform="matrix(1.904713,0,0,1.904713,-0.4874115,3.0804919)"
       d="M 21.781414,10.983024 A 9.975256,9.975256 0 1 1 1.8309021,10.983024 A 9.975256,9.975256 0 1 1 21.781414,10.983024 z"
       sodipodi:ry="9.975256"
       sodipodi:rx="9.975256"
       sodipodi:cy="10.983024"
       sodipodi:cx="11.806158"
       id="path11257"
       style="opacity:1;fill:url(#radialGradient11327);fill-opacity:1;stroke:none;stroke-width:0.51155168;stroke-miterlimit:4;stroke-dasharray:none;stroke-opacity:1;display:inline;enable-background:new"
       sodipodi:type="arc" />
    <path
       id="path11329"
       d="M 21.499931,19.500002 C 21.499931,22.812 18.811935,25.5 15.499932,25.5 C 12.187931,25.5 9.4999315,22.812 9.4999315,19.500002 C 9.4999315,16.188 12.187931,13.5 15.499932,13.5 C 18.811935,13.5 21.499931,16.188 21.499931,19.500002 z"
       style="opacity:1;fill:none;fill-opacity:1;stroke:url(#linearGradient11339);stroke-width:1;stroke-miterlimit:4;stroke-opacity:1;display:inline;enable-background:new" />
    <path
       transform="matrix(1.954837,0,0,-1.954837,-1.0791836,45.47002)"
       d="M 21.781414,10.983024 A 9.975256,9.975256 0 1 1 1.8309021,10.983024 A 9.975256,9.975256 0 1 1 21.781414,10.983024 z"
       sodipodi:ry="9.975256"
       sodipodi:rx="9.975256"
       sodipodi:cy="10.983024"
       sodipodi:cx="11.806158"
       id="path17964"
       style="opacity:0.48699999;fill:none;fill-opacity:1;stroke:#ffffff;stroke-width:0.51155168;stroke-miterlimit:4;stroke-dasharray:none;stroke-opacity:1;display:inline;enable-background:new"
       sodipodi:type="arc" />
    <path
       id="path17966"
       d="M 20.499932,19.5 C 20.499932,22.259999 18.259935,24.499999 15.499932,24.499999 C 12.739932,24.499999 10.499932,22.259999 10.499932,19.5 C 10.499932,16.739999 12.739932,14.499999 15.499932,14.499999 C 18.259935,14.499999 20.499932,16.739999 20.499932,19.5 z"
       style="opacity:1;fill:#ffffff;fill-opacity:1;stroke:url(#linearGradient11480);stroke-width:1;stroke-miterlimit:4;stroke-opacity:1;display:inline;enable-background:new" />
    <path
       transform="matrix(2.4367989,0,0,1.5452869,-6.1538483,7.0838437)"
       d="M 10.732871,9.6526775 A 1.0259361,1.9413869 0 1 1 8.6809988,9.6526775 A 1.0259361,1.9413869 0 1 1 10.732871,9.6526775 z"
       sodipodi:ry="1.9413869"
       sodipodi:rx="1.0259361"
       sodipodi:cy="9.6526775"
       sodipodi:cx="9.7069349"
       id="path17968"
       style="opacity:1;fill:url(#linearGradient11202);fill-opacity:1;stroke:none;stroke-width:0.98640186;stroke-miterlimit:4;stroke-dasharray:none;stroke-opacity:1;display:inline;enable-background:new"
       sodipodi:type="arc" />
    <path
       sodipodi:type="inkscape:offset"
       inkscape:radius="0.98821175"
       inkscape:original="M 13 28 C 14.290259 33.138472 18.711597 37 24 37 C 29.288399 37 33.709743 33.138472 35 28 C 32.681757 31.327326 28.610225 35.09375 24 35.09375 C 19.389774 35.093751 15.318244 31.327326 13 28 z "
       style="opacity:0.37037036;fill:url(#radialGradient11298);fill-opacity:1;stroke:none;stroke-width:1;stroke-miterlimit:4;stroke-dasharray:none;stroke-opacity:1;display:inline;enable-background:new"
       id="path11288"
       d="M 12.96875,27 C 12.66316,27.004794 12.37698,27.150701 12.193604,27.395203 C 12.010227,27.639705 11.950287,27.955291 12.03125,28.25 C 13.422894,33.792238 18.230543,38 24,38 C 29.769453,38 34.577108,33.792239 35.96875,28.25 C 36.109736,27.777313 35.880605,27.273042 35.431823,27.068334 C 34.983041,26.863627 34.452032,27.021167 34.1875,27.4375 C 31.979544,30.606533 28.071998,34.09375 24,34.09375 C 19.928002,34.093751 16.020457,30.606534 13.8125,27.4375 C 13.624435,27.157127 13.306264,26.992149 12.96875,27 L 12.96875,27 z"
       transform="translate(-2.0000685,1.885788e-7)" />
    <path
       sodipodi:nodetypes="cscsc"
       id="path17974"
       d="M 10.999931,28 C 12.29019,33.138472 16.711529,37 21.999932,37 C 27.288332,37 31.709674,33.138472 32.999931,28 C 30.681688,31.327326 26.610157,35.102442 21.999932,35.102442 C 17.389707,35.102445 13.318175,31.327326 10.999931,28 z"
       style="opacity:1;fill:url(#linearGradient11214);fill-opacity:1;stroke:none;stroke-width:1;stroke-miterlimit:4;stroke-dasharray:none;stroke-opacity:1;display:inline;enable-background:new" />
    <path
       sodipodi:open="true"
       sodipodi:end="5.6135639"
       sodipodi:start="3.5782199"
       transform="matrix(3.7380737,0.6989293,-0.7062659,1.8392838,3.5297812,-10.968438)"
       d="M 7.2133909,8.4869402 A 1.2276785,1.7410715 0 0 1 9.288462,8.1425499"
       sodipodi:ry="1.7410715"
       sodipodi:rx="1.2276785"
       sodipodi:cy="9.2232141"
       sodipodi:cx="8.3258924"
       id="path11325"
       style="opacity:1;fill:none;fill-opacity:1;stroke:#ffffff;stroke-width:0.36837956;stroke-miterlimit:4;stroke-dasharray:none;stroke-opacity:1;display:inline;enable-background:new"
       sodipodi:type="arc" />
    <path
       sodipodi:open="true"
       sodipodi:end="5.6135639"
       sodipodi:start="3.5782199"
       transform="matrix(3.7380737,0.6989296,-0.7062659,1.8392846,3.5297812,-9.9684476)"
       d="M 7.2133909,8.4869402 A 1.2276785,1.7410715 0 0 1 9.288462,8.1425499"
       sodipodi:ry="1.7410715"
       sodipodi:rx="1.2276785"
       sodipodi:cy="9.2232141"
       sodipodi:cx="8.3258924"
       id="path17976"
       style="opacity:1;fill:none;fill-opacity:1;stroke:#a95300;stroke-width:0.36837947;stroke-miterlimit:4;stroke-dasharray:none;stroke-opacity:1;display:inline;enable-background:new"
       sodipodi:type="arc" />
    <path
       sodipodi:open="true"
       sodipodi:end="5.6135639"
       sodipodi:start="3.5782199"
       transform="matrix(-3.7380737,0.6989293,0.7062659,1.8392838,40.470081,-10.968438)"
       d="M 7.2133909,8.4869402 A 1.2276785,1.7410715 0 0 1 9.288462,8.1425499"
       sodipodi:ry="1.7410715"
       sodipodi:rx="1.2276785"
       sodipodi:cy="9.2232141"
       sodipodi:cx="8.3258924"
       id="path11323"
       style="opacity:1;fill:none;fill-opacity:1;stroke:#ffffff;stroke-width:0.36837956;stroke-miterlimit:4;stroke-dasharray:none;stroke-opacity:1;display:inline;enable-background:new"
       sodipodi:type="arc" />
    <path
       sodipodi:open="true"
       sodipodi:end="5.6135639"
       sodipodi:start="3.5782199"
       transform="matrix(-3.7380737,0.6989293,0.7062659,1.8392838,40.470081,-9.9684383)"
       d="M 7.2133909,8.4869402 A 1.2276785,1.7410715 0 0 1 9.288462,8.1425499"
       sodipodi:ry="1.7410715"
       sodipodi:rx="1.2276785"
       sodipodi:cy="9.2232141"
       sodipodi:cx="8.3258924"
       id="path17978"
       style="opacity:1;fill:none;fill-opacity:1;stroke:#a95300;stroke-width:0.36837956;stroke-miterlimit:4;stroke-dasharray:none;stroke-opacity:1;display:inline;enable-background:new"
       sodipodi:type="arc" />
    <path
       id="path11482"
       d="M 23.499931,19.5 C 23.499931,22.259999 25.739928,24.499999 28.499931,24.499999 C 31.259931,24.499999 33.499931,22.259999 33.499931,19.5 C 33.499931,16.739999 31.259931,14.499999 28.499931,14.499999 C 25.739928,14.499999 23.499931,16.739999 23.499931,19.5 z"
       style="opacity:1;fill:#ffffff;fill-opacity:1;stroke:url(#linearGradient11507);stroke-width:1;stroke-miterlimit:4;stroke-opacity:1;display:inline;enable-background:new" />
    <path
       transform="matrix(2.436799,0,0,1.5452869,5.8461508,7.0838441)"
       d="M 10.732871,9.6526775 A 1.0259361,1.9413869 0 1 1 8.6809988,9.6526775 A 1.0259361,1.9413869 0 1 1 10.732871,9.6526775 z"
       sodipodi:ry="1.9413869"
       sodipodi:rx="1.0259361"
       sodipodi:cy="9.6526775"
       sodipodi:cx="9.7069349"
       id="path11204"
       style="opacity:1;fill:url(#linearGradient11206);fill-opacity:1;stroke:none;stroke-width:0.98640186;stroke-miterlimit:4;stroke-dasharray:none;stroke-opacity:1;display:inline;enable-background:new"
       sodipodi:type="arc" />
    <path
       transform="matrix(1.4620795,0,0,1.0301913,3.3076893,12.055896)"
       d="M 10.732871,9.6526775 A 1.0259361,1.9413869 0 1 1 8.6809988,9.6526775 A 1.0259361,1.9413869 0 1 1 10.732871,9.6526775 z"
       sodipodi:ry="1.9413869"
       sodipodi:rx="1.0259361"
       sodipodi:cy="9.6526775"
       sodipodi:cx="9.7069349"
       id="path11300"
       style="opacity:1;fill:url(#linearGradient11310);fill-opacity:1;stroke:none;stroke-width:0.98640186;stroke-miterlimit:4;stroke-dasharray:none;stroke-opacity:1;display:inline;enable-background:new"
       sodipodi:type="arc" />
    <path
       transform="matrix(1.4620795,0,0,1.0301913,15.30769,12.055896)"
       d="M 10.732871,9.6526775 A 1.0259361,1.9413869 0 1 1 8.6809988,9.6526775 A 1.0259361,1.9413869 0 1 1 10.732871,9.6526775 z"
       sodipodi:ry="1.9413869"
       sodipodi:rx="1.0259361"
       sodipodi:cy="9.6526775"
       sodipodi:cx="9.7069349"
       id="path11312"
       style="opacity:1;fill:url(#linearGradient11314);fill-opacity:1;stroke:none;stroke-width:0.98640186;stroke-miterlimit:4;stroke-dasharray:none;stroke-opacity:1;display:inline;enable-background:new"
       sodipodi:type="arc" />
    <path
       id="path11341"
       d="M 34.499931,19.500002 C 34.499931,22.812 31.811935,25.5 28.499932,25.5 C 25.187931,25.5 22.499931,22.812 22.499931,19.500002 C 22.499931,16.188 25.187931,13.5 28.499932,13.5 C 31.811935,13.5 34.499931,16.188 34.499931,19.500002 z"
       style="opacity:1;fill:none;fill-opacity:1;stroke:url(#linearGradient11343);stroke-width:1;stroke-miterlimit:4;stroke-opacity:1;display:inline;enable-background:new" />
    <path
       sodipodi:type="arc"
       style="opacity:1;fill:url(#linearGradient11424);fill-opacity:1;fill-rule:nonzero;stroke:none;stroke-width:1;stroke-linecap:square;stroke-linejoin:miter;marker:none;marker-start:none;marker-mid:none;marker-end:none;stroke-miterlimit:4;stroke-dasharray:none;stroke-dashoffset:0;stroke-opacity:1;visibility:visible;display:inline;overflow:visible;filter:url(#filter11462);enable-background:accumulate"
       id="path11416"
       sodipodi:cx="23.25"
       sodipodi:cy="30.1875"
       sodipodi:rx="6.8125"
       sodipodi:ry="2.8125"
       d="M 30.0625,30.1875 A 6.8125,2.8125 0 1 1 16.4375,30.1875 A 6.8125,2.8125 0 1 1 30.0625,30.1875 z"
       transform="matrix(1.0275229,0,0,1.777778,-1.8899762,-24.666672)" />
    <path
       style="font-size:19.03945922999999851px;font-style:normal;font-variant:normal;font-weight:normal;font-stretch:normal;text-align:start;line-height:125%;writing-mode:lr-tb;text-anchor:start;fill:url(#linearGradient11576);fill-opacity:1;stroke:none;stroke-width:1.55613649000000009px;stroke-linecap:butt;stroke-linejoin:miter;stroke-opacity:1;font-family:Century Schoolbook L"
       d="M 40.562802,1 C 38.874778,1 37.325048,1.4262995 36.103865,2.2849003 C 34.882682,3.1435011 34,4.5562356 34,6.1396011 C 33.999998,7.9466388 35.485788,8.98666 37.359903,8.98666 C 38.957767,8.98666 40.035961,8.624307 40.035961,6.9379006 C 40.035961,5.8362752 41.040796,5.7582514 41.040796,6.9845976 C 41.040796,7.5577749 40.719884,7.6810132 40.468599,8.019943 C 39.556828,9.177515 39.139094,9.717805 38.804348,10.213675 C 37.945076,11.552236 36.991232,12.943969 36.991232,14.475783 C 36.991232,17.084737 39.589372,16.982906 39.589372,16.982906 C 38.286049,17.378389 37.171498,18.353378 37.171498,19.803419 C 37.171496,21.626512 38.733926,23 40.468599,23 C 42.202179,23.000002 44.030865,21.590735 44.030865,19.803419 C 44.030861,18.208952 42.511206,17.276809 41.065217,16.990133 C 41.766698,16.738997 42.055837,15.940338 42.050276,15.196581 C 42.03878,14.148655 42.289227,13.720536 42.384058,13.504274 C 43.435127,11.604868 44.950472,11.091534 46.120773,9.74359 C 46.745392,8.827976 47,7.7327672 47,6.7350427 C 47.000001,5.0864959 46.278841,3.5526223 45.084541,2.5356125 C 43.890241,1.5186028 42.298919,1 40.562802,1 z"
       id="path3346"
       sodipodi:nodetypes="csssccccccssscsccssc" />
    <path
       sodipodi:type="inkscape:offset"
       inkscape:radius="-0.97557348"
       inkscape:original="M 40.5625 3 C 38.874477 3 37.314933 3.4226492 36.09375 4.28125 C 34.872565 5.1398509 34 6.5416345 34 8.125 C 33.999998 9.932038 35.500885 11 37.375 11 C 38.972866 11 40.03125 10.623906 40.03125 8.9375 C 40.03125 7.8358747 41.03125 7.7736538 41.03125 9 C 41.031252 9.5731777 40.720035 9.6923202 40.46875 10.03125 C 39.556981 11.188822 39.147246 11.72288 38.8125 12.21875 C 37.953228 13.557311 37 14.936936 37 16.46875 C 36.999998 19.077705 39.59375 18.96875 39.59375 18.96875 C 38.290428 19.364233 37.15625 20.362459 37.15625 21.8125 C 37.156249 23.635593 38.734077 25 40.46875 25 C 42.202332 25.000002 44.03125 23.599816 44.03125 21.8125 C 44.031246 20.218033 42.508489 19.286676 41.0625 19 C 41.763982 18.748864 42.068061 17.931257 42.0625 17.1875 C 42.051002 16.139574 42.280169 15.716262 42.375 15.5 C 43.426067 13.600594 44.954699 13.097944 46.125 11.75 C 46.749619 10.834386 47 9.7477245 47 8.75 C 47.000001 7.1014533 46.28805 5.5482598 45.09375 4.53125 C 43.89945 3.5142402 42.298617 3 40.5625 3 z "
       style="font-size:19.03945922999999851px;font-style:normal;font-variant:normal;font-weight:normal;font-stretch:normal;text-align:start;line-height:125%;writing-mode:lr-tb;text-anchor:start;fill:url(#linearGradient11592);fill-opacity:1;stroke:none;stroke-width:1.55613649000000009px;stroke-linecap:butt;stroke-linejoin:miter;stroke-opacity:1;font-family:Century Schoolbook L"
       id="path11582"
       d="M 40.5625,3.96875 C 39.03732,3.96875 37.680971,4.3732797 36.65625,5.09375 C 35.664894,5.7907611 34.96875,6.9000488 34.96875,8.125 C 34.968749,8.758422 35.192622,9.1443716 35.59375,9.46875 C 35.994878,9.7931284 36.623252,10.03125 37.375,10.03125 C 38.097392,10.03125 38.596706,9.9024002 38.78125,9.78125 C 38.965794,9.6600998 39.0625,9.5766139 39.0625,8.9375 C 39.0625,8.5144976 39.145775,8.1274407 39.375,7.78125 C 39.604225,7.4350593 40.027732,7.1249297 40.53125,7.125 C 41.034768,7.1250703 41.462039,7.4531849 41.6875,7.8125 C 41.912961,8.1718151 42,8.5608281 42,9 C 42.000002,9.4631574 41.827288,9.9211544 41.625,10.1875 C 41.422712,10.453846 41.293456,10.566387 41.25,10.625 C 40.340574,11.779598 39.934939,12.290878 39.625,12.75 C 38.753163,14.108134 37.96875,15.34166 37.96875,16.46875 C 37.968749,17.449931 38.315321,17.62655 38.71875,17.8125 C 39.122179,17.99845 39.5625,18 39.5625,18 C 39.861882,17.988556 40.149924,18.115294 40.34375,18.34375 C 40.447526,18.232292 40.575952,18.146675 40.71875,18.09375 C 40.795302,18.066344 40.889618,18.003346 40.96875,17.84375 C 41.047882,17.684154 41.095517,17.423765 41.09375,17.1875 C 41.08066,15.994488 41.418028,15.209423 41.46875,15.09375 C 41.488628,15.071983 41.509483,15.051128 41.53125,15.03125 C 42.136141,13.938138 42.896246,13.218183 43.59375,12.65625 C 44.265082,12.115402 44.835184,11.717613 45.3125,11.1875 C 45.803013,10.468469 46.03125,9.5845097 46.03125,8.75 C 46.031251,7.3823316 45.435469,6.1044628 44.46875,5.28125 C 43.478484,4.4379857 42.105973,3.96875 40.5625,3.96875 z M 40.3125,19.625 C 40.194801,19.756609 40.043595,19.853813 39.875,19.90625 C 38.857674,20.21495 38.125,20.871168 38.125,21.8125 C 38.124999,23.072708 39.245635,24.03125 40.46875,24.03125 C 41.072889,24.031251 41.781174,23.769276 42.28125,23.34375 C 42.781326,22.918224 43.0625,22.373398 43.0625,21.8125 C 43.062499,21.325832 42.865255,20.986753 42.46875,20.65625 C 42.072245,20.325747 41.464388,20.0856 40.875,19.96875 C 40.653297,19.922898 40.454439,19.801374 40.3125,19.625 z"
       transform="translate(0,-2)" />
  </g>
</svg>
