<?xml version="1.0" encoding="UTF-8" standalone="no"?>
<!-- Created with Inkscape (http://www.inkscape.org/) -->
<svg
   xmlns:dc="http://purl.org/dc/elements/1.1/"
   xmlns:cc="http://creativecommons.org/ns#"
   xmlns:rdf="http://www.w3.org/1999/02/22-rdf-syntax-ns#"
   xmlns:svg="http://www.w3.org/2000/svg"
   xmlns="http://www.w3.org/2000/svg"
   xmlns:xlink="http://www.w3.org/1999/xlink"
   xmlns:sodipodi="http://sodipodi.sourceforge.net/DTD/sodipodi-0.dtd"
   xmlns:inkscape="http://www.inkscape.org/namespaces/inkscape"
   width="48"
   height="48"
   id="svg2"
   sodipodi:version="0.32"
   inkscape:version="0.46"
   version="1.0"
   sodipodi:docbase="/home/hbons/Desktop/2.1.1/dialogs/scalable"
   sodipodi:docname="question.svg"
   inkscape:export-filename="/home/hbons/Desktop/newstyle.png"
   inkscape:export-xdpi="90"
   inkscape:export-ydpi="90"
   inkscape:output_extension="org.inkscape.output.svg.inkscape"
   sodipodi:modified="true">
  <defs
     id="defs4">
    <linearGradient
       inkscape:collect="always"
       id="linearGradient3104">
      <stop
         style="stop-color:#eeeeec;stop-opacity:1;"
         offset="0"
         id="stop3106" />
      <stop
         style="stop-color:#eeeeec;stop-opacity:0;"
         offset="1"
         id="stop3108" />
    </linearGradient>
    <radialGradient
       inkscape:collect="always"
       xlink:href="#linearGradient3104"
       id="radialGradient3114"
       cx="8.3343515"
       cy="14.186539"
       fx="8.3343515"
       fy="14.186539"
       r="9.975256"
       gradientUnits="userSpaceOnUse"
       gradientTransform="matrix(-0.9327,0.932656,-0.947494,-0.947449,33.02126,11.96667)" />
    <filter
       inkscape:collect="always"
       x="-0.27879593"
       width="1.5575919"
       y="-0.78248727"
       height="2.5649745"
       id="filter3405">
      <feGaussianBlur
         inkscape:collect="always"
         stdDeviation="1.5438116"
         id="feGaussianBlur3407" />
    </filter>
  </defs>
  <sodipodi:namedview
     id="base"
     pagecolor="#ffffff"
     bordercolor="#666666"
     borderopacity="1.0"
     inkscape:pageopacity="0.0"
     inkscape:pageshadow="2"
     inkscape:zoom="22.4"
     inkscape:cx="41.793957"
     inkscape:cy="31.031721"
     inkscape:document-units="px"
     inkscape:current-layer="layer1"
     showgrid="true"
     fill="#fce94f"
     inkscape:window-width="1440"
     inkscape:window-height="847"
     inkscape:window-x="3"
     inkscape:window-y="25"
     width="48px"
     height="48px" />
  <metadata
     id="metadata7">
    <rdf:RDF>
      <cc:Work
         rdf:about="">
        <dc:format>image/svg+xml</dc:format>
        <dc:type
           rdf:resource="http://purl.org/dc/dcmitype/StillImage" />
      </cc:Work>
    </rdf:RDF>
  </metadata>
  <g
     inkscape:label="Layer 1"
     inkscape:groupmode="layer"
     id="layer1">
    <path
       sodipodi:type="arc"
       style="opacity:0.64044949;fill:#2e3436;fill-opacity:1;stroke:none;stroke-width:1;stroke-miterlimit:4;stroke-dasharray:none;stroke-opacity:1;filter:url(#filter3405)"
       id="path3140"
       sodipodi:cx="10.748654"
       sodipodi:cy="10.457643"
       sodipodi:rx="6.6449099"
       sodipodi:ry="2.3675451"
       d="M 17.393564 10.457643 A 6.6449099 2.3675451 0 1 1  4.1037445,10.457643 A 6.6449099 2.3675451 0 1 1  17.393564 10.457643 z"
       transform="matrix(2.2723916,0,0,1.6905173,-4.1758193,23.510748)" />
    <path
       sodipodi:type="arc"
       style="opacity:1;fill:#edd400;fill-opacity:1;stroke:#cc6400;stroke-width:0.55559433;stroke-miterlimit:4;stroke-dasharray:none;stroke-opacity:1"
       id="path1307"
       sodipodi:cx="11.806158"
       sodipodi:cy="10.983024"
       sodipodi:rx="9.975256"
       sodipodi:ry="9.975256"
       d="M 21.781414 10.983024 A 9.975256 9.975256 0 1 1  1.8309021,10.983024 A 9.975256 9.975256 0 1 1  21.781414 10.983024 z"
       transform="matrix(1.8043406,0,0,1.8043406,-0.8023303,7.6828845)" />
    <path
       sodipodi:type="arc"
       style="opacity:0.79545456;fill:url(#radialGradient3114);fill-opacity:1;stroke:none;stroke-width:1.05274069;stroke-miterlimit:4;stroke-dasharray:none;stroke-opacity:1"
       id="path3102"
       sodipodi:cx="11.806158"
       sodipodi:cy="10.983024"
       sodipodi:rx="9.975256"
       sodipodi:ry="9.975256"
       d="M 21.781414 10.983024 A 9.975256 9.975256 0 1 1  1.8309021,10.983024 A 9.975256 9.975256 0 1 1  21.781414 10.983024 z"
       transform="matrix(1.6958412,0,0,1.6958412,0.3182737,9.0348911)" />
    <path
       sodipodi:type="arc"
       style="opacity:0.64044949;fill:none;fill-opacity:1;stroke:#ffffff;stroke-width:0.58677971;stroke-miterlimit:4;stroke-dasharray:none;stroke-opacity:1"
       id="path2184"
       sodipodi:cx="11.806158"
       sodipodi:cy="10.983024"
       sodipodi:rx="9.975256"
       sodipodi:ry="9.975256"
       d="M 21.781414 10.983024 A 9.975256 9.975256 0 1 1  1.8309021,10.983024 A 9.975256 9.975256 0 1 1  21.781414 10.983024 z"
       transform="matrix(1.7042169,0,0,1.7042169,0.3797456,8.7825452)" />
    <path
       style="fill:#eeeeec;fill-opacity:1;stroke:#fea523;stroke-width:1;stroke-miterlimit:4;stroke-opacity:1"
       d="M 19.500001,23.5 C 19.500001,26.26 17.260002,28.500001 14.500001,28.500001 C 11.740001,28.500001 9.5000001,26.26 9.5000001,23.5 C 9.5000001,20.74 11.740001,18.5 14.500001,18.5 C 17.260002,18.5 19.500001,20.74 19.500001,23.5 z "
       id="path3154" />
    <path
       sodipodi:type="arc"
       style="opacity:1;fill:#2e3436;fill-opacity:1;stroke:none;stroke-width:0.98640186;stroke-miterlimit:4;stroke-dasharray:none;stroke-opacity:1"
       id="path2172"
       sodipodi:cx="9.7069349"
       sodipodi:cy="9.6526775"
       sodipodi:rx="1.0259361"
       sodipodi:ry="1.9413869"
       d="M 10.732871 9.6526775 A 1.0259361 1.9413869 0 1 1  8.6809988,9.6526775 A 1.0259361 1.9413869 0 1 1  10.732871 9.6526775 z"
       transform="matrix(1.9494387,0,0,1.2877392,-1.9230749,13.069869)" />
    <path
       sodipodi:type="arc"
       style="opacity:1;fill:#eeeeec;fill-opacity:1;stroke:#fea523;stroke-width:0.282258;stroke-miterlimit:4;stroke-dasharray:none;stroke-opacity:1"
       id="path3152"
       sodipodi:cx="9.7069349"
       sodipodi:cy="9.6526775"
       sodipodi:rx="1.0259361"
       sodipodi:ry="1.9413869"
       d="M 10.732871 9.6526775 A 1.0259361 1.9413869 0 1 1  8.6809988,9.6526775 A 1.0259361 1.9413869 0 1 1  10.732871 9.6526775 z"
       transform="matrix(4.8735976,0,0,2.5754783,-20.807694,-1.3602619)" />
    <path
       sodipodi:type="arc"
       style="opacity:1;fill:#2e3436;fill-opacity:1;stroke:none;stroke-width:0.98640186;stroke-miterlimit:4;stroke-dasharray:none;stroke-opacity:1"
       id="path3148"
       sodipodi:cx="9.7069349"
       sodipodi:cy="9.6526775"
       sodipodi:rx="1.0259361"
       sodipodi:ry="1.9413869"
       d="M 10.732871 9.6526775 A 1.0259361 1.9413869 0 1 1  8.6809988,9.6526775 A 1.0259361 1.9413869 0 1 1  10.732871 9.6526775 z"
       transform="matrix(1.9494393,0,0,1.2877392,9.0769201,13.069869)" />
    <path
       style="opacity:1;fill:#ce5c00;fill-opacity:1;stroke:none;stroke-width:1;stroke-miterlimit:4;stroke-dasharray:none;stroke-opacity:1"
       d="M 30,32 C 28.885686,35.996588 25.067255,39 20.5,39 C 15.932746,39 12.114315,35.996588 11,32 C 16.460075,38.82871 24.447577,38.177252 30,32 z "
       id="path2186"
       sodipodi:nodetypes="cscc" />
    <path
       sodipodi:type="arc"
       style="opacity:0.64044949;fill:none;fill-opacity:1;stroke:#f57900;stroke-width:0.3774938;stroke-miterlimit:4;stroke-dasharray:none;stroke-opacity:1"
       id="path2259"
       sodipodi:cx="8.3258924"
       sodipodi:cy="9.2232141"
       sodipodi:rx="1.2276785"
       sodipodi:ry="1.7410715"
       d="M 7.2133909,8.4869402 A 1.2276785,1.7410715 0 0 1 9.288462,8.1425499"
       transform="matrix(3.5277688,0.705265,-0.6665314,1.855957,3.2901886,-4.1630499)"
       sodipodi:start="3.5782199"
       sodipodi:end="5.6135639"
       sodipodi:open="true" />
    <path
       sodipodi:type="arc"
       style="opacity:0.64044949;fill:none;fill-opacity:1;stroke:#f57900;stroke-width:0.3774938;stroke-miterlimit:4;stroke-dasharray:none;stroke-opacity:1"
       id="path2261"
       sodipodi:cx="8.3258924"
       sodipodi:cy="9.2232141"
       sodipodi:rx="1.2276785"
       sodipodi:ry="1.7410715"
       d="M 7.2133909,8.4869402 A 1.2276785,1.7410715 0 0 1 9.288462,8.1425499"
       transform="matrix(-3.5277688,0.705265,0.6665314,1.855957,37.208475,-4.1630499)"
       sodipodi:start="3.5782199"
       sodipodi:end="5.6135639"
       sodipodi:open="true" />
    <path
       transform="translate(-2.96875,2.96875)"
       style="font-size:19.03945923px;font-style:normal;font-variant:normal;font-weight:normal;font-stretch:normal;text-align:start;line-height:125%;writing-mode:lr-tb;text-anchor:start;fill:#204a87;fill-opacity:1;stroke:none;stroke-width:1.55613649px;stroke-linecap:butt;stroke-linejoin:miter;stroke-opacity:1;font-family:Century Schoolbook L"
       d="M 41.5625,0.03125 C 39.882592,0.03125 38.340312,0.45633843 37.125,1.3125 C 35.909688,2.1686616 35.03125,3.5773827 35.03125,5.15625 C 35.031248,6.9581536 36.509895,8.65625 38.375,8.65625 C 39.965182,8.6562496 41.5,7.3378655 41.5,5.65625 C 41.5,5.3071726 41.34266,4.9823536 41.21875,4.65625 C 41.387991,4.6997757 41.631962,4.7250666 41.6875,4.78125 C 41.780384,4.8752143 41.90625,5.0515022 41.90625,5.59375 C 41.90625,6.1652988 41.718827,6.6932831 41.46875,7.03125 C 40.561362,8.1855326 40.145637,8.7242892 39.8125,9.21875 C 39.479363,9.7132108 39.280996,10.139806 39.125,10.53125 C 39.124907,10.541666 39.124907,10.552084 39.125,10.5625 C 39.043286,10.775751 38.25,11.848298 38.25,13.46875 L 38.25,14.21875 C 38.248868,14.683225 38.432878,15.129003 38.761313,15.457437 C 39.089747,15.785872 39.535525,15.969882 40,15.96875 L 40.59375,15.96875 C 39.296693,16.363109 38.1875,17.335329 38.1875,18.78125 C 38.187498,20.599164 39.742417,21.96875 41.46875,21.96875 C 43.193995,21.968752 44.75,20.563489 44.75,18.78125 C 44.749996,17.191313 43.501537,16.129612 42.0625,15.84375 C 42.760608,15.593328 43.224284,14.929144 43.21875,14.1875 C 43.207309,13.142551 43.280625,12.715648 43.375,12.5 C 43.469375,12.284352 43.666112,12.036543 44.375,11.46875 C 44.385548,11.458466 44.395966,11.448048 44.40625,11.4375 C 45.640264,10.416457 46.472134,9.663013 47.09375,8.75 C 47.715366,7.836987 47.96875,6.7448903 47.96875,5.75 C 47.968751,4.1061365 47.251058,2.5766205 46.0625,1.5625 C 44.873942,0.5483795 43.29027,0.03125 41.5625,0.03125 z "
       id="path3346" />
    <path
       id="text2395"
       d="M 38.506782,17.184869 C 38.482313,14.953817 38.751472,14.339138 40.317489,13.087017 C 42.715448,11.106389 43.253768,10.332347 43.253768,8.7387398 C 43.253768,6.3710938 41.369653,4.7774818 38.580188,4.7774818 C 35.815195,4.7774818 33.808732,6.1889664 33.808732,8.1468275 C 33.808732,9.1485242 34.493866,9.8997976 35.399218,9.8997976 C 36.182227,9.8997976 36.793951,9.3534166 36.793951,8.6476754 C 36.793951,8.1923596 36.549258,7.8053395 36.08435,7.4410862 C 35.717315,7.1678961 35.692845,7.122364 35.692845,6.9402374 C 35.692845,6.3483259 36.769483,5.8019451 37.943996,5.8019451 C 39.681291,5.8019451 40.684521,6.8491761 40.684521,8.6021443 C 40.684521,9.5355437 40.390894,10.400647 39.901517,11.060855 C 38.09081,13.360205 38.090807,13.360208 37.772712,14.157012 C 37.528022,14.794454 37.034866,15.386368 37.034866,16.456362 L 37.034866,17.184869 L 38.506782,17.184869 M 38.512445,20.345536 C 37.65603,20.345536 36.970897,20.982982 36.970897,21.75702 C 36.970897,22.553823 37.65603,23.191268 38.487976,23.191268 C 39.344388,23.191268 40.029523,22.553823 40.029523,21.75702 C 40.029523,20.982982 39.344388,20.345536 38.512445,20.345536"
       style="font-size:19.03945923px;font-style:normal;font-variant:normal;font-weight:normal;font-stretch:normal;text-align:start;line-height:125%;writing-mode:lr-tb;text-anchor:start;fill:#eeeeec;fill-opacity:1;stroke:#ffffff;stroke-width:1.55496371px;stroke-linecap:butt;stroke-linejoin:miter;stroke-opacity:1;font-family:Century Schoolbook L" />
  </g>
</svg>
