<?xml version="1.0" encoding="UTF-8" standalone="no"?>
<!-- Created with Inkscape (http://www.inkscape.org/) -->
<svg
   xmlns:dc="http://purl.org/dc/elements/1.1/"
   xmlns:cc="http://web.resource.org/cc/"
   xmlns:rdf="http://www.w3.org/1999/02/22-rdf-syntax-ns#"
   xmlns:svg="http://www.w3.org/2000/svg"
   xmlns="http://www.w3.org/2000/svg"
   xmlns:xlink="http://www.w3.org/1999/xlink"
   xmlns:sodipodi="http://inkscape.sourceforge.net/DTD/s odipodi-0.dtd"
   xmlns:inkscape="http://www.inkscape.org/namespaces/inkscape"
   width="64"
   height="64"
   id="svg2"
   sodipodi:version="0.32"
   inkscape:version="0.43"
   version="1.0"
   sodipodi:docbase="/home/hbons/Desktop/Gaim Refresh/dialogs"
   sodipodi:docname="dialog-warning.svg"
   inkscape:export-filename="/home/hbons/Desktop/Gaim Refresh/dialogs/dialog-warning.png"
   inkscape:export-xdpi="90"
   inkscape:export-ydpi="90">
  <defs
     id="defs4">
    <linearGradient
       inkscape:collect="always"
       id="linearGradient3121">
      <stop
         style="stop-color:#d3d7cf;stop-opacity:1;"
         offset="0"
         id="stop3123" />
      <stop
         style="stop-color:#d3d7cf;stop-opacity:0;"
         offset="1"
         id="stop3125" />
    </linearGradient>
    <linearGradient
       inkscape:collect="always"
       id="linearGradient3816">
      <stop
         style="stop-color:#000000;stop-opacity:1;"
         offset="0"
         id="stop3818" />
      <stop
         style="stop-color:#000000;stop-opacity:0;"
         offset="1"
         id="stop3820" />
    </linearGradient>
    <radialGradient
       inkscape:collect="always"
       xlink:href="#linearGradient3816"
       id="radialGradient3822"
       cx="31.112698"
       cy="19.008621"
       fx="31.112698"
       fy="19.008621"
       r="8.6620579"
       gradientUnits="userSpaceOnUse" />
    <linearGradient
       inkscape:collect="always"
       id="linearGradient3104">
      <stop
         style="stop-color:#eeeeec;stop-opacity:1;"
         offset="0"
         id="stop3106" />
      <stop
         style="stop-color:#eeeeec;stop-opacity:0;"
         offset="1"
         id="stop3108" />
    </linearGradient>
    <radialGradient
       inkscape:collect="always"
       xlink:href="#linearGradient3104"
       id="radialGradient3114"
       cx="8.3343515"
       cy="14.186539"
       fx="8.3343515"
       fy="14.186539"
       r="9.975256"
       gradientUnits="userSpaceOnUse"
       gradientTransform="matrix(-0.9327,0.932656,-0.947494,-0.947449,33.02126,11.96667)" />
    <linearGradient
       inkscape:collect="always"
       xlink:href="#linearGradient3121"
       id="linearGradient1551"
       gradientUnits="userSpaceOnUse"
       x1="42.925175"
       y1="40.136646"
       x2="42.925175"
       y2="15.474488" />
  </defs>
  <sodipodi:namedview
     id="base"
     pagecolor="#ffffff"
     bordercolor="#666666"
     borderopacity="1.0"
     inkscape:pageopacity="0.0"
     inkscape:pageshadow="2"
     inkscape:zoom="12.003863"
     inkscape:cx="39.201403"
     inkscape:cy="23.251521"
     inkscape:document-units="px"
     inkscape:current-layer="layer1"
     showgrid="true"
     fill="#cc0000"
     inkscape:window-width="1267"
     inkscape:window-height="971"
     inkscape:window-x="6"
     inkscape:window-y="21" />
  <metadata
     id="metadata7">
    <rdf:RDF>
      <cc:Work
         rdf:about="">
        <dc:format>image/svg+xml</dc:format>
        <dc:type
           rdf:resource="http://purl.org/dc/dcmitype/StillImage" />
      </cc:Work>
    </rdf:RDF>
  </metadata>
  <g
     inkscape:label="Layer 1"
     inkscape:groupmode="layer"
     id="layer1">
    <path
       d="M 39.774755 19.008621 A 8.6620579 8.6620579 0 1 1  22.45064,19.008621 A 8.6620579 8.6620579 0 1 1  39.774755 19.008621 z"
       sodipodi:ry="8.6620579"
       sodipodi:rx="8.6620579"
       sodipodi:cy="19.008621"
       sodipodi:cx="31.112698"
       id="path4318"
       style="opacity:0.5;color:#000000;fill:url(#radialGradient3822);fill-opacity:1;fill-rule:evenodd;stroke:none;stroke-width:1px;stroke-linecap:round;stroke-linejoin:round;marker:none;marker-start:none;marker-mid:none;marker-end:none;stroke-miterlimit:4;stroke-dasharray:none;stroke-dashoffset:0;stroke-opacity:1;visibility:visible;display:inline;overflow:visible"
       sodipodi:type="arc"
       transform="matrix(2.383972,0,0,1.117487,-53.5217,33.04541)" />
    <path
       sodipodi:type="arc"
       style="opacity:1;fill:#edd400;fill-opacity:1;stroke:#f57900;stroke-width:0.53913006;stroke-miterlimit:4;stroke-dasharray:none;stroke-opacity:1"
       id="path1307"
       sodipodi:cx="11.806158"
       sodipodi:cy="10.983024"
       sodipodi:rx="9.975256"
       sodipodi:ry="9.975256"
       d="M 21.781414 10.983024 A 9.975256 9.975256 0 1 1  1.8309021,10.983024 A 9.975256 9.975256 0 1 1  21.781414 10.983024 z"
       transform="matrix(1.854646,0,0,1.855034,-0.899768,22.62707)" />
    <path
       sodipodi:type="arc"
       style="opacity:0.79545456;fill:url(#radialGradient3114);fill-opacity:1;stroke:none;stroke-width:1.05274069;stroke-miterlimit:4;stroke-dasharray:none;stroke-opacity:1"
       id="path3102"
       sodipodi:cx="11.806158"
       sodipodi:cy="10.983024"
       sodipodi:rx="9.975256"
       sodipodi:ry="9.975256"
       d="M 21.781414 10.983024 A 9.975256 9.975256 0 1 1  1.8309021,10.983024 A 9.975256 9.975256 0 1 1  21.781414 10.983024 z"
       transform="matrix(1.704217,0,0,1.704217,0.879746,24.28255)" />
    <path
       sodipodi:type="arc"
       style="opacity:0.5;fill:none;fill-opacity:1;stroke:#ffffff;stroke-width:0.57006598;stroke-miterlimit:4;stroke-dasharray:none;stroke-opacity:1"
       id="path2184"
       sodipodi:cx="11.806158"
       sodipodi:cy="10.983024"
       sodipodi:rx="9.975256"
       sodipodi:ry="9.975256"
       d="M 21.781414 10.983024 A 9.975256 9.975256 0 1 1  1.8309021,10.983024 A 9.975256 9.975256 0 1 1  21.781414 10.983024 z"
       transform="matrix(1.75441,0,0,1.753957,0.28417,23.73792)" />
    <path
       style="color:#000000;fill:#eeeeec;fill-opacity:1;fill-rule:evenodd;stroke:#787878;stroke-width:1;stroke-linecap:butt;stroke-linejoin:miter;marker:none;marker-start:none;marker-mid:none;marker-end:none;stroke-miterlimit:4;stroke-dashoffset:0;stroke-opacity:1;visibility:visible;display:inline;overflow:visible;stroke-dasharray:none"
       d="M 44.078659,9.5112136 C 34.84342,9.8834971 27.500059,15.977362 27.500059,23.405814 C 27.500059,27.671183 29.253586,32.180745 33.0662,34.729626 C 33.874807,38.292011 31.54507,41.058776 31.141507,41.494102 C 31.871844,41.290557 37.643487,39.670532 39.808221,37.260561 C 41.990193,37.168054 43.23089,37.300418 44.997262,37.300418 C 54.649949,37.300418 62.494467,31.073895 62.494465,23.405814 C 62.494465,15.737733 54.649949,9.5112136 44.997262,9.5112136 C 44.695616,9.5112136 44.37657,9.4992035 44.078659,9.5112136 z "
       id="path13316"
       sodipodi:nodetypes="cscccsssc" />
    <path
       sodipodi:type="inkscape:offset"
       inkscape:radius="-1.0020103"
       inkscape:original="M 44.09375 9.5 C 34.858511 9.8722838 27.5 15.977798 27.5 23.40625 C 27.5 27.67162 29.249886 32.169869 33.0625 34.71875 C 33.871107 38.281135 31.559813 41.064674 31.15625 41.5 C 31.886588 41.296455 37.647766 39.659971 39.8125 37.25 C 41.994473 37.157491 43.233628 37.3125 45 37.3125 C 54.652688 37.312499 62.500002 31.074331 62.5 23.40625 C 62.5 15.73817 54.652687 9.5 45 9.5 C 44.698355 9.5000003 44.391661 9.4879899 44.09375 9.5 z "
       xlink:href="#path13316"
       style="color:#000000;fill:none;fill-opacity:1;fill-rule:evenodd;stroke:none;stroke-width:1;stroke-linecap:butt;stroke-linejoin:miter;marker:none;marker-start:none;marker-mid:none;marker-end:none;stroke-miterlimit:4;stroke-dasharray:none;stroke-dashoffset:0;stroke-opacity:1;visibility:visible;display:inline;overflow:visible"
       id="path13323"
       inkscape:href="#path13316"
       d="M 43.9375,10.5 C 35.082559,10.856667 28.28125,16.643774 28.28125,23.4375 C 28.28125,27.441186 29.946384,31.636673 33.4375,33.96875 C 33.648247,34.117093 33.793739,34.340928 33.84375,34.59375 C 34.305353,36.625753 33.873291,38.418899 33.28125,39.75 C 33.741286,39.588469 33.859625,39.584381 34.375,39.375 C 36.123726,38.664548 38.008731,37.651133 38.875,36.6875 C 39.056781,36.478508 39.316956,36.354077 39.59375,36.34375 C 41.847992,36.248256 43.128683,36.40625 44.84375,36.40625 C 54.103198,36.406251 61.406252,30.447219 61.40625,23.4375 C 61.406249,16.427779 54.105354,10.5 44.84375,10.5 C 44.5143,10.499999 44.179676,10.490245 43.9375,10.5 z " />
    <path
       sodipodi:type="inkscape:offset"
       inkscape:radius="-1.0109046"
       inkscape:original="M 44.09375 9.5 C 34.858511 9.8722838 27.5 15.977798 27.5 23.40625 C 27.5 27.67162 29.249886 32.169869 33.0625 34.71875 C 33.871107 38.281135 31.559813 41.064674 31.15625 41.5 C 31.886588 41.296455 37.647766 39.659971 39.8125 37.25 C 41.994473 37.157491 43.233628 37.3125 45 37.3125 C 54.652688 37.312499 62.500002 31.074331 62.5 23.40625 C 62.5 15.73817 54.652687 9.5 45 9.5 C 44.698355 9.5000003 44.391661 9.4879899 44.09375 9.5 z "
       xlink:href="#path13316"
       style="opacity:1;color:#000000;fill:url(#linearGradient1551);fill-opacity:1;fill-rule:evenodd;stroke:#ffffff;stroke-width:1;stroke-linecap:butt;stroke-linejoin:miter;marker:none;marker-start:none;marker-mid:none;marker-end:none;stroke-miterlimit:4;stroke-dashoffset:0;stroke-opacity:1;visibility:visible;display:inline;overflow:visible;stroke-dasharray:none"
       id="path1336"
       inkscape:href="#path13316"
       d="M 43.9375,10.5 C 35.086269,10.856517 28.28125,16.649624 28.28125,23.4375 C 28.28125,27.43874 29.949375,31.638672 33.4375,33.96875 C 33.659358,34.111954 33.816384,34.336276 33.875,34.59375 C 34.337119,36.628026 33.873842,38.417659 33.28125,39.75 C 33.741161,39.588512 33.859781,39.584317 34.375,39.375 C 36.123195,38.664763 38.010688,37.617706 38.875,36.65625 C 39.06282,36.459679 39.321894,36.347038 39.59375,36.34375 C 41.848554,36.248232 43.129202,36.40625 44.84375,36.40625 C 54.099359,36.406251 61.406252,30.441153 61.40625,23.4375 C 61.406249,16.433845 54.101534,10.5 44.84375,10.5 C 44.514064,10.499999 44.17917,10.490265 43.9375,10.5 z " />
    <flowRoot
       xml:space="preserve"
       id="flowRoot2649"
       style="font-size:20px;font-style:normal;font-variant:normal;font-weight:bold;font-stretch:normal;text-align:start;line-height:100%;writing-mode:lr-tb;text-anchor:start;fill:#cc0000;font-family:Bitstream Charter"
       transform="matrix(1.41844,0,0,1.343101,-12.30498,-12.66081)"><flowRegion
         id="flowRegion2651"><rect
           id="rect2653"
           width="44.011906"
           height="42.819229"
           x="36.988094"
           y="20.180773"
           style="font-size:20px;font-style:normal;font-variant:normal;font-weight:bold;font-stretch:normal;text-align:start;line-height:100%;writing-mode:lr-tb;text-anchor:start;fill:#cc0000;font-family:Bitstream Charter" /></flowRegion><flowPara
         id="flowPara2655">!</flowPara></flowRoot>    <path
       sodipodi:type="arc"
       style="opacity:1;fill:#2e3436;fill-opacity:1;stroke:none;stroke-width:1;stroke-miterlimit:4;stroke-dasharray:none;stroke-opacity:1"
       id="path2193"
       sodipodi:cx="9.0598059"
       sodipodi:cy="8.7845774"
       sodipodi:rx="1.1679889"
       sodipodi:ry="1.4520943"
       d="M 10.227795 8.7845774 A 1.1679889 1.4520943 0 1 1  7.891817,8.7845774 A 1.1679889 1.4520943 0 1 1  10.227795 8.7845774 z"
       transform="matrix(1.712345,0,0,2.754643,9.486483,14.80163)" />
    <path
       sodipodi:type="arc"
       style="opacity:1;fill:#2e3436;fill-opacity:1;stroke:none;stroke-width:1;stroke-miterlimit:4;stroke-dasharray:none;stroke-opacity:1"
       id="path2191"
       sodipodi:cx="9.0598059"
       sodipodi:cy="8.7845774"
       sodipodi:rx="1.1679889"
       sodipodi:ry="1.4520943"
       d="M 10.227795 8.7845774 A 1.1679889 1.4520943 0 1 1  7.891817,8.7845774 A 1.1679889 1.4520943 0 1 1  10.227795 8.7845774 z"
       transform="matrix(1.712345,0,0,2.754643,1.486487,14.80163)" />
    <path
       sodipodi:type="arc"
       style="opacity:1;fill:#2e3436;fill-opacity:1;stroke:none;stroke-width:1;stroke-miterlimit:4;stroke-dasharray:none;stroke-opacity:1"
       id="path2251"
       sodipodi:cx="9.3754778"
       sodipodi:cy="13.4881"
       sodipodi:rx="6.1556172"
       sodipodi:ry="6.1556172"
       d="M 15.531095 13.4881 A 6.1556172 6.1556172 0 1 1  3.2198606,13.4881 A 6.1556172 6.1556172 0 1 1  15.531095 13.4881 z"
       transform="matrix(0.97472,0,0,0.812266,11.86154,41.04407)"
       inkscape:export-xdpi="90"
       inkscape:export-ydpi="90" />
  </g>
</svg>
