<?xml version="1.0" encoding="UTF-8" standalone="no"?>
<!-- Created with Inkscape (http://www.inkscape.org/) -->
<svg
   xmlns:dc="http://purl.org/dc/elements/1.1/"
   xmlns:cc="http://creativecommons.org/ns#"
   xmlns:rdf="http://www.w3.org/1999/02/22-rdf-syntax-ns#"
   xmlns:svg="http://www.w3.org/2000/svg"
   xmlns="http://www.w3.org/2000/svg"
   xmlns:xlink="http://www.w3.org/1999/xlink"
   xmlns:sodipodi="http://sodipodi.sourceforge.net/DTD/sodipodi-0.dtd"
   xmlns:inkscape="http://www.inkscape.org/namespaces/inkscape"
   width="22"
   height="22"
   id="svg4345"
   sodipodi:version="0.32"
   inkscape:version="0.46"
   sodipodi:docbase="/home/hbons/Desktop/Pidgin/2.1.0/icons/24/scalable"
   sodipodi:docname="pidgin.svg"
   inkscape:export-filename="/home/hbons/Bureaublad/pidgin16.png"
   inkscape:export-xdpi="90"
   inkscape:export-ydpi="90"
   version="1.0"
   inkscape:output_extension="org.inkscape.output.svg.inkscape">
  <defs
     id="defs4347">
    <linearGradient
       id="linearGradient8989"
       inkscape:collect="always">
      <stop
         id="stop8991"
         offset="0"
         style="stop-color:#ffffff;stop-opacity:0.81407034" />
      <stop
         id="stop8993"
         offset="1"
         style="stop-color:#eeeeec;stop-opacity:0;" />
    </linearGradient>
    <linearGradient
       inkscape:collect="always"
       id="linearGradient8838">
      <stop
         style="stop-color:#3b1941;stop-opacity:1;"
         offset="0"
         id="stop8840" />
      <stop
         style="stop-color:#3b1941;stop-opacity:0;"
         offset="1"
         id="stop8842" />
    </linearGradient>
    <linearGradient
       inkscape:collect="always"
       id="linearGradient8830">
      <stop
         style="stop-color:#3b1941;stop-opacity:1;"
         offset="0"
         id="stop8832" />
      <stop
         style="stop-color:#3b1941;stop-opacity:0;"
         offset="1"
         id="stop8834" />
    </linearGradient>
    <linearGradient
       inkscape:collect="always"
       id="linearGradient8776">
      <stop
         style="stop-color:#ffffff;stop-opacity:0.82412058"
         offset="0"
         id="stop8778" />
      <stop
         style="stop-color:#ffffff;stop-opacity:0"
         offset="1"
         id="stop8780" />
    </linearGradient>
    <linearGradient
       inkscape:collect="always"
       id="linearGradient8720">
      <stop
         style="stop-color:#fdc26a;stop-opacity:1"
         offset="0"
         id="stop8722" />
      <stop
         style="stop-color:#f57900;stop-opacity:1"
         offset="1"
         id="stop8724" />
    </linearGradient>
    <inkscape:perspective
       sodipodi:type="inkscape:persp3d"
       inkscape:vp_x="0 : 12 : 1"
       inkscape:vp_y="0 : 1000 : 0"
       inkscape:vp_z="24 : 12 : 1"
       inkscape:persp3d-origin="12 : 8 : 1"
       id="perspective97" />
    <linearGradient
       inkscape:collect="always"
       id="linearGradient3124">
      <stop
         style="stop-color:#3b1941;stop-opacity:1;"
         offset="0"
         id="stop3126" />
      <stop
         style="stop-color:#3b1941;stop-opacity:0;"
         offset="1"
         id="stop3128" />
    </linearGradient>
    <linearGradient
       inkscape:collect="always"
       id="linearGradient3116">
      <stop
         style="stop-color:#82508e;stop-opacity:1;"
         offset="0"
         id="stop3118" />
      <stop
         style="stop-color:#82508e;stop-opacity:0"
         offset="1"
         id="stop3120" />
    </linearGradient>
    <linearGradient
       inkscape:collect="always"
       id="linearGradient5438">
      <stop
         style="stop-color:white;stop-opacity:1;"
         offset="0"
         id="stop5440" />
      <stop
         style="stop-color:white;stop-opacity:0;"
         offset="1"
         id="stop5442" />
    </linearGradient>
    <linearGradient
       inkscape:collect="always"
       id="linearGradient6817">
      <stop
         style="stop-color:white;stop-opacity:1;"
         offset="0"
         id="stop6819" />
      <stop
         style="stop-color:white;stop-opacity:0;"
         offset="1"
         id="stop6821" />
    </linearGradient>
    <linearGradient
       inkscape:collect="always"
       id="linearGradient6537">
      <stop
         style="stop-color:white;stop-opacity:1;"
         offset="0"
         id="stop6539" />
      <stop
         style="stop-color:white;stop-opacity:0;"
         offset="1"
         id="stop6541" />
    </linearGradient>
    <linearGradient
       inkscape:collect="always"
       id="linearGradient6506">
      <stop
         style="stop-color:#eeeeec;stop-opacity:1;"
         offset="0"
         id="stop6508" />
      <stop
         style="stop-color:#eeeeec;stop-opacity:0;"
         offset="1"
         id="stop6510" />
    </linearGradient>
    <linearGradient
       id="linearGradient2804">
      <stop
         style="stop-color:black;stop-opacity:0;"
         offset="0"
         id="stop2806" />
      <stop
         id="stop2812"
         offset="0.5"
         style="stop-color:black;stop-opacity:1;" />
      <stop
         style="stop-color:black;stop-opacity:0;"
         offset="1"
         id="stop2808" />
    </linearGradient>
    <radialGradient
       inkscape:collect="always"
       xlink:href="#linearGradient25546"
       id="radialGradient25572"
       gradientUnits="userSpaceOnUse"
       gradientTransform="matrix(1,0,0,0.994693,0,4.16407e-2)"
       cx="7.8836637"
       cy="1.5104795"
       fx="7.8836637"
       fy="1.5104795"
       r="8.4883642" />
    <radialGradient
       inkscape:collect="always"
       xlink:href="#linearGradient25546"
       id="radialGradient25568"
       gradientUnits="userSpaceOnUse"
       gradientTransform="matrix(1,0,0,0.994693,0,4.16407e-2)"
       cx="7.8836741"
       cy="0.14505707"
       fx="7.8836741"
       fy="0.14505707"
       r="8.4883642" />
    <linearGradient
       inkscape:collect="always"
       id="linearGradient25546">
      <stop
         style="stop-color:white;stop-opacity:1;"
         offset="0"
         id="stop25548" />
      <stop
         style="stop-color:white;stop-opacity:0;"
         offset="1"
         id="stop25550" />
    </linearGradient>
    <radialGradient
       inkscape:collect="always"
       xlink:href="#linearGradient25546"
       id="radialGradient25554"
       cx="7.8836637"
       cy="2.6242435"
       fx="7.8836637"
       fy="2.6242435"
       r="8.4883642"
       gradientTransform="matrix(1.131317,0,0,1.125313,-1.035262,-0.301139)"
       gradientUnits="userSpaceOnUse" />
    <linearGradient
       id="linearGradient3800">
      <stop
         style="stop-color:#f4d9b1;stop-opacity:1.0000000;"
         offset="0.0000000"
         id="stop3802" />
      <stop
         style="stop-color:#df9725;stop-opacity:1.0000000;"
         offset="1.0000000"
         id="stop3804" />
    </linearGradient>
    <linearGradient
       inkscape:collect="always"
       xlink:href="#linearGradient8989"
       id="linearGradient6512"
       x1="15.242517"
       y1="38.888657"
       x2="15.712908"
       y2="42.28862"
       gradientUnits="userSpaceOnUse"
       gradientTransform="matrix(0.657666,0,0,0.625853,-1.1715312,-5.3010586)" />
    <linearGradient
       inkscape:collect="always"
       xlink:href="#linearGradient6817"
       id="linearGradient6823"
       x1="0.23931108"
       y1="38.950283"
       x2="5.7089725"
       y2="42.982571"
       gradientUnits="userSpaceOnUse" />
    <linearGradient
       inkscape:collect="always"
       xlink:href="#linearGradient5438"
       id="linearGradient5444"
       x1="30.152058"
       y1="-0.86487341"
       x2="30.152058"
       y2="23.011967"
       gradientUnits="userSpaceOnUse" />
    <linearGradient
       gradientUnits="userSpaceOnUse"
       y2="44.272076"
       x2="5.5366187"
       y1="39.902092"
       x1="-1.6841649"
       id="linearGradient6569"
       xlink:href="#linearGradient6563"
       inkscape:collect="always" />
    <linearGradient
       gradientUnits="userSpaceOnUse"
       y2="23.559282"
       x2="30.5"
       y1="0.033532728"
       x1="30.5"
       id="linearGradient2089"
       xlink:href="#linearGradient6537"
       inkscape:collect="always" />
    <linearGradient
       gradientUnits="userSpaceOnUse"
       y2="50.079575"
       x2="14.943421"
       y1="39.743458"
       x1="15.645709"
       id="linearGradient2087"
       xlink:href="#linearGradient6506"
       inkscape:collect="always" />
    <linearGradient
       id="linearGradient2081">
      <stop
         id="stop2083"
         offset="0.0000000"
         style="stop-color:#f4d9b1;stop-opacity:1.0000000;" />
      <stop
         id="stop2085"
         offset="1.0000000"
         style="stop-color:#df9725;stop-opacity:1.0000000;" />
    </linearGradient>
    <radialGradient
       gradientUnits="userSpaceOnUse"
       gradientTransform="matrix(1.131317,0,0,1.125313,-1.035262,-0.301139)"
       r="8.4883642"
       fy="2.6242435"
       fx="7.8836637"
       cy="2.6242435"
       cx="7.8836637"
       id="radialGradient2079"
       xlink:href="#linearGradient25546"
       inkscape:collect="always" />
    <radialGradient
       r="8.4883642"
       fy="0.14505707"
       fx="7.8836741"
       cy="0.14505707"
       cx="7.8836741"
       gradientTransform="matrix(1,0,0,0.994693,0,4.16407e-2)"
       gradientUnits="userSpaceOnUse"
       id="radialGradient2071"
       xlink:href="#linearGradient25546"
       inkscape:collect="always" />
    <radialGradient
       r="8.4883642"
       fy="1.5104795"
       fx="7.8836637"
       cy="1.5104795"
       cx="7.8836637"
       gradientTransform="matrix(1,0,0,0.994693,0,4.16407e-2)"
       gradientUnits="userSpaceOnUse"
       id="radialGradient2069"
       xlink:href="#linearGradient25546"
       inkscape:collect="always" />
    <linearGradient
       id="linearGradient2061">
      <stop
         id="stop2063"
         offset="0"
         style="stop-color:black;stop-opacity:0;" />
      <stop
         style="stop-color:black;stop-opacity:1;"
         offset="0.5"
         id="stop2065" />
      <stop
         id="stop2067"
         offset="1"
         style="stop-color:black;stop-opacity:0;" />
    </linearGradient>
    <linearGradient
       id="linearGradient6563"
       inkscape:collect="always">
      <stop
         id="stop6565"
         offset="0"
         style="stop-color:white;stop-opacity:1;" />
      <stop
         id="stop6567"
         offset="1"
         style="stop-color:white;stop-opacity:0;" />
    </linearGradient>
    <linearGradient
       id="linearGradient2850"
       inkscape:collect="always">
      <stop
         id="stop2852"
         offset="0"
         style="stop-color:#ce5c00;stop-opacity:1;" />
      <stop
         id="stop2854"
         offset="1"
         style="stop-color:#ce5c00;stop-opacity:0;" />
    </linearGradient>
    <linearGradient
       id="linearGradient3958"
       inkscape:collect="always">
      <stop
         id="stop3960"
         offset="0"
         style="stop-color:#eeeeec;stop-opacity:1;" />
      <stop
         id="stop3962"
         offset="1"
         style="stop-color:#eeeeec;stop-opacity:0;" />
    </linearGradient>
    <linearGradient
       id="linearGradient3968"
       inkscape:collect="always">
      <stop
         id="stop3970"
         offset="0"
         style="stop-color:#82508e;stop-opacity:1;" />
      <stop
         id="stop3972"
         offset="1"
         style="stop-color:#82508e;stop-opacity:0;" />
    </linearGradient>
    <linearGradient
       id="linearGradient3976"
       inkscape:collect="always">
      <stop
         id="stop3978"
         offset="0"
         style="stop-color:#3b1941;stop-opacity:1;" />
      <stop
         id="stop3980"
         offset="1"
         style="stop-color:#3b1941;stop-opacity:0;" />
    </linearGradient>
    <linearGradient
       inkscape:collect="always"
       xlink:href="#linearGradient2850"
       id="linearGradient2149"
       gradientUnits="userSpaceOnUse"
       gradientTransform="matrix(0.769231,0,0,0.714287,-34.23081,-12.28573)"
       x1="21.785719"
       y1="28.142857"
       x2="17.785713"
       y2="30.07143" />
    <radialGradient
       inkscape:collect="always"
       xlink:href="#linearGradient3958"
       id="radialGradient2191"
       gradientUnits="userSpaceOnUse"
       gradientTransform="matrix(1.116159,0,0,1.076653,-36.39499,-20.28695)"
       cx="9.0640488"
       cy="21.511742"
       fx="9.0640488"
       fy="21.511742"
       r="16.663956" />
    <linearGradient
       inkscape:collect="always"
       xlink:href="#linearGradient6506"
       id="linearGradient2193"
       gradientUnits="userSpaceOnUse"
       x1="15.645709"
       y1="39.743458"
       x2="15.645709"
       y2="53.502155"
       gradientTransform="matrix(0.660903,0,0,0.627207,-32.26852,-10.3201)" />
    <linearGradient
       inkscape:collect="always"
       xlink:href="#linearGradient3968"
       id="linearGradient2196"
       gradientUnits="userSpaceOnUse"
       x1="16.13257"
       y1="40.781811"
       x2="16.13257"
       y2="48.068741"
       gradientTransform="matrix(0.67692,0,0,0.646801,-32.53568,-10.90841)" />
    <linearGradient
       inkscape:collect="always"
       xlink:href="#linearGradient3976"
       id="linearGradient2198"
       gradientUnits="userSpaceOnUse"
       x1="12.095973"
       y1="40.907658"
       x2="12.095973"
       y2="46.463146"
       gradientTransform="matrix(0.67692,0,0,0.646801,-32.53568,-10.90841)" />
    <linearGradient
       inkscape:collect="always"
       xlink:href="#linearGradient6537"
       id="linearGradient2201"
       gradientUnits="userSpaceOnUse"
       x1="30.5"
       y1="0.033532728"
       x2="30.5"
       y2="23.559282"
       gradientTransform="matrix(0.668893,0,0,0.668627,-32.91377,-10.19246)" />
    <linearGradient
       inkscape:collect="always"
       xlink:href="#linearGradient3124"
       id="linearGradient3130"
       x1="12.027549"
       y1="36.059811"
       x2="12.561858"
       y2="42.352577"
       gradientUnits="userSpaceOnUse"
       gradientTransform="matrix(0.6753496,0,0,0.6455349,-1.5092027,-5.891953)" />
    <linearGradient
       inkscape:collect="always"
       xlink:href="#linearGradient5438"
       id="linearGradient2848"
       gradientUnits="userSpaceOnUse"
       x1="30.152058"
       y1="-0.86487341"
       x2="30.152058"
       y2="23.011967" />
    <linearGradient
       inkscape:collect="always"
       xlink:href="#linearGradient8720"
       id="linearGradient8726"
       x1="12.806054"
       y1="16.65247"
       x2="13.166923"
       y2="16.608501"
       gradientUnits="userSpaceOnUse"
       gradientTransform="translate(-0.9999997,-1)" />
    <linearGradient
       inkscape:collect="always"
       xlink:href="#linearGradient3116"
       id="linearGradient8774"
       x1="10.386011"
       y1="19.281519"
       x2="10.624538"
       y2="22.99383"
       gradientUnits="userSpaceOnUse"
       gradientTransform="translate(-0.9999997,-1)" />
    <radialGradient
       inkscape:collect="always"
       xlink:href="#linearGradient8776"
       id="radialGradient8782"
       cx="11.763939"
       cy="12.831866"
       fx="11.763939"
       fy="12.831866"
       r="9.5"
       gradientTransform="matrix(1.5913256,-4.8823489e-2,2.9994878e-2,0.9776358,-7.9422346,1.036439e-2)"
       gradientUnits="userSpaceOnUse" />
    <filter
       inkscape:collect="always"
       id="filter8810"
       x="-0.066766478"
       width="1.133533"
       y="-0.10563155"
       height="1.2112631">
      <feGaussianBlur
         inkscape:collect="always"
         stdDeviation="0.30534121"
         id="feGaussianBlur8812" />
    </filter>
    <linearGradient
       inkscape:collect="always"
       xlink:href="#linearGradient8830"
       id="linearGradient8836"
       x1="6.3341951"
       y1="3.1008458"
       x2="0.83419508"
       y2="3.1008458"
       gradientUnits="userSpaceOnUse"
       gradientTransform="translate(-0.9999997,-1)" />
    <linearGradient
       inkscape:collect="always"
       xlink:href="#linearGradient8838"
       id="linearGradient8844"
       x1="9.5704832"
       y1="3.0778286"
       x2="3.0625"
       y2="-0.047171354"
       gradientUnits="userSpaceOnUse"
       gradientTransform="translate(-0.9999997,-1)" />
    <filter
       inkscape:collect="always"
       id="filter9040"
       x="-0.095484518"
       width="1.190969"
       y="-0.32181817"
       height="1.6436363">
      <feGaussianBlur
         inkscape:collect="always"
         stdDeviation="0.22627841"
         id="feGaussianBlur9042" />
    </filter>
  </defs>
  <sodipodi:namedview
     id="base"
     pagecolor="#ffffff"
     bordercolor="#666666"
     borderopacity="1.0"
     inkscape:pageopacity="0.0"
     inkscape:pageshadow="2"
     inkscape:zoom="11.313709"
     inkscape:cx="1.4710034"
     inkscape:cy="17.030859"
     inkscape:current-layer="layer1"
     showgrid="true"
     inkscape:grid-bbox="true"
     inkscape:document-units="px"
     inkscape:window-width="1440"
     inkscape:window-height="847"
     inkscape:window-x="0"
     inkscape:window-y="0"
     showguides="true"
     inkscape:guide-bbox="true"
     inkscape:grid-points="false"
     width="24px"
     height="24px"
     inkscape:object-bbox="true"
     inkscape:snap-bbox="true"
     inkscape:snap-nodes="false"
     objecttolerance="10"
     gridtolerance="10">
    <inkscape:grid
       type="xygrid"
       id="grid7936"
       visible="true"
       enabled="true" />
  </sodipodi:namedview>
  <metadata
     id="metadata4350">
    <rdf:RDF>
      <cc:Work
         rdf:about="">
        <dc:format>image/svg+xml</dc:format>
        <dc:type
           rdf:resource="http://purl.org/dc/dcmitype/StillImage" />
      </cc:Work>
    </rdf:RDF>
  </metadata>
  <g
     id="layer1"
     inkscape:label="Layer 1"
     inkscape:groupmode="layer">
    <path
       style="fill:url(#linearGradient8844);fill-opacity:1;stroke:none;stroke-width:1;stroke-miterlimit:4;stroke-opacity:1"
       d="M 4.9454833,0.97311419 C 6.2174453,-1.3471373 9.0000003,0.90935069 9.0000003,3.2806574 L 7.9545253,3.1947658 C 7.9545253,1.9993751 6.9505391,0.71712119 4.9454833,0.97311419 z"
       id="rect5189"
       sodipodi:nodetypes="cccc" />
    <path
       style="fill:url(#linearGradient8836);fill-opacity:1;stroke:none;stroke-width:1;stroke-miterlimit:4;stroke-opacity:1"
       d="M 2.3349141,2.782206 C 2.2763398,0.13682819 5.8143473,0.69972649 7.0000003,2.7533385 L 6.0516463,3.2016918 C 5.4539518,2.1664528 3.943347,1.5579816 2.3349141,2.782206 z"
       id="path8784"
       sodipodi:nodetypes="cccc"
       inkscape:transform-center-x="1.7235728"
       inkscape:transform-center-y="-0.24306796" />
    <path
       style="opacity:1;fill:url(#linearGradient8774);fill-opacity:1;stroke:url(#linearGradient3130);stroke-width:0.99999994;stroke-miterlimit:4;stroke-dasharray:none;stroke-opacity:1"
       d="M 8.6210411,2.5 C 4.147524,2.5 0.51684599,6.1149956 0.51684599,10.569186 C 0.51684599,14.218486 0.54396969,20.481174 2.5225947,22.427658 C 3.3245647,22.427658 17.364363,23.544826 19.181729,23.544826 C 20.609503,23.544826 20.497963,22.215283 20.497963,22.215283 C 20.497963,21.576692 20.033908,20.976237 19.388647,20.409004 C 18.29532,19.447887 16.920241,18.83089 15.923902,17.787899 C 14.927563,16.744908 16.049886,13.796859 16.049886,13.796859 C 16.482992,12.809319 16.549357,11.846972 16.549357,10.701094 C 16.549357,6.2469039 13.094559,2.5 8.6210411,2.5 z"
       id="path5176"
       sodipodi:nodetypes="ccccsszcsc" />
    <path
       style="opacity:0.5;fill:url(#radialGradient8782);fill-opacity:1;stroke:url(#linearGradient6512);stroke-width:1;stroke-miterlimit:4;stroke-dasharray:none;stroke-opacity:1"
       d="M 8.6934593,3.5 C 4.7393763,3.5 1.5110858,6.6765676 1.5002368,10.638635 C 1.5002188,10.645318 1.4997128,10.651527 1.5002368,10.658194 C 1.5002368,15.219081 1.4988558,19.806087 3.3856818,22.549325 C 4.6593063,22.549325 13.594567,22.530678 17.426112,22.530678 C 18.193745,22.530678 19.5,22.846154 19.5,21.929553 C 19.5,21.790774 19.36863,21.529834 19.00675,21.20591 C 18.64487,20.881986 18.103616,20.534156 17.50645,20.188899 C 15.708853,19.449743 14.460748,18.238726 14.399921,16.277317 C 14.480347,14.30249 15.649061,12.948626 15.512942,10.768117 C 15.512942,6.7967072 12.65421,3.5 8.6934593,3.5 z"
       id="path5241"
       sodipodi:nodetypes="cscccsscccc" />
    <path
       sodipodi:type="inkscape:offset"
       inkscape:radius="0.97252291"
       inkscape:original="M 7.15625 8 C 5.7694225 8 4.9999998 9.5395554 5 10.96875 C 5 12.613363 6.1444228 13.96875 7.53125 13.96875 C 8.5432599 13.96875 10.03125 12.832113 10.03125 11.1875 C 10.03125 9.8881973 8.5430781 8 7.15625 8 z "
       style="opacity:1;fill:#9757a4;fill-opacity:1;stroke:none;stroke-width:1;stroke-miterlimit:4;stroke-opacity:1"
       id="path8816"
       d="M 7.15625,7.03125 C 6.1029614,7.03125 5.2431984,7.6462575 4.75,8.40625 C 4.2568016,9.1662425 4.0312499,10.07963 4.03125,10.96875 C 4.03125,13.064524 5.5107726,14.9375 7.53125,14.9375 C 8.4013507,14.9375 9.1895212,14.517728 9.84375,13.875 C 10.497979,13.232272 11,12.303108 11,11.1875 C 11,10.166552 10.509035,9.2426793 9.84375,8.46875 C 9.1784648,7.6948207 8.2910346,7.03125 7.15625,7.03125 z"
       transform="translate(-1.9999997,-0.9375)" />
    <path
       style="opacity:1;fill:#ffffff;fill-opacity:1;stroke:none;stroke-width:1;stroke-miterlimit:4;stroke-opacity:1"
       d="M 8.0000003,10.217568 C 8.0000003,11.873569 6.5163587,13 5.5156252,13 C 4.1442507,13 3.0312508,11.656001 3.0312508,10 C 3.0312508,8.5609094 3.7942,7 5.1655747,7 C 6.5369499,7 8.0000003,8.9092687 8.0000003,10.217568 z"
       id="path5157"
       sodipodi:nodetypes="csssc" />
    <path
       sodipodi:type="arc"
       style="opacity:1;fill:#5c3566;fill-opacity:1;stroke:none;stroke-width:1;stroke-miterlimit:4;stroke-dasharray:none;stroke-opacity:1"
       id="path5162"
       sodipodi:cx="10.169642"
       sodipodi:cy="24.3125"
       sodipodi:rx="1.2410715"
       sodipodi:ry="1.2946428"
       d="M 11.410714,24.3125 A 1.2410715,1.2946428 0 1 1 8.928571,24.3125 A 1.2410715,1.2946428 0 1 1 11.410714,24.3125 z"
       transform="matrix(1.1960429,0,0,1.158621,-6.678954,-17.575223)" />
    <path
       sodipodi:type="inkscape:offset"
       inkscape:radius="1.0018603"
       inkscape:original="M 15.375 8 C 14.972613 8.0219165 14.616322 8.2670758 14.40625 8.59375 C 13.830495 9.4890789 13.873243 11.039266 14.53125 12.0625 C 15.103067 12.951704 16.049246 13.426577 16.625 12.53125 C 17.200756 11.635921 17.051098 9.4958908 16.53125 8.6875 C 16.202247 8.1758836 15.777387 7.9780835 15.375 8 z "
       style="fill:#9757a4;fill-opacity:1;stroke:none;stroke-width:1;stroke-miterlimit:4;stroke-opacity:1"
       id="path8820"
       d="M 15.3125,7 C 14.537055,7.0422356 13.927975,7.4941649 13.5625,8.0625 C 12.689986,9.4193046 12.791183,11.199932 13.6875,12.59375 C 14.065497,13.181554 14.559478,13.713455 15.28125,13.9375 C 16.003022,14.161545 17.002245,13.787939 17.46875,13.0625 C 17.974403,12.276184 18.035404,11.401604 18,10.53125 C 17.964596,9.6608958 17.828805,8.8619408 17.375,8.15625 C 16.897304,7.4134085 16.079992,6.9581976 15.3125,7 z"
       transform="translate(-0.9999997,-1)" />
    <path
       style="fill:#ffffff;fill-opacity:1;stroke:none;stroke-width:1;stroke-miterlimit:4;stroke-opacity:1"
       d="M 15.540313,7.6790592 C 14.882307,6.6558262 13.811834,6.9284344 13.39169,7.5817827 C 12.815935,8.4771112 12.882691,10.034204 13.540698,11.057438 C 14.112515,11.946642 15.05305,12.413012 15.628804,11.517685 C 16.204559,10.622356 16.060161,8.48745 15.540313,7.6790592 z"
       id="path3134"
       sodipodi:nodetypes="csssc" />
    <path
       sodipodi:type="arc"
       style="fill:#5c3566;fill-opacity:1;stroke:none;stroke-width:1;stroke-miterlimit:4;stroke-dasharray:none;stroke-opacity:1"
       id="path3136"
       sodipodi:cx="10.169642"
       sodipodi:cy="24.3125"
       sodipodi:rx="1.2410715"
       sodipodi:ry="1.2946428"
       d="M 11.410714,24.3125 A 1.2410715,1.2946428 0 1 1 8.928571,24.3125 A 1.2410715,1.2946428 0 1 1 11.410714,24.3125 z"
       transform="matrix(0.8057553,0,0,1.158621,5.8057571,-17.668973)" />
    <path
       style="fill:#5c3566;fill-opacity:1;stroke:none;stroke-width:1.0283047;stroke-miterlimit:4;stroke-opacity:1;filter:url(#filter8810)"
       d="M 11.59375,11.4375 C 11.222391,11.4375 10.952722,11.697732 10.8125,11.90625 C 10.672278,12.114768 10.591589,12.333559 10.5,12.5625 C 10.316822,13.020382 10.132944,13.51781 9.8750003,13.875 C 9.6170563,14.23219 9.3545053,14.452654 8.8437503,14.46875 C 8.3329957,14.484846 7.5004315,14.240041 6.2812503,13.4375 C 6.0585986,13.276718 5.7521743,13.30128 5.5579775,13.495477 C 5.3637807,13.689674 5.3392179,13.996098 5.5000003,14.21875 C 6.2056345,15.27546 7.2639194,16.5841 8.6406253,17.40625 C 9.3289783,17.817325 10.432979,18.087337 11.015625,18.34375 C 11.598271,18.600163 11.941819,18.5625 12.40625,18.5625 C 12.927105,18.5625 13.262855,18.263825 13.625,17.9375 C 13.987145,17.611175 14.366757,17.201439 14.71875,16.75 C 15.422736,15.847123 16.063583,14.803499 16.4375,14.1875 C 16.548363,13.941092 16.467317,13.65066 16.244886,13.49726 C 16.022454,13.343859 15.722179,13.37131 15.53125,13.5625 C 14.91539,14.324047 14.537809,14.447586 14.34375,14.4375 C 14.149691,14.427414 13.901069,14.263025 13.625,13.875 C 13.348931,13.486975 13.076271,12.963561 12.8125,12.5 C 12.680615,12.26822 12.545778,12.036007 12.375,11.84375 C 12.204222,11.651493 11.96049,11.4375 11.59375,11.4375 z"
       id="path8770"
       sodipodi:nodetypes="csssscscssssscscssssc" />
    <path
       sodipodi:type="inkscape:offset"
       inkscape:radius="0.63276428"
       inkscape:original="M 10.5 14 C 10.223 14 10 14.223 10 14.5 C 10 14.777 10.223 15 10.5 15 L 11.5 15 C 11.777 15 12 14.777 12 14.5 C 12 14.223 11.777 14 11.5 14 L 10.5 14 z M 13.5 14 C 13.223 14 13 14.223 13 14.5 C 13 14.777 13.223 15 13.5 15 L 14.5 15 C 14.777 15 15 14.777 15 14.5 C 15 14.223 14.777 14 14.5 14 L 13.5 14 z "
       style="fill:#5c3566;fill-opacity:1;stroke:none;stroke-width:1;stroke-miterlimit:4;stroke-dasharray:none;stroke-opacity:1;filter:url(#filter9040)"
       id="path8998"
       d="M 10.5,13.375 C 9.8833937,13.375 9.375,13.883394 9.375,14.5 C 9.375,15.116606 9.8833937,15.625 10.5,15.625 L 11.5,15.625 C 11.997417,15.625 12.351557,15.26606 12.5,14.8125 C 12.648443,15.26606 13.002583,15.625 13.5,15.625 L 14.5,15.625 C 15.116606,15.625 15.625,15.116606 15.625,14.5 C 15.625,13.883394 15.116606,13.375 14.5,13.375 L 13.5,13.375 C 13.002583,13.375 12.648443,13.73394 12.5,14.1875 C 12.351557,13.73394 11.997417,13.375 11.5,13.375 L 10.5,13.375 z"
       transform="translate(-0.9999997,-1)" />
    <path
       style="fill:#eeeeec;fill-opacity:1;stroke:none;stroke-width:1;stroke-miterlimit:4;stroke-dasharray:none;stroke-opacity:1"
       d="M 9.0000003,13 C 9.0000003,13 9.0000003,14 9.0000003,14 L 10.5,14 C 10.777,14 11,13.777 11,13.5 C 11,13.223 10.777,13 10.5,13 L 9.0000003,13 z M 12.5,13 C 12.223,13 12,13.223 12,13.5 C 12,13.777 12.223,14 12.5,14 L 14.03125,14 C 14.03125,14 14.03125,13.168014 14.03125,13 L 12.5,13 z"
       id="rect3140"
       sodipodi:nodetypes="cccscccscccc" />
    <path
       style="fill:url(#linearGradient8726);fill-opacity:1;stroke:none;stroke-width:1.0283047;stroke-miterlimit:4;stroke-opacity:1"
       d="M 6.0099235,13.992875 C 11.098435,17.088335 10.605646,12 11.595061,12 C 12.606375,12 13.291899,17.201991 15.965729,13.895644 C 15.545386,15.431071 13.354137,18.011297 12.404539,18.011297 C 11.44425,18.011297 8.0625819,17.378283 6.0099235,13.992875 z"
       id="path3142"
       sodipodi:nodetypes="czczc" />
  </g>
</svg>
