<?xml version="1.0" encoding="UTF-8" standalone="no"?>
<!-- Created with Inkscape (http://www.inkscape.org/) -->
<svg
   xmlns:dc="http://purl.org/dc/elements/1.1/"
   xmlns:cc="http://creativecommons.org/ns#"
   xmlns:rdf="http://www.w3.org/1999/02/22-rdf-syntax-ns#"
   xmlns:svg="http://www.w3.org/2000/svg"
   xmlns="http://www.w3.org/2000/svg"
   xmlns:xlink="http://www.w3.org/1999/xlink"
   xmlns:sodipodi="http://sodipodi.sourceforge.net/DTD/sodipodi-0.dtd"
   xmlns:inkscape="http://www.inkscape.org/namespaces/inkscape"
   width="16"
   height="16"
   id="svg4345"
   sodipodi:version="0.32"
   inkscape:version="0.46"
   sodipodi:docbase="/home/hbons/Desktop/Pidgin/2.1.0/icons/24/scalable"
   sodipodi:docname="pidgin.svg"
   inkscape:export-filename="/home/hbons/Bureaublad/pidgin16-4.png"
   inkscape:export-xdpi="90"
   inkscape:export-ydpi="90"
   version="1.0"
   inkscape:output_extension="org.inkscape.output.svg.inkscape">
  <defs
     id="defs4347">
    <linearGradient
       id="linearGradient8739"
       inkscape:collect="always">
      <stop
         id="stop8741"
         offset="0"
         style="stop-color:#602869;stop-opacity:1" />
      <stop
         id="stop8743"
         offset="1"
         style="stop-color:#3b1941;stop-opacity:0;" />
    </linearGradient>
    <linearGradient
       inkscape:collect="always"
       id="linearGradient8760">
      <stop
         style="stop-color:#3b1941;stop-opacity:1;"
         offset="0"
         id="stop8762" />
      <stop
         style="stop-color:#3b1941;stop-opacity:0;"
         offset="1"
         id="stop8764" />
    </linearGradient>
    <linearGradient
       id="linearGradient8989"
       inkscape:collect="always">
      <stop
         id="stop8991"
         offset="0"
         style="stop-color:#ffffff;stop-opacity:1" />
      <stop
         id="stop8993"
         offset="1"
         style="stop-color:#eeeeec;stop-opacity:0;" />
    </linearGradient>
    <linearGradient
       inkscape:collect="always"
       id="linearGradient8776">
      <stop
         style="stop-color:#ffffff;stop-opacity:0.82412058"
         offset="0"
         id="stop8778" />
      <stop
         style="stop-color:#ffffff;stop-opacity:0"
         offset="1"
         id="stop8780" />
    </linearGradient>
    <linearGradient
       inkscape:collect="always"
       id="linearGradient8720">
      <stop
         style="stop-color:#fdc26a;stop-opacity:1"
         offset="0"
         id="stop8722" />
      <stop
         style="stop-color:#f57900;stop-opacity:1"
         offset="1"
         id="stop8724" />
    </linearGradient>
    <linearGradient
       inkscape:collect="always"
       id="linearGradient3124">
      <stop
         style="stop-color:#3b1941;stop-opacity:1;"
         offset="0"
         id="stop3126" />
      <stop
         style="stop-color:#3b1941;stop-opacity:0;"
         offset="1"
         id="stop3128" />
    </linearGradient>
    <linearGradient
       inkscape:collect="always"
       id="linearGradient3116">
      <stop
         style="stop-color:#894599;stop-opacity:1"
         offset="0"
         id="stop3118" />
      <stop
         style="stop-color:#82508e;stop-opacity:0"
         offset="1"
         id="stop3120" />
    </linearGradient>
    <linearGradient
       inkscape:collect="always"
       xlink:href="#linearGradient8989"
       id="linearGradient6512"
       x1="15.242517"
       y1="38.066795"
       x2="15.242517"
       y2="42.163002"
       gradientUnits="userSpaceOnUse"
       gradientTransform="matrix(0.474981,0,0,0.4591462,0.5705609,-3.9567446)" />
    <linearGradient
       inkscape:collect="always"
       xlink:href="#linearGradient3124"
       id="linearGradient3130"
       x1="12.561858"
       y1="39.998802"
       x2="12.561858"
       y2="42.352577"
       gradientUnits="userSpaceOnUse"
       gradientTransform="matrix(0.5069392,0,0,0.4907885,-2.0817467e-2,-4.88025)" />
    <linearGradient
       inkscape:collect="always"
       xlink:href="#linearGradient8720"
       id="linearGradient8726"
       x1="12.806054"
       y1="16.65247"
       x2="13.166923"
       y2="16.608501"
       gradientUnits="userSpaceOnUse"
       gradientTransform="matrix(0.8035512,0,0,0.6654138,-0.6991237,0.3717176)" />
    <linearGradient
       inkscape:collect="always"
       xlink:href="#linearGradient3116"
       id="linearGradient8774"
       x1="10.624538"
       y1="19.264456"
       x2="10.624538"
       y2="23.165424"
       gradientUnits="userSpaceOnUse"
       gradientTransform="matrix(0.7506322,0,0,0.7602819,0.3614067,-1.1609868)" />
    <radialGradient
       inkscape:collect="always"
       xlink:href="#linearGradient8776"
       id="radialGradient8782"
       cx="11.539145"
       cy="11.774944"
       fx="11.539145"
       fy="11.774944"
       r="9.5"
       gradientTransform="matrix(1.1492907,-3.5818508e-2,2.1662967e-2,0.7172256,-4.3193915,-6.011096e-2)"
       gradientUnits="userSpaceOnUse" />
    <filter
       inkscape:collect="always"
       id="filter9040"
       x="-0.095484518"
       width="1.190969"
       y="-0.32181817"
       height="1.6436363">
      <feGaussianBlur
         inkscape:collect="always"
         stdDeviation="0.22627841"
         id="feGaussianBlur9042" />
    </filter>
    <filter
       inkscape:collect="always"
       id="filter8756"
       x="-0.067594799"
       width="1.1351896"
       y="-0.12311285"
       height="1.2462257">
      <feGaussianBlur
         inkscape:collect="always"
         stdDeviation="0.25007298"
         id="feGaussianBlur8758" />
    </filter>
    <linearGradient
       inkscape:collect="always"
       xlink:href="#linearGradient8760"
       id="linearGradient8766"
       x1="10.025534"
       y1="24.3125"
       x2="12.26086"
       y2="24.3125"
       gradientUnits="userSpaceOnUse" />
    <linearGradient
       inkscape:collect="always"
       xlink:href="#linearGradient8739"
       id="linearGradient8816"
       gradientUnits="userSpaceOnUse"
       gradientTransform="matrix(1.2058295,0,0,3.3872105,-0.5868595,-0.5305442)"
       x1="6.6287227"
       y1="0.48644698"
       x2="0.44665223"
       y2="1.4697748" />
    <linearGradient
       inkscape:collect="always"
       xlink:href="#linearGradient8760"
       id="linearGradient8735"
       gradientUnits="userSpaceOnUse"
       x1="9.778717"
       y1="24.3125"
       x2="12.178589"
       y2="24.3125" />
  </defs>
  <sodipodi:namedview
     id="base"
     pagecolor="#ffffff"
     bordercolor="#666666"
     borderopacity="1.0"
     inkscape:pageopacity="0.0"
     inkscape:pageshadow="2"
     inkscape:zoom="32"
     inkscape:cx="17.336548"
     inkscape:cy="7.0248271"
     inkscape:current-layer="layer1"
     showgrid="true"
     inkscape:grid-bbox="true"
     inkscape:document-units="px"
     inkscape:window-width="1440"
     inkscape:window-height="847"
     inkscape:window-x="0"
     inkscape:window-y="0"
     showguides="true"
     inkscape:guide-bbox="true"
     inkscape:grid-points="false"
     width="24px"
     height="24px"
     inkscape:object-bbox="true"
     inkscape:snap-bbox="true"
     inkscape:snap-nodes="false"
     objecttolerance="10"
     gridtolerance="10">
    <inkscape:grid
       type="xygrid"
       id="grid7936"
       visible="true"
       enabled="true" />
  </sodipodi:namedview>
  <metadata
     id="metadata4350">
    <rdf:RDF>
      <cc:Work
         rdf:about="">
        <dc:format>image/svg+xml</dc:format>
        <dc:type
           rdf:resource="http://purl.org/dc/dcmitype/StillImage" />
      </cc:Work>
    </rdf:RDF>
  </metadata>
  <g
     id="layer1"
     inkscape:label="Layer 1"
     inkscape:groupmode="layer">
    <path
       style="opacity:1;fill:none;fill-rule:evenodd;stroke:url(#linearGradient8816);stroke-width:1;stroke-linecap:butt;stroke-linejoin:miter;stroke-opacity:1;stroke-miterlimit:4;stroke-dasharray:none"
       d="M 7.9293116,5.0795231 C 8.4000613,4.9623562 8.4835059,4.5003986 8.6165851,4.1601444 C 8.8703534,3.4900386 8.9850242,3.2527412 8.8138379,2.5709314 C 8.2219508,0.45209022 2.1611419,-0.88447008 1.4517269,2.9807965"
       id="path8814"
       sodipodi:nodetypes="cscc" />
    <path
       style="opacity:1;fill:url(#linearGradient8774);fill-opacity:1;stroke:url(#linearGradient3130);stroke-width:0.99999994000000003;stroke-miterlimit:4;stroke-dasharray:none;stroke-opacity:1"
       d="M 7.5832705,1.5 C 4.2253041,1.5 1.5,4.2484155 1.5,7.6348558 C 1.5,10.409353 1.5368298,15.204777 2.3493298,16.119387 C 2.9513142,16.119387 14.14629,17.5 15.510463,17.5 C 16.582197,17.5 15.529722,16.489173 15.529722,16.489173 C 15.529722,15.082448 14.037305,14.095385 13.065033,13.123113 C 12.31715,12.330145 13.159601,10.088797 13.159601,10.088797 C 13.484704,9.3379883 13.534521,8.6063333 13.534521,7.735143 C 13.534521,4.348703 10.941237,1.5 7.5832705,1.5 z"
       id="path5176"
       sodipodi:nodetypes="cccccccsc" />
    <path
       style="opacity:0.54299998999999999;fill:url(#radialGradient8782);fill-opacity:1;stroke:url(#linearGradient6512);stroke-width:0.99999994000000003;stroke-miterlimit:4;stroke-dasharray:none;stroke-opacity:1"
       d="M 7.6952762,2.4999998 C 4.8395496,2.4999998 2.5080065,4.8304336 2.5001711,7.7371358 C 2.5001581,7.7420387 2.4997927,7.7465938 2.5001711,7.7514849 C 2.5001711,11.097502 3.0181313,16.475208 3.0181313,16.475208 C 3.9379713,16.475208 10.734965,16.461527 13.502192,16.461527 C 14.056593,16.461527 15,16.692971 15,16.020522 C 15,15.91871 14.623872,16.133525 14.362514,15.895884 C 14.101157,15.658243 13.835251,15.059314 13.403964,14.806022 C 12.543199,14.263752 11.86054,13.312811 11.81661,11.873858 C 11.874694,10.425059 12.718766,9.4318208 12.620458,7.8321281 C 12.620458,4.918572 10.555818,2.4999998 7.6952762,2.4999998 z"
       id="path5241"
       sodipodi:nodetypes="cscccsscccc" />
    <path
       style="opacity:1;fill:#ffffff;fill-opacity:1;stroke:none;stroke-width:1;stroke-miterlimit:4;stroke-opacity:1"
       d="M 7.9998599,7.6813275 C 7.9998599,9.061316 6.8055234,10 5.9999296,10 C 4.8959685,10 4,8.880011 4,7.5000225 C 4,6.3007912 4.6142095,4.9911617 5.7181378,5.0000449 C 8.059493,5.018459 7.9998599,6.5910879 7.9998599,7.6813275 z"
       id="path5157"
       sodipodi:nodetypes="csssc" />
    <path
       sodipodi:type="arc"
       style="opacity:1;fill:url(#linearGradient8766);fill-opacity:1;stroke:none;stroke-width:1;stroke-miterlimit:4;stroke-dasharray:none;stroke-opacity:1"
       id="path5162"
       sodipodi:cx="10.169642"
       sodipodi:cy="24.3125"
       sodipodi:rx="1.2410715"
       sodipodi:ry="1.2946428"
       d="M 11.410714,24.3125 A 1.2410715,1.2946428 0 1 1 8.928571,24.3125 A 1.2410715,1.2946428 0 1 1 11.410714,24.3125 z"
       transform="matrix(0.8057553,0,0,0.7927385,-2.1942434,-11.247142)" />
    <path
       sodipodi:type="inkscape:offset"
       inkscape:radius="0.63276428"
       inkscape:original="M 10.5 14 C 10.223 14 10 14.223 10 14.5 C 10 14.777 10.223 15 10.5 15 L 11.5 15 C 11.777 15 12 14.777 12 14.5 C 12 14.223 11.777 14 11.5 14 L 10.5 14 z M 13.5 14 C 13.223 14 13 14.223 13 14.5 C 13 14.777 13.223 15 13.5 15 L 14.5 15 C 14.777 15 15 14.777 15 14.5 C 15 14.223 14.777 14 14.5 14 L 13.5 14 z "
       style="fill:#5c3566;fill-opacity:1;stroke:none;stroke-width:1;stroke-miterlimit:4;stroke-dasharray:none;stroke-opacity:1;filter:url(#filter9040)"
       id="path8998"
       d="M 10.5,13.375 C 9.8833937,13.375 9.375,13.883394 9.375,14.5 C 9.375,15.116606 9.8833937,15.625 10.5,15.625 L 11.5,15.625 C 11.997417,15.625 12.351557,15.26606 12.5,14.8125 C 12.648443,15.26606 13.002583,15.625 13.5,15.625 L 14.5,15.625 C 15.116606,15.625 15.625,15.116606 15.625,14.5 C 15.625,13.883394 15.116606,13.375 14.5,13.375 L 13.5,13.375 C 13.002583,13.375 12.648443,13.73394 12.5,14.1875 C 12.351557,13.73394 11.997417,13.375 11.5,13.375 L 10.5,13.375 z"
       transform="matrix(0.7360213,0,0,0.7376927,0.4333759,-1.1147722)" />
    <path
       sodipodi:type="inkscape:offset"
       inkscape:radius="0.58151811"
       inkscape:original="M 8.5 9 C 7.5744947 9 8.0888797 12.372263 4 10.3125 C 5.6494162 12.565197 8.197109 13 8.96875 13 C 9.7318012 13 11.759773 11.940619 12.03125 9.96875 C 9.8826905 12.168839 9.3373684 9 8.5 9 z "
       style="fill:#5c3566;fill-opacity:1;stroke:none;stroke-width:1.0283047;stroke-miterlimit:4;stroke-opacity:1;filter:url(#filter8756)"
       id="path7960"
       d="M 8.5,8.40625 C 8.2077387,8.40625 7.9340555,8.5866498 7.78125,8.75 C 7.6284445,8.9133502 7.5498385,9.0608344 7.46875,9.21875 C 7.3065731,9.5345811 7.172643,9.8595724 7,10.0625 C 6.827357,10.265428 6.671609,10.387141 6.28125,10.40625 C 5.890891,10.425359 5.2196564,10.269712 4.25,9.78125 C 4.0077291,9.6621096 3.7153231,9.7253647 3.5439557,9.9339859 C 3.3725882,10.142607 3.3673262,10.44173 3.53125,10.65625 C 4.4297328,11.883357 5.5774976,12.609102 6.59375,13.03125 C 7.6100024,13.453398 8.4737052,13.59375 8.96875,13.59375 C 9.6193922,13.59375 10.340813,13.267437 11.0625,12.6875 C 11.784187,12.107563 12.433247,11.228313 12.59375,10.0625 C 12.622923,9.8212663 12.499043,9.5873227 12.283116,9.4758765 C 12.067189,9.3644302 11.804734,9.3989754 11.625,9.5625 C 11.145204,10.053803 10.811541,10.151032 10.65625,10.15625 C 10.500959,10.161468 10.384244,10.105939 10.1875,9.90625 C 9.9907556,9.7065608 9.7866869,9.3846583 9.5625,9.09375 C 9.4504065,8.9482959 9.3464815,8.8194169 9.1875,8.6875 C 9.0285185,8.5555831 8.7880568,8.40625 8.5,8.40625 z"
       transform="translate(0.9337088,2.2097087e-2)" />
    <path
       style="fill:#ffffff;fill-opacity:1;stroke:none;stroke-width:1;stroke-miterlimit:4;stroke-opacity:1"
       d="M 12.665364,5.6592388 C 12.000973,4.6508398 10.81971,4.941345 10.39549,5.5852216 C 9.8141493,6.4675705 9.881553,8.00209 10.545944,9.0104902 C 11.123309,9.8868033 12.156638,10.433807 12.737979,9.551461 C 13.319319,8.6691115 13.190256,6.4559104 12.665364,5.6592388 z"
       id="path3134"
       sodipodi:nodetypes="csssc" />
    <path
       style="fill:#eeeeec;fill-opacity:1;stroke:none;stroke-width:1;stroke-miterlimit:4;stroke-dasharray:none;stroke-opacity:1"
       d="M 8,9 C 8,9 8,10 8,10 L 8.8944098,10 C 9.0595775,10 9.1925465,9.7769994 9.1925465,9.4999995 C 9.1925465,9.2229999 9.0595775,9 8.8944098,9 L 8,9 z M 10.086956,9 C 9.9217887,9 9.7888198,9.2229999 9.7888198,9.4999995 C 9.7888198,9.7769994 9.9217887,10 10.086956,10 L 11,10 C 11,10 11,9.1680139 11,9 L 10.086956,9 z"
       id="rect3140"
       sodipodi:nodetypes="cccscccscccc" />
    <path
       style="fill:url(#linearGradient8726);fill-opacity:1;stroke:none;stroke-width:1.0283047;stroke-miterlimit:4;stroke-opacity:1"
       d="M 4.9337087,10.066933 C 8.8819634,12.626696 8.4961475,9.022097 9.4216528,9.022097 C 10.259021,9.022097 10.807246,12.196312 12.955806,9.9962228 C 12.684329,11.968092 10.658384,13.022097 9.8953332,13.022097 C 9.1236918,13.022097 6.5674999,12.88213 4.9337087,10.066933 z"
       id="path3142"
       sodipodi:nodetypes="czczc" />
    <path
       sodipodi:type="arc"
       style="opacity:1;fill:url(#linearGradient8735);fill-opacity:1;stroke:none;stroke-width:1;stroke-miterlimit:4;stroke-dasharray:none;stroke-opacity:1"
       id="path8733"
       sodipodi:cx="10.169642"
       sodipodi:cy="24.3125"
       sodipodi:rx="1.2410715"
       sodipodi:ry="1.2946428"
       d="M 11.410714,24.3125 A 1.2410715,1.2946428 0 1 1 8.928571,24.3125 A 1.2410715,1.2946428 0 1 1 11.410714,24.3125 z"
       transform="matrix(0.8057555,0,0,0.7724141,2.8057548,-10.779318)" />
  </g>
</svg>
