<?xml version="1.0" encoding="UTF-8" standalone="no"?>
<!-- Created with Inkscape (http://www.inkscape.org/) -->
<svg
   xmlns:dc="http://purl.org/dc/elements/1.1/"
   xmlns:cc="http://creativecommons.org/ns#"
   xmlns:rdf="http://www.w3.org/1999/02/22-rdf-syntax-ns#"
   xmlns:svg="http://www.w3.org/2000/svg"
   xmlns="http://www.w3.org/2000/svg"
   xmlns:xlink="http://www.w3.org/1999/xlink"
   xmlns:sodipodi="http://sodipodi.sourceforge.net/DTD/sodipodi-0.dtd"
   xmlns:inkscape="http://www.inkscape.org/namespaces/inkscape"
   width="48"
   height="48"
   id="svg2"
   sodipodi:version="0.32"
   inkscape:version="0.46"
   version="1.0"
   sodipodi:docbase="/home/hbons/Desktop"
   sodipodi:docname="auth.svg"
   inkscape:export-filename="/home/hbons/Bureaublad/Projecten/Pidgin/pidgin-mtn/pidgin/pixmaps/dialogs/64/auth.png"
   inkscape:export-xdpi="90"
   inkscape:export-ydpi="90"
   inkscape:output_extension="org.inkscape.output.svg.inkscape"
   sodipodi:modified="true">
  <defs
     id="defs4">
    <linearGradient
       inkscape:collect="always"
       id="linearGradient9188">
      <stop
         style="stop-color:#2e3436;stop-opacity:1;"
         offset="0"
         id="stop9190" />
      <stop
         style="stop-color:#6f726d;stop-opacity:1"
         offset="1"
         id="stop9192" />
    </linearGradient>
    <linearGradient
       inkscape:collect="always"
       id="linearGradient9166">
      <stop
         style="stop-color:#3b73bb;stop-opacity:1;"
         offset="0"
         id="stop9168" />
      <stop
         style="stop-color:#3b73bb;stop-opacity:0;"
         offset="1"
         id="stop9170" />
    </linearGradient>
    <linearGradient
       inkscape:collect="always"
       id="linearGradient9158">
      <stop
         style="stop-color:#729fcf;stop-opacity:1;"
         offset="0"
         id="stop9160" />
      <stop
         style="stop-color:#bcd2e9;stop-opacity:1"
         offset="1"
         id="stop9162" />
    </linearGradient>
    <linearGradient
       inkscape:collect="always"
       id="linearGradient9056">
      <stop
         style="stop-color:#729fcf;stop-opacity:1;"
         offset="0"
         id="stop9058" />
      <stop
         style="stop-color:#729fcf;stop-opacity:0;"
         offset="1"
         id="stop9060" />
    </linearGradient>
    <linearGradient
       inkscape:collect="always"
       id="linearGradient9040">
      <stop
         style="stop-color:#729fcf;stop-opacity:1"
         offset="0"
         id="stop9042" />
      <stop
         style="stop-color:#3465a4;stop-opacity:1"
         offset="1"
         id="stop9044" />
    </linearGradient>
    <linearGradient
       id="linearGradient11669"
       inkscape:collect="always">
      <stop
         id="stop11671"
         offset="0"
         style="stop-color:#ffffff;stop-opacity:1" />
      <stop
         id="stop11673"
         offset="1"
         style="stop-color:#2e3436;stop-opacity:1" />
    </linearGradient>
    <linearGradient
       inkscape:collect="always"
       id="linearGradient11653">
      <stop
         style="stop-color:#ffffff;stop-opacity:1"
         offset="0"
         id="stop11655" />
      <stop
         style="stop-color:#2e3436;stop-opacity:1"
         offset="1"
         id="stop11657" />
    </linearGradient>
    <linearGradient
       id="linearGradient11493"
       inkscape:collect="always">
      <stop
         id="stop11495"
         offset="0"
         style="stop-color:#555753;stop-opacity:1" />
      <stop
         id="stop11497"
         offset="1"
         style="stop-color:#070808;stop-opacity:1" />
    </linearGradient>
    <linearGradient
       id="linearGradient11487"
       inkscape:collect="always">
      <stop
         id="stop11489"
         offset="0"
         style="stop-color:#538ac5;stop-opacity:1" />
      <stop
         id="stop11491"
         offset="1"
         style="stop-color:#ffffff;stop-opacity:1" />
    </linearGradient>
    <linearGradient
       inkscape:collect="always"
       id="linearGradient11474">
      <stop
         style="stop-color:#558bc5;stop-opacity:1"
         offset="0"
         id="stop11476" />
      <stop
         style="stop-color:#ffffff;stop-opacity:1"
         offset="1"
         id="stop11478" />
    </linearGradient>
    <linearGradient
       inkscape:collect="always"
       id="linearGradient11333">
      <stop
         style="stop-color:#ffffff;stop-opacity:1;"
         offset="0"
         id="stop11335" />
      <stop
         style="stop-color:#ffffff;stop-opacity:0;"
         offset="1"
         id="stop11337" />
    </linearGradient>
    <linearGradient
       id="linearGradient11316"
       inkscape:collect="always">
      <stop
         id="stop11318"
         offset="0"
         style="stop-color:#edd400;stop-opacity:1" />
      <stop
         id="stop11320"
         offset="1"
         style="stop-color:#f6c93b;stop-opacity:0;" />
    </linearGradient>
    <linearGradient
       inkscape:collect="always"
       id="linearGradient11304">
      <stop
         style="stop-color:#ffffff;stop-opacity:1;"
         offset="0"
         id="stop11306" />
      <stop
         style="stop-color:#ffffff;stop-opacity:0;"
         offset="1"
         id="stop11308" />
    </linearGradient>
    <linearGradient
       inkscape:collect="always"
       id="linearGradient11292">
      <stop
         style="stop-color:#ffffff;stop-opacity:1;"
         offset="0"
         id="stop11294" />
      <stop
         style="stop-color:#ffffff;stop-opacity:0;"
         offset="1"
         id="stop11296" />
    </linearGradient>
    <linearGradient
       inkscape:collect="always"
       id="linearGradient11259">
      <stop
         style="stop-color:#ffffff;stop-opacity:1;"
         offset="0"
         id="stop11261" />
      <stop
         style="stop-color:#ffffff;stop-opacity:0;"
         offset="1"
         id="stop11263" />
    </linearGradient>
    <linearGradient
       inkscape:collect="always"
       id="linearGradient11241">
      <stop
         style="stop-color:#4f381b;stop-opacity:0.97254902"
         offset="0"
         id="stop11243" />
      <stop
         style="stop-color:#a87b42;stop-opacity:0.96078432"
         offset="1"
         id="stop11245" />
    </linearGradient>
    <linearGradient
       inkscape:collect="always"
       id="linearGradient11208">
      <stop
         style="stop-color:#c32f00;stop-opacity:1"
         offset="0"
         id="stop11210" />
      <stop
         style="stop-color:#6c1300;stop-opacity:1"
         offset="1"
         id="stop11212" />
    </linearGradient>
    <linearGradient
       inkscape:collect="always"
       id="linearGradient11196">
      <stop
         style="stop-color:#555753;stop-opacity:1"
         offset="0"
         id="stop11198" />
      <stop
         style="stop-color:#000000;stop-opacity:1"
         offset="1"
         id="stop11200" />
    </linearGradient>
    <linearGradient
       inkscape:collect="always"
       xlink:href="#linearGradient11241"
       id="linearGradient10406"
       gradientUnits="userSpaceOnUse"
       x1="14.365882"
       y1="19.515574"
       x2="11.215483"
       y2="8.2263536" />
    <linearGradient
       inkscape:collect="always"
       xlink:href="#linearGradient11493"
       id="linearGradient11202"
       x1="9.7069349"
       y1="8.5495605"
       x2="9.9879932"
       y2="10.59237"
       gradientUnits="userSpaceOnUse" />
    <linearGradient
       inkscape:collect="always"
       xlink:href="#linearGradient11196"
       id="linearGradient11206"
       gradientUnits="userSpaceOnUse"
       x1="9.7069349"
       y1="8.5495605"
       x2="9.9879932"
       y2="10.59237" />
    <radialGradient
       inkscape:collect="always"
       xlink:href="#linearGradient11316"
       id="radialGradient11271"
       gradientUnits="userSpaceOnUse"
       gradientTransform="matrix(1.8771377,9.6878354e-8,-5.330884e-8,1.0893079,-10.4827,-2.6428601)"
       cx="11.873854"
       cy="12.147273"
       fx="11.594166"
       fy="8.8655272"
       r="9.975256" />
    <linearGradient
       inkscape:collect="always"
       xlink:href="#linearGradient11304"
       id="linearGradient11310"
       x1="8.9530411"
       y1="6.2636566"
       x2="10.732871"
       y2="9.6526775"
       gradientUnits="userSpaceOnUse" />
    <linearGradient
       inkscape:collect="always"
       xlink:href="#linearGradient11304"
       id="linearGradient11314"
       gradientUnits="userSpaceOnUse"
       x1="8.9530411"
       y1="6.2636566"
       x2="10.732871"
       y2="9.6526775" />
    <radialGradient
       inkscape:collect="always"
       xlink:href="#linearGradient11259"
       id="radialGradient11327"
       gradientUnits="userSpaceOnUse"
       gradientTransform="matrix(1.023438,0,0,0.8870879,-0.2709505,0.7064648)"
       cx="11.736404"
       cy="7.3689327"
       fx="11.800528"
       fy="1.1734189"
       r="9.975256" />
    <linearGradient
       inkscape:collect="always"
       xlink:href="#linearGradient11333"
       id="linearGradient11339"
       x1="14.6875"
       y1="11.875"
       x2="20.6875"
       y2="22.5625"
       gradientUnits="userSpaceOnUse"
       gradientTransform="translate(-2.0000685,1.885788e-7)" />
    <linearGradient
       inkscape:collect="always"
       xlink:href="#linearGradient11333"
       id="linearGradient11343"
       gradientUnits="userSpaceOnUse"
       x1="14.6875"
       y1="11.875"
       x2="20.6875"
       y2="22.5625"
       gradientTransform="translate(10.999931,1.885788e-7)" />
    <linearGradient
       inkscape:collect="always"
       xlink:href="#linearGradient11487"
       id="linearGradient11480"
       x1="14.728965"
       y1="15.785595"
       x2="16.957989"
       y2="24.104429"
       gradientUnits="userSpaceOnUse"
       gradientTransform="translate(-2.0000685,1.885788e-7)" />
    <filter
       inkscape:collect="always"
       id="filter11503"
       x="-0.11697236"
       width="1.2339447"
       y="-0.32830241"
       height="1.6566048">
      <feGaussianBlur
         inkscape:collect="always"
         stdDeviation="0.64772565"
         id="feGaussianBlur11505" />
    </filter>
    <linearGradient
       inkscape:collect="always"
       xlink:href="#linearGradient11474"
       id="linearGradient11507"
       gradientUnits="userSpaceOnUse"
       gradientTransform="matrix(-1,0,0,1,45.999932,1.885788e-7)"
       x1="14.728965"
       y1="15.785595"
       x2="16.957989"
       y2="24.104429" />
    <radialGradient
       inkscape:collect="always"
       xlink:href="#linearGradient11669"
       id="radialGradient11659"
       cx="14"
       cy="19.5"
       fx="9.3258924"
       fy="14.814685"
       r="8"
       gradientTransform="matrix(1.0000001,0,0,0.8124999,0.5000001,4.156251)"
       gradientUnits="userSpaceOnUse" />
    <radialGradient
       inkscape:collect="always"
       xlink:href="#linearGradient11653"
       id="radialGradient11667"
       gradientUnits="userSpaceOnUse"
       gradientTransform="matrix(1.0000001,0,0,0.8124999,15.5,4.156251)"
       cx="14"
       cy="19.5"
       fx="9.3258924"
       fy="14.814685"
       r="8" />
    <linearGradient
       inkscape:collect="always"
       xlink:href="#linearGradient11241"
       id="linearGradient8720"
       gradientUnits="userSpaceOnUse"
       x1="14.365882"
       y1="19.515574"
       x2="11.215483"
       y2="8.2263536" />
    <radialGradient
       inkscape:collect="always"
       xlink:href="#linearGradient11259"
       id="radialGradient8722"
       gradientUnits="userSpaceOnUse"
       gradientTransform="matrix(1.023438,0,0,0.8870879,-0.2709505,0.7064648)"
       cx="11.736404"
       cy="7.3689327"
       fx="11.800528"
       fy="1.1734189"
       r="9.975256" />
    <linearGradient
       inkscape:collect="always"
       xlink:href="#linearGradient11493"
       id="linearGradient8985"
       gradientUnits="userSpaceOnUse"
       x1="9.7069349"
       y1="8.5495605"
       x2="9.9879932"
       y2="10.59237" />
    <linearGradient
       inkscape:collect="always"
       xlink:href="#linearGradient11196"
       id="linearGradient8993"
       gradientUnits="userSpaceOnUse"
       x1="9.7069349"
       y1="8.5495605"
       x2="9.9879932"
       y2="10.59237" />
    <linearGradient
       inkscape:collect="always"
       xlink:href="#linearGradient11304"
       id="linearGradient8995"
       gradientUnits="userSpaceOnUse"
       x1="8.9530411"
       y1="6.2636566"
       x2="10.732871"
       y2="9.6526775" />
    <linearGradient
       inkscape:collect="always"
       xlink:href="#linearGradient11304"
       id="linearGradient8997"
       gradientUnits="userSpaceOnUse"
       x1="8.9530411"
       y1="6.2636566"
       x2="10.732871"
       y2="9.6526775" />
    <linearGradient
       inkscape:collect="always"
       xlink:href="#linearGradient11333"
       id="linearGradient9005"
       gradientUnits="userSpaceOnUse"
       gradientTransform="translate(-34.999933,2.0000002)"
       x1="14.6875"
       y1="11.875"
       x2="20.6875"
       y2="22.5625" />
    <linearGradient
       inkscape:collect="always"
       xlink:href="#linearGradient11208"
       id="linearGradient9018"
       gradientUnits="userSpaceOnUse"
       gradientTransform="matrix(-0.9659258,0.1156321,0.258819,0.431545,39.417822,14.519987)"
       x1="22.919643"
       y1="33.491837"
       x2="23.746914"
       y2="36.579254" />
    <radialGradient
       inkscape:collect="always"
       xlink:href="#linearGradient11292"
       id="radialGradient9036"
       gradientUnits="userSpaceOnUse"
       gradientTransform="matrix(1.5208182,0,0,0.3864192,-14.644203,17.599539)"
       cx="24.00321"
       cy="34.70562"
       fx="24.00321"
       fy="34.70562"
       r="12.133846" />
    <linearGradient
       inkscape:collect="always"
       xlink:href="#linearGradient9040"
       id="linearGradient9046"
       x1="24"
       y1="37"
       x2="44.533825"
       y2="40.875"
       gradientUnits="userSpaceOnUse"
       gradientTransform="matrix(1.1262515,0,0,1,-4.093162,0)" />
    <linearGradient
       inkscape:collect="always"
       xlink:href="#linearGradient9056"
       id="linearGradient9062"
       x1="34.5"
       y1="61.35038"
       x2="34.5"
       y2="33.72963"
       gradientUnits="userSpaceOnUse" />
    <linearGradient
       inkscape:collect="always"
       xlink:href="#linearGradient9158"
       id="linearGradient9164"
       x1="29"
       y1="35.649048"
       x2="29"
       y2="32.334484"
       gradientUnits="userSpaceOnUse"
       gradientTransform="translate(-1,0)" />
    <linearGradient
       inkscape:collect="always"
       xlink:href="#linearGradient9166"
       id="linearGradient9172"
       x1="29.125"
       y1="36.5625"
       x2="25"
       y2="31.9375"
       gradientUnits="userSpaceOnUse" />
    <linearGradient
       inkscape:collect="always"
       xlink:href="#linearGradient9188"
       id="linearGradient9194"
       x1="37.5"
       y1="42.295494"
       x2="37.5"
       y2="40.792892"
       gradientUnits="userSpaceOnUse" />
    <linearGradient
       inkscape:collect="always"
       xlink:href="#linearGradient9166"
       id="linearGradient9246"
       gradientUnits="userSpaceOnUse"
       x1="29.78125"
       y1="37.09375"
       x2="23.984375"
       y2="30.40625" />
  </defs>
  <sodipodi:namedview
     id="base"
     pagecolor="#ffffff"
     bordercolor="#666666"
     borderopacity="1.0"
     inkscape:pageopacity="0.0"
     inkscape:pageshadow="2"
     inkscape:zoom="1"
     inkscape:cx="274.07651"
     inkscape:cy="97.498181"
     inkscape:document-units="px"
     inkscape:current-layer="layer1"
     showgrid="false"
     fill="#fce94f"
     inkscape:window-width="1440"
     inkscape:window-height="847"
     inkscape:window-x="0"
     inkscape:window-y="0"
     width="48px"
     height="48px"
     inkscape:snap-bbox="true"
     inkscape:snap-nodes="false"
     objecttolerance="10"
     gridtolerance="10"
     showguides="true"
     inkscape:guide-bbox="true">
    <inkscape:grid
       type="xygrid"
       id="grid10393"
       visible="true"
       enabled="true" />
  </sodipodi:namedview>
  <metadata
     id="metadata7">
    <rdf:RDF>
      <cc:Work
         rdf:about="">
        <dc:format>image/svg+xml</dc:format>
        <dc:type
           rdf:resource="http://purl.org/dc/dcmitype/StillImage" />
      </cc:Work>
    </rdf:RDF>
  </metadata>
  <g
     inkscape:label="Layer 1"
     inkscape:groupmode="layer"
     id="layer1">
    <path
       transform="matrix(2.257367,0,0,2.7454598,-1.263726,9.7889628)"
       d="M 17.393564,10.457643 A 6.6449099,2.3675451 0 1 1 4.1037445,10.457643 A 6.6449099,2.3675451 0 1 1 17.393564,10.457643 z"
       sodipodi:ry="2.3675451"
       sodipodi:rx="6.6449099"
       sodipodi:cy="10.457643"
       sodipodi:cx="10.748654"
       id="path17958"
       style="opacity:0.73423419999999995;fill:#2e3436;fill-opacity:1;stroke:none;stroke-width:1;stroke-miterlimit:4;stroke-dasharray:none;stroke-opacity:1;display:inline;filter:url(#filter11503);enable-background:new"
       sodipodi:type="arc" />
    <path
       transform="matrix(2.0549539,0,0,2.0549096,-2.2611787,1.4304378)"
       d="M 21.781414,10.983024 A 9.975256,9.975256 0 1 1 1.8309021,10.983024 A 9.975256,9.975256 0 1 1 21.781414,10.983024 z"
       sodipodi:ry="9.975256"
       sodipodi:rx="9.975256"
       sodipodi:cy="10.983024"
       sodipodi:cx="11.806158"
       id="path17960"
       style="opacity:1;fill:#e08700;fill-opacity:1;stroke:url(#linearGradient10406);stroke-width:0.48784169999999999;stroke-miterlimit:4;stroke-dasharray:none;stroke-opacity:1;display:inline;enable-background:new"
       sodipodi:type="arc" />
    <path
       transform="matrix(1.904713,0,0,1.904713,-0.4874115,3.0804919)"
       d="M 21.781414,10.983024 A 9.975256,9.975256 0 1 1 1.8309021,10.983024 A 9.975256,9.975256 0 1 1 21.781414,10.983024 z"
       sodipodi:ry="9.975256"
       sodipodi:rx="9.975256"
       sodipodi:cy="10.983024"
       sodipodi:cx="11.806158"
       id="path11247"
       style="opacity:1;fill:url(#radialGradient11271);fill-opacity:1;stroke:none;stroke-width:0.51155167999999995;stroke-miterlimit:4;stroke-dasharray:none;stroke-opacity:1;display:inline;enable-background:new"
       sodipodi:type="arc" />
    <path
       style="opacity:0.37037036000000001;fill:url(#radialGradient9036);fill-opacity:1;stroke:none;stroke-width:1;stroke-miterlimit:4;stroke-opacity:1;display:inline;enable-background:new"
       d="M 10.826033,28.011426 C 10.520443,28.014045 10.234263,28.093756 10.050887,28.227332 C 9.8675105,28.360908 9.8075706,28.533318 9.8885335,28.694322 C 11.280177,31.722142 16.087826,34.020914 21.857283,34.020914 C 27.626736,34.020914 32.434391,31.722142 33.826033,28.694322 C 33.967019,28.436085 33.737888,28.160593 33.289106,28.048758 C 32.840324,27.936923 32.309315,28.02299 32.044783,28.25044 C 29.836827,29.981737 25.929281,31.047173 21.857283,31.047173 C 17.785285,31.047174 13.87774,29.981737 11.669783,28.25044 C 11.481718,28.097267 11.163547,28.007137 10.826033,28.011426 L 10.826033,28.011426 z"
       id="path11288"
       sodipodi:nodetypes="cscscscsccc" />
    <path
       transform="matrix(1.904713,0,0,1.904713,-0.4873425,3.0804918)"
       d="M 21.781414,10.983024 A 9.975256,9.975256 0 1 1 1.8309021,10.983024 A 9.975256,9.975256 0 1 1 21.781414,10.983024 z"
       sodipodi:ry="9.975256"
       sodipodi:rx="9.975256"
       sodipodi:cy="10.983024"
       sodipodi:cx="11.806158"
       id="path11257"
       style="opacity:1;fill:url(#radialGradient11327);fill-opacity:1;stroke:none;stroke-width:0.51155167999999995;stroke-miterlimit:4;stroke-dasharray:none;stroke-opacity:1;display:inline;enable-background:new"
       sodipodi:type="arc" />
    <path
       id="path11329"
       d="M 21.499931,19.500002 C 21.499931,22.812 18.811935,25.5 15.499932,25.5 C 12.187931,25.5 9.4999315,22.812 9.4999315,19.500002 C 9.4999315,16.188 12.187931,13.5 15.499932,13.5 C 18.811935,13.5 21.499931,16.188 21.499931,19.500002 z"
       style="opacity:1;fill:none;fill-opacity:1;stroke:url(#linearGradient11339);stroke-width:1;stroke-miterlimit:4;stroke-opacity:1;display:inline;enable-background:new" />
    <path
       sodipodi:nodetypes="cscsc"
       id="path17974"
       d="M 10.857282,29 C 12.147541,31.295706 16.56888,33.020914 21.857283,33.020914 C 27.145683,33.020914 31.567025,31.295706 32.857282,29 C 30.539039,30.486544 26.467508,31.996368 21.857283,31.996368 C 17.247058,31.99637 13.175526,30.486544 10.857282,29 z"
       style="fill:url(#linearGradient9018);fill-opacity:1;stroke:none;stroke-width:1;stroke-miterlimit:4;stroke-dasharray:none;stroke-opacity:1;display:inline;enable-background:new" />
    <path
       transform="matrix(1.954837,0,0,-1.954837,-1.0791836,45.47002)"
       d="M 21.781414,10.983024 A 9.975256,9.975256 0 1 1 1.8309021,10.983024 A 9.975256,9.975256 0 1 1 21.781414,10.983024 z"
       sodipodi:ry="9.975256"
       sodipodi:rx="9.975256"
       sodipodi:cy="10.983024"
       sodipodi:cx="11.806158"
       id="path17964"
       style="opacity:0.48699998999999999;fill:none;fill-opacity:1;stroke:#ffffff;stroke-width:0.51155167999999995;stroke-miterlimit:4;stroke-dasharray:none;stroke-opacity:1;display:inline;enable-background:new"
       sodipodi:type="arc" />
    <path
       id="path17966"
       d="M 20.499932,19.5 C 20.499932,22.259999 18.259935,24.499999 15.499932,24.499999 C 12.739932,24.499999 10.499932,22.259999 10.499932,19.5 C 10.499932,16.739999 12.739932,14.499999 15.499932,14.499999 C 18.259935,14.499999 20.499932,16.739999 20.499932,19.5 z"
       style="opacity:1;fill:#ffffff;fill-opacity:1;stroke:url(#linearGradient11480);stroke-width:1;stroke-miterlimit:4;stroke-opacity:1;display:inline;enable-background:new" />
    <path
       transform="matrix(2.4367989,0,0,1.5452869,-7.1539168,6.0838442)"
       d="M 10.732871,9.6526775 A 1.0259361,1.9413869 0 1 1 8.6809988,9.6526775 A 1.0259361,1.9413869 0 1 1 10.732871,9.6526775 z"
       sodipodi:ry="1.9413869"
       sodipodi:rx="1.0259361"
       sodipodi:cy="9.6526775"
       sodipodi:cx="9.7069349"
       id="path17968"
       style="opacity:1;fill:url(#linearGradient11202);fill-opacity:1;stroke:none;stroke-width:0.98640185999999996;stroke-miterlimit:4;stroke-dasharray:none;stroke-opacity:1;display:inline;enable-background:new"
       sodipodi:type="arc" />
    <path
       sodipodi:open="true"
       sodipodi:end="5.6135639"
       sodipodi:start="3.5782199"
       transform="matrix(3.7380737,0.6989293,-0.7062659,1.8392838,3.5297812,-10.968438)"
       d="M 7.2133909,8.4869402 A 1.2276785,1.7410715 0 0 1 9.288462,8.1425499"
       sodipodi:ry="1.7410715"
       sodipodi:rx="1.2276785"
       sodipodi:cy="9.2232141"
       sodipodi:cx="8.3258924"
       id="path11325"
       style="opacity:1;fill:none;fill-opacity:1;stroke:#ffffff;stroke-width:0.36837955999999999;stroke-miterlimit:4;stroke-dasharray:none;stroke-opacity:1;display:inline;enable-background:new"
       sodipodi:type="arc" />
    <path
       sodipodi:open="true"
       sodipodi:end="5.6135639"
       sodipodi:start="3.5782199"
       transform="matrix(3.7380737,0.6989296,-0.7062659,1.8392846,3.5297812,-9.9684476)"
       d="M 7.2133909,8.4869402 A 1.2276785,1.7410715 0 0 1 9.288462,8.1425499"
       sodipodi:ry="1.7410715"
       sodipodi:rx="1.2276785"
       sodipodi:cy="9.2232141"
       sodipodi:cx="8.3258924"
       id="path17976"
       style="opacity:1;fill:none;fill-opacity:1;stroke:#a95300;stroke-width:0.36837946999999999;stroke-miterlimit:4;stroke-dasharray:none;stroke-opacity:1;display:inline;enable-background:new"
       sodipodi:type="arc" />
    <path
       sodipodi:open="true"
       sodipodi:end="5.6135639"
       sodipodi:start="3.5782199"
       transform="matrix(-3.7380737,0.6989293,0.7062659,1.8392838,40.47015,-10.968439)"
       d="M 7.2133909,8.4869402 A 1.2276785,1.7410715 0 0 1 9.288462,8.1425499"
       sodipodi:ry="1.7410715"
       sodipodi:rx="1.2276785"
       sodipodi:cy="9.2232141"
       sodipodi:cx="8.3258924"
       id="path11323"
       style="opacity:1;fill:none;fill-opacity:1;stroke:#ffffff;stroke-width:0.36837955999999999;stroke-miterlimit:4;stroke-dasharray:none;stroke-opacity:1;display:inline;enable-background:new"
       sodipodi:type="arc" />
    <path
       sodipodi:open="true"
       sodipodi:end="5.6135639"
       sodipodi:start="3.5782199"
       transform="matrix(-3.7380737,0.6989293,0.7062659,1.8392838,40.47015,-9.9684388)"
       d="M 7.2133909,8.4869402 A 1.2276785,1.7410715 0 0 1 9.288462,8.1425499"
       sodipodi:ry="1.7410715"
       sodipodi:rx="1.2276785"
       sodipodi:cy="9.2232141"
       sodipodi:cx="8.3258924"
       id="path17978"
       style="opacity:1;fill:none;fill-opacity:1;stroke:#a95300;stroke-width:0.36837955999999999;stroke-miterlimit:4;stroke-dasharray:none;stroke-opacity:1;display:inline;enable-background:new"
       sodipodi:type="arc" />
    <path
       id="path11482"
       d="M 23.499931,19.5 C 23.499931,22.259999 25.739928,24.499999 28.499931,24.499999 C 31.259931,24.499999 33.499931,22.259999 33.499931,19.5 C 33.499931,16.739999 31.259931,14.499999 28.499931,14.499999 C 25.739928,14.499999 23.499931,16.739999 23.499931,19.5 z"
       style="opacity:1;fill:#ffffff;fill-opacity:1;stroke:url(#linearGradient11507);stroke-width:1;stroke-miterlimit:4;stroke-opacity:1;display:inline;enable-background:new" />
    <path
       transform="matrix(2.436799,0,0,1.5452869,3.846082,6.0838439)"
       d="M 10.732871,9.6526775 A 1.0259361,1.9413869 0 1 1 8.6809988,9.6526775 A 1.0259361,1.9413869 0 1 1 10.732871,9.6526775 z"
       sodipodi:ry="1.9413869"
       sodipodi:rx="1.0259361"
       sodipodi:cy="9.6526775"
       sodipodi:cx="9.7069349"
       id="path11204"
       style="opacity:1;fill:url(#linearGradient11206);fill-opacity:1;stroke:none;stroke-width:0.98640185999999996;stroke-miterlimit:4;stroke-dasharray:none;stroke-opacity:1;display:inline;enable-background:new"
       sodipodi:type="arc" />
    <path
       transform="matrix(1.4620795,0,0,1.0301913,2.3076208,11.055896)"
       d="M 10.732871,9.6526775 A 1.0259361,1.9413869 0 1 1 8.6809988,9.6526775 A 1.0259361,1.9413869 0 1 1 10.732871,9.6526775 z"
       sodipodi:ry="1.9413869"
       sodipodi:rx="1.0259361"
       sodipodi:cy="9.6526775"
       sodipodi:cx="9.7069349"
       id="path11300"
       style="opacity:1;fill:url(#linearGradient11310);fill-opacity:1;stroke:none;stroke-width:0.98640185999999996;stroke-miterlimit:4;stroke-dasharray:none;stroke-opacity:1;display:inline;enable-background:new"
       sodipodi:type="arc" />
    <path
       transform="matrix(1.4620795,0,0,1.0301913,13.30762,11.055896)"
       d="M 10.732871,9.6526775 A 1.0259361,1.9413869 0 1 1 8.6809988,9.6526775 A 1.0259361,1.9413869 0 1 1 10.732871,9.6526775 z"
       sodipodi:ry="1.9413869"
       sodipodi:rx="1.0259361"
       sodipodi:cy="9.6526775"
       sodipodi:cx="9.7069349"
       id="path11312"
       style="opacity:1;fill:url(#linearGradient11314);fill-opacity:1;stroke:none;stroke-width:0.98640185999999996;stroke-miterlimit:4;stroke-dasharray:none;stroke-opacity:1;display:inline;enable-background:new"
       sodipodi:type="arc" />
    <path
       id="path11341"
       d="M 34.499931,19.500002 C 34.499931,22.812 31.811935,25.5 28.499932,25.5 C 25.187931,25.5 22.499931,22.812 22.499931,19.500002 C 22.499931,16.188 25.187931,13.5 28.499932,13.5 C 31.811935,13.5 34.499931,16.188 34.499931,19.500002 z"
       style="opacity:1;fill:none;fill-opacity:1;stroke:url(#linearGradient11343);stroke-width:1;stroke-miterlimit:4;stroke-opacity:1;display:inline;enable-background:new" />
    <path
       style="opacity:0.80000000000000004;fill:url(#radialGradient11659);fill-opacity:1;fill-rule:nonzero;stroke:none;stroke-width:1;stroke-linecap:square;stroke-linejoin:miter;marker:none;marker-start:none;marker-mid:none;marker-end:none;stroke-miterlimit:4;stroke-dashoffset:0;stroke-opacity:1;visibility:visible;display:inline;overflow:visible;enable-background:accumulate"
       d="M 22.1875,18.537724 C 22.1875,22.656901 18.64,26.000001 14.5,26.000001 C 10.36,26.000001 7,22.656901 7,18.537724 C 7,14.418548 10.36,14.000001 14.5,14.000001 C 18.64,14.000001 22.53125,14.293548 22.1875,18.537724 z"
       id="path11647"
       sodipodi:nodetypes="csssc" />
    <rect
       style="opacity:1;fill:#2e3436;fill-opacity:1;fill-rule:nonzero;stroke:none;stroke-width:1;stroke-linecap:square;stroke-linejoin:miter;marker:none;marker-start:none;marker-mid:none;marker-end:none;stroke-miterlimit:4;stroke-dasharray:none;stroke-dashoffset:0;stroke-opacity:1;visibility:visible;display:inline;overflow:visible;enable-background:accumulate"
       id="rect11649"
       width="5.1303458"
       height="1.0018942"
       x="6.2930641"
       y="14.833013"
       rx="0.51303452"
       ry="0.50094712"
       transform="matrix(0.9676638,0.2522433,-0.265541,0.9640996,0,0)" />
    <rect
       style="opacity:1;fill:#2e3436;fill-opacity:1;fill-rule:nonzero;stroke:none;stroke-width:1;stroke-linecap:square;stroke-linejoin:miter;marker:none;marker-start:none;marker-mid:none;marker-end:none;stroke-miterlimit:4;stroke-dasharray:none;stroke-dashoffset:0;stroke-opacity:1;visibility:visible;display:inline;overflow:visible;enable-background:accumulate"
       id="rect11651"
       width="5.1303449"
       height="1.0018942"
       x="31.000992"
       y="25.932768"
       rx="0.51303446"
       ry="0.50094712"
       transform="matrix(0.9676638,-0.2522433,0.265541,0.9640996,0,0)" />
    <path
       style="opacity:1;fill:none;fill-opacity:1;fill-rule:nonzero;stroke:#2e3436;stroke-width:0.99999994000000003;stroke-linecap:square;stroke-linejoin:miter;marker:none;marker-start:none;marker-mid:none;marker-end:none;stroke-miterlimit:4;stroke-dashoffset:0;stroke-opacity:1;visibility:visible;display:inline;overflow:visible;enable-background:accumulate"
       d="M 14.5,13.5 C 10.084001,13.5 6.5,13.946414 6.5,18.408854 C 6.5,22.871297 10.084001,26.500001 14.5,26.5 C 17.950001,26.5 20.877881,24.27985 22,21.184896 C 23.122119,24.27985 26.049999,26.500001 29.5,26.5 C 33.916001,26.5 37.499998,22.871296 37.5,18.408854 C 37.5,13.946415 33.916,13.5 29.5,13.5 C 26.05,13.5 23.122119,13.790128 22,16.039063 C 20.877881,13.790128 17.950001,13.5 14.5,13.5 z"
       id="path11661" />
    <path
       style="opacity:0.80000000000000004;fill:url(#radialGradient11667);fill-opacity:1;fill-rule:nonzero;stroke:none;stroke-width:1;stroke-linecap:square;stroke-linejoin:miter;marker:none;marker-start:none;marker-mid:none;marker-end:none;stroke-miterlimit:4;stroke-dashoffset:0;stroke-opacity:1;visibility:visible;display:inline;overflow:visible;enable-background:accumulate"
       d="M 37,18.537724 C 37,22.656901 33.64,26.000001 29.5,26.000001 C 25.36,26.000001 21.849813,22.809207 21.78125,18.600224 C 21.711014,14.288526 25.36,14.000001 29.5,14.000001 C 33.64,14.000001 37,14.418548 37,18.537724 z"
       id="path11663"
       sodipodi:nodetypes="csssc" />
    <path
       transform="matrix(0.651488,0,0,0.651488,28.30843,24.844692)"
       d="M 21.781414,10.983024 A 9.975256,9.975256 0 1 1 1.8309021,10.983024 A 9.975256,9.975256 0 1 1 21.781414,10.983024 z"
       sodipodi:ry="9.975256"
       sodipodi:rx="9.975256"
       sodipodi:cy="10.983024"
       sodipodi:cx="11.806158"
       id="path8714"
       style="opacity:1;fill:#e0a900;fill-opacity:1;stroke:url(#linearGradient8720);stroke-width:1.53875648999999992;stroke-miterlimit:4;stroke-dasharray:none;stroke-opacity:1;display:inline;enable-background:new"
       sodipodi:type="arc" />
    <path
       transform="matrix(0.5012403,0,0,0.5012402,30.082278,26.494867)"
       d="M 21.781414,10.983024 A 9.975256,9.975256 0 1 1 1.8309021,10.983024 A 9.975256,9.975256 0 1 1 21.781414,10.983024 z"
       sodipodi:ry="9.975256"
       sodipodi:rx="9.975256"
       sodipodi:cy="10.983024"
       sodipodi:cx="11.806158"
       id="path8716"
       style="opacity:1;fill:url(#radialGradient8722);fill-opacity:1;stroke:none;stroke-width:0.51155167999999995;stroke-miterlimit:4;stroke-dasharray:none;stroke-opacity:1;display:inline;enable-background:new"
       sodipodi:type="arc" />
    <path
       transform="matrix(0.5513643,0,0,-0.5513643,29.490506,38.055647)"
       d="M 21.781414,10.983024 A 9.975256,9.975256 0 1 1 1.8309021,10.983024 A 9.975256,9.975256 0 1 1 21.781414,10.983024 z"
       sodipodi:ry="9.975256"
       sodipodi:rx="9.975256"
       sodipodi:cy="10.983024"
       sodipodi:cx="11.806158"
       id="path8718"
       style="opacity:0.48699998999999999;fill:none;fill-opacity:1;stroke:#ffffff;stroke-width:1.81368314999999991;stroke-miterlimit:4;stroke-dasharray:none;stroke-opacity:1;display:inline;enable-background:new"
       sodipodi:type="arc" />
    <rect
       style="opacity:1;fill:#ffffff;fill-opacity:1;fill-rule:nonzero;stroke:url(#linearGradient9046);stroke-width:0.99999994000000003;stroke-linecap:square;stroke-linejoin:miter;marker:none;marker-start:none;marker-mid:none;marker-end:none;stroke-miterlimit:4;stroke-dasharray:none;stroke-dashoffset:0;stroke-opacity:1;visibility:visible;display:inline;overflow:visible;enable-background:accumulate"
       id="rect9038"
       width="21.999998"
       height="15"
       x="23.499998"
       y="29.5"
       rx="1.331211"
       ry="1.2101918" />
    <path
       sodipodi:type="inkscape:offset"
       inkscape:radius="-1.0060635"
       inkscape:original="M 25.71875 29.5 C 25.048304 29.5 24.5 30.048304 24.5 30.71875 L 24.5 43.28125 C 24.5 43.951696 25.048304 44.5 25.71875 44.5 L 43.28125 44.5 C 43.951696 44.5 44.5 43.951698 44.5 43.28125 L 44.5 30.71875 C 44.5 30.048304 43.951698 29.5 43.28125 29.5 L 25.71875 29.5 z "
       style="opacity:1;fill:url(#linearGradient9062);fill-opacity:1;fill-rule:nonzero;stroke:#ffffff;stroke-width:0.94868326000000003;stroke-linecap:square;stroke-linejoin:miter;marker:none;marker-start:none;marker-mid:none;marker-end:none;stroke-miterlimit:4;stroke-dasharray:none;stroke-dashoffset:0;stroke-opacity:1;visibility:visible;display:inline;overflow:visible;enable-background:accumulate"
       id="path9052"
       d="M 25.71875,30.5 C 25.596823,30.5 25.5,30.596823 25.5,30.71875 L 25.5,43.28125 C 25.5,43.403177 25.596823,43.5 25.71875,43.5 L 43.28125,43.5 C 43.403179,43.5 43.5,43.403181 43.5,43.28125 L 43.5,30.71875 C 43.5,30.596821 43.403181,30.5 43.28125,30.5 L 25.71875,30.5 z"
       transform="matrix(1.1111112,0,0,1,-3.833336,0)" />
    <rect
       style="opacity:1;fill:url(#linearGradient9164);fill-opacity:1;fill-rule:nonzero;stroke:url(#linearGradient9246);stroke-width:1;stroke-linecap:square;stroke-linejoin:miter;marker:none;marker-start:none;marker-mid:none;marker-end:none;stroke-miterlimit:4;stroke-dasharray:none;stroke-dashoffset:0;stroke-opacity:1;visibility:visible;display:inline;overflow:visible;enable-background:accumulate"
       id="rect9064"
       width="5"
       height="6"
       x="25.5"
       y="31.5"
       rx="0.53033006"
       ry="0.53033006" />
    <path
       style="fill:#3465a4;fill-opacity:1;fill-rule:nonzero;stroke:none;stroke-width:1;stroke-linecap:square;stroke-linejoin:miter;stroke-miterlimit:4;stroke-dashoffset:0;stroke-opacity:1;marker:none;marker-start:none;marker-mid:none;marker-end:none;visibility:visible;display:inline;overflow:visible;enable-background:accumulate"
       d="M 28 34 C 27.448 34 27 34.447999 27 35 C 27 35.552 27.448001 35.999999 28 36 C 28.552 36 29 35.551999 29 35 C 29 34.448 28.552001 33.999999 28 34 z M 28 36 C 27.448 36 27 36.448 27 37 C 27 37 29 37 29 37 C 29 36.448 28.552001 36 28 36 z "
       id="path9242" />
    <path
       style="font-size:12px;font-style:normal;font-variant:normal;font-weight:bold;font-stretch:semi-condensed;text-align:start;line-height:100%;writing-mode:lr-tb;text-anchor:start;fill:#000000;fill-opacity:1;stroke:none;stroke-width:1px;stroke-linecap:butt;stroke-linejoin:miter;stroke-opacity:1;font-family:DejaVu Sans;-inkscape-font-specification:DejaVu Sans Bold Semi-Condensed"
       d="M 33.000002,33.459106 L 33.308145,33.459106 L 33.308145,33.96439 L 33.761924,33.96439 L 33.761924,33.459106 L 34.069179,33.459106 L 34.069179,34.784921 L 33.761924,34.784921 L 33.761924,34.222804 L 33.308145,34.222804 L 33.308145,34.784921 L 33.000002,34.784921 L 33.000002,33.459106 M 34.237014,33.790338 L 34.523845,33.790338 L 34.764499,34.465233 L 34.968743,33.790338 L 35.254686,33.790338 L 34.878165,34.879051 C 34.840276,34.989757 34.796171,35.067015 34.74585,35.110824 C 34.695529,35.155225 34.629223,35.177425 34.546934,35.177426 L 34.380874,35.177426 L 34.380874,34.968741 L 34.470564,34.968741 C 34.519109,34.968741 34.554333,34.960157 34.576238,34.942988 C 34.598734,34.92582 34.616199,34.895035 34.628631,34.850634 L 34.636624,34.823106 L 34.237014,33.790338 M 35.420746,33.403161 L 35.706688,33.403161 L 35.706688,34.784921 L 35.420746,34.784921 L 35.420746,33.403161 M 35.985527,33.403161 L 36.271469,33.403161 L 36.271469,34.155314 L 36.600925,33.790338 L 36.933045,33.790338 L 36.496139,34.24678 L 36.967677,34.784921 L 36.620461,34.784921 L 36.271469,34.370215 L 36.271469,34.784921 L 35.985527,34.784921 L 35.985527,33.403161 M 37.919635,34.284965 L 37.919635,34.375543 L 37.250956,34.375543 C 37.257468,34.450137 37.281444,34.506083 37.322886,34.543379 C 37.364918,34.580676 37.423231,34.599325 37.497826,34.599324 C 37.55821,34.599325 37.61978,34.589556 37.682534,34.57002 C 37.745878,34.549891 37.810704,34.519699 37.87701,34.479442 L 37.87701,34.724535 C 37.80952,34.752952 37.741734,34.774265 37.673654,34.788473 C 37.606163,34.803273 37.538674,34.810673 37.471185,34.810673 C 37.308973,34.810673 37.182874,34.765088 37.092888,34.673918 C 37.003494,34.582156 36.958797,34.453689 36.958797,34.288517 C 36.958797,34.126306 37.002902,33.998727 37.091112,33.90578 C 37.179322,33.812835 37.300685,33.766362 37.455201,33.766361 C 37.596099,33.766362 37.708582,33.813427 37.792648,33.907556 C 37.877305,34.001687 37.919634,34.12749 37.919635,34.284965 M 37.625701,34.179291 C 37.6257,34.118906 37.609715,34.070361 37.577747,34.033655 C 37.54637,33.996359 37.504929,33.977711 37.453425,33.97771 C 37.398367,33.977711 37.353374,33.995175 37.318445,34.030103 C 37.284108,34.064441 37.2625,34.11417 37.25362,34.179291 L 37.625701,34.179291 M 39.193057,33.972382 C 39.241601,33.972383 39.278306,33.960542 39.303171,33.936861 C 39.328627,33.913182 39.341355,33.878253 39.341356,33.832075 C 39.341355,33.786491 39.328627,33.751858 39.303171,33.728176 C 39.278306,33.703905 39.241601,33.691769 39.193057,33.691767 L 39.023445,33.691767 L 39.023445,33.972382 L 39.193057,33.972382 M 39.203713,34.552259 C 39.265874,34.55226 39.312347,34.537755 39.343132,34.508746 C 39.374508,34.479738 39.390196,34.435929 39.390197,34.377319 C 39.390196,34.319894 39.374508,34.276974 39.343132,34.248556 C 39.312347,34.219548 39.265874,34.205044 39.203713,34.205043 L 39.023445,34.205043 L 39.023445,34.552259 L 39.203713,34.552259 M 39.489655,34.075392 C 39.55596,34.096706 39.607169,34.136074 39.643283,34.193499 C 39.679395,34.250925 39.697451,34.321374 39.697452,34.404848 C 39.697451,34.532723 39.658378,34.628037 39.580234,34.69079 C 39.502679,34.753544 39.384572,34.784921 39.225913,34.784921 L 38.715302,34.784921 L 38.715302,33.459106 L 39.177072,33.459106 C 39.342835,33.459107 39.462718,33.486932 39.536721,33.54258 C 39.611313,33.598231 39.64861,33.687329 39.648611,33.809874 C 39.64861,33.874405 39.634994,33.929462 39.607762,33.975046 C 39.581121,34.02004 39.541752,34.053489 39.489655,34.075392 M 40.375012,33.993694 C 40.311666,33.993695 40.263417,34.019152 40.230265,34.070064 C 40.197111,34.120386 40.180535,34.193204 40.180535,34.288517 C 40.180535,34.383832 40.197111,34.456946 40.230265,34.507858 C 40.263417,34.55818 40.311666,34.58334 40.375012,34.58334 C 40.437765,34.58334 40.485422,34.55818 40.517983,34.507858 C 40.551135,34.456946 40.567712,34.383832 40.567712,34.288517 C 40.567712,34.193204 40.551135,34.120386 40.517983,34.070064 C 40.485422,34.019152 40.437765,33.993695 40.375012,33.993694 M 40.375012,33.766361 C 40.529527,33.766362 40.650001,33.812539 40.736436,33.904892 C 40.822869,33.997247 40.866086,34.125122 40.866087,34.288517 C 40.866086,34.451913 40.822869,34.579788 40.736436,34.672142 C 40.650001,34.764496 40.529527,34.810673 40.375012,34.810673 C 40.221088,34.810673 40.100317,34.764496 40.0127,34.672142 C 39.925673,34.579788 39.88216,34.451913 39.882161,34.288517 C 39.88216,34.125122 39.925673,33.997247 40.0127,33.904892 C 40.100317,33.812539 40.221088,33.766362 40.375012,33.766361 M 41.975225,34.179291 L 41.975225,34.784921 L 41.687506,34.784921 L 41.687506,34.68635 L 41.687506,34.321374 C 41.687505,34.235533 41.685729,34.176331 41.682178,34.14377 C 41.678625,34.11121 41.672705,34.087233 41.664418,34.07184 C 41.653169,34.051121 41.637776,34.035136 41.618241,34.023887 C 41.599295,34.012048 41.577687,34.006127 41.553415,34.006127 C 41.493621,34.006127 41.446556,34.03188 41.41222,34.083385 C 41.378475,34.134298 41.361602,34.205044 41.361603,34.295621 L 41.361603,34.784921 L 41.07566,34.784921 L 41.07566,33.790338 L 41.361603,33.790338 L 41.361603,33.935973 C 41.404819,33.877957 41.4507,33.835332 41.499246,33.808098 C 41.54779,33.780274 41.601367,33.766362 41.659977,33.766361 C 41.762987,33.766362 41.841133,33.801587 41.894415,33.872036 C 41.948287,33.942486 41.975224,34.044904 41.975225,34.179291 M 42.939615,33.821418 L 42.939615,34.06296 C 42.878637,34.034544 42.819435,34.013232 42.762011,33.999023 C 42.705177,33.984815 42.6516,33.977711 42.601279,33.97771 C 42.546813,33.977711 42.506261,33.985407 42.47962,34.000799 C 42.453571,34.0156 42.440547,34.038688 42.440547,34.070064 C 42.440547,34.095521 42.450315,34.115058 42.469852,34.128674 C 42.48998,34.142291 42.526093,34.152355 42.578191,34.158866 L 42.62792,34.166858 C 42.774739,34.18758 42.873309,34.22162 42.923631,34.268981 C 42.974543,34.316342 42.999999,34.39064 43,34.491874 C 42.999999,34.597845 42.964775,34.67747 42.894326,34.730751 C 42.823876,34.784033 42.718793,34.810673 42.579079,34.810673 C 42.519877,34.810673 42.458603,34.805345 42.395258,34.794689 C 42.332505,34.784625 42.267975,34.769232 42.20167,34.748512 L 42.20167,34.50697 C 42.258503,34.537755 42.316816,34.560844 42.37661,34.576236 C 42.436995,34.591628 42.497972,34.599325 42.559542,34.599324 C 42.615191,34.599325 42.657224,34.59074 42.685641,34.573572 C 42.714057,34.556404 42.728265,34.530947 42.728266,34.497202 C 42.728265,34.468786 42.718497,34.447769 42.698961,34.434153 C 42.679424,34.419945 42.640648,34.408992 42.582631,34.401296 L 42.532014,34.394192 C 42.40473,34.376432 42.315336,34.343575 42.263831,34.295621 C 42.212918,34.247669 42.187462,34.174851 42.187462,34.077168 C 42.187462,33.971791 42.220022,33.893645 42.285144,33.842731 C 42.350265,33.791819 42.450019,33.766362 42.584407,33.766361 C 42.637095,33.766362 42.692449,33.770802 42.750467,33.779681 C 42.808483,33.788563 42.871533,33.802475 42.939615,33.821418"
       id="flowRoot9140" />
    <path
       style="opacity:1;fill:url(#linearGradient9194);fill-opacity:1;fill-rule:nonzero;stroke:none;stroke-width:1;stroke-linecap:square;stroke-linejoin:miter;marker:none;marker-start:none;marker-mid:none;marker-end:none;stroke-miterlimit:4;stroke-dasharray:none;stroke-dashoffset:0;stroke-opacity:1;visibility:visible;display:inline;overflow:visible;enable-background:accumulate"
       d="M 31 40 L 31 43 L 32 43 L 32 40 L 31 40 z M 33 40 L 33 43 L 35 43 L 35 40 L 33 40 z M 36 40 L 36 43 L 36.9375 43 L 36.9375 40 L 36 40 z M 38 40 L 38 43 L 40 43 L 40 40 L 38 40 z M 41.28125 40 C 41.168464 40 41.0625 40.105962 41.0625 40.21875 L 41.0625 42.78125 C 41.0625 42.894036 41.168462 43 41.28125 43 L 41.78125 43 C 41.894036 43 42 42.894038 42 42.78125 L 42 40.21875 C 42 40.105964 41.894038 40 41.78125 40 L 41.28125 40 z M 43.0625 40 L 43.0625 43 L 44 43 L 44 40 L 43.0625 40 z "
       id="rect9175" />
    <path
       style="font-size:40px;font-style:normal;font-variant:normal;font-weight:bold;font-stretch:semi-condensed;text-align:start;line-height:125%;writing-mode:lr-tb;text-anchor:start;fill:#000000;fill-opacity:1;stroke:none;stroke-width:1px;stroke-linecap:butt;stroke-linejoin:miter;stroke-opacity:1;font-family:DejaVu Sans;-inkscape-font-specification:DejaVu Sans Bold Semi-Condensed"
       d="M 33,35.766614 L 33.543122,35.766614 C 33.704956,35.766616 33.829008,35.806602 33.915279,35.886573 C 34.001548,35.965918 34.044683,36.079265 34.044684,36.226615 C 34.044683,36.374597 34.001548,36.488574 33.915279,36.568546 C 33.829008,36.64789 33.704956,36.687561 33.543122,36.687561 L 33.327762,36.687561 L 33.327762,37.176843 L 33,37.176843 L 33,35.766614 M 33.327762,36.030147 L 33.327762,36.424028 L 33.508174,36.424028 C 33.571773,36.424029 33.62089,36.407027 33.655525,36.373022 C 33.690158,36.338389 33.707475,36.289587 33.707476,36.226615 C 33.707475,36.163646 33.690158,36.115158 33.655525,36.081153 C 33.62089,36.04715 33.571773,36.030148 33.508174,36.030147 L 33.327762,36.030147 M 34.260044,36.118936 L 34.564192,36.118936 L 34.564192,37.176843 L 34.260044,37.176843 L 34.260044,36.118936 M 34.260044,35.707107 L 34.564192,35.707107 L 34.564192,35.982918 L 34.260044,35.982918 L 34.260044,35.707107 M 35.508753,36.273843 L 35.508753,35.707107 L 35.814791,35.707107 L 35.814791,37.176843 L 35.508753,37.176843 L 35.508753,37.023824 C 35.466561,37.086166 35.420278,37.131819 35.369903,37.160786 C 35.319525,37.189752 35.260962,37.204235 35.194214,37.204235 C 35.077088,37.204235 34.980743,37.152599 34.905178,37.049327 C 34.830243,36.945426 34.792776,36.811928 34.792776,36.648834 C 34.792776,36.48574 34.830243,36.352558 34.905178,36.249285 C 34.980743,36.145384 35.077088,36.093433 35.194214,36.093432 C 35.260333,36.093433 35.318581,36.108231 35.368958,36.137827 C 35.419963,36.166794 35.466561,36.212133 35.508753,36.273843 M 35.307561,36.95865 C 35.37305,36.95865 35.422797,36.932202 35.456802,36.879307 C 35.491435,36.826412 35.508752,36.749587 35.508753,36.648834 C 35.508752,36.548081 35.491435,36.471257 35.456802,36.418361 C 35.422797,36.365467 35.37305,36.339019 35.307561,36.339018 C 35.243331,36.339019 35.193899,36.365467 35.159265,36.418361 C 35.125261,36.471257 35.108259,36.548081 35.108259,36.648834 C 35.108259,36.749587 35.125261,36.826412 35.159265,36.879307 C 35.193899,36.932202 35.243331,36.95865 35.307561,36.95865 M 36.759351,36.997376 C 36.71716,37.059088 36.670876,37.104427 36.6205,37.133394 C 36.570123,37.16236 36.511561,37.176843 36.444812,37.176843 C 36.328946,37.176843 36.232915,37.126152 36.156721,37.024769 C 36.081156,36.922757 36.043374,36.793037 36.043374,36.63561 C 36.043374,36.477554 36.081156,36.348149 36.156721,36.247396 C 36.232915,36.146014 36.328946,36.095322 36.444812,36.095322 C 36.511561,36.095322 36.570123,36.109806 36.6205,36.138771 C 36.670876,36.167739 36.71716,36.213392 36.759351,36.275732 L 36.759351,36.118936 L 37.065388,36.118936 L 37.065388,37.070108 C 37.065387,37.240129 37.0169,37.369848 36.919926,37.459267 C 36.82358,37.549315 36.68347,37.594339 36.499597,37.594339 C 36.440404,37.594339 36.382786,37.589301 36.326742,37.579226 C 36.271327,37.56915 36.215599,37.553722 36.159555,37.532943 L 36.159555,37.26941 C 36.21308,37.303414 36.265345,37.328602 36.316352,37.344975 C 36.367358,37.361977 36.418679,37.370478 36.470315,37.370478 C 36.569809,37.370478 36.642854,37.346234 36.689453,37.297747 C 36.736051,37.24926 36.75935,37.17338 36.759351,37.070108 L 36.759351,36.997376 M 36.55816,36.339018 C 36.495188,36.339019 36.446071,36.364837 36.410808,36.416472 C 36.376174,36.468108 36.358857,36.541155 36.358857,36.63561 C 36.358857,36.732585 36.375859,36.806261 36.409864,36.856637 C 36.443867,36.906384 36.493299,36.931257 36.55816,36.931257 C 36.621759,36.931257 36.671191,36.90544 36.706456,36.853803 C 36.741718,36.802168 36.75935,36.729437 36.759351,36.63561 C 36.75935,36.541155 36.741718,36.468108 36.706456,36.416472 C 36.671191,36.364837 36.621759,36.339019 36.55816,36.339018 M 37.36198,36.118936 L 37.666129,36.118936 L 37.666129,37.176843 L 37.36198,37.176843 L 37.36198,36.118936 M 37.36198,35.707107 L 37.666129,35.707107 L 37.666129,35.982918 L 37.36198,35.982918 L 37.36198,35.707107 M 38.919561,36.532653 L 38.919561,37.176843 L 38.613523,37.176843 L 38.613523,37.071997 L 38.613523,36.683783 C 38.613522,36.592476 38.611633,36.529505 38.607856,36.494871 C 38.604077,36.460237 38.597779,36.434734 38.588965,36.418361 C 38.577,36.396322 38.560627,36.37932 38.539847,36.367355 C 38.519696,36.354762 38.496712,36.348464 38.470894,36.348464 C 38.407293,36.348464 38.357232,36.375857 38.320709,36.43064 C 38.284816,36.484796 38.266869,36.560046 38.266869,36.65639 L 38.266869,37.176843 L 37.962721,37.176843 L 37.962721,36.118936 L 38.266869,36.118936 L 38.266869,36.273843 C 38.312838,36.212133 38.36164,36.166794 38.413276,36.137827 C 38.464912,36.108231 38.5219,36.093433 38.584242,36.093432 C 38.69381,36.093433 38.776931,36.130901 38.833606,36.205835 C 38.890908,36.280771 38.91956,36.38971 38.919561,36.532653"
       id="flowRoot9198" />
  </g>
</svg>
