/* XPM */
static char * tb_drag_arrow_up_xpm[] = {
"13 16 13 1",
" 	c None",
".	c #B80000",
"+	c #F02F2F",
"@	c #E87676",
"#	c #E78383",
"$	c #E56A6A",
"%	c #ED9191",
"&	c #F05757",
"*	c #E79F9F",
"=	c #E54545",
"-	c #EDAFAF",
";	c #D23333",
">	c #E40E0E",
"      .      ",
"     +@.     ",
"    +#@$.    ",
"   +%#@$&.   ",
"  +*%#@$&=.  ",
" +-*%#@$&=;. ",
">>>>+#@$>>>>.",
"    +#@$.    ",
"    +#@$.    ",
"    +#@$.    ",
"    +#@$.    ",
"    +#@$.    ",
"    +#@$.    ",
"    +#@$.    ",
"    +#@$.    ",
"    >>>>.    "};
