/* XPM */
static char * tb_drag_arrow_down_xpm[] = {
"13 16 13 1",
" 	g None",
".	g #E40E0E",
"+	g #B80000",
"@	g #F02F2F",
"#	g #E78383",
"$	g #E87676",
"%	g #E56A6A",
"&	g #EDAFAF",
"*	g #E79F9F",
"=	g #ED9191",
"-	g #F05757",
";	g #E54545",
">	g #D23333",
"    ....+    ",
"    @#$%+    ",
"    @#$%+    ",
"    @#$%+    ",
"    @#$%+    ",
"    @#$%+    ",
"    @#$%+    ",
"    @#$%+    ",
"    @#$%+    ",
"....@#$%....+",
" @&*=#$%-;>+ ",
"  @*=#$%-;+  ",
"   @=#$%-+   ",
"    @#$%+    ",
"     @$+     ",
"      +      "};
