<?xml version="1.0" encoding="UTF-8" standalone="no"?>
<!-- Created with Inkscape (http://www.inkscape.org/) -->
<svg
   xmlns:dc="http://purl.org/dc/elements/1.1/"
   xmlns:cc="http://web.resource.org/cc/"
   xmlns:rdf="http://www.w3.org/1999/02/22-rdf-syntax-ns#"
   xmlns:svg="http://www.w3.org/2000/svg"
   xmlns="http://www.w3.org/2000/svg"
   xmlns:xlink="http://www.w3.org/1999/xlink"
   xmlns:sodipodi="http://inkscape.sourceforge.net/DTD/s odipodi-0.dtd"
   xmlns:inkscape="http://www.inkscape.org/namespaces/inkscape"
   width="24"
   height="24"
   id="svg2"
   sodipodi:version="0.32"
   inkscape:version="0.43"
   version="1.0"
   sodipodi:docbase="/home/hbons/Desktop/Gaim Refresh/emotes/scalable"
   sodipodi:docname="airplane.svg"
   inkscape:export-filename="/home/hbons/Desktop/Gaim Refresh/emotes/airplane.png"
   inkscape:export-xdpi="90"
   inkscape:export-ydpi="90">
  <defs
     id="defs4">
    <linearGradient
       inkscape:collect="always"
       id="linearGradient2213">
      <stop
         style="stop-color:#eeeeec;stop-opacity:1;"
         offset="0"
         id="stop2215" />
      <stop
         style="stop-color:#eeeeec;stop-opacity:0;"
         offset="1"
         id="stop2217" />
    </linearGradient>
    <linearGradient
       inkscape:collect="always"
       xlink:href="#linearGradient2213"
       id="linearGradient2219"
       x1="10.209924"
       y1="2.1092532"
       x2="10.209924"
       y2="17.195154"
       gradientUnits="userSpaceOnUse" />
  </defs>
  <sodipodi:namedview
     id="base"
     pagecolor="#ffffff"
     bordercolor="#666666"
     borderopacity="1.0"
     inkscape:pageopacity="0.0"
     inkscape:pageshadow="2"
     inkscape:zoom="15.839192"
     inkscape:cx="22.906096"
     inkscape:cy="16.707667"
     inkscape:document-units="px"
     inkscape:current-layer="layer1"
     showgrid="true"
     fill="#75507b"
     inkscape:window-width="1268"
     inkscape:window-height="971"
     inkscape:window-x="6"
     inkscape:window-y="21" />
  <metadata
     id="metadata7">
    <rdf:RDF>
      <cc:Work
         rdf:about="">
        <dc:format>image/svg+xml</dc:format>
        <dc:type
           rdf:resource="http://purl.org/dc/dcmitype/StillImage" />
      </cc:Work>
    </rdf:RDF>
  </metadata>
  <g
     inkscape:label="Layer 1"
     inkscape:groupmode="layer"
     id="layer1">
    <path
       style="fill:#555753;fill-opacity:1;fill-rule:evenodd;stroke:none;stroke-width:1.00000048;stroke-miterlimit:4;stroke-opacity:1"
       d="M 5.7376571,2.4992571 C 6.8386253,5.4843976 7.9395935,8.4695381 9.0405617,11.454679 C 7.274858,11.454679 5.5091543,11.454679 3.7434506,11.454679 C 3.0371692,10.508171 1.9975602,9.2539759 1.2912788,8.3074681 C 2.0693231,9.593114 2.6099576,11.034278 2.5483529,12.503556 C 2.5666572,14.050859 1.9297462,15.364699 1.3717656,16.793622 C 2.1611389,15.493474 3.0787152,14.783059 3.8680885,13.482911 C 5.6026327,13.482911 7.3371769,13.482911 9.0717211,13.482911 C 7.9603664,16.488854 6.8490117,19.494797 5.7376571,22.50074 C 6.7567215,22.50074 7.7757859,22.50074 8.7948503,22.50074 C 10.644948,19.494797 12.495046,16.488854 14.345144,13.482911 C 16.764743,13.478232 19.184751,13.492295 21.604092,13.475835 C 22.6426,13.429228 22.81982,11.733359 21.784787,11.517086 C 20.708932,11.3826 19.608309,11.488268 18.522104,11.454679 C 17.076664,11.454679 15.631223,11.454679 14.185782,11.454679 C 12.388805,8.4695381 10.591828,5.4843976 8.7948503,2.4992571 C 7.7757859,2.4992571 6.7567215,2.4992571 5.7376571,2.4992571 z "
       id="path2203"
       sodipodi:nodetypes="ccccccccccccccccc" />
    <path
       style="fill:#75507b;fill-opacity:1;fill-rule:evenodd;stroke:#5c3566;stroke-width:1.00000072;stroke-miterlimit:4;stroke-opacity:1"
       d="M 5.7376571,2.4999827 C 6.8386253,5.4849112 7.9395935,8.4698398 9.0405617,11.454769 C 7.274858,11.454769 5.5091543,11.454769 3.7434506,11.454769 C 3.0371692,10.508328 1.9975602,9.2542219 1.2912788,8.3077813 C 2.0693231,9.5933359 2.6099576,11.034397 2.5483529,12.503571 C 2.5666572,14.050765 1.9297462,15.364511 1.3717656,16.793333 C 2.1611389,15.493277 3.0787152,14.782912 3.8680885,13.482857 C 5.6026327,13.482857 7.3371769,13.482857 9.0717211,13.482857 C 7.9603664,16.488586 6.8490117,19.494316 5.7376571,22.500046 C 6.7567215,22.500046 7.7757859,22.500046 8.7948503,22.500046 C 10.644948,19.494316 12.495046,16.488586 14.345144,13.482857 C 16.764743,13.478178 19.184751,13.49224 21.604092,13.475781 C 22.6426,13.429177 22.81982,11.733429 21.784787,11.517171 C 20.708932,11.382695 19.608309,11.488355 18.522104,11.454769 C 17.076664,11.454769 15.631223,11.454769 14.185782,11.454769 C 12.388805,8.4698398 10.591828,5.4849112 8.7948503,2.4999827 C 7.7757859,2.4999827 6.7567215,2.4999827 5.7376571,2.4999827 z "
       id="rect1317"
       sodipodi:nodetypes="ccccccccccccccccc" />
    <path
       sodipodi:type="inkscape:offset"
       inkscape:radius="-0.95919794"
       inkscape:original="M 5.75 2.5 C 6.8509682 5.4849286 7.9302818 8.4838208 9.03125 11.46875 C 7.2655463 11.46875 5.5157037 11.46875 3.75 11.46875 C 3.0437186 10.522309 1.9875314 9.2589406 1.28125 8.3125 C 2.0592943 9.5980547 2.6241047 11.030826 2.5625 12.5 C 2.5808042 14.047194 1.9329806 15.352428 1.375 16.78125 C 2.1643733 15.481194 3.0856267 14.768805 3.875 13.46875 C 5.6095442 13.46875 7.3279558 13.46875 9.0625 13.46875 C 7.9511453 16.474479 6.8613546 19.49427 5.75 22.5 C 6.7690644 22.5 7.7621856 22.5 8.78125 22.5 C 10.631348 19.49427 12.493652 16.474479 14.34375 13.46875 C 16.763349 13.464071 19.174409 13.485209 21.59375 13.46875 C 22.632258 13.422146 22.816283 11.747508 21.78125 11.53125 C 20.705396 11.396774 19.617455 11.502336 18.53125 11.46875 C 17.08581 11.46875 15.632941 11.46875 14.1875 11.46875 C 12.390523 8.4838207 10.578228 5.4849285 8.78125 2.5 C 7.7621856 2.5000001 6.7690644 2.5 5.75 2.5 z "
       xlink:href="#rect1317"
       style="fill:url(#linearGradient2219);fill-opacity:1;fill-rule:evenodd;stroke:#ffffff;stroke-width:1.00000048;stroke-miterlimit:4;stroke-opacity:1;opacity:0.5"
       id="path2221"
       inkscape:href="#rect1317"
       d="M 7.125,3.46875 C 8.0617422,6.023949 8.9986769,8.5794959 9.9375,11.125 C 10.055469,11.422785 10.017032,11.759802 9.8350402,12.023376 C 9.6530483,12.28695 9.3515146,12.442305 9.03125,12.4375 C 7.2655463,12.4375 5.5157037,12.4375 3.75,12.4375 C 3.664235,12.428005 3.5801431,12.406982 3.5,12.375 C 3.4993007,12.418931 3.5328754,12.455891 3.53125,12.5 C 3.5313822,12.511177 3.5311746,12.520102 3.53125,12.53125 C 3.5313254,12.542398 3.531231,12.55138 3.53125,12.5625 C 3.6410414,12.5208 3.7575569,12.499615 3.875,12.5 C 5.6095442,12.5 7.3279558,12.5 9.0625,12.5 C 9.3827646,12.495195 9.6842983,12.65055 9.8662902,12.914124 C 10.048282,13.177698 10.086719,13.514715 9.96875,13.8125 C 9.0198759,16.378973 8.0718228,18.955124 7.125,21.53125 C 7.4984367,21.53125 7.874574,21.53125 8.25,21.53125 C 10.006158,18.678531 11.776798,15.819292 13.53125,12.96875 C 13.702015,12.681712 14.009782,12.504153 14.34375,12.5 C 16.738792,12.495368 19.121733,12.515234 21.5,12.5 C 21.505938,12.485557 21.497759,12.490534 21.5,12.46875 C 20.599334,12.37696 19.610229,12.471832 18.5,12.4375 C 17.05456,12.4375 15.632941,12.4375 14.1875,12.4375 C 13.853532,12.433347 13.545765,12.255788 13.375,11.96875 C 11.672387,9.1403665 9.9551136,6.300149 8.25,3.46875 C 7.874574,3.46875 7.4984367,3.46875 7.125,3.46875 z " />
  </g>
</svg>
