<?xml version="1.0" encoding="UTF-8" standalone="no"?>
<!-- Created with Inkscape (http://www.inkscape.org/) -->
<svg
   xmlns:dc="http://purl.org/dc/elements/1.1/"
   xmlns:cc="http://creativecommons.org/ns#"
   xmlns:rdf="http://www.w3.org/1999/02/22-rdf-syntax-ns#"
   xmlns:svg="http://www.w3.org/2000/svg"
   xmlns="http://www.w3.org/2000/svg"
   xmlns:xlink="http://www.w3.org/1999/xlink"
   xmlns:sodipodi="http://sodipodi.sourceforge.net/DTD/sodipodi-0.dtd"
   xmlns:inkscape="http://www.inkscape.org/namespaces/inkscape"
   width="24"
   height="24"
   id="svg2"
   sodipodi:version="0.32"
   inkscape:version="0.46"
   version="1.0"
   sodipodi:docbase="/home/hbons/Desktop/Gaim Refresh/emotes/scalable"
   sodipodi:docname="airplane.svg"
   inkscape:export-filename="/home/hbons/Bureaublad/Projecten/Pidgin objecten voor 2.5.0/bitmaps/airplane.png"
   inkscape:export-xdpi="90"
   inkscape:export-ydpi="90"
   inkscape:output_extension="org.inkscape.output.svg.inkscape">
  <defs
     id="defs4">
    <linearGradient
       inkscape:collect="always"
       id="linearGradient3167">
      <stop
         style="stop-color:#ffffff;stop-opacity:1;"
         offset="0"
         id="stop3169" />
      <stop
         style="stop-color:#ffffff;stop-opacity:0;"
         offset="1"
         id="stop3171" />
    </linearGradient>
    <linearGradient
       inkscape:collect="always"
       id="linearGradient3159">
      <stop
         style="stop-color:#6f407c;stop-opacity:1"
         offset="0"
         id="stop3161" />
      <stop
         style="stop-color:#412549;stop-opacity:1"
         offset="1"
         id="stop3163" />
    </linearGradient>
    <linearGradient
       inkscape:collect="always"
       id="linearGradient2213">
      <stop
         style="stop-color:#eeeeec;stop-opacity:1;"
         offset="0"
         id="stop2215" />
      <stop
         style="stop-color:#eeeeec;stop-opacity:0;"
         offset="1"
         id="stop2217" />
    </linearGradient>
    <linearGradient
       inkscape:collect="always"
       xlink:href="#linearGradient2213"
       id="linearGradient2219"
       x1="9.3876495"
       y1="-0.99508059"
       x2="12.516719"
       y2="14.09082"
       gradientUnits="userSpaceOnUse" />
    <linearGradient
       inkscape:collect="always"
       xlink:href="#linearGradient3167"
       id="linearGradient3173"
       x1="-3.5158854"
       y1="0.22303239"
       x2="15.393333"
       y2="27.021669"
       gradientUnits="userSpaceOnUse" />
    <linearGradient
       inkscape:collect="always"
       xlink:href="#linearGradient3159"
       id="linearGradient3194"
       gradientUnits="userSpaceOnUse"
       x1="10.640265"
       y1="8.0276327"
       x2="13.971762"
       y2="15.035565" />
  </defs>
  <sodipodi:namedview
     id="base"
     pagecolor="#ffffff"
     bordercolor="#666666"
     borderopacity="1.0"
     inkscape:pageopacity="0.0"
     inkscape:pageshadow="2"
     inkscape:zoom="15.839192"
     inkscape:cx="18.682391"
     inkscape:cy="15.767903"
     inkscape:document-units="px"
     inkscape:current-layer="layer1"
     showgrid="true"
     fill="#75507b"
     inkscape:window-width="1440"
     inkscape:window-height="848"
     inkscape:window-x="0"
     inkscape:window-y="0"
     inkscape:snap-bbox="true"
     inkscape:snap-nodes="false"
     objecttolerance="10"
     gridtolerance="10">
    <inkscape:grid
       type="xygrid"
       id="grid2387"
       visible="true"
       enabled="true" />
  </sodipodi:namedview>
  <metadata
     id="metadata7">
    <rdf:RDF>
      <cc:Work
         rdf:about="">
        <dc:format>image/svg+xml</dc:format>
        <dc:type
           rdf:resource="http://purl.org/dc/dcmitype/StillImage" />
      </cc:Work>
    </rdf:RDF>
  </metadata>
  <g
     inkscape:label="Layer 1"
     inkscape:groupmode="layer"
     id="layer1">
    <path
       style="fill:#555753;fill-opacity:1;fill-rule:evenodd;stroke:none;stroke-width:1.00000048;stroke-miterlimit:4;stroke-opacity:1"
       d="M 5.737657,1.4992551 C 6.8386252,4.4843956 7.9395934,7.4695361 9.0405616,10.454677 C 7.2748579,10.454677 5.5091542,10.454677 3.7434505,10.454677 C 3.0371691,9.508169 1.9975601,8.2539739 1.2912787,7.3074661 C 2.069323,8.593112 2.6099575,10.034276 2.5483528,11.503554 C 2.5666571,13.050857 1.9297461,14.364697 1.3717655,15.79362 C 2.1611388,14.493472 3.0787151,13.783057 3.8680884,12.482909 C 5.6026326,12.482909 7.3371768,12.482909 9.071721,12.482909 C 7.9603663,15.488852 6.8490116,18.494795 5.737657,21.500738 C 6.7567214,21.500738 7.7757858,21.500738 8.7948502,21.500738 C 10.644948,18.494795 12.495046,15.488852 14.345144,12.482909 C 16.764743,12.47823 19.184751,12.492293 21.604092,12.475833 C 22.6426,12.429226 22.81982,10.733357 21.784787,10.517084 C 20.708932,10.382598 19.608309,10.488266 18.522104,10.454677 C 17.076664,10.454677 15.631223,10.454677 14.185782,10.454677 C 12.388805,7.4695361 10.591828,4.4843956 8.7948502,1.4992551 C 7.7757858,1.4992551 6.7567214,1.4992551 5.737657,1.4992551 z"
       id="path2203"
       sodipodi:nodetypes="ccccccccccccccccc" />
    <path
       style="fill:#75507b;fill-opacity:1;fill-rule:evenodd;stroke:url(#linearGradient3194);stroke-width:1.00000119000000010;stroke-miterlimit:4;stroke-opacity:1"
       d="M 5.74232,1.5000006 C 6.8444428,4.4849291 7.9465655,7.4698577 9.0486882,10.454787 C 7.2811329,10.454787 5.5135775,10.454787 3.7460221,10.454787 C 3.0390001,9.508346 1.9983009,8.2542398 1.2912787,7.3077992 C 2.070139,8.5933538 2.6113404,10.034415 2.5496711,11.503589 C 2.5679946,13.050783 1.9304157,14.364529 1.37185,15.793351 C 2.1620511,14.493295 3.0805896,13.78293 3.8707907,12.482875 C 5.6071539,12.482875 7.3435172,12.482875 9.0798804,12.482875 C 7.9673602,15.488604 6.8548401,18.494334 5.74232,21.500064 C 6.762453,21.500064 7.7825861,21.500064 8.8027192,21.500064 C 10.654758,18.494334 12.506796,15.488604 14.358833,12.482875 C 16.78097,12.478196 19.203515,12.492258 21.625394,12.475799 C 22.664991,12.429195 22.842397,10.733447 21.806278,10.517189 C 20.729295,10.382713 19.627518,10.488373 18.540174,10.454787 C 17.093218,10.454787 15.646261,10.454787 14.199304,10.454787 C 12.400443,7.4698577 10.601582,4.4849291 8.8027192,1.5000006 C 7.7825861,1.5000006 6.762453,1.5000006 5.74232,1.5000006 z"
       id="rect1317"
       sodipodi:nodetypes="ccccccccccccccccc" />
    <path
       sodipodi:type="inkscape:offset"
       inkscape:radius="-0.95919794"
       inkscape:original="M 5.75 1.5 C 6.8521227 4.4849285 7.9603773 7.4838207 9.0625 10.46875 C 7.294945 10.46875 5.5175554 10.46875 3.75 10.46875 C 3.0429781 9.5223087 1.9882722 8.2589406 1.28125 7.3125 C 2.0601103 8.5980545 2.6241693 10.030826 2.5625 11.5 C 2.5808234 13.047194 1.9335657 14.352428 1.375 15.78125 C 2.1652011 14.481194 3.0847989 13.768805 3.875 12.46875 C 5.6113632 12.46875 7.3573868 12.46875 9.09375 12.46875 C 7.9812295 15.474479 6.8625201 18.49427 5.75 21.5 C 6.7701329 21.499999 7.7923669 21.5 8.8125 21.5 C 10.664539 18.494269 12.491713 15.474479 14.34375 12.46875 C 16.765887 12.464071 19.203121 12.485209 21.625 12.46875 C 22.664596 12.422146 22.848619 10.747508 21.8125 10.53125 C 20.735517 10.396774 19.618594 10.502336 18.53125 10.46875 C 17.084294 10.46875 15.634457 10.46875 14.1875 10.46875 C 12.388639 7.4838204 10.611363 4.4849285 8.8125 1.5 C 7.792367 1.5 6.770133 1.5 5.75 1.5 z "
       xlink:href="#rect1317"
       style="opacity:1;fill:url(#linearGradient2219);fill-opacity:1;fill-rule:evenodd;stroke:url(#linearGradient3173);stroke-width:1.00266575999999996;stroke-miterlimit:4;stroke-opacity:1"
       id="path2221"
       inkscape:href="#rect1317"
       d="M 7.15625,2.46875 C 8.0977503,5.0180925 9.028468,7.5783912 9.96875,10.125 C 10.086719,10.422785 10.048282,10.759802 9.8662902,11.023376 C 9.6842983,11.28695 9.3827646,11.442305 9.0625,11.4375 C 7.294945,11.4375 5.5175554,11.4375 3.75,11.4375 C 3.664235,11.428005 3.5801431,11.406982 3.5,11.375 C 3.4992978,11.418923 3.5328773,11.4559 3.53125,11.5 C 3.5313823,11.511175 3.5311745,11.520104 3.53125,11.53125 C 3.5313255,11.542396 3.5312308,11.551382 3.53125,11.5625 C 3.6410414,11.5208 3.7575569,11.499615 3.875,11.5 C 5.6113632,11.5 7.3573868,11.5 9.09375,11.5 C 9.4140146,11.495195 9.7155483,11.65055 9.8975402,11.914124 C 10.079532,12.177698 10.117969,12.514715 10,12.8125 C 9.0496699,15.380034 8.1078035,17.960975 7.15625,20.53125 C 7.5313762,20.53125 7.906286,20.53125 8.28125,20.53125 C 10.03308,17.683098 11.772234,14.823512 13.53125,11.96875 C 13.702015,11.681712 14.009782,11.504153 14.34375,11.5 C 16.741436,11.495368 19.14978,11.515238 21.53125,11.5 C 21.537167,11.485618 21.529019,11.490441 21.53125,11.46875 C 20.628157,11.376902 19.612269,11.471856 18.5,11.4375 C 17.053044,11.4375 15.634457,11.4375 14.1875,11.4375 C 13.853532,11.433347 13.545765,11.255788 13.375,10.96875 C 11.667879,8.1360483 9.9819742,5.2955082 8.28125,2.46875 C 7.9062859,2.46875 7.5313761,2.46875 7.15625,2.46875 z"
       transform="matrix(0.9981446,0,0,0.9965398,6.5050177e-3,3.9792738e-2)" />
  </g>
</svg>
