<?xml version="1.0" encoding="UTF-8" standalone="no"?>
<!-- Created with Inkscape (http://www.inkscape.org/) -->
<svg
   xmlns:dc="http://purl.org/dc/elements/1.1/"
   xmlns:cc="http://web.resource.org/cc/"
   xmlns:rdf="http://www.w3.org/1999/02/22-rdf-syntax-ns#"
   xmlns:svg="http://www.w3.org/2000/svg"
   xmlns="http://www.w3.org/2000/svg"
   xmlns:xlink="http://www.w3.org/1999/xlink"
   xmlns:sodipodi="http://sodipodi.sourceforge.net/DTD/sodipodi-0.dtd"
   xmlns:inkscape="http://www.inkscape.org/namespaces/inkscape"
   width="24"
   height="24"
   id="svg2"
   sodipodi:version="0.32"
   inkscape:version="0.45.1"
   version="1.0"
   sodipodi:docbase="/home/hbons/Desktop/untitled folder 1"
   sodipodi:docname="new-style-arrogant.svg"
   inkscape:export-filename="/home/hbons/Desktop/newstyle.png"
   inkscape:export-xdpi="90"
   inkscape:export-ydpi="90"
   inkscape:output_extension="org.inkscape.output.svg.inkscape">
  <defs
     id="defs4">
    <linearGradient
       inkscape:collect="always"
       id="linearGradient3104">
      <stop
         style="stop-color:#eeeeec;stop-opacity:1;"
         offset="0"
         id="stop3106" />
      <stop
         style="stop-color:#eeeeec;stop-opacity:0;"
         offset="1"
         id="stop3108" />
    </linearGradient>
    <radialGradient
       inkscape:collect="always"
       xlink:href="#linearGradient3104"
       id="radialGradient3114"
       cx="8.3343515"
       cy="14.186539"
       fx="8.3343515"
       fy="14.186539"
       r="9.975256"
       gradientUnits="userSpaceOnUse"
       gradientTransform="matrix(-0.9327,0.932656,-0.947494,-0.947449,33.02126,11.96667)" />
    <filter
       inkscape:collect="always"
       x="-0.27879594"
       width="1.5575919"
       y="-0.78248726"
       height="2.5649745"
       id="filter3405">
      <feGaussianBlur
         inkscape:collect="always"
         stdDeviation="1.5438116"
         id="feGaussianBlur3407" />
    </filter>
    <radialGradient
       gradientUnits="userSpaceOnUse"
       gradientTransform="matrix(-0.842757,0,0,-0.35721,19.80716,14.19321)"
       r="6.6449099"
       fy="10.457643"
       fx="10.748654"
       cy="10.457643"
       cx="10.748654"
       id="radialGradient3156"
       xlink:href="#linearGradient3150"
       inkscape:collect="always" />
    <radialGradient
       gradientTransform="matrix(-0.9327,0.932656,-0.947494,-0.947449,33.02126,11.96667)"
       gradientUnits="userSpaceOnUse"
       r="9.975256"
       fy="14.186539"
       fx="8.3343515"
       cy="14.186539"
       cx="8.3343515"
       id="radialGradient2203"
       xlink:href="#linearGradient3104"
       inkscape:collect="always" />
    <linearGradient
       id="linearGradient3150"
       inkscape:collect="always">
      <stop
         id="stop3152"
         offset="0"
         style="stop-color:#2e3436;stop-opacity:1;" />
      <stop
         id="stop3154"
         offset="1"
         style="stop-color:#2e3436;stop-opacity:0;" />
    </linearGradient>
    <radialGradient
       inkscape:collect="always"
       xlink:href="#linearGradient3104"
       id="radialGradient2220"
       gradientUnits="userSpaceOnUse"
       gradientTransform="matrix(-0.9327,0.932656,-0.947494,-0.947449,33.02126,11.96667)"
       cx="8.3343515"
       cy="14.186539"
       fx="8.3343515"
       fy="14.186539"
       r="9.975256" />
  </defs>
  <sodipodi:namedview
     id="base"
     pagecolor="#ffffff"
     bordercolor="#666666"
     borderopacity="1.0"
     inkscape:pageopacity="0.0"
     inkscape:pageshadow="2"
     inkscape:zoom="22.4"
     inkscape:cx="26.111884"
     inkscape:cy="11.540302"
     inkscape:document-units="px"
     inkscape:current-layer="layer1"
     showgrid="true"
     fill="#fce94f"
     inkscape:window-width="1440"
     inkscape:window-height="845"
     inkscape:window-x="0"
     inkscape:window-y="0" />
  <metadata
     id="metadata7">
    <rdf:RDF>
      <cc:Work
         rdf:about="">
        <dc:format>image/svg+xml</dc:format>
        <dc:type
           rdf:resource="http://purl.org/dc/dcmitype/StillImage" />
      </cc:Work>
    </rdf:RDF>
  </metadata>
  <g
     inkscape:label="Layer 1"
     inkscape:groupmode="layer"
     id="layer1">
    <path
       sodipodi:type="arc"
       style="opacity:0.64044944;fill:#2e3436;fill-opacity:1;stroke:none;stroke-width:1;stroke-miterlimit:4;stroke-dasharray:none;stroke-opacity:1;filter:url(#filter3405)"
       id="path3140"
       sodipodi:cx="10.748654"
       sodipodi:cy="10.457643"
       sodipodi:rx="6.6449099"
       sodipodi:ry="2.3675451"
       d="M 17.393564 10.457643 A 6.6449099 2.3675451 0 1 1  4.1037445,10.457643 A 6.6449099 2.3675451 0 1 1  17.393564 10.457643 z"
       transform="matrix(1.2039291,0,0,1.055946,-0.9406174,8.4572942)" />
    <path
       sodipodi:type="arc"
       style="opacity:1;fill:#edd400;fill-opacity:1;stroke:#cc6400;stroke-width:1.05276573;stroke-miterlimit:4;stroke-dasharray:none;stroke-opacity:1"
       id="path1307"
       sodipodi:cx="11.806158"
       sodipodi:cy="10.983024"
       sodipodi:rx="9.975256"
       sodipodi:ry="9.975256"
       d="M 21.781414 10.983024 A 9.975256 9.975256 0 1 1  1.8309021,10.983024 A 9.975256 9.975256 0 1 1  21.781414 10.983024 z"
       transform="matrix(0.952236,0,0,0.952236,0.757713,1.541608)" />
    <path
       sodipodi:type="arc"
       style="opacity:0.79545455;fill:url(#radialGradient3114);fill-opacity:1.0;stroke:none;stroke-width:1.05274069;stroke-miterlimit:4;stroke-dasharray:none;stroke-opacity:1"
       id="path3102"
       sodipodi:cx="11.806158"
       sodipodi:cy="10.983024"
       sodipodi:rx="9.975256"
       sodipodi:ry="9.975256"
       d="M 21.781414 10.983024 A 9.975256 9.975256 0 1 1  1.8309021,10.983024 A 9.975256 9.975256 0 1 1  21.781414 10.983024 z"
       transform="matrix(0.8019,0,0,0.801938,2.532654,3.191833)" />
    <path
       sodipodi:type="arc"
       style="opacity:0.64044944;fill:none;fill-opacity:1.0;stroke:#ffffff;stroke-width:1.17343897;stroke-miterlimit:4;stroke-dasharray:none;stroke-opacity:1"
       id="path2184"
       sodipodi:cx="11.806158"
       sodipodi:cy="10.983024"
       sodipodi:rx="9.975256"
       sodipodi:ry="9.975256"
       d="M 21.781414 10.983024 A 9.975256 9.975256 0 1 1  1.8309021,10.983024 A 9.975256 9.975256 0 1 1  21.781414 10.983024 z"
       transform="matrix(0.852176,0,0,0.852216,1.93909,2.639626)" />
    <path
       style="fill:#ce5c00;fill-opacity:1;stroke:none;stroke-width:1;stroke-miterlimit:4;stroke-dasharray:none;stroke-opacity:1"
       d="M 16.064244,14 C 18.224115,11.368995 16.403819,10 14,10 C 11.596182,10 9.586481,11.716235 9,14 C 10.053747,12.521189 11.904443,10.955598 14,10.955598 C 16.095556,10.955597 16.872966,11.542604 16.064244,14 z "
       id="path2216"
       sodipodi:nodetypes="cscsc" />
    <path
       style="fill:#2e3436;fill-opacity:1;stroke:none;stroke-width:1;stroke-miterlimit:4;stroke-dasharray:none;stroke-opacity:1"
       d="M 12.353943,8.9444382 C 12.317838,8.9573954 12.249311,8.9702893 12.211517,8.9785595 C 12.160429,8.9875371 12.061325,8.9990577 12.007729,9.0000001 C 11.317269,8.9869198 10.431766,8.3296175 9.8453168,7.3138572 C 9.7878218,7.2142729 9.7273678,7.1254534 9.6786648,7.0252075 C 10.174211,7.6809217 10.940182,7.9826609 11.544908,7.823958 C 11.593343,7.8095429 11.681392,7.7873144 11.727864,7.7664362 C 11.750824,7.7551766 11.786554,7.7325517 11.808927,7.7196347 C 11.831301,7.7067172 11.868758,7.6870876 11.889989,7.6728332 C 11.931306,7.6430264 11.994581,7.5778879 12.031283,7.543149 C 12.471086,7.0987929 12.592759,6.2845717 12.272666,5.5275595 C 12.335131,5.6198604 12.381823,5.7166249 12.439318,5.8162092 C 13.025768,6.8319695 13.152258,7.9274883 12.818355,8.5319851 C 12.79074,8.5779297 12.731211,8.6579961 12.697893,8.6977505 C 12.663147,8.7358782 12.597057,8.7961401 12.556599,8.8274347 C 12.535656,8.8421888 12.49791,8.8613187 12.475536,8.8742362 C 12.453163,8.8871532 12.417722,8.9102778 12.394474,8.9210377 C 12.382641,8.9258854 12.365977,8.9401205 12.353943,8.9444382 z "
       id="path4668" />
    <path
       style="fill:#2e3436;fill-opacity:1;stroke:none;stroke-width:1;stroke-miterlimit:4;stroke-dasharray:none;stroke-opacity:1"
       d="M 16.353943,8.9444382 C 16.317838,8.9573954 16.249311,8.9702893 16.211517,8.9785595 C 16.160429,8.9875371 16.061325,8.9990577 16.007729,9.0000001 C 15.317269,8.9869198 14.431766,8.3296175 13.845316,7.3138572 C 13.787821,7.2142729 13.727367,7.1254534 13.678664,7.0252075 C 14.17421,7.6809217 14.940182,7.9826609 15.544908,7.823958 C 15.593343,7.8095429 15.681392,7.7873144 15.727864,7.7664362 C 15.750824,7.7551766 15.786554,7.7325517 15.808927,7.7196347 C 15.831301,7.7067172 15.868758,7.6870876 15.889989,7.6728332 C 15.931306,7.6430264 15.994581,7.5778879 16.031283,7.543149 C 16.471086,7.0987929 16.592759,6.2845717 16.272666,5.5275595 C 16.335131,5.6198604 16.381823,5.7166249 16.439318,5.8162092 C 17.025768,6.8319695 17.152258,7.9274883 16.818355,8.5319851 C 16.79074,8.5779297 16.731211,8.6579961 16.697893,8.6977505 C 16.663147,8.7358782 16.597057,8.7961401 16.556599,8.8274347 C 16.535656,8.8421888 16.49791,8.8613187 16.475536,8.8742362 C 16.453163,8.8871532 16.417722,8.9102778 16.394474,8.9210377 C 16.382641,8.9258854 16.365977,8.9401205 16.353943,8.9444382 z "
       id="path4674" />
  </g>
</svg>
