<?xml version="1.0" encoding="UTF-8" standalone="no"?>
<!-- Created with Inkscape (http://www.inkscape.org/) -->
<svg
   xmlns:dc="http://purl.org/dc/elements/1.1/"
   xmlns:cc="http://creativecommons.org/ns#"
   xmlns:rdf="http://www.w3.org/1999/02/22-rdf-syntax-ns#"
   xmlns:svg="http://www.w3.org/2000/svg"
   xmlns="http://www.w3.org/2000/svg"
   xmlns:xlink="http://www.w3.org/1999/xlink"
   xmlns:sodipodi="http://sodipodi.sourceforge.net/DTD/sodipodi-0.dtd"
   xmlns:inkscape="http://www.inkscape.org/namespaces/inkscape"
   width="24"
   height="24"
   id="svg2"
   sodipodi:version="0.32"
   inkscape:version="0.46"
   version="1.0"
   sodipodi:docbase="/home/hbons/Desktop/Gaim Refresh/emotes/scalable"
   sodipodi:docname="bad.svg"
   inkscape:export-filename="/home/hbons/Bureaublad/Projecten/Pidgin objecten voor 2.5.0/bitmaps/good.png"
   inkscape:export-xdpi="90"
   inkscape:export-ydpi="90"
   inkscape:output_extension="org.inkscape.output.svg.inkscape">
  <defs
     id="defs4">
    <linearGradient
       inkscape:collect="always"
       id="linearGradient3272">
      <stop
         style="stop-color:#e1aa59;stop-opacity:1;"
         offset="0"
         id="stop3274" />
      <stop
         style="stop-color:#e8bd7e;stop-opacity:1"
         offset="1"
         id="stop3276" />
    </linearGradient>
    <linearGradient
       inkscape:collect="always"
       id="linearGradient3264">
      <stop
         style="stop-color:#ffffff;stop-opacity:1;"
         offset="0"
         id="stop3266" />
      <stop
         style="stop-color:#ffffff;stop-opacity:0;"
         offset="1"
         id="stop3268" />
    </linearGradient>
    <linearGradient
       inkscape:collect="always"
       id="linearGradient3166">
      <stop
         style="stop-color:#d37317;stop-opacity:1"
         offset="0"
         id="stop3168" />
      <stop
         style="stop-color:#894a0e;stop-opacity:1"
         offset="1"
         id="stop3170" />
    </linearGradient>
    <linearGradient
       inkscape:collect="always"
       xlink:href="#linearGradient3166"
       id="linearGradient3172"
       x1="9.6182642"
       y1="11.234447"
       x2="12.500001"
       y2="7.3013229"
       gradientUnits="userSpaceOnUse"
       gradientTransform="matrix(1,0,0,-1,0,24)" />
    <filter
       inkscape:collect="always"
       id="filter3260"
       x="-0.16589058"
       width="1.3317812"
       y="-0.45149601"
       height="1.902992">
      <feGaussianBlur
         inkscape:collect="always"
         stdDeviation="0.87311087"
         id="feGaussianBlur3262" />
    </filter>
    <linearGradient
       inkscape:collect="always"
       xlink:href="#linearGradient3264"
       id="linearGradient3270"
       x1="10.007825"
       y1="-3.1401939"
       x2="26.904633"
       y2="22.219807"
       gradientUnits="userSpaceOnUse" />
    <linearGradient
       inkscape:collect="always"
       xlink:href="#linearGradient3272"
       id="linearGradient3278"
       x1="11.072799"
       y1="14.794947"
       x2="10.564541"
       y2="14.994544"
       gradientUnits="userSpaceOnUse"
       gradientTransform="matrix(1,0,0,-1,0,24)" />
  </defs>
  <sodipodi:namedview
     id="base"
     pagecolor="#ffffff"
     bordercolor="#666666"
     borderopacity="1.0"
     inkscape:pageopacity="0.0"
     inkscape:pageshadow="2"
     inkscape:zoom="10.44997"
     inkscape:cx="30.663156"
     inkscape:cy="11.954775"
     inkscape:document-units="px"
     inkscape:current-layer="layer1"
     showgrid="true"
     fill="#ce5c00"
     showguides="true"
     inkscape:guide-bbox="true"
     inkscape:window-width="1440"
     inkscape:window-height="847"
     inkscape:window-x="0"
     inkscape:window-y="0"
     inkscape:snap-bbox="true"
     inkscape:snap-nodes="false"
     objecttolerance="10"
     gridtolerance="10">
    <inkscape:grid
       type="xygrid"
       id="grid2394"
       visible="true"
       enabled="true" />
  </sodipodi:namedview>
  <metadata
     id="metadata7">
    <rdf:RDF>
      <cc:Work
         rdf:about="">
        <dc:format>image/svg+xml</dc:format>
        <dc:type
           rdf:resource="http://purl.org/dc/dcmitype/StillImage" />
      </cc:Work>
    </rdf:RDF>
  </metadata>
  <g
     inkscape:label="Layer 1"
     inkscape:groupmode="layer"
     id="layer1">
    <path
       sodipodi:type="arc"
       style="opacity:0.23043478;fill:#2e3436;fill-opacity:1;fill-rule:nonzero;stroke:none;stroke-width:1;stroke-linecap:square;stroke-linejoin:round;marker:none;marker-start:none;marker-mid:none;marker-end:none;stroke-miterlimit:4;stroke-dasharray:none;stroke-dashoffset:0;stroke-opacity:1;visibility:visible;display:inline;overflow:visible;filter:url(#filter3260);enable-background:accumulate"
       id="path3174"
       sodipodi:cx="13.732098"
       sodipodi:cy="18.569363"
       sodipodi:rx="6.3158078"
       sodipodi:ry="2.320581"
       d="M 20.047905,18.569363 A 6.3158078,2.320581 0 1 1 7.4162898,18.569363 A 6.3158078,2.320581 0 1 1 20.047905,18.569363 z"
       transform="matrix(1.1083301,0,0,1.0773164,-2.219697,-0.505079)" />
    <path
       style="opacity:1;fill:url(#linearGradient3278);fill-opacity:1;fill-rule:evenodd;stroke:url(#linearGradient3172);stroke-width:1;stroke-miterlimit:4;stroke-opacity:1"
       d="M 4.5000002,11.541306 C 4.5000002,12.640106 8.6551852,13.848843 8.6551852,13.848843 C 6.4527752,16.847922 5.7631312,19.620915 7.9260292,20.429027 C 10.072754,21.231097 11.365921,14.981438 15.153727,14.450442 C 17.433129,14.130903 19.662221,12.707141 19.662221,12.707141 L 20.500001,7.271662 C 20.500001,7.271662 14.580535,3.5 9.2144172,3.5 C 7.9005882,3.5 4.5000002,6.630421 4.5000002,11.541306 z"
       id="rect2277"
       sodipodi:nodetypes="cczsccss" />
    <rect
       style="opacity:1;fill:#ad4d00;fill-opacity:1;fill-rule:evenodd;stroke:none;stroke-width:1;stroke-miterlimit:4;stroke-dasharray:none;stroke-opacity:1"
       id="rect2292"
       width="2.1413293"
       height="0.97405744"
       x="8.2839909"
       y="-1.9507062"
       transform="matrix(0.8753581,0.4834751,0.128907,-0.9916567,0,0)" />
    <rect
       style="opacity:1;fill:#ad4d00;fill-opacity:1;fill-rule:evenodd;stroke:none;stroke-width:1;stroke-miterlimit:4;stroke-dasharray:none;stroke-opacity:1"
       id="rect2290"
       width="2.141026"
       height="0.97348154"
       x="7.4949389"
       y="-4.3545794"
       transform="matrix(0.8754801,0.4832541,0.128983,-0.9916468,0,0)" />
    <path
       style="fill:#ad4d00;fill-opacity:1;fill-rule:evenodd;stroke:none;stroke-width:1;stroke-miterlimit:4;stroke-opacity:1"
       d="M 4.9999972,10.083563 L 6.8360112,10.974822 L 6.9999972,9.866081 L 5.1639832,8.974822 L 4.9999972,10.083563 z"
       id="rect2288" />
    <path
       style="fill:none;fill-opacity:1;fill-rule:evenodd;stroke:url(#linearGradient3270);stroke-width:1;stroke-miterlimit:4;stroke-opacity:1"
       d="M 9.21875,4.5 C 9.2911592,4.5 8.9357933,4.5785839 8.53125,4.875 C 8.1267067,5.1714161 7.6382736,5.6624591 7.1875,6.28125 C 6.3141262,7.4801573 5.5773245,9.2173104 5.53125,11.34375 C 5.5552646,11.375568 5.594497,11.445692 5.71875,11.53125 C 6.0086738,11.730885 6.4840329,11.950631 6.96875,12.15625 C 7.9381843,12.567488 8.9375,12.875 8.9375,12.875 C 9.2514472,12.968955 9.5005337,13.209003 9.6060227,13.519265 C 9.7115117,13.829527 9.660365,14.171654 9.46875,14.4375 C 8.4267161,15.856465 7.7890805,17.233726 7.65625,18.125 C 7.5898348,18.570637 7.6596475,18.846332 7.75,19.03125 C 7.8403525,19.216168 7.9355519,19.370839 8.28125,19.5 C 8.3314372,19.518751 8.2906481,19.520505 8.34375,19.5 C 8.3968519,19.479495 8.537934,19.369051 8.71875,19.1875 C 9.0803821,18.824399 9.5547208,18.152901 10.09375,17.375 C 11.171808,15.819198 12.61013,13.776906 15.03125,13.4375 C 16.698043,13.20384 18.212729,12.351912 18.71875,12.0625 L 19.375,7.84375 C 18.535604,7.3424321 13.707377,4.5 9.21875,4.5 z"
       id="path2286" />
  </g>
</svg>
