<?xml version="1.0" encoding="UTF-8" standalone="no"?>
<!-- Created with Inkscape (http://www.inkscape.org/) -->
<svg
   xmlns:dc="http://purl.org/dc/elements/1.1/"
   xmlns:cc="http://creativecommons.org/ns#"
   xmlns:rdf="http://www.w3.org/1999/02/22-rdf-syntax-ns#"
   xmlns:svg="http://www.w3.org/2000/svg"
   xmlns="http://www.w3.org/2000/svg"
   xmlns:xlink="http://www.w3.org/1999/xlink"
   xmlns:sodipodi="http://sodipodi.sourceforge.net/DTD/sodipodi-0.dtd"
   xmlns:inkscape="http://www.inkscape.org/namespaces/inkscape"
   width="24"
   height="24"
   id="svg2"
   sodipodi:version="0.32"
   inkscape:version="0.46"
   version="1.0"
   sodipodi:docbase="/home/hbons/Desktop/Gaim Refresh/emotes"
   sodipodi:docname="bowl.svg"
   inkscape:export-filename="/home/hbons/Desktop/Gaim Refresh/emotes/msn/bowl.png"
   inkscape:export-xdpi="90"
   inkscape:export-ydpi="90"
   inkscape:output_extension="org.inkscape.output.svg.inkscape">
  <defs
     id="defs4">
    <linearGradient
       inkscape:collect="always"
       id="linearGradient2234">
      <stop
         style="stop-color:#babdb6;stop-opacity:1;"
         offset="0"
         id="stop2236" />
      <stop
         style="stop-color:#babdb6;stop-opacity:0;"
         offset="1"
         id="stop2238" />
    </linearGradient>
    <linearGradient
       inkscape:collect="always"
       id="linearGradient3150">
      <stop
         style="stop-color:#2e3436;stop-opacity:1;"
         offset="0"
         id="stop3152" />
      <stop
         style="stop-color:#2e3436;stop-opacity:0;"
         offset="1"
         id="stop3154" />
    </linearGradient>
    <radialGradient
       inkscape:collect="always"
       xlink:href="#linearGradient3150"
       id="radialGradient3314"
       gradientUnits="userSpaceOnUse"
       gradientTransform="matrix(-0.842757,5.698892e-16,-4.565819e-9,-0.35721,19.80716,14.19321)"
       cx="10.748654"
       cy="10.457643"
       fx="10.748654"
       fy="10.457643"
       r="6.6449099" />
    <radialGradient
       inkscape:collect="always"
       xlink:href="#linearGradient3150"
       id="radialGradient3318"
       gradientUnits="userSpaceOnUse"
       gradientTransform="matrix(-0.842757,5.698892e-16,-4.565819e-9,-0.35721,19.80716,14.19321)"
       cx="10.748654"
       cy="10.457643"
       fx="10.748654"
       fy="10.457643"
       r="6.6449099" />
    <linearGradient
       inkscape:collect="always"
       xlink:href="#linearGradient2234"
       id="linearGradient2240"
       x1="11.726729"
       y1="19.672266"
       x2="11.984186"
       y2="13.00823"
       gradientUnits="userSpaceOnUse" />
  </defs>
  <sodipodi:namedview
     id="base"
     pagecolor="#ffffff"
     bordercolor="#666666"
     borderopacity="1.0"
     inkscape:pageopacity="0.0"
     inkscape:pageshadow="2"
     inkscape:zoom="31.596091"
     inkscape:cx="18.472366"
     inkscape:cy="9.6208774"
     inkscape:document-units="px"
     inkscape:current-layer="layer1"
     showgrid="true"
     fill="#babdb6"
     inkscape:window-width="1268"
     inkscape:window-height="971"
     inkscape:window-x="6"
     inkscape:window-y="21"
     showguides="true"
     inkscape:guide-bbox="true" />
  <metadata
     id="metadata7">
    <rdf:RDF>
      <cc:Work
         rdf:about="">
        <dc:format>image/svg+xml</dc:format>
        <dc:type
           rdf:resource="http://purl.org/dc/dcmitype/StillImage" />
      </cc:Work>
    </rdf:RDF>
  </metadata>
  <g
     inkscape:label="Layer 1"
     inkscape:groupmode="layer"
     id="layer1">
    <image
       id="image2355"
       height="64"
       width="64"
       sodipodi:absref="/home/hbons/Desktop/Tango-Palette.png"
       xlink:href="/home/hbons/Desktop/Tango-Palette.png"
       x="-69"
       y="-22" />
    <path
       sodipodi:type="arc"
       style="opacity:0.5;fill:url(#radialGradient3314);fill-opacity:1;stroke:none;stroke-width:1;stroke-miterlimit:4;stroke-dasharray:none;stroke-opacity:1"
       id="path3312"
       sodipodi:cx="10.748654"
       sodipodi:cy="10.457643"
       sodipodi:rx="6.6449099"
       sodipodi:ry="2.3675451"
       d="M 17.393564 10.457643 A 6.6449099 2.3675451 0 1 1  4.1037445,10.457643 A 6.6449099 2.3675451 0 1 1  17.393564 10.457643 z"
       transform="matrix(1.35442,0,0,1.478325,-2.558194,4.040202)" />
    <path
       sodipodi:type="arc"
       style="opacity:0.4;fill:url(#radialGradient3318);fill-opacity:1;stroke:none;stroke-width:1;stroke-miterlimit:4;stroke-dasharray:none;stroke-opacity:1"
       id="path3316"
       sodipodi:cx="10.748654"
       sodipodi:cy="10.457643"
       sodipodi:rx="6.6449099"
       sodipodi:ry="2.3675451"
       d="M 17.393564 10.457643 A 6.6449099 2.3675451 0 1 1  4.1037445,10.457643 A 6.6449099 2.3675451 0 1 1  17.393564 10.457643 z"
       transform="matrix(1.279175,0,0,1.055946,-4.249407,5.457294)" />
    <path
       sodipodi:type="arc"
       style="opacity:1;fill:#d3d7cf;fill-opacity:1;stroke:#989b95;stroke-width:1.01799941;stroke-miterlimit:4;stroke-dasharray:none;stroke-opacity:1"
       id="path2200"
       sodipodi:cx="14.994308"
       sodipodi:cy="10.840816"
       sodipodi:rx="8.4594755"
       sodipodi:ry="4.1625991"
       d="M 23.453784 10.840816 A 8.4594755 4.1625991 0 1 1  6.534833,10.840816 A 8.4594755 4.1625991 0 1 1  23.453784 10.840816 z"
       transform="matrix(1.00479,0,0,0.960353,-3.066136,9.100703e-2)" />
    <path
       sodipodi:type="arc"
       style="opacity:1;fill:#729fcf;fill-opacity:1;stroke:none;stroke-width:1.17315018;stroke-miterlimit:4;stroke-dasharray:none;stroke-opacity:1"
       id="path3097"
       sodipodi:cx="14.994308"
       sodipodi:cy="10.840816"
       sodipodi:rx="8.4594755"
       sodipodi:ry="4.1625991"
       d="M 23.453784 10.840816 A 8.4594755 4.1625991 0 1 1  6.534833,10.840816 A 8.4594755 4.1625991 0 1 1  23.453784 10.840816 z"
       transform="matrix(0.709264,0,0,0.600586,1.365075,6.989157)" />
    <rect
       style="opacity:1;fill:#2e3436;fill-opacity:1;stroke:none;stroke-width:1;stroke-miterlimit:4;stroke-dasharray:none;stroke-opacity:1"
       id="rect3101"
       width="1.0000014"
       height="11.000002"
       x="16.225933"
       y="-0.6721338"
       transform="matrix(0.965926,0.258819,-0.258819,0.965926,0,0)" />
    <rect
       style="opacity:1;fill:#2e3436;fill-opacity:1;stroke:none;stroke-width:1;stroke-miterlimit:4;stroke-dasharray:none;stroke-opacity:1"
       id="rect3103"
       width="1.000001"
       height="10.999996"
       x="19.374357"
       y="-5.4426322"
       transform="matrix(0.866025,0.5,-0.5,0.866025,0,0)" />
    <path
       style="opacity:1;fill:#fbfff6;fill-opacity:1;stroke:none;stroke-width:1.00000024;stroke-miterlimit:4;stroke-dasharray:none;stroke-opacity:1"
       d="M 3.4999928,10.476293 C 3.5010793,10.533315 3.5292895,10.570503 3.5310148,10.627302 C 3.5239117,10.587831 3.5054773,10.516044 3.4999928,10.476293 z M 12.00001,14.484039 C 7.649791,14.484043 4.0250807,13.135637 3.5310148,10.677641 C 3.5310148,16.327168 7.437215,20.503609 12.00001,20.503609 C 16.577223,20.50361 20.468379,17.728284 20.468379,11.287131 C 18.320837,13.419228 16.385033,14.484039 12.00001,14.484039 z "
       id="path2224"
       sodipodi:nodetypes="cscccscc" />
    <path
       style="opacity:1;fill:url(#linearGradient2240);fill-opacity:1.0;stroke:#989b95;stroke-width:1.00000024;stroke-miterlimit:4;stroke-dasharray:none;stroke-opacity:1"
       d="M 3.4999928,10.476293 C 3.5010793,10.533315 3.5292895,10.570503 3.5310148,10.627302 C 3.5239117,10.587831 3.5054773,10.516044 3.4999928,10.476293 z M 12.00001,14.484039 C 7.649791,14.484043 4.0250807,13.135637 3.5310148,10.677641 C 3.5310148,16.327168 7.437215,20.503609 12.00001,20.503609 C 16.577223,20.50361 20.468379,17.728284 20.468379,11.287131 C 18.320837,13.419228 16.385033,14.484039 12.00001,14.484039 z "
       id="path3075"
       sodipodi:nodetypes="cscccscc" />
    <path
       sodipodi:type="inkscape:offset"
       inkscape:radius="-0.96902329"
       inkscape:original="M 3.5 10.46875 C 3.5010865 10.525772 3.5295247 10.568201 3.53125 10.625 C 3.524147 10.585529 3.5054845 10.508501 3.5 10.46875 z M 3.53125 10.6875 C 3.5312501 16.337027 7.437205 20.5 12 20.5 C 16.577213 20.500001 20.46875 17.722403 20.46875 11.28125 C 18.321209 13.413347 16.385023 14.46875 12 14.46875 C 7.6497815 14.468754 4.0253159 13.145496 3.53125 10.6875 z "
       xlink:href="#path3075"
       style="opacity:0.4;fill:none;fill-opacity:1.0;stroke:#ffffff;stroke-width:0.99999952;stroke-miterlimit:4;stroke-dasharray:none;stroke-opacity:1"
       id="path3107"
       inkscape:href="#path3075"
       d="M 19.15625,13.5 C 17.380296,14.730525 15.26358,15.5 12,15.5 C 9.7233241,15.500002 7.6203451,15.16273 5.9375,14.4375 C 5.5892259,14.28741 5.3444349,14.032599 5.03125,13.84375 C 6.1193663,17.340514 8.8967497,19.625 12,19.625 C 14.080464,19.625 15.93248,18.969884 17.28125,17.625 C 18.222208,16.686752 18.805351,15.230767 19.15625,13.5 z " />
  </g>
</svg>
