<?xml version="1.0" encoding="UTF-8" standalone="no"?>
<!-- Created with Inkscape (http://www.inkscape.org/) -->
<svg
   xmlns:dc="http://purl.org/dc/elements/1.1/"
   xmlns:cc="http://web.resource.org/cc/"
   xmlns:rdf="http://www.w3.org/1999/02/22-rdf-syntax-ns#"
   xmlns:svg="http://www.w3.org/2000/svg"
   xmlns="http://www.w3.org/2000/svg"
   xmlns:xlink="http://www.w3.org/1999/xlink"
   xmlns:sodipodi="http://inkscape.sourceforge.net/DTD/s odipodi-0.dtd"
   xmlns:inkscape="http://www.inkscape.org/namespaces/inkscape"
   width="24"
   height="24"
   id="svg2"
   sodipodi:version="0.32"
   inkscape:version="0.43"
   version="1.0"
   sodipodi:docbase="/home/hbons/Desktop/Gaim Refresh/emotes/scalable"
   sodipodi:docname="chicken.svg"
   inkscape:export-filename="/home/hbons/Desktop/Gaim Refresh/chicken.png"
   inkscape:export-xdpi="90"
   inkscape:export-ydpi="90">
  <defs
     id="defs4">
    <linearGradient
       inkscape:collect="always"
       id="linearGradient3150">
      <stop
         style="stop-color:#2e3436;stop-opacity:1;"
         offset="0"
         id="stop3152" />
      <stop
         style="stop-color:#2e3436;stop-opacity:0;"
         offset="1"
         id="stop3154" />
    </linearGradient>
    <linearGradient
       inkscape:collect="always"
       id="linearGradient3104">
      <stop
         style="stop-color:#eeeeec;stop-opacity:1;"
         offset="0"
         id="stop3106" />
      <stop
         style="stop-color:#eeeeec;stop-opacity:0;"
         offset="1"
         id="stop3108" />
    </linearGradient>
    <radialGradient
       inkscape:collect="always"
       xlink:href="#linearGradient3104"
       id="radialGradient3114"
       cx="8.3343515"
       cy="14.186539"
       fx="8.3343515"
       fy="14.186539"
       r="9.975256"
       gradientUnits="userSpaceOnUse"
       gradientTransform="matrix(-0.9327,0.932656,-0.947494,-0.947449,33.02126,11.96667)" />
    <radialGradient
       inkscape:collect="always"
       xlink:href="#linearGradient3150"
       id="radialGradient3156"
       cx="10.748654"
       cy="10.457643"
       fx="10.748654"
       fy="10.457643"
       r="6.6449099"
       gradientTransform="matrix(-0.842757,5.698892e-16,-4.565819e-9,-0.35721,19.80716,14.19321)"
       gradientUnits="userSpaceOnUse" />
  </defs>
  <sodipodi:namedview
     id="base"
     pagecolor="#ffffff"
     bordercolor="#666666"
     borderopacity="1.0"
     inkscape:pageopacity="0.0"
     inkscape:pageshadow="2"
     inkscape:zoom="25.730843"
     inkscape:cx="22.524669"
     inkscape:cy="12.734218"
     inkscape:document-units="px"
     inkscape:current-layer="layer1"
     showgrid="true"
     fill="#fce94f"
     inkscape:window-width="1268"
     inkscape:window-height="971"
     inkscape:window-x="6"
     inkscape:window-y="21" />
  <metadata
     id="metadata7">
    <rdf:RDF>
      <cc:Work
         rdf:about="">
        <dc:format>image/svg+xml</dc:format>
        <dc:type
           rdf:resource="http://purl.org/dc/dcmitype/StillImage" />
      </cc:Work>
    </rdf:RDF>
  </metadata>
  <g
     inkscape:label="Layer 1"
     inkscape:groupmode="layer"
     id="layer1">
    <path
       sodipodi:type="arc"
       style="opacity:0.6;fill:url(#radialGradient3156);fill-opacity:1;stroke:none;stroke-width:1;stroke-miterlimit:4;stroke-dasharray:none;stroke-opacity:1"
       id="path3140"
       sodipodi:cx="10.748654"
       sodipodi:cy="10.457643"
       sodipodi:rx="6.6449099"
       sodipodi:ry="2.3675451"
       d="M 17.393564 10.457643 A 6.6449099 2.3675451 0 1 1  4.1037445,10.457643 A 6.6449099 2.3675451 0 1 1  17.393564 10.457643 z"
       transform="matrix(1.504911,0,0,1.267135,-4.17577,5.748753)" />
    <path
       sodipodi:type="arc"
       style="opacity:1;fill:#fce94f;fill-opacity:1;stroke:#c4a000;stroke-width:1.1769799;stroke-miterlimit:4;stroke-dasharray:none;stroke-opacity:1"
       id="path1307"
       sodipodi:cx="11.806158"
       sodipodi:cy="10.983024"
       sodipodi:rx="9.975256"
       sodipodi:ry="9.975256"
       d="M 21.781414 10.983024 A 9.975256 9.975256 0 1 1  1.8309021,10.983024 A 9.975256 9.975256 0 1 1  21.781414 10.983024 z"
       transform="matrix(0.851982,0,0,0.851499,1.942815,2.654239)" />
    <path
       sodipodi:type="arc"
       style="opacity:0.79545455;fill:url(#radialGradient3114);fill-opacity:1.0;stroke:none;stroke-width:1.05274069;stroke-miterlimit:4;stroke-dasharray:none;stroke-opacity:1"
       id="path3102"
       sodipodi:cx="11.806158"
       sodipodi:cy="10.983024"
       sodipodi:rx="9.975256"
       sodipodi:ry="9.975256"
       d="M 21.781414 10.983024 A 9.975256 9.975256 0 1 1  1.8309021,10.983024 A 9.975256 9.975256 0 1 1  21.781414 10.983024 z"
       transform="matrix(0.8019,0,0,0.801938,2.532654,3.191833)" />
    <path
       sodipodi:type="arc"
       style="opacity:0.5;fill:none;fill-opacity:1;stroke:#ffffff;stroke-width:1.32998371;stroke-miterlimit:4;stroke-dasharray:none;stroke-opacity:1"
       id="path2184"
       sodipodi:cx="11.806158"
       sodipodi:cy="10.983024"
       sodipodi:rx="9.975256"
       sodipodi:ry="9.975256"
       d="M 21.781414 10.983024 A 9.975256 9.975256 0 1 1  1.8309021,10.983024 A 9.975256 9.975256 0 1 1  21.781414 10.983024 z"
       transform="matrix(0.752142,0,0,0.751636,3.122608,3.742833)" />
    <path
       sodipodi:type="arc"
       style="opacity:1;fill:#2e3436;fill-opacity:1;stroke:none;stroke-width:1;stroke-miterlimit:4;stroke-dasharray:none;stroke-opacity:1"
       id="path2191"
       sodipodi:cx="9.0598059"
       sodipodi:cy="8.7845774"
       sodipodi:rx="1.1679889"
       sodipodi:ry="1.4520943"
       d="M 10.227795 8.7845774 A 1.1679889 1.4520943 0 1 1  7.891817,8.7845774 A 1.1679889 1.4520943 0 1 1  10.227795 8.7845774 z"
       transform="matrix(0.856173,0,0,1.377321,2.243238,-9.918289e-2)" />
    <path
       sodipodi:type="arc"
       style="opacity:1;fill:#2e3436;fill-opacity:1;stroke:none;stroke-width:1;stroke-miterlimit:4;stroke-dasharray:none;stroke-opacity:1"
       id="path2193"
       sodipodi:cx="9.0598059"
       sodipodi:cy="8.7845774"
       sodipodi:rx="1.1679889"
       sodipodi:ry="1.4520943"
       d="M 10.227795 8.7845774 A 1.1679889 1.4520943 0 1 1  7.891817,8.7845774 A 1.1679889 1.4520943 0 1 1  10.227795 8.7845774 z"
       transform="matrix(0.856173,0,0,1.377321,6.243237,-9.918289e-2)" />
    <path
       sodipodi:type="arc"
       style="opacity:1;fill:#ef2929;fill-opacity:1;fill-rule:evenodd;stroke:#a40000;stroke-width:1.94621873;stroke-miterlimit:4;stroke-dasharray:none;stroke-opacity:1"
       id="path2227"
       sodipodi:cx="11.445408"
       sodipodi:cy="3.324424"
       sodipodi:rx="3.2451327"
       sodipodi:ry="2.6427429"
       d="M 14.690541 3.324424 A 3.2451327 2.6427429 0 1 1  8.2002752,3.324424 A 3.2451327 2.6427429 0 1 1  14.690541 3.324424 z"
       transform="matrix(0.463779,0,0,0.569253,6.696885,17.10846)" />
    <path
       style="fill:#f57900;fill-opacity:1;fill-rule:evenodd;stroke:#ce5c00;stroke-width:0.99999964;stroke-miterlimit:4;stroke-opacity:1"
       d="M 11.992622,17.5 C 9.7576499,16.351321 3.1107244,13.505144 11.992622,13.505144 C 20.924834,13.505144 14.194577,16.368289 11.992622,17.5 z "
       id="path2212"
       sodipodi:nodetypes="czc" />
    <path
       sodipodi:type="inkscape:offset"
       inkscape:radius="-0.91183245"
       inkscape:original="M 12 13.5 C 3.1181024 13.5 9.7650275 16.351321 12 17.5 C 14.201955 16.368289 20.932212 13.5 12 13.5 z "
       xlink:href="#path2212"
       style="opacity:0.3;fill:none;fill-opacity:1;fill-rule:evenodd;stroke:#ffffff;stroke-width:0.99999964;stroke-miterlimit:4;stroke-opacity:1"
       id="path2233"
       inkscape:href="#path2212"
       d="M 12,15.40625 C 10.181076,15.40625 9.4234694,15.586648 8.9375,15.71875 C 9.2860953,15.983443 9.670696,16.282691 10.25,16.59375 C 10.87334,16.928455 11.461703,17.200267 12,17.46875 C 12.534554,17.202663 13.124499,16.927995 13.75,16.59375 C 14.333659,16.281865 14.740984,15.985401 15.09375,15.71875 C 14.609232,15.586383 13.832424,15.40625 12,15.40625 z " />
    <path
       sodipodi:type="arc"
       style="opacity:1;fill:#ef2929;fill-opacity:1;fill-rule:evenodd;stroke:#a40000;stroke-width:1.16829908;stroke-miterlimit:4;stroke-dasharray:none;stroke-opacity:1"
       id="path2223"
       sodipodi:cx="11.445408"
       sodipodi:cy="3.324424"
       sodipodi:rx="3.2451327"
       sodipodi:ry="2.6427429"
       d="M 14.690541 3.324424 A 3.2451327 2.6427429 0 1 1  8.2002752,3.324424 A 3.2451327 2.6427429 0 1 1  14.690541 3.324424 z"
       transform="matrix(0.770896,0,0,0.950378,3.17678,0.840541)" />
    <path
       sodipodi:type="arc"
       style="opacity:0.3;fill:none;fill-opacity:1;fill-rule:evenodd;stroke:#ffffff;stroke-width:1.95847201;stroke-miterlimit:4;stroke-dasharray:none;stroke-opacity:1"
       id="path2231"
       sodipodi:cx="11.445408"
       sodipodi:cy="3.324424"
       sodipodi:rx="3.2451327"
       sodipodi:ry="2.6427429"
       d="M 14.690541 3.324424 A 3.2451327 2.6427429 0 1 1  8.2002752,3.324424 A 3.2451327 2.6427429 0 1 1  14.690541 3.324424 z"
       transform="matrix(0.460044,0,0,0.566719,6.735154,2.118292)" />
    <path
       sodipodi:type="arc"
       style="opacity:1;fill:#ef2929;fill-opacity:1;fill-rule:evenodd;stroke:#a40000;stroke-width:1.16895401;stroke-miterlimit:4;stroke-dasharray:none;stroke-opacity:1"
       id="path2215"
       sodipodi:cx="11.445408"
       sodipodi:cy="3.324424"
       sodipodi:rx="3.2451327"
       sodipodi:ry="2.6427429"
       d="M 14.690541 3.324424 A 3.2451327 2.6427429 0 1 1  8.2002752,3.324424 A 3.2451327 2.6427429 0 1 1  14.690541 3.324424 z"
       transform="matrix(0.77076,0,0,0.949482,3.178881,3.84642)" />
    <path
       sodipodi:type="arc"
       style="opacity:0.3;fill:none;fill-opacity:1;fill-rule:evenodd;stroke:#ffffff;stroke-width:1.95847201;stroke-miterlimit:4;stroke-dasharray:none;stroke-opacity:1"
       id="path2229"
       sodipodi:cx="11.445408"
       sodipodi:cy="3.324424"
       sodipodi:rx="3.2451327"
       sodipodi:ry="2.6427429"
       d="M 14.690541 3.324424 A 3.2451327 2.6427429 0 1 1  8.2002752,3.324424 A 3.2451327 2.6427429 0 1 1  14.690541 3.324424 z"
       transform="matrix(0.460044,0,0,0.566719,6.735154,5.118889)" />
  </g>
</svg>
