<?xml version="1.0" encoding="UTF-8" standalone="no"?>
<!-- Created with Inkscape (http://www.inkscape.org/) -->
<svg
   xmlns:dc="http://purl.org/dc/elements/1.1/"
   xmlns:cc="http://creativecommons.org/ns#"
   xmlns:rdf="http://www.w3.org/1999/02/22-rdf-syntax-ns#"
   xmlns:svg="http://www.w3.org/2000/svg"
   xmlns="http://www.w3.org/2000/svg"
   xmlns:xlink="http://www.w3.org/1999/xlink"
   xmlns:sodipodi="http://sodipodi.sourceforge.net/DTD/sodipodi-0.dtd"
   xmlns:inkscape="http://www.inkscape.org/namespaces/inkscape"
   width="24"
   height="24"
   id="svg2"
   sodipodi:version="0.32"
   inkscape:version="0.46"
   version="1.0"
   sodipodi:docbase="/home/hbons/Desktop/Gaim Refresh/emotes/scalable"
   sodipodi:docname="cigarette.svg"
   inkscape:export-filename="/home/hbons/Bureaublad/Projecten/Pidgin objecten voor 2.5.0/bitmaps/sigarette.png"
   inkscape:export-xdpi="90"
   inkscape:export-ydpi="90"
   inkscape:output_extension="org.inkscape.output.svg.inkscape">
  <defs
     id="defs4">
    <linearGradient
       inkscape:collect="always"
       id="linearGradient3196">
      <stop
         style="stop-color:#ffffff;stop-opacity:1;"
         offset="0"
         id="stop3198" />
      <stop
         style="stop-color:#ffffff;stop-opacity:0;"
         offset="1"
         id="stop3200" />
    </linearGradient>
    <linearGradient
       inkscape:collect="always"
       id="linearGradient3187">
      <stop
         style="stop-color:#f57900;stop-opacity:1;"
         offset="0"
         id="stop3189" />
      <stop
         style="stop-color:#843b00;stop-opacity:1"
         offset="1"
         id="stop3191" />
    </linearGradient>
    <linearGradient
       inkscape:collect="always"
       id="linearGradient3179">
      <stop
         style="stop-color:#adb0a8;stop-opacity:1"
         offset="0"
         id="stop3181" />
      <stop
         style="stop-color:#6f716c;stop-opacity:1"
         offset="1"
         id="stop3183" />
    </linearGradient>
    <linearGradient
       inkscape:collect="always"
       id="linearGradient2191">
      <stop
         style="stop-color:#babdb6;stop-opacity:1"
         offset="0"
         id="stop2193" />
      <stop
         style="stop-color:#888a85;stop-opacity:0;"
         offset="1"
         id="stop2195" />
    </linearGradient>
    <linearGradient
       inkscape:collect="always"
       xlink:href="#linearGradient2191"
       id="linearGradient2197"
       x1="18.387409"
       y1="0.037235841"
       x2="16.764509"
       y2="0.037235841"
       gradientUnits="userSpaceOnUse"
       gradientTransform="matrix(0.707107,0.707107,-0.707107,0.707107,0,0.943632)" />
    <linearGradient
       inkscape:collect="always"
       xlink:href="#linearGradient3179"
       id="linearGradient3185"
       x1="9.2149258"
       y1="13.323413"
       x2="11.771015"
       y2="15.879502"
       gradientUnits="userSpaceOnUse" />
    <linearGradient
       inkscape:collect="always"
       xlink:href="#linearGradient3187"
       id="linearGradient3193"
       x1="16.266911"
       y1="6.229672"
       x2="19.102596"
       y2="9.0653582"
       gradientUnits="userSpaceOnUse" />
    <linearGradient
       inkscape:collect="always"
       xlink:href="#linearGradient3196"
       id="linearGradient3202"
       x1="14.881474"
       y1="10.051268"
       x2="14.728101"
       y2="10.213468"
       gradientUnits="userSpaceOnUse" />
    <filter
       inkscape:collect="always"
       id="filter3530"
       x="-0.28294574"
       width="1.5658915"
       y="-1.4134426"
       height="3.8268852">
      <feGaussianBlur
         inkscape:collect="always"
         stdDeviation="2.2231438"
         id="feGaussianBlur3532" />
    </filter>
    <filter
       height="1.5437909"
       y="-0.27189543"
       width="2.2235293"
       x="-0.61176467"
       id="filter3933"
       inkscape:collect="always">
      <feGaussianBlur
         id="feGaussianBlur3935"
         stdDeviation="1.0196079"
         inkscape:collect="always" />
    </filter>
    <linearGradient
       gradientUnits="userSpaceOnUse"
       y2="11.245744"
       x2="9.719101"
       y1="10.332613"
       x1="9.5760565"
       id="linearGradient3374"
       xlink:href="#linearGradient3368"
       inkscape:collect="always" />
    <linearGradient
       gradientUnits="userSpaceOnUse"
       y2="10.963621"
       x2="10.407792"
       y1="8.6201363"
       x1="10.096465"
       id="linearGradient3344"
       xlink:href="#linearGradient3338"
       inkscape:collect="always" />
    <linearGradient
       gradientUnits="userSpaceOnUse"
       y2="9.4493694"
       x2="7.1530194"
       y1="9.4493694"
       x1="11.390081"
       id="linearGradient3336"
       xlink:href="#linearGradient3330"
       inkscape:collect="always" />
    <filter
       height="1.6778457"
       y="-0.33892284"
       width="1.2202999"
       x="-0.11014993"
       id="filter3326"
       inkscape:collect="always">
      <feGaussianBlur
         id="feGaussianBlur3328"
         stdDeviation="0.45662418"
         inkscape:collect="always" />
    </filter>
    <linearGradient
       id="linearGradient2199"
       inkscape:collect="always">
      <stop
         id="stop2201"
         offset="0"
         style="stop-color:#babdb6;stop-opacity:1;" />
      <stop
         id="stop2203"
         offset="1"
         style="stop-color:#babdb6;stop-opacity:0;" />
    </linearGradient>
    <linearGradient
       id="linearGradient3330"
       inkscape:collect="always">
      <stop
         id="stop3332"
         offset="0"
         style="stop-color:#724907;stop-opacity:1;" />
      <stop
         id="stop3334"
         offset="1"
         style="stop-color:#c77f0c;stop-opacity:1" />
    </linearGradient>
    <linearGradient
       id="linearGradient3338"
       inkscape:collect="always">
      <stop
         id="stop3340"
         offset="0"
         style="stop-color:#6e3f00;stop-opacity:1" />
      <stop
         id="stop3342"
         offset="1"
         style="stop-color:#3d2300;stop-opacity:1" />
    </linearGradient>
    <linearGradient
       id="linearGradient3360"
       inkscape:collect="always">
      <stop
         id="stop3362"
         offset="0"
         style="stop-color:#878d84;stop-opacity:1;" />
      <stop
         id="stop3364"
         offset="1"
         style="stop-color:#595d57;stop-opacity:1" />
    </linearGradient>
    <linearGradient
       id="linearGradient3368"
       inkscape:collect="always">
      <stop
         id="stop3370"
         offset="0"
         style="stop-color:#878d84;stop-opacity:1;" />
      <stop
         id="stop3372"
         offset="1"
         style="stop-color:#535851;stop-opacity:1" />
    </linearGradient>
    <linearGradient
       inkscape:collect="always"
       xlink:href="#linearGradient2199"
       id="linearGradient3643"
       gradientUnits="userSpaceOnUse"
       gradientTransform="matrix(1,0,0,0.8418494,29.064178,10.586013)"
       x1="20.15468"
       y1="15.054713"
       x2="5.4952478"
       y2="16.003563" />
    <linearGradient
       inkscape:collect="always"
       xlink:href="#linearGradient3360"
       id="linearGradient3648"
       gradientUnits="userSpaceOnUse"
       x1="12.780437"
       y1="11.287887"
       x2="14.855971"
       y2="18.372238"
       gradientTransform="translate(29.064177,9.5871524)" />
  </defs>
  <sodipodi:namedview
     id="base"
     pagecolor="#ffffff"
     bordercolor="#666666"
     borderopacity="1.0"
     inkscape:pageopacity="0.0"
     inkscape:pageshadow="2"
     inkscape:zoom="27.577635"
     inkscape:cx="14.416154"
     inkscape:cy="12.225301"
     inkscape:document-units="px"
     inkscape:current-layer="layer1"
     showgrid="true"
     fill="#fcaf3e"
     inkscape:window-width="1440"
     inkscape:window-height="848"
     inkscape:window-x="0"
     inkscape:window-y="0"
     inkscape:snap-bbox="true"
     inkscape:snap-nodes="false"
     objecttolerance="10"
     gridtolerance="10">
    <inkscape:grid
       type="xygrid"
       id="grid2407"
       visible="true"
       enabled="true" />
  </sodipodi:namedview>
  <metadata
     id="metadata7">
    <rdf:RDF>
      <cc:Work
         rdf:about="">
        <dc:format>image/svg+xml</dc:format>
        <dc:type
           rdf:resource="http://purl.org/dc/dcmitype/StillImage" />
      </cc:Work>
    </rdf:RDF>
  </metadata>
  <g
     inkscape:label="Layer 1"
     inkscape:groupmode="layer"
     id="layer1">
    <path
       style="opacity:0.44642857;fill:#2e3436;fill-opacity:1;fill-rule:evenodd;stroke:none;stroke-width:1.00000203000000010;stroke-miterlimit:4;stroke-opacity:1;filter:url(#filter3530)"
       d="M 23,17.376631 C 23,17.376631 23,21.151489 23,21.151489 L 4.1428688,21.151489 C 4.1428688,21.151489 4.1428687,17.376632 4.1428687,17.376632 L 23,17.376631 z"
       id="path3204"
       sodipodi:nodetypes="ccccc"
       transform="matrix(0.804199,0,0,0.3343385,1.1701459,14.079732)" />
    <path
       style="fill:#eeeeec;fill-opacity:1;fill-rule:evenodd;stroke:none;stroke-width:1.00000167;stroke-miterlimit:4;stroke-opacity:1"
       d="M 17.832398,4.4420471 L 20.501626,7.1112742 L 7.1676199,20.44528 C 7.1676199,20.44528 4.4983927,19.91891 4.4983928,17.776053 L 17.832398,4.4420471 z "
       id="rect2189"
       sodipodi:nodetypes="ccccc" />
    <path
       style="fill:url(#linearGradient2197);fill-opacity:1;fill-rule:evenodd;stroke:url(#linearGradient3185);stroke-width:1.00000203000000010;stroke-miterlimit:4;stroke-opacity:1"
       d="M 17.832398,4.4420471 C 17.832399,6.6295474 20.501626,7.1112742 20.501626,7.1112742 L 7.1676199,20.44528 C 7.1676199,20.44528 4.4091063,20.365339 4.4983928,17.776053 L 17.832398,4.4420471 z "
       id="rect1307"
       sodipodi:nodetypes="ccccc" />
    <path
       style="opacity:1;fill:#fcaf3e;fill-opacity:1;fill-rule:evenodd;stroke:none;stroke-width:1.00000167;stroke-miterlimit:4;stroke-dasharray:none;stroke-opacity:1"
       d="M 17.84375,4.4436324 L 13.583915,8.6719004 C 13.494629,10.502258 16.240165,11.32815 16.240165,11.32815 L 20.5,7.0998824 C 20.5,7.0998824 17.352679,6.452561 17.84375,4.4436324 z "
       id="path2199"
       sodipodi:nodetypes="ccccc" />
    <path
       style="fill:#f57900;fill-opacity:1;fill-rule:evenodd;stroke:url(#linearGradient3193);stroke-width:1.00000167000000006;stroke-miterlimit:4;stroke-opacity:1"
       d="M 18.202718,4.1359454 L 13.583915,8.6719004 C 13.494629,11.082614 16.240165,11.32815 16.240165,11.32815 C 16.240165,11.32815 19.891468,7.759695 20.858968,6.7921954 C 18.771043,5.8794232 18.202718,4.1359454 18.202718,4.1359454 z "
       id="rect2184"
       sodipodi:nodetypes="ccccc" />
    <path
       style="opacity:0.36160714;fill:none;fill-opacity:1;fill-rule:evenodd;stroke:url(#linearGradient3202);stroke-width:1.00000167000000006;stroke-miterlimit:4;stroke-opacity:1"
       d="M 18,5.75 L 13.967286,9.7877253 C 14.049522,10.286075 14.309392,10.554146 14.686036,10.756475 C 14.958603,10.902896 15.056579,10.902091 15.248536,10.943975 C 15.676836,10.519314 17.989288,8.1912566 19.25,6.9375 C 18.731089,6.5458314 18.296415,6.1427789 18,5.75 z"
       id="path2329"
       sodipodi:nodetypes="ccsccc" />
    <path
       sodipodi:type="arc"
       style="opacity:1;fill:#f57900;fill-opacity:1;fill-rule:evenodd;stroke:#904000;stroke-width:1.31475151000000001;stroke-miterlimit:4;stroke-dasharray:none;stroke-opacity:1"
       id="path2336"
       sodipodi:cx="14.640776"
       sodipodi:cy="-2.0251973"
       sodipodi:rx="1.5640759"
       sodipodi:ry="2.0256064"
       d="M 16.204852 -2.0251973 A 1.5640759 2.0256064 0 1 1  13.0767,-2.0251973 A 1.5640759 2.0256064 0 1 1  16.204852 -2.0251973 z"
       transform="matrix(0.437,-0.437,0.661914,0.661914,14.94248,12.68216)" />
    <path
       sodipodi:type="arc"
       style="opacity:1;fill:#888a85;fill-opacity:1;fill-rule:evenodd;stroke:#555753;stroke-width:1.28750658000000007;stroke-miterlimit:4;stroke-dasharray:none;stroke-opacity:1"
       id="path2342"
       sodipodi:cx="14.640776"
       sodipodi:cy="-2.0251973"
       sodipodi:rx="1.5640759"
       sodipodi:ry="2.0256064"
       d="M 14.618387,0.00020159646 A 1.5640759,2.0256064 0 1 1 14.910344,-4.0204921"
       transform="matrix(0.45569,-0.437,0.690223,0.661915,0.817025,26.67703)"
       sodipodi:start="1.585111"
       sodipodi:end="4.8856036"
       sodipodi:open="true" />
    <path
       sodipodi:type="arc"
       style="opacity:1;fill:#888a85;fill-opacity:1;fill-rule:evenodd;stroke:#555753;stroke-width:1.26464701000000002;stroke-miterlimit:4;stroke-dasharray:none;stroke-opacity:1"
       id="path2344"
       sodipodi:cx="14.640776"
       sodipodi:cy="-2.0251973"
       sodipodi:rx="1.5640759"
       sodipodi:ry="2.0256064"
       d="M 14.618387,0.00020159646 A 1.5640759,2.0256064 0 1 1 14.910344,-4.0204921"
       transform="matrix(0.472315,-0.436998,0.715404,0.661912,1.632258,25.677)"
       sodipodi:start="1.585111"
       sodipodi:end="4.8856036"
       sodipodi:open="true" />
    <path
       sodipodi:type="arc"
       style="opacity:1;fill:#888a85;fill-opacity:1;fill-rule:evenodd;stroke:#555753;stroke-width:1.27496396999999995;stroke-miterlimit:4;stroke-dasharray:none;stroke-opacity:1"
       id="path2346"
       sodipodi:cx="14.640776"
       sodipodi:cy="-2.0251973"
       sodipodi:rx="1.5640759"
       sodipodi:ry="2.0256064"
       d="M 14.618387,0.00020159646 A 1.5640759,2.0256064 0 1 1 14.910344,-4.0204921"
       transform="matrix(0.458153,-0.443245,0.693953,0.671374,2.77832,24.75896)"
       sodipodi:start="1.585111"
       sodipodi:end="4.8856036"
       sodipodi:open="true" />
    <path
       sodipodi:type="arc"
       style="opacity:0.725;fill:#2e3436;fill-opacity:1;stroke:none;filter:url(#filter3326)"
       id="path2518"
       sodipodi:cx="9.5760565"
       sodipodi:cy="9.4493694"
       sodipodi:rx="4.9745746"
       sodipodi:ry="1.6167368"
       d="M 14.550631,9.4493694 A 4.9745746,1.6167368 0 1 1 4.6014819,9.4493694 A 4.9745746,1.6167368 0 1 1 14.550631,9.4493694 z"
       transform="matrix(1.984711,0,0,2.2041469,21.810904,7.3805946)" />
    <path
       sodipodi:type="arc"
       style="fill:#d3d7cf;fill-opacity:1;stroke:url(#linearGradient3374);stroke-width:0.4337405;stroke-miterlimit:4;stroke-dasharray:none;stroke-opacity:1"
       id="path4053"
       sodipodi:cx="9.5760565"
       sodipodi:cy="9.4493694"
       sodipodi:rx="4.9745746"
       sodipodi:ry="1.6167368"
       d="M 14.550631,9.4493694 A 4.9745746,1.6167368 0 1 1 4.6014819,9.4493694 A 4.9745746,1.6167368 0 1 1 14.550631,9.4493694 z"
       transform="matrix(1.909711,0,0,2.7833841,21.776677,0.285928)" />
    <path
       sodipodi:type="arc"
       style="fill:none;fill-opacity:1;stroke:#ffffff;stroke-width:0.51994163;stroke-miterlimit:4;stroke-dasharray:none;stroke-opacity:1"
       id="path3408"
       sodipodi:cx="9.5760565"
       sodipodi:cy="9.4493694"
       sodipodi:rx="4.9745746"
       sodipodi:ry="1.6167368"
       d="M 14.550631,9.4493694 A 4.9745746,1.6167368 0 1 1 4.6014819,9.4493694 A 4.9745746,1.6167368 0 1 1 14.550631,9.4493694 z"
       transform="matrix(1.7086887,0,0,2.1648542,23.701677,6.1306451)" />
    <path
       style="fill:#eeeeec;fill-opacity:1;stroke:url(#linearGradient3648);stroke-width:0.9911198;stroke-miterlimit:4;stroke-dasharray:none;stroke-opacity:1"
       d="M 38.854683,15.087315 C 35.27027,15.306359 32.559737,16.599264 32.559737,18.119563 C 32.559737,18.119563 32.590746,23.454361 32.590746,23.590109 C 32.590746,26.072409 35.908506,28.091592 40.002039,28.091592 C 43.232091,28.091592 45.993401,26.838222 47.010206,25.090605 C 48.507099,24.95934 51.568616,22.153204 51.568616,20.839208 C 51.674818,20.301214 51.419283,20.132175 51.010443,19.838878 C 49.958262,19.166303 48.747512,19.190783 47.55316,19.120059 C 47.556467,18.539407 47.444341,18.156745 47.444341,18.119563 C 47.444341,16.446021 44.112302,15.087315 40.00204,15.087315 C 39.619561,15.082139 39.237106,15.087315 38.854684,15.087315 L 38.854683,15.087315 z M 47.551232,21.090481 C 47.551232,21.090481 48.370431,21.082706 48.950456,21.082706 C 48.950456,21.676707 47.554714,22.490237 47.554714,22.490237 L 47.551232,21.090481 z"
       id="path4023"
       sodipodi:nodetypes="ccssccccsccccccc" />
    <path
       sodipodi:type="arc"
       style="fill:none;stroke:#ffffff;stroke-width:0.64221543;stroke-miterlimit:4;stroke-dasharray:none;stroke-opacity:1"
       id="path3454"
       sodipodi:cx="9.5760565"
       sodipodi:cy="9.4493694"
       sodipodi:rx="4.9745746"
       sodipodi:ry="1.6167368"
       d="M 14.550631,9.4493694 A 4.9745746,1.6167368 0 1 1 4.6014819,9.4493694 A 4.9745746,1.6167368 0 1 1 14.550631,9.4493694 z"
       transform="matrix(1.3066443,0,0,1.8555893,27.551677,1.5530033)" />
    <path
       sodipodi:type="arc"
       style="fill:url(#linearGradient3336);fill-opacity:1;stroke:url(#linearGradient3344);stroke-width:0.86118382;stroke-miterlimit:4;stroke-dasharray:none;stroke-opacity:1"
       id="path4021"
       sodipodi:cx="9.5760565"
       sodipodi:cy="9.4493694"
       sodipodi:rx="4.9745746"
       sodipodi:ry="1.6167368"
       d="M 14.550631,9.4493694 A 4.9745746,1.6167368 0 1 1 4.6014819,9.4493694 A 4.9745746,1.6167368 0 1 1 14.550631,9.4493694 z"
       transform="matrix(1.1056221,0,0,1.2195576,29.476677,7.5348063)" />
    <path
       style="fill:url(#linearGradient3643);fill-opacity:1;stroke:none"
       d="M 38.080903,22.366168 C 40.396794,22.366168 43.881173,22.629007 46.053001,21.530055 L 46.009032,24.508094 C 46.009032,24.508094 42.744154,27.290663 38.08453,26.587152 L 38.080903,22.366168 z"
       id="rect4042"
       sodipodi:nodetypes="ccccc" />
    <path
       style="fill:#2e3436;fill-opacity:1;stroke:none;filter:url(#filter3933)"
       d="M 6.4692057,1.8119254 C -0.97227329,6.0003124 8.5623787,5.2052964 5.5953237,10.811925 C 10.819382,3.8321314 3.6422187,6.2162954 6.4692057,1.8119254 z"
       id="path3476"
       sodipodi:nodetypes="ccc"
       transform="matrix(1.3807433,0,0,1.4404267,-2.0076792,-0.6099458)" />
    <path
       style="fill:#ffffff;fill-opacity:1;stroke:none"
       d="M 6.6754718,2 C -3.2465012,7.5845167 9.466369,6.5244966 5.5102957,14 C 12.475707,4.6936083 2.9061554,7.872494 6.6754718,2 z"
       id="path3638"
       sodipodi:nodetypes="ccc" />
  </g>
</svg>
