<?xml version="1.0" encoding="UTF-8" standalone="no"?>
<!-- Created with Inkscape (http://www.inkscape.org/) -->
<svg
   xmlns:dc="http://purl.org/dc/elements/1.1/"
   xmlns:cc="http://creativecommons.org/ns#"
   xmlns:rdf="http://www.w3.org/1999/02/22-rdf-syntax-ns#"
   xmlns:svg="http://www.w3.org/2000/svg"
   xmlns="http://www.w3.org/2000/svg"
   xmlns:xlink="http://www.w3.org/1999/xlink"
   xmlns:sodipodi="http://sodipodi.sourceforge.net/DTD/sodipodi-0.dtd"
   xmlns:inkscape="http://www.inkscape.org/namespaces/inkscape"
   width="24"
   height="24"
   id="svg2201"
   sodipodi:version="0.32"
   inkscape:version="0.46"
   version="1.0"
   sodipodi:docbase="/home/hbons/Desktop/Gaim Refresh/emotes/scalable"
   sodipodi:docname="cloudy.svg"
   inkscape:export-filename="/home/hbons/Desktop/Gaim Refresh/emotes/cloudy.png"
   inkscape:export-xdpi="90"
   inkscape:export-ydpi="90"
   inkscape:output_extension="org.inkscape.output.svg.inkscape">
  <defs
     id="defs2203">
    <linearGradient
       inkscape:collect="always"
       id="linearGradient2256">
      <stop
         style="stop-color:#eeeeec;stop-opacity:1;"
         offset="0"
         id="stop2258" />
      <stop
         style="stop-color:#eeeeec;stop-opacity:0;"
         offset="1"
         id="stop2260" />
    </linearGradient>
    <radialGradient
       inkscape:collect="always"
       xlink:href="#linearGradient2256"
       id="radialGradient2262"
       cx="17.904432"
       cy="8.5087223"
       fx="17.904432"
       fy="8.5087223"
       r="3.5714285"
       gradientTransform="matrix(1,-1.301044e-17,2.611735e-17,1.105,-1.872308e-16,-0.793125)"
       gradientUnits="userSpaceOnUse" />
    <radialGradient
       inkscape:collect="always"
       xlink:href="#linearGradient2256"
       id="radialGradient2266"
       gradientUnits="userSpaceOnUse"
       gradientTransform="matrix(1,-1.171209e-16,1.321141e-16,1.105,1.065101e-16,-0.793125)"
       cx="17.904432"
       cy="8.5087223"
       fx="17.904432"
       fy="8.5087223"
       r="3.5714285" />
    <radialGradient
       inkscape:collect="always"
       xlink:href="#linearGradient2256"
       id="radialGradient2270"
       gradientUnits="userSpaceOnUse"
       gradientTransform="matrix(1,3.631897e-18,-6.202866e-17,1.105,3.329002e-15,-0.793125)"
       cx="17.904432"
       cy="8.5087223"
       fx="17.904432"
       fy="8.5087223"
       r="3.5714285" />
    <radialGradient
       inkscape:collect="always"
       xlink:href="#linearGradient2256"
       id="radialGradient1407"
       gradientUnits="userSpaceOnUse"
       gradientTransform="matrix(1,-5.865536e-17,8.470167e-17,1.105,-1.660428e-15,-0.793125)"
       cx="17.904432"
       cy="8.5087223"
       fx="17.904432"
       fy="8.5087223"
       r="3.5714285" />
    <radialGradient
       inkscape:collect="always"
       xlink:href="#linearGradient2256"
       id="radialGradient1409"
       gradientUnits="userSpaceOnUse"
       gradientTransform="matrix(1,-2.858227e-16,1.536189e-16,1.105,-2.083819e-16,-0.793125)"
       cx="17.904432"
       cy="8.5087223"
       fx="17.904432"
       fy="8.5087223"
       r="3.5714285" />
    <radialGradient
       inkscape:collect="always"
       xlink:href="#linearGradient2256"
       id="radialGradient1411"
       gradientUnits="userSpaceOnUse"
       gradientTransform="matrix(1,3.631773e-18,-6.202868e-17,1.105,3.317293e-15,-0.793125)"
       cx="17.904432"
       cy="8.5087223"
       fx="17.904432"
       fy="8.5087223"
       r="3.5714285" />
  </defs>
  <sodipodi:namedview
     id="base"
     pagecolor="#ffffff"
     bordercolor="#666666"
     borderopacity="1.0"
     inkscape:pageopacity="0.0"
     inkscape:pageshadow="2"
     inkscape:zoom="24.375416"
     inkscape:cx="18.512014"
     inkscape:cy="12.737263"
     inkscape:current-layer="layer1"
     showgrid="true"
     inkscape:grid-bbox="true"
     inkscape:document-units="px"
     fill="#729fcf"
     inkscape:window-width="1268"
     inkscape:window-height="971"
     inkscape:window-x="6"
     inkscape:window-y="21" />
  <metadata
     id="metadata2206">
    <rdf:RDF>
      <cc:Work
         rdf:about="">
        <dc:format>image/svg+xml</dc:format>
        <dc:type
           rdf:resource="http://purl.org/dc/dcmitype/StillImage" />
      </cc:Work>
    </rdf:RDF>
  </metadata>
  <g
     id="layer1"
     inkscape:label="Layer 1"
     inkscape:groupmode="layer">
    <path
       style="opacity:1;fill:#d3d7cf;fill-opacity:1;stroke:#888a85;stroke-width:1.00595629;stroke-miterlimit:4;stroke-dasharray:none;stroke-opacity:1"
       d="M 10.798651,3.447744 C 9.3912835,3.5469341 8.1615977,4.4634778 7.5096383,5.7584285 C 7.078938,5.5559374 6.6009354,5.4461739 6.1040772,5.4461739 C 4.1166454,5.4461739 2.5058412,7.2351299 2.5058412,9.4430336 C 2.5058412,11.650937 4.1166454,13.439894 6.1040772,13.439894 C 6.1118407,13.439894 6.1244366,13.439949 6.1321885,13.439894 C 6.1399404,13.439839 6.1525595,13.440003 6.1602997,13.439894 L 6.4695232,13.439894 L 16.53334,13.439894 L 16.870675,13.439894 C 16.878426,13.439949 16.891023,13.439894 16.898786,13.439894 C 18.886217,13.439894 20.497022,11.650937 20.497022,9.4430336 C 20.497022,7.23513 18.886217,5.4461739 16.898786,5.4461739 C 16.114682,5.4461739 15.381921,5.7222397 14.790444,6.195585 C 14.176386,4.5838178 12.725532,3.447744 11.051652,3.447744 C 10.964471,3.447744 10.884466,3.4416958 10.798651,3.447744 z "
       id="path2237"
       sodipodi:nodetypes="ccssssccccssscsc" />
    <path
       sodipodi:type="arc"
       style="opacity:1;fill:url(#radialGradient2262);fill-opacity:1;stroke:none;stroke-width:0.94128603;stroke-miterlimit:4;stroke-dasharray:none;stroke-opacity:1"
       id="path2246"
       sodipodi:cx="19.285715"
       sodipodi:cy="7.5535712"
       sodipodi:rx="3.5714285"
       sodipodi:ry="3.9464285"
       d="M 22.857144 7.5535712 A 3.5714285 3.9464285 0 1 1  15.714287,7.5535712 A 3.5714285 3.9464285 0 1 1  22.857144 7.5535712 z"
       transform="matrix(0.419979,0.848704,-0.658303,0.443438,13.87302,-10.27411)" />
    <path
       sodipodi:type="arc"
       style="opacity:1;fill:url(#radialGradient2266);fill-opacity:1;stroke:none;stroke-width:0.94128603;stroke-miterlimit:4;stroke-dasharray:none;stroke-opacity:1"
       id="path2264"
       sodipodi:cx="19.285715"
       sodipodi:cy="7.5535712"
       sodipodi:rx="3.5714285"
       sodipodi:ry="3.9464285"
       d="M 22.857144 7.5535712 A 3.5714285 3.9464285 0 1 1  15.714287,7.5535712 A 3.5714285 3.9464285 0 1 1  22.857144 7.5535712 z"
       transform="matrix(0.419979,0.848582,-0.658302,0.443375,2.873003,-10.27177)" />
    <path
       sodipodi:type="arc"
       style="opacity:1;fill:url(#radialGradient2270);fill-opacity:1;stroke:none;stroke-width:0.94128603;stroke-miterlimit:4;stroke-dasharray:none;stroke-opacity:1"
       id="path2268"
       sodipodi:cx="19.285715"
       sodipodi:cy="7.5535712"
       sodipodi:rx="3.5714285"
       sodipodi:ry="3.9464285"
       d="M 22.857144 7.5535712 A 3.5714285 3.9464285 0 1 1  15.714287,7.5535712 A 3.5714285 3.9464285 0 1 1  22.857144 7.5535712 z"
       transform="matrix(4.961495e-7,1.12,-0.897657,-7.661627e-7,17.77931,-13.65751)" />
    <path
       sodipodi:type="inkscape:offset"
       inkscape:radius="-1.0351878"
       inkscape:original="M 10.8125 3.4375 C 9.4051328 3.5366902 8.1519594 4.4550493 7.5 5.75 C 7.0692997 5.5475088 6.5906082 5.4375 6.09375 5.4375 C 4.1063181 5.4375002 2.5 7.2295963 2.5 9.4375 C 2.4999999 11.645404 4.1063182 13.4375 6.09375 13.4375 C 6.1015134 13.4375 6.1172481 13.437555 6.125 13.4375 C 6.1327521 13.437445 6.1485098 13.437609 6.15625 13.4375 L 6.46875 13.4375 L 16.53125 13.4375 L 16.875 13.4375 C 16.882752 13.437555 16.898487 13.4375 16.90625 13.4375 C 18.89368 13.4375 20.5 11.645403 20.5 9.4375 C 20.499999 7.2295968 18.893681 5.4375 16.90625 5.4375 C 16.122145 5.4375002 15.372727 5.7141547 14.78125 6.1875 C 14.167192 4.575733 12.73638 3.4375 11.0625 3.4375 C 10.975319 3.4375001 10.898315 3.4314518 10.8125 3.4375 z "
       xlink:href="#path2237"
       style="opacity:0.3;fill:none;fill-opacity:1;stroke:#ffffff;stroke-width:1.00595629;stroke-miterlimit:4;stroke-dasharray:none;stroke-opacity:1"
       id="path2286"
       inkscape:href="#path2237"
       d="M 10.875,3.53125 C 9.8716407,3.6019659 8.9382625,4.2866132 8.4375,5.28125 C 8.1841105,5.7868076 7.5719333,5.9955043 7.0625,5.75 C 6.768424,5.611742 6.4378082,5.53125 6.09375,5.53125 C 4.7286142,5.5312499 3.53125,6.7941837 3.53125,8.5 C 3.5312499,10.205815 4.7286144,11.46875 6.09375,11.46875 C 6.1064026,11.46875 6.1320822,11.4687 6.125,11.46875 C 6.157303,11.468521 6.1829073,11.468375 6.15625,11.46875 L 6.46875,11.46875 L 16.53125,11.46875 L 16.875,11.46875 C 16.867918,11.4687 16.893598,11.46875 16.90625,11.46875 C 18.271383,11.46875 19.46875,10.205815 19.46875,8.5 C 19.468749,6.7941835 18.271385,5.53125 16.90625,5.53125 C 16.365641,5.5312499 15.849558,5.7327393 15.4375,6.0625 C 15.179235,6.2738645 14.834917,6.3477692 14.512661,6.2610081 C 14.190406,6.174247 13.929736,5.937461 13.8125,5.625 C 13.331183,4.3616492 12.267097,3.53125 11.0625,3.53125 C 10.927443,3.5312498 10.869214,3.5316578 10.875,3.53125 z " />
    <path
       style="opacity:1;fill:#d3d7cf;fill-opacity:1;stroke:#888a85;stroke-width:1.00595629;stroke-miterlimit:4;stroke-dasharray:none;stroke-opacity:1"
       d="M 12.770379,9.4760158 C 11.363011,9.5752059 10.133326,10.49175 9.4813661,11.7867 C 9.0506658,11.584209 8.5726632,11.474446 8.075805,11.474446 C 6.0883732,11.474446 4.477569,13.263402 4.477569,15.471305 C 4.477569,17.679209 6.0883732,19.468166 8.075805,19.468166 C 8.0835685,19.468166 8.0961644,19.468221 8.1039163,19.468166 C 8.1116682,19.468111 8.1242873,19.468275 8.1320275,19.468166 L 8.441251,19.468166 L 18.505068,19.468166 L 18.842403,19.468166 C 18.850154,19.468221 18.862751,19.468166 18.870514,19.468166 C 20.857945,19.468166 22.46875,17.679209 22.46875,15.471305 C 22.46875,13.263402 20.857945,11.474446 18.870514,11.474446 C 18.08641,11.474446 17.353649,11.750511 16.762172,12.223857 C 16.148114,10.61209 14.69726,9.4760158 13.02338,9.4760158 C 12.936199,9.4760158 12.856194,9.4699676 12.770379,9.4760158 z "
       id="path1397"
       sodipodi:nodetypes="ccssssccccssscsc" />
    <path
       sodipodi:type="arc"
       style="opacity:1;fill:url(#radialGradient1407);fill-opacity:1;stroke:none;stroke-width:0.94128603;stroke-miterlimit:4;stroke-dasharray:none;stroke-opacity:1"
       id="path1399"
       sodipodi:cx="19.285715"
       sodipodi:cy="7.5535712"
       sodipodi:rx="3.5714285"
       sodipodi:ry="3.9464285"
       d="M 22.857144 7.5535712 A 3.5714285 3.9464285 0 1 1  15.714287,7.5535712 A 3.5714285 3.9464285 0 1 1  22.857144 7.5535712 z"
       transform="matrix(0.419979,0.848704,-0.658303,0.443438,15.84475,-4.245842)" />
    <path
       sodipodi:type="arc"
       style="opacity:1;fill:url(#radialGradient1409);fill-opacity:1;stroke:none;stroke-width:0.94128603;stroke-miterlimit:4;stroke-dasharray:none;stroke-opacity:1"
       id="path1401"
       sodipodi:cx="19.285715"
       sodipodi:cy="7.5535712"
       sodipodi:rx="3.5714285"
       sodipodi:ry="3.9464285"
       d="M 22.857144 7.5535712 A 3.5714285 3.9464285 0 1 1  15.714287,7.5535712 A 3.5714285 3.9464285 0 1 1  22.857144 7.5535712 z"
       transform="matrix(0.419979,0.848582,-0.658302,0.443375,4.844731,-4.243502)" />
    <path
       sodipodi:type="arc"
       style="opacity:1;fill:url(#radialGradient1411);fill-opacity:1;stroke:none;stroke-width:0.94128603;stroke-miterlimit:4;stroke-dasharray:none;stroke-opacity:1"
       id="path1403"
       sodipodi:cx="19.285715"
       sodipodi:cy="7.5535712"
       sodipodi:rx="3.5714285"
       sodipodi:ry="3.9464285"
       d="M 22.857144 7.5535712 A 3.5714285 3.9464285 0 1 1  15.714287,7.5535712 A 3.5714285 3.9464285 0 1 1  22.857144 7.5535712 z"
       transform="matrix(4.961495e-7,1.12,-0.897657,-7.661627e-7,19.75104,-7.629242)" />
    <path
       sodipodi:type="inkscape:offset"
       inkscape:radius="-1.0351878"
       inkscape:original="M 10.8125 3.4375 C 9.4051328 3.5366902 8.1519594 4.4550493 7.5 5.75 C 7.0692997 5.5475088 6.5906082 5.4375 6.09375 5.4375 C 4.1063181 5.4375002 2.5 7.2295963 2.5 9.4375 C 2.4999999 11.645404 4.1063182 13.4375 6.09375 13.4375 C 6.1015134 13.4375 6.1172481 13.437555 6.125 13.4375 C 6.1327521 13.437445 6.1485098 13.437609 6.15625 13.4375 L 6.46875 13.4375 L 16.53125 13.4375 L 16.875 13.4375 C 16.882752 13.437555 16.898487 13.4375 16.90625 13.4375 C 18.89368 13.4375 20.5 11.645403 20.5 9.4375 C 20.499999 7.2295968 18.893681 5.4375 16.90625 5.4375 C 16.122145 5.4375002 15.372727 5.7141547 14.78125 6.1875 C 14.167192 4.575733 12.73638 3.4375 11.0625 3.4375 C 10.975319 3.4375001 10.898315 3.4314518 10.8125 3.4375 z "
       xlink:href="#path2237"
       style="opacity:0.3;fill:none;fill-opacity:1;stroke:#ffffff;stroke-width:1.00595629;stroke-miterlimit:4;stroke-dasharray:none;stroke-opacity:1"
       id="path1405"
       inkscape:href="#path2237"
       d="M 10.875,3.53125 C 9.8716407,3.6019659 8.9382625,4.2866132 8.4375,5.28125 C 8.1841105,5.7868076 7.5719333,5.9955043 7.0625,5.75 C 6.768424,5.611742 6.4378082,5.53125 6.09375,5.53125 C 4.7286142,5.5312499 3.53125,6.7941837 3.53125,8.5 C 3.5312499,10.205815 4.7286144,11.46875 6.09375,11.46875 C 6.1064026,11.46875 6.1320822,11.4687 6.125,11.46875 C 6.157303,11.468521 6.1829073,11.468375 6.15625,11.46875 L 6.46875,11.46875 L 16.53125,11.46875 L 16.875,11.46875 C 16.867918,11.4687 16.893598,11.46875 16.90625,11.46875 C 18.271383,11.46875 19.46875,10.205815 19.46875,8.5 C 19.468749,6.7941835 18.271385,5.53125 16.90625,5.53125 C 16.365641,5.5312499 15.849558,5.7327393 15.4375,6.0625 C 15.179235,6.2738645 14.834917,6.3477692 14.512661,6.2610081 C 14.190406,6.174247 13.929736,5.937461 13.8125,5.625 C 13.331183,4.3616492 12.267097,3.53125 11.0625,3.53125 C 10.927443,3.5312498 10.869214,3.5316578 10.875,3.53125 z "
       transform="translate(1.971728,6.028272)" />
  </g>
</svg>
