<?xml version="1.0" encoding="UTF-8" standalone="no"?>
<!-- Created with Inkscape (http://www.inkscape.org/) -->
<svg
   xmlns:dc="http://purl.org/dc/elements/1.1/"
   xmlns:cc="http://creativecommons.org/ns#"
   xmlns:rdf="http://www.w3.org/1999/02/22-rdf-syntax-ns#"
   xmlns:svg="http://www.w3.org/2000/svg"
   xmlns="http://www.w3.org/2000/svg"
   xmlns:xlink="http://www.w3.org/1999/xlink"
   xmlns:sodipodi="http://sodipodi.sourceforge.net/DTD/sodipodi-0.dtd"
   xmlns:inkscape="http://www.inkscape.org/namespaces/inkscape"
   width="24"
   height="24"
   id="svg2"
   sodipodi:version="0.32"
   inkscape:version="0.46"
   version="1.0"
   sodipodi:docbase="/home/hbons/Desktop/Gaim Refresh/emotes/scalable"
   sodipodi:docname="clown.svg"
   inkscape:export-filename="/home/hbons/Desktop/Gaim Refresh/clown.png"
   inkscape:export-xdpi="90"
   inkscape:export-ydpi="90"
   inkscape:output_extension="org.inkscape.output.svg.inkscape">
  <defs
     id="defs4">
    <linearGradient
       inkscape:collect="always"
       id="linearGradient3150">
      <stop
         style="stop-color:#2e3436;stop-opacity:1;"
         offset="0"
         id="stop3152" />
      <stop
         style="stop-color:#2e3436;stop-opacity:0;"
         offset="1"
         id="stop3154" />
    </linearGradient>
    <linearGradient
       inkscape:collect="always"
       id="linearGradient3104">
      <stop
         style="stop-color:#eeeeec;stop-opacity:1;"
         offset="0"
         id="stop3106" />
      <stop
         style="stop-color:#eeeeec;stop-opacity:0;"
         offset="1"
         id="stop3108" />
    </linearGradient>
    <radialGradient
       inkscape:collect="always"
       xlink:href="#linearGradient3104"
       id="radialGradient3114"
       cx="8.3343515"
       cy="14.186539"
       fx="8.3343515"
       fy="14.186539"
       r="9.975256"
       gradientUnits="userSpaceOnUse"
       gradientTransform="matrix(-0.9327,0.932656,-0.947494,-0.947449,33.02126,11.96667)" />
    <radialGradient
       inkscape:collect="always"
       xlink:href="#linearGradient3150"
       id="radialGradient3156"
       cx="10.748654"
       cy="10.457643"
       fx="10.748654"
       fy="10.457643"
       r="6.6449099"
       gradientTransform="matrix(-0.842757,5.698892e-16,-4.565819e-9,-0.35721,19.80716,14.19321)"
       gradientUnits="userSpaceOnUse" />
  </defs>
  <sodipodi:namedview
     id="base"
     pagecolor="#ffffff"
     bordercolor="#666666"
     borderopacity="1.0"
     inkscape:pageopacity="0.0"
     inkscape:pageshadow="2"
     inkscape:zoom="24.007725"
     inkscape:cx="21.284927"
     inkscape:cy="14.285603"
     inkscape:document-units="px"
     inkscape:current-layer="layer1"
     showgrid="true"
     fill="#eeeeec"
     inkscape:window-width="1268"
     inkscape:window-height="971"
     inkscape:window-x="6"
     inkscape:window-y="21"
     showguides="true"
     inkscape:guide-bbox="true" />
  <metadata
     id="metadata7">
    <rdf:RDF>
      <cc:Work
         rdf:about="">
        <dc:format>image/svg+xml</dc:format>
        <dc:type
           rdf:resource="http://purl.org/dc/dcmitype/StillImage" />
      </cc:Work>
    </rdf:RDF>
  </metadata>
  <g
     inkscape:label="Layer 1"
     inkscape:groupmode="layer"
     id="layer1">
    <path
       sodipodi:type="arc"
       style="opacity:0.6;fill:url(#radialGradient3156);fill-opacity:1.0;stroke:none;stroke-width:1;stroke-miterlimit:4;stroke-dasharray:none;stroke-opacity:1"
       id="path3140"
       sodipodi:cx="10.748654"
       sodipodi:cy="10.457643"
       sodipodi:rx="6.6449099"
       sodipodi:ry="2.3675451"
       d="M 17.393564 10.457643 A 6.6449099 2.3675451 0 1 1  4.1037445,10.457643 A 6.6449099 2.3675451 0 1 1  17.393564 10.457643 z"
       transform="matrix(1.504911,0,0,1.300982,-4.175772,6.474929)" />
    <path
       sodipodi:type="arc"
       style="opacity:1;fill:#d3d7cf;fill-opacity:1;stroke:#888a85;stroke-width:1.05276573;stroke-miterlimit:4;stroke-dasharray:none;stroke-opacity:1"
       id="path1307"
       sodipodi:cx="11.806158"
       sodipodi:cy="10.983024"
       sodipodi:rx="9.975256"
       sodipodi:ry="9.975256"
       d="M 21.781414 10.983024 A 9.975256 9.975256 0 1 1  1.8309021,10.983024 A 9.975256 9.975256 0 1 1  21.781414 10.983024 z"
       transform="matrix(0.952236,0,0,0.952236,0.757713,1.541608)" />
    <path
       sodipodi:type="arc"
       style="opacity:0.79545455;fill:url(#radialGradient3114);fill-opacity:1.0;stroke:none;stroke-width:1.05274069;stroke-miterlimit:4;stroke-dasharray:none;stroke-opacity:1"
       id="path3102"
       sodipodi:cx="11.806158"
       sodipodi:cy="10.983024"
       sodipodi:rx="9.975256"
       sodipodi:ry="9.975256"
       d="M 21.781414 10.983024 A 9.975256 9.975256 0 1 1  1.8309021,10.983024 A 9.975256 9.975256 0 1 1  21.781414 10.983024 z"
       transform="matrix(0.8019,0,0,0.801938,2.532654,3.191833)" />
    <path
       sodipodi:type="arc"
       style="opacity:0.5;fill:none;fill-opacity:1.0;stroke:#ffffff;stroke-width:1.17343897;stroke-miterlimit:4;stroke-dasharray:none;stroke-opacity:1"
       id="path2184"
       sodipodi:cx="11.806158"
       sodipodi:cy="10.983024"
       sodipodi:rx="9.975256"
       sodipodi:ry="9.975256"
       d="M 21.781414 10.983024 A 9.975256 9.975256 0 1 1  1.8309021,10.983024 A 9.975256 9.975256 0 1 1  21.781414 10.983024 z"
       transform="matrix(0.852176,0,0,0.852216,1.93909,2.639626)" />
    <path
       style="opacity:1;fill:#a40000;fill-opacity:1;stroke:none;stroke-width:1;stroke-miterlimit:4;stroke-dasharray:none;stroke-opacity:1"
       d="M 17,15 C 16.413519,17.283765 14.403819,19 12,19 C 9.596182,19 7.586481,17.283765 7,15 C 8.053747,16.478811 9.904443,18.044402 12,18.044402 C 14.095556,18.044403 15.946253,16.478811 17,15 z "
       id="path2186"
       sodipodi:nodetypes="cscsc" />
    <path
       sodipodi:type="arc"
       style="opacity:1;fill:#8ae234;fill-opacity:1;fill-rule:evenodd;stroke:#4e9a06;stroke-width:0.87364888;stroke-miterlimit:4;stroke-dasharray:none;stroke-opacity:1"
       id="path4283"
       sodipodi:cx="5.3437815"
       sodipodi:cy="7.3856978"
       sodipodi:rx="1.0298924"
       sodipodi:ry="2.9730856"
       d="M 6.3736739 7.3856978 A 1.0298924 2.9730856 0 1 1  4.313889,7.3856978 A 1.0298924 2.9730856 0 1 1  6.3736739 7.3856978 z"
       transform="matrix(1.949743,3.249996e-16,-6.211529e-16,0.67197,-4.930556,0.537046)" />
    <rect
       style="opacity:1;fill:#3465a4;fill-opacity:1;fill-rule:evenodd;stroke:none;stroke-width:1;stroke-miterlimit:4;stroke-dasharray:none;stroke-opacity:1"
       id="rect4309"
       width="1"
       height="5"
       x="9"
       y="6"
       rx="0"
       ry="0" />
    <rect
       style="opacity:1;fill:#3465a4;fill-opacity:1;fill-rule:evenodd;stroke:none;stroke-width:1;stroke-miterlimit:4;stroke-dasharray:none;stroke-opacity:1"
       id="rect4313"
       width="0.99999952"
       height="5"
       x="14"
       y="6"
       rx="0"
       ry="0" />
    <rect
       style="opacity:1;fill:#3465a4;fill-opacity:1;fill-rule:evenodd;stroke:none;stroke-width:1;stroke-miterlimit:4;stroke-dasharray:none;stroke-opacity:1"
       id="rect4311"
       width="1"
       height="10"
       x="-9"
       y="7"
       rx="0"
       ry="0"
       transform="matrix(1.917818e-17,-1,1,1.471653e-18,0,0)" />
    <path
       sodipodi:type="arc"
       style="opacity:1;fill:#ef2929;fill-opacity:1;fill-rule:evenodd;stroke:#a40000;stroke-width:0.84142292;stroke-miterlimit:4;stroke-dasharray:none;stroke-opacity:1"
       id="path4281"
       sodipodi:cx="11.65916"
       sodipodi:cy="12.53516"
       sodipodi:rx="2.0986488"
       sodipodi:ry="2.0986488"
       d="M 13.757808 12.53516 A 2.0986488 2.0986488 0 1 1  9.5605109,12.53516 A 2.0986488 2.0986488 0 1 1  13.757808 12.53516 z"
       transform="matrix(1.190642,0,0,1.186289,-1.883146,-1.880718)" />
    <image
       id="image4292"
       height="9.8804474"
       width="9.8804474"
       sodipodi:absref="/home/hbons/Desktop/Gaim Refresh/Tango-Palette.png"
       xlink:href="/home/hbons/Desktop/Gaim Refresh/Tango-Palette.png"
       x="-19.880447"
       y="7" />
    <path
       sodipodi:type="arc"
       style="opacity:0.3;fill:none;fill-opacity:1;fill-rule:evenodd;stroke:#ffffff;stroke-width:1.39275038;stroke-miterlimit:4;stroke-dasharray:none;stroke-opacity:1"
       id="path4295"
       sodipodi:cx="11.65916"
       sodipodi:cy="12.53516"
       sodipodi:rx="2.0986488"
       sodipodi:ry="2.0986488"
       d="M 13.757808 12.53516 A 2.0986488 2.0986488 0 1 1  9.5605109,12.53516 A 2.0986488 2.0986488 0 1 1  13.757808 12.53516 z"
       transform="matrix(0.71932,0,0,0.716691,3.61207,4.005776)" />
    <path
       sodipodi:type="arc"
       style="opacity:1;fill:#8ae234;fill-opacity:1;fill-rule:evenodd;stroke:#4e9a06;stroke-width:0.87364888;stroke-miterlimit:4;stroke-dasharray:none;stroke-opacity:1"
       id="path4299"
       sodipodi:cx="5.3437815"
       sodipodi:cy="7.3856978"
       sodipodi:rx="1.0298924"
       sodipodi:ry="2.9730856"
       d="M 6.3736739 7.3856978 A 1.0298924 2.9730856 0 1 1  4.313889,7.3856978 A 1.0298924 2.9730856 0 1 1  6.3736739 7.3856978 z"
       transform="matrix(1.949743,3.249996e-16,-6.211529e-16,0.67197,9.089026,0.537046)" />
    <path
       sodipodi:type="arc"
       style="opacity:1;fill:#8ae234;fill-opacity:1;fill-rule:evenodd;stroke:#4e9a06;stroke-width:1.73483396;stroke-miterlimit:4;stroke-dasharray:none;stroke-opacity:1"
       id="path4301"
       sodipodi:cx="5.3437815"
       sodipodi:cy="7.3856978"
       sodipodi:rx="1.0298924"
       sodipodi:ry="2.9730856"
       d="M 6.3736739 7.3856978 A 1.0298924 2.9730856 0 1 1  4.313889,7.3856978 A 1.0298924 2.9730856 0 1 1  6.3736739 7.3856978 z"
       transform="matrix(0.981876,1.636672e-16,-3.128078e-16,0.338398,16.2643,2.006781)" />
    <path
       sodipodi:type="arc"
       style="opacity:1;fill:#8ae234;fill-opacity:1;fill-rule:evenodd;stroke:#4e9a06;stroke-width:1.74484336;stroke-miterlimit:4;stroke-dasharray:none;stroke-opacity:1"
       id="path4303"
       sodipodi:cx="5.3437815"
       sodipodi:cy="7.3856978"
       sodipodi:rx="1.0298924"
       sodipodi:ry="2.9730856"
       d="M 6.3736739 7.3856978 A 1.0298924 2.9730856 0 1 1  4.313889,7.3856978 A 1.0298924 2.9730856 0 1 1  6.3736739 7.3856978 z"
       transform="matrix(0.974582,1.630058e-16,-3.104839e-16,0.33703,-1.704239,2.012817)" />
  </g>
</svg>
