<?xml version="1.0" encoding="UTF-8" standalone="no"?>
<!-- Created with Inkscape (http://www.inkscape.org/) -->
<svg
   xmlns:dc="http://purl.org/dc/elements/1.1/"
   xmlns:cc="http://creativecommons.org/ns#"
   xmlns:rdf="http://www.w3.org/1999/02/22-rdf-syntax-ns#"
   xmlns:svg="http://www.w3.org/2000/svg"
   xmlns="http://www.w3.org/2000/svg"
   xmlns:xlink="http://www.w3.org/1999/xlink"
   xmlns:sodipodi="http://sodipodi.sourceforge.net/DTD/sodipodi-0.dtd"
   xmlns:inkscape="http://www.inkscape.org/namespaces/inkscape"
   width="24"
   height="24"
   id="svg2"
   sodipodi:version="0.32"
   inkscape:version="0.46"
   version="1.0"
   sodipodi:docbase="/home/hbons/Desktop/Projects/untitled folder 1"
   sodipodi:docname="cowboy.svg"
   inkscape:export-filename="/home/hbons/Desktop/newstyle.png"
   inkscape:export-xdpi="90"
   inkscape:export-ydpi="90"
   inkscape:output_extension="org.inkscape.output.svg.inkscape">
  <defs
     id="defs4">
    <linearGradient
       inkscape:collect="always"
       id="linearGradient3411">
      <stop
         style="stop-color:#555753;stop-opacity:1;"
         offset="0"
         id="stop3413" />
      <stop
         style="stop-color:#555753;stop-opacity:0;"
         offset="1"
         id="stop3415" />
    </linearGradient>
    <linearGradient
       inkscape:collect="always"
       id="linearGradient3104">
      <stop
         style="stop-color:#eeeeec;stop-opacity:1;"
         offset="0"
         id="stop3106" />
      <stop
         style="stop-color:#eeeeec;stop-opacity:0;"
         offset="1"
         id="stop3108" />
    </linearGradient>
    <radialGradient
       inkscape:collect="always"
       xlink:href="#linearGradient3104"
       id="radialGradient3114"
       cx="8.3343515"
       cy="14.186539"
       fx="8.3343515"
       fy="14.186539"
       r="9.975256"
       gradientUnits="userSpaceOnUse"
       gradientTransform="matrix(-0.9327,0.932656,-0.947494,-0.947449,33.02126,11.96667)" />
    <filter
       inkscape:collect="always"
       x="-0.27879594"
       width="1.5575919"
       y="-0.78248726"
       height="2.5649745"
       id="filter3405">
      <feGaussianBlur
         inkscape:collect="always"
         stdDeviation="1.5438116"
         id="feGaussianBlur3407" />
    </filter>
    <linearGradient
       inkscape:collect="always"
       xlink:href="#linearGradient3411"
       id="linearGradient3417"
       x1="13.061831"
       y1="6.3167782"
       x2="13.175431"
       y2="3.5436695"
       gradientUnits="userSpaceOnUse" />
  </defs>
  <sodipodi:namedview
     id="base"
     pagecolor="#ffffff"
     bordercolor="#666666"
     borderopacity="1.0"
     inkscape:pageopacity="0.0"
     inkscape:pageshadow="2"
     inkscape:zoom="22.4"
     inkscape:cx="23.790455"
     inkscape:cy="14.933159"
     inkscape:document-units="px"
     inkscape:current-layer="layer1"
     showgrid="true"
     fill="#fce94f"
     inkscape:window-width="1440"
     inkscape:window-height="847"
     inkscape:window-x="0"
     inkscape:window-y="0" />
  <metadata
     id="metadata7">
    <rdf:RDF>
      <cc:Work
         rdf:about="">
        <dc:format>image/svg+xml</dc:format>
        <dc:type
           rdf:resource="http://purl.org/dc/dcmitype/StillImage" />
      </cc:Work>
    </rdf:RDF>
  </metadata>
  <g
     inkscape:label="Layer 1"
     inkscape:groupmode="layer"
     id="layer1">
    <path
       sodipodi:type="arc"
       style="opacity:0.64044944;fill:#2e3436;fill-opacity:1;stroke:none;stroke-width:1;stroke-miterlimit:4;stroke-dasharray:none;stroke-opacity:1;filter:url(#filter3405)"
       id="path3140"
       sodipodi:cx="10.748654"
       sodipodi:cy="10.457643"
       sodipodi:rx="6.6449099"
       sodipodi:ry="2.3675451"
       d="M 17.393564 10.457643 A 6.6449099 2.3675451 0 1 1  4.1037445,10.457643 A 6.6449099 2.3675451 0 1 1  17.393564 10.457643 z"
       transform="matrix(1.2039291,0,0,1.055946,-0.9406174,8.4572942)" />
    <path
       sodipodi:type="arc"
       style="opacity:1;fill:#edd400;fill-opacity:1;stroke:#cc6400;stroke-width:1.05276573;stroke-miterlimit:4;stroke-dasharray:none;stroke-opacity:1"
       id="path1307"
       sodipodi:cx="11.806158"
       sodipodi:cy="10.983024"
       sodipodi:rx="9.975256"
       sodipodi:ry="9.975256"
       d="M 21.781414 10.983024 A 9.975256 9.975256 0 1 1  1.8309021,10.983024 A 9.975256 9.975256 0 1 1  21.781414 10.983024 z"
       transform="matrix(0.952236,0,0,0.952236,0.757713,1.541608)" />
    <path
       sodipodi:type="arc"
       style="opacity:0.79545455;fill:url(#radialGradient3114);fill-opacity:1.0;stroke:none;stroke-width:1.05274069;stroke-miterlimit:4;stroke-dasharray:none;stroke-opacity:1"
       id="path3102"
       sodipodi:cx="11.806158"
       sodipodi:cy="10.983024"
       sodipodi:rx="9.975256"
       sodipodi:ry="9.975256"
       d="M 21.781414 10.983024 A 9.975256 9.975256 0 1 1  1.8309021,10.983024 A 9.975256 9.975256 0 1 1  21.781414 10.983024 z"
       transform="matrix(0.8019,0,0,0.801938,2.532654,3.191833)" />
    <path
       sodipodi:type="arc"
       style="opacity:0.64044944;fill:none;fill-opacity:1.0;stroke:#ffffff;stroke-width:1.17343897;stroke-miterlimit:4;stroke-dasharray:none;stroke-opacity:1"
       id="path2184"
       sodipodi:cx="11.806158"
       sodipodi:cy="10.983024"
       sodipodi:rx="9.975256"
       sodipodi:ry="9.975256"
       d="M 21.781414 10.983024 A 9.975256 9.975256 0 1 1  1.8309021,10.983024 A 9.975256 9.975256 0 1 1  21.781414 10.983024 z"
       transform="matrix(0.852176,0,0,0.852216,1.93909,2.639626)" />
    <path
       style="fill:#eeeeec;fill-opacity:1;stroke:#fea523;stroke-width:1;stroke-miterlimit:4;stroke-opacity:1"
       d="M 11.499998,10 C 11.499998,11.38 10.379999,12.5 8.9999982,12.5 C 7.6199981,12.5 6.4999979,11.38 6.4999979,10 C 6.4999979,8.62 7.6199981,7.5 8.9999982,7.5 C 10.379999,7.5 11.499998,8.62 11.499998,10 z "
       id="path3154" />
    <path
       sodipodi:type="arc"
       style="opacity:1;fill:#2e3436;fill-opacity:1;stroke:none;stroke-width:0.98640186;stroke-miterlimit:4;stroke-dasharray:none;stroke-opacity:1"
       id="path2172"
       sodipodi:cx="9.7069349"
       sodipodi:cy="9.6526775"
       sodipodi:rx="1.0259361"
       sodipodi:ry="1.9413869"
       d="M 10.732871 9.6526775 A 1.0259361 1.9413869 0 1 1  8.6809988,9.6526775 A 1.0259361 1.9413869 0 1 1  10.732871 9.6526775 z"
       transform="matrix(0.9747196,0,0,0.7726436,0.5384595,3.0419202)" />
    <path
       sodipodi:type="arc"
       style="opacity:1;fill:#eeeeec;fill-opacity:1;stroke:#fea523;stroke-width:0.56451595;stroke-miterlimit:4;stroke-dasharray:none;stroke-opacity:1"
       id="path3152"
       sodipodi:cx="9.7069349"
       sodipodi:cy="9.6526775"
       sodipodi:rx="1.0259361"
       sodipodi:ry="1.9413869"
       d="M 10.732871 9.6526775 A 1.0259361 1.9413869 0 1 1  8.6809988,9.6526775 A 1.0259361 1.9413869 0 1 1  10.732871 9.6526775 z"
       transform="matrix(2.4367992,0,0,1.2877391,-8.6538516,-2.4301299)" />
    <path
       sodipodi:type="arc"
       style="opacity:1;fill:#2e3436;fill-opacity:1;stroke:none;stroke-width:0.98640186;stroke-miterlimit:4;stroke-dasharray:none;stroke-opacity:1"
       id="path3148"
       sodipodi:cx="9.7069349"
       sodipodi:cy="9.6526775"
       sodipodi:rx="1.0259361"
       sodipodi:ry="1.9413869"
       d="M 10.732871 9.6526775 A 1.0259361 1.9413869 0 1 1  8.6809988,9.6526775 A 1.0259361 1.9413869 0 1 1  10.732871 9.6526775 z"
       transform="matrix(0.9747195,0,0,0.7726435,4.5384605,3.0419215)" />
    <path
       style="opacity:1;fill:#ce5c00;fill-opacity:1;stroke:none;stroke-width:1;stroke-miterlimit:4;stroke-dasharray:none;stroke-opacity:1"
       d="M 17,14 C 16.413519,16.283765 14.403819,18 12,18 C 9.5961819,18 7.5864809,16.283765 6.9999999,14 C 8.0537469,15.478811 9.9044429,17.044402 12,17.044402 C 14.095556,17.044403 15.946253,15.478811 17,14 z "
       id="path2186"
       sodipodi:nodetypes="cscsc" />
    <path
       sodipodi:type="arc"
       style="opacity:0.64044949;fill:none;fill-opacity:1;stroke:#f57900;stroke-width:0.73675901;stroke-miterlimit:4;stroke-dasharray:none;stroke-opacity:1"
       id="path3413"
       sodipodi:cx="8.3258924"
       sodipodi:cy="9.2232141"
       sodipodi:rx="1.2276785"
       sodipodi:ry="1.7410715"
       d="M 7.2133909,8.4869402 A 1.2276785,1.7410715 0 0 1 9.288462,8.1425499"
       transform="matrix(1.8690368,0.3494647,-0.353133,0.9196421,3.0149257,-3.2342213)"
       sodipodi:start="3.5782199"
       sodipodi:end="5.6135639"
       sodipodi:open="true" />
    <path
       sodipodi:type="arc"
       style="opacity:0.64044949;fill:none;fill-opacity:1;stroke:#f57900;stroke-width:0.73675901;stroke-miterlimit:4;stroke-dasharray:none;stroke-opacity:1"
       id="path3415"
       sodipodi:cx="8.3258924"
       sodipodi:cy="9.2232141"
       sodipodi:rx="1.2276785"
       sodipodi:ry="1.7410715"
       d="M 7.2133909,8.4869402 A 1.2276785,1.7410715 0 0 1 9.288462,8.1425499"
       transform="matrix(-1.8690368,0.3494647,0.353133,0.9196421,20.985074,-3.2342213)"
       sodipodi:start="3.5782199"
       sodipodi:end="5.6135639"
       sodipodi:open="true" />
    <path
       style="fill:#babdb6;fill-opacity:1;stroke:#888a85;stroke-width:0.99999994;stroke-miterlimit:4;stroke-opacity:1"
       d="M 7.9285714,0.48660714 C 6.5765461,0.48660714 6.5624584,2.5389614 6.5,3.875 C 5.344807,4.0460027 4.2979566,4.2690133 3.5,4.53125 L 3.5,4.5 C 3.5,3.946 3.054,3.5 2.5,3.5 C 1.946,3.5 1.5,3.946 1.5,4.5 L 1.5,5.5 C 1.5,5.5923333 1.539287,5.6652315 1.5625,5.75 C 1.5266318,5.8340088 1.5,5.91375 1.5,6 C 1.5,7.3799999 6.2039999,8.5000002 12,8.5 C 17.796,8.5 22.5,7.3799998 22.5,6 C 22.5,5.91375 22.473368,5.8340088 22.4375,5.75 C 22.460713,5.6652315 22.5,5.5923333 22.5,5.5 L 22.5,4.5 C 22.5,3.946 22.054,3.5 21.5,3.5 C 20.946,3.5 20.5,3.946 20.5,4.5 L 20.5,4.53125 C 19.468533,4.1922735 18.069322,3.9300618 16.46875,3.75 C 16.3473,2.4724088 16.247943,0.48660714 14.9375,0.48660714 C 14.9375,0.48660714 12.28125,-0.27232146 11.433036,1.1116071 C 10.470154,-0.12159584 7.9285714,0.48660714 7.9285714,0.48660714 z "
       id="path2408"
       sodipodi:nodetypes="ccccsccsssssccscccccc" />
    <path
       sodipodi:type="arc"
       style="opacity:1;fill:none;fill-opacity:1;stroke:url(#linearGradient3417);stroke-width:0.85377634;stroke-miterlimit:4;stroke-dasharray:none;stroke-opacity:1"
       id="path3396"
       sodipodi:cx="12.477678"
       sodipodi:cy="4.4241071"
       sodipodi:rx="3.8169644"
       sodipodi:ry="1.71875"
       d="M 16.294643 4.4241071 A 3.8169644 1.71875 0 1 1  8.6607139,4.4241071 A 3.8169644 1.71875 0 1 1  16.294643 4.4241071 z"
       transform="matrix(1.5719298,0,0,0.8727273,-8.1140346,0.1389611)" />
    <path
       transform="translate(-2.9802322e-8,1)"
       style="opacity:0.36516855;fill:none;fill-opacity:1;stroke:#ffffff;stroke-width:0.99999994;stroke-miterlimit:4;stroke-opacity:1"
       d="M 8.2857143,0.43303571 C 7.5226486,0.43303571 7.6605879,2.1762437 7.625,2.9375 C 7.5890278,3.4681552 7.1836237,3.8997144 6.65625,3.96875 C 5.5434825,4.1334725 4.5449516,4.3633104 3.84375,4.59375 C 3.4055236,4.7429959 2.920654,4.6062378 2.625,4.25 L 2.625,4.5 C 2.6731677,4.6621458 2.6838535,4.8331185 2.65625,5 C 2.6378157,4.8236849 2.5423193,4.8128304 2.875,5 C 3.2552065,5.2139081 3.9556729,5.4760531 4.84375,5.6875 C 6.6199042,6.1103939 9.1738886,6.3750001 12,6.375 C 14.826111,6.375 17.380096,6.1103939 19.15625,5.6875 C 20.044327,5.4760531 20.744793,5.2139081 21.125,5 C 21.457681,4.8128304 21.362184,4.8236849 21.34375,5 C 21.316147,4.8331185 21.326832,4.6621458 21.375,4.5 C 21.375,4.2757476 21.439887,4.231797 21.375,4.46875 L 21.375,4.1875 C 21.095204,4.5665629 20.607525,4.7291225 20.15625,4.59375 C 19.247009,4.2949412 17.896513,4.0184334 16.34375,3.84375 C 15.814832,3.7910422 15.396458,3.3726678 15.34375,2.84375 C 15.273722,2.107093 15.499511,0.43303571 14.758929,0.43303571 L 8.2857143,0.43303571 z "
       id="path3409"
       sodipodi:nodetypes="cscsccssssssscccccscc" />
    <path
       sodipodi:type="arc"
       style="opacity:0.16853931;fill:#2e3436;fill-opacity:1;stroke:none;stroke-width:1;stroke-miterlimit:4;stroke-dasharray:none;stroke-opacity:1"
       id="path3420"
       sodipodi:cx="11.138392"
       sodipodi:cy="2.6830356"
       sodipodi:rx="1.4508928"
       sodipodi:ry="1.1830357"
       d="M 12.589285 2.6830356 A 1.4508928 1.1830357 0 1 1  9.6874996,2.6830356 A 1.4508928 1.1830357 0 1 1  12.589285 2.6830356 z"
       transform="matrix(1.7230772,0,0,0.845283,-7.6923099,-0.2679244)" />
  </g>
</svg>
