<?xml version="1.0" encoding="UTF-8" standalone="no"?>
<!-- Created with Inkscape (http://www.inkscape.org/) -->
<svg
   xmlns:dc="http://purl.org/dc/elements/1.1/"
   xmlns:cc="http://creativecommons.org/ns#"
   xmlns:rdf="http://www.w3.org/1999/02/22-rdf-syntax-ns#"
   xmlns:svg="http://www.w3.org/2000/svg"
   xmlns="http://www.w3.org/2000/svg"
   xmlns:xlink="http://www.w3.org/1999/xlink"
   xmlns:sodipodi="http://sodipodi.sourceforge.net/DTD/sodipodi-0.dtd"
   xmlns:inkscape="http://www.inkscape.org/namespaces/inkscape"
   width="24"
   height="24"
   id="svg2"
   sodipodi:version="0.32"
   inkscape:version="0.46"
   version="1.0"
   sodipodi:docbase="/home/hbons/Desktop/Gaim Refresh/emotes/scalable"
   sodipodi:docname="dog.svg"
   inkscape:export-filename="/home/hbons/Desktop/Gaim Refresh/emotes/face-dog.png"
   inkscape:export-xdpi="90"
   inkscape:export-ydpi="90"
   inkscape:output_extension="org.inkscape.output.svg.inkscape">
  <defs
     id="defs4">
    <linearGradient
       inkscape:collect="always"
       id="linearGradient3228">
      <stop
         style="stop-color:#8f5902;stop-opacity:1"
         offset="0"
         id="stop3230" />
      <stop
         style="stop-color:#8f5902;stop-opacity:0;"
         offset="1"
         id="stop3232" />
    </linearGradient>
    <linearGradient
       inkscape:collect="always"
       id="linearGradient3220">
      <stop
         style="stop-color:#a40000;stop-opacity:1;"
         offset="0"
         id="stop3222" />
      <stop
         style="stop-color:#a40000;stop-opacity:0;"
         offset="1"
         id="stop3224" />
    </linearGradient>
    <linearGradient
       inkscape:collect="always"
       id="linearGradient3212">
      <stop
         style="stop-color:#f45d5d;stop-opacity:1"
         offset="0"
         id="stop3214" />
      <stop
         style="stop-color:#ef2929;stop-opacity:0;"
         offset="1"
         id="stop3216" />
    </linearGradient>
    <linearGradient
       inkscape:collect="always"
       id="linearGradient3184">
      <stop
         style="stop-color:#8f5902;stop-opacity:1;"
         offset="0"
         id="stop3186" />
      <stop
         style="stop-color:#633e00;stop-opacity:1"
         offset="1"
         id="stop3188" />
    </linearGradient>
    <linearGradient
       inkscape:collect="always"
       id="linearGradient3176">
      <stop
         style="stop-color:#8f5902;stop-opacity:1;"
         offset="0"
         id="stop3178" />
      <stop
         style="stop-color:#643e00;stop-opacity:1"
         offset="1"
         id="stop3180" />
    </linearGradient>
    <linearGradient
       inkscape:collect="always"
       id="linearGradient2225">
      <stop
         style="stop-color:#ffffff;stop-opacity:1;"
         offset="0"
         id="stop2227" />
      <stop
         style="stop-color:#ffffff;stop-opacity:0;"
         offset="1"
         id="stop2229" />
    </linearGradient>
    <linearGradient
       inkscape:collect="always"
       id="linearGradient3104">
      <stop
         style="stop-color:#ffffff;stop-opacity:1"
         offset="0"
         id="stop3106" />
      <stop
         style="stop-color:#eeeeec;stop-opacity:0;"
         offset="1"
         id="stop3108" />
    </linearGradient>
    <radialGradient
       inkscape:collect="always"
       xlink:href="#linearGradient3104"
       id="radialGradient3114"
       cx="8.8539686"
       cy="15.31185"
       fx="8.8539686"
       fy="15.31185"
       r="9.975256"
       gradientUnits="userSpaceOnUse"
       gradientTransform="matrix(-0.9327,0.932656,-0.947494,-0.947449,33.02126,11.96667)" />
    <linearGradient
       inkscape:collect="always"
       xlink:href="#linearGradient2225"
       id="linearGradient2231"
       x1="11.806158"
       y1="0.67667705"
       x2="11.806158"
       y2="41.96603"
       gradientUnits="userSpaceOnUse" />
    <linearGradient
       inkscape:collect="always"
       xlink:href="#linearGradient3176"
       id="linearGradient3182"
       x1="8.8130445"
       y1="8.7484121"
       x2="15.346523"
       y2="17.139606"
       gradientUnits="userSpaceOnUse" />
    <linearGradient
       inkscape:collect="always"
       xlink:href="#linearGradient3184"
       id="linearGradient3190"
       x1="20.34668"
       y1="13.120907"
       x2="20.046442"
       y2="19.960947"
       gradientUnits="userSpaceOnUse"
       gradientTransform="matrix(0.9999894,0,0,0.9999979,1.4320961e-4,7.4013385e-6)" />
    <linearGradient
       inkscape:collect="always"
       xlink:href="#linearGradient3212"
       id="linearGradient3218"
       x1="12.21524"
       y1="20.589502"
       x2="12.21524"
       y2="18.166796"
       gradientUnits="userSpaceOnUse"
       gradientTransform="matrix(0.75,0,0,1.0000001,3,-1.5000018)" />
    <linearGradient
       inkscape:collect="always"
       xlink:href="#linearGradient3220"
       id="linearGradient3226"
       x1="11.27513"
       y1="16.998613"
       x2="11.27513"
       y2="16.091856"
       gradientUnits="userSpaceOnUse"
       gradientTransform="matrix(0.6,0,0,0.8571431,4.8,2.2142817)" />
    <linearGradient
       inkscape:collect="always"
       xlink:href="#linearGradient3228"
       id="linearGradient3234"
       x1="16.795219"
       y1="13.660686"
       x2="14.541116"
       y2="9.5"
       gradientUnits="userSpaceOnUse" />
    <linearGradient
       inkscape:collect="always"
       xlink:href="#linearGradient3228"
       id="linearGradient3238"
       gradientUnits="userSpaceOnUse"
       x1="16.795219"
       y1="13.660686"
       x2="14.541116"
       y2="9.5"
       gradientTransform="matrix(-1,0,0,1,24,-3e-7)" />
  </defs>
  <sodipodi:namedview
     id="base"
     pagecolor="#ffffff"
     bordercolor="#666666"
     borderopacity="1.0"
     inkscape:pageopacity="0.0"
     inkscape:pageshadow="2"
     inkscape:zoom="25.730843"
     inkscape:cx="19.41989"
     inkscape:cy="10.691568"
     inkscape:document-units="px"
     inkscape:current-layer="layer1"
     showgrid="true"
     fill="#a40000"
     inkscape:window-width="1440"
     inkscape:window-height="848"
     inkscape:window-x="0"
     inkscape:window-y="0"
     showguides="true"
     inkscape:guide-bbox="true"
     inkscape:snap-bbox="true"
     inkscape:snap-nodes="false"
     objecttolerance="10"
     gridtolerance="10">
    <inkscape:grid
       type="xygrid"
       id="grid2404"
       visible="true"
       enabled="true" />
  </sodipodi:namedview>
  <metadata
     id="metadata7">
    <rdf:RDF>
      <cc:Work
         rdf:about="">
        <dc:format>image/svg+xml</dc:format>
        <dc:type
           rdf:resource="http://purl.org/dc/dcmitype/StillImage" />
      </cc:Work>
    </rdf:RDF>
  </metadata>
  <g
     inkscape:label="Layer 1"
     inkscape:groupmode="layer"
     id="layer1">
    <path
       style="fill:#c17d11;fill-opacity:1;stroke:#8f5902;stroke-width:0.99999881;stroke-miterlimit:4;stroke-opacity:1"
       d="M 9.1203344,13.28102 C 8.1789769,17.919325 5.7936413,21.110186 3.7959257,20.403473 C 1.7982099,19.696761 0.94087607,15.358773 1.8822336,10.720467 C 2.8235914,6.0821601 5.2089261,2.8913017 7.206642,3.5980145 C 9.2043575,4.3047274 10.061691,8.6427141 9.1203344,13.28102 z"
       id="path2194" />
    <path
       sodipodi:type="inkscape:offset"
       inkscape:radius="-0.99481761"
       inkscape:original="M 7.21875 3.59375 C 5.2210341 2.8870372 2.8163578 6.0804435 1.875 10.71875 C 0.93364247 15.357056 1.7835343 19.699538 3.78125 20.40625 C 5.7789656 21.112963 8.1836423 17.919555 9.125 13.28125 C 10.066357 8.6429441 9.2164653 4.3004628 7.21875 3.59375 z "
       xlink:href="#path2194"
       style="opacity:0.58928571;fill:none;fill-opacity:1;stroke:#ffffff;stroke-width:1.00256479000000009;stroke-miterlimit:4;stroke-opacity:1"
       id="path2234"
       inkscape:href="#path2194"
       d="M 6.875,4.53125 C 6.6568034,4.4540607 6.4624029,4.4485699 6.125,4.625 C 5.7875971,4.8014301 5.3592141,5.1884127 4.9375,5.75 C 4.0940718,6.8731746 3.2904391,8.7053007 2.84375,10.90625 C 2.3967148,13.108905 2.3755444,15.255758 2.6875,16.84375 C 2.9994556,18.431742 3.6882926,19.31426 4.125,19.46875 C 4.3431964,19.545939 4.5375971,19.55143 4.875,19.375 C 5.2124029,19.19857 5.6407858,18.811587 6.0625,18.25 C 6.9059283,17.126825 7.709561,15.294698 8.15625,13.09375 C 8.6032849,10.891095 8.6244556,8.744242 8.3125,7.15625 C 8.0005444,5.568258 7.3117075,4.6857399 6.875,4.53125 z"
       transform="matrix(0.9962117,0,0,0.9986743,3.2287666e-2,5.9393481e-3)" />
    <path
       style="fill:#c17d11;fill-opacity:1;stroke:url(#linearGradient3190);stroke-width:0.9999994;stroke-miterlimit:4;stroke-opacity:1"
       d="M 13.931219,13.854674 C 14.989738,18.7659 17.67196,22.144514 19.918318,21.396218 C 22.164674,20.647922 23.128714,16.054683 22.070192,11.143456 C 21.011669,6.2322278 18.329451,2.8536171 16.083096,3.6019134 C 13.836736,4.3502098 12.872695,8.9434467 13.931219,13.854674 z"
       id="path2196" />
    <path
       sodipodi:type="inkscape:offset"
       inkscape:radius="-1.0392361"
       inkscape:original="M 16.09375 3.59375 C 13.84739 4.3420463 12.878976 8.9325227 13.9375 13.84375 C 14.996019 18.754976 17.659892 22.154546 19.90625 21.40625 C 22.152606 20.657955 23.121022 16.067477 22.0625 11.15625 C 21.003977 6.2450213 18.340105 2.8454537 16.09375 3.59375 z "
       xlink:href="#path2196"
       style="opacity:0.48214286;fill:none;fill-opacity:1;stroke:#ffffff;stroke-width:0.99551754999999997;stroke-miterlimit:4;stroke-opacity:1"
       id="path2239"
       inkscape:href="#path2196"
       d="M 16.4375,4.59375 C 15.876368,4.7806718 15.133321,5.7028526 14.78125,7.375 C 14.429179,9.0471474 14.467292,11.298381 14.96875,13.625 C 15.470584,15.953373 16.338407,17.896489 17.28125,19.09375 C 17.752671,19.69238 18.231185,20.11618 18.625,20.3125 C 19.018815,20.50882 19.28319,20.499292 19.5625,20.40625 C 20.123629,20.219329 20.866679,19.297148 21.21875,17.625 C 21.570821,15.952852 21.532707,13.701618 21.03125,11.375 C 20.529414,9.0466259 19.661593,7.1035109 18.71875,5.90625 C 18.247329,5.3076196 17.768815,4.8838201 17.375,4.6875 C 16.981185,4.4911799 16.716809,4.5007077 16.4375,4.59375 z"
       transform="matrix(1.0071456,0,0,1.0018674,-0.1039639,-8.458664e-3)" />
    <path
       sodipodi:type="arc"
       style="opacity:1;fill:#c17d11;fill-opacity:1;stroke:url(#linearGradient3182);stroke-width:1.17634927999999994;stroke-miterlimit:4;stroke-dasharray:none;stroke-opacity:1"
       id="path1307"
       sodipodi:cx="11.806158"
       sodipodi:cy="10.983024"
       sodipodi:rx="9.975256"
       sodipodi:ry="9.975256"
       d="M 21.781414 10.983024 A 9.975256 9.975256 0 1 1  1.8309021,10.983024 A 9.975256 9.975256 0 1 1  21.781414 10.983024 z"
       transform="matrix(0.852197,0,0,0.852197,1.938136,2.639608)" />
    <path
       sodipodi:type="arc"
       style="opacity:0.59999999999999998;fill:url(#radialGradient3114);fill-opacity:1;stroke:none;stroke-width:1.05274069000000003;stroke-miterlimit:4;stroke-dasharray:none;stroke-opacity:1"
       id="path3102"
       sodipodi:cx="11.806158"
       sodipodi:cy="10.983024"
       sodipodi:rx="9.975256"
       sodipodi:ry="9.975256"
       d="M 21.781414 10.983024 A 9.975256 9.975256 0 1 1  1.8309021,10.983024 A 9.975256 9.975256 0 1 1  21.781414 10.983024 z"
       transform="matrix(0.8019,0,0,0.801938,2.532654,3.191833)" />
    <path
       sodipodi:type="arc"
       style="opacity:0.59821429;fill:none;fill-opacity:1;stroke:url(#linearGradient2231);stroke-width:1.32035302999999993;stroke-miterlimit:4;stroke-dasharray:none;stroke-opacity:1"
       id="path2184"
       sodipodi:cx="11.806158"
       sodipodi:cy="10.983024"
       sodipodi:rx="9.975256"
       sodipodi:ry="9.975256"
       d="M 21.781414 10.983024 A 9.975256 9.975256 0 1 1  1.8309021,10.983024 A 9.975256 9.975256 0 1 1  21.781414 10.983024 z"
       transform="matrix(0.757355,0,0,0.757391,3.058557,3.681091)" />
    <path
       style="fill:#e9b96e;fill-opacity:1;stroke:none;stroke-width:1;stroke-miterlimit:4;stroke-opacity:1"
       d="M 12.000002,13 C 9.7920011,13 8,15.938575 8,17.027433 C 8,18.11629 9.7920011,19 12.000002,19 C 14.208002,19 16.000003,18.11629 16.000003,17.027433 C 16.000003,15.938575 14.208002,13 12.000002,13 z"
       id="path3208"
       sodipodi:nodetypes="csssc" />
    <path
       style="opacity:1;fill:#a40000;fill-opacity:1;stroke:none;stroke-width:1;stroke-miterlimit:4;stroke-dasharray:none;stroke-opacity:1"
       d="M 17,14 C 16.413518,15.712824 14.403819,18.982057 12,18.982057 C 9.5961825,18.982057 7.586481,15.712824 7,14 C 8.053747,15.109108 9.9044425,16.030764 12,16.030764 C 14.095556,16.030764 15.946253,15.109108 17,14 z"
       id="path2186"
       sodipodi:nodetypes="cscsc" />
    <path
       style="fill:#ffffff;fill-opacity:1;stroke:url(#linearGradient3238);stroke-width:1;stroke-miterlimit:4;stroke-opacity:1"
       d="M 11.5,9.4999996 C 11.5,11.155999 10.628407,12.5 9.554478,12.5 C 8.480549,12.5 6.5,12.415189 6.5,10.759191 C 6.5,9.1031901 8.480549,6.5 9.554478,6.5 C 10.628407,6.5 11.5,7.8439997 11.5,9.4999996 z"
       id="path3236"
       sodipodi:nodetypes="csssc" />
    <path
       style="fill:#ffffff;fill-opacity:1;stroke:url(#linearGradient3234);stroke-width:1;stroke-miterlimit:4;stroke-opacity:1"
       d="M 12.5,9.4999999 C 12.5,11.155999 13.371593,12.5 14.445522,12.5 C 15.519451,12.5 17.5,12.415189 17.5,10.759191 C 17.5,9.1031904 15.519451,6.5000003 14.445522,6.5000003 C 13.371593,6.5000003 12.5,7.844 12.5,9.4999999 z"
       id="path3197"
       sodipodi:nodetypes="csssc" />
    <path
       style="fill:#2e3436;fill-opacity:1;stroke:none;stroke-width:1;stroke-miterlimit:4;stroke-opacity:1"
       d="M 11.999999,15 C 10.895998,15 9.9999967,13.530712 9.9999967,12.986283 C 9.9999967,12.441854 10.895998,11.999999 11.999999,11.999999 C 13.103999,11.999999 14,12.441854 14,12.986283 C 14,13.530712 13.103999,15 11.999999,15 z "
       id="path1319"
       sodipodi:nodetypes="csssc" />
    <path
       sodipodi:type="arc"
       style="opacity:0.79017861;fill:#000000;fill-opacity:1;fill-rule:nonzero;stroke:none;stroke-width:1;stroke-linecap:square;stroke-linejoin:miter;marker:none;marker-start:none;marker-mid:none;marker-end:none;stroke-miterlimit:4;stroke-dasharray:none;stroke-dashoffset:0;stroke-opacity:1;visibility:visible;display:inline;overflow:visible;enable-background:accumulate"
       id="path3199"
       sodipodi:cx="14.573949"
       sodipodi:cy="10.242192"
       sodipodi:rx="0.58295798"
       sodipodi:ry="0.73841345"
       d="M 15.156907,10.242192 A 0.58295798,0.73841345 0 1 1 13.990991,10.242192 A 0.58295798,0.73841345 0 1 1 15.156907,10.242192 z"
       transform="matrix(1.7153899,0,0,2.031382,-11.000004,-12.305805)" />
    <path
       sodipodi:type="arc"
       style="opacity:0.79017861;fill:#000000;fill-opacity:1;fill-rule:nonzero;stroke:none;stroke-width:1;stroke-linecap:square;stroke-linejoin:miter;marker:none;marker-start:none;marker-mid:none;marker-end:none;stroke-miterlimit:4;stroke-dasharray:none;stroke-dashoffset:0;stroke-opacity:1;visibility:visible;display:inline;overflow:visible;enable-background:accumulate"
       id="path3201"
       sodipodi:cx="14.573949"
       sodipodi:cy="10.242192"
       sodipodi:rx="0.58295798"
       sodipodi:ry="0.73841345"
       d="M 15.156907,10.242192 A 0.58295798,0.73841345 0 1 1 13.990991,10.242192 A 0.58295798,0.73841345 0 1 1 15.156907,10.242192 z"
       transform="matrix(1.7153899,0,0,2.0313823,-15.000005,-12.305808)" />
    <path
       style="opacity:1;fill:#e5c99d;fill-opacity:1;fill-rule:nonzero;stroke:none;stroke-width:1;stroke-linecap:square;stroke-linejoin:miter;stroke-miterlimit:4;stroke-dashoffset:0;stroke-opacity:1;marker:none;marker-start:none;marker-mid:none;marker-end:none;visibility:visible;display:inline;overflow:visible;enable-background:accumulate"
       d="M 7.1918374,4.1582117 L 8.4409357,5.1337837 L 6.0088759,8.0018978 C 6.0088759,8.0018978 5.3231361,6.0095324 3.949091,6.9851044 L 7.1918374,4.1582117 z"
       id="rect3203"
       sodipodi:nodetypes="ccccc" />
    <path
       style="opacity:1;fill:#e5c99d;fill-opacity:1;fill-rule:nonzero;stroke:none;stroke-width:1;stroke-linecap:square;stroke-linejoin:miter;marker:none;marker-start:none;marker-mid:none;marker-end:none;stroke-miterlimit:4;stroke-dashoffset:0;stroke-opacity:1;visibility:visible;display:inline;overflow:visible;enable-background:accumulate"
       d="M 16.579442,4 L 15.330343,4.975572 L 17.762403,7.8436861 C 17.762403,7.8436861 18.448143,5.8513207 19.822188,6.8268927 L 16.579442,4 z"
       id="path3206"
       sodipodi:nodetypes="ccccc" />
    <rect
       style="opacity:1;fill:url(#linearGradient3218);fill-opacity:1;fill-rule:nonzero;stroke:url(#linearGradient3226);stroke-width:1;stroke-linecap:square;stroke-linejoin:miter;marker:none;marker-start:none;marker-mid:none;marker-end:none;stroke-miterlimit:4;stroke-dasharray:none;stroke-dashoffset:0;stroke-opacity:1;visibility:visible;display:inline;overflow:visible;enable-background:accumulate"
       id="rect3210"
       width="3"
       height="6.000001"
       x="10.5"
       y="15.499999"
       rx="1.5"
       ry="1.5" />
  </g>
</svg>
