<?xml version="1.0" encoding="UTF-8" standalone="no"?>
<!-- Created with Inkscape (http://www.inkscape.org/) -->
<svg
   xmlns:dc="http://purl.org/dc/elements/1.1/"
   xmlns:cc="http://creativecommons.org/ns#"
   xmlns:rdf="http://www.w3.org/1999/02/22-rdf-syntax-ns#"
   xmlns:svg="http://www.w3.org/2000/svg"
   xmlns="http://www.w3.org/2000/svg"
   xmlns:xlink="http://www.w3.org/1999/xlink"
   xmlns:sodipodi="http://sodipodi.sourceforge.net/DTD/sodipodi-0.dtd"
   xmlns:inkscape="http://www.inkscape.org/namespaces/inkscape"
   width="24"
   height="24"
   id="svg3190"
   sodipodi:version="0.32"
   inkscape:version="0.46"
   version="1.0"
   sodipodi:docbase="/home/hbons/Desktop/Gaim Refresh/emotes"
   sodipodi:docname="drink.svg"
   inkscape:export-filename="/home/hbons/Bureaublad/Projecten/Pidgin objecten voor 2.5.0/bitmaps/drink.png"
   inkscape:export-xdpi="90"
   inkscape:export-ydpi="90"
   inkscape:output_extension="org.inkscape.output.svg.inkscape">
  <defs
     id="defs3192">
    <linearGradient
       inkscape:collect="always"
       id="linearGradient3312">
      <stop
         style="stop-color:#ce5c00;stop-opacity:1;"
         offset="0"
         id="stop3314" />
      <stop
         style="stop-color:#a14800;stop-opacity:1"
         offset="1"
         id="stop3316" />
    </linearGradient>
    <linearGradient
       inkscape:collect="always"
       id="linearGradient3279">
      <stop
         style="stop-color:#ffffff;stop-opacity:1;"
         offset="0"
         id="stop3281" />
      <stop
         style="stop-color:#ffffff;stop-opacity:0;"
         offset="1"
         id="stop3283" />
    </linearGradient>
    <linearGradient
       id="linearGradient3230">
      <stop
         style="stop-color:#4e9a06;stop-opacity:1"
         offset="0"
         id="stop3232" />
      <stop
         style="stop-color:#8ae234;stop-opacity:1"
         offset="1"
         id="stop3234" />
    </linearGradient>
    <linearGradient
       inkscape:collect="always"
       id="linearGradient3222">
      <stop
         style="stop-color:#eeeeec;stop-opacity:1;"
         offset="0"
         id="stop3224" />
      <stop
         style="stop-color:#eeeeec;stop-opacity:0;"
         offset="1"
         id="stop3226" />
    </linearGradient>
    <linearGradient
       inkscape:collect="always"
       id="linearGradient3206">
      <stop
         style="stop-color:#a40000;stop-opacity:1;"
         offset="0"
         id="stop3208" />
      <stop
         style="stop-color:#ff1010;stop-opacity:1"
         offset="1"
         id="stop3210" />
    </linearGradient>
    <linearGradient
       inkscape:collect="always"
       id="linearGradient3190">
      <stop
         style="stop-color:#767873;stop-opacity:1"
         offset="0"
         id="stop3192" />
      <stop
         style="stop-color:#babdb6;stop-opacity:1"
         offset="1"
         id="stop3194" />
    </linearGradient>
    <linearGradient
       inkscape:collect="always"
       id="linearGradient4247">
      <stop
         style="stop-color:#d3d7cf;stop-opacity:1;"
         offset="0"
         id="stop4249" />
      <stop
         style="stop-color:#d3d7cf;stop-opacity:0;"
         offset="1"
         id="stop4251" />
    </linearGradient>
    <linearGradient
       inkscape:collect="always"
       xlink:href="#linearGradient4247"
       id="linearGradient4253"
       x1="4.0895796"
       y1="15.74871"
       x2="8.5677795"
       y2="14.007638"
       gradientUnits="userSpaceOnUse"
       gradientTransform="matrix(1,0,0,0.999821,0,3.927122e-3)" />
    <linearGradient
       inkscape:collect="always"
       xlink:href="#linearGradient3190"
       id="linearGradient3196"
       x1="14.507064"
       y1="17.756317"
       x2="3.5707524"
       y2="11.966745"
       gradientUnits="userSpaceOnUse" />
    <linearGradient
       inkscape:collect="always"
       xlink:href="#linearGradient3206"
       id="linearGradient3212"
       x1="5.8282113"
       y1="9.2797136"
       x2="5.22616"
       y2="5.6572366"
       gradientUnits="userSpaceOnUse" />
    <linearGradient
       inkscape:collect="always"
       xlink:href="#linearGradient3222"
       id="linearGradient3228"
       x1="12.77862"
       y1="8.5383043"
       x2="12.77862"
       y2="6.7694745"
       gradientUnits="userSpaceOnUse" />
    <linearGradient
       inkscape:collect="always"
       xlink:href="#linearGradient3230"
       id="linearGradient3236"
       x1="13.155723"
       y1="8"
       x2="7.8870277"
       y2="8"
       gradientUnits="userSpaceOnUse" />
    <filter
       inkscape:collect="always"
       id="filter3272"
       x="-0.10368973"
       width="1.2073795"
       y="-0.27522582"
       height="1.5504516">
      <feGaussianBlur
         inkscape:collect="always"
         stdDeviation="0.51053315"
         id="feGaussianBlur3274" />
    </filter>
    <linearGradient
       inkscape:collect="always"
       xlink:href="#linearGradient3279"
       id="linearGradient3285"
       x1="6.7679405"
       y1="7.9694715"
       x2="11"
       y2="9.5633631"
       gradientUnits="userSpaceOnUse" />
    <linearGradient
       inkscape:collect="always"
       xlink:href="#linearGradient3312"
       id="linearGradient3318"
       x1="16.653736"
       y1="7.7038245"
       x2="14.538501"
       y2="7.1755962"
       gradientUnits="userSpaceOnUse" />
  </defs>
  <sodipodi:namedview
     id="base"
     pagecolor="#ffffff"
     bordercolor="#666666"
     borderopacity="1.0"
     inkscape:pageopacity="0.0"
     inkscape:pageshadow="2"
     inkscape:zoom="25.730843"
     inkscape:cx="24.791111"
     inkscape:cy="15.1933"
     inkscape:document-units="px"
     inkscape:current-layer="layer1"
     showgrid="true"
     fill="#a40000"
     inkscape:window-width="1440"
     inkscape:window-height="848"
     inkscape:window-x="0"
     inkscape:window-y="0"
     showguides="true"
     inkscape:guide-bbox="true"
     inkscape:snap-bbox="true"
     inkscape:snap-nodes="false"
     objecttolerance="10"
     gridtolerance="10">
    <inkscape:grid
       type="xygrid"
       id="grid2411"
       visible="true"
       enabled="true" />
  </sodipodi:namedview>
  <metadata
     id="metadata3195">
    <rdf:RDF>
      <cc:Work
         rdf:about="">
        <dc:format>image/svg+xml</dc:format>
        <dc:type
           rdf:resource="http://purl.org/dc/dcmitype/StillImage" />
      </cc:Work>
    </rdf:RDF>
  </metadata>
  <g
     inkscape:label="Layer 1"
     inkscape:groupmode="layer"
     id="layer1">
    <path
       sodipodi:type="arc"
       style="opacity:0.29464286;fill:#2e3436;fill-opacity:1;fill-rule:nonzero;stroke:none;stroke-width:1;stroke-linecap:square;stroke-linejoin:miter;marker:none;marker-start:none;marker-mid:none;marker-end:none;stroke-miterlimit:4;stroke-dasharray:none;stroke-dashoffset:0;stroke-opacity:1;visibility:visible;display:inline;overflow:visible;filter:url(#filter3272);enable-background:accumulate"
       id="path3238"
       sodipodi:cx="16.13129"
       sodipodi:cy="21.829008"
       sodipodi:rx="5.9083939"
       sodipodi:ry="2.2259531"
       d="M 22.039684,21.829008 A 5.9083939,2.2259531 0 1 1 10.222897,21.829008 A 5.9083939,2.2259531 0 1 1 22.039684,21.829008 z"
       transform="matrix(0.8462537,0,0,0.8984914,-0.6511642,1.3868243)" />
    <path
       style="fill:#eeeeec;fill-opacity:1;stroke:none;stroke-width:1.00000131;stroke-miterlimit:4;stroke-opacity:1"
       d="M 11.773766,1.4993604 C 9.8337651,1.6013952 7.7883073,1.7921189 6.0894016,2.810134 C 5.1266003,3.3114036 5.5758176,4.4499626 5.8322419,5.2377804 C 6.643769,7.5378951 7.7029447,9.8658897 9.5190299,11.558295 C 10.018988,12.056261 10.950105,12.472016 11.533134,12.472016 C 11.533134,14.067824 11.533134,15.8832 11.533134,17.479008 C 10.775816,18.233308 9.2310359,19.38149 8.5211178,20.088579 C 8.5211178,21.880459 16.479067,22.02661 16.479067,20.183391 C 15.770085,19.477235 14.18255,18.130415 13.528535,17.479008 C 13.528535,15.814461 13.528535,14.149915 13.528535,12.485368 C 15.023736,12.390679 16.013626,11.054218 16.814268,9.9374503 C 18.000801,8.1184172 18.955722,6.1202252 19.479642,4.0103976 C 19.680007,2.8558075 18.248907,2.4409569 17.403584,2.1378276 C 15.584463,1.5892915 13.664001,1.4746325 11.773766,1.4993604 z "
       id="path4221"
       sodipodi:nodetypes="cccccccccccccc" />
    <path
       style="fill:url(#linearGradient4253);fill-opacity:1;stroke:url(#linearGradient3196);stroke-width:1.00000106999999994;stroke-miterlimit:4;stroke-opacity:1"
       d="M 11.773766,1.5030191 C 9.8337651,1.6050357 7.7883073,1.7957252 6.0894016,2.8135581 C 5.1266003,3.314738 5.2649067,4.4530932 5.521331,5.24077 C 5.5167169,7.7347922 4.7098937,12.492886 7.7312921,12.492886 C 7.7312921,12.492886 10.950105,12.473711 11.533134,12.473711 C 11.533134,14.069233 11.533134,16.467242 11.533134,18.062764 C 10.775816,18.816929 8.9978527,19.381948 8.2879346,20.08891 C 8.2879346,22.114026 16.751114,21.79388 16.751114,20.183705 C 16.042132,19.477676 14.18255,18.714055 13.528535,18.062764 C 13.528535,16.398515 13.528535,14.151309 13.528535,12.48706 C 13.528535,12.48706 17.125179,12.46575 17.125179,12.46575 C 20.648603,12.46575 19.479642,4.0136069 19.479642,4.0136069 C 19.485688,2.8592234 18.248907,2.4444471 17.403584,2.1413721 C 15.584463,1.5929341 13.664001,1.4782957 11.773766,1.5030191 z"
       id="path4156"
       sodipodi:nodetypes="cccccccccccccc" />
    <path
       style="opacity:1;fill:url(#linearGradient3236);fill-opacity:1;fill-rule:nonzero;stroke:none;stroke-width:1;stroke-linecap:square;stroke-linejoin:miter;marker:none;marker-start:none;marker-mid:none;marker-end:none;stroke-miterlimit:4;stroke-dasharray:none;stroke-dashoffset:0;stroke-opacity:1;visibility:visible;display:inline;overflow:visible;enable-background:accumulate"
       d="M 7 5 L 7 9 L 7.03125 9 C 7.0214273 9.0759607 7 9.1400297 7 9.21875 C 7 10.203764 7.7962357 11 8.78125 11 L 16.21875 11 C 17.203764 11 18 10.203764 18 9.21875 C 18 9.1400296 17.978573 9.0759607 17.96875 9 L 18 9 L 18 5 L 7 5 z "
       id="rect3183" />
    <path
       sodipodi:type="arc"
       style="opacity:1;fill:none;fill-opacity:1;stroke:url(#linearGradient3228);stroke-width:0.92078024000000003;stroke-miterlimit:4;stroke-dasharray:none;stroke-opacity:1"
       id="path4154"
       sodipodi:cx="12.77862"
       sodipodi:cy="6.7694745"
       sodipodi:rx="7.0076299"
       sodipodi:ry="2.1160295"
       d="M 19.78625,6.7694745 A 7.0076299,2.1160295 0 1 1 5.7709899,6.7694745 A 7.0076299,2.1160295 0 1 1 19.78625,6.7694745 z"
       transform="matrix(0.998919,0,0,1.180751,-0.264861,-3.9915681)" />
    <path
       sodipodi:type="arc"
       style="opacity:1;fill:#73d216;fill-opacity:1;fill-rule:nonzero;stroke:none;stroke-width:1;stroke-linecap:square;stroke-linejoin:miter;marker:none;marker-start:none;marker-mid:none;marker-end:none;stroke-miterlimit:4;stroke-dasharray:none;stroke-dashoffset:0;stroke-opacity:1;visibility:visible;display:inline;overflow:visible;enable-background:accumulate"
       id="path3185"
       sodipodi:cx="14.049287"
       sodipodi:cy="5.59796"
       sodipodi:rx="4.294457"
       sodipodi:ry="1.3019395"
       d="M 18.343744,5.59796 A 4.294457,1.3019395 0 1 1 9.7548299,5.59796 A 4.294457,1.3019395 0 1 1 18.343744,5.59796 z"
       transform="matrix(1.2807207,0,0,1.1521272,-5.4932126,-1.9495621)" />
    <path
       transform="matrix(0.866025,-0.5,0.5,0.866025,0,0)"
       style="fill:url(#linearGradient3212);fill-opacity:1;stroke:none;stroke-width:1;stroke-miterlimit:4;stroke-opacity:1"
       d="M 5.0578303,5.2383852 L 6.4215702,4.8621978 L 6.5529938,10.649879 L 5.7694346,10.021165 L 5.0578303,5.2383852 z "
       id="rect4255"
       sodipodi:nodetypes="ccccc" />
    <path
       style="opacity:1;fill:url(#linearGradient3285);fill-opacity:1;fill-rule:nonzero;stroke:none;stroke-width:1;stroke-linecap:square;stroke-linejoin:miter;stroke-miterlimit:4;stroke-dashoffset:0;stroke-opacity:1;marker:none;marker-start:none;marker-mid:none;marker-end:none;visibility:visible;display:inline;overflow:visible;enable-background:accumulate"
       d="M 8,6.5771079 L 11,7.0168023 L 11,12 L 8,12 L 8,6.5771079 z"
       id="rect3276"
       sodipodi:nodetypes="ccccc" />
    <path
       sodipodi:type="arc"
       style="opacity:1;fill:#fcaf3e;fill-opacity:1;fill-rule:nonzero;stroke:url(#linearGradient3318);stroke-width:0.71535747999999999;stroke-linecap:square;stroke-linejoin:miter;marker:none;marker-start:none;marker-mid:none;marker-end:none;stroke-miterlimit:4;stroke-dasharray:none;stroke-dashoffset:0;stroke-opacity:1;visibility:visible;display:inline;overflow:visible;enable-background:accumulate"
       id="path3287"
       sodipodi:cx="17.917549"
       sodipodi:cy="6.0274901"
       sodipodi:rx="3.35267"
       sodipodi:ry="3.35267"
       d="M 21.270219,6.0274901 A 3.35267,3.35267 0 1 1 14.564879,6.02749"
       transform="matrix(-0.9884663,-0.9884665,0.9884663,-0.9884665,29.566925,29.854867)"
       sodipodi:start="0"
       sodipodi:end="3.1415927"
       sodipodi:open="true" />
    <path
       sodipodi:type="arc"
       style="opacity:0.63392857;fill:#eeeeec;fill-opacity:1;fill-rule:nonzero;stroke:none;stroke-width:1;stroke-linecap:square;stroke-linejoin:miter;marker:none;marker-start:none;marker-mid:none;marker-end:none;stroke-miterlimit:4;stroke-dasharray:none;stroke-dashoffset:0;stroke-opacity:1;visibility:visible;display:inline;overflow:visible;enable-background:accumulate"
       id="path3302"
       sodipodi:cx="17.821365"
       sodipodi:cy="6.4259629"
       sodipodi:rx="3.0641205"
       sodipodi:ry="3.0641205"
       d="M 16.289305,3.7723567 A 3.0641205,3.0641205 0 0 1 19.353426,3.7723568 L 17.821365,6.4259629 z"
       transform="matrix(0.8282606,-0.2219318,0.2219317,0.8282605,0.7386868,4.2639355)"
       sodipodi:start="4.1887902"
       sodipodi:end="5.2359878" />
    <path
       sodipodi:type="inkscape:offset"
       inkscape:radius="0.16889262"
       inkscape:original="M 17.40625 3.375 C 16.758735 3.4602469 16.154582 3.751668 15.65625 4.25 L 17.8125 6.4375 L 19.34375 3.78125 C 18.733421 3.4288761 18.053765 3.2897531 17.40625 3.375 z "
       style="opacity:0.63392861;fill:#eeeeec;fill-opacity:1;fill-rule:nonzero;stroke:none;stroke-width:1;stroke-linecap:square;stroke-linejoin:miter;marker:none;marker-start:none;marker-mid:none;marker-end:none;stroke-miterlimit:4;stroke-dasharray:none;stroke-dashoffset:0;stroke-opacity:1;visibility:visible;display:inline;overflow:visible;enable-background:accumulate"
       id="path3320"
       d="M 17.90625,3.1875 C 17.732511,3.1805613 17.546564,3.1961632 17.375,3.21875 C 16.691579,3.3087241 16.054564,3.601686 15.53125,4.125 C 15.51951,4.1340031 15.509003,4.1445097 15.5,4.15625 C 15.499034,4.1666443 15.499034,4.1771057 15.5,4.1875 C 15.496112,4.2081519 15.496112,4.2293481 15.5,4.25 C 15.499034,4.2603943 15.499034,4.2708557 15.5,4.28125 C 15.499034,4.2916443 15.499034,4.3021057 15.5,4.3125 C 15.505946,4.3352838 15.516591,4.3565726 15.53125,4.375 L 17.6875,6.5625 C 17.697894,6.5634657 17.708356,6.5634657 17.71875,6.5625 C 17.727753,6.5742403 17.73826,6.5847469 17.75,6.59375 C 17.770652,6.5976379 17.791848,6.5976379 17.8125,6.59375 C 17.822894,6.5947157 17.833356,6.5947157 17.84375,6.59375 C 17.854144,6.5947157 17.864606,6.5947157 17.875,6.59375 C 17.897784,6.5878036 17.919073,6.5771592 17.9375,6.5625 C 17.94924,6.5534969 17.959747,6.5429903 17.96875,6.53125 L 19.5,3.875 C 19.500966,3.8646057 19.500966,3.8541443 19.5,3.84375 C 19.500966,3.8333557 19.500966,3.8228943 19.5,3.8125 C 19.500966,3.8021057 19.500966,3.7916443 19.5,3.78125 C 19.500966,3.7708557 19.500966,3.7603943 19.5,3.75 C 19.500966,3.7396057 19.500966,3.7291443 19.5,3.71875 C 19.485084,3.6927384 19.463512,3.6711665 19.4375,3.65625 C 19.438466,3.6458557 19.438466,3.6353943 19.4375,3.625 C 18.956992,3.3475781 18.427468,3.208316 17.90625,3.1875 z"
       transform="matrix(-0.6008111,-0.6117967,-0.6117966,0.600811,32.638656,13.018462)" />
    <path
       sodipodi:type="arc"
       style="opacity:0.63392857;fill:#eeeeec;fill-opacity:1;fill-rule:nonzero;stroke:none;stroke-width:1;stroke-linecap:square;stroke-linejoin:miter;marker:none;marker-start:none;marker-mid:none;marker-end:none;stroke-miterlimit:4;stroke-dasharray:none;stroke-dashoffset:0;stroke-opacity:1;visibility:visible;display:inline;overflow:visible;enable-background:accumulate"
       id="path3310"
       sodipodi:cx="17.821365"
       sodipodi:cy="6.4259629"
       sodipodi:rx="3.0641205"
       sodipodi:ry="3.0641205"
       d="M 15.654705,4.2593026 A 3.0641205,3.0641205 0 0 1 17.821365,3.3618424 L 17.821365,6.4259629 z"
       transform="matrix(-0.6063288,0.6063289,-0.6063287,-0.6063288,33.074436,9.0637797e-2)"
       sodipodi:start="3.9269908"
       sodipodi:end="4.712389" />
  </g>
</svg>
