<?xml version="1.0" encoding="UTF-8" standalone="no"?>
<!-- Created with Inkscape (http://www.inkscape.org/) -->
<svg
   xmlns:dc="http://purl.org/dc/elements/1.1/"
   xmlns:cc="http://web.resource.org/cc/"
   xmlns:rdf="http://www.w3.org/1999/02/22-rdf-syntax-ns#"
   xmlns:svg="http://www.w3.org/2000/svg"
   xmlns="http://www.w3.org/2000/svg"
   xmlns:xlink="http://www.w3.org/1999/xlink"
   xmlns:sodipodi="http://sodipodi.sourceforge.net/DTD/sodipodi-0.dtd"
   xmlns:inkscape="http://www.inkscape.org/namespaces/inkscape"
   width="24"
   height="24"
   id="svg2"
   sodipodi:version="0.32"
   inkscape:version="0.45.1"
   version="1.0"
   sodipodi:docbase="/home/hbons/Desktop/untitled folder 1"
   sodipodi:docname="new-style-eat.svg"
   inkscape:export-filename="/home/hbons/Desktop/newstyle.png"
   inkscape:export-xdpi="90"
   inkscape:export-ydpi="90"
   inkscape:output_extension="org.inkscape.output.svg.inkscape">
  <defs
     id="defs4">
    <linearGradient
       inkscape:collect="always"
       id="linearGradient3259">
      <stop
         style="stop-color:#ef2929;stop-opacity:1;"
         offset="0"
         id="stop3261" />
      <stop
         style="stop-color:#ef2929;stop-opacity:0;"
         offset="1"
         id="stop3263" />
    </linearGradient>
    <linearGradient
       inkscape:collect="always"
       id="linearGradient3104">
      <stop
         style="stop-color:#eeeeec;stop-opacity:1;"
         offset="0"
         id="stop3106" />
      <stop
         style="stop-color:#eeeeec;stop-opacity:0;"
         offset="1"
         id="stop3108" />
    </linearGradient>
    <radialGradient
       inkscape:collect="always"
       xlink:href="#linearGradient3104"
       id="radialGradient3114"
       cx="8.3343515"
       cy="14.186539"
       fx="8.3343515"
       fy="14.186539"
       r="9.975256"
       gradientUnits="userSpaceOnUse"
       gradientTransform="matrix(-0.9327,0.932656,-0.947494,-0.947449,33.02126,11.96667)" />
    <filter
       inkscape:collect="always"
       x="-0.27879594"
       width="1.5575919"
       y="-0.78248726"
       height="2.5649745"
       id="filter3405">
      <feGaussianBlur
         inkscape:collect="always"
         stdDeviation="1.5438116"
         id="feGaussianBlur3407" />
    </filter>
    <linearGradient
       gradientUnits="userSpaceOnUse"
       y2="17.682426"
       x2="12.720216"
       y1="20.952612"
       x1="12.720216"
       id="linearGradient2873"
       xlink:href="#linearGradient2867"
       inkscape:collect="always" />
    <linearGradient
       gradientUnits="userSpaceOnUse"
       y2="20.761486"
       x2="12.746171"
       y1="18.202251"
       x1="12.5"
       id="linearGradient2853"
       xlink:href="#linearGradient2847"
       inkscape:collect="always" />
    <radialGradient
       gradientUnits="userSpaceOnUse"
       gradientTransform="matrix(-0.842757,0,0,-0.35721,19.80716,14.19321)"
       r="6.6449099"
       fy="10.457643"
       fx="10.748654"
       cy="10.457643"
       cx="10.748654"
       id="radialGradient3156"
       xlink:href="#linearGradient3150"
       inkscape:collect="always" />
    <radialGradient
       gradientTransform="matrix(-0.9327,0.932656,-0.947494,-0.947449,33.02126,11.96667)"
       gradientUnits="userSpaceOnUse"
       r="9.975256"
       fy="14.186539"
       fx="8.3343515"
       cy="14.186539"
       cx="8.3343515"
       id="radialGradient2230"
       xlink:href="#linearGradient3104"
       inkscape:collect="always" />
    <linearGradient
       id="linearGradient3150"
       inkscape:collect="always">
      <stop
         id="stop3152"
         offset="0"
         style="stop-color:#2e3436;stop-opacity:1;" />
      <stop
         id="stop3154"
         offset="1"
         style="stop-color:#2e3436;stop-opacity:0;" />
    </linearGradient>
    <linearGradient
       id="linearGradient2382"
       inkscape:collect="always">
      <stop
         id="stop2384"
         offset="0"
         style="stop-color:#d3d7cf;stop-opacity:1;" />
      <stop
         id="stop2386"
         offset="1"
         style="stop-color:#d3d7cf;stop-opacity:0;" />
    </linearGradient>
    <linearGradient
       id="linearGradient2847"
       inkscape:collect="always">
      <stop
         id="stop2849"
         offset="0"
         style="stop-color:#888a85;stop-opacity:1;" />
      <stop
         id="stop2851"
         offset="1"
         style="stop-color:#888a85;stop-opacity:0;" />
    </linearGradient>
    <linearGradient
       id="linearGradient2867"
       inkscape:collect="always">
      <stop
         id="stop2869"
         offset="0"
         style="stop-color:#d3d7cf;stop-opacity:1;" />
      <stop
         id="stop2871"
         offset="1"
         style="stop-color:#d3d7cf;stop-opacity:0;" />
    </linearGradient>
    <radialGradient
       inkscape:collect="always"
       xlink:href="#linearGradient3104"
       id="radialGradient2253"
       gradientUnits="userSpaceOnUse"
       gradientTransform="matrix(-0.9327,0.932656,-0.947494,-0.947449,33.02126,11.96667)"
       cx="8.3343515"
       cy="14.186539"
       fx="8.3343515"
       fy="14.186539"
       r="9.975256" />
    <radialGradient
       inkscape:collect="always"
       xlink:href="#linearGradient2382"
       id="radialGradient2259"
       gradientUnits="userSpaceOnUse"
       gradientTransform="matrix(-1.591138,1.574803,-1.783257,-1.76495,68.854751,-2.8442229)"
       cx="17.911736"
       cy="11.083743"
       fx="17.911736"
       fy="11.083743"
       r="2.5781252" />
    <linearGradient
       inkscape:collect="always"
       xlink:href="#linearGradient3259"
       id="linearGradient3265"
       x1="6.9999999"
       y1="16"
       x2="17"
       y2="16"
       gradientUnits="userSpaceOnUse"
       gradientTransform="matrix(-1,0,0,1,24,0)" />
  </defs>
  <sodipodi:namedview
     id="base"
     pagecolor="#ffffff"
     bordercolor="#666666"
     borderopacity="1.0"
     inkscape:pageopacity="0.0"
     inkscape:pageshadow="2"
     inkscape:zoom="22.4"
     inkscape:cx="28.433313"
     inkscape:cy="9.843873"
     inkscape:document-units="px"
     inkscape:current-layer="layer1"
     showgrid="true"
     fill="#fce94f"
     inkscape:window-width="1440"
     inkscape:window-height="845"
     inkscape:window-x="0"
     inkscape:window-y="0" />
  <metadata
     id="metadata7">
    <rdf:RDF>
      <cc:Work
         rdf:about="">
        <dc:format>image/svg+xml</dc:format>
        <dc:type
           rdf:resource="http://purl.org/dc/dcmitype/StillImage" />
      </cc:Work>
    </rdf:RDF>
  </metadata>
  <g
     inkscape:label="Layer 1"
     inkscape:groupmode="layer"
     id="layer1">
    <path
       sodipodi:type="arc"
       style="opacity:0.64044944;fill:#2e3436;fill-opacity:1;stroke:none;stroke-width:1;stroke-miterlimit:4;stroke-dasharray:none;stroke-opacity:1;filter:url(#filter3405)"
       id="path3140"
       sodipodi:cx="10.748654"
       sodipodi:cy="10.457643"
       sodipodi:rx="6.6449099"
       sodipodi:ry="2.3675451"
       d="M 17.393564 10.457643 A 6.6449099 2.3675451 0 1 1  4.1037445,10.457643 A 6.6449099 2.3675451 0 1 1  17.393564 10.457643 z"
       transform="matrix(1.2039291,0,0,1.055946,-0.9406174,8.4572942)" />
    <path
       sodipodi:type="arc"
       style="opacity:1;fill:#edd400;fill-opacity:1;stroke:#cc6400;stroke-width:1.05276573;stroke-miterlimit:4;stroke-dasharray:none;stroke-opacity:1"
       id="path1307"
       sodipodi:cx="11.806158"
       sodipodi:cy="10.983024"
       sodipodi:rx="9.975256"
       sodipodi:ry="9.975256"
       d="M 21.781414 10.983024 A 9.975256 9.975256 0 1 1  1.8309021,10.983024 A 9.975256 9.975256 0 1 1  21.781414 10.983024 z"
       transform="matrix(0.952236,0,0,0.952236,0.757713,1.541608)" />
    <path
       sodipodi:type="arc"
       style="opacity:0.79545455;fill:url(#radialGradient3114);fill-opacity:1.0;stroke:none;stroke-width:1.05274069;stroke-miterlimit:4;stroke-dasharray:none;stroke-opacity:1"
       id="path3102"
       sodipodi:cx="11.806158"
       sodipodi:cy="10.983024"
       sodipodi:rx="9.975256"
       sodipodi:ry="9.975256"
       d="M 21.781414 10.983024 A 9.975256 9.975256 0 1 1  1.8309021,10.983024 A 9.975256 9.975256 0 1 1  21.781414 10.983024 z"
       transform="matrix(0.8019,0,0,0.801938,2.532654,3.191833)" />
    <path
       sodipodi:type="arc"
       style="opacity:0.64044944;fill:none;fill-opacity:1.0;stroke:#ffffff;stroke-width:1.17343897;stroke-miterlimit:4;stroke-dasharray:none;stroke-opacity:1"
       id="path2184"
       sodipodi:cx="11.806158"
       sodipodi:cy="10.983024"
       sodipodi:rx="9.975256"
       sodipodi:ry="9.975256"
       d="M 21.781414 10.983024 A 9.975256 9.975256 0 1 1  1.8309021,10.983024 A 9.975256 9.975256 0 1 1  21.781414 10.983024 z"
       transform="matrix(0.852176,0,0,0.852216,1.93909,2.639626)" />
    <path
       style="fill:#eeeeec;fill-opacity:1;stroke:#fea523;stroke-width:1;stroke-miterlimit:4;stroke-opacity:1"
       d="M 11.499998,10 C 11.499998,11.38 10.379999,12.5 8.9999982,12.5 C 7.6199981,12.5 6.4999979,11.38 6.4999979,10 C 6.4999979,8.62 7.6199981,7.5 8.9999982,7.5 C 10.379999,7.5 11.499998,8.62 11.499998,10 z "
       id="path3154" />
    <path
       sodipodi:type="arc"
       style="opacity:1;fill:#2e3436;fill-opacity:1;stroke:none;stroke-width:0.98640186;stroke-miterlimit:4;stroke-dasharray:none;stroke-opacity:1"
       id="path2172"
       sodipodi:cx="9.7069349"
       sodipodi:cy="9.6526775"
       sodipodi:rx="1.0259361"
       sodipodi:ry="1.9413869"
       d="M 10.732871 9.6526775 A 1.0259361 1.9413869 0 1 1  8.6809988,9.6526775 A 1.0259361 1.9413869 0 1 1  10.732871 9.6526775 z"
       transform="matrix(0.9747196,0,0,0.7726436,0.5384595,3.0419202)" />
    <path
       sodipodi:type="arc"
       style="opacity:1;fill:#eeeeec;fill-opacity:1;stroke:#fea523;stroke-width:0.56451595;stroke-miterlimit:4;stroke-dasharray:none;stroke-opacity:1"
       id="path3152"
       sodipodi:cx="9.7069349"
       sodipodi:cy="9.6526775"
       sodipodi:rx="1.0259361"
       sodipodi:ry="1.9413869"
       d="M 10.732871 9.6526775 A 1.0259361 1.9413869 0 1 1  8.6809988,9.6526775 A 1.0259361 1.9413869 0 1 1  10.732871 9.6526775 z"
       transform="matrix(2.4367992,0,0,1.2877391,-8.6538516,-2.4301299)" />
    <path
       sodipodi:type="arc"
       style="opacity:1;fill:#2e3436;fill-opacity:1;stroke:none;stroke-width:0.98640186;stroke-miterlimit:4;stroke-dasharray:none;stroke-opacity:1"
       id="path3148"
       sodipodi:cx="9.7069349"
       sodipodi:cy="9.6526775"
       sodipodi:rx="1.0259361"
       sodipodi:ry="1.9413869"
       d="M 10.732871 9.6526775 A 1.0259361 1.9413869 0 1 1  8.6809988,9.6526775 A 1.0259361 1.9413869 0 1 1  10.732871 9.6526775 z"
       transform="matrix(0.9747195,0,0,0.7726435,4.5384605,3.0419215)" />
    <path
       sodipodi:type="arc"
       style="opacity:0.64044949;fill:none;fill-opacity:1;stroke:#f57900;stroke-width:0.73675901;stroke-miterlimit:4;stroke-dasharray:none;stroke-opacity:1"
       id="path3413"
       sodipodi:cx="8.3258924"
       sodipodi:cy="9.2232141"
       sodipodi:rx="1.2276785"
       sodipodi:ry="1.7410715"
       d="M 7.2133909,8.4869402 A 1.2276785,1.7410715 0 0 1 9.288462,8.1425499"
       transform="matrix(1.8690368,0.3494647,-0.353133,0.9196421,3.0149257,-4.2342213)"
       sodipodi:start="3.5782199"
       sodipodi:end="5.6135639"
       sodipodi:open="true" />
    <path
       sodipodi:type="arc"
       style="opacity:0.64044949;fill:none;fill-opacity:1;stroke:#f57900;stroke-width:0.73675901;stroke-miterlimit:4;stroke-dasharray:none;stroke-opacity:1"
       id="path3415"
       sodipodi:cx="8.3258924"
       sodipodi:cy="9.2232141"
       sodipodi:rx="1.2276785"
       sodipodi:ry="1.7410715"
       d="M 7.2133909,8.4869402 A 1.2276785,1.7410715 0 0 1 9.288462,8.1425499"
       transform="matrix(-1.8690368,0.3494647,0.353133,0.9196421,20.985074,-4.2342213)"
       sodipodi:start="3.5782199"
       sodipodi:end="5.6135639"
       sodipodi:open="true" />
    <path
       style="fill:#eeeeec;fill-opacity:1;stroke:none;stroke-width:1.00000048;stroke-miterlimit:4;stroke-dasharray:none;stroke-opacity:1"
       d="M 18.502021,6.5174155 C 18.502021,8.3787746 18.720381,9.3725606 19.518257,10.162247 C 19.518257,10.910658 19.561928,14.160504 19.561928,15.835357 C 19.792928,16.688611 21.269315,16.814257 21.560722,15.737876 C 21.560722,14.512144 21.509347,11.948246 21.509347,10.131579 C 22.359503,9.2901496 22.511049,8.6569205 22.511049,6.6226754 C 22.511049,6.5081086 22.302607,4.5000003 20.572414,4.5000003 C 18.862733,4.5000003 18.502021,6.2615946 18.502021,6.5174155 z "
       id="path2843"
       sodipodi:nodetypes="cccccczc" />
    <path
       style="fill:url(#radialGradient2259);fill-opacity:1;stroke:#989994;stroke-width:1.00000048;stroke-miterlimit:4;stroke-dasharray:none;stroke-opacity:1"
       d="M 18.502021,6.5174155 C 18.502021,8.3787746 18.720381,9.3725606 19.518257,10.162247 C 19.518257,10.910658 19.561928,14.160504 19.561928,15.835357 C 19.792928,16.688611 21.269315,16.814257 21.560722,15.737876 C 21.560722,14.512144 21.509347,11.948246 21.509347,10.131579 C 22.359503,9.2901496 22.511049,8.6569205 22.511049,6.6226754 C 22.511049,6.5081086 22.302607,4.5000003 20.572414,4.5000003 C 18.862733,4.5000003 18.502021,6.2615946 18.502021,6.5174155 z "
       id="rect2360"
       sodipodi:nodetypes="cccccczc" />
    <path
       sodipodi:type="arc"
       style="fill:#edd400;fill-opacity:1;stroke:#f57900;stroke-width:4.00356054;stroke-miterlimit:4;stroke-dasharray:none;stroke-opacity:1"
       id="path2635"
       sodipodi:cx="11.806158"
       sodipodi:cy="10.983024"
       sodipodi:rx="9.975256"
       sodipodi:ry="9.975256"
       d="M 21.781414 10.983024 A 9.975256 9.975256 0 1 1  1.8309021,10.983024 A 9.975256 9.975256 0 1 1  21.781414 10.983024 z"
       transform="matrix(-0.250486,0,0,0.25031,23.957181,13.24899)" />
    <path
       sodipodi:type="arc"
       style="opacity:0.5;fill:none;fill-opacity:1;stroke:#ffffff;stroke-width:6.69739294;stroke-miterlimit:4;stroke-dasharray:none;stroke-opacity:1"
       id="path2637"
       sodipodi:cx="11.806158"
       sodipodi:cy="10.983024"
       sodipodi:rx="9.975256"
       sodipodi:ry="9.975256"
       d="M 21.781414 10.983024 A 9.975256 9.975256 0 1 1  1.8309021,10.983024 A 9.975256 9.975256 0 1 1  21.781414 10.983024 z"
       transform="matrix(-0.149308,0,0,0.149316,22.754161,14.34256)" />
    <path
       style="opacity:1;fill:#a40000;fill-opacity:1;stroke:none;stroke-width:1;stroke-miterlimit:4;stroke-dasharray:none;stroke-opacity:1"
       d="M 6.9999999,14 C 7.5864809,16.283765 9.5961809,18 12,18 C 14.403818,18 16.413519,16.283765 17,14 C 15.946253,15.478811 14.095557,16.062259 12,16.062259 C 9.9044439,16.06226 8.0537469,15.478811 6.9999999,14 z "
       id="path3242"
       sodipodi:nodetypes="cscsc" />
    <rect
       style="opacity:1;fill:#f60000;fill-opacity:1;stroke:none;stroke-width:1;stroke-miterlimit:4;stroke-dasharray:none;stroke-opacity:1"
       id="rect3254"
       width="2"
       height="3"
       x="8"
       y="14"
       rx="1"
       ry="1" />
  </g>
</svg>
