<?xml version="1.0" encoding="UTF-8" standalone="no"?>
<!-- Created with Inkscape (http://www.inkscape.org/) -->
<svg
   xmlns:dc="http://purl.org/dc/elements/1.1/"
   xmlns:cc="http://creativecommons.org/ns#"
   xmlns:rdf="http://www.w3.org/1999/02/22-rdf-syntax-ns#"
   xmlns:svg="http://www.w3.org/2000/svg"
   xmlns="http://www.w3.org/2000/svg"
   xmlns:xlink="http://www.w3.org/1999/xlink"
   xmlns:sodipodi="http://sodipodi.sourceforge.net/DTD/sodipodi-0.dtd"
   xmlns:inkscape="http://www.inkscape.org/namespaces/inkscape"
   width="24"
   height="24"
   id="svg2"
   sodipodi:version="0.32"
   inkscape:version="0.46"
   version="1.0"
   sodipodi:docbase="/home/hbons/Desktop/Gaim Refresh/emotes"
   sodipodi:docname="film.svg"
   inkscape:export-filename="/home/hbons/Bureaublad/Projecten/Pidgin objecten voor 2.5.0/bitmaps/film.png"
   inkscape:export-xdpi="90"
   inkscape:export-ydpi="90"
   inkscape:output_extension="org.inkscape.output.svg.inkscape">
  <defs
     id="defs4">
    <linearGradient
       inkscape:collect="always"
       id="linearGradient3291">
      <stop
         style="stop-color:#2e3436;stop-opacity:1;"
         offset="0"
         id="stop3293" />
      <stop
         style="stop-color:#000000;stop-opacity:1"
         offset="1"
         id="stop3295" />
    </linearGradient>
    <linearGradient
       inkscape:collect="always"
       id="linearGradient3283">
      <stop
         style="stop-color:#888a85;stop-opacity:1"
         offset="0"
         id="stop3285" />
      <stop
         style="stop-color:#2e3436;stop-opacity:1"
         offset="1"
         id="stop3287" />
    </linearGradient>
    <linearGradient
       inkscape:collect="always"
       id="linearGradient3271">
      <stop
         style="stop-color:#ffffff;stop-opacity:1"
         offset="0"
         id="stop3273" />
      <stop
         style="stop-color:#babdb6;stop-opacity:1"
         offset="1"
         id="stop3275" />
    </linearGradient>
    <linearGradient
       inkscape:collect="always"
       id="linearGradient3263">
      <stop
         style="stop-color:#ffffff;stop-opacity:1;"
         offset="0"
         id="stop3265" />
      <stop
         style="stop-color:#ffffff;stop-opacity:0"
         offset="1"
         id="stop3267" />
    </linearGradient>
    <linearGradient
       inkscape:collect="always"
       id="linearGradient3255">
      <stop
         style="stop-color:#888a85;stop-opacity:1;"
         offset="0"
         id="stop3257" />
      <stop
         style="stop-color:#434542;stop-opacity:1"
         offset="1"
         id="stop3259" />
    </linearGradient>
    <linearGradient
       inkscape:collect="always"
       id="linearGradient3247">
      <stop
         style="stop-color:#7e807a;stop-opacity:1"
         offset="0"
         id="stop3249" />
      <stop
         style="stop-color:#434542;stop-opacity:1"
         offset="1"
         id="stop3251" />
    </linearGradient>
    <linearGradient
       inkscape:collect="always"
       id="linearGradient3239">
      <stop
         style="stop-color:#ffffff;stop-opacity:1;"
         offset="0"
         id="stop3241" />
      <stop
         style="stop-color:#ffffff;stop-opacity:0;"
         offset="1"
         id="stop3243" />
    </linearGradient>
    <linearGradient
       inkscape:collect="always"
       id="linearGradient3231">
      <stop
         style="stop-color:#ffffff;stop-opacity:1;"
         offset="0"
         id="stop3233" />
      <stop
         style="stop-color:#ffffff;stop-opacity:0;"
         offset="1"
         id="stop3235" />
    </linearGradient>
    <linearGradient
       inkscape:collect="always"
       id="linearGradient3223">
      <stop
         style="stop-color:#ffffff;stop-opacity:1;"
         offset="0"
         id="stop3225" />
      <stop
         style="stop-color:#ffffff;stop-opacity:0;"
         offset="1"
         id="stop3227" />
    </linearGradient>
    <linearGradient
       inkscape:collect="always"
       id="linearGradient3215">
      <stop
         style="stop-color:#ffffff;stop-opacity:1;"
         offset="0"
         id="stop3217" />
      <stop
         style="stop-color:#ffffff;stop-opacity:0;"
         offset="1"
         id="stop3219" />
    </linearGradient>
    <linearGradient
       inkscape:collect="always"
       id="linearGradient3207">
      <stop
         style="stop-color:#ffffff;stop-opacity:1;"
         offset="0"
         id="stop3209" />
      <stop
         style="stop-color:#ffffff;stop-opacity:0;"
         offset="1"
         id="stop3211" />
    </linearGradient>
    <linearGradient
       inkscape:collect="always"
       xlink:href="#linearGradient3207"
       id="linearGradient3213"
       x1="6.1907902"
       y1="11.659144"
       x2="21.819679"
       y2="21.37653"
       gradientUnits="userSpaceOnUse" />
    <linearGradient
       inkscape:collect="always"
       xlink:href="#linearGradient3215"
       id="linearGradient3221"
       x1="16.580334"
       y1="17.91202"
       x2="16.580334"
       y2="13.617717"
       gradientUnits="userSpaceOnUse" />
    <linearGradient
       inkscape:collect="always"
       xlink:href="#linearGradient3223"
       id="linearGradient3229"
       x1="12.439269"
       y1="18.078894"
       x2="12.439269"
       y2="14.494682"
       gradientUnits="userSpaceOnUse" />
    <linearGradient
       inkscape:collect="always"
       xlink:href="#linearGradient3231"
       id="linearGradient3237"
       x1="8.499999"
       y1="17.131124"
       x2="8.499999"
       y2="11.424088"
       gradientUnits="userSpaceOnUse" />
    <linearGradient
       inkscape:collect="always"
       xlink:href="#linearGradient3239"
       id="linearGradient3245"
       x1="4.5"
       y1="16"
       x2="4.5"
       y2="10.629541"
       gradientUnits="userSpaceOnUse" />
    <linearGradient
       inkscape:collect="always"
       xlink:href="#linearGradient3247"
       id="linearGradient3253"
       x1="14.128918"
       y1="7.3688793"
       x2="18.269424"
       y2="12.767427"
       gradientUnits="userSpaceOnUse" />
    <linearGradient
       inkscape:collect="always"
       xlink:href="#linearGradient3255"
       id="linearGradient3261"
       x1="15.928218"
       y1="17.350931"
       x2="18.526911"
       y2="21.177362"
       gradientUnits="userSpaceOnUse" />
    <linearGradient
       inkscape:collect="always"
       xlink:href="#linearGradient3263"
       id="linearGradient3269"
       x1="15.077287"
       y1="11.996202"
       x2="14.699104"
       y2="1.5075955"
       gradientUnits="userSpaceOnUse" />
    <radialGradient
       inkscape:collect="always"
       xlink:href="#linearGradient3271"
       id="radialGradient3277"
       cx="13.07804"
       cy="6.1990452"
       fx="13.07804"
       fy="6.1990452"
       r="9.4996834"
       gradientTransform="matrix(0.9405504,0.2520197,-0.1724403,0.6435557,2.2683061,-7.0719408e-2)"
       gradientUnits="userSpaceOnUse" />
    <linearGradient
       inkscape:collect="always"
       xlink:href="#linearGradient3283"
       id="linearGradient3289"
       x1="6.9126954"
       y1="16.365236"
       x2="18.584164"
       y2="16.365236"
       gradientUnits="userSpaceOnUse" />
    <linearGradient
       inkscape:collect="always"
       xlink:href="#linearGradient3291"
       id="linearGradient3297"
       x1="1.0000002"
       y1="14.719964"
       x2="21.000008"
       y2="14.719964"
       gradientUnits="userSpaceOnUse" />
    <filter
       inkscape:collect="always"
       id="filter3325"
       x="-0.2631579"
       width="1.5263158"
       y="-0.39473684"
       height="1.7894737">
      <feGaussianBlur
         inkscape:collect="always"
         stdDeviation="1.9736838"
         id="feGaussianBlur3327" />
    </filter>
  </defs>
  <sodipodi:namedview
     id="base"
     pagecolor="#ffffff"
     bordercolor="#666666"
     borderopacity="1.0"
     inkscape:pageopacity="0.0"
     inkscape:pageshadow="2"
     inkscape:zoom="13.752998"
     inkscape:cx="22.811833"
     inkscape:cy="19.444321"
     inkscape:document-units="px"
     inkscape:current-layer="layer1"
     showgrid="true"
     fill="#eeeeec"
     inkscape:window-width="1440"
     inkscape:window-height="848"
     inkscape:window-x="0"
     inkscape:window-y="0"
     inkscape:snap-bbox="true"
     inkscape:snap-nodes="false"
     objecttolerance="10"
     gridtolerance="10">
    <inkscape:grid
       type="xygrid"
       id="grid2401"
       visible="true"
       enabled="true" />
  </sodipodi:namedview>
  <metadata
     id="metadata7">
    <rdf:RDF>
      <cc:Work
         rdf:about="">
        <dc:format>image/svg+xml</dc:format>
        <dc:type
           rdf:resource="http://purl.org/dc/dcmitype/StillImage" />
      </cc:Work>
    </rdf:RDF>
  </metadata>
  <g
     inkscape:label="Layer 1"
     inkscape:groupmode="layer"
     id="layer1">
    <path
       style="fill:#2e3436;fill-opacity:1;stroke:none;stroke-width:1.00000036;marker-start:none;stroke-miterlimit:4;stroke-dasharray:none;stroke-opacity:1;filter:url(#filter3325)"
       d="M 13.499999,21.499998 C 8.5319987,21.499998 4.4999987,18.811999 4.4999987,15.499999 C 4.4999987,12.188 8.5319987,9.5000003 13.499999,9.5000003 C 18.467997,9.5000003 22.499995,12.188 22.499995,15.499999 C 22.499995,18.811999 18.467997,21.499998 13.499999,21.499998 z"
       id="path3299" />
    <path
       style="fill:#babdb6;fill-opacity:1;stroke:url(#linearGradient3261);stroke-width:1.00000036;marker-start:none;stroke-miterlimit:4;stroke-dasharray:none;stroke-opacity:1"
       d="M 13.499999,21.499998 C 8.5319981,21.499998 4.4999981,18.811999 4.4999981,15.499999 C 4.4999981,12.188 8.5319981,9.5000003 13.499999,9.5000003 C 18.467997,9.5000003 22.499995,12.188 22.499995,15.499999 C 22.499995,18.811999 18.467997,21.499998 13.499999,21.499998 z"
       id="path3330" />
    <path
       style="fill:url(#linearGradient3289);fill-opacity:1;stroke:url(#linearGradient3297);stroke-width:0.99999982;stroke-miterlimit:4;stroke-opacity:1"
       d="M 20.500008,10.575796 C 20.500008,20.655331 17.707913,19.463917 4.6200131,19.463917 C 2.5337431,19.463917 1.5000001,16.625954 1.5000001,15.491465 L 1.5727111,9.9324551 C 1.6241261,11.488244 4.2244821,12.504035 4.7672631,12.504035 C 14.569319,12.504035 20.500008,10.023581 20.500008,10.575796 z"
       id="rect3332"
       sodipodi:nodetypes="cccccc" />
    <path
       style="opacity:0.44303571;fill:url(#linearGradient3221);fill-opacity:1;stroke:none;stroke-width:1;stroke-miterlimit:4;stroke-opacity:1"
       d="M 16.999998,12.406078 L 16.999998,18.003879 L 15.999998,18.527376 L 15.999998,12.406078 L 16.999998,12.406078 z"
       id="rect3341"
       sodipodi:nodetypes="ccccc" />
    <path
       style="opacity:0.44303571;fill:url(#linearGradient3229);fill-opacity:1;stroke:none;stroke-width:1;stroke-miterlimit:4;stroke-opacity:1"
       d="M 12.999998,13 L 12.999998,18.917343 L 12.013774,18.972448 L 11.999998,13 L 12.999998,13 z"
       id="rect3339"
       sodipodi:nodetypes="ccccc" />
    <path
       style="opacity:0.44303571;fill:url(#linearGradient3237);fill-opacity:1;stroke:none;stroke-width:1;stroke-miterlimit:4;stroke-opacity:1"
       d="M 8.9999981,13 L 8.9999981,19 L 7.9999981,19 L 7.9999981,13 L 8.9999981,13 z"
       id="rect3337" />
    <path
       style="opacity:0.44303571;fill:url(#linearGradient3245);fill-opacity:1;stroke:none;stroke-width:1;stroke-miterlimit:4;stroke-opacity:1"
       d="M 5.0000001,13 L 5.0000001,19 L 4.0000001,19 L 4.0000001,13 L 5.0000001,13 z"
       id="path3185" />
    <path
       style="opacity:0.49107145;fill:none;fill-opacity:1;stroke:url(#linearGradient3213);stroke-width:0.99999976;stroke-miterlimit:4;stroke-opacity:1"
       d="M 19.468749,11.625 C 19.452754,11.628087 19.449736,11.621831 19.433471,11.625 C 18.525076,11.801987 17.126125,12.12201 15.447049,12.4375 C 12.138083,13.059238 4.5333961,14.549826 2.4422331,12.73204 C 2.2253021,14.229262 2.4305711,17.512604 4.2102321,18.297183 C 8.6338791,18.297183 11.988848,19.098976 16.409256,18.020423 C 17.647247,17.608311 18.273296,17.274277 18.840209,16.176057 C 19.310823,15.264389 19.380408,13.446988 19.468749,11.625 z"
       id="path3360"
       sodipodi:nodetypes="csscccsc" />
    <path
       style="fill:url(#radialGradient3277);fill-opacity:1;stroke:url(#linearGradient3253);stroke-width:1.00000036;marker-start:none;stroke-miterlimit:4;stroke-dasharray:none;stroke-opacity:1"
       d="M 13.499896,14.5 C 8.5320711,14.5 4.5002131,11.812 4.5002131,8.5000025 C 4.5002131,5.1880056 8.5320711,2.5000071 13.499896,2.5000071 C 18.467722,2.5000071 22.49958,5.1880056 22.49958,8.5000025 C 22.49958,11.812 18.467722,14.5 13.499896,14.5 z"
       id="path2387" />
    <path
       style="opacity:1;fill:none;fill-opacity:1;stroke:url(#linearGradient3269);stroke-width:0.99999994;stroke-miterlimit:4;stroke-opacity:1"
       d="M 21.499998,8.5000003 C 21.499998,7.2125379 20.713037,6.0025538 19.281248,5.0625003 C 17.84946,4.1224469 15.786862,3.5000003 13.499998,3.5000003 C 11.213135,3.5000003 9.1505371,4.1224469 7.7187481,5.0625003 C 6.2869591,6.0025538 5.4999981,7.2125382 5.4999981,8.5000003 C 5.4999981,9.7874636 6.2869601,10.997446 7.7187481,11.9375 C 9.1505361,12.877554 11.213134,13.5 13.499998,13.5 C 15.786862,13.5 17.84946,12.877554 19.281248,11.9375 C 20.713037,10.997446 21.499998,9.7874636 21.499998,8.5000003 z"
       id="path3265" />
    <path
       style="fill:#2e3436;fill-opacity:1;stroke:none;stroke-width:1;stroke-miterlimit:4;stroke-opacity:1"
       d="M 17.499999,8.9701525 C 16.671999,8.9701525 15.999998,8.5221522 15.999998,7.9701518 C 15.999998,7.4181515 16.671999,6.9701512 17.499999,6.9701512 C 18.327999,6.9701512 18.999999,7.4181515 18.999999,7.9701518 C 18.999999,8.5221522 18.327999,8.9701525 17.499999,8.9701525 z"
       id="path3320" />
    <path
       style="fill:#2e3436;fill-opacity:1;stroke:none;stroke-width:1;stroke-miterlimit:4;stroke-opacity:1"
       d="M 12,10.470161 C 12,9.6421632 12.672,8.970165 13.5,8.970165 C 14.328,8.970165 15,9.6421632 15,10.470161 C 15,11.298159 14.328,11.970158 13.5,11.970158 C 12.672,11.970158 12,11.298159 12,10.470161 z"
       id="path3322" />
    <path
       style="fill:#2e3436;fill-opacity:1;stroke:none;stroke-width:1;stroke-miterlimit:4;stroke-opacity:1"
       d="M 12,5.9701559 C 12,5.4181549 12.672,4.9701542 13.5,4.9701542 C 14.328,4.9701542 15,5.4181549 15,5.9701559 C 15,6.5221568 14.328,6.9701576 13.5,6.9701576 C 12.672,6.9701576 12,6.5221568 12,5.9701559 z"
       id="path3324" />
    <path
       style="fill:#2e3436;fill-opacity:1;stroke:none;stroke-width:1;stroke-miterlimit:4;stroke-opacity:1"
       d="M 9.4999991,8.9701555 C 8.6719991,8.9701555 7.9999991,8.5221552 7.9999991,7.9701548 C 7.9999991,7.4181545 8.6719991,6.9701542 9.4999991,6.9701542 C 10.328,6.9701542 11,7.4181545 11,7.9701548 C 11,8.5221552 10.328,8.9701555 9.4999991,8.9701555 z"
       id="path3326" />
  </g>
</svg>
