<?xml version="1.0" encoding="UTF-8" standalone="no"?>
<!-- Created with Inkscape (http://www.inkscape.org/) -->
<svg
   xmlns:dc="http://purl.org/dc/elements/1.1/"
   xmlns:cc="http://creativecommons.org/ns#"
   xmlns:rdf="http://www.w3.org/1999/02/22-rdf-syntax-ns#"
   xmlns:svg="http://www.w3.org/2000/svg"
   xmlns="http://www.w3.org/2000/svg"
   xmlns:xlink="http://www.w3.org/1999/xlink"
   xmlns:sodipodi="http://sodipodi.sourceforge.net/DTD/sodipodi-0.dtd"
   xmlns:inkscape="http://www.inkscape.org/namespaces/inkscape"
   width="24"
   height="24"
   id="svg2"
   sodipodi:version="0.32"
   inkscape:version="0.46"
   version="1.0"
   sodipodi:docbase="/home/hbons/Desktop/Gaim Refresh/emotes"
   sodipodi:docname="film.svg"
   inkscape:export-filename="/home/hbons/Desktop/Gaim Refresh/emotes/msn/film.png"
   inkscape:export-xdpi="90"
   inkscape:export-ydpi="90"
   inkscape:output_extension="org.inkscape.output.svg.inkscape">
  <defs
     id="defs4">
    <linearGradient
       inkscape:collect="always"
       id="linearGradient2206">
      <stop
         style="stop-color:#eeeeec;stop-opacity:1;"
         offset="0"
         id="stop2208" />
      <stop
         style="stop-color:#eeeeec;stop-opacity:0;"
         offset="1"
         id="stop2210" />
    </linearGradient>
    <linearGradient
       inkscape:collect="always"
       id="linearGradient3150">
      <stop
         style="stop-color:#2e3436;stop-opacity:1;"
         offset="0"
         id="stop3152" />
      <stop
         style="stop-color:#2e3436;stop-opacity:0;"
         offset="1"
         id="stop3154" />
    </linearGradient>
    <radialGradient
       inkscape:collect="always"
       xlink:href="#linearGradient3150"
       id="radialGradient3314"
       gradientUnits="userSpaceOnUse"
       gradientTransform="matrix(-0.842757,5.698892e-16,-4.565819e-9,-0.35721,19.80716,14.19321)"
       cx="10.748654"
       cy="10.457643"
       fx="10.748654"
       fy="10.457643"
       r="6.6449099" />
    <linearGradient
       inkscape:collect="always"
       xlink:href="#linearGradient2206"
       id="linearGradient2212"
       x1="8"
       y1="3.2108977"
       x2="8"
       y2="17.109133"
       gradientUnits="userSpaceOnUse" />
  </defs>
  <sodipodi:namedview
     id="base"
     pagecolor="#ffffff"
     bordercolor="#666666"
     borderopacity="1.0"
     inkscape:pageopacity="0.0"
     inkscape:pageshadow="2"
     inkscape:zoom="27.505995"
     inkscape:cx="17.961881"
     inkscape:cy="13.318946"
     inkscape:document-units="px"
     inkscape:current-layer="layer1"
     showgrid="true"
     fill="#eeeeec"
     inkscape:window-width="1268"
     inkscape:window-height="971"
     inkscape:window-x="6"
     inkscape:window-y="21" />
  <metadata
     id="metadata7">
    <rdf:RDF>
      <cc:Work
         rdf:about="">
        <dc:format>image/svg+xml</dc:format>
        <dc:type
           rdf:resource="http://purl.org/dc/dcmitype/StillImage" />
      </cc:Work>
    </rdf:RDF>
  </metadata>
  <g
     inkscape:label="Layer 1"
     inkscape:groupmode="layer"
     id="layer1">
    <path
       sodipodi:type="arc"
       style="opacity:0.5;fill:url(#radialGradient3314);fill-opacity:1;stroke:none;stroke-width:1;stroke-miterlimit:4;stroke-dasharray:none;stroke-opacity:1"
       id="path3312"
       sodipodi:cx="10.748654"
       sodipodi:cy="10.457643"
       sodipodi:rx="6.6449099"
       sodipodi:ry="2.3675451"
       d="M 17.393564 10.457643 A 6.6449099 2.3675451 0 1 1  4.1037445,10.457643 A 6.6449099 2.3675451 0 1 1  17.393564 10.457643 z"
       transform="matrix(1.655403,0,0,1.267135,-5.793358,6.748754)" />
    <path
       style="fill:#babdb6;fill-opacity:1;stroke:#888a85;stroke-width:1.00000036;marker-start:none;stroke-miterlimit:4;stroke-dasharray:none;stroke-opacity:1"
       d="M 20.499998,11.499999 C 20.499998,16.468 17.5881,20.5 14.000225,20.5 C 10.412352,20.5 7.5004531,16.468 7.5004531,11.499999 C 7.5004531,6.5320017 10.412352,2.5000031 14.000225,2.5000031 C 17.5881,2.5000031 20.499998,6.5320017 20.499998,11.499999 z "
       id="path3330" />
    <path
       style="fill:#555753;fill-opacity:1;stroke:#2e3436;stroke-width:0.99999982;stroke-miterlimit:4;stroke-opacity:1"
       d="M 9.5757954,4.4999909 C 19.655331,4.4999909 18.463917,8.9224821 18.463917,20.657462 C 18.463917,21.144135 17.952137,21.535934 17.399922,21.535934 L 12.967939,21.535934 C 12.415724,21.535934 11.786816,21.144135 11.786816,20.657462 C 11.786816,11.868662 9.0235808,4.4999909 9.5757954,4.4999909 z "
       id="rect3332"
       sodipodi:nodetypes="cccccc" />
    <rect
       style="opacity:1;fill:#888a85;fill-opacity:1;stroke:none;stroke-width:1;stroke-miterlimit:4;stroke-dasharray:none;stroke-opacity:1"
       id="rect3337"
       width="6"
       height="1"
       x="12"
       y="16" />
    <path
       style="fill:#888a85;fill-opacity:1;stroke:none;stroke-width:1;stroke-miterlimit:4;stroke-opacity:1"
       d="M 12,12 L 17.917343,12 L 17.972448,12.986224 L 12,13 L 12,12 z "
       id="rect3339"
       sodipodi:nodetypes="ccccc" />
    <path
       sodipodi:type="inkscape:offset"
       inkscape:radius="-0.98407936"
       inkscape:original="M 9.5625 4.5 C 9.0102854 4.5 11.78125 11.867451 11.78125 20.65625 C 11.78125 21.142923 12.416535 21.53125 12.96875 21.53125 L 17.40625 21.53125 C 17.958465 21.53125 18.46875 21.142924 18.46875 20.65625 C 18.46875 8.9212701 19.642036 4.5 9.5625 4.5 z "
       xlink:href="#rect3332"
       style="opacity:0.1;fill:none;fill-opacity:1;stroke:#ffffff;stroke-width:0.9999997;stroke-miterlimit:4;stroke-opacity:1"
       id="path3360"
       inkscape:href="#rect3332"
       d="M 10.71875,5.5625 C 10.898299,6.1749685 11.129451,6.9516592 11.40625,8.03125 C 12.033521,10.477772 12.728652,14.035591 12.75,18.4375 C 12.813142,18.471316 12.928295,18.53125 12.96875,18.53125 L 17.40625,18.53125 C 17.438054,18.53125 17.473985,18.511714 17.5,18.5 C 17.504316,14.040069 17.683783,10.578779 16.875,8.5625 C 16.466329,7.5436922 15.887937,6.8713359 14.78125,6.34375 C 13.881373,5.9147555 12.474417,5.65705 10.71875,5.5625 z " />
    <path
       style="fill:#888a85;fill-opacity:1;stroke:none;stroke-width:1;stroke-miterlimit:4;stroke-opacity:1"
       d="M 11.406078,8 L 17.003879,8 L 17.527376,9 L 11.406078,9 L 11.406078,8 z "
       id="rect3341"
       sodipodi:nodetypes="ccccc" />
    <path
       style="fill:#babdb6;fill-opacity:1;stroke:#888a85;stroke-width:1.00000036;marker-start:none;stroke-miterlimit:4;stroke-dasharray:none;stroke-opacity:1"
       d="M 14.499905,11.500102 C 14.499905,16.467927 11.587927,20.499785 7.9999548,20.499785 C 4.4119842,20.499785 1.5000069,16.467927 1.5000069,11.500102 C 1.5000069,6.5322759 4.4119842,2.5004181 7.9999548,2.5004181 C 11.587927,2.5004181 14.499905,6.5322759 14.499905,11.500102 z "
       id="path2387" />
    <path
       sodipodi:type="inkscape:offset"
       inkscape:radius="-1.0084771"
       inkscape:original="M 8 2.5 C 4.4120294 2.5 1.5 6.5321739 1.5 11.5 C 1.5 16.467825 4.4120295 20.500001 8 20.5 C 11.587972 20.5 14.5 16.467825 14.5 11.5 C 14.5 6.5321739 11.587972 2.4999999 8 2.5 z "
       xlink:href="#path2387"
       style="opacity:0.6;fill:url(#linearGradient2212);fill-opacity:1.0;stroke:#ffffff;stroke-width:1;stroke-miterlimit:4;stroke-opacity:1"
       id="path3265"
       inkscape:href="#path2387"
       d="M 10,3.5 C 8.5955262,3.5 7.279399,4.2862967 6.25,5.71875 C 5.220601,7.1512033 4.53125,9.21453 4.53125,11.5 C 4.53125,13.785469 5.2206009,15.848797 6.25,17.28125 C 7.2793991,18.713703 8.5955266,19.5 10,19.5 C 11.404474,19.5 12.720601,18.713703 13.75,17.28125 C 14.779399,15.848797 15.46875,13.785469 15.46875,11.5 C 15.46875,9.2145299 14.779399,7.1512032 13.75,5.71875 C 12.720601,4.2862968 11.404475,3.5 10,3.5 z " />
    <path
       sodipodi:type="arc"
       style="opacity:1;fill:#2e3436;fill-opacity:1;stroke:none;stroke-width:1;stroke-miterlimit:4;stroke-dasharray:none;stroke-opacity:1"
       id="path3320"
       sodipodi:cx="7.9895048"
       sodipodi:cy="7.0139093"
       sodipodi:rx="1.0070804"
       sodipodi:ry="1.4099127"
       d="M 8.9965852 7.0139093 A 1.0070804 1.4099127 0 1 1  6.9824244,7.0139093 A 1.0070804 1.4099127 0 1 1  8.9965852 7.0139093 z"
       transform="matrix(0.99297,0,0,1.063896,-0.963187,3.792924e-2)" />
    <path
       sodipodi:type="arc"
       style="opacity:1;fill:#2e3436;fill-opacity:1;stroke:none;stroke-width:1;stroke-miterlimit:4;stroke-dasharray:none;stroke-opacity:1"
       id="path3322"
       sodipodi:cx="7.9895048"
       sodipodi:cy="7.0139093"
       sodipodi:rx="1.0070804"
       sodipodi:ry="1.4099127"
       d="M 8.9965852 7.0139093 A 1.0070804 1.4099127 0 1 1  6.9824244,7.0139093 A 1.0070804 1.4099127 0 1 1  8.9965852 7.0139093 z"
       transform="matrix(-3.469438e-18,1.489454,-1.063893,-5.497771e-18,16.93221,-0.400002)" />
    <path
       sodipodi:type="arc"
       style="opacity:1;fill:#2e3436;fill-opacity:1;stroke:none;stroke-width:1;stroke-miterlimit:4;stroke-dasharray:none;stroke-opacity:1"
       id="path3324"
       sodipodi:cx="7.9895048"
       sodipodi:cy="7.0139093"
       sodipodi:rx="1.0070804"
       sodipodi:ry="1.4099127"
       d="M 8.9965852 7.0139093 A 1.0070804 1.4099127 0 1 1  6.9824244,7.0139093 A 1.0070804 1.4099127 0 1 1  8.9965852 7.0139093 z"
       transform="matrix(-2.312971e-18,1.489454,-0.709265,-5.497768e-18,9.944876,-0.400002)" />
    <path
       sodipodi:type="arc"
       style="opacity:1;fill:#2e3436;fill-opacity:1;stroke:none;stroke-width:1;stroke-miterlimit:4;stroke-dasharray:none;stroke-opacity:1"
       id="path3326"
       sodipodi:cx="7.9895048"
       sodipodi:cy="7.0139093"
       sodipodi:rx="1.0070804"
       sodipodi:ry="1.4099127"
       d="M 8.9965852 7.0139093 A 1.0070804 1.4099127 0 1 1  6.9824244,7.0139093 A 1.0070804 1.4099127 0 1 1  8.9965852 7.0139093 z"
       transform="matrix(0.99297,0,0,1.063896,-0.963184,8.037929)" />
  </g>
</svg>
