<?xml version="1.0" encoding="UTF-8" standalone="no"?>
<!-- Created with Inkscape (http://www.inkscape.org/) -->
<svg
   xmlns:dc="http://purl.org/dc/elements/1.1/"
   xmlns:cc="http://creativecommons.org/ns#"
   xmlns:rdf="http://www.w3.org/1999/02/22-rdf-syntax-ns#"
   xmlns:svg="http://www.w3.org/2000/svg"
   xmlns="http://www.w3.org/2000/svg"
   xmlns:xlink="http://www.w3.org/1999/xlink"
   xmlns:sodipodi="http://sodipodi.sourceforge.net/DTD/sodipodi-0.dtd"
   xmlns:inkscape="http://www.inkscape.org/namespaces/inkscape"
   width="24"
   height="24"
   id="svg2"
   sodipodi:version="0.32"
   inkscape:version="0.46"
   version="1.0"
   sodipodi:docbase="/home/hbons/Desktop/Gaim Refresh/emotes/scalable"
   sodipodi:docname="girl.svg"
   inkscape:export-filename="/home/hbons/Bureaublad/Projecten/Pidgin objecten voor 2.5.0/bitmaps/girl.png"
   inkscape:export-xdpi="90"
   inkscape:export-ydpi="90"
   inkscape:output_extension="org.inkscape.output.svg.inkscape">
  <defs
     id="defs4">
    <linearGradient
       inkscape:collect="always"
       id="linearGradient3200">
      <stop
         style="stop-color:#ffffff;stop-opacity:1;"
         offset="0"
         id="stop3202" />
      <stop
         style="stop-color:#ffffff;stop-opacity:0;"
         offset="1"
         id="stop3204" />
    </linearGradient>
    <linearGradient
       inkscape:collect="always"
       id="linearGradient3180">
      <stop
         style="stop-color:#ae3a83;stop-opacity:1"
         offset="0"
         id="stop3182" />
      <stop
         style="stop-color:#722656;stop-opacity:1"
         offset="1"
         id="stop3184" />
    </linearGradient>
    <linearGradient
       inkscape:collect="always"
       id="linearGradient3172">
      <stop
         style="stop-color:#cf72b7;stop-opacity:1;"
         offset="0"
         id="stop3174" />
      <stop
         style="stop-color:#d98fc6;stop-opacity:1"
         offset="1"
         id="stop3176" />
    </linearGradient>
    <linearGradient
       inkscape:collect="always"
       xlink:href="#linearGradient3172"
       id="linearGradient3178"
       x1="10.328474"
       y1="18.381649"
       x2="10.328474"
       y2="5.3095002"
       gradientUnits="userSpaceOnUse" />
    <linearGradient
       inkscape:collect="always"
       xlink:href="#linearGradient3180"
       id="linearGradient3186"
       x1="11.330925"
       y1="15.869625"
       x2="16.023478"
       y2="21.267532"
       gradientUnits="userSpaceOnUse" />
    <linearGradient
       inkscape:collect="always"
       xlink:href="#linearGradient3200"
       id="linearGradient3206"
       x1="1.4138453"
       y1="3.8759882"
       x2="21.294281"
       y2="24.454718"
       gradientUnits="userSpaceOnUse" />
    <filter
       inkscape:collect="always"
       id="filter3360"
       x="-0.17636532"
       width="1.3527306"
       y="-0.38650273"
       height="1.7730055">
      <feGaussianBlur
         inkscape:collect="always"
         stdDeviation="0.48891072"
         id="feGaussianBlur3362" />
    </filter>
  </defs>
  <sodipodi:namedview
     id="base"
     pagecolor="#ffffff"
     bordercolor="#666666"
     borderopacity="1.0"
     inkscape:pageopacity="0.0"
     inkscape:pageshadow="2"
     inkscape:zoom="15.481379"
     inkscape:cx="19.602753"
     inkscape:cy="15.612682"
     inkscape:document-units="px"
     inkscape:current-layer="layer1"
     showgrid="true"
     fill="#ef2929"
     inkscape:window-width="1440"
     inkscape:window-height="848"
     inkscape:window-x="0"
     inkscape:window-y="0"
     inkscape:snap-bbox="true"
     inkscape:snap-nodes="false"
     objecttolerance="10"
     gridtolerance="10">
    <inkscape:grid
       type="xygrid"
       id="grid2392"
       visible="true"
       enabled="true" />
  </sodipodi:namedview>
  <metadata
     id="metadata7">
    <rdf:RDF>
      <cc:Work
         rdf:about="">
        <dc:format>image/svg+xml</dc:format>
        <dc:type
           rdf:resource="http://purl.org/dc/dcmitype/StillImage" />
      </cc:Work>
    </rdf:RDF>
  </metadata>
  <g
     inkscape:label="Layer 1"
     inkscape:groupmode="layer"
     id="layer1">
    <path
       sodipodi:type="arc"
       style="opacity:0.24347826;fill:#2e3436;fill-opacity:1;fill-rule:nonzero;stroke:none;stroke-width:1;stroke-linecap:square;stroke-linejoin:round;marker:none;marker-start:none;marker-mid:none;marker-end:none;stroke-miterlimit:4;stroke-dasharray:none;stroke-dashoffset:0;stroke-opacity:1;visibility:visible;display:inline;overflow:visible;filter:url(#filter3360);enable-background:accumulate"
       id="path3294"
       sodipodi:cx="13.209417"
       sodipodi:cy="20.996391"
       sodipodi:rx="3.3265772"
       sodipodi:ry="1.5179527"
       d="M 16.535995,20.996391 A 3.3265772,1.5179527 0 1 1 9.8828402,20.996391 A 3.3265772,1.5179527 0 1 1 16.535995,20.996391 z"
       transform="matrix(1.653351,0,0,1.317564,-8.3398032,-6.66409)" />
    <path
       style="opacity:1;fill:url(#linearGradient3178);fill-opacity:1;fill-rule:evenodd;stroke:url(#linearGradient3186);stroke-width:1;stroke-miterlimit:4;stroke-dasharray:none;stroke-opacity:1"
       d="M 11.440941,2.5430081 C 8.1418507,2.8338759 5.5391344,5.6355191 5.5391342,9.0149063 C 5.5391342,12.06835 7.6994377,14.62012 10.540645,15.300117 L 10.540645,16.529834 L 8.5053167,16.529834 L 8.5053167,19.50108 L 10.509077,19.50108 L 10.509077,21.508218 L 13.506827,21.508218 L 13.506827,19.50108 L 15.510588,19.50108 L 15.510588,16.545618 L 13.506827,16.545618 L 13.506827,15.300117 C 16.348034,14.62012 18.460985,12.068349 18.460986,9.0149063 C 18.460986,5.4423245 15.566586,2.5430081 12.00006,2.5430081 C 11.860743,2.5430081 11.733387,2.5342922 11.596252,2.5430081 C 11.543541,2.5463582 11.493308,2.5383911 11.440941,2.5430081 z M 11.627315,6.5257152 C 11.665939,6.5199031 11.712387,6.5297043 11.751563,6.5257152 C 11.835136,6.5172049 11.914256,6.5257152 12.00006,6.5257152 C 13.372919,6.5257151 14.485032,7.6397171 14.485032,9.0149063 C 14.485032,10.390097 13.372919,11.5041 12.00006,11.5041 C 10.627202,11.5041 9.5150889,10.390097 9.5150889,9.0149063 C 9.5150893,7.7659552 10.429947,6.7058868 11.627315,6.5257152 z"
       id="path2264"
       sodipodi:nodetypes="csccccccccccccsssccsssssc" />
    <path
       sodipodi:type="inkscape:offset"
       inkscape:radius="-0.9582172"
       inkscape:original="M 11.4375 2.53125 C 8.1384098 2.8221178 5.5312502 5.6206128 5.53125 9 C 5.5312502 12.053444 7.6900427 14.632503 10.53125 15.3125 L 10.53125 16.53125 L 8.5 16.53125 L 8.5 19.5 L 10.5 19.5 L 10.5 21.5 L 13.5 21.5 L 13.5 19.5 L 15.5 19.5 L 15.5 16.53125 L 13.5 16.53125 L 13.5 15.3125 C 16.341207 14.632503 18.468749 12.053443 18.46875 9 C 18.468751 5.4274186 15.566526 2.53125 12 2.53125 C 11.860683 2.53125 11.730885 2.5225341 11.59375 2.53125 C 11.541039 2.5346001 11.489867 2.526633 11.4375 2.53125 z M 11.625 6.53125 C 11.663624 6.5254377 11.710824 6.5352391 11.75 6.53125 C 11.833573 6.5227395 11.914196 6.53125 12 6.53125 C 13.372859 6.5312497 14.5 7.6248108 14.5 9 C 14.5 10.375191 13.372859 11.5 12 11.5 C 10.627142 11.5 9.5 10.375191 9.5 9 C 9.5000003 7.7510493 10.427632 6.7114216 11.625 6.53125 z "
       style="opacity:1;fill:none;fill-opacity:1;fill-rule:evenodd;stroke:url(#linearGradient3206);stroke-width:1;stroke-miterlimit:4;stroke-dasharray:none;stroke-opacity:1"
       id="path3194"
       d="M 11.53125,3.5 C 8.7237873,3.7475229 6.5000002,6.1134487 6.5,9 C 6.5000002,11.601803 8.3353275,13.797087 10.75,14.375 C 11.18903,14.472771 11.500986,14.862716 11.5,15.3125 L 11.5,16.53125 C 11.502823,16.789034 11.401666,17.037083 11.219374,17.219374 C 11.037083,17.401666 10.789034,17.502823 10.53125,17.5 L 9.46875,17.5 L 9.46875,18.53125 L 10.5,18.53125 C 10.757784,18.528427 11.005833,18.629584 11.188124,18.811876 C 11.370416,18.994167 11.471573,19.242216 11.46875,19.5 L 11.46875,20.53125 L 12.53125,20.53125 L 12.53125,19.5 C 12.528427,19.242216 12.629584,18.994167 12.811876,18.811876 C 12.994167,18.629584 13.242216,18.528427 13.5,18.53125 L 14.53125,18.53125 L 14.53125,17.5 L 13.5,17.5 C 13.242216,17.502823 12.994167,17.401666 12.811876,17.219374 C 12.629584,17.037083 12.528427,16.789034 12.53125,16.53125 L 12.53125,15.3125 C 12.530264,14.862716 12.84222,14.472771 13.28125,14.375 C 15.694375,13.797457 17.499999,11.60834 17.5,9 C 17.500001,5.9463641 15.047784,3.5 12,3.5 C 11.820718,3.5 11.714832,3.4962767 11.65625,3.5 C 11.468389,3.5119397 11.43315,3.5086491 11.53125,3.5 z M 11.65625,5.5625 C 11.865669,5.5411743 11.977557,5.5625 12,5.5625 C 13.881709,5.5624996 15.46875,7.1012242 15.46875,9 C 15.46875,10.898777 13.896249,12.46875 12,12.46875 C 10.103751,12.46875 8.53125,10.898777 8.53125,9 C 8.5312504,7.2765857 9.8070556,5.8437902 11.46875,5.59375 C 11.777722,5.5472546 11.85161,5.5426074 11.65625,5.5625 z" />
  </g>
</svg>
