<?xml version="1.0" encoding="UTF-8" standalone="no"?>
<!-- Created with Inkscape (http://www.inkscape.org/) -->
<svg
   xmlns:dc="http://purl.org/dc/elements/1.1/"
   xmlns:cc="http://creativecommons.org/ns#"
   xmlns:rdf="http://www.w3.org/1999/02/22-rdf-syntax-ns#"
   xmlns:svg="http://www.w3.org/2000/svg"
   xmlns="http://www.w3.org/2000/svg"
   xmlns:xlink="http://www.w3.org/1999/xlink"
   xmlns:sodipodi="http://sodipodi.sourceforge.net/DTD/sodipodi-0.dtd"
   xmlns:inkscape="http://www.inkscape.org/namespaces/inkscape"
   width="24"
   height="24"
   id="svg2"
   sodipodi:version="0.32"
   inkscape:version="0.46"
   version="1.0"
   sodipodi:docbase="/home/hbons/Desktop/Gaim Refresh/emotes/scalable"
   sodipodi:docname="good.svg"
   inkscape:export-filename="/home/hbons/Bureaublad/Projecten/Pidgin objecten voor 2.5.0/bitmaps/bad.png"
   inkscape:export-xdpi="90"
   inkscape:export-ydpi="90"
   inkscape:output_extension="org.inkscape.output.svg.inkscape">
  <defs
     id="defs4">
    <linearGradient
       inkscape:collect="always"
       id="linearGradient3272">
      <stop
         style="stop-color:#e1aa59;stop-opacity:1;"
         offset="0"
         id="stop3274" />
      <stop
         style="stop-color:#e8bd7e;stop-opacity:1"
         offset="1"
         id="stop3276" />
    </linearGradient>
    <linearGradient
       inkscape:collect="always"
       id="linearGradient3264">
      <stop
         style="stop-color:#ffffff;stop-opacity:1;"
         offset="0"
         id="stop3266" />
      <stop
         style="stop-color:#ffffff;stop-opacity:0;"
         offset="1"
         id="stop3268" />
    </linearGradient>
    <linearGradient
       inkscape:collect="always"
       id="linearGradient3166">
      <stop
         style="stop-color:#d37317;stop-opacity:1"
         offset="0"
         id="stop3168" />
      <stop
         style="stop-color:#894a0e;stop-opacity:1"
         offset="1"
         id="stop3170" />
    </linearGradient>
    <linearGradient
       inkscape:collect="always"
       xlink:href="#linearGradient3166"
       id="linearGradient3172"
       x1="9.6182642"
       y1="11.234447"
       x2="12.500001"
       y2="7.3013229"
       gradientUnits="userSpaceOnUse"
       gradientTransform="matrix(1,0,0,-1,0,24)" />
    <filter
       inkscape:collect="always"
       id="filter3260"
       x="-0.16589058"
       width="1.3317812"
       y="-0.45149601"
       height="1.902992">
      <feGaussianBlur
         inkscape:collect="always"
         stdDeviation="0.87311087"
         id="feGaussianBlur3262" />
    </filter>
    <linearGradient
       inkscape:collect="always"
       xlink:href="#linearGradient3264"
       id="linearGradient3270"
       x1="10.007825"
       y1="-3.1401939"
       x2="26.904633"
       y2="22.219807"
       gradientUnits="userSpaceOnUse" />
    <linearGradient
       inkscape:collect="always"
       xlink:href="#linearGradient3272"
       id="linearGradient3278"
       x1="11.072799"
       y1="14.794947"
       x2="10.564541"
       y2="14.994544"
       gradientUnits="userSpaceOnUse"
       gradientTransform="matrix(1,0,0,-1,0,24)" />
  </defs>
  <sodipodi:namedview
     id="base"
     pagecolor="#ffffff"
     bordercolor="#666666"
     borderopacity="1.0"
     inkscape:pageopacity="0.0"
     inkscape:pageshadow="2"
     inkscape:zoom="10.44997"
     inkscape:cx="30.663156"
     inkscape:cy="11.954775"
     inkscape:document-units="px"
     inkscape:current-layer="layer1"
     showgrid="true"
     fill="#ce5c00"
     showguides="true"
     inkscape:guide-bbox="true"
     inkscape:window-width="1440"
     inkscape:window-height="848"
     inkscape:window-x="0"
     inkscape:window-y="0"
     inkscape:snap-bbox="true"
     inkscape:snap-nodes="false"
     objecttolerance="10"
     gridtolerance="10">
    <inkscape:grid
       type="xygrid"
       id="grid2394"
       visible="true"
       enabled="true" />
  </sodipodi:namedview>
  <metadata
     id="metadata7">
    <rdf:RDF>
      <cc:Work
         rdf:about="">
        <dc:format>image/svg+xml</dc:format>
        <dc:type
           rdf:resource="http://purl.org/dc/dcmitype/StillImage" />
      </cc:Work>
    </rdf:RDF>
  </metadata>
  <g
     inkscape:label="Layer 1"
     inkscape:groupmode="layer"
     id="layer1">
    <path
       sodipodi:type="arc"
       style="opacity:0.23043478;fill:#2e3436;fill-opacity:1;fill-rule:nonzero;stroke:none;stroke-width:1;stroke-linecap:square;stroke-linejoin:round;marker:none;marker-start:none;marker-mid:none;marker-end:none;stroke-miterlimit:4;stroke-dasharray:none;stroke-dashoffset:0;stroke-opacity:1;visibility:visible;display:inline;overflow:visible;filter:url(#filter3260);enable-background:accumulate"
       id="path3174"
       sodipodi:cx="13.732098"
       sodipodi:cy="18.569363"
       sodipodi:rx="6.3158078"
       sodipodi:ry="2.320581"
       d="M 20.047905,18.569363 A 6.3158078,2.320581 0 1 1 7.4162898,18.569363 A 6.3158078,2.320581 0 1 1 20.047905,18.569363 z"
       transform="matrix(1.1083301,0,0,1.0773164,-2.219697,-0.505079)" />
    <path
       style="opacity:1;fill:url(#linearGradient3278);fill-opacity:1;fill-rule:evenodd;stroke:url(#linearGradient3172);stroke-width:1;stroke-miterlimit:4;stroke-opacity:1"
       d="M 4.5000002,11.541306 C 4.5000002,12.640106 8.6551852,13.848843 8.6551852,13.848843 C 6.4527752,16.847922 5.7631312,19.620915 7.9260292,20.429027 C 10.072754,21.231097 11.365921,14.981438 15.153727,14.450442 C 17.433129,14.130903 19.662221,12.707141 19.662221,12.707141 L 20.500001,7.271662 C 20.500001,7.271662 14.580535,3.5 9.2144172,3.5 C 7.9005882,3.5 4.5000002,6.630421 4.5000002,11.541306 z"
       id="rect2277"
       sodipodi:nodetypes="cczsccss" />
    <rect
       style="opacity:1;fill:#ad4d00;fill-opacity:1;fill-rule:evenodd;stroke:none;stroke-width:1;stroke-miterlimit:4;stroke-dasharray:none;stroke-opacity:1"
       id="rect2292"
       width="2.1413293"
       height="0.97405744"
       x="8.2839909"
       y="-1.9507062"
       transform="matrix(0.8753581,0.4834751,0.128907,-0.9916567,0,0)" />
    <rect
       style="opacity:1;fill:#ad4d00;fill-opacity:1;fill-rule:evenodd;stroke:none;stroke-width:1;stroke-miterlimit:4;stroke-dasharray:none;stroke-opacity:1"
       id="rect2290"
       width="2.141026"
       height="0.97348154"
       x="7.4949389"
       y="-4.3545794"
       transform="matrix(0.8754801,0.4832541,0.128983,-0.9916468,0,0)" />
    <path
       style="fill:#ad4d00;fill-opacity:1;fill-rule:evenodd;stroke:none;stroke-width:1;stroke-miterlimit:4;stroke-opacity:1"
       d="M 4.9999972,10.083563 L 6.8360112,10.974822 L 6.9999972,9.866081 L 5.1639832,8.974822 L 4.9999972,10.083563 z"
       id="rect2288" />
    <path
       sodipodi:type="inkscape:offset"
       inkscape:radius="-1.0127089"
       inkscape:original="M 9.21875 3.5 C 7.9049207 3.5 4.5 6.620365 4.5 11.53125 C 4.5000002 12.63005 8.65625 13.84375 8.65625 13.84375 C 6.4538405 16.842829 5.774602 19.629388 7.9375 20.4375 C 10.084225 21.239569 11.368444 14.968496 15.15625 14.4375 C 17.435652 14.117961 19.65625 12.71875 19.65625 12.71875 L 20.5 7.28125 C 20.499999 7.2812498 14.584868 3.5 9.21875 3.5 z "
       xlink:href="#rect2277"
       style="opacity:1;fill:none;fill-opacity:1;fill-rule:evenodd;stroke:url(#linearGradient3270);stroke-width:1;stroke-miterlimit:4;stroke-opacity:1"
       id="path2286"
       inkscape:href="#rect2277"
       d="M 7.75,4.5 C 7.3889696,4.6356665 7.2866997,4.7661237 7.21875,4.90625 C 7.1508003,5.0463763 7.1083506,5.2803775 7.1875,5.6875 C 7.3457988,6.501745 8.0354633,7.8318577 9.09375,9.28125 C 9.2758832,9.5329909 9.332384,9.854404 9.247023,10.153167 C 9.1616621,10.451931 8.9438866,10.694979 8.65625,10.8125 C 8.65625,10.8125 7.7385508,11.173715 6.84375,11.65625 C 6.3963496,11.897517 5.9590251,12.18181 5.6875,12.40625 C 5.4159749,12.63069 5.4375,12.811338 5.4375,12.5 C 5.4375,14.73717 6.2292382,16.562351 7.125,17.8125 C 7.5728809,18.437574 8.0359694,18.919668 8.4375,19.21875 C 8.8390306,19.517832 9.2027059,19.59375 9.125,19.59375 C 13.637924,19.59375 18.529806,16.691086 19.3125,16.21875 L 18.65625,12 C 18.152748,11.709728 16.574424,10.82895 14.90625,10.59375 C 12.488856,10.252915 10.998267,8.2465059 9.8125,6.6875 C 9.2196164,5.9079971 8.6864056,5.2204834 8.28125,4.84375 C 8.0786722,4.6553833 7.9181899,4.5588208 7.84375,4.53125 C 7.7693101,4.5036792 7.7938358,4.4835276 7.75,4.5 z" />
  </g>
</svg>
