<?xml version="1.0" encoding="UTF-8" standalone="no"?>
<!-- Created with Inkscape (http://www.inkscape.org/) -->
<svg
   xmlns:dc="http://purl.org/dc/elements/1.1/"
   xmlns:cc="http://web.resource.org/cc/"
   xmlns:rdf="http://www.w3.org/1999/02/22-rdf-syntax-ns#"
   xmlns:svg="http://www.w3.org/2000/svg"
   xmlns="http://www.w3.org/2000/svg"
   xmlns:xlink="http://www.w3.org/1999/xlink"
   xmlns:sodipodi="http://inkscape.sourceforge.net/DTD/s odipodi-0.dtd"
   xmlns:inkscape="http://www.inkscape.org/namespaces/inkscape"
   width="24"
   height="24"
   id="svg2"
   sodipodi:version="0.32"
   inkscape:version="0.43"
   version="1.0"
   sodipodi:docbase="/home/hbons/Desktop/Gaim Refresh/emotes/scalable"
   sodipodi:docname="hammer.svg"
   inkscape:export-filename="/home/hbons/Desktop/Gaim Refresh/emotes/face-smile.png"
   inkscape:export-xdpi="90"
   inkscape:export-ydpi="90">
  <defs
     id="defs4">
    <linearGradient
       inkscape:collect="always"
       id="linearGradient4091">
      <stop
         style="stop-color:#ffffff;stop-opacity:1;"
         offset="0"
         id="stop4093" />
      <stop
         style="stop-color:#ffffff;stop-opacity:0;"
         offset="1"
         id="stop4095" />
    </linearGradient>
    <linearGradient
       inkscape:collect="always"
       id="linearGradient4081">
      <stop
         style="stop-color:#eeeeec;stop-opacity:1;"
         offset="0"
         id="stop4083" />
      <stop
         style="stop-color:#eeeeec;stop-opacity:0;"
         offset="1"
         id="stop4085" />
    </linearGradient>
    <linearGradient
       inkscape:collect="always"
       id="linearGradient3150">
      <stop
         style="stop-color:#2e3436;stop-opacity:1;"
         offset="0"
         id="stop3152" />
      <stop
         style="stop-color:#2e3436;stop-opacity:0;"
         offset="1"
         id="stop3154" />
    </linearGradient>
    <radialGradient
       inkscape:collect="always"
       xlink:href="#linearGradient3150"
       id="radialGradient3156"
       cx="10.748654"
       cy="10.457643"
       fx="10.748654"
       fy="10.457643"
       r="6.6449099"
       gradientTransform="matrix(-0.842757,5.698892e-16,-4.565819e-9,-0.35721,19.80716,14.19321)"
       gradientUnits="userSpaceOnUse" />
    <linearGradient
       inkscape:collect="always"
       xlink:href="#linearGradient4091"
       id="linearGradient4097"
       x1="13.814401"
       y1="-1.8455421"
       x2="13.814401"
       y2="16.204264"
       gradientUnits="userSpaceOnUse"
       gradientTransform="translate(-12.47436,7.514764)" />
    <radialGradient
       inkscape:collect="always"
       xlink:href="#linearGradient4081"
       id="radialGradient4101"
       gradientUnits="userSpaceOnUse"
       gradientTransform="matrix(1.182818,-1.182818,0.489519,0.489519,-7.07646,23.4061)"
       cx="13.496805"
       cy="-2.2006032"
       fx="13.496805"
       fy="-2.2006032"
       r="8.491979" />
  </defs>
  <sodipodi:namedview
     id="base"
     pagecolor="#ffffff"
     bordercolor="#666666"
     borderopacity="1.0"
     inkscape:pageopacity="0.0"
     inkscape:pageshadow="2"
     inkscape:zoom="18.194454"
     inkscape:cx="25.692287"
     inkscape:cy="17.606254"
     inkscape:document-units="px"
     inkscape:current-layer="layer1"
     showgrid="true"
     fill="#c17d11"
     inkscape:window-width="1268"
     inkscape:window-height="972"
     inkscape:window-x="6"
     inkscape:window-y="21" />
  <metadata
     id="metadata7">
    <rdf:RDF>
      <cc:Work
         rdf:about="">
        <dc:format>image/svg+xml</dc:format>
        <dc:type
           rdf:resource="http://purl.org/dc/dcmitype/StillImage" />
      </cc:Work>
    </rdf:RDF>
  </metadata>
  <g
     inkscape:label="Layer 1"
     inkscape:groupmode="layer"
     id="layer1">
    <path
       sodipodi:type="arc"
       style="opacity:0.4;fill:url(#radialGradient3156);fill-opacity:1;stroke:none;stroke-width:1;stroke-miterlimit:4;stroke-dasharray:none;stroke-opacity:1"
       id="path3140"
       sodipodi:cx="10.748654"
       sodipodi:cy="10.457643"
       sodipodi:rx="6.6449099"
       sodipodi:ry="2.3675451"
       d="M 17.393564 10.457643 A 6.6449099 2.3675451 0 1 1  4.1037445,10.457643 A 6.6449099 2.3675451 0 1 1  17.393564 10.457643 z"
       transform="matrix(1.504911,0,0,1.055945,-3.175771,7.457298)" />
    <rect
       style="opacity:1;fill:#c17d11;fill-opacity:1;fill-rule:evenodd;stroke:none;stroke-width:0.9999994;stroke-miterlimit:4;stroke-dasharray:none;stroke-opacity:1"
       id="rect4089"
       width="1.986135"
       height="10.99604"
       x="0.025720447"
       y="16.014847"
       rx="1.5000002"
       ry="1.500001"
       transform="matrix(0.707107,-0.707107,0.707107,0.707107,0,0)" />
    <rect
       style="opacity:1;fill:url(#linearGradient4097);fill-opacity:1;fill-rule:evenodd;stroke:#8f5902;stroke-width:0.9999997;stroke-miterlimit:4;stroke-dasharray:none;stroke-opacity:1"
       id="rect4075"
       width="1.986135"
       height="10.99604"
       x="0.025720447"
       y="16.014847"
       rx="1.5000002"
       ry="1.500001"
       transform="matrix(0.707107,-0.707107,0.707107,0.707107,0,0)" />
    <path
       style="opacity:1;fill:#babdb6;fill-opacity:1;fill-rule:evenodd;stroke:none;stroke-width:1.00000012;stroke-miterlimit:4;stroke-dasharray:none;stroke-opacity:1"
       d="M 7.2115711,8.3656538 C 6.6755108,9.0200318 7.2598372,9.9643689 7.8506478,10.55518 C 7.3489997,11.056828 6.824629,11.596889 6.408018,12.0135 C 5.8537608,11.459243 5.5206022,11.143577 4.8659251,11.238959 C 3.8886726,11.301355 3.1941652,12.452884 3.6358511,13.339487 C 3.9338305,13.894407 4.4642442,14.270059 4.8828392,14.730962 C 5.3741327,15.191754 5.8060214,15.723198 6.3454943,16.127057 C 7.1614912,16.651564 8.3688659,16.138597 8.5655186,15.190724 C 8.7378375,14.570596 8.2895453,13.895028 7.8193645,13.424847 C 8.3203285,12.923883 8.9287945,12.32568 9.2387103,12.015765 C 9.7138483,12.490903 10.097152,12.903622 10.715249,12.872347 C 11.373512,12.906541 12.453766,11.621761 12.870701,11.191806 C 13.273472,10.753692 13.781236,10.403463 14.103835,9.8998747 C 14.465844,9.2529446 14.018878,8.3480876 13.455083,7.7842917 C 13.716542,7.5228319 13.993342,7.2386932 14.325717,6.9063177 C 15.246898,5.9703843 16.438801,5.0115684 17.816722,5.0684077 C 16.88136,4.1313486 15.619197,3.3093977 14.224697,3.5388798 C 13.09728,3.715044 12.358366,4.6462485 11.59435,5.403689 C 11.07323,5.924809 10.737833,5.541681 10.144621,5.7570497 C 9.5535126,5.9716543 7.4311055,8.1450778 7.2115711,8.3656538 z "
       id="path4079"
       sodipodi:nodetypes="cccccccccccsccccccsc" />
    <path
       style="opacity:1;fill:url(#radialGradient4101);fill-opacity:1;fill-rule:evenodd;stroke:#888a85;stroke-width:1.00000012;stroke-miterlimit:4;stroke-dasharray:none;stroke-opacity:1"
       d="M 7.2115711,8.3656538 C 6.6755108,9.0200318 7.2598372,9.9643689 7.8506478,10.55518 C 7.3489997,11.056828 6.824629,11.596889 6.408018,12.0135 C 5.8537608,11.459243 5.5206022,11.143577 4.8659251,11.238959 C 3.8886726,11.301355 3.1941652,12.452884 3.6358511,13.339487 C 3.9338305,13.894407 4.4642442,14.270059 4.8828392,14.730962 C 5.3741327,15.191754 5.8060214,15.723198 6.3454943,16.127057 C 7.1614912,16.651564 8.3688659,16.138597 8.5655186,15.190724 C 8.7378375,14.570596 8.2895453,13.895028 7.8193645,13.424847 C 8.3203285,12.923883 8.9287945,12.32568 9.2387103,12.015765 C 9.7138483,12.490903 10.097152,12.903622 10.715249,12.872347 C 11.373512,12.906541 12.453766,11.621761 12.870701,11.191806 C 13.273472,10.753692 13.781236,10.403463 14.103835,9.8998747 C 14.465844,9.2529446 14.018878,8.3480876 13.455083,7.7842917 C 13.716542,7.5228319 13.993342,7.2386932 14.325717,6.9063177 C 15.246898,5.9703843 16.438801,5.0115684 17.816722,5.0684077 C 16.88136,4.1313486 15.619197,3.3093977 14.224697,3.5388798 C 13.09728,3.715044 12.358366,4.6462485 11.59435,5.403689 C 11.07323,5.924809 10.737833,5.541681 10.144621,5.7570497 C 9.5535126,5.9716543 7.4311055,8.1450778 7.2115711,8.3656538 z "
       id="rect4066"
       sodipodi:nodetypes="cccccccccccsccccccsc" />
    <path
       sodipodi:type="inkscape:offset"
       inkscape:radius="-0.92983794"
       inkscape:original="M 14.21875 3.53125 C 13.091333 3.7074141 12.357766 4.6488095 11.59375 5.40625 C 11.07263 5.9273701 10.749462 5.5346313 10.15625 5.75 C 9.5651417 5.9646047 7.4382844 8.154424 7.21875 8.375 C 6.6826896 9.0293778 7.2529394 9.9716889 7.84375 10.5625 C 7.3421018 11.064148 6.822861 11.583389 6.40625 12 C 5.8519927 11.445743 5.5296771 11.154618 4.875 11.25 C 3.8977473 11.312396 3.1833141 12.457147 3.625 13.34375 C 3.9229794 13.89867 4.456405 14.257847 4.875 14.71875 C 5.3662935 15.179542 5.8042771 15.721141 6.34375 16.125 C 7.1597469 16.649508 8.3658473 16.135373 8.5625 15.1875 C 8.7348191 14.567372 8.2826808 13.907681 7.8125 13.4375 C 8.313464 12.936536 8.9400842 12.341165 9.25 12.03125 C 9.7251379 12.506388 10.100653 12.906275 10.71875 12.875 C 11.377013 12.909194 12.458065 11.617455 12.875 11.1875 C 13.277771 10.749386 13.771151 10.409838 14.09375 9.90625 C 14.455759 9.2593199 14.032545 8.3450459 13.46875 7.78125 C 13.730209 7.5197902 13.980125 7.2386255 14.3125 6.90625 C 15.233681 5.9703166 16.434579 5.0056607 17.8125 5.0625 C 16.877137 4.1254411 15.61325 3.3017679 14.21875 3.53125 z "
       xlink:href="#rect4066"
       style="opacity:0.4;fill:none;fill-opacity:1;fill-rule:evenodd;stroke:#ffffff;stroke-width:1.00000012;stroke-miterlimit:4;stroke-dasharray:none;stroke-opacity:1"
       id="path4099"
       inkscape:href="#rect4066"
       d="M 14.375,4.4375 C 13.686016,4.545157 13.076243,5.2433684 12.25,6.0625 C 11.838897,6.4736028 11.201901,6.6340957 10.875,6.625 C 10.548099,6.6159043 10.544024,6.5976712 10.46875,6.625 C 10.629647,6.5665857 10.322418,6.7203282 10.0625,6.9375 C 9.8025822,7.1546718 9.4956532,7.4257806 9.1875,7.71875 C 8.6005416,8.276787 8.1045562,8.799866 7.9375,8.96875 C 7.9105496,9.0016489 7.8903313,8.9509075 7.96875,9.15625 C 8.0471687,9.3615925 8.2736038,9.6798536 8.5,9.90625 C 8.8614168,10.269109 8.8614168,10.855891 8.5,11.21875 C 7.998352,11.720398 7.4791111,12.239639 7.0625,12.65625 C 6.6996412,13.017667 6.1128588,13.017667 5.75,12.65625 C 5.479038,12.385288 5.2939485,12.229738 5.21875,12.1875 C 5.1435515,12.145262 5.1722425,12.131155 5,12.15625 C 4.9795655,12.167446 4.9587175,12.17787 4.9375,12.1875 C 4.6532104,12.205651 4.34796,12.695036 4.46875,12.9375 C 4.6182474,13.215905 5.0181069,13.517519 5.5,14.03125 C 5.5126148,14.043082 5.5187723,14.050682 5.53125,14.0625 C 5.5455689,14.078008 5.5480313,14.077819 5.5625,14.09375 C 6.0625558,14.571772 6.4626268,15.046454 6.84375,15.34375 C 6.8485608,15.347503 6.8701922,15.34005 6.875,15.34375 C 7.1174272,15.465514 7.6014778,15.264004 7.65625,15 C 7.6555497,14.979173 7.6555497,14.958327 7.65625,14.9375 C 7.6634718,14.911511 7.6780587,14.825247 7.59375,14.65625 C 7.5094413,14.487253 7.3429673,14.280467 7.15625,14.09375 C 6.7948332,13.730891 6.7948332,13.144109 7.15625,12.78125 C 7.6708851,12.266615 8.3059318,11.662817 8.59375,11.375 C 8.9566088,11.013583 9.5433912,11.013583 9.90625,11.375 C 10.14944,11.61819 10.322447,11.797417 10.4375,11.875 C 10.552553,11.952583 10.556449,11.94255 10.65625,11.9375 C 10.69787,11.934696 10.73963,11.934696 10.78125,11.9375 C 10.629765,11.929631 10.662948,11.978855 10.78125,11.90625 C 10.899552,11.833645 11.073845,11.693363 11.25,11.53125 C 11.602311,11.207024 11.965908,10.791987 12.21875,10.53125 C 12.701579,10.006053 13.08196,9.7297088 13.28125,9.4375 C 13.295699,9.4116787 13.324302,9.3404358 13.25,9.125 C 13.175698,8.9095642 12.998953,8.6239529 12.8125,8.4375 C 12.451083,8.0746412 12.451083,7.4878588 12.8125,7.125 C 13.047766,6.8897334 13.30327,6.6029803 13.65625,6.25 C 14.204695,5.6927721 14.910343,5.111885 15.71875,4.6875 C 15.275667,4.4857215 14.820045,4.3642623 14.375,4.4375 z " />
  </g>
</svg>
