<?xml version="1.0" encoding="UTF-8" standalone="no"?>
<!-- Created with Inkscape (http://www.inkscape.org/) -->
<svg
   xmlns:dc="http://purl.org/dc/elements/1.1/"
   xmlns:cc="http://creativecommons.org/ns#"
   xmlns:rdf="http://www.w3.org/1999/02/22-rdf-syntax-ns#"
   xmlns:svg="http://www.w3.org/2000/svg"
   xmlns="http://www.w3.org/2000/svg"
   xmlns:xlink="http://www.w3.org/1999/xlink"
   xmlns:sodipodi="http://sodipodi.sourceforge.net/DTD/sodipodi-0.dtd"
   xmlns:inkscape="http://www.inkscape.org/namespaces/inkscape"
   width="24"
   height="24"
   id="svg2"
   sodipodi:version="0.32"
   inkscape:version="0.46"
   version="1.0"
   sodipodi:docbase="/home/hbons/Desktop/Gaim Refresh/emotes/scalable"
   sodipodi:docname="handcuffs.svg"
   inkscape:export-filename="/home/hbons/Bureaublad/Projecten/Pidgin objecten voor 2.5.0/bitmaps/handcuffs.png"
   inkscape:export-xdpi="90"
   inkscape:export-ydpi="90"
   inkscape:output_extension="org.inkscape.output.svg.inkscape">
  <defs
     id="defs4">
    <linearGradient
       inkscape:collect="always"
       id="linearGradient3167">
      <stop
         style="stop-color:#888a85;stop-opacity:1;"
         offset="0"
         id="stop3169" />
      <stop
         style="stop-color:#555753;stop-opacity:1"
         offset="1"
         id="stop3171" />
    </linearGradient>
    <filter
       inkscape:collect="always"
       id="filter3266"
       x="-0.088365651"
       width="1.1767313"
       y="-0.55964912"
       height="2.1192982">
      <feGaussianBlur
         inkscape:collect="always"
         stdDeviation="0.6995614"
         id="feGaussianBlur3268" />
    </filter>
    <linearGradient
       inkscape:collect="always"
       xlink:href="#linearGradient3167"
       id="linearGradient3272"
       gradientUnits="userSpaceOnUse"
       x1="6.0035257"
       y1="12.458799"
       x2="10.705997"
       y2="20.542484"
       gradientTransform="matrix(0.8660254,-0.5,0.5,0.8660254,2.2678327,0.9103648)" />
    <linearGradient
       inkscape:collect="always"
       xlink:href="#linearGradient3167"
       id="linearGradient3282"
       gradientUnits="userSpaceOnUse"
       x1="6.0035257"
       y1="12.458799"
       x2="10.705997"
       y2="20.542484"
       gradientTransform="translate(-2.6743333e-8,-0.9264704)" />
  </defs>
  <sodipodi:namedview
     id="base"
     pagecolor="#ffffff"
     bordercolor="#666666"
     borderopacity="1.0"
     inkscape:pageopacity="0.0"
     inkscape:pageshadow="2"
     inkscape:zoom="25.730843"
     inkscape:cx="17.452935"
     inkscape:cy="12.007302"
     inkscape:document-units="px"
     inkscape:current-layer="layer1"
     showgrid="true"
     fill="#555753"
     inkscape:window-width="1440"
     inkscape:window-height="848"
     inkscape:window-x="0"
     inkscape:window-y="0"
     showguides="true"
     inkscape:guide-bbox="true"
     inkscape:snap-bbox="true"
     inkscape:snap-nodes="false"
     objecttolerance="10"
     gridtolerance="10">
    <inkscape:grid
       type="xygrid"
       id="grid2392"
       visible="true"
       enabled="true" />
  </sodipodi:namedview>
  <metadata
     id="metadata7">
    <rdf:RDF>
      <cc:Work
         rdf:about="">
        <dc:format>image/svg+xml</dc:format>
        <dc:type
           rdf:resource="http://purl.org/dc/dcmitype/StillImage" />
      </cc:Work>
    </rdf:RDF>
  </metadata>
  <g
     inkscape:label="Layer 1"
     inkscape:groupmode="layer"
     id="layer1">
    <path
       sodipodi:type="arc"
       style="opacity:1;fill:none;fill-opacity:1;fill-rule:nonzero;stroke:#555753;stroke-width:1.05544101999999995;stroke-linecap:square;stroke-linejoin:miter;marker:none;marker-start:none;marker-mid:none;marker-end:none;stroke-miterlimit:4;stroke-dasharray:none;stroke-dashoffset:0;stroke-opacity:1;visibility:visible;display:inline;overflow:visible;enable-background:accumulate"
       id="path3284"
       sodipodi:cx="11.153929"
       sodipodi:cy="6.8221717"
       sodipodi:rx="3.4200201"
       sodipodi:ry="3.4200201"
       d="M 7.8254853,7.6083026 A 3.4200201,3.4200201 0 0 1 13.654941,4.4894749"
       transform="matrix(0.8771878,0,0,1.0233858,0.71591,-0.9817137)"
       sodipodi:start="2.9096573"
       sodipodi:end="5.5325943"
       sodipodi:open="true" />
    <path
       style="opacity:0.25892857;fill:#2e3436;fill-opacity:1;fill-rule:nonzero;stroke:none;stroke-width:1;stroke-linecap:square;stroke-linejoin:miter;marker:none;marker-start:none;marker-mid:none;marker-end:none;stroke-miterlimit:4;stroke-dasharray:none;stroke-dashoffset:0;stroke-opacity:1;visibility:visible;display:inline;overflow:visible;filter:url(#filter3266);enable-background:accumulate"
       d="M 8.5 17 C 6.0159999 17 4 18.12 4 19.5 C 4 20.879999 6.016 21.999998 8.5 22 C 10.20775 22 11.675181 21.466792 12.4375 20.6875 C 14.028661 21.463399 16.796782 21.999999 18.5 22 C 20.984 22.000001 23 20.879998 23 19.5 C 23 18.119999 20.984 17 18.5 17 C 16.796782 17 14.028661 17.536601 12.4375 18.3125 C 11.675181 17.533208 10.20775 17 8.5 17 z M 17.5 18 C 18.88 18 20 18.448 20 19 C 20 19.552001 18.88 20 17.5 20 C 16.12 20.000001 15 19.552 15 19 C 15 18.448 16.12 18 17.5 18 z "
       id="path3209" />
    <path
       style="fill:#d3d7cf;fill-opacity:1;fill-rule:evenodd;stroke:url(#linearGradient3272);stroke-width:0.99999982;stroke-miterlimit:4;stroke-dasharray:none;stroke-opacity:1"
       d="M 11.282313,4.3989034 C 10.266945,5.4142722 10.449257,6.044195 11.040262,7.0678462 C 11.040262,7.0678462 11.537029,7.623507 11.122559,8.2472011 C 10.082649,10.458552 10.575309,13.276824 12.350064,14.935801 C 14.209008,16.781016 17.364398,17.115998 19.605651,15.690348 C 21.890656,14.34602 23.043587,11.386043 22.249921,8.8953567 C 21.613436,6.6559739 19.482556,4.974552 17.146236,4.8055144 C 16.376956,4.7670664 16.226753,4.1095084 16.226753,4.1095084 C 15.493009,2.8386253 14.592781,2.4876041 13.528567,3.1020284 C 12.780215,3.5340896 12.030664,3.9668432 11.282313,4.3989034 z M 15.028648,8.0127456 C 16.462786,7.1847455 18.303576,7.6850876 19.126724,9.1108218 C 19.949872,10.536556 19.447161,12.353835 18.013023,13.181835 C 16.578885,14.009835 14.75372,13.536556 13.930572,12.110822 C 13.107424,10.685088 13.59451,8.8407456 15.028648,8.0127456 z"
       id="path3194"
       sodipodi:nodetypes="cccccccccccsssc" />
    <path
       style="opacity:0.77678576;fill:none;fill-opacity:1;fill-rule:evenodd;stroke:#ffffff;stroke-width:0.99999982;stroke-miterlimit:4;stroke-opacity:1"
       d="M 11.930491,5.1465807 C 11.615395,5.4812787 11.546516,5.6451059 11.545476,5.7297136 C 11.544331,5.8227822 11.614604,6.0994476 11.890347,6.5770492 C 11.963809,6.6715923 12.074031,6.8145355 12.175784,7.13394 C 12.295631,7.51014 12.236944,8.0998517 11.957635,8.6310952 L 12.015949,8.6695968 C 11.161611,10.486331 11.582069,12.878106 13.021338,14.223482 C 13.026691,14.232418 13.0319,14.241441 13.036963,14.250545 C 14.547487,15.749913 17.259566,16.034021 19.094213,14.86701 C 19.10315,14.861657 19.112172,14.856448 19.121276,14.851385 C 20.992155,13.750698 21.972063,11.193835 21.328647,9.1746637 C 21.323294,9.1657271 21.318085,9.1567049 21.313022,9.1476004 C 20.797481,7.333744 19.008612,5.9134259 17.09241,5.7747851 C 16.432662,5.7418111 15.885937,5.3822585 15.620074,5.0371251 C 15.456646,4.8249699 15.445101,4.731254 15.397137,4.5884875 C 15.098117,4.0705697 14.820355,3.8781144 14.665006,3.8203988 C 14.509657,3.7626831 14.375002,3.7352417 14.014365,3.9434557 C 13.320111,4.3442838 12.624893,4.7456676 11.930491,5.1465807 z"
       id="path3196"
       sodipodi:nodetypes="csssccsssssscscssc" />
    <rect
       style="fill:#888a85;fill-opacity:1;fill-rule:evenodd;stroke:none;stroke-width:1;stroke-miterlimit:4;stroke-dasharray:none;stroke-opacity:1"
       id="rect3198"
       width="2"
       height="1"
       x="3.5088184"
       y="16.922316"
       transform="matrix(0.8660254,-0.5,0.5,0.8660254,0,0)" />
    <rect
       style="opacity:0.77678576;fill:#888a85;fill-opacity:1;fill-rule:nonzero;stroke:none;stroke-width:1;stroke-linecap:square;stroke-linejoin:miter;marker:none;marker-start:none;marker-mid:none;marker-end:none;stroke-miterlimit:4;stroke-dasharray:none;stroke-dashoffset:0;stroke-opacity:1;visibility:visible;display:inline;overflow:visible;enable-background:accumulate"
       id="rect3200"
       width="3.0164168"
       height="1"
       x="7.5088181"
       y="10.922316"
       rx="0.5"
       ry="0.5"
       transform="matrix(0.8660254,-0.5,0.5,0.8660254,0,0)" />
    <path
       style="fill:#d3d7cf;fill-opacity:1;fill-rule:evenodd;stroke:url(#linearGradient3282);stroke-width:0.99999982;stroke-miterlimit:4;stroke-dasharray:none;stroke-opacity:1"
       d="M 6.0625,6.601933 C 4.6754804,6.9735838 4.5184059,7.610269 4.5184059,8.7922796 C 4.5184059,8.7922796 4.6707886,9.5218796 4,9.8547796 C 1.9937363,11.249911 1.0112556,13.936936 1.71875,16.26103 C 2.4060359,18.788505 4.9711925,20.656303 7.625,20.54228 C 10.276036,20.52056 12.754492,18.533611 13.3125,15.97978 C 13.880979,13.722175 12.876294,11.200581 10.9375,9.8860296 C 10.290508,9.4680926 10.489208,8.8235296 10.489208,8.8235296 C 10.489208,7.3560401 9.8850985,6.601933 8.65625,6.601933 C 7.7921277,6.6019331 6.9266203,6.601933 6.0625,6.601933 z M 7.5,11.60478 C 9.1560001,11.60478 10.5,12.958484 10.5,14.60478 C 10.5,16.251076 9.156,17.57353 7.5,17.57353 C 5.8440001,17.57353 4.5,16.251076 4.5,14.60478 C 4.5000001,12.958484 5.844,11.60478 7.5,11.60478 z"
       id="path3533"
       sodipodi:nodetypes="cccccccccccsssc" />
    <path
       style="opacity:0.77678576;fill:none;fill-opacity:1;fill-rule:evenodd;stroke:#ffffff;stroke-width:0.99999982;stroke-miterlimit:4;stroke-opacity:1"
       d="M 6.25,7.5735296 C 5.8097698,7.7058385 5.6682047,7.8132772 5.625,7.8860296 C 5.5774748,7.9660572 5.5,8.2407928 5.5,8.7922796 C 5.5163481,8.9108872 5.5403314,9.0897906 5.46875,9.4172796 C 5.3844402,9.8030016 5.0387602,10.284364 4.53125,10.60478 L 4.5625,10.66728 C 2.9142552,11.813449 2.0824951,14.095016 2.65625,15.97978 C 2.6564175,15.990196 2.6564175,16.000614 2.65625,16.01103 C 3.2147186,18.064783 5.4213942,19.666867 7.59375,19.57353 C 7.604166,19.573362 7.614584,19.573362 7.625,19.57353 C 9.795572,19.555746 11.922629,17.831392 12.375,15.76103 C 12.374832,15.750614 12.374832,15.740196 12.375,15.72978 C 12.835457,13.901164 11.99641,11.776698 10.40625,10.69853 C 9.851379,10.3401 9.5576778,9.7553556 9.5,9.3235296 C 9.4645451,9.0580839 9.5014043,8.9711508 9.53125,8.8235296 C 9.53125,8.2254897 9.3869283,7.9199373 9.28125,7.7922796 C 9.1755717,7.6646219 9.072678,7.5735296 8.65625,7.5735296 C 7.8545941,7.5735298 7.0518262,7.5735296 6.25,7.5735296 z"
       id="path3179"
       sodipodi:nodetypes="csssccsssssscscssc" />
    <rect
       style="fill:#888a85;fill-opacity:1;fill-rule:evenodd;stroke:none;stroke-width:1;stroke-miterlimit:4;stroke-dasharray:none;stroke-opacity:1"
       id="rect3545"
       width="2"
       height="1"
       x="2"
       y="14.073529" />
    <rect
       style="opacity:0.77678576;fill:#888a85;fill-opacity:1;fill-rule:nonzero;stroke:none;stroke-width:1;stroke-linecap:square;stroke-linejoin:miter;marker:none;marker-start:none;marker-mid:none;marker-end:none;stroke-miterlimit:4;stroke-dasharray:none;stroke-dashoffset:0;stroke-opacity:1;visibility:visible;display:inline;overflow:visible;enable-background:accumulate"
       id="rect3184"
       width="3.0164168"
       height="1"
       x="6"
       y="8.0735292"
       rx="0.5"
       ry="0.5" />
  </g>
</svg>
