<?xml version="1.0" encoding="UTF-8" standalone="no"?>
<!-- Created with Inkscape (http://www.inkscape.org/) -->
<svg
   xmlns:dc="http://purl.org/dc/elements/1.1/"
   xmlns:cc="http://web.resource.org/cc/"
   xmlns:rdf="http://www.w3.org/1999/02/22-rdf-syntax-ns#"
   xmlns:svg="http://www.w3.org/2000/svg"
   xmlns="http://www.w3.org/2000/svg"
   xmlns:xlink="http://www.w3.org/1999/xlink"
   xmlns:sodipodi="http://sodipodi.sourceforge.net/DTD/sodipodi-0.dtd"
   xmlns:inkscape="http://www.inkscape.org/namespaces/inkscape"
   width="24"
   height="24"
   id="svg2"
   sodipodi:version="0.32"
   inkscape:version="0.45.1"
   version="1.0"
   sodipodi:docbase="/home/hbons/Desktop/untitled folder 1"
   sodipodi:docname="new-style-in-love.svg"
   inkscape:export-filename="/home/hbons/Desktop/newstyle.png"
   inkscape:export-xdpi="90"
   inkscape:export-ydpi="90"
   inkscape:output_extension="org.inkscape.output.svg.inkscape">
  <defs
     id="defs4">
    <linearGradient
       inkscape:collect="always"
       id="linearGradient3104">
      <stop
         style="stop-color:#eeeeec;stop-opacity:1;"
         offset="0"
         id="stop3106" />
      <stop
         style="stop-color:#eeeeec;stop-opacity:0;"
         offset="1"
         id="stop3108" />
    </linearGradient>
    <radialGradient
       inkscape:collect="always"
       xlink:href="#linearGradient3104"
       id="radialGradient3114"
       cx="8.3343515"
       cy="14.186539"
       fx="8.3343515"
       fy="14.186539"
       r="9.975256"
       gradientUnits="userSpaceOnUse"
       gradientTransform="matrix(-0.9327,0.932656,-0.947494,-0.947449,33.02126,11.96667)" />
    <filter
       inkscape:collect="always"
       x="-0.27879594"
       width="1.5575919"
       y="-0.78248726"
       height="2.5649745"
       id="filter3405">
      <feGaussianBlur
         inkscape:collect="always"
         stdDeviation="1.5438116"
         id="feGaussianBlur3407" />
    </filter>
    <linearGradient
       y2="10.845449"
       x2="11.5"
       y1="6.4401813"
       x1="11.5"
       gradientUnits="userSpaceOnUse"
       id="linearGradient2874"
       xlink:href="#linearGradient2221"
       inkscape:collect="always" />
    <radialGradient
       gradientUnits="userSpaceOnUse"
       gradientTransform="matrix(-0.842757,0,0,-0.35721,19.80716,14.19321)"
       r="6.6449099"
       fy="10.457643"
       fx="10.748654"
       cy="10.457643"
       cx="10.748654"
       id="radialGradient3156"
       xlink:href="#linearGradient3150"
       inkscape:collect="always" />
    <radialGradient
       gradientTransform="matrix(-0.9327,0.932656,-0.947494,-0.947449,33.02126,11.96667)"
       gradientUnits="userSpaceOnUse"
       r="9.975256"
       fy="14.186539"
       fx="8.3343515"
       cy="14.186539"
       cx="8.3343515"
       id="radialGradient2214"
       xlink:href="#linearGradient3104"
       inkscape:collect="always" />
    <linearGradient
       id="linearGradient3150"
       inkscape:collect="always">
      <stop
         id="stop3152"
         offset="0"
         style="stop-color:#2e3436;stop-opacity:1;" />
      <stop
         id="stop3154"
         offset="1"
         style="stop-color:#2e3436;stop-opacity:0;" />
    </linearGradient>
    <linearGradient
       gradientUnits="userSpaceOnUse"
       y2="10.845449"
       x2="11.5"
       y1="6.4401813"
       x1="11.5"
       id="linearGradient2227"
       xlink:href="#linearGradient2221"
       inkscape:collect="always" />
    <linearGradient
       id="linearGradient2221"
       inkscape:collect="always">
      <stop
         id="stop2223"
         offset="0"
         style="stop-color:#ffffff;stop-opacity:1;" />
      <stop
         id="stop2225"
         offset="1"
         style="stop-color:#ffffff;stop-opacity:0;" />
    </linearGradient>
    <radialGradient
       inkscape:collect="always"
       xlink:href="#linearGradient3104"
       id="radialGradient2234"
       gradientUnits="userSpaceOnUse"
       gradientTransform="matrix(-0.9327,0.932656,-0.947494,-0.947449,33.02126,11.96667)"
       cx="8.3343515"
       cy="14.186539"
       fx="8.3343515"
       fy="14.186539"
       r="9.975256" />
    <radialGradient
       inkscape:collect="always"
       xlink:href="#linearGradient3150"
       id="radialGradient2282"
       gradientUnits="userSpaceOnUse"
       gradientTransform="matrix(-0.842757,0,0,-0.35721,19.80716,14.19321)"
       cx="10.748654"
       cy="10.457643"
       fx="10.748654"
       fy="10.457643"
       r="6.6449099" />
    <radialGradient
       inkscape:collect="always"
       xlink:href="#linearGradient3104"
       id="radialGradient2284"
       gradientUnits="userSpaceOnUse"
       gradientTransform="matrix(-0.9327,0.932656,-0.947494,-0.947449,33.02126,11.96667)"
       cx="8.3343515"
       cy="14.186539"
       fx="8.3343515"
       fy="14.186539"
       r="9.975256" />
  </defs>
  <sodipodi:namedview
     id="base"
     pagecolor="#ffffff"
     bordercolor="#666666"
     borderopacity="1.0"
     inkscape:pageopacity="0.0"
     inkscape:pageshadow="2"
     inkscape:zoom="22.4"
     inkscape:cx="26.111884"
     inkscape:cy="11.540302"
     inkscape:document-units="px"
     inkscape:current-layer="layer1"
     showgrid="true"
     fill="#fce94f"
     inkscape:window-width="1440"
     inkscape:window-height="845"
     inkscape:window-x="0"
     inkscape:window-y="0" />
  <metadata
     id="metadata7">
    <rdf:RDF>
      <cc:Work
         rdf:about="">
        <dc:format>image/svg+xml</dc:format>
        <dc:type
           rdf:resource="http://purl.org/dc/dcmitype/StillImage" />
      </cc:Work>
    </rdf:RDF>
  </metadata>
  <g
     inkscape:label="Layer 1"
     inkscape:groupmode="layer"
     id="layer1">
    <path
       sodipodi:type="arc"
       style="opacity:0.64044944;fill:#2e3436;fill-opacity:1;stroke:none;stroke-width:1;stroke-miterlimit:4;stroke-dasharray:none;stroke-opacity:1;filter:url(#filter3405)"
       id="path3140"
       sodipodi:cx="10.748654"
       sodipodi:cy="10.457643"
       sodipodi:rx="6.6449099"
       sodipodi:ry="2.3675451"
       d="M 17.393564 10.457643 A 6.6449099 2.3675451 0 1 1  4.1037445,10.457643 A 6.6449099 2.3675451 0 1 1  17.393564 10.457643 z"
       transform="matrix(1.2039291,0,0,1.055946,-0.9406174,8.4572942)" />
    <path
       sodipodi:type="arc"
       style="opacity:1;fill:#edd400;fill-opacity:1;stroke:#cc6400;stroke-width:1.05276573;stroke-miterlimit:4;stroke-dasharray:none;stroke-opacity:1"
       id="path1307"
       sodipodi:cx="11.806158"
       sodipodi:cy="10.983024"
       sodipodi:rx="9.975256"
       sodipodi:ry="9.975256"
       d="M 21.781414 10.983024 A 9.975256 9.975256 0 1 1  1.8309021,10.983024 A 9.975256 9.975256 0 1 1  21.781414 10.983024 z"
       transform="matrix(0.952236,0,0,0.952236,0.757713,1.541608)" />
    <path
       sodipodi:type="arc"
       style="opacity:0.79545455;fill:url(#radialGradient3114);fill-opacity:1.0;stroke:none;stroke-width:1.05274069;stroke-miterlimit:4;stroke-dasharray:none;stroke-opacity:1"
       id="path3102"
       sodipodi:cx="11.806158"
       sodipodi:cy="10.983024"
       sodipodi:rx="9.975256"
       sodipodi:ry="9.975256"
       d="M 21.781414 10.983024 A 9.975256 9.975256 0 1 1  1.8309021,10.983024 A 9.975256 9.975256 0 1 1  21.781414 10.983024 z"
       transform="matrix(0.8019,0,0,0.801938,2.532654,3.191833)" />
    <path
       sodipodi:type="arc"
       style="opacity:0.64044944;fill:none;fill-opacity:1.0;stroke:#ffffff;stroke-width:1.17343897;stroke-miterlimit:4;stroke-dasharray:none;stroke-opacity:1"
       id="path2184"
       sodipodi:cx="11.806158"
       sodipodi:cy="10.983024"
       sodipodi:rx="9.975256"
       sodipodi:ry="9.975256"
       d="M 21.781414 10.983024 A 9.975256 9.975256 0 1 1  1.8309021,10.983024 A 9.975256 9.975256 0 1 1  21.781414 10.983024 z"
       transform="matrix(0.852176,0,0,0.852216,1.93909,2.639626)" />
    <path
       sodipodi:type="arc"
       style="opacity:1;fill:#2e3436;fill-opacity:1;stroke:none;stroke-width:0.98640186;stroke-miterlimit:4;stroke-dasharray:none;stroke-opacity:1"
       id="path2172"
       sodipodi:cx="9.7069349"
       sodipodi:cy="9.6526775"
       sodipodi:rx="1.0259361"
       sodipodi:ry="1.9413869"
       d="M 10.732871 9.6526775 A 1.0259361 1.9413869 0 1 1  8.6809988,9.6526775 A 1.0259361 1.9413869 0 1 1  10.732871 9.6526775 z"
       transform="matrix(0.9747196,0,0,0.7726436,-0.4615404,3.0419201)" />
    <path
       sodipodi:type="arc"
       style="opacity:1;fill:#2e3436;fill-opacity:1;stroke:none;stroke-width:0.98640186;stroke-miterlimit:4;stroke-dasharray:none;stroke-opacity:1"
       id="path3148"
       sodipodi:cx="9.7069349"
       sodipodi:cy="9.6526775"
       sodipodi:rx="1.0259361"
       sodipodi:ry="1.9413869"
       d="M 10.732871 9.6526775 A 1.0259361 1.9413869 0 1 1  8.6809988,9.6526775 A 1.0259361 1.9413869 0 1 1  10.732871 9.6526775 z"
       transform="matrix(0.9747195,0,0,0.7726435,5.5024934,3.0377768)" />
    <path
       style="opacity:1;fill:#ce5c00;fill-opacity:1;stroke:none;stroke-width:1;stroke-miterlimit:4;stroke-dasharray:none;stroke-opacity:1"
       d="M 17,14 C 16.413519,16.283765 14.403819,18 12,18 C 9.5961819,18 7.5864809,16.283765 6.9999999,14 C 8.0537469,15.478811 9.9044429,17.044402 12,17.044402 C 14.095556,17.044403 15.946253,15.478811 17,14 z "
       id="path2186"
       sodipodi:nodetypes="cscsc" />
    <path
       sodipodi:type="arc"
       style="opacity:0.64044949;fill:none;fill-opacity:1;stroke:#f57900;stroke-width:0.73675901;stroke-miterlimit:4;stroke-dasharray:none;stroke-opacity:1"
       id="path3413"
       sodipodi:cx="8.3258924"
       sodipodi:cy="9.2232141"
       sodipodi:rx="1.2276785"
       sodipodi:ry="1.7410715"
       d="M 7.2133909,8.4869402 A 1.2276785,1.7410715 0 0 1 9.288462,8.1425499"
       transform="matrix(1.8690368,0.3494647,-0.353133,0.9196421,3.0149256,-5.2342213)"
       sodipodi:start="3.5782199"
       sodipodi:end="5.6135639"
       sodipodi:open="true" />
    <path
       sodipodi:type="arc"
       style="opacity:0.64044949;fill:none;fill-opacity:1;stroke:#f57900;stroke-width:0.73675901;stroke-miterlimit:4;stroke-dasharray:none;stroke-opacity:1"
       id="path3415"
       sodipodi:cx="8.3258924"
       sodipodi:cy="9.2232141"
       sodipodi:rx="1.2276785"
       sodipodi:ry="1.7410715"
       d="M 7.2133909,8.4869402 A 1.2276785,1.7410715 0 0 1 9.288462,8.1425499"
       transform="matrix(-1.8690368,0.3494647,0.353133,0.9196421,20.985074,-5.2342213)"
       sodipodi:start="3.5782199"
       sodipodi:end="5.6135639"
       sodipodi:open="true" />
    <path
       style="fill:#ef2929;fill-opacity:1;stroke:#a40000;stroke-width:1.00000024;stroke-miterlimit:4;stroke-dasharray:none;stroke-opacity:1"
       d="M 5.1246251,6.5058492 C 4.2163561,6.5838187 3.5000001,7.4459 3.5000001,8.4894209 C 3.5000001,10.879 6.1979991,12.575324 7.0179851,13.5 C 7.7920281,12.627132 10.535968,10.903267 10.535968,8.4894209 C 10.535968,7.3944567 9.7479701,6.5058492 8.7769761,6.5058492 C 7.6813171,6.5058492 7.3989021,7.4020877 7.0179851,8.1460929 C 6.6532171,7.4336325 6.3557971,6.5058492 5.2589931,6.5058492 C 5.2134571,6.5058492 5.1692931,6.5020147 5.1246251,6.5058492 z "
       id="path2870"
       sodipodi:nodetypes="cscsscsc" />
    <path
       sodipodi:type="inkscape:offset"
       inkscape:radius="-1.0245959"
       inkscape:original="M 5.125 6.5 C 4.2167309 6.5779693 3.5 7.4564791 3.5 8.5 C 3.5000001 10.889579 6.211264 12.575324 7.03125 13.5 C 7.8052932 12.627132 10.53125 10.913846 10.53125 8.5 C 10.53125 7.4050358 9.752244 6.5 8.78125 6.5 C 7.6855915 6.4999998 7.412167 7.4122448 7.03125 8.15625 C 6.6664822 7.4437891 6.346804 6.5 5.25 6.5 C 5.204464 6.4999998 5.169668 6.4961655 5.125 6.5 z "
       xlink:href="#path2870"
       style="opacity:0.35;fill:none;fill-opacity:1;stroke:#ffffff;stroke-width:1.00000024;stroke-miterlimit:4;stroke-dasharray:none;stroke-opacity:1"
       id="path2876"
       inkscape:href="#path2870"
       d="M 6.21875,7.53125 C 5.9181632,7.5570536 5.53125,7.925634 5.53125,8.5 C 5.53125,9.3072805 6.0199311,10.095314 6.71875,10.84375 C 7.159457,11.315748 7.5869584,11.698395 8.03125,12.09375 C 8.4631563,11.710678 8.8774001,11.344157 9.3125,10.875 C 10.008796,10.124203 10.5,9.3212308 10.5,8.5 C 10.5,7.8909978 10.11558,7.53125 9.78125,7.53125 C 9.5177801,7.53125 9.5583275,7.5341239 9.4375,7.6875 C 9.3166725,7.8408761 9.1600526,8.1903114 8.9375,8.625 C 8.7601263,8.9611147 8.4112955,9.1714541 8.03125,9.1714541 C 7.6512045,9.1714541 7.3023737,8.9611147 7.125,8.625 C 6.914311,8.2134849 6.7569833,7.8820883 6.625,7.71875 C 6.4930167,7.5554117 6.5045171,7.53125 6.25,7.53125 C 6.1469472,7.5312498 6.160247,7.5362722 6.21875,7.53125 z "
       transform="translate(-1.1920929e-7,-3.1249881e-2)" />
    <path
       style="fill:#ef2929;fill-opacity:1;stroke:#a40000;stroke-width:1.00000024;stroke-miterlimit:4;stroke-dasharray:none;stroke-opacity:1"
       d="M 15.088657,6.5017043 C 14.180388,6.5796738 13.464033,7.4417551 13.464033,8.485276 C 13.464033,10.874855 16.162031,12.571179 16.982017,13.495855 C 17.75606,12.622987 20.5,10.899121 20.5,8.485276 C 20.5,7.3903118 19.712002,6.5017043 18.741009,6.5017043 C 17.645349,6.5017043 17.362934,7.3979428 16.982017,8.141948 C 16.617249,7.4294876 16.319829,6.5017043 15.223025,6.5017043 C 15.177489,6.5017043 15.133326,6.4978698 15.088657,6.5017043 z "
       id="path2878"
       sodipodi:nodetypes="cscsscsc" />
    <path
       sodipodi:type="inkscape:offset"
       inkscape:radius="-1.0245959"
       inkscape:original="M 5.125 6.5 C 4.2167309 6.5779693 3.5 7.4564791 3.5 8.5 C 3.5000001 10.889579 6.211264 12.575324 7.03125 13.5 C 7.8052932 12.627132 10.53125 10.913846 10.53125 8.5 C 10.53125 7.4050358 9.752244 6.5 8.78125 6.5 C 7.6855915 6.4999998 7.412167 7.4122448 7.03125 8.15625 C 6.6664822 7.4437891 6.346804 6.5 5.25 6.5 C 5.204464 6.4999998 5.169668 6.4961655 5.125 6.5 z "
       xlink:href="#path2870"
       style="opacity:0.35;fill:none;fill-opacity:1;stroke:#ffffff;stroke-width:1.00000024;stroke-miterlimit:4;stroke-dasharray:none;stroke-opacity:1"
       id="path2880"
       inkscape:href="#path2870"
       d="M 5.21875,7.53125 C 4.9181635,7.5570535 4.53125,7.9256341 4.53125,8.5 C 4.53125,9.3072806 5.0199311,10.095314 5.71875,10.84375 C 6.159457,11.315748 6.5869584,11.698395 7.03125,12.09375 C 7.4631563,11.710678 7.8774001,11.344157 8.3125,10.875 C 9.0087956,10.124203 9.5,9.3212309 9.5,8.5 C 9.5,7.8909977 9.1155796,7.53125 8.78125,7.53125 C 8.5177802,7.53125 8.5583276,7.5341239 8.4375,7.6875 C 8.3166724,7.8408761 8.1600526,8.1903114 7.9375,8.625 C 7.7601263,8.9611147 7.4112955,9.1714541 7.03125,9.1714541 C 6.6512045,9.1714541 6.3023737,8.9611147 6.125,8.625 C 5.9143115,8.2134852 5.7569833,7.8820882 5.625,7.71875 C 5.4930167,7.5554118 5.5045171,7.53125 5.25,7.53125 C 5.1469498,7.5312495 5.1602484,7.536272 5.21875,7.53125 z "
       transform="translate(9.9640328,-3.539454e-2)" />
  </g>
</svg>
