<?xml version="1.0" encoding="UTF-8" standalone="no"?>
<!-- Created with Inkscape (http://www.inkscape.org/) -->
<svg
   xmlns:dc="http://purl.org/dc/elements/1.1/"
   xmlns:cc="http://creativecommons.org/ns#"
   xmlns:rdf="http://www.w3.org/1999/02/22-rdf-syntax-ns#"
   xmlns:svg="http://www.w3.org/2000/svg"
   xmlns="http://www.w3.org/2000/svg"
   xmlns:xlink="http://www.w3.org/1999/xlink"
   xmlns:sodipodi="http://sodipodi.sourceforge.net/DTD/sodipodi-0.dtd"
   xmlns:inkscape="http://www.inkscape.org/namespaces/inkscape"
   width="24"
   height="24"
   id="svg2"
   sodipodi:version="0.32"
   inkscape:version="0.46"
   version="1.0"
   sodipodi:docbase="/home/hbons/Desktop/Gaim Refresh/emotes"
   sodipodi:docname="island.svg"
   inkscape:export-filename="/home/hbons/Bureaublad/Projecten/Pidgin objecten voor 2.5.0/bitmaps/island.png"
   inkscape:export-xdpi="90"
   inkscape:export-ydpi="90"
   inkscape:output_extension="org.inkscape.output.svg.inkscape">
  <defs
     id="defs4">
    <linearGradient
       inkscape:collect="always"
       id="linearGradient3264">
      <stop
         style="stop-color:#ffffff;stop-opacity:1;"
         offset="0"
         id="stop3266" />
      <stop
         style="stop-color:#ffffff;stop-opacity:0;"
         offset="1"
         id="stop3268" />
    </linearGradient>
    <linearGradient
       inkscape:collect="always"
       id="linearGradient3247">
      <stop
         style="stop-color:#8ae234;stop-opacity:1;"
         offset="0"
         id="stop3249" />
      <stop
         style="stop-color:#d2f5b1;stop-opacity:1"
         offset="1"
         id="stop3251" />
    </linearGradient>
    <linearGradient
       inkscape:collect="always"
       id="linearGradient3231">
      <stop
         style="stop-color:#3465a4;stop-opacity:1;"
         offset="0"
         id="stop3233" />
      <stop
         style="stop-color:#3465a4;stop-opacity:0;"
         offset="1"
         id="stop3235" />
    </linearGradient>
    <linearGradient
       inkscape:collect="always"
       id="linearGradient3203">
      <stop
         style="stop-color:#c4a000;stop-opacity:1;"
         offset="0"
         id="stop3205" />
      <stop
         style="stop-color:#6c5800;stop-opacity:1"
         offset="1"
         id="stop3207" />
    </linearGradient>
    <linearGradient
       inkscape:collect="always"
       id="linearGradient3195">
      <stop
         style="stop-color:#2a5600;stop-opacity:1"
         offset="0"
         id="stop3197" />
      <stop
         style="stop-color:#52a506;stop-opacity:1"
         offset="1"
         id="stop3199" />
    </linearGradient>
    <linearGradient
       inkscape:collect="always"
       id="linearGradient3178">
      <stop
         style="stop-color:#8f5902;stop-opacity:1;"
         offset="0"
         id="stop3180" />
      <stop
         style="stop-color:#6a4000;stop-opacity:1"
         offset="1"
         id="stop3182" />
    </linearGradient>
    <linearGradient
       inkscape:collect="always"
       id="linearGradient2301">
      <stop
         style="stop-color:#ffffff;stop-opacity:1;"
         offset="0"
         id="stop2303" />
      <stop
         style="stop-color:#ffffff;stop-opacity:0;"
         offset="1"
         id="stop2305" />
    </linearGradient>
    <linearGradient
       inkscape:collect="always"
       xlink:href="#linearGradient2301"
       id="linearGradient2307"
       x1="11.499829"
       y1="19.777285"
       x2="11.499829"
       y2="8.5841618"
       gradientUnits="userSpaceOnUse"
       gradientTransform="matrix(0.983129,0,0,1.190736,1.169261,-0.960665)" />
    <linearGradient
       inkscape:collect="always"
       xlink:href="#linearGradient3178"
       id="linearGradient3184"
       x1="11.506454"
       y1="13.989438"
       x2="13.412972"
       y2="14.254603"
       gradientUnits="userSpaceOnUse" />
    <linearGradient
       inkscape:collect="always"
       xlink:href="#linearGradient3195"
       id="linearGradient3201"
       x1="13.677937"
       y1="9.357728"
       x2="11.895513"
       y2="2.7056327"
       gradientUnits="userSpaceOnUse" />
    <linearGradient
       inkscape:collect="always"
       xlink:href="#linearGradient3203"
       id="linearGradient3209"
       x1="14.169753"
       y1="18.238247"
       x2="14.169753"
       y2="21.378527"
       gradientUnits="userSpaceOnUse" />
    <radialGradient
       inkscape:collect="always"
       xlink:href="#linearGradient3231"
       id="radialGradient3237"
       cx="12"
       cy="20.617079"
       fx="12"
       fy="20.617079"
       r="11"
       gradientTransform="matrix(1.2148168,-9.3950566e-8,5.5923214e-8,0.7231086,-2.5778037,6.0916145)"
       gradientUnits="userSpaceOnUse" />
    <linearGradient
       inkscape:collect="always"
       xlink:href="#linearGradient3247"
       id="linearGradient3253"
       x1="12.583129"
       y1="7.1096616"
       x2="12.583129"
       y2="3.7067101"
       gradientUnits="userSpaceOnUse" />
    <linearGradient
       inkscape:collect="always"
       xlink:href="#linearGradient3264"
       id="linearGradient3270"
       x1="4.5245876"
       y1="14.478331"
       x2="22.349874"
       y2="21"
       gradientUnits="userSpaceOnUse" />
  </defs>
  <sodipodi:namedview
     id="base"
     pagecolor="#ffffff"
     bordercolor="#666666"
     borderopacity="1.0"
     inkscape:pageopacity="0.0"
     inkscape:pageshadow="2"
     inkscape:zoom="16"
     inkscape:cx="21.572025"
     inkscape:cy="15.445801"
     inkscape:document-units="px"
     inkscape:current-layer="layer1"
     showgrid="true"
     fill="#eeeeec"
     inkscape:window-width="1440"
     inkscape:window-height="848"
     inkscape:window-x="0"
     inkscape:window-y="0"
     inkscape:snap-bbox="true"
     inkscape:snap-nodes="false"
     objecttolerance="10"
     gridtolerance="10">
    <inkscape:grid
       type="xygrid"
       id="grid2406"
       visible="true"
       enabled="true" />
  </sodipodi:namedview>
  <metadata
     id="metadata7">
    <rdf:RDF>
      <cc:Work
         rdf:about="">
        <dc:format>image/svg+xml</dc:format>
        <dc:type
           rdf:resource="http://purl.org/dc/dcmitype/StillImage" />
      </cc:Work>
    </rdf:RDF>
  </metadata>
  <g
     inkscape:label="Layer 1"
     inkscape:groupmode="layer"
     id="layer1">
    <path
       style="fill:#edd400;fill-opacity:1;stroke:url(#linearGradient3209);stroke-width:0.99999970000000005;stroke-miterlimit:4;stroke-opacity:1"
       d="M 20.44992,21.5 C 16.649133,21.5 7.6355175,21.5 4.4499425,21.5 C 4.4499425,18.188002 7.6731459,16.779935 12.449931,15.499999 C 20.151653,15.499999 20.44992,18.188002 20.44992,21.5 z"
       id="path2255"
       sodipodi:nodetypes="cccc" />
    <path
       sodipodi:type="inkscape:offset"
       inkscape:radius="-0.99542791"
       inkscape:original="M 12.4375 15.5 C 7.6607149 16.779936 4.4374999 18.188002 4.4375 21.5 C 7.623075 21.5 16.636712 21.5 20.4375 21.5 C 20.4375 18.188002 20.139222 15.5 12.4375 15.5 z "
       style="fill:none;fill-opacity:1;stroke:url(#linearGradient3270);stroke-width:0.99999970000000005;stroke-miterlimit:4;stroke-opacity:1"
       id="path3260"
       d="M 12.5625,16.5 C 10.277898,17.118752 8.3855542,17.771705 7.1875,18.5625 C 6.3329393,19.126567 5.9235785,19.763124 5.6875,20.5 C 9.1340307,20.5 15.572928,20.5 19.375,20.5 C 19.315651,19.429413 19.155122,18.525237 18.59375,17.9375 C 17.867032,17.176653 16.184133,16.519459 12.5625,16.5 z" />
    <rect
       style="opacity:1;fill:url(#radialGradient3237);fill-opacity:1;fill-rule:nonzero;stroke:none;stroke-width:1;stroke-linecap:square;stroke-linejoin:miter;marker:none;marker-start:none;marker-mid:none;marker-end:none;stroke-miterlimit:4;stroke-dasharray:none;stroke-dashoffset:0;stroke-opacity:1;visibility:visible;display:inline;overflow:visible;enable-background:accumulate"
       id="rect3229"
       width="22"
       height="2"
       x="1"
       y="21"
       rx="1"
       ry="1" />
    <rect
       style="opacity:1;fill:#c17d11;fill-opacity:1;stroke:none;stroke-width:0.99999905;stroke-miterlimit:4;stroke-dasharray:none;stroke-opacity:1"
       id="rect2299"
       width="2.0007775"
       height="11.82298"
       x="11.449373"
       y="5.5874205"
       rx="0.89386761"
       ry="0.89386892" />
    <rect
       style="opacity:1;fill:url(#linearGradient2307);fill-opacity:1;stroke:url(#linearGradient3184);stroke-width:0.99999917000000005;stroke-miterlimit:4;stroke-dasharray:none;stroke-opacity:1"
       id="rect2260"
       width="1.9670224"
       height="11.905596"
       x="11.491565"
       y="5.5909152"
       rx="0.89386761"
       ry="0.89386904" />
    <path
       style="opacity:1;fill:url(#linearGradient3253);fill-opacity:1;stroke:url(#linearGradient3201);stroke-width:0.96518665999999997;stroke-miterlimit:4;stroke-dasharray:none;stroke-opacity:1"
       d="M 15.03125,1.46875 C 13.682902,1.4955869 12.340651,1.9052096 11.21875,2.65625 C 8.5350169,2.0988672 5.4994922,2.7678284 3.5625,4.78125 C 5.448226,3.7100523 7.7420629,3.4573393 9.84375,3.9375 C 6.1309451,5.8993977 3.0158477,7.2739777 3.3492695,11.837087 C 3.5393582,10.19609 6.390765,8.2124939 8.0138641,7.3683374 C 6.6562978,10.252178 5.8455485,13.575134 8.0570765,14.431275 C 7.1853365,13.63422 8.4919166,10.33438 9.4480947,9.3214231 C 10.424842,8.286676 11.545495,7.4927985 11.545495,7.4927985 C 11.545495,7.4927985 13.720971,7.5101844 13.720971,7.5101844 C 14.519571,9.4044479 17.091277,11.28629 15.618115,13.089299 C 15.092411,13.833841 16.176029,12.894398 16.379598,12.698748 C 17.563604,11.595259 17.610106,8.9335222 16.738298,7.345557 C 18.752171,7.7524737 20.378294,9.8447311 21.811041,11.498699 C 22.220235,8.3352399 19.260706,5.5615125 16.377514,4.0312083 C 15.847489,3.6447043 13.794312,3.7721176 13.574801,3.3414585 C 15.343756,2.3657273 17.53793,2.1733728 19.4375,2.875 C 18.170584,1.9507747 16.601569,1.4378117 15.03125,1.46875 z"
       id="path2262"
       sodipodi:nodetypes="ccccccczcccscccccc" />
    <path
       sodipodi:type="inkscape:offset"
       inkscape:radius="-0.95632279"
       inkscape:original="M 15.03125 1.46875 C 13.682902 1.4955869 12.340651 1.9052096 11.21875 2.65625 C 8.5350169 2.0988672 5.4994922 2.7678284 3.5625 4.78125 C 5.448226 3.7100523 7.7420629 3.4573393 9.84375 3.9375 C 6.1309451 5.8993977 3.0103282 7.2806407 3.34375 11.84375 C 3.5338388 10.202753 6.3769009 8.2191565 8 7.375 C 6.6424333 10.25884 5.850972 13.581359 8.0625 14.4375 C 7.19076 13.640445 8.4813219 10.325457 9.4375 9.3125 C 10.414248 8.2777525 11.53125 7.5 11.53125 7.5 C 11.53125 7.5000002 13.71875 7.5 13.71875 7.5 C 14.51735 9.3942636 17.098162 11.290741 15.625 13.09375 C 15.099296 13.838292 16.171431 12.88315 16.375 12.6875 C 17.559005 11.584011 17.621808 8.9317152 16.75 7.34375 C 18.763873 7.7506665 20.379753 9.8460321 21.8125 11.5 C 22.221694 8.3365407 19.258192 5.5615542 16.375 4.03125 C 15.844975 3.6447458 13.782011 3.7744091 13.5625 3.34375 C 15.331455 2.3680187 17.53793 2.1733728 19.4375 2.875 C 18.170584 1.9507747 16.601569 1.4378117 15.03125 1.46875 z "
       style="opacity:0.4;fill:none;fill-opacity:1;stroke:#ffffff;stroke-width:0.96518665999999997;stroke-miterlimit:4;stroke-dasharray:none;stroke-opacity:1"
       id="path3278"
       d="M 12.65625,3.03125 C 12.348876,3.1684333 12.027873,3.2514823 11.75,3.4375 C 11.540823,3.5833105 11.282083,3.6395585 11.03125,3.59375 C 10.939234,3.5746392 10.842885,3.6095632 10.75,3.59375 C 10.919465,4.0512021 10.717484,4.5628895 10.28125,4.78125 C 8.4089596,5.7705942 6.7919863,6.5878435 5.75,7.59375 C 5.653688,7.6867271 5.6190141,7.8108793 5.53125,7.90625 C 6.2361435,7.4003149 6.9773605,6.8355748 7.5625,6.53125 C 7.9256857,6.3401106 8.3703324,6.4019909 8.6675274,6.6850338 C 8.9647223,6.9680766 9.0482063,7.4091778 8.875,7.78125 C 8.6228508,8.3168833 8.5960167,8.7745176 8.40625,9.3125 C 8.5413787,9.1204152 8.5999381,8.8152227 8.75,8.65625 C 9.8123726,7.5307935 11,6.71875 11,6.71875 C 11.154242,6.6043302 11.339358,6.5389952 11.53125,6.53125 C 11.53125,6.53125 13.71875,6.53125 13.71875,6.53125 C 14.103255,6.5352752 14.447961,6.7691826 14.59375,7.125 C 14.887719,7.8222893 15.686607,8.7532874 16.3125,9.78125 C 16.290217,9.0659805 16.178026,8.3075289 15.90625,7.8125 C 15.721137,7.4850669 15.745132,7.0795339 15.967566,6.7762149 C 16.19,6.4728958 16.569567,6.3281162 16.9375,6.40625 C 17.978464,6.6165837 18.838643,7.1655243 19.625,7.8125 C 19.609315,7.7930237 19.609691,7.7694374 19.59375,7.75 C 18.652918,6.6027989 17.287506,5.5915391 15.9375,4.875 C 15.894365,4.8572428 15.852587,4.8363537 15.8125,4.8125 C 15.939189,4.904884 15.78191,4.7895578 15.5625,4.75 C 15.34309,4.7104422 15.059826,4.6916994 14.75,4.65625 C 14.440174,4.6208006 14.128116,4.573891 13.8125,4.5 C 13.496884,4.426109 13.057665,4.4461674 12.71875,3.78125 C 12.596297,3.5502965 12.573713,3.279286 12.65625,3.03125 z" />
  </g>
</svg>
