<?xml version="1.0" encoding="UTF-8" standalone="no"?>
<!-- Created with Inkscape (http://www.inkscape.org/) -->
<svg
   xmlns:dc="http://purl.org/dc/elements/1.1/"
   xmlns:cc="http://web.resource.org/cc/"
   xmlns:rdf="http://www.w3.org/1999/02/22-rdf-syntax-ns#"
   xmlns:svg="http://www.w3.org/2000/svg"
   xmlns="http://www.w3.org/2000/svg"
   xmlns:xlink="http://www.w3.org/1999/xlink"
   xmlns:sodipodi="http://inkscape.sourceforge.net/DTD/s odipodi-0.dtd"
   xmlns:inkscape="http://www.inkscape.org/namespaces/inkscape"
   width="24"
   height="24"
   id="svg2"
   sodipodi:version="0.32"
   inkscape:version="0.43"
   version="1.0"
   sodipodi:docbase="/home/hbons/Desktop/Gaim Refresh/emotes"
   sodipodi:docname="idea.svg"
   inkscape:export-filename="/home/hbons/Desktop/Gaim Refresh/emotes/idea.png"
   inkscape:export-xdpi="90"
   inkscape:export-ydpi="90">
  <defs
     id="defs4">
    <linearGradient
       inkscape:collect="always"
       id="linearGradient3150">
      <stop
         style="stop-color:#2e3436;stop-opacity:1;"
         offset="0"
         id="stop3152" />
      <stop
         style="stop-color:#2e3436;stop-opacity:0;"
         offset="1"
         id="stop3154" />
    </linearGradient>
    <radialGradient
       inkscape:collect="always"
       xlink:href="#linearGradient3150"
       id="radialGradient3156"
       cx="10.748654"
       cy="10.457643"
       fx="10.748654"
       fy="10.457643"
       r="6.6449099"
       gradientTransform="matrix(-0.842757,5.698892e-16,-4.565819e-9,-0.35721,19.80716,14.19321)"
       gradientUnits="userSpaceOnUse" />
    <linearGradient
       inkscape:collect="always"
       id="linearGradient2226">
      <stop
         style="stop-color:#729fcf;stop-opacity:1;"
         offset="0"
         id="stop2228" />
      <stop
         style="stop-color:#729fcf;stop-opacity:0;"
         offset="1"
         id="stop2230" />
    </linearGradient>
    <radialGradient
       inkscape:collect="always"
       xlink:href="#linearGradient2226"
       id="radialGradient2232"
       cx="6.8598728"
       cy="12.836589"
       fx="6.8598728"
       fy="12.836589"
       r="6"
       gradientTransform="matrix(-1.52496,1.453127,-1.341072,-1.277901,39.69354,8.212269)"
       gradientUnits="userSpaceOnUse" />
  </defs>
  <sodipodi:namedview
     id="base"
     pagecolor="#ffffff"
     bordercolor="#666666"
     borderopacity="1.0"
     inkscape:pageopacity="0.0"
     inkscape:pageshadow="2"
     inkscape:zoom="27.577635"
     inkscape:cx="19.359173"
     inkscape:cy="12.571987"
     inkscape:document-units="px"
     inkscape:current-layer="layer1"
     showgrid="true"
     fill="#edd400"
     inkscape:window-width="1268"
     inkscape:window-height="971"
     inkscape:window-x="6"
     inkscape:window-y="21" />
  <metadata
     id="metadata7">
    <rdf:RDF>
      <cc:Work
         rdf:about="">
        <dc:format>image/svg+xml</dc:format>
        <dc:type
           rdf:resource="http://purl.org/dc/dcmitype/StillImage" />
      </cc:Work>
    </rdf:RDF>
  </metadata>
  <g
     inkscape:label="Layer 1"
     inkscape:groupmode="layer"
     id="layer1">
    <path
       sodipodi:type="arc"
       style="opacity:0.4;fill:url(#radialGradient3156);fill-opacity:1;stroke:none;stroke-width:1;stroke-miterlimit:4;stroke-dasharray:none;stroke-opacity:1"
       id="path3140"
       sodipodi:cx="10.748654"
       sodipodi:cy="10.457643"
       sodipodi:rx="6.6449099"
       sodipodi:ry="2.3675451"
       d="M 17.393564 10.457643 A 6.6449099 2.3675451 0 1 1  4.1037445,10.457643 A 6.6449099 2.3675451 0 1 1  17.393564 10.457643 z"
       transform="matrix(1.35442,0,0,1.478324,-2.568682,4.0426)" />
    <path
       style="opacity:1;fill:url(#radialGradient2232);fill-opacity:1;stroke:#729fcf;stroke-width:1;stroke-miterlimit:4;stroke-dasharray:none;stroke-opacity:1"
       d="M 11.721488,1.5592577 C 7.7477826,1.7035933 4.5704372,4.8272899 4.5704373,8.6557006 C 4.5704373,11.902194 7.2504054,14.897259 10.36844,15.743216 L 10.416167,17.827337 C 10.416167,17.849674 10.413864,17.886238 10.416167,17.907978 C 10.421287,17.94008 10.448619,17.998602 10.45848,18.028939 C 10.469839,18.05861 10.485198,18.122475 10.500795,18.149902 C 10.506437,18.158769 10.537038,18.181645 10.543109,18.190223 C 10.595001,18.256422 10.680238,18.348814 10.754679,18.391825 C 10.773867,18.401733 10.819043,18.424005 10.839305,18.432147 C 10.880823,18.446577 10.963643,18.465963 11.008562,18.472467 C 11.031378,18.474662 11.069748,18.472467 11.093189,18.472467 L 13.037635,18.379268 C 13.061078,18.379268 13.09945,18.381463 13.122263,18.379268 C 13.167183,18.372763 13.250003,18.353377 13.291519,18.338947 C 13.311782,18.330806 13.356956,18.308534 13.376146,18.298626 C 13.450586,18.255614 13.535825,18.163223 13.587716,18.097024 C 13.593788,18.088446 13.624388,18.065569 13.63003,18.056702 C 13.645626,18.029275 13.660986,17.965411 13.672345,17.93574 C 13.682206,17.905403 13.709538,17.84688 13.714659,17.81478 C 13.71696,17.793038 13.714659,17.756474 13.714659,17.734138 L 13.762386,15.743216 C 16.88042,14.897259 19.464929,11.902196 19.464931,8.6557006 C 19.464931,4.7354076 16.124432,1.5592576 12.017685,1.5592577 C 11.921434,1.5592577 11.816858,1.5557937 11.721488,1.5592577 z "
       id="path1311"
       sodipodi:nodetypes="csccsssssssccsssssssccssc" />
    <path
       sodipodi:type="inkscape:offset"
       inkscape:radius="-0.98906523"
       inkscape:original="M 11.71875 1.5625 C 7.7450446 1.7068356 4.5624999 4.8278393 4.5625 8.65625 C 4.5624999 11.902743 7.2569654 14.904043 10.375 15.75 L 10.40625 17.8125 C 10.40625 17.834837 10.403947 17.88451 10.40625 17.90625 C 10.41137 17.938352 10.458889 18.000913 10.46875 18.03125 C 10.480109 18.060922 10.484403 18.128823 10.5 18.15625 C 10.505642 18.165117 10.525179 18.178922 10.53125 18.1875 C 10.583142 18.253698 10.675559 18.363239 10.75 18.40625 C 10.769188 18.416158 10.823488 18.429358 10.84375 18.4375 C 10.885268 18.451931 10.955081 18.462246 11 18.46875 C 11.022816 18.470945 11.070309 18.46875 11.09375 18.46875 L 13.03125 18.375 C 13.054693 18.374999 13.102187 18.377195 13.125 18.375 C 13.16992 18.368494 13.239734 18.35818 13.28125 18.34375 C 13.301513 18.335609 13.35581 18.322408 13.375 18.3125 C 13.44944 18.269488 13.541859 18.159949 13.59375 18.09375 C 13.599822 18.085171 13.619358 18.071367 13.625 18.0625 C 13.640596 18.035073 13.676141 17.967171 13.6875 17.9375 C 13.697361 17.907163 13.713629 17.8446 13.71875 17.8125 C 13.721051 17.790759 13.71875 17.741086 13.71875 17.71875 L 13.75 15.75 C 16.868034 14.904043 19.468748 11.902745 19.46875 8.65625 C 19.46875 4.7359569 16.137997 1.5624999 12.03125 1.5625 C 11.934999 1.5625 11.81412 1.559036 11.71875 1.5625 z "
       xlink:href="#path1311"
       style="opacity:0.7;fill:#ffffff;fill-opacity:0.41960784;stroke:#ffffff;stroke-width:1;stroke-miterlimit:4;stroke-dasharray:none;stroke-opacity:1"
       id="path2204"
       inkscape:href="#path1311"
       d="M 11.75,3.5 C 8.7925118,3.610025 6.4999999,5.9517342 6.5,8.84375 C 6.5,11.213653 8.5323749,13.616398 10.8125,14.25 C 11.234478,14.354461 11.538798,14.722181 11.5625,15.15625 L 11.59375,16.59375 L 12.46875,16.5625 L 12.5,15.15625 C 12.523702,14.722181 12.828022,14.354461 13.25,14.25 C 15.526361,13.617444 17.499998,11.227857 17.5,8.84375 C 17.500001,5.8882563 15.061655,3.4999999 12,3.5 C 11.891692,3.5000001 11.77522,3.4990618 11.75,3.5 z "
       transform="translate(3.330669e-15,4.169556e-4)" />
    <rect
       style="opacity:1;fill:#edd400;fill-opacity:1;stroke:#c4a000;stroke-width:1.00000083;stroke-miterlimit:4;stroke-dasharray:none;stroke-opacity:1"
       id="rect2188"
       width="4.9947133"
       height="3.971606"
       x="9.5012331"
       y="16.527096"
       rx="0.50000077"
       ry="0.50000089" />
    <path
       sodipodi:type="inkscape:offset"
       inkscape:radius="-1.0076578"
       inkscape:original="M 10 16.53125 C 9.7229996 16.53125 9.5 16.75425 9.5 17.03125 L 9.5 20 C 9.5 20.277 9.7229994 20.500001 10 20.5 L 14 20.5 C 14.277 20.5 14.5 20.277 14.5 20 L 14.5 17.03125 C 14.5 16.75425 14.277 16.53125 14 16.53125 L 10 16.53125 z "
       xlink:href="#rect2188"
       style="opacity:0.5;fill:none;fill-opacity:1;stroke:#ffffff;stroke-width:1.00000083;stroke-miterlimit:4;stroke-dasharray:none;stroke-opacity:1"
       id="path1324"
       inkscape:href="#rect2188"
       d="M 10.5,17.53125 L 10.5,19.5 L 13.5,19.5 L 13.5,17.53125 L 10.5,17.53125 z " />
    <rect
       style="opacity:0.7;fill:#729fcf;fill-opacity:1;stroke:none;stroke-width:1;stroke-miterlimit:4;stroke-dasharray:none;stroke-opacity:1"
       id="rect2238"
       width="1"
       height="2"
       x="9.9895105"
       y="11.002384" />
    <rect
       style="opacity:0.70454544;fill:#729fcf;fill-opacity:1;stroke:none;stroke-width:1;stroke-miterlimit:4;stroke-dasharray:none;stroke-opacity:1"
       id="rect2240"
       width="1"
       height="2"
       x="12.989511"
       y="11.002384" />
    <rect
       style="opacity:0.7;fill:#729fcf;fill-opacity:1;stroke:none;stroke-width:1;stroke-miterlimit:4;stroke-dasharray:none;stroke-opacity:1"
       id="rect2242"
       width="1"
       height="2"
       x="-12.002384"
       y="10.989511"
       transform="matrix(0,-1,1,0,0,0)" />
    <rect
       style="opacity:0.7;fill:#729fcf;fill-opacity:1;stroke:none;stroke-width:1;stroke-miterlimit:4;stroke-dasharray:none;stroke-opacity:1"
       id="rect2244"
       width="1.0000002"
       height="1"
       x="-11.002384"
       y="9.9895105"
       transform="matrix(0,-1,1,0,0,0)" />
    <rect
       style="opacity:0.7;fill:#729fcf;fill-opacity:1;stroke:none;stroke-width:1;stroke-miterlimit:4;stroke-dasharray:none;stroke-opacity:1"
       id="rect2246"
       width="1.0000002"
       height="1"
       x="-11.002384"
       y="11.989511"
       transform="matrix(0,-1,1,0,0,0)" />
    <rect
       style="opacity:0.5;fill:#729fcf;fill-opacity:1;stroke:none;stroke-width:1;stroke-miterlimit:4;stroke-dasharray:none;stroke-opacity:1"
       id="rect2250"
       width="1.0000002"
       height="1"
       x="-10.002384"
       y="12.989511"
       transform="matrix(0,-1,1,0,0,0)" />
    <rect
       style="opacity:0.5;fill:#729fcf;fill-opacity:1;stroke:none;stroke-width:1;stroke-miterlimit:4;stroke-dasharray:none;stroke-opacity:1"
       id="rect2252"
       width="1.0000002"
       height="1"
       x="-10.002384"
       y="10.989511"
       transform="matrix(0,-1,1,0,0,0)" />
    <path
       sodipodi:type="arc"
       style="opacity:0.9;fill:#ffffff;fill-opacity:0.41960784;stroke:none;stroke-width:1;stroke-miterlimit:4;stroke-dasharray:none;stroke-opacity:1"
       id="path2254"
       sodipodi:cx="8.9137974"
       sodipodi:cy="6.046802"
       sodipodi:rx="1.3745575"
       sodipodi:ry="1.3329042"
       d="M 10.288355 6.046802 A 1.3745575 1.3329042 0 1 1  7.5392399,6.046802 A 1.3745575 1.3329042 0 1 1  10.288355 6.046802 z"
       transform="matrix(1.455012,0,0,1.500482,-2.980174,-2.070734)" />
  </g>
</svg>
