<?xml version="1.0" encoding="UTF-8" standalone="no"?>
<!-- Created with Inkscape (http://www.inkscape.org/) -->
<svg
   xmlns:dc="http://purl.org/dc/elements/1.1/"
   xmlns:cc="http://creativecommons.org/ns#"
   xmlns:rdf="http://www.w3.org/1999/02/22-rdf-syntax-ns#"
   xmlns:svg="http://www.w3.org/2000/svg"
   xmlns="http://www.w3.org/2000/svg"
   xmlns:xlink="http://www.w3.org/1999/xlink"
   xmlns:sodipodi="http://sodipodi.sourceforge.net/DTD/sodipodi-0.dtd"
   xmlns:inkscape="http://www.inkscape.org/namespaces/inkscape"
   width="24"
   height="24"
   id="svg2"
   sodipodi:version="0.32"
   inkscape:version="0.46"
   version="1.0"
   sodipodi:docbase="/home/hbons/Desktop/Gaim Refresh/emotes"
   sodipodi:docname="lamp.svg"
   inkscape:export-filename="/home/hbons/Bureaublad/Projecten/Pidgin objecten voor 2.5.0/bitmaps/lamp.png"
   inkscape:export-xdpi="90"
   inkscape:export-ydpi="90"
   inkscape:output_extension="org.inkscape.output.svg.inkscape">
  <defs
     id="defs4">
    <linearGradient
       inkscape:collect="always"
       id="linearGradient3277">
      <stop
         style="stop-color:#417dbe;stop-opacity:1"
         offset="0"
         id="stop3279" />
      <stop
         style="stop-color:#729fcf;stop-opacity:0;"
         offset="1"
         id="stop3281" />
    </linearGradient>
    <linearGradient
       inkscape:collect="always"
       id="linearGradient3268">
      <stop
         style="stop-color:#719ecf;stop-opacity:1"
         offset="0"
         id="stop3270" />
      <stop
         style="stop-color:#2e5a89;stop-opacity:1"
         offset="1"
         id="stop3272" />
    </linearGradient>
    <linearGradient
       inkscape:collect="always"
       id="linearGradient3260">
      <stop
         style="stop-color:#d08712;stop-opacity:1"
         offset="0"
         id="stop3262" />
      <stop
         style="stop-color:#8f5902;stop-opacity:1"
         offset="1"
         id="stop3264" />
    </linearGradient>
    <linearGradient
       inkscape:collect="always"
       id="linearGradient3252">
      <stop
         style="stop-color:#8f5902;stop-opacity:1"
         offset="0"
         id="stop3254" />
      <stop
         style="stop-color:#fcaf3e;stop-opacity:0"
         offset="1"
         id="stop3256" />
    </linearGradient>
    <linearGradient
       inkscape:collect="always"
       id="linearGradient3180">
      <stop
         style="stop-color:#729fcf;stop-opacity:1;"
         offset="0"
         id="stop3182" />
      <stop
         style="stop-color:#729fcf;stop-opacity:0;"
         offset="1"
         id="stop3184" />
    </linearGradient>
    <radialGradient
       inkscape:collect="always"
       xlink:href="#linearGradient3180"
       id="radialGradient3186"
       cx="12.833916"
       cy="8.618206"
       fx="12.833916"
       fy="8.618206"
       r="6.9675383"
       gradientTransform="matrix(1.3388843,0,0,1.5344275,-3.4016909,-4.386083)"
       gradientUnits="userSpaceOnUse" />
    <linearGradient
       inkscape:collect="always"
       xlink:href="#linearGradient3252"
       id="linearGradient3258"
       x1="12"
       y1="20.6241"
       x2="12"
       y2="19.5"
       gradientUnits="userSpaceOnUse" />
    <linearGradient
       inkscape:collect="always"
       xlink:href="#linearGradient3260"
       id="linearGradient3266"
       x1="11.103153"
       y1="19.818691"
       x2="13.404504"
       y2="22.999998"
       gradientUnits="userSpaceOnUse" />
    <linearGradient
       inkscape:collect="always"
       xlink:href="#linearGradient3268"
       id="linearGradient3274"
       x1="7.1449361"
       y1="4.956862"
       x2="14.489259"
       y2="19.366871"
       gradientUnits="userSpaceOnUse" />
    <linearGradient
       inkscape:collect="always"
       xlink:href="#linearGradient3277"
       id="linearGradient3283"
       x1="12.465766"
       y1="13.28446"
       x2="12.465766"
       y2="5.3764086"
       gradientUnits="userSpaceOnUse" />
    <filter
       inkscape:collect="always"
       id="filter3313"
       x="-0.17621524"
       width="1.3524305"
       y="-0.18172197"
       height="1.3634439">
      <feGaussianBlur
         inkscape:collect="always"
         stdDeviation="0.20184832"
         id="feGaussianBlur3315" />
    </filter>
    <filter
       inkscape:collect="always"
       id="filter3495"
       x="-0.27974137"
       width="1.5594827"
       y="-0.83922411"
       height="2.6784482">
      <feGaussianBlur
         inkscape:collect="always"
         stdDeviation="0.69935343"
         id="feGaussianBlur3497" />
    </filter>
  </defs>
  <sodipodi:namedview
     id="base"
     pagecolor="#ffffff"
     bordercolor="#666666"
     borderopacity="1.0"
     inkscape:pageopacity="0.0"
     inkscape:pageshadow="2"
     inkscape:zoom="19.500333"
     inkscape:cx="19.854984"
     inkscape:cy="15.058817"
     inkscape:document-units="px"
     inkscape:current-layer="layer1"
     showgrid="true"
     fill="#edd400"
     inkscape:window-width="1440"
     inkscape:window-height="848"
     inkscape:window-x="0"
     inkscape:window-y="0"
     inkscape:snap-bbox="true"
     inkscape:snap-nodes="false"
     objecttolerance="10"
     gridtolerance="10">
    <inkscape:grid
       type="xygrid"
       visible="true"
       enabled="true"
       id="grid2401" />
  </sodipodi:namedview>
  <metadata
     id="metadata7">
    <rdf:RDF>
      <cc:Work
         rdf:about="">
        <dc:format>image/svg+xml</dc:format>
        <dc:type
           rdf:resource="http://purl.org/dc/dcmitype/StillImage" />
      </cc:Work>
    </rdf:RDF>
  </metadata>
  <g
     inkscape:label="Layer 1"
     inkscape:groupmode="layer"
     id="layer1">
    <rect
       style="opacity:0.39285715;fill:#2e3436;fill-opacity:1;fill-rule:nonzero;stroke:none;stroke-width:1;stroke-linecap:square;stroke-linejoin:miter;marker:none;marker-start:none;marker-mid:none;marker-end:none;stroke-miterlimit:4;stroke-dasharray:none;stroke-dashoffset:0;stroke-opacity:1;visibility:visible;display:inline;overflow:visible;filter:url(#filter3495);enable-background:accumulate"
       id="rect3317"
       width="6"
       height="2"
       x="11"
       y="21"
       rx="1"
       ry="1"
       transform="matrix(2.1666668,0,0,1.5,-16.833335,-11.5)" />
    <rect
       style="opacity:1;fill:#e9b96e;fill-opacity:1;stroke:url(#linearGradient3266);stroke-width:1.00000083000000006;stroke-miterlimit:4;stroke-dasharray:none;stroke-opacity:1"
       id="rect2188"
       width="4.9999995"
       height="4.9999986"
       x="9.5"
       y="17.5"
       rx="1.3184333"
       ry="1.3184333" />
    <path
       style="opacity:1;fill:#ffffff;fill-opacity:1;stroke:url(#linearGradient3274);stroke-width:1;stroke-miterlimit:4;stroke-dasharray:none;stroke-opacity:1"
       d="M 11.71875,1.5625 C 8.4644311,1.6205336 5.3563373,4.0165934 4.71875,7.25 C 4.1025955,9.8967828 5.4422011,12.666769 7.53125,14.28125 C 8.1364934,14.760564 8.784637,15.177481 9.5,15.46875 C 9.4998376,15.479301 9.5,15.489409 9.5,15.5 C 9.5,16.202204 9.9899855,16.799633 10.534453,17.15625 C 10.534453,17.15625 10.520031,17.531857 10.520031,17.531857 C 10.520031,18.947082 13.503203,18.692972 13.503203,17.582341 C 13.503203,17.582341 13.544875,17.216344 13.544875,17.216344 C 14.003817,16.85049 14.5,16.13519 14.5,15.5 C 14.503809,15.498517 14.496193,15.470239 14.5,15.46875 C 17.489686,14.29923 19.807292,11.20942 19.4375,7.9375 C 19.135652,4.7097828 16.327149,2.061524 13.15625,1.65625 C 12.683469,1.5849592 12.196228,1.5558098 11.71875,1.5625 z"
       id="path1311"
       sodipodi:nodetypes="cccssccccssccc" />
    <path
       sodipodi:type="inkscape:offset"
       inkscape:radius="-0.98906523"
       inkscape:original="M 11.71875 1.5625 C 8.4644311 1.6205336 5.3563373 4.0165934 4.71875 7.25 C 4.1025955 9.8967828 5.4422011 12.666769 7.53125 14.28125 C 8.1364934 14.760564 8.784637 15.177481 9.5 15.46875 C 9.4998376 15.479301 9.5 15.489409 9.5 15.5 C 9.5 16.202204 9.9867825 16.799633 10.53125 17.15625 C 10.53125 17.15625 10.53125 17.53125 10.53125 17.53125 C 10.53125 18.946475 13.5 18.704381 13.5 17.59375 C 13.5 17.593751 13.53125 17.21875 13.53125 17.21875 C 13.990192 16.852895 14.5 16.13519 14.5 15.5 C 14.503809 15.498517 14.496193 15.470239 14.5 15.46875 C 17.489686 14.29923 19.807292 11.20942 19.4375 7.9375 C 19.135652 4.7097828 16.327149 2.061524 13.15625 1.65625 C 12.683469 1.5849592 12.196228 1.5558098 11.71875 1.5625 z "
       xlink:href="#path1311"
       style="opacity:0.7;fill:url(#radialGradient3186);fill-opacity:1;stroke:#ffffff;stroke-width:0.99999303;stroke-miterlimit:4;stroke-dasharray:none;stroke-opacity:1"
       id="path2204"
       inkscape:href="#path1311"
       d="M 11.71875,2.5625 C 8.9490492,2.6269666 6.2230276,4.7216703 5.6875,7.4375 C 5.6876646,7.447916 5.6876646,7.458334 5.6875,7.46875 C 5.1776728,9.6587882 6.3071841,12.095136 8.125,13.5 C 8.135416,13.499835 8.145834,13.499835 8.15625,13.5 C 8.7109104,13.939256 9.2716896,14.316855 9.875,14.5625 C 10.247715,14.710039 10.494539,15.067933 10.5,15.46875 C 10.500143,15.459436 10.5,15.479298 10.5,15.5 C 10.5,15.74511 10.715541,16.116497 11.0625,16.34375 C 11.345395,16.518568 11.521514,16.82384 11.53125,17.15625 C 11.53125,17.15625 11.53125,17.332031 11.53125,17.4375 C 11.600175,17.469889 11.782915,17.537816 12,17.53125 C 12.207203,17.524983 12.391245,17.424494 12.5,17.375 C 12.509259,17.263893 12.53125,17.125 12.53125,17.125 C 12.556349,16.854003 12.691994,16.60532 12.90625,16.4375 C 13.145521,16.24676 13.483944,15.659144 13.5,15.53125 C 13.499796,15.526301 13.499612,15.509603 13.5,15.5 C 13.49919,15.480382 13.527311,15.456851 13.53125,15.40625 C 13.529768,15.375018 13.529768,15.343732 13.53125,15.3125 C 13.531275,15.312361 13.549553,15.256208 13.5625,15.21875 C 13.574851,15.143672 13.595823,15.07027 13.625,15 C 13.625047,14.999912 13.699431,14.943197 13.75,14.875 C 13.769892,14.853246 13.790746,14.832392 13.8125,14.8125 C 13.858584,14.754744 13.910994,14.702334 13.96875,14.65625 C 14.010727,14.628822 14.032854,14.644367 14.0625,14.625 C 14.089742,14.607204 14.124973,14.562511 14.125,14.5625 C 16.725782,13.545113 18.778947,10.807123 18.46875,8.0625 C 18.458102,8.0523174 18.447683,8.0418981 18.4375,8.03125 C 18.18394,5.3198885 15.737528,2.9708906 13.03125,2.625 C 13.020834,2.6251646 13.010416,2.6251646 13,2.625 C 12.597033,2.5642365 12.167741,2.5581966 11.75,2.5625 L 11.71875,2.5625 z"
       transform="matrix(1.000014,0,0,1,-7.7768714e-5,4.169556e-4)" />
    <path
       style="opacity:1;fill:url(#linearGradient3283);fill-opacity:1;stroke:none;stroke-width:1;stroke-miterlimit:4;stroke-dasharray:none;stroke-opacity:1"
       d="M 11 9 L 11 10 L 12 10 L 12 9 L 11 9 z M 12 10 L 12 11 L 11 11 L 11 10 L 10 10 L 10 11 L 10 13 L 11 13 L 11 12 L 13 12 L 13 13 L 14 13 L 14 11 L 13 11 L 13 10 L 12 10 z M 13 10 L 14 10 L 14 9 L 13 9 L 13 10 z "
       id="rect2238" />
    <path
       sodipodi:type="arc"
       style="opacity:0.62946424;fill:#ffffff;fill-opacity:0.41960784;stroke:none;stroke-width:1;stroke-miterlimit:4;stroke-dasharray:none;stroke-opacity:1;filter:url(#filter3313)"
       id="path2254"
       sodipodi:cx="8.9137974"
       sodipodi:cy="6.046802"
       sodipodi:rx="1.3745575"
       sodipodi:ry="1.3329042"
       d="M 10.288355,6.046802 A 1.3745575,1.3329042 0 1 1 7.5392399,6.046802 A 1.3745575,1.3329042 0 1 1 10.288355,6.046802 z"
       transform="matrix(2.1825206,0,0,1.8764973,-9.4545462,-4.8456165)" />
    <rect
       style="opacity:0.65625000000000000;fill:none;fill-opacity:1;fill-rule:nonzero;stroke:url(#linearGradient3258);stroke-width:0.99999987999999995;stroke-linecap:square;stroke-linejoin:miter;marker:none;marker-start:none;marker-mid:none;marker-end:none;stroke-miterlimit:4;stroke-dasharray:none;stroke-dashoffset:0;stroke-opacity:1;visibility:visible;display:inline;overflow:visible;enable-background:accumulate"
       id="rect3250"
       width="3"
       height="2"
       x="10.5"
       y="18.5"
       rx="0.61644155"
       ry="0.61644155" />
  </g>
</svg>
