<?xml version="1.0" encoding="UTF-8" standalone="no"?>
<!-- Created with Inkscape (http://www.inkscape.org/) -->
<svg
   xmlns:dc="http://purl.org/dc/elements/1.1/"
   xmlns:cc="http://web.resource.org/cc/"
   xmlns:rdf="http://www.w3.org/1999/02/22-rdf-syntax-ns#"
   xmlns:svg="http://www.w3.org/2000/svg"
   xmlns="http://www.w3.org/2000/svg"
   xmlns:xlink="http://www.w3.org/1999/xlink"
   xmlns:sodipodi="http://inkscape.sourceforge.net/DTD/s odipodi-0.dtd"
   xmlns:inkscape="http://www.inkscape.org/namespaces/inkscape"
   width="24"
   height="24"
   id="svg2"
   sodipodi:version="0.32"
   inkscape:version="0.43"
   version="1.0"
   sodipodi:docbase="/home/hbons/Desktop/Gaim Refresh/emotes"
   sodipodi:docname="love-over.svg"
   inkscape:export-filename="/home/hbons/Desktop/Gaim Refresh/emotes/love-over.png"
   inkscape:export-xdpi="90"
   inkscape:export-ydpi="90">
  <defs
     id="defs4">
    <radialGradient
       inkscape:collect="always"
       xlink:href="#linearGradient3150"
       id="radialGradient1360"
       gradientUnits="userSpaceOnUse"
       gradientTransform="matrix(-0.842757,5.698892e-16,-4.565819e-9,-0.35721,19.80716,14.19321)"
       cx="10.748654"
       cy="10.457643"
       fx="10.748654"
       fy="10.457643"
       r="6.6449099" />
    <linearGradient
       inkscape:collect="always"
       id="linearGradient2377">
      <stop
         style="stop-color:#eeeeec;stop-opacity:1;"
         offset="0"
         id="stop2379" />
      <stop
         style="stop-color:#eeeeec;stop-opacity:0;"
         offset="1"
         id="stop2381" />
    </linearGradient>
    <linearGradient
       inkscape:collect="always"
       id="linearGradient3150">
      <stop
         style="stop-color:#2e3436;stop-opacity:1;"
         offset="0"
         id="stop3152" />
      <stop
         style="stop-color:#2e3436;stop-opacity:0;"
         offset="1"
         id="stop3154" />
    </linearGradient>
    <radialGradient
       inkscape:collect="always"
       xlink:href="#linearGradient3150"
       id="radialGradient3156"
       cx="10.748654"
       cy="10.457643"
       fx="10.748654"
       fy="10.457643"
       r="6.6449099"
       gradientTransform="matrix(-0.842757,5.698892e-16,-4.565819e-9,-0.35721,19.80716,14.19321)"
       gradientUnits="userSpaceOnUse" />
    <linearGradient
       inkscape:collect="always"
       id="linearGradient2221">
      <stop
         style="stop-color:#ffffff;stop-opacity:1;"
         offset="0"
         id="stop2223" />
      <stop
         style="stop-color:#ffffff;stop-opacity:0;"
         offset="1"
         id="stop2225" />
    </linearGradient>
    <linearGradient
       inkscape:collect="always"
       id="linearGradient2210">
      <stop
         style="stop-color:#000000;stop-opacity:1;"
         offset="0"
         id="stop2212" />
      <stop
         style="stop-color:#000000;stop-opacity:0;"
         offset="1"
         id="stop2214" />
    </linearGradient>
    <linearGradient
       inkscape:collect="always"
       id="linearGradient2194">
      <stop
         style="stop-color:#a40000;stop-opacity:1;"
         offset="0"
         id="stop2196" />
      <stop
         style="stop-color:#a40000;stop-opacity:0;"
         offset="1"
         id="stop2198" />
    </linearGradient>
    <radialGradient
       inkscape:collect="always"
       xlink:href="#linearGradient2194"
       id="radialGradient2200"
       cx="11.5"
       cy="11.312082"
       fx="11.5"
       fy="11.312082"
       r="8.5368567"
       gradientTransform="matrix(1,0,0,0.860946,0,1.572987)"
       gradientUnits="userSpaceOnUse" />
    <radialGradient
       inkscape:collect="always"
       xlink:href="#linearGradient2194"
       id="radialGradient2206"
       gradientUnits="userSpaceOnUse"
       gradientTransform="matrix(1,0,0,0.860946,1.886851e-17,1.572987)"
       cx="11.5"
       cy="11.312082"
       fx="11.5"
       fy="11.312082"
       r="8.5368567" />
    <radialGradient
       inkscape:collect="always"
       xlink:href="#linearGradient2210"
       id="radialGradient2216"
       cx="10.847297"
       cy="7.387557"
       fx="10.847297"
       fy="7.387557"
       r="7.5"
       gradientTransform="matrix(1,0,0,0.884514,0,1.31713)"
       gradientUnits="userSpaceOnUse" />
    <linearGradient
       inkscape:collect="always"
       xlink:href="#linearGradient2221"
       id="linearGradient2322"
       gradientUnits="userSpaceOnUse"
       x1="11.5"
       y1="5.2969851"
       x2="11.5"
       y2="10.845449" />
    <linearGradient
       inkscape:collect="always"
       xlink:href="#linearGradient2377"
       id="linearGradient2383"
       x1="12.715966"
       y1="5.9275746"
       x2="12.715966"
       y2="9.6277399"
       gradientUnits="userSpaceOnUse" />
  </defs>
  <sodipodi:namedview
     id="base"
     pagecolor="#ffffff"
     bordercolor="#666666"
     borderopacity="1.0"
     inkscape:pageopacity="0.0"
     inkscape:pageshadow="2"
     inkscape:zoom="25.730843"
     inkscape:cx="22.653985"
     inkscape:cy="7.3037057"
     inkscape:document-units="px"
     inkscape:current-layer="layer1"
     showgrid="true"
     fill="#eeeeec"
     inkscape:window-width="1268"
     inkscape:window-height="971"
     inkscape:window-x="6"
     inkscape:window-y="21"
     showguides="true"
     inkscape:guide-bbox="true" />
  <metadata
     id="metadata7">
    <rdf:RDF>
      <cc:Work
         rdf:about="">
        <dc:format>image/svg+xml</dc:format>
        <dc:type
           rdf:resource="http://purl.org/dc/dcmitype/StillImage" />
      </cc:Work>
    </rdf:RDF>
  </metadata>
  <g
     inkscape:label="Layer 1"
     inkscape:groupmode="layer"
     id="layer1">
    <path
       sodipodi:type="arc"
       style="opacity:0.5;fill:url(#radialGradient1360);fill-opacity:1;stroke:none;stroke-width:1;stroke-miterlimit:4;stroke-dasharray:none;stroke-opacity:1"
       id="path3140"
       sodipodi:cx="10.748654"
       sodipodi:cy="10.457643"
       sodipodi:rx="6.6449099"
       sodipodi:ry="2.3675451"
       d="M 17.393564 10.457643 A 6.6449099 2.3675451 0 1 1  4.1037445,10.457643 A 6.6449099 2.3675451 0 1 1  17.393564 10.457643 z"
       transform="matrix(1.730649,0,0,1.478324,-6.102141,3.040217)" />
    <path
       style="fill:#ef2929;fill-opacity:1;stroke:#a40000;stroke-width:0.99999976;stroke-miterlimit:4;stroke-dasharray:none;stroke-opacity:1"
       d="M 12.795395,10.348652 C 13.93813,11.00841 15.426236,12.251532 16.81251,13.051897 C 15.896487,13.96792 12.862912,15.852879 11.733183,16.982608 C 12.590456,17.839881 14.0625,19.5 14.0625,19.5 C 16.274562,17.426159 22.540071,13.787389 22.540071,8.3808322 C 22.540071,6.910244 21.9875,3.5 19.132614,3.5 C 15.444772,3.5 15.073145,6.4034733 12.795395,10.348652 z M 2.46875,8.53125 C 2.46875,13.996056 11.604255,19.796181 11.672587,19.73001 C 11.672587,19.73001 9.4496287,18.023343 8.4297238,17.003438 C 9.506766,15.926396 11.709933,14.444823 13.088368,13.066388 C 11.643935,12.232444 10.632324,11.349407 9.8118655,10.875715 C 10.489572,9.7018913 11.086488,8.4991009 11.942941,7.0156809 C 10.790786,5.863526 9.924309,3.5336336 6.5152277,3.5336336 C 4.4512683,3.5336336 2.46875,5.4320368 2.46875,8.53125 z "
       id="path1309"
       sodipodi:nodetypes="ccccsscccccccss" />
    <path
       sodipodi:type="inkscape:offset"
       inkscape:radius="-1.0302629"
       inkscape:original="M 19.125 3.5 C 15.437158 3.5 15.059 6.3985713 12.78125 10.34375 C 13.923985 11.003508 15.426226 12.262135 16.8125 13.0625 C 15.896477 13.978523 12.848479 15.839021 11.71875 16.96875 C 12.576023 17.826022 14.0625 19.5 14.0625 19.5 C 16.274562 17.426159 22.53125 13.781557 22.53125 8.375 C 22.53125 6.9044113 21.979886 3.5 19.125 3.5 z M 6.5 3.53125 C 4.4360405 3.5312499 2.46875 5.4320368 2.46875 8.53125 C 2.46875 13.996056 11.619168 19.784921 11.6875 19.71875 C 11.6875 19.718751 9.4574049 18.019905 8.4375 17 C 9.5145423 15.922957 11.715315 14.440935 13.09375 13.0625 C 11.649317 12.228556 10.632959 11.348692 9.8125 10.875 C 10.490206 9.701176 11.081047 8.51467 11.9375 7.03125 C 10.785345 5.8790952 9.9090813 3.53125 6.5 3.53125 z "
       xlink:href="#path1309"
       style="fill:url(#linearGradient2383);fill-opacity:1.0;stroke:#ffffff;stroke-width:0.99999976;stroke-miterlimit:4;stroke-dasharray:none;stroke-opacity:1;opacity:0.35"
       id="path2356"
       inkscape:href="#path1309"
       d="M 18.0625,4.53125 C 17.667926,4.5600897 17.395874,4.6597443 17.125,4.78125 L 14.03125,10.21875 L 16.375,11.59375 C 16.638974,11.759638 16.813641,12.036128 16.850069,12.345764 C 16.886497,12.655399 16.780767,12.964878 16.5625,13.1875 L 12.9375,16.875 L 14.125,18.09375 C 15.385694,17.03091 16.997611,15.869181 18.5625,14.3125 C 20.401252,12.483392 21.84375,10.377773 21.84375,8.09375 C 21.84375,6.1090519 20.288904,4.53125 18.375,4.53125 C 18.226747,4.5312499 18.147944,4.5298773 18.125,4.53125 C 17.968359,4.5406214 17.934437,4.5406099 18.0625,4.53125 z M 6.4375,5.03125 C 4.8120229,5.2033607 3.5,6.6789494 3.5,8.53125 C 3.5,10.849841 4.9372674,12.978349 6.75,14.8125 C 7.3205723,15.389814 7.7571636,15.715996 8.34375,16.21875 L 11.34375,13.09375 L 9.34375,11.875 C 8.8708038,11.590968 8.7054897,10.984816 8.96875,10.5 L 10.1875,8.28125 C 10.176861,8.271058 10.166442,8.2606389 10.15625,8.25 C 9.6734103,7.3696295 9.2954655,6.5066244 8.8125,5.9375 C 8.3295345,5.3683756 7.8537022,5.03125 6.78125,5.03125 C 6.6157055,5.0312497 6.5250117,5.0317499 6.53125,5.03125 C 6.5104215,5.031882 6.4895785,5.031882 6.46875,5.03125 C 6.4325512,5.0321434 6.4387812,5.0310195 6.4375,5.03125 z " />
  </g>
</svg>
