<?xml version="1.0" encoding="UTF-8" standalone="no"?>
<!-- Created with Inkscape (http://www.inkscape.org/) -->
<svg
   xmlns:dc="http://purl.org/dc/elements/1.1/"
   xmlns:cc="http://creativecommons.org/ns#"
   xmlns:rdf="http://www.w3.org/1999/02/22-rdf-syntax-ns#"
   xmlns:svg="http://www.w3.org/2000/svg"
   xmlns="http://www.w3.org/2000/svg"
   xmlns:xlink="http://www.w3.org/1999/xlink"
   xmlns:sodipodi="http://sodipodi.sourceforge.net/DTD/sodipodi-0.dtd"
   xmlns:inkscape="http://www.inkscape.org/namespaces/inkscape"
   width="24"
   height="24"
   id="svg2"
   sodipodi:version="0.32"
   inkscape:version="0.46"
   version="1.0"
   sodipodi:docbase="/home/hbons/Desktop/Projects/untitled folder 1"
   sodipodi:docname="male-fighter2.svg"
   inkscape:export-filename="/home/hbons/GUI/Tango/Gaim Refresh/emotes/22/male-fighter.png"
   inkscape:export-xdpi="90"
   inkscape:export-ydpi="90"
   inkscape:output_extension="org.inkscape.output.svg.inkscape">
  <defs
     id="defs4">
    <linearGradient
       inkscape:collect="always"
       id="linearGradient3104">
      <stop
         style="stop-color:#eeeeec;stop-opacity:1;"
         offset="0"
         id="stop3106" />
      <stop
         style="stop-color:#eeeeec;stop-opacity:0;"
         offset="1"
         id="stop3108" />
    </linearGradient>
    <filter
       id="filter3405"
       height="2.5649745"
       y="-0.78248726"
       width="1.5575919"
       x="-0.27879594"
       inkscape:collect="always">
      <feGaussianBlur
         id="feGaussianBlur3407"
         stdDeviation="1.5438116"
         inkscape:collect="always" />
    </filter>
    <radialGradient
       inkscape:collect="always"
       xlink:href="#linearGradient3104"
       id="radialGradient2289"
       gradientUnits="userSpaceOnUse"
       gradientTransform="matrix(-0.9327,0.932656,-0.947494,-0.947449,33.02126,11.96667)"
       cx="8.3343515"
       cy="14.186539"
       fx="8.3343515"
       fy="14.186539"
       r="9.975256" />
  </defs>
  <sodipodi:namedview
     id="base"
     pagecolor="#ffffff"
     bordercolor="#666666"
     borderopacity="1.0"
     inkscape:pageopacity="0.0"
     inkscape:pageshadow="2"
     inkscape:zoom="25.730843"
     inkscape:cx="21.196908"
     inkscape:cy="13.865401"
     inkscape:document-units="px"
     inkscape:current-layer="layer1"
     showgrid="true"
     fill="#2e3436"
     inkscape:window-width="1440"
     inkscape:window-height="847"
     inkscape:window-x="0"
     inkscape:window-y="0" />
  <metadata
     id="metadata7">
    <rdf:RDF>
      <cc:Work
         rdf:about="">
        <dc:format>image/svg+xml</dc:format>
        <dc:type
           rdf:resource="http://purl.org/dc/dcmitype/StillImage" />
      </cc:Work>
    </rdf:RDF>
  </metadata>
  <g
     inkscape:label="Layer 1"
     inkscape:groupmode="layer"
     id="layer1"
     style="opacity:1">
    <path
       style="opacity:1;fill:#fce94f;fill-opacity:1;stroke:#c4a000;stroke-width:0.99999994;stroke-miterlimit:4;stroke-opacity:1"
       d="M 7.444543,13.429697 C 7.444543,9.841696 9.104278,4.5589994 7.715707,4.5589994 C 7.021421,4.5589994 6.861801,5.5445666 5.311544,3.495366 C 5.177811,5.3437464 3.174411,5.5836726 3.174411,5.5836726 C 3.174411,5.5836726 1.255959,5.5564297 1.255959,5.5564297 C 1.254465,6.4534289 2.42595,7.1388561 2.427671,8.3256051 C 2.427671,8.3256051 0.49999997,12.276428 0.49999997,13.5 C 0.49999997,13.5 6.642891,13.429697 7.444543,13.429697 z "
       id="path3194"
       sodipodi:nodetypes="cscccccc" />
    <path
       style="opacity:1;fill:#fce94f;fill-opacity:1;stroke:#c4a000;stroke-width:0.99999994;stroke-miterlimit:4;stroke-opacity:1"
       d="M 16.32508,13.429697 C 16.32508,9.841696 14.665345,4.5589994 16.053916,4.5589994 C 16.748202,4.5589994 16.907822,5.5445666 18.458079,3.495366 C 18.591812,5.3437464 20.595212,5.5836726 20.595212,5.5836726 C 20.595212,5.5836726 22.513664,5.5564297 22.513664,5.5564297 C 22.515158,6.4534289 21.343673,7.1388561 21.341952,8.3256051 C 21.341952,8.3256051 23.269623,12.276428 23.269623,13.5 C 23.269623,13.5 17.126732,13.429697 16.32508,13.429697 z "
       id="path3192"
       sodipodi:nodetypes="cscccccc" />
    <path
       sodipodi:type="arc"
       style="opacity:0.64044949;fill:#2e3436;fill-opacity:1;stroke:none;stroke-width:1;stroke-miterlimit:4;stroke-dasharray:none;stroke-opacity:1;filter:url(#filter3405)"
       id="path2238"
       sodipodi:cx="10.748654"
       sodipodi:cy="10.457643"
       sodipodi:rx="6.6449099"
       sodipodi:ry="2.3675451"
       d="M 17.393564 10.457643 A 6.6449099 2.3675451 0 1 1  4.1037445,10.457643 A 6.6449099 2.3675451 0 1 1  17.393564 10.457643 z"
       transform="matrix(1.2039291,0,0,1.055946,-0.9405402,8.4572943)" />
    <path
       sodipodi:type="arc"
       style="fill:#edd400;fill-opacity:1;stroke:#cc6400;stroke-width:1.05276573;stroke-miterlimit:4;stroke-dasharray:none;stroke-opacity:1"
       id="path2240"
       sodipodi:cx="11.806158"
       sodipodi:cy="10.983024"
       sodipodi:rx="9.975256"
       sodipodi:ry="9.975256"
       d="M 21.781414 10.983024 A 9.975256 9.975256 0 1 1  1.8309021,10.983024 A 9.975256 9.975256 0 1 1  21.781414 10.983024 z"
       transform="matrix(0.952236,0,0,0.952236,0.7577898,1.5416081)" />
    <path
       sodipodi:type="arc"
       style="opacity:0.79545456;fill:url(#radialGradient2289);fill-opacity:1;stroke:none;stroke-width:1.05274069;stroke-miterlimit:4;stroke-dasharray:none;stroke-opacity:1"
       id="path2242"
       sodipodi:cx="11.806158"
       sodipodi:cy="10.983024"
       sodipodi:rx="9.975256"
       sodipodi:ry="9.975256"
       d="M 21.781414 10.983024 A 9.975256 9.975256 0 1 1  1.8309021,10.983024 A 9.975256 9.975256 0 1 1  21.781414 10.983024 z"
       transform="matrix(0.8019,0,0,0.801938,2.5327308,3.1918331)" />
    <path
       sodipodi:type="arc"
       style="opacity:0.64044949;fill:none;fill-opacity:1;stroke:#ffffff;stroke-width:1.17343903;stroke-miterlimit:4;stroke-dasharray:none;stroke-opacity:1"
       id="path2244"
       sodipodi:cx="11.806158"
       sodipodi:cy="10.983024"
       sodipodi:rx="9.975256"
       sodipodi:ry="9.975256"
       d="M 21.781414 10.983024 A 9.975256 9.975256 0 1 1  1.8309021,10.983024 A 9.975256 9.975256 0 1 1  21.781414 10.983024 z"
       transform="matrix(0.852176,0,0,0.852216,1.9391668,2.6396261)" />
    <path
       style="fill:#eeeeec;fill-opacity:1;stroke:#fea523;stroke-width:1;stroke-miterlimit:4;stroke-opacity:1"
       d="M 11.500075,11 C 11.500075,12.38 10.380076,13.5 9.000075,13.5 C 7.620075,13.5 6.500075,12.38 6.500075,11 C 6.500075,9.6199997 7.620075,8.4999997 9.000075,8.4999997 C 10.380076,8.4999997 11.500075,9.6199997 11.500075,11 z "
       id="path3154" />
    <path
       sodipodi:type="arc"
       style="fill:#2e3436;fill-opacity:1;stroke:none;stroke-width:0.98640186;stroke-miterlimit:4;stroke-dasharray:none;stroke-opacity:1"
       id="path2172"
       sodipodi:cx="9.7069349"
       sodipodi:cy="9.6526775"
       sodipodi:rx="1.0259361"
       sodipodi:ry="1.9413869"
       d="M 10.732871 9.6526775 A 1.0259361 1.9413869 0 1 1  8.6809988,9.6526775 A 1.0259361 1.9413869 0 1 1  10.732871 9.6526775 z"
       transform="matrix(0.9747196,0,0,0.7726436,0.5385358,4.0419199)" />
    <path
       sodipodi:type="arc"
       style="fill:#eeeeec;fill-opacity:1;stroke:#fea523;stroke-width:0.56451595;stroke-miterlimit:4;stroke-dasharray:none;stroke-opacity:1"
       id="path3152"
       sodipodi:cx="9.7069349"
       sodipodi:cy="9.6526775"
       sodipodi:rx="1.0259361"
       sodipodi:ry="1.9413869"
       d="M 10.732871 9.6526775 A 1.0259361 1.9413869 0 1 1  8.6809988,9.6526775 A 1.0259361 1.9413869 0 1 1  10.732871 9.6526775 z"
       transform="matrix(2.4367992,0,0,1.2877391,-8.6537752,-1.4301302)" />
    <path
       sodipodi:type="arc"
       style="fill:#2e3436;fill-opacity:1;stroke:none;stroke-width:0.98640186;stroke-miterlimit:4;stroke-dasharray:none;stroke-opacity:1"
       id="path3148"
       sodipodi:cx="9.7069349"
       sodipodi:cy="9.6526775"
       sodipodi:rx="1.0259361"
       sodipodi:ry="1.9413869"
       d="M 10.732871 9.6526775 A 1.0259361 1.9413869 0 1 1  8.6809988,9.6526775 A 1.0259361 1.9413869 0 1 1  10.732871 9.6526775 z"
       transform="matrix(0.9747195,0,0,0.7726435,4.538537,4.0419212)" />
    <path
       style="fill:#ce5c00;fill-opacity:1;stroke:none;stroke-width:1;stroke-miterlimit:4;stroke-dasharray:none;stroke-opacity:1"
       d="M 17.000077,14 C 16.413596,16.283765 14.403896,18 12.000077,18 C 9.596259,18 7.586558,16.283765 7.000077,14 C 8.053824,15.478811 9.90452,17.044402 12.000077,17.044402 C 14.095633,17.044403 15.94633,15.478811 17.000077,14 z "
       id="path2250"
       sodipodi:nodetypes="cscsc" />
    <path
       style="fill:#f57900;fill-opacity:1;fill-rule:evenodd;stroke:none;stroke-width:1;stroke-miterlimit:4;stroke-opacity:1"
       d="M 18.000077,6.0000001 C 18.000077,6.0000001 17.052698,8.038864 14.989617,8.038864 L 14.000077,8.0000001 L 14.000077,7.0000001 C 17.150208,7.0000001 18.000077,6.0000001 18.000077,6.0000001 z "
       id="rect2372"
       sodipodi:nodetypes="ccccc" />
    <path
       style="fill:#f57900;fill-opacity:1;fill-rule:evenodd;stroke:none;stroke-width:1;stroke-miterlimit:4;stroke-opacity:1"
       d="M 6.000077,6.0000001 C 6.000077,6.0000001 7.007241,8.038864 9.070322,8.038864 L 10.059862,8.0000001 L 10.059862,7.0000001 C 6.909731,7.0000001 6.000077,6.0000001 6.000077,6.0000001 z "
       id="path2385"
       sodipodi:nodetypes="ccccc" />
    <path
       style="fill:#f57900;fill-opacity:1;fill-rule:evenodd;stroke:none;stroke-width:1;stroke-miterlimit:4;stroke-opacity:1"
       d="M 9.000077,4.0000001 C 9.000077,4.0000001 8.10696,6.106302 9.565779,7.5651206 L 10.29297,8.23735 L 11.000077,7.5302433 C 8.772598,5.3027643 9.000077,4.0000001 9.000077,4.0000001 z "
       id="path2399"
       sodipodi:nodetypes="ccccc" />
    <path
       style="fill:#f57900;fill-opacity:1;fill-rule:evenodd;stroke:none;stroke-width:1;stroke-miterlimit:4;stroke-opacity:1"
       d="M 15.000077,4.0000001 C 15.000077,4.0000001 15.522816,6.106302 14.063998,7.5651206 L 13.336807,8.23735 L 12.6297,7.5302433 C 14.857178,5.3027643 15.000077,4.0000001 15.000077,4.0000001 z "
       id="path2401"
       sodipodi:nodetypes="ccccc" />
    <path
       style="fill:#fce94f;fill-opacity:1;stroke:#c4a000;stroke-width:0.99999994;stroke-miterlimit:4;stroke-opacity:1"
       d="M 18.613623,4.938999 C 18.613623,6.35267 15.701623,7.4999972 12.113622,7.4999972 C 8.5256214,7.4999972 5.6136208,6.35267 5.6136208,4.938999 C 5.6136208,4.2321635 6.599188,4.0696592 4.5499874,2.4913795 C 6.3983678,2.3552296 8.6203511,2.45313 8.6203511,2.45313 C 8.6203511,2.45313 8.5931082,0.50000087 8.5931082,0.50000087 C 9.4901074,0.49847976 12.235319,2.3906902 13.422068,2.3924418 C 13.422068,2.3924418 16.374024,1.4469407 17.313955,1.168341 C 16.971378,4.1145221 19.927812,3.4509326 21.016679,3.3672459 C 21.016679,3.3672459 18.613623,4.2321635 18.613623,4.938999 z "
       id="path2782"
       sodipodi:nodetypes="cssccccccc" />
    <path
       sodipodi:type="inkscape:offset"
       inkscape:radius="-1.0686392"
       inkscape:original="M 8.59375 0.5 C 8.59375 0.5 8.6250003 2.46875 8.625 2.46875 C 8.625 2.46875 6.4108805 2.3638501 4.5625 2.5 C 6.6117006 4.0782797 5.625 4.2306643 5.625 4.9375 C 5.625 6.351171 8.5369997 7.5000001 12.125 7.5 C 15.713001 7.5 18.625 6.3511708 18.625 4.9375 C 18.625 4.2306645 21.031249 3.375 21.03125 3.375 C 19.942383 3.4586867 16.969923 4.1024311 17.3125 1.15625 C 16.372569 1.4348497 13.4375 2.4062501 13.4375 2.40625 C 12.250751 2.4044984 9.4907492 0.49847887 8.59375 0.5 z "
       style="opacity:0.28651685;fill:none;fill-opacity:1;stroke:#dfe2e3;stroke-width:0.99999994;stroke-miterlimit:4;stroke-opacity:1"
       id="path2201"
       d="M 9.6875,2.03125 C 9.6896112,2.1642542 9.6875,2.4375 9.6875,2.4375 C 9.6948868,2.7352864 9.5776594,3.022644 9.3640824,3.2302883 C 9.1505054,3.4379326 8.8599602,3.5470206 8.5625,3.53125 C 8.5625,3.53125 7.4292124,3.5412626 6.75,3.53125 C 6.8044712,3.6936266 6.9325666,3.8314363 6.9375,4 C 6.9503733,4.4398499 6.7784763,4.7696386 6.71875,4.90625 C 6.6590237,5.0428614 6.6875,5.0094172 6.6875,4.9375 C 6.6875,4.9240388 6.6878943,4.9819733 6.875,5.15625 C 7.0621057,5.3305267 7.4041855,5.5520265 7.90625,5.75 C 8.9103789,6.145947 10.445054,6.4375 12.125,6.4375 C 13.804946,6.4375 15.339621,6.145947 16.34375,5.75 C 16.845814,5.5520265 17.187894,5.3305267 17.375,5.15625 C 17.562106,4.9819733 17.5625,4.9240388 17.5625,4.9375 C 17.5625,4.5459855 17.658481,4.2767821 17.8125,4.0625 C 17.420548,3.8820648 17.002688,3.7795555 16.71875,3.375 C 16.563491,3.153787 16.645086,2.7986832 16.5625,2.53125 C 15.372532,2.9131746 13.78125,3.40625 13.78125,3.40625 C 13.670871,3.4457984 13.554736,3.4669138 13.4375,3.46875 C 12.855371,3.4678908 12.399074,3.2942995 11.90625,3.09375 C 11.413426,2.8932005 10.917487,2.6468994 10.4375,2.40625 C 10.160687,2.2674651 9.9351608,2.1522726 9.6875,2.03125 z " />
    <path
       style="fill:#eeeeec;fill-opacity:1;stroke:#babdb6;stroke-width:0.99999976;stroke-miterlimit:4;stroke-opacity:1"
       d="M 5.245898,5.499999 L 19.059059,5.499999 C 19.059059,5.499999 21.313164,7.6341317 21.313164,9.500002 L 2.9140658,9.500002 C 2.9140658,7.672987 5.245898,5.499999 5.245898,5.499999 z "
       id="rect4232"
       sodipodi:nodetypes="ccccc" />
    <path
       sodipodi:type="arc"
       style="opacity:1;fill:#ef2929;fill-opacity:1;stroke:#a40000;stroke-width:1.60222423;stroke-miterlimit:4;stroke-dasharray:none;stroke-opacity:1"
       id="path4234"
       sodipodi:cx="-2.3706958"
       sodipodi:cy="6.0060306"
       sodipodi:rx="2.0986488"
       sodipodi:ry="1.9043294"
       d="M -0.27204704 6.0060306 A 2.0986488 1.9043294 0 1 1  -4.4693446,6.0060306 A 2.0986488 1.9043294 0 1 1  -0.27204704 6.0060306 z"
       transform="matrix(0.7418135,0,0,0.52512,13.81542,4.346116)" />
  </g>
</svg>
