<?xml version="1.0" encoding="UTF-8" standalone="no"?>
<!-- Created with Inkscape (http://www.inkscape.org/) -->
<svg
   xmlns:dc="http://purl.org/dc/elements/1.1/"
   xmlns:cc="http://web.resource.org/cc/"
   xmlns:rdf="http://www.w3.org/1999/02/22-rdf-syntax-ns#"
   xmlns:svg="http://www.w3.org/2000/svg"
   xmlns="http://www.w3.org/2000/svg"
   xmlns:xlink="http://www.w3.org/1999/xlink"
   xmlns:sodipodi="http://inkscape.sourceforge.net/DTD/s odipodi-0.dtd"
   xmlns:inkscape="http://www.inkscape.org/namespaces/inkscape"
   width="24"
   height="24"
   id="svg2"
   sodipodi:version="0.32"
   inkscape:version="0.43"
   version="1.0"
   sodipodi:docbase="/home/hbons/Desktop/Gaim Refresh/emotes/scalable"
   sodipodi:docname="mobile-phone.svg"
   inkscape:export-filename="/home/hbons/Desktop/Gaim Refresh/emotes/mobile-phone.png"
   inkscape:export-xdpi="90"
   inkscape:export-ydpi="90">
  <defs
     id="defs4">
    <linearGradient
       inkscape:collect="always"
       id="linearGradient3150">
      <stop
         style="stop-color:#2e3436;stop-opacity:1;"
         offset="0"
         id="stop3152" />
      <stop
         style="stop-color:#2e3436;stop-opacity:0;"
         offset="1"
         id="stop3154" />
    </linearGradient>
    <radialGradient
       inkscape:collect="always"
       xlink:href="#linearGradient3150"
       id="radialGradient3156"
       cx="10.748654"
       cy="10.457643"
       fx="10.748654"
       fy="10.457643"
       r="6.6449099"
       gradientTransform="matrix(-0.842757,5.698892e-16,-4.565819e-9,-0.35721,19.80716,14.19321)"
       gradientUnits="userSpaceOnUse" />
  </defs>
  <sodipodi:namedview
     id="base"
     pagecolor="#ffffff"
     bordercolor="#666666"
     borderopacity="1.0"
     inkscape:pageopacity="0.0"
     inkscape:pageshadow="2"
     inkscape:zoom="25.730843"
     inkscape:cx="23.00451"
     inkscape:cy="13.934968"
     inkscape:document-units="px"
     inkscape:current-layer="layer1"
     showgrid="true"
     fill="#f57900"
     inkscape:window-width="1268"
     inkscape:window-height="971"
     inkscape:window-x="6"
     inkscape:window-y="21" />
  <metadata
     id="metadata7">
    <rdf:RDF>
      <cc:Work
         rdf:about="">
        <dc:format>image/svg+xml</dc:format>
        <dc:type
           rdf:resource="http://purl.org/dc/dcmitype/StillImage" />
      </cc:Work>
    </rdf:RDF>
  </metadata>
  <g
     inkscape:label="Layer 1"
     inkscape:groupmode="layer"
     id="layer1">
    <path
       sodipodi:type="arc"
       style="opacity:0.7;fill:url(#radialGradient3156);fill-opacity:1;stroke:none;stroke-width:1;stroke-miterlimit:4;stroke-dasharray:none;stroke-opacity:1"
       id="path3140"
       sodipodi:cx="10.748654"
       sodipodi:cy="10.457643"
       sodipodi:rx="6.6449099"
       sodipodi:ry="2.3675451"
       d="M 17.393564 10.457643 A 6.6449099 2.3675451 0 1 1  4.1037445,10.457643 A 6.6449099 2.3675451 0 1 1  17.393564 10.457643 z"
       transform="matrix(1.504911,0,0,1.267135,-4.175772,6.748759)" />
    <path
       style="opacity:1;fill:#555753;fill-opacity:1;fill-rule:evenodd;stroke:#2e3436;stroke-width:0.99999964;stroke-miterlimit:4;stroke-dasharray:none;stroke-opacity:1"
       d="M 7.5408068,1.4997036 C 6.3530185,1.4997036 6.59585,2.443976 6.59585,3.4884461 C 6.600851,8.8263537 6.5859049,13.970483 6.6032895,19.308055 C 6.6844505,20.163657 7.5990982,20.599331 8.3774274,20.500032 C 10.982378,20.495538 13.587736,20.509043 16.192431,20.493241 C 17.00035,20.459529 17.619316,19.682696 17.498157,18.891822 C 17.493205,14.104452 17.508067,9.3165441 17.490718,4.5295105 C 17.409557,3.6739081 16.494909,3.4325529 15.716579,3.5318523 C 13.337082,3.5318523 9.7475355,3.8732389 8.5780878,3.5318523 C 8.3698672,2.7547625 8.8449782,1.4997036 7.5408068,1.4997036 z "
       id="rect1307"
       sodipodi:nodetypes="cccccccccc" />
    <path
       sodipodi:type="inkscape:offset"
       inkscape:radius="-0.95294088"
       inkscape:original="M 7.53125 1.5 C 6.3434617 1.5 6.59375 2.4555299 6.59375 3.5 C 6.598751 8.8379077 6.5763654 13.974928 6.59375 19.3125 C 6.6749109 20.168101 7.5966708 20.599299 8.375 20.5 C 10.979951 20.495506 13.582805 20.515802 16.1875 20.5 C 16.99542 20.466289 17.621159 19.697124 17.5 18.90625 C 17.495047 14.118879 17.517349 9.3182836 17.5 4.53125 C 17.418838 3.6756476 16.49708 3.4319506 15.71875 3.53125 C 13.339253 3.5312501 9.7319477 3.8726366 8.5625 3.53125 C 8.3542794 2.7541603 8.8354214 1.5 7.53125 1.5 z "
       xlink:href="#rect1307"
       style="opacity:0.3;fill:none;fill-opacity:1;fill-rule:evenodd;stroke:#ffffff;stroke-width:0.99999988;stroke-miterlimit:4;stroke-dasharray:none;stroke-opacity:1"
       id="path2222"
       inkscape:href="#rect1307"
       d="M 7.59375,2.65625 C 7.5748218,2.7271245 7.53125,2.7701751 7.53125,2.84375 L 7.53125,4.5 C 7.5339854,4.5416218 7.5339854,4.5833782 7.53125,4.625 C 7.5443706,4.5302305 7.53125,4.5134688 7.53125,4.65625 L 7.53125,4.6875 C 7.53125,4.7796781 7.5339811,4.7867801 7.53125,4.75 C 7.5319333,4.7708277 7.5319333,4.7916723 7.53125,4.8125 L 7.53125,19.15625 C 7.53125,19.331926 7.7244115,19.5625 8.0625,19.5625 L 16.03125,19.5625 C 16.369335,19.5625 16.5625,19.331923 16.5625,19.15625 L 16.5625,4.65625 C 16.5625,4.4805699 16.393824,4.28125 16.03125,4.28125 L 8.5625,4.28125 C 8.0482177,4.2729324 7.6333176,3.8580323 7.625,3.34375 L 7.625,2.84375 C 7.625,2.7511431 7.6095906,2.7270361 7.59375,2.65625 z " />
    <rect
       style="opacity:1;fill:#fcaf3e;fill-opacity:1;fill-rule:evenodd;stroke:#ce5c00;stroke-width:0.99999988;stroke-miterlimit:4;stroke-dasharray:none;stroke-opacity:1"
       id="rect2182"
       width="7"
       height="6.0014186"
       x="8.5"
       y="5.4996142"
       rx="0.81614119"
       ry="0.81614107" />
    <path
       sodipodi:type="inkscape:offset"
       inkscape:radius="-1.0279139"
       inkscape:original="M 9.3125 5.5 C 8.8603578 5.5 8.5 5.8603578 8.5 6.3125 L 8.5 10.6875 C 8.5 11.139642 8.8603578 11.5 9.3125 11.5 L 14.6875 11.5 C 15.139642 11.5 15.5 11.139642 15.5 10.6875 L 15.5 6.3125 C 15.5 5.8603578 15.139642 5.5 14.6875 5.5 L 9.3125 5.5 z "
       xlink:href="#rect2182"
       style="opacity:0.2;fill:#f57900;fill-opacity:1;fill-rule:evenodd;stroke:#ffffff;stroke-width:0.99999994;stroke-miterlimit:4;stroke-dasharray:none;stroke-opacity:1"
       id="path2202"
       inkscape:href="#rect2182"
       d="M 9.53125,6.53125 L 9.53125,10.46875 L 14.46875,10.46875 L 14.46875,6.53125 L 9.53125,6.53125 z " />
    <rect
       style="opacity:1;fill:#d3d7cf;fill-opacity:1;fill-rule:evenodd;stroke:none;stroke-width:1;stroke-miterlimit:4;stroke-dasharray:none;stroke-opacity:1"
       id="rect2184"
       width="2"
       height="1"
       x="8"
       y="13"
       rx="1.4768269"
       ry="1.4768267" />
    <rect
       style="opacity:1;fill:#d3d7cf;fill-opacity:1;fill-rule:evenodd;stroke:none;stroke-width:1;stroke-miterlimit:4;stroke-dasharray:none;stroke-opacity:1"
       id="rect2186"
       width="2"
       height="1"
       x="11"
       y="13"
       rx="1.4768269"
       ry="1.4768267" />
    <rect
       style="opacity:1;fill:#d3d7cf;fill-opacity:1;fill-rule:evenodd;stroke:none;stroke-width:1;stroke-miterlimit:4;stroke-dasharray:none;stroke-opacity:1"
       id="rect2188"
       width="2"
       height="1.0388639"
       x="14"
       y="13"
       rx="1.4768269"
       ry="1.4768267" />
    <path
       style="opacity:0.25;fill:#eeeeec;fill-opacity:1;fill-rule:evenodd;stroke:none;stroke-width:0.99999994;stroke-miterlimit:4;stroke-opacity:1"
       d="M 9.7632953,6 L 15.028403,6 C 12.453904,10.185561 11.223277,8.7854265 9,11.028403 L 9,6.7700589 C 9,6.3434462 9.3404297,6 9.7632953,6 z "
       id="rect2219"
       sodipodi:nodetypes="ccccc" />
    <rect
       style="opacity:1;fill:#d3d7cf;fill-opacity:1;fill-rule:evenodd;stroke:none;stroke-width:1;stroke-miterlimit:4;stroke-dasharray:none;stroke-opacity:1"
       id="rect2225"
       width="2"
       height="1"
       x="8"
       y="15"
       rx="1.4768269"
       ry="1.4768267" />
    <rect
       style="opacity:1;fill:#d3d7cf;fill-opacity:1;fill-rule:evenodd;stroke:none;stroke-width:1;stroke-miterlimit:4;stroke-dasharray:none;stroke-opacity:1"
       id="rect2227"
       width="2"
       height="1"
       x="11"
       y="15"
       rx="1.4768269"
       ry="1.4768267" />
    <rect
       style="opacity:1;fill:#d3d7cf;fill-opacity:1;fill-rule:evenodd;stroke:none;stroke-width:1;stroke-miterlimit:4;stroke-dasharray:none;stroke-opacity:1"
       id="rect2229"
       width="2"
       height="1"
       x="14"
       y="15"
       rx="1.4768269"
       ry="1.4768267" />
    <rect
       style="opacity:1;fill:#d3d7cf;fill-opacity:1;fill-rule:evenodd;stroke:none;stroke-width:1;stroke-miterlimit:4;stroke-dasharray:none;stroke-opacity:1"
       id="rect2231"
       width="2"
       height="1"
       x="8"
       y="17"
       rx="1.4768269"
       ry="1.4768267" />
    <rect
       style="opacity:1;fill:#d3d7cf;fill-opacity:1;fill-rule:evenodd;stroke:none;stroke-width:1;stroke-miterlimit:4;stroke-dasharray:none;stroke-opacity:1"
       id="rect2233"
       width="2"
       height="1"
       x="11"
       y="17"
       rx="1.4768269"
       ry="1.4768267" />
    <rect
       style="opacity:1;fill:#d3d7cf;fill-opacity:1;fill-rule:evenodd;stroke:none;stroke-width:1;stroke-miterlimit:4;stroke-dasharray:none;stroke-opacity:1"
       id="rect2235"
       width="2"
       height="1"
       x="14"
       y="17"
       rx="1.4768269"
       ry="1.4768267" />
  </g>
</svg>
