<?xml version="1.0" encoding="UTF-8" standalone="no"?>
<!-- Created with Inkscape (http://www.inkscape.org/) -->
<svg
   xmlns:dc="http://purl.org/dc/elements/1.1/"
   xmlns:cc="http://creativecommons.org/ns#"
   xmlns:rdf="http://www.w3.org/1999/02/22-rdf-syntax-ns#"
   xmlns:svg="http://www.w3.org/2000/svg"
   xmlns="http://www.w3.org/2000/svg"
   xmlns:xlink="http://www.w3.org/1999/xlink"
   xmlns:sodipodi="http://sodipodi.sourceforge.net/DTD/sodipodi-0.dtd"
   xmlns:inkscape="http://www.inkscape.org/namespaces/inkscape"
   width="24"
   height="24"
   id="svg2"
   sodipodi:version="0.32"
   inkscape:version="0.46"
   version="1.0"
   sodipodi:docbase="/home/hbons/Desktop/Gaim Refresh/emotes/scalable"
   sodipodi:docname="monkey.svg"
   inkscape:export-filename="/home/hbons/Desktop/Gaim Refresh/monkey.png"
   inkscape:export-xdpi="90"
   inkscape:export-ydpi="90"
   inkscape:output_extension="org.inkscape.output.svg.inkscape">
  <defs
     id="defs4">
    <linearGradient
       inkscape:collect="always"
       id="linearGradient3398">
      <stop
         style="stop-color:#ffffff;stop-opacity:1;"
         offset="0"
         id="stop3400" />
      <stop
         style="stop-color:#ffffff;stop-opacity:0;"
         offset="1"
         id="stop3402" />
    </linearGradient>
    <linearGradient
       inkscape:collect="always"
       id="linearGradient3390">
      <stop
         style="stop-color:#ffffff;stop-opacity:1;"
         offset="0"
         id="stop3392" />
      <stop
         style="stop-color:#ffffff;stop-opacity:0;"
         offset="1"
         id="stop3394" />
    </linearGradient>
    <linearGradient
       inkscape:collect="always"
       id="linearGradient3150">
      <stop
         style="stop-color:#2e3436;stop-opacity:1;"
         offset="0"
         id="stop3152" />
      <stop
         style="stop-color:#2e3436;stop-opacity:0;"
         offset="1"
         id="stop3154" />
    </linearGradient>
    <radialGradient
       inkscape:collect="always"
       xlink:href="#linearGradient3150"
       id="radialGradient3363"
       gradientUnits="userSpaceOnUse"
       gradientTransform="matrix(-0.842757,5.698892e-16,-4.565819e-9,-0.35721,19.80716,14.19321)"
       cx="10.748654"
       cy="10.457643"
       fx="10.748654"
       fy="10.457643"
       r="6.6449099" />
    <radialGradient
       inkscape:collect="always"
       xlink:href="#linearGradient3390"
       id="radialGradient3396"
       cx="12"
       cy="2.7777374"
       fx="12"
       fy="2.7777374"
       r="6.96875"
       gradientTransform="matrix(1.435094,1.218357e-16,-1.570791e-16,1.850224,-5.221128,-5.030137)"
       gradientUnits="userSpaceOnUse" />
    <linearGradient
       inkscape:collect="always"
       xlink:href="#linearGradient3398"
       id="linearGradient3404"
       x1="12"
       y1="1.9995501"
       x2="12"
       y2="20.389206"
       gradientUnits="userSpaceOnUse" />
  </defs>
  <sodipodi:namedview
     id="base"
     pagecolor="#ffffff"
     bordercolor="#666666"
     borderopacity="1.0"
     inkscape:pageopacity="0.0"
     inkscape:pageshadow="2"
     inkscape:zoom="25.730843"
     inkscape:cx="20.132617"
     inkscape:cy="14.07241"
     inkscape:document-units="px"
     inkscape:current-layer="layer1"
     showgrid="true"
     fill="#eeeeec"
     inkscape:window-width="1268"
     inkscape:window-height="971"
     inkscape:window-x="6"
     inkscape:window-y="21" />
  <metadata
     id="metadata7">
    <rdf:RDF>
      <cc:Work
         rdf:about="">
        <dc:format>image/svg+xml</dc:format>
        <dc:type
           rdf:resource="http://purl.org/dc/dcmitype/StillImage" />
      </cc:Work>
    </rdf:RDF>
  </metadata>
  <g
     inkscape:label="Layer 1"
     inkscape:groupmode="layer"
     id="layer1">
    <path
       sodipodi:type="arc"
       style="opacity:1;fill:#e9b96e;fill-opacity:1;fill-rule:evenodd;stroke:#8f5902;stroke-width:1.12964344;stroke-miterlimit:4;stroke-dasharray:none;stroke-opacity:1"
       id="path3342"
       sodipodi:cx="5.5769644"
       sodipodi:cy="5.3647771"
       sodipodi:rx="3.5560436"
       sodipodi:ry="3.2451327"
       d="M 9.133008 5.3647771 A 3.5560436 3.2451327 0 1 1  2.0209208,5.3647771 A 3.5560436 3.2451327 0 1 1  9.133008 5.3647771 z"
       transform="matrix(0.845651,0,0,0.926672,-0.216167,4.528612)" />
    <path
       sodipodi:type="arc"
       style="opacity:0.3;fill:#2e3436;fill-opacity:1;fill-rule:evenodd;stroke:none;stroke-width:1;stroke-miterlimit:4;stroke-dasharray:none;stroke-opacity:1"
       id="path3359"
       sodipodi:cx="4.2750249"
       sodipodi:cy="8.4155903"
       sodipodi:rx="2.0597849"
       sodipodi:ry="1.3602352"
       d="M 6.3348098 8.4155903 A 2.0597849 1.3602352 0 1 1  2.21524,8.4155903 A 2.0597849 1.3602352 0 1 1  6.3348098 8.4155903 z"
       transform="matrix(0.485488,0,0,1.102752,1.924528,0.219693)" />
    <path
       sodipodi:type="arc"
       style="opacity:1;fill:#e9b96e;fill-opacity:1;fill-rule:evenodd;stroke:#8f5902;stroke-width:1.13079917;stroke-miterlimit:4;stroke-dasharray:none;stroke-opacity:1"
       id="path3344"
       sodipodi:cx="5.5769644"
       sodipodi:cy="5.3647771"
       sodipodi:rx="3.5560436"
       sodipodi:ry="3.2451327"
       d="M 9.133008 5.3647771 A 3.5560436 3.2451327 0 1 1  2.0209208,5.3647771 A 3.5560436 3.2451327 0 1 1  9.133008 5.3647771 z"
       transform="matrix(0.844787,0,0,0.925724,14.78507,4.53011)" />
    <path
       sodipodi:type="arc"
       style="opacity:0.3;fill:#2e3436;fill-opacity:1;fill-rule:evenodd;stroke:none;stroke-width:1;stroke-miterlimit:4;stroke-dasharray:none;stroke-opacity:1"
       id="path3361"
       sodipodi:cx="4.2750249"
       sodipodi:cy="8.4155903"
       sodipodi:rx="2.0597849"
       sodipodi:ry="1.3602352"
       d="M 6.3348098 8.4155903 A 2.0597849 1.3602352 0 1 1  2.21524,8.4155903 A 2.0597849 1.3602352 0 1 1  6.3348098 8.4155903 z"
       transform="matrix(0.485488,0,0,1.102752,17.92453,0.219689)" />
    <path
       sodipodi:type="arc"
       style="opacity:0.6;fill:url(#radialGradient3363);fill-opacity:1;stroke:none;stroke-width:1;stroke-miterlimit:4;stroke-dasharray:none;stroke-opacity:1"
       id="path3140"
       sodipodi:cx="10.748654"
       sodipodi:cy="10.457643"
       sodipodi:rx="6.6449099"
       sodipodi:ry="2.3675451"
       d="M 17.393564 10.457643 A 6.6449099 2.3675451 0 1 1  4.1037445,10.457643 A 6.6449099 2.3675451 0 1 1  17.393564 10.457643 z"
       transform="matrix(1.504911,0,0,1.478325,-4.175766,4.04021)" />
    <path
       style="opacity:1;fill:#c17d11;fill-opacity:1;fill-rule:evenodd;stroke:none;stroke-width:1;stroke-miterlimit:4;stroke-dasharray:none;stroke-opacity:1"
       d="M 11.531261,1.5042064 C 7.6154245,1.7314527 4.5001995,4.7251965 4.5001994,8.3637638 C 4.5001994,9.8058793 5.007242,11.117472 5.8394492,12.222265 C 5.8437171,12.227932 5.8351635,12.249589 5.8394492,12.255243 C 5.0072419,13.105084 4.5001994,14.114002 4.5001994,15.223322 C 4.5001994,18.135995 7.8601089,20.499904 11.999998,20.499905 C 16.139888,20.499905 19.499798,18.135995 19.499797,15.223322 C 19.499797,14.114002 18.992755,13.105084 18.160547,12.255243 C 18.156281,12.250886 18.164833,12.226613 18.160547,12.222265 C 18.992755,11.117472 19.499797,9.8058793 19.499797,8.3637638 C 19.499797,4.5772876 16.139888,1.5042064 11.999998,1.5042064 C 11.838282,1.5042064 11.69044,1.4949687 11.531261,1.5042064 z "
       id="path3369" />
    <path
       style="fill:none;fill-opacity:1;fill-rule:evenodd;stroke:#8f5902;stroke-width:1;stroke-miterlimit:4;stroke-opacity:1"
       d="M 11.531261,1.5042064 C 7.6154245,1.7314527 4.5001995,4.7251965 4.5001994,8.3637638 C 4.5001994,9.8058793 5.007242,11.117472 5.8394492,12.222265 C 5.8437171,12.227932 5.8351635,12.249589 5.8394492,12.255243 C 5.0072419,13.105084 4.5001994,14.114002 4.5001994,15.223322 C 4.5001994,18.135995 7.8601089,20.499904 11.999998,20.499905 C 16.139888,20.499905 19.499798,18.135995 19.499797,15.223322 C 19.499797,14.114002 18.992755,13.105084 18.160547,12.255243 C 18.156281,12.250886 18.164833,12.226613 18.160547,12.222265 C 18.992755,11.117472 19.499797,9.8058793 19.499797,8.3637638 C 19.499797,4.5772876 16.139888,1.5042064 11.999998,1.5042064 C 11.838282,1.5042064 11.69044,1.4949687 11.531261,1.5042064 z "
       id="path3346" />
    <path
       sodipodi:type="inkscape:offset"
       inkscape:radius="-1.0160223"
       inkscape:original="M 11.53125 1.5 C 7.6154131 1.7272463 4.5000001 4.7364327 4.5 8.375 C 4.5000001 9.8171155 5.0115428 11.113957 5.84375 12.21875 C 5.8480177 12.224417 5.8394643 12.244346 5.84375 12.25 C 5.0115425 13.099841 4.5 14.10943 4.5 15.21875 C 4.5000001 18.131423 7.8601109 20.499999 12 20.5 C 16.13989 20.5 19.500001 18.131423 19.5 15.21875 C 19.499999 14.10943 18.988458 13.099841 18.15625 12.25 C 18.151984 12.245643 18.160536 12.223098 18.15625 12.21875 C 18.988458 11.113957 19.5 9.8171155 19.5 8.375 C 19.499999 4.5885238 16.13989 1.5 12 1.5 C 11.838284 1.5 11.690429 1.4907623 11.53125 1.5 z "
       xlink:href="#path3346"
       style="fill:url(#radialGradient3396);fill-opacity:1.0;fill-rule:evenodd;stroke:url(#linearGradient3404);stroke-width:1;stroke-miterlimit:4;stroke-opacity:1;opacity:0.3"
       id="path3380"
       inkscape:href="#path3346"
       d="M 11.59375,2.5 C 8.1646974,2.6989969 5.5312501,5.3163916 5.53125,8.375 C 5.5312501,9.5768487 5.9335557,10.63434 6.65625,11.59375 C 6.6562747,11.593783 6.6540516,11.621014 6.65625,11.625 C 6.6788012,11.65507 6.6996666,11.686368 6.71875,11.71875 C 6.7344519,11.747289 6.7362224,11.756194 6.75,11.78125 C 6.7501602,11.791666 6.7501602,11.802084 6.75,11.8125 C 6.7630945,11.836129 6.7812935,11.875114 6.78125,11.875 C 6.8049274,11.915183 6.8258101,11.956948 6.84375,12 C 6.8504527,12.025375 6.8410898,12.046527 6.84375,12.0625 C 6.8463153,12.104127 6.8463153,12.145873 6.84375,12.1875 C 6.8443616,12.217488 6.8760288,12.26023 6.875,12.28125 C 6.8703237,12.376794 6.8442678,12.403152 6.84375,12.40625 C 6.811842,12.618774 6.7133743,12.815709 6.5625,12.96875 C 5.8661073,13.679898 5.53125,14.421777 5.53125,15.21875 C 5.53125,16.284386 6.1223837,17.308698 7.28125,18.125 C 8.4401163,18.941302 10.123823,19.46875 12,19.46875 C 13.876178,19.46875 15.559884,18.941302 16.71875,18.125 C 17.877616,17.308698 18.46875,16.284386 18.46875,15.21875 C 18.468749,14.421775 18.133893,13.679898 17.4375,12.96875 C 17.437403,12.968651 17.410058,12.896236 17.375,12.84375 C 17.35327,12.823833 17.332417,12.80298 17.3125,12.78125 C 17.282619,12.736495 17.26252,12.706281 17.25,12.6875 C 17.245163,12.680244 17.21877,12.656296 17.21875,12.65625 C 17.216997,12.65365 17.218738,12.624973 17.21875,12.625 C 17.218773,12.625053 17.22075,12.600455 17.21875,12.59375 C 17.199761,12.529745 17.156317,12.437883 17.15625,12.4375 C 17.15616,12.436987 17.160019,12.362661 17.15625,12.3125 C 17.148378,12.239796 17.148378,12.166454 17.15625,12.09375 C 17.157025,12.090066 17.156128,12.063265 17.15625,12.0625 C 17.17832,11.892964 17.242811,11.731738 17.34375,11.59375 C 18.066445,10.634341 18.46875,9.576849 18.46875,8.375 C 18.468749,5.1896007 15.634561,2.53125 12,2.53125 C 11.799592,2.53125 11.677489,2.4951403 11.59375,2.5 z " />
    <path
       sodipodi:type="arc"
       style="opacity:1;fill:#e9b96e;fill-opacity:1;fill-rule:evenodd;stroke:none;stroke-width:1;stroke-miterlimit:4;stroke-dasharray:none;stroke-opacity:1"
       id="path3357"
       sodipodi:cx="10.279492"
       sodipodi:cy="9.8535538"
       sodipodi:rx="1.1076201"
       sodipodi:ry="1.7100101"
       d="M 11.387112 9.8535538 A 1.1076201 1.7100101 0 1 1  9.1718723,9.8535538 A 1.1076201 1.7100101 0 1 1  11.387112 9.8535538 z"
       transform="matrix(5.417018,0,0,2.339168,-43.6842,-8.049118)" />
    <path
       style="opacity:1;fill:#2e3436;fill-opacity:1;stroke:none;stroke-width:1;stroke-miterlimit:4;stroke-dasharray:none;stroke-opacity:1"
       d="M 17,14 C 16.413519,16.283765 14.403819,18 12,18 C 9.596182,18 7.586481,16.283765 7,14 C 8.053747,15.478811 9.904443,17.044402 12,17.044402 C 14.095556,17.044403 15.946253,15.478811 17,14 z "
       id="path2186"
       sodipodi:nodetypes="cscsc" />
    <path
       sodipodi:type="arc"
       style="opacity:1;fill:#e9b96e;fill-opacity:1;fill-rule:evenodd;stroke:none;stroke-width:1;stroke-miterlimit:4;stroke-dasharray:none;stroke-opacity:1"
       id="path3353"
       sodipodi:cx="10.279492"
       sodipodi:cy="9.8535538"
       sodipodi:rx="1.1076201"
       sodipodi:ry="1.7100101"
       d="M 11.387112 9.8535538 A 1.1076201 1.7100101 0 1 1  9.1718723,9.8535538 A 1.1076201 1.7100101 0 1 1  11.387112 9.8535538 z"
       transform="matrix(2.70851,0,0,1.754377,-17.8421,-7.286849)" />
    <path
       sodipodi:type="arc"
       style="opacity:1;fill:#2e3436;fill-opacity:1;fill-rule:evenodd;stroke:none;stroke-width:1;stroke-miterlimit:4;stroke-dasharray:none;stroke-opacity:1"
       id="path3337"
       sodipodi:cx="10.279492"
       sodipodi:cy="9.8535538"
       sodipodi:rx="1.1076201"
       sodipodi:ry="1.7100101"
       d="M 11.387112 9.8535538 A 1.1076201 1.7100101 0 1 1  9.1718723,9.8535538 A 1.1076201 1.7100101 0 1 1  11.387112 9.8535538 z"
       transform="matrix(0.902836,0,0,1.169584,0.719304,-1.524558)" />
    <path
       sodipodi:type="arc"
       style="opacity:1;fill:#e9b96e;fill-opacity:1;fill-rule:evenodd;stroke:none;stroke-width:1;stroke-miterlimit:4;stroke-dasharray:none;stroke-opacity:1"
       id="path3355"
       sodipodi:cx="10.279492"
       sodipodi:cy="9.8535538"
       sodipodi:rx="1.1076201"
       sodipodi:ry="1.7100101"
       d="M 11.387112 9.8535538 A 1.1076201 1.7100101 0 1 1  9.1718723,9.8535538 A 1.1076201 1.7100101 0 1 1  11.387112 9.8535538 z"
       transform="matrix(2.70851,0,0,1.754377,-13.84211,-7.286846)" />
    <path
       sodipodi:type="arc"
       style="opacity:1;fill:#2e3436;fill-opacity:1;fill-rule:evenodd;stroke:none;stroke-width:1;stroke-miterlimit:4;stroke-dasharray:none;stroke-opacity:1"
       id="path3340"
       sodipodi:cx="10.279492"
       sodipodi:cy="9.8535538"
       sodipodi:rx="1.1076201"
       sodipodi:ry="1.7100101"
       d="M 11.387112 9.8535538 A 1.1076201 1.7100101 0 1 1  9.1718723,9.8535538 A 1.1076201 1.7100101 0 1 1  11.387112 9.8535538 z"
       transform="matrix(0.902836,0,0,1.169584,4.719305,-1.524559)" />
    <path
       sodipodi:type="arc"
       style="opacity:1;fill:#8f5902;fill-opacity:1;fill-rule:evenodd;stroke:none;stroke-width:1;stroke-miterlimit:4;stroke-dasharray:none;stroke-opacity:1"
       id="path3365"
       sodipodi:cx="8.6860733"
       sodipodi:cy="3.6936309"
       sodipodi:rx="0.44693443"
       sodipodi:ry="0.40807056"
       d="M 9.1330077 3.6936309 A 0.44693443 0.40807056 0 1 1  8.2391389,3.6936309 A 0.44693443 0.40807056 0 1 1  9.1330077 3.6936309 z"
       transform="matrix(1.118731,0,0,1.225279,0.782621,8.974271)" />
    <path
       sodipodi:type="arc"
       style="opacity:1;fill:#8f5902;fill-opacity:1;fill-rule:evenodd;stroke:none;stroke-width:1;stroke-miterlimit:4;stroke-dasharray:none;stroke-opacity:1"
       id="path3367"
       sodipodi:cx="8.6860733"
       sodipodi:cy="3.6936309"
       sodipodi:rx="0.44693443"
       sodipodi:ry="0.40807056"
       d="M 9.1330077 3.6936309 A 0.44693443 0.40807056 0 1 1  8.2391389,3.6936309 A 0.44693443 0.40807056 0 1 1  9.1330077 3.6936309 z"
       transform="matrix(1.118731,0,0,1.225279,3.78262,8.974272)" />
  </g>
</svg>
