<?xml version="1.0" encoding="UTF-8" standalone="no"?>
<!-- Created with Inkscape (http://www.inkscape.org/) -->
<svg
   xmlns:dc="http://purl.org/dc/elements/1.1/"
   xmlns:cc="http://creativecommons.org/ns#"
   xmlns:rdf="http://www.w3.org/1999/02/22-rdf-syntax-ns#"
   xmlns:svg="http://www.w3.org/2000/svg"
   xmlns="http://www.w3.org/2000/svg"
   xmlns:xlink="http://www.w3.org/1999/xlink"
   xmlns:sodipodi="http://sodipodi.sourceforge.net/DTD/sodipodi-0.dtd"
   xmlns:inkscape="http://www.inkscape.org/namespaces/inkscape"
   width="24"
   height="24"
   id="svg2"
   sodipodi:version="0.32"
   inkscape:version="0.46"
   version="1.0"
   sodipodi:docbase="/home/hbons/Desktop/Gaim Refresh/emotes"
   sodipodi:docname="moon.svg"
   inkscape:export-filename="/home/hbons/Desktop/Pidgin objects refresh/moon.png"
   inkscape:export-xdpi="90"
   inkscape:export-ydpi="90"
   inkscape:output_extension="org.inkscape.output.svg.inkscape">
  <defs
     id="defs4">
    <linearGradient
       inkscape:collect="always"
       id="linearGradient3737">
      <stop
         style="stop-color:#ffffff;stop-opacity:1"
         offset="0"
         id="stop3739" />
      <stop
         style="stop-color:#eeeeec;stop-opacity:0;"
         offset="1"
         id="stop3741" />
    </linearGradient>
    <linearGradient
       inkscape:collect="always"
       id="linearGradient3461">
      <stop
         style="stop-color:#4079c3;stop-opacity:1"
         offset="0"
         id="stop3463" />
      <stop
         style="stop-color:#193a6b;stop-opacity:1"
         offset="1"
         id="stop3465" />
    </linearGradient>
    <linearGradient
       inkscape:collect="always"
       id="linearGradient3388">
      <stop
         style="stop-color:#ffffff;stop-opacity:1;"
         offset="0"
         id="stop3390" />
      <stop
         style="stop-color:#ffffff;stop-opacity:0;"
         offset="1"
         id="stop3392" />
    </linearGradient>
    <linearGradient
       inkscape:collect="always"
       id="linearGradient2413">
      <stop
         style="stop-color:#eeeeec;stop-opacity:1;"
         offset="0"
         id="stop2415" />
      <stop
         style="stop-color:#eeeeec;stop-opacity:0;"
         offset="1"
         id="stop2417" />
    </linearGradient>
    <linearGradient
       inkscape:collect="always"
       id="linearGradient3150">
      <stop
         style="stop-color:#2e3436;stop-opacity:1;"
         offset="0"
         id="stop3152" />
      <stop
         style="stop-color:#2e3436;stop-opacity:0;"
         offset="1"
         id="stop3154" />
    </linearGradient>
    <linearGradient
       inkscape:collect="always"
       xlink:href="#linearGradient2413"
       id="linearGradient2419"
       x1="7.7396398"
       y1="5.0836968"
       x2="7.7396398"
       y2="14.889788"
       gradientUnits="userSpaceOnUse"
       gradientTransform="matrix(0.847674,0,0,0.882201,25.482048,0.4439762)" />
    <radialGradient
       inkscape:collect="always"
       xlink:href="#linearGradient3150"
       id="radialGradient1355"
       gradientUnits="userSpaceOnUse"
       gradientTransform="matrix(-0.842757,0,0,-0.35721,19.80716,14.19321)"
       cx="10.748654"
       cy="10.457643"
       fx="10.748654"
       fy="10.457643"
       r="6.6449099" />
    <linearGradient
       inkscape:collect="always"
       xlink:href="#linearGradient3388"
       id="linearGradient3394"
       x1="0.5112077"
       y1="-8.9932013"
       x2="19.948185"
       y2="35.617439"
       gradientUnits="userSpaceOnUse" />
    <linearGradient
       inkscape:collect="always"
       xlink:href="#linearGradient3461"
       id="linearGradient3467"
       x1="9.5"
       y1="11.625"
       x2="11.6875"
       y2="19.4375"
       gradientUnits="userSpaceOnUse" />
    <filter
       inkscape:collect="always"
       id="filter3733"
       x="-0.19390863"
       width="1.3878173"
       y="-0.47610088"
       height="1.9522018">
      <feGaussianBlur
         inkscape:collect="always"
         stdDeviation="1.0163465"
         id="feGaussianBlur3735" />
    </filter>
    <linearGradient
       inkscape:collect="always"
       xlink:href="#linearGradient3737"
       id="linearGradient3743"
       x1="0.53125"
       y1="7.625"
       x2="7.71875"
       y2="16.125"
       gradientUnits="userSpaceOnUse" />
  </defs>
  <sodipodi:namedview
     id="base"
     pagecolor="#ffffff"
     bordercolor="#666666"
     borderopacity="1.0"
     inkscape:pageopacity="0.0"
     inkscape:pageshadow="2"
     inkscape:zoom="16"
     inkscape:cx="15.715859"
     inkscape:cy="12.088948"
     inkscape:document-units="px"
     inkscape:current-layer="layer1"
     showgrid="true"
     fill="#eeeeec"
     inkscape:window-width="1440"
     inkscape:window-height="845"
     inkscape:window-x="0"
     inkscape:window-y="24"
     inkscape:snap-bbox="true"
     inkscape:snap-nodes="false"
     objecttolerance="13"
     gridtolerance="13">
    <inkscape:grid
       type="xygrid"
       id="grid2492"
       empspacing="5"
       visible="true"
       enabled="true" />
  </sodipodi:namedview>
  <metadata
     id="metadata7">
    <rdf:RDF>
      <cc:Work
         rdf:about="">
        <dc:format>image/svg+xml</dc:format>
        <dc:type
           rdf:resource="http://purl.org/dc/dcmitype/StillImage" />
      </cc:Work>
    </rdf:RDF>
  </metadata>
  <g
     inkscape:label="Layer 1"
     inkscape:groupmode="layer"
     id="layer1">
    <path
       sodipodi:type="arc"
       style="opacity:0.5;color:#000000;fill:#2e3436;fill-opacity:1;fill-rule:nonzero;stroke:none;stroke-width:1;marker:none;marker-start:none;marker-mid:none;marker-end:none;visibility:visible;display:inline;overflow:visible;enable-background:accumulate;filter:url(#filter3733)"
       id="path3310"
       sodipodi:cx="10.621581"
       sodipodi:cy="20.730219"
       sodipodi:rx="6.2896419"
       sodipodi:ry="2.5616753"
       d="m 16.911223,20.730219 a 6.2896419,2.5616753 0 1 1 -12.579284,0 6.2896419,2.5616753 0 1 1 12.579284,0 z"
       transform="matrix(1.2719325,0,0,0.9759238,-0.5099337,0.2688852)" />
    <path
       sodipodi:type="arc"
       style="opacity:0.6;fill:url(#radialGradient1355);fill-opacity:1;stroke:none"
       id="path3140"
       sodipodi:cx="10.748654"
       sodipodi:cy="10.457643"
       sodipodi:rx="6.6449099"
       sodipodi:ry="2.3675451"
       d="m 17.393564,10.457643 a 6.6449099,2.3675451 0 1 1 -13.28982,0 6.6449099,2.3675451 0 1 1 13.28982,0 z"
       transform="matrix(1.730649,0,0,1.478324,17.897845,3.0402172)" />
    <path
       style="opacity:1;fill:#729fcf;fill-opacity:1;stroke:#3465a4;stroke-width:1.05276573;stroke-miterlimit:4;stroke-opacity:1;stroke-dasharray:none"
       d="M 35.555834,2.5359271 C 31.083747,2.762817 27.532679,6.4758887 27.532679,11.003177 c 0,4.673331 3.7946527,8.467251 8.4688873,8.467251 4.674233,0 8.468885,-3.793919 8.468886,-8.467251 0,-0.17396 -0.017496,-0.357831 -0.027859,-0.529203 -0.393773,2.566935 -2.608781,4.540006 -5.293054,4.540006 -2.961955,-1e-06 -5.3766283,-2.394765 -5.3766283,-5.347737 4e-07,-2.9529715 2.4146733,-5.3477371 5.3766283,-5.3477371 1.133875,0 2.169779,0.347807 3.036541,0.9469952 -1.546895,-1.6679323 -3.73176,-2.7295742 -6.184514,-2.7295742 -0.14607,0 -0.301471,-0.0073189 -0.445732,0 z"
       id="path1307" />
    <path
       style="opacity:0.6;fill:url(#linearGradient2419);fill-opacity:1;stroke:#ffffff;stroke-width:1.05276585;stroke-miterlimit:4;stroke-opacity:1"
       d="M 37.153364,3.6982121 C 31.928572,2.5889417 28.501888,7.0393162 28.501888,11.030388 c 0,4.118374 3.1950586,7.44357 7.1522528,7.44357 2.486485,0 4.948019,-1.018533 6.229129,-3.016081 -0.861694,0.50003 -2.181386,0.479754 -3.23578,0.479754 C 35.345471,15.93763 32.6343,13.140829 32.6343,9.7070872 32.634301,6.9368557 34.717127,4.0345749 37.153364,3.6982121 z"
       id="path2408"
       sodipodi:nodetypes="csscssc" />
    <path
       style="opacity:1;color:#000000;fill:#94b6db;fill-opacity:1;fill-rule:nonzero;stroke:url(#linearGradient3467);stroke-width:0.99999994000000003;stroke-miterlimit:4;stroke-opacity:1;stroke-dasharray:none;marker:none;marker-start:none;marker-mid:none;marker-end:none;visibility:visible;display:inline;overflow:visible;enable-background:accumulate"
       d="M 12,2.5 C 8.5361451,2.5 2.5,6.7559999 2.5,12 c -5e-08,5.2440001 4.2559997,9.499999 9.5,9.5 5.244,0 9.499999,-4.256001 9.5,-9.5 0,-1.308479 -0.269317,-2.558237 -0.75,-3.6875 l -0.375,0 C 20.454228,8.6976723 20.5,9.0903487 20.5,9.5 c 0,3.312 -2.688,6 -6,6 -3.312,0 -6,-2.688 -6,-6 9.9999999e-08,-3.3120001 2.688,-6 6,-6 l 2.125,0.21875 C 15.258407,2.9479818 15.463855,2.5 12,2.5 z"
       id="path3264"
       sodipodi:nodetypes="czssccsssccz" />
    <path
       sodipodi:type="inkscape:offset"
       inkscape:radius="-0.97339487"
       inkscape:original="M 12 2.5 C 6.7560002 2.5 2.5000001 6.7559998 2.5 12 C 2.5 17.244 6.7559997 21.499999 12 21.5 C 17.244 21.5 21.499999 17.243999 21.5 12 C 21.5 9.7882886 20.737703 7.7712901 19.46875 6.15625 C 20.115906 7.1139063 20.5 8.258 20.5 9.5 C 20.5 12.812 17.812 15.5 14.5 15.5 C 11.188 15.5 8.5 12.812 8.5 9.5 C 8.5000001 6.1879999 11.188 3.5 14.5 3.5 C 15.742 3.5 16.886094 3.8840937 17.84375 4.53125 C 16.22871 3.2622968 14.211711 2.5 12 2.5 z "
       style="opacity:1;color:#000000;fill:url(#linearGradient3743);stroke:url(#linearGradient3394);stroke-width:0.99999994000000003;stroke-miterlimit:4;stroke-opacity:1;stroke-dasharray:none;marker:none;marker-start:none;marker-mid:none;marker-end:none;visibility:visible;display:inline;overflow:visible;enable-background:accumulate;fill-opacity:1"
       id="path3386"
       d="M 10.8125,3.71875 C 6.687694,4.3194439 3.4687501,7.7056979 3.46875,12 c 0,4.717332 3.8139172,8.531249 8.53125,8.53125 4.294302,0 7.680556,-3.218944 8.28125,-7.34375 C 19.039128,15.122163 16.959726,16.46875 14.5,16.46875 10.661332,16.46875 7.53125,13.338668 7.53125,9.5 7.5312501,7.0402737 8.8778371,4.9608719 10.8125,3.71875 z" />
  </g>
</svg>
