<?xml version="1.0" encoding="UTF-8" standalone="no"?>
<!-- Created with Inkscape (http://www.inkscape.org/) -->
<svg
   xmlns:dc="http://purl.org/dc/elements/1.1/"
   xmlns:cc="http://creativecommons.org/ns#"
   xmlns:rdf="http://www.w3.org/1999/02/22-rdf-syntax-ns#"
   xmlns:svg="http://www.w3.org/2000/svg"
   xmlns="http://www.w3.org/2000/svg"
   xmlns:xlink="http://www.w3.org/1999/xlink"
   xmlns:sodipodi="http://sodipodi.sourceforge.net/DTD/sodipodi-0.dtd"
   xmlns:inkscape="http://www.inkscape.org/namespaces/inkscape"
   width="24"
   height="24"
   id="svg2"
   sodipodi:version="0.32"
   inkscape:version="0.46"
   version="1.0"
   sodipodi:docbase="/home/hbons/Desktop/Gaim Refresh/emotes"
   sodipodi:docname="phone.svg"
   inkscape:export-filename="/home/hbons/Desktop/Pidgin objects refresh/phone.png"
   inkscape:export-xdpi="90"
   inkscape:export-ydpi="90"
   inkscape:output_extension="org.inkscape.output.svg.inkscape">
  <defs
     id="defs4">
    <linearGradient
       inkscape:collect="always"
       id="linearGradient3269">
      <stop
         style="stop-color:#ba9800;stop-opacity:1"
         offset="0"
         id="stop3271" />
      <stop
         style="stop-color:#655300;stop-opacity:1"
         offset="1"
         id="stop3273" />
    </linearGradient>
    <linearGradient
       inkscape:collect="always"
       id="linearGradient3560">
      <stop
         style="stop-color:#eeeeec;stop-opacity:1;"
         offset="0"
         id="stop3562" />
      <stop
         style="stop-color:#eeeeec;stop-opacity:0;"
         offset="1"
         id="stop3564" />
    </linearGradient>
    <linearGradient
       inkscape:collect="always"
       id="linearGradient3523">
      <stop
         style="stop-color:#555753;stop-opacity:1;"
         offset="0"
         id="stop3525" />
      <stop
         style="stop-color:#555753;stop-opacity:0;"
         offset="1"
         id="stop3527" />
    </linearGradient>
    <linearGradient
       inkscape:collect="always"
       xlink:href="#linearGradient3523"
       id="linearGradient3529"
       x1="2.5996325"
       y1="16.375282"
       x2="2.5996325"
       y2="7.3670158"
       gradientUnits="userSpaceOnUse"
       gradientTransform="matrix(1.1851852,0,0,1.1181261,0.8888888,-2.244396)" />
    <linearGradient
       inkscape:collect="always"
       xlink:href="#linearGradient3560"
       id="linearGradient3566"
       x1="10.924583"
       y1="10.99882"
       x2="16.652605"
       y2="15.8963"
       gradientUnits="userSpaceOnUse" />
    <linearGradient
       y2="18.585808"
       x2="16.335434"
       y1="5.2222023"
       x1="10.542698"
       gradientUnits="userSpaceOnUse"
       id="linearGradient3467"
       xlink:href="#linearGradient3269"
       inkscape:collect="always" />
    <filter
       inkscape:collect="always"
       id="filter3800"
       x="-0.30485725"
       width="1.6097145"
       y="-0.77230503"
       height="2.5446101">
      <feGaussianBlur
         inkscape:collect="always"
         stdDeviation="2.4817414"
         id="feGaussianBlur3802" />
    </filter>
  </defs>
  <sodipodi:namedview
     id="base"
     pagecolor="#ffffff"
     bordercolor="#666666"
     borderopacity="1.0"
     inkscape:pageopacity="0.0"
     inkscape:pageshadow="2"
     inkscape:zoom="16"
     inkscape:cx="16.048155"
     inkscape:cy="11.946327"
     inkscape:document-units="px"
     inkscape:current-layer="layer1"
     showgrid="false"
     fill="#eeeeec"
     inkscape:window-width="1268"
     inkscape:window-height="842"
     inkscape:window-x="4"
     inkscape:window-y="24"
     showguides="true"
     inkscape:guide-bbox="true"
     inkscape:snap-bbox="true"
     inkscape:snap-nodes="false"
     objecttolerance="12"
     gridtolerance="10">
    <inkscape:grid
       type="xygrid"
       id="grid2497"
       empspacing="5"
       visible="true"
       enabled="true" />
  </sodipodi:namedview>
  <metadata
     id="metadata7">
    <rdf:RDF>
      <cc:Work
         rdf:about="">
        <dc:format>image/svg+xml</dc:format>
        <dc:type
           rdf:resource="http://purl.org/dc/dcmitype/StillImage" />
      </cc:Work>
    </rdf:RDF>
  </metadata>
  <g
     inkscape:label="Layer 1"
     inkscape:groupmode="layer"
     id="layer1">
    <path
       sodipodi:type="arc"
       style="opacity:0.49;color:#000000;fill:#2e3436;fill-opacity:1;stroke:none;stroke-width:1;marker:none;marker-start:none;marker-mid:none;marker-end:none;visibility:visible;display:inline;overflow:visible;filter:url(#filter3800);enable-background:accumulate"
       id="path3277"
       sodipodi:cx="14.85886"
       sodipodi:cy="20.09248"
       sodipodi:rx="9.7688007"
       sodipodi:ry="3.8561056"
       d="m 24.627661,20.09248 a 9.7688007,3.8561056 0 1 1 -19.537601,0 9.7688007,3.8561056 0 1 1 19.537601,0 z"
       transform="matrix(0.8662568,0,0,0.3889935,0.7500074,12.684156)" />
    <path
       style="opacity:1;fill:url(#linearGradient3529);fill-opacity:1;stroke:none"
       d="M 7.9076923,6.001784 C 6.3699042,6.2920835 5.0522485,6.9836483 4.076923,7.8886219 2.7764892,9.0952542 2,10.723285 2,12.500892 2,14.2785 2.7764892,15.906531 4.076923,17.113163 5.0725677,18.03699 6.4216731,18.720898 8,19 L 8,17.951757 C 7.0876075,17.708076 5.9374774,17.404452 5.2249112,16.743285 4.1260137,15.723652 3.037379,14.118029 3.037379,12.500892 3.0373792,10.883756 4.0253454,7.919738 7.9742926,6.9214902 L 8,6.0017838 c -0.0322108,0.005696 -0.0602705,-0.0060479 -0.0923077,0 z"
       id="path3513"
       sodipodi:nodetypes="csssccsscccc" />
    <path
       style="font-size:246.43353271000003701px;font-style:normal;font-variant:normal;font-weight:bold;font-stretch:normal;text-align:start;line-height:125%;writing-mode:lr-tb;text-anchor:start;opacity:1;fill:#edd400;fill-opacity:1;stroke:url(#linearGradient3467);stroke-width:1;stroke-linecap:butt;stroke-linejoin:miter;stroke-miterlimit:4;stroke-opacity:1;stroke-dasharray:none;font-family:Arial"
       d="m 6.6581631,17.913435 c -1.016351,3.049699 3.1105245,4.518643 5.3563896,2.953442 2.37927,-1.026884 7.864058,-10.686925 8.449741,-13.780421 C 20.844557,4.6747355 18.533737,0.4990922 15.202949,3.6042181 c -1.353938,1.9137183 -0.775497,4.1767447 0.450516,4.6713194 1.646023,0.6640073 2.827485,-0.2875551 -0.662128,4.9314115 -3.10616,4.958221 -1.99347,2.952442 -4.081103,2.50976 -1.4299473,-0.566122 -2.8978842,0.046803 -4.2520709,2.196726 z"
       id="text5002"
       sodipodi:nodetypes="ccccscccc" />
    <path
       sodipodi:type="inkscape:offset"
       inkscape:radius="-0.95559531"
       inkscape:original="M 17.46875 2.5 C 16.78966 2.5075086 16.020197 2.8174685 15.1875 3.59375 C 13.833562 5.5074684 14.430237 7.7866753 15.65625 8.28125 C 17.302273 8.9452573 18.489613 7.9997834 15 13.21875 C 11.89384 18.176971 12.993883 16.161432 10.90625 15.71875 C 9.4763022 15.152628 8.0104367 15.756327 6.65625 17.90625 C 5.639899 20.955949 9.7541349 22.440201 12 20.875 C 14.37927 19.848116 19.883067 10.187246 20.46875 7.09375 C 20.753947 5.2849598 19.506019 2.4774741 17.46875 2.5 z "
       xlink:href="#text5002"
       style="font-size:246.43353271000003701px;font-style:normal;font-variant:normal;font-weight:bold;font-stretch:normal;text-align:start;line-height:125%;writing-mode:lr-tb;text-anchor:start;opacity:0.82999999999999985;fill:url(#linearGradient3566);fill-opacity:1;stroke:#ffffff;stroke-width:1.00548291000000001px;stroke-linecap:butt;stroke-linejoin:miter;stroke-opacity:1;font-family:Arial"
       id="path3531"
       inkscape:href="#text5002"
       d="m 17.46875,3.46875 c -0.371955,0.0041127 -0.884626,0.183904 -1.53125,0.75 -0.420672,0.6016629 -0.565465,1.3077233 -0.46875,1.9375 0.100024,0.651328 0.458009,1.1667956 0.6875,1.3125 0.276439,0.175338 0.61251,0.3230338 0.9375,0.625 0.32499,0.3019662 0.617476,0.8479766 0.625,1.40625 0.015049,1.116547 -0.586848,2.193642 -1.90625,4.25 -1.147593,1.845805 -1.552594,2.671148 -2.53125,3.125 -0.489328,0.226926 -1.029323,0.184881 -1.40625,0.09375 -0.376927,-0.091131 -0.690691,-0.213778 -1.15625,-0.3125 C 10.66493,16.640052 10.612644,16.619137 10.5625,16.59375 10.059532,16.394623 9.6793502,16.416067 9.1875,16.65625 8.7222341,16.883451 8.1430549,17.43167 7.5625,18.3125 7.4249718,18.799361 7.4438932,19.144364 7.59375,19.4375 7.756086,19.755046 8.0622865,20.043916 8.5,20.25 9.375427,20.662168 10.68663,20.638829 11.46875,20.09375 11.517729,20.057595 11.57005,20.026202 11.625,20 c 0.217369,-0.093816 1.052264,-0.823802 1.875,-1.875 0.822736,-1.051198 1.735996,-2.404673 2.59375,-3.84375 1.715508,-2.878154 3.21261,-6.187163 3.4375,-7.375 C 19.628604,6.2888048 19.422262,5.3294637 19,4.59375 18.577738,3.8580363 18.046351,3.4623635 17.46875,3.46875 z"
       transform="matrix(0.9929258,0,0,0.9961714,8.330467e-2,4.4606506e-2)" />
  </g>
</svg>
