<?xml version="1.0" encoding="UTF-8" standalone="no"?>
<!-- Created with Inkscape (http://www.inkscape.org/) -->
<svg
   xmlns:dc="http://purl.org/dc/elements/1.1/"
   xmlns:cc="http://web.resource.org/cc/"
   xmlns:rdf="http://www.w3.org/1999/02/22-rdf-syntax-ns#"
   xmlns:svg="http://www.w3.org/2000/svg"
   xmlns="http://www.w3.org/2000/svg"
   xmlns:xlink="http://www.w3.org/1999/xlink"
   xmlns:sodipodi="http://inkscape.sourceforge.net/DTD/s odipodi-0.dtd"
   xmlns:inkscape="http://www.inkscape.org/namespaces/inkscape"
   width="24"
   height="24"
   id="svg2"
   sodipodi:version="0.32"
   inkscape:version="0.43"
   version="1.0"
   sodipodi:docbase="/home/hbons/Desktop/Gaim Refresh/emotes/scalable"
   sodipodi:docname="pig.svg"
   inkscape:export-filename="/home/hbons/Desktop/Gaim Refresh/pig.png"
   inkscape:export-xdpi="90"
   inkscape:export-ydpi="90">
  <defs
     id="defs4">
    <linearGradient
       inkscape:collect="always"
       id="linearGradient3150">
      <stop
         style="stop-color:#2e3436;stop-opacity:1;"
         offset="0"
         id="stop3152" />
      <stop
         style="stop-color:#2e3436;stop-opacity:0;"
         offset="1"
         id="stop3154" />
    </linearGradient>
    <linearGradient
       inkscape:collect="always"
       id="linearGradient3104">
      <stop
         style="stop-color:#eeeeec;stop-opacity:1;"
         offset="0"
         id="stop3106" />
      <stop
         style="stop-color:#eeeeec;stop-opacity:0;"
         offset="1"
         id="stop3108" />
    </linearGradient>
    <radialGradient
       inkscape:collect="always"
       xlink:href="#linearGradient3104"
       id="radialGradient3114"
       cx="8.3343515"
       cy="14.186539"
       fx="8.3343515"
       fy="14.186539"
       r="9.975256"
       gradientUnits="userSpaceOnUse"
       gradientTransform="matrix(-0.9327,0.932656,-0.947494,-0.947449,33.02126,11.96667)" />
    <radialGradient
       inkscape:collect="always"
       xlink:href="#linearGradient3150"
       id="radialGradient3156"
       cx="10.748654"
       cy="10.457643"
       fx="10.748654"
       fy="10.457643"
       r="6.6449099"
       gradientTransform="matrix(-0.842757,5.698892e-16,-4.565819e-9,-0.35721,19.80716,14.19321)"
       gradientUnits="userSpaceOnUse" />
  </defs>
  <sodipodi:namedview
     id="base"
     pagecolor="#ffffff"
     bordercolor="#666666"
     borderopacity="1.0"
     inkscape:pageopacity="0.0"
     inkscape:pageshadow="2"
     inkscape:zoom="25.730843"
     inkscape:cx="20.464884"
     inkscape:cy="12.462171"
     inkscape:document-units="px"
     inkscape:current-layer="layer1"
     showgrid="true"
     fill="#a40000"
     inkscape:window-width="1268"
     inkscape:window-height="971"
     inkscape:window-x="6"
     inkscape:window-y="21"
     showguides="true"
     inkscape:guide-bbox="true" />
  <metadata
     id="metadata7">
    <rdf:RDF>
      <cc:Work
         rdf:about="">
        <dc:format>image/svg+xml</dc:format>
        <dc:type
           rdf:resource="http://purl.org/dc/dcmitype/StillImage" />
      </cc:Work>
    </rdf:RDF>
  </metadata>
  <g
     inkscape:label="Layer 1"
     inkscape:groupmode="layer"
     id="layer1">
    <path
       sodipodi:type="arc"
       style="opacity:0.6;fill:url(#radialGradient3156);fill-opacity:1.0;stroke:none;stroke-width:1;stroke-miterlimit:4;stroke-dasharray:none;stroke-opacity:1"
       id="path3140"
       sodipodi:cx="10.748654"
       sodipodi:cy="10.457643"
       sodipodi:rx="6.6449099"
       sodipodi:ry="2.3675451"
       d="M 17.393564 10.457643 A 6.6449099 2.3675451 0 1 1  4.1037445,10.457643 A 6.6449099 2.3675451 0 1 1  17.393564 10.457643 z"
       transform="matrix(1.504911,0,0,1.300982,-4.175772,6.474929)" />
    <path
       style="opacity:1;fill:#f8a0a0;fill-opacity:1;stroke:#ff3b3b;stroke-width:1.05276573;stroke-miterlimit:4;stroke-dasharray:none;stroke-opacity:1"
       d="M 1.8393143,2.6270521 L 3.84375,7.125 C 2.9890436,8.5504761 2.5,10.218085 2.5,12 C 2.5,17.243336 6.7566635,21.5 12,21.5 C 17.243336,21.5 21.499999,17.243337 21.5,12 C 21.5,10.218085 21.01114,8.5506594 20.15625,7.125 L 22.160686,2.6659159 L 16.34375,3.53125 C 15.041615,2.8599284 13.564808,2.5 12,2.5 C 10.435192,2.5 8.9582347,2.8600786 7.65625,3.53125 L 1.8393143,2.6270521 z "
       id="path1307"
       sodipodi:nodetypes="ccssscccscc" />
    <path
       sodipodi:type="arc"
       style="opacity:0.79545455;fill:url(#radialGradient3114);fill-opacity:1.0;stroke:none;stroke-width:1.05274069;stroke-miterlimit:4;stroke-dasharray:none;stroke-opacity:1"
       id="path3102"
       sodipodi:cx="11.806158"
       sodipodi:cy="10.983024"
       sodipodi:rx="9.975256"
       sodipodi:ry="9.975256"
       d="M 21.781414 10.983024 A 9.975256 9.975256 0 1 1  1.8309021,10.983024 A 9.975256 9.975256 0 1 1  21.781414 10.983024 z"
       transform="matrix(0.8019,0,0,0.801938,2.532654,3.191833)" />
    <path
       sodipodi:type="arc"
       style="opacity:0.5;fill:none;fill-opacity:1.0;stroke:#ffffff;stroke-width:1.17343897;stroke-miterlimit:4;stroke-dasharray:none;stroke-opacity:1"
       id="path2184"
       sodipodi:cx="11.806158"
       sodipodi:cy="10.983024"
       sodipodi:rx="9.975256"
       sodipodi:ry="9.975256"
       d="M 21.781414 10.983024 A 9.975256 9.975256 0 1 1  1.8309021,10.983024 A 9.975256 9.975256 0 1 1  21.781414 10.983024 z"
       transform="matrix(0.852176,0,0,0.852216,1.93909,2.639626)" />
    <path
       sodipodi:type="arc"
       style="opacity:1;fill:#2e3436;fill-opacity:1;stroke:none;stroke-width:1;stroke-miterlimit:4;stroke-dasharray:none;stroke-opacity:1"
       id="path2191"
       sodipodi:cx="9.0598059"
       sodipodi:cy="8.7845774"
       sodipodi:rx="1.1679889"
       sodipodi:ry="1.4520943"
       d="M 10.227795 8.7845774 A 1.1679889 1.4520943 0 1 1  7.891817,8.7845774 A 1.1679889 1.4520943 0 1 1  10.227795 8.7845774 z"
       transform="matrix(0.856173,0,0,1.377321,2.243239,-2.099183)" />
    <path
       sodipodi:type="arc"
       style="opacity:1;fill:#2e3436;fill-opacity:1;stroke:none;stroke-width:1;stroke-miterlimit:4;stroke-dasharray:none;stroke-opacity:1"
       id="path2193"
       sodipodi:cx="9.0598059"
       sodipodi:cy="8.7845774"
       sodipodi:rx="1.1679889"
       sodipodi:ry="1.4520943"
       d="M 10.227795 8.7845774 A 1.1679889 1.4520943 0 1 1  7.891817,8.7845774 A 1.1679889 1.4520943 0 1 1  10.227795 8.7845774 z"
       transform="matrix(0.856173,0,0,1.377321,6.243238,-2.099183)" />
    <path
       sodipodi:type="arc"
       style="opacity:1;fill:#f8a0a0;fill-opacity:1;stroke:#ff3b3b;stroke-width:3.02125144;stroke-miterlimit:4;stroke-dasharray:none;stroke-opacity:1"
       id="path2795"
       sodipodi:cx="11.806158"
       sodipodi:cy="10.983024"
       sodipodi:rx="9.975256"
       sodipodi:ry="9.975256"
       d="M 21.781414 10.983024 A 9.975256 9.975256 0 1 1  1.8309021,10.983024 A 9.975256 9.975256 0 1 1  21.781414 10.983024 z"
       transform="matrix(0.441816,0,0,0.249193,6.81522,11.26311)" />
    <path
       sodipodi:type="arc"
       style="opacity:1;fill:#a40000;fill-opacity:1;stroke:none;stroke-width:1;stroke-miterlimit:4;stroke-dasharray:none;stroke-opacity:1"
       id="path2803"
       sodipodi:cx="9.0598059"
       sodipodi:cy="8.7845774"
       sodipodi:rx="1.1679889"
       sodipodi:ry="1.4520943"
       d="M 10.227795 8.7845774 A 1.1679889 1.4520943 0 1 1  7.891817,8.7845774 A 1.1679889 1.4520943 0 1 1  10.227795 8.7845774 z"
       transform="matrix(0.428086,0,0,0.68866,6.621622,7.950414)" />
    <path
       sodipodi:type="arc"
       style="opacity:1;fill:#a40000;fill-opacity:1;stroke:none;stroke-width:1;stroke-miterlimit:4;stroke-dasharray:none;stroke-opacity:1"
       id="path2805"
       sodipodi:cx="9.0598059"
       sodipodi:cy="8.7845774"
       sodipodi:rx="1.1679889"
       sodipodi:ry="1.4520943"
       d="M 10.227795 8.7845774 A 1.1679889 1.4520943 0 1 1  7.891817,8.7845774 A 1.1679889 1.4520943 0 1 1  10.227795 8.7845774 z"
       transform="matrix(0.428087,0,0,0.68866,9.621616,7.950412)" />
  </g>
</svg>
