<?xml version="1.0" encoding="UTF-8" standalone="no"?>
<!-- Created with Inkscape (http://www.inkscape.org/) -->
<svg
   xmlns:dc="http://purl.org/dc/elements/1.1/"
   xmlns:cc="http://creativecommons.org/ns#"
   xmlns:rdf="http://www.w3.org/1999/02/22-rdf-syntax-ns#"
   xmlns:svg="http://www.w3.org/2000/svg"
   xmlns="http://www.w3.org/2000/svg"
   xmlns:xlink="http://www.w3.org/1999/xlink"
   xmlns:sodipodi="http://sodipodi.sourceforge.net/DTD/sodipodi-0.dtd"
   xmlns:inkscape="http://www.inkscape.org/namespaces/inkscape"
   width="24"
   height="24"
   id="svg2"
   sodipodi:version="0.32"
   inkscape:version="0.46"
   version="1.0"
   sodipodi:docbase="/home/hbons/Desktop/untitled folder 1"
   sodipodi:docname="pissed-off.svg"
   inkscape:export-filename="/home/hbons/Desktop/newstyle.png"
   inkscape:export-xdpi="90"
   inkscape:export-ydpi="90"
   inkscape:output_extension="org.inkscape.output.svg.inkscape">
  <defs
     id="defs4">
    <linearGradient
       inkscape:collect="always"
       id="linearGradient3104">
      <stop
         style="stop-color:#eeeeec;stop-opacity:1;"
         offset="0"
         id="stop3106" />
      <stop
         style="stop-color:#eeeeec;stop-opacity:0;"
         offset="1"
         id="stop3108" />
    </linearGradient>
    <radialGradient
       inkscape:collect="always"
       xlink:href="#linearGradient3104"
       id="radialGradient3114"
       cx="8.7359829"
       cy="18.005522"
       fx="8.7359829"
       fy="18.005522"
       r="9.975256"
       gradientUnits="userSpaceOnUse"
       gradientTransform="matrix(-1.3308754,1.3308124,-1.4391023,-1.4390341,45.391773,16.51952)" />
    <filter
       inkscape:collect="always"
       x="-0.27879594"
       width="1.5575919"
       y="-0.78248726"
       height="2.5649745"
       id="filter3405">
      <feGaussianBlur
         inkscape:collect="always"
         stdDeviation="1.5438116"
         id="feGaussianBlur3407" />
    </filter>
  </defs>
  <sodipodi:namedview
     id="base"
     pagecolor="#ffffff"
     bordercolor="#666666"
     borderopacity="1.0"
     inkscape:pageopacity="0.0"
     inkscape:pageshadow="2"
     inkscape:zoom="22.4"
     inkscape:cx="27.629741"
     inkscape:cy="11.83048"
     inkscape:document-units="px"
     inkscape:current-layer="layer1"
     showgrid="true"
     fill="#fce94f"
     inkscape:window-width="1440"
     inkscape:window-height="845"
     inkscape:window-x="0"
     inkscape:window-y="0" />
  <metadata
     id="metadata7">
    <rdf:RDF>
      <cc:Work
         rdf:about="">
        <dc:format>image/svg+xml</dc:format>
        <dc:type
           rdf:resource="http://purl.org/dc/dcmitype/StillImage" />
      </cc:Work>
    </rdf:RDF>
  </metadata>
  <g
     inkscape:label="Layer 1"
     inkscape:groupmode="layer"
     id="layer1">
    <path
       sodipodi:type="arc"
       style="opacity:0.64044944;fill:#2e3436;fill-opacity:1;stroke:none;stroke-width:1;stroke-miterlimit:4;stroke-dasharray:none;stroke-opacity:1;filter:url(#filter3405)"
       id="path3140"
       sodipodi:cx="10.748654"
       sodipodi:cy="10.457643"
       sodipodi:rx="6.6449099"
       sodipodi:ry="2.3675451"
       d="M 17.393564 10.457643 A 6.6449099 2.3675451 0 1 1  4.1037445,10.457643 A 6.6449099 2.3675451 0 1 1  17.393564 10.457643 z"
       transform="matrix(1.2039291,0,0,1.055946,-0.9406174,8.4572942)" />
    <path
       sodipodi:type="arc"
       style="opacity:1;fill:#ef2929;fill-opacity:1;stroke:#950000;stroke-width:1.05276573;stroke-miterlimit:4;stroke-dasharray:none;stroke-opacity:1"
       id="path1307"
       sodipodi:cx="11.806158"
       sodipodi:cy="10.983024"
       sodipodi:rx="9.975256"
       sodipodi:ry="9.975256"
       d="M 21.781414 10.983024 A 9.975256 9.975256 0 1 1  1.8309021,10.983024 A 9.975256 9.975256 0 1 1  21.781414 10.983024 z"
       transform="matrix(0.952236,0,0,0.952236,0.757713,1.541608)" />
    <path
       sodipodi:type="arc"
       style="opacity:0.79545455;fill:url(#radialGradient3114);fill-opacity:1.0;stroke:none;stroke-width:1.05274069;stroke-miterlimit:4;stroke-dasharray:none;stroke-opacity:1"
       id="path3102"
       sodipodi:cx="11.806158"
       sodipodi:cy="10.983024"
       sodipodi:rx="9.975256"
       sodipodi:ry="9.975256"
       d="M 21.781414 10.983024 A 9.975256 9.975256 0 1 1  1.8309021,10.983024 A 9.975256 9.975256 0 1 1  21.781414 10.983024 z"
       transform="matrix(0.8019,0,0,0.801938,2.532654,3.191833)" />
    <path
       sodipodi:type="arc"
       style="opacity:0.46067416;fill:none;fill-opacity:1.0;stroke:#ffffff;stroke-width:1.17343897;stroke-miterlimit:4;stroke-dasharray:none;stroke-opacity:1"
       id="path2184"
       sodipodi:cx="11.806158"
       sodipodi:cy="10.983024"
       sodipodi:rx="9.975256"
       sodipodi:ry="9.975256"
       d="M 21.781414 10.983024 A 9.975256 9.975256 0 1 1  1.8309021,10.983024 A 9.975256 9.975256 0 1 1  21.781414 10.983024 z"
       transform="matrix(0.852176,0,0,0.852216,1.93909,2.639626)" />
    <path
       style="fill:#eeeeec;fill-opacity:1;stroke:#f45d5d;stroke-width:1;stroke-miterlimit:4;stroke-opacity:1"
       d="M 11.499998,10 C 11.499998,11.38 10.379999,12.5 8.9999982,12.5 C 7.6199981,12.5 6.4999979,11.38 6.4999979,10 C 6.4999979,8.62 7.6199981,7.5 8.9999982,7.5 C 10.379999,7.5 11.499998,8.62 11.499998,10 z "
       id="path3154" />
    <path
       sodipodi:type="arc"
       style="opacity:1;fill:#2e3436;fill-opacity:1;stroke:none;stroke-width:0.98640186;stroke-miterlimit:4;stroke-dasharray:none;stroke-opacity:1"
       id="path2172"
       sodipodi:cx="9.7069349"
       sodipodi:cy="9.6526775"
       sodipodi:rx="1.0259361"
       sodipodi:ry="1.9413869"
       d="M 10.732871 9.6526775 A 1.0259361 1.9413869 0 1 1  8.6809988,9.6526775 A 1.0259361 1.9413869 0 1 1  10.732871 9.6526775 z"
       transform="matrix(0.9747196,0,0,0.7726436,0.5384595,3.0419202)" />
    <path
       sodipodi:type="arc"
       style="opacity:1;fill:#eeeeec;fill-opacity:1;stroke:#f45d5d;stroke-width:0.56451595;stroke-miterlimit:4;stroke-dasharray:none;stroke-opacity:1"
       id="path3152"
       sodipodi:cx="9.7069349"
       sodipodi:cy="9.6526775"
       sodipodi:rx="1.0259361"
       sodipodi:ry="1.9413869"
       d="M 10.732871 9.6526775 A 1.0259361 1.9413869 0 1 1  8.6809988,9.6526775 A 1.0259361 1.9413869 0 1 1  10.732871 9.6526775 z"
       transform="matrix(2.4367992,0,0,1.2877391,-8.6538516,-2.4301299)" />
    <path
       sodipodi:type="arc"
       style="opacity:1;fill:#2e3436;fill-opacity:1;stroke:none;stroke-width:0.98640186;stroke-miterlimit:4;stroke-dasharray:none;stroke-opacity:1"
       id="path3148"
       sodipodi:cx="9.7069349"
       sodipodi:cy="9.6526775"
       sodipodi:rx="1.0259361"
       sodipodi:ry="1.9413869"
       d="M 10.732871 9.6526775 A 1.0259361 1.9413869 0 1 1  8.6809988,9.6526775 A 1.0259361 1.9413869 0 1 1  10.732871 9.6526775 z"
       transform="matrix(0.9747195,0,0,0.7726435,4.5384605,3.0419215)" />
    <path
       sodipodi:type="arc"
       style="opacity:0.64044949;fill:none;fill-opacity:1;stroke:#cc0000;stroke-width:0.73675901;stroke-miterlimit:4;stroke-dasharray:none;stroke-opacity:1"
       id="path3413"
       sodipodi:cx="8.3258924"
       sodipodi:cy="9.2232141"
       sodipodi:rx="1.2276785"
       sodipodi:ry="1.7410715"
       d="M 7.2133909,8.4869402 A 1.2276785,1.7410715 0 0 1 9.288462,8.1425499"
       transform="matrix(1.7149028,-0.8212993,-0.5791212,-0.7969085,6.0447024,19.51866)"
       sodipodi:start="3.5782199"
       sodipodi:end="5.6135639"
       sodipodi:open="true" />
    <path
       sodipodi:type="arc"
       style="opacity:0.64044949;fill:none;fill-opacity:1;stroke:#cc0000;stroke-width:0.73675901;stroke-miterlimit:4;stroke-dasharray:none;stroke-opacity:1"
       id="path3415"
       sodipodi:cx="8.3258924"
       sodipodi:cy="9.2232141"
       sodipodi:rx="1.2276785"
       sodipodi:ry="1.7410715"
       d="M 7.2133909,8.4869402 A 1.2276785,1.7410715 0 0 1 9.288462,8.1425499"
       transform="matrix(1.7933657,0.6318731,0.1539989,-0.9729999,-7.4115532,9.1998443)"
       sodipodi:start="3.5782199"
       sodipodi:end="5.6135639"
       sodipodi:open="true" />
    <rect
       style="fill:#eeeeec;fill-opacity:1;stroke:#cc0000;stroke-width:0.99999821;stroke-miterlimit:4;stroke-dasharray:none;stroke-opacity:1"
       id="rect1319"
       width="9.0093803"
       height="2.0219903"
       x="7.499999"
       y="14.47801"
       ry="1.4859641"
       rx="1.4859624" />
  </g>
</svg>
