<?xml version="1.0" encoding="UTF-8" standalone="no"?>
<!-- Created with Inkscape (http://www.inkscape.org/) -->
<svg
   xmlns:dc="http://purl.org/dc/elements/1.1/"
   xmlns:cc="http://web.resource.org/cc/"
   xmlns:rdf="http://www.w3.org/1999/02/22-rdf-syntax-ns#"
   xmlns:svg="http://www.w3.org/2000/svg"
   xmlns="http://www.w3.org/2000/svg"
   xmlns:xlink="http://www.w3.org/1999/xlink"
   xmlns:sodipodi="http://inkscape.sourceforge.net/DTD/s odipodi-0.dtd"
   xmlns:inkscape="http://www.inkscape.org/namespaces/inkscape"
   width="24"
   height="24"
   id="svg2252"
   sodipodi:version="0.32"
   inkscape:version="0.43"
   version="1.0"
   sodipodi:docbase="/home/hbons/Desktop/Gaim Refresh/emotes"
   sodipodi:docname="plate.svg"
   inkscape:export-filename="/home/hbons/Desktop/Gaim Refresh/emotes/plate.png"
   inkscape:export-xdpi="90"
   inkscape:export-ydpi="90">
  <defs
     id="defs2254">
    <linearGradient
       inkscape:collect="always"
       id="linearGradient2382">
      <stop
         style="stop-color:#d3d7cf;stop-opacity:1;"
         offset="0"
         id="stop2384" />
      <stop
         style="stop-color:#d3d7cf;stop-opacity:0;"
         offset="1"
         id="stop2386" />
    </linearGradient>
    <linearGradient
       inkscape:collect="always"
       id="linearGradient3150">
      <stop
         style="stop-color:#2e3436;stop-opacity:1;"
         offset="0"
         id="stop3152" />
      <stop
         style="stop-color:#2e3436;stop-opacity:0;"
         offset="1"
         id="stop3154" />
    </linearGradient>
    <radialGradient
       inkscape:collect="always"
       xlink:href="#linearGradient3150"
       id="radialGradient3156"
       cx="10.748654"
       cy="10.457643"
       fx="10.748654"
       fy="10.457643"
       r="6.6449099"
       gradientTransform="matrix(-0.842757,5.698892e-16,-4.565819e-9,-0.35721,19.80716,14.19321)"
       gradientUnits="userSpaceOnUse" />
    <linearGradient
       inkscape:collect="always"
       id="linearGradient2325">
      <stop
         style="stop-color:#babdb6;stop-opacity:1;"
         offset="0"
         id="stop2327" />
      <stop
         style="stop-color:#babdb6;stop-opacity:0;"
         offset="1"
         id="stop2329" />
    </linearGradient>
    <linearGradient
       inkscape:collect="always"
       id="linearGradient2317">
      <stop
         style="stop-color:#babdb6;stop-opacity:1;"
         offset="0"
         id="stop2319" />
      <stop
         style="stop-color:#babdb6;stop-opacity:0;"
         offset="1"
         id="stop2321" />
    </linearGradient>
    <radialGradient
       inkscape:collect="always"
       xlink:href="#linearGradient2317"
       id="radialGradient2323"
       cx="-2.0208063"
       cy="12.370473"
       fx="-2.0208063"
       fy="12.370473"
       r="6.9260277"
       gradientUnits="userSpaceOnUse"
       gradientTransform="matrix(-0.871653,0.871658,-0.883758,-0.883762,14.06392,10.08299)" />
    <radialGradient
       inkscape:collect="always"
       xlink:href="#linearGradient2325"
       id="radialGradient2331"
       cx="-0.52484089"
       cy="12.289873"
       fx="-0.52484089"
       fy="12.289873"
       r="7.2722605"
       gradientUnits="userSpaceOnUse"
       gradientTransform="matrix(1.299122,-1.299152,1.150025,1.150045,-8.558972,0.580348)" />
    <radialGradient
       inkscape:collect="always"
       xlink:href="#linearGradient2382"
       id="radialGradient2388"
       cx="17.911736"
       cy="11.083743"
       fx="17.911736"
       fy="11.083743"
       r="2.5781252"
       gradientTransform="matrix(-1.591138,1.591138,-1.783257,-1.783257,67.84333,-2.898508)"
       gradientUnits="userSpaceOnUse" />
    <radialGradient
       inkscape:collect="always"
       xlink:href="#linearGradient2382"
       id="radialGradient2397"
       gradientUnits="userSpaceOnUse"
       gradientTransform="matrix(-1.591138,1.591138,-1.783257,-1.783257,67.84333,-2.898508)"
       cx="17.911736"
       cy="11.083743"
       fx="17.911736"
       fy="11.083743"
       r="2.5781252" />
    <radialGradient
       inkscape:collect="always"
       xlink:href="#linearGradient3150"
       id="radialGradient2404"
       gradientUnits="userSpaceOnUse"
       gradientTransform="matrix(-0.842757,5.698892e-16,-4.565819e-9,-0.35721,19.80716,14.19321)"
       cx="10.748654"
       cy="10.457643"
       fx="10.748654"
       fy="10.457643"
       r="6.6449099" />
    <radialGradient
       inkscape:collect="always"
       xlink:href="#linearGradient2382"
       id="radialGradient2410"
       gradientUnits="userSpaceOnUse"
       gradientTransform="matrix(-1.591138,1.574803,-1.783257,-1.76495,67.87495,-2.823241)"
       cx="17.911736"
       cy="11.083743"
       fx="17.911736"
       fy="11.083743"
       r="2.5781252" />
    <radialGradient
       inkscape:collect="always"
       xlink:href="#linearGradient3150"
       id="radialGradient2414"
       gradientUnits="userSpaceOnUse"
       gradientTransform="matrix(-0.842757,5.698892e-16,-4.565819e-9,-0.35721,19.80716,14.19321)"
       cx="10.748654"
       cy="10.457643"
       fx="10.748654"
       fy="10.457643"
       r="6.6449099" />
  </defs>
  <sodipodi:namedview
     id="base"
     pagecolor="#ffffff"
     bordercolor="#666666"
     borderopacity="1.0"
     inkscape:pageopacity="0.0"
     inkscape:pageshadow="2"
     inkscape:zoom="30.009657"
     inkscape:cx="13.367903"
     inkscape:cy="11.885"
     inkscape:current-layer="layer1"
     showgrid="true"
     inkscape:grid-bbox="true"
     inkscape:document-units="px"
     fill="#eeeeec"
     showguides="true"
     inkscape:guide-bbox="true"
     inkscape:window-width="1268"
     inkscape:window-height="971"
     inkscape:window-x="6"
     inkscape:window-y="21" />
  <metadata
     id="metadata2257">
    <rdf:RDF>
      <cc:Work
         rdf:about="">
        <dc:format>image/svg+xml</dc:format>
        <dc:type
           rdf:resource="http://purl.org/dc/dcmitype/StillImage" />
      </cc:Work>
    </rdf:RDF>
  </metadata>
  <g
     id="layer1"
     inkscape:label="Layer 1"
     inkscape:groupmode="layer">
    <path
       sodipodi:type="arc"
       style="opacity:0.5;fill:url(#radialGradient3156);fill-opacity:1;stroke:none;stroke-width:1;stroke-miterlimit:4;stroke-dasharray:none;stroke-opacity:1"
       id="path3140"
       sodipodi:cx="10.748654"
       sodipodi:cy="10.457643"
       sodipodi:rx="6.6449099"
       sodipodi:ry="2.3675451"
       d="M 17.393564 10.457643 A 6.6449099 2.3675451 0 1 1  4.1037445,10.457643 A 6.6449099 2.3675451 0 1 1  17.393564 10.457643 z"
       transform="matrix(1.210023,0,0,1.485418,-3.965624,1.982823)" />
    <path
       sodipodi:type="arc"
       style="opacity:1;fill:#eeeeec;fill-opacity:1;stroke:none;stroke-width:0.92348367;stroke-miterlimit:4;stroke-dasharray:none;stroke-opacity:1"
       id="path2358"
       sodipodi:cx="4.8928571"
       sodipodi:cy="6.3928571"
       sodipodi:rx="6.4642859"
       sodipodi:ry="6.4642859"
       d="M 11.357143 6.3928571 A 6.4642859 6.4642859 0 1 1  -1.5714288,6.3928571 A 6.4642859 6.4642859 0 1 1  11.357143 6.3928571 z"
       transform="matrix(1.15501,0,0,1.155775,3.963147,3.706816)" />
    <path
       sodipodi:type="arc"
       style="opacity:1;fill:url(#radialGradient2323);fill-opacity:1;stroke:#888a85;stroke-width:0.86198306;stroke-miterlimit:4;stroke-dasharray:none;stroke-opacity:1"
       id="path2260"
       sodipodi:cx="4.8928571"
       sodipodi:cy="6.3928571"
       sodipodi:rx="6.4642859"
       sodipodi:ry="6.4642859"
       d="M 11.357143 6.3928571 A 6.4642859 6.4642859 0 1 1  -1.5714288,6.3928571 A 6.4642859 6.4642859 0 1 1  11.357143 6.3928571 z"
       transform="matrix(1.160159,0,0,1.160074,3.325302,3.584705)" />
    <path
       sodipodi:type="arc"
       style="opacity:1;fill:url(#radialGradient2331);fill-opacity:1;stroke:#babdb6;stroke-width:1.43870187;stroke-miterlimit:4;stroke-dasharray:none;stroke-opacity:1"
       id="path2264"
       sodipodi:cx="4.8928571"
       sodipodi:cy="6.3928571"
       sodipodi:rx="6.4642859"
       sodipodi:ry="6.4642859"
       d="M 11.357143 6.3928571 A 6.4642859 6.4642859 0 1 1  -1.5714288,6.3928571 A 6.4642859 6.4642859 0 1 1  11.357143 6.3928571 z"
       transform="matrix(0.695273,0,0,0.694869,5.59383,6.564738)" />
    <path
       sodipodi:type="arc"
       style="opacity:0.5;fill:none;fill-opacity:1;stroke:#eeeeec;stroke-width:0.99538368;stroke-miterlimit:4;stroke-dasharray:none;stroke-opacity:1"
       id="path2293"
       sodipodi:cx="4.8928571"
       sodipodi:cy="6.3928571"
       sodipodi:rx="6.4642859"
       sodipodi:ry="6.4642859"
       d="M 11.357143 6.3928571 A 6.4642859 6.4642859 0 1 1  -1.5714288,6.3928571 A 6.4642859 6.4642859 0 1 1  11.357143 6.3928571 z"
       transform="matrix(1.004509,0,0,1.004769,4.085082,4.578952)" />
    <path
       sodipodi:type="arc"
       style="opacity:0.5;fill:none;fill-opacity:1;stroke:#eeeeec;stroke-width:1.86385059;stroke-miterlimit:4;stroke-dasharray:none;stroke-opacity:1"
       id="path2297"
       sodipodi:cx="4.8928571"
       sodipodi:cy="6.3928571"
       sodipodi:rx="6.4642859"
       sodipodi:ry="6.4642859"
       d="M 11.357143 6.3928571 A 6.4642859 6.4642859 0 1 1  -1.5714288,6.3928571 A 6.4642859 6.4642859 0 1 1  11.357143 6.3928571 z"
       transform="matrix(0.536254,0,0,0.536792,6.36879,7.579415)" />
    <path
       sodipodi:type="inkscape:offset"
       inkscape:radius="-0.97552919"
       inkscape:original="M 19.59375 4.53125 C 17.884069 4.5312499 17.53125 6.2754291 17.53125 6.53125 C 17.531249 8.3926091 17.733374 9.3978143 18.53125 10.1875 C 18.53125 10.935911 18.59375 14.168897 18.59375 15.84375 C 18.82475 16.697004 20.302343 16.826381 20.59375 15.75 C 20.59375 14.524268 20.53125 11.972917 20.53125 10.15625 C 21.381405 9.314821 21.53125 8.6904951 21.53125 6.65625 C 21.53125 6.5416832 21.323943 4.53125 19.59375 4.53125 z "
       xlink:href="#rect2360"
       style="opacity:1;fill:none;fill-opacity:1;stroke:#ffffff;stroke-width:1;stroke-miterlimit:4;stroke-dasharray:none;stroke-opacity:1"
       id="path2408"
       inkscape:href="#rect2360"
       d="M 20.5625,5.46875 C 20.039397,5.46875 19.896017,5.6627048 19.71875,5.9375 C 19.630117,6.0748976 19.569573,6.2471359 19.53125,6.375 C 19.492927,6.5028641 19.46875,6.6602806 19.46875,6.5 C 19.46875,7.3953685 19.541077,8.0533958 19.65625,8.5 C 19.771423,8.9466042 19.906378,9.190514 20.1875,9.46875 C 20.368235,9.6518669 20.469319,9.8989633 20.46875,10.15625 C 20.46875,10.815841 20.525638,13.778536 20.53125,15.53125 C 20.53575,15.528677 20.525613,15.499622 20.5625,15.5 C 20.59201,15.500302 20.588063,15.493339 20.59375,15.5 C 20.589237,14.254219 20.53125,11.892133 20.53125,10.125 C 20.530681,9.8677133 20.631765,9.6206169 20.8125,9.4375 C 21.172206,9.0814857 21.277742,8.9113505 21.375,8.5625 C 21.472258,8.2136495 21.53125,7.6181697 21.53125,6.625 C 21.525875,6.585829 21.516384,6.5408851 21.5,6.46875 C 21.467231,6.3244799 21.395496,6.1287749 21.3125,5.96875 C 21.146509,5.6487002 21.049751,5.46875 20.5625,5.46875 z "
       transform="translate(-0.96875,3.125e-2)" />
    <path
       style="opacity:1;fill:url(#radialGradient2410);fill-opacity:1;stroke:#989994;stroke-width:1.00000048;stroke-miterlimit:4;stroke-dasharray:none;stroke-opacity:1"
       d="M 17.522222,6.5383983 C 17.522222,8.3997574 17.740582,9.3935433 18.538458,10.183229 C 18.538458,10.93164 18.582129,14.181486 18.582129,15.856339 C 18.813129,16.709593 20.289516,16.835239 20.580923,15.758858 C 20.580923,14.533126 20.529548,11.969228 20.529548,10.152561 C 21.379704,9.3111322 21.53125,8.6779033 21.53125,6.6436582 C 21.53125,6.5290914 21.322808,4.5209831 19.592615,4.5209831 C 17.882934,4.5209831 17.522222,6.2825774 17.522222,6.5383983 z "
       id="rect2360"
       sodipodi:nodetypes="cccccczc" />
  </g>
</svg>
