<?xml version="1.0" encoding="UTF-8" standalone="no"?>
<!-- Created with Inkscape (http://www.inkscape.org/) -->
<svg
   xmlns:dc="http://purl.org/dc/elements/1.1/"
   xmlns:cc="http://web.resource.org/cc/"
   xmlns:rdf="http://www.w3.org/1999/02/22-rdf-syntax-ns#"
   xmlns:svg="http://www.w3.org/2000/svg"
   xmlns="http://www.w3.org/2000/svg"
   xmlns:xlink="http://www.w3.org/1999/xlink"
   xmlns:sodipodi="http://inkscape.sourceforge.net/DTD/s odipodi-0.dtd"
   xmlns:inkscape="http://www.inkscape.org/namespaces/inkscape"
   width="24"
   height="24"
   id="svg2"
   sodipodi:version="0.32"
   inkscape:version="0.43"
   version="1.0"
   sodipodi:docbase="/home/hbons/Desktop/Gaim Refresh/emotes/scalable"
   sodipodi:docname="poop.svg"
   inkscape:export-filename="/home/hbons/Desktop/Gaim Refresh/emotes/poop.png"
   inkscape:export-xdpi="90"
   inkscape:export-ydpi="90">
  <defs
     id="defs4">
    <linearGradient
       inkscape:collect="always"
       id="linearGradient2434">
      <stop
         style="stop-color:#ffffff;stop-opacity:1;"
         offset="0"
         id="stop2436" />
      <stop
         style="stop-color:#ffffff;stop-opacity:0;"
         offset="1"
         id="stop2438" />
    </linearGradient>
    <linearGradient
       inkscape:collect="always"
       id="linearGradient2426">
      <stop
         style="stop-color:#ffffff;stop-opacity:1;"
         offset="0"
         id="stop2428" />
      <stop
         style="stop-color:#ffffff;stop-opacity:0;"
         offset="1"
         id="stop2430" />
    </linearGradient>
    <linearGradient
       inkscape:collect="always"
       id="linearGradient3150">
      <stop
         style="stop-color:#2e3436;stop-opacity:1;"
         offset="0"
         id="stop3152" />
      <stop
         style="stop-color:#2e3436;stop-opacity:0;"
         offset="1"
         id="stop3154" />
    </linearGradient>
    <linearGradient
       inkscape:collect="always"
       id="linearGradient3104">
      <stop
         style="stop-color:#eeeeec;stop-opacity:1;"
         offset="0"
         id="stop3106" />
      <stop
         style="stop-color:#eeeeec;stop-opacity:0;"
         offset="1"
         id="stop3108" />
    </linearGradient>
    <radialGradient
       inkscape:collect="always"
       xlink:href="#linearGradient3104"
       id="radialGradient3114"
       cx="8.3343515"
       cy="14.186539"
       fx="8.3343515"
       fy="14.186539"
       r="9.975256"
       gradientUnits="userSpaceOnUse"
       gradientTransform="matrix(-0.9327,0.932656,-0.947494,-0.947449,33.02126,11.96667)" />
    <radialGradient
       inkscape:collect="always"
       xlink:href="#linearGradient3150"
       id="radialGradient3156"
       cx="10.748654"
       cy="10.457643"
       fx="10.748654"
       fy="10.457643"
       r="6.6449099"
       gradientTransform="matrix(-0.842757,5.698892e-16,-4.565819e-9,-0.35721,19.80716,14.19321)"
       gradientUnits="userSpaceOnUse" />
    <radialGradient
       inkscape:collect="always"
       xlink:href="#linearGradient3104"
       id="radialGradient2408"
       gradientUnits="userSpaceOnUse"
       gradientTransform="matrix(-0.9327,0.932656,-0.947494,-0.947449,33.02126,11.96667)"
       cx="6.1292181"
       cy="16.357243"
       fx="3.8323154"
       fy="18.618282"
       r="9.975256" />
    <linearGradient
       inkscape:collect="always"
       xlink:href="#linearGradient2426"
       id="linearGradient2432"
       x1="11.683364"
       y1="14.819944"
       x2="11.683364"
       y2="16.696867"
       gradientUnits="userSpaceOnUse" />
    <linearGradient
       inkscape:collect="always"
       xlink:href="#linearGradient2434"
       id="linearGradient2440"
       x1="12.851224"
       y1="10.634919"
       x2="12.851224"
       y2="12.331053"
       gradientUnits="userSpaceOnUse" />
  </defs>
  <sodipodi:namedview
     id="base"
     pagecolor="#ffffff"
     bordercolor="#666666"
     borderopacity="1.0"
     inkscape:pageopacity="0.0"
     inkscape:pageshadow="2"
     inkscape:zoom="19.500333"
     inkscape:cx="20.450723"
     inkscape:cy="17.682031"
     inkscape:document-units="px"
     inkscape:current-layer="layer1"
     showgrid="true"
     fill="#c17d11"
     inkscape:window-width="1268"
     inkscape:window-height="972"
     inkscape:window-x="6"
     inkscape:window-y="21" />
  <metadata
     id="metadata7">
    <rdf:RDF>
      <cc:Work
         rdf:about="">
        <dc:format>image/svg+xml</dc:format>
        <dc:type
           rdf:resource="http://purl.org/dc/dcmitype/StillImage" />
      </cc:Work>
    </rdf:RDF>
  </metadata>
  <g
     inkscape:label="Layer 1"
     inkscape:groupmode="layer"
     id="layer1">
    <path
       sodipodi:type="arc"
       style="opacity:0.6;fill:url(#radialGradient3156);fill-opacity:1;stroke:none;stroke-width:1;stroke-miterlimit:4;stroke-dasharray:none;stroke-opacity:1"
       id="path3140"
       sodipodi:cx="10.748654"
       sodipodi:cy="10.457643"
       sodipodi:rx="6.6449099"
       sodipodi:ry="2.3675451"
       d="M 17.393564 10.457643 A 6.6449099 2.3675451 0 1 1  4.1037445,10.457643 A 6.6449099 2.3675451 0 1 1  17.393564 10.457643 z"
       transform="matrix(1.655403,0,0,1.267136,-5.793351,5.748748)" />
    <image
       xlink:href="/home/hbons/Desktop/Gaim Refresh/Tango-Palette.png"
       sodipodi:absref="/home/hbons/Desktop/Gaim Refresh/Tango-Palette.png"
       width="19.793839"
       height="19.793839"
       id="image2404"
       x="-20"
       y="1.2061615" />
    <rect
       style="opacity:1;fill:#c17d11;fill-opacity:1;fill-rule:evenodd;stroke:#8f5902;stroke-width:1.00000024;stroke-miterlimit:4;stroke-dasharray:none;stroke-opacity:1"
       id="rect2412"
       width="16.907871"
       height="7"
       x="3.5304446"
       y="12.5"
       rx="3.5000012"
       ry="3.5" />
    <path
       sodipodi:type="inkscape:offset"
       inkscape:radius="-1.0512236"
       inkscape:original="M 7.03125 12.5 C 5.0922493 12.5 3.53125 14.061 3.53125 16 C 3.53125 17.939 5.0922491 19.5 7.03125 19.5 L 16.9375 19.5 C 18.876501 19.5 20.4375 17.939 20.4375 16 C 20.4375 14.061 18.876501 12.5 16.9375 12.5 L 7.03125 12.5 z "
       xlink:href="#rect2412"
       style="opacity:0.3;fill:url(#linearGradient2432);fill-opacity:1.0;fill-rule:evenodd;stroke:#ffffff;stroke-width:1.00000024;stroke-miterlimit:4;stroke-dasharray:none;stroke-opacity:1"
       id="path2419"
       inkscape:href="#rect2412"
       d="M 7.03125,13.5625 C 5.6564437,13.5625 4.59375,14.625194 4.59375,16 C 4.59375,17.374806 5.6564435,18.4375 7.03125,18.4375 L 16.9375,18.4375 C 18.312307,18.4375 19.375,17.374806 19.375,16 C 19.375,14.625194 18.312307,13.5625 16.9375,13.5625 L 7.03125,13.5625 z " />
    <path
       style="fill:#c17d11;fill-opacity:1;fill-rule:evenodd;stroke:#8f5902;stroke-width:1.00000083;stroke-miterlimit:4;stroke-opacity:1"
       d="M 8.2535217,10.183538 L 14.321922,8.6014206 C 16.198107,8.112273 18.026218,8.8720602 18.420825,10.30498 C 18.815432,11.737899 17.62268,13.285268 15.746496,13.774416 L 9.6780953,15.356533 C 7.8019101,15.845681 5.9737996,15.085893 5.5791928,13.652974 C 5.1845858,12.220054 6.3773365,10.672686 8.2535217,10.183538 z "
       id="rect2414" />
    <path
       sodipodi:type="inkscape:offset"
       inkscape:radius="-1.0682048"
       inkscape:original="M 14.3125 8.59375 L 8.25 10.1875 C 6.3738148 10.676648 5.1991432 12.22333 5.59375 13.65625 C 5.9883568 15.089169 7.8113152 15.832898 9.6875 15.34375 L 15.75 13.78125 C 17.626184 13.292102 18.800858 11.745419 18.40625 10.3125 C 18.011643 8.8795802 16.188685 8.1046026 14.3125 8.59375 z "
       xlink:href="#rect2414"
       style="opacity:0.3;fill:url(#linearGradient2440);fill-opacity:1.0;fill-rule:evenodd;stroke:#ffffff;stroke-width:1.00000083;stroke-miterlimit:4;stroke-opacity:1"
       id="path2422"
       inkscape:href="#rect2414"
       d="M 14.59375,9.625 L 8.53125,11.21875 C 7.8064568,11.407714 7.2222739,11.805012 6.90625,12.21875 C 6.5902261,12.632488 6.525853,13.014971 6.625,13.375 C 6.7230714,13.731122 7.001466,14.013898 7.5,14.21875 C 7.998534,14.423602 8.6777723,14.502424 9.40625,14.3125 L 15.46875,12.75 C 16.193542,12.561036 16.777726,12.163738 17.09375,11.75 C 17.409774,11.336262 17.474147,10.953777 17.375,10.59375 C 17.276401,10.235711 16.999755,9.9293826 16.5,9.71875 C 16.000245,9.5081174 15.316855,9.4364766 14.59375,9.625 z " />
    <path
       style="fill:#c17d11;fill-opacity:1;fill-rule:evenodd;stroke:#8f5902;stroke-width:1.00000107;stroke-miterlimit:4;stroke-opacity:1"
       d="M 9.7314319,7.5257966 C 9.7314319,7.5257966 14.539938,6.0208711 15.257875,3.610656 C 17.817257,3.6106556 15.972926,8.5534484 14.268589,9.4742135 L 11.767735,10.825295 C 10.063399,11.74606 8.2372196,11.751538 7.6731634,10.837577 C 7.1091072,9.9236154 8.0270951,8.4465616 9.7314319,7.5257966 z "
       id="rect2416"
       sodipodi:nodetypes="ccccsc" />
    <path
       sodipodi:type="inkscape:offset"
       inkscape:radius="-1.0915455"
       inkscape:original="M 15.25 3.625 C 14.532063 6.0352151 9.7187499 7.5312502 9.71875 7.53125 C 8.0144132 8.452015 7.1234438 9.9297885 7.6875 10.84375 C 8.2515562 11.757711 10.076914 11.733265 11.78125 10.8125 L 14.28125 9.46875 C 15.985587 8.5479849 17.809382 3.6249996 15.25 3.625 z "
       xlink:href="#rect2416"
       style="opacity:0.3;fill:none;fill-opacity:1;fill-rule:evenodd;stroke:#ffffff;stroke-width:1.00000107;stroke-miterlimit:4;stroke-opacity:1"
       id="path2424"
       inkscape:href="#rect2416"
       d="M 15.34375,5.34375 C 14.592139,6.2385497 13.657366,6.9473225 12.71875,7.4375 C 11.439733,8.1054462 10.435557,8.4096345 10.25,8.46875 L 10.25,8.5 C 9.5427035,8.8821157 9.0159799,9.365217 8.78125,9.75 C 8.5465201,10.134783 8.6159609,10.266604 8.625,10.28125 C 8.6283672,10.286706 8.7655745,10.442352 9.28125,10.4375 C 9.7969255,10.432648 10.537655,10.228593 11.25,9.84375 L 13.75,8.5 C 13.889832,8.4244559 14.285206,8.0857153 14.59375,7.59375 C 14.902294,7.1017847 15.169962,6.4870595 15.3125,5.9375 C 15.383769,5.6627202 15.336455,5.5495097 15.34375,5.34375 z " />
  </g>
</svg>
