<?xml version="1.0" encoding="UTF-8" standalone="no"?>
<!-- Created with Inkscape (http://www.inkscape.org/) -->
<svg
   xmlns:dc="http://purl.org/dc/elements/1.1/"
   xmlns:cc="http://creativecommons.org/ns#"
   xmlns:rdf="http://www.w3.org/1999/02/22-rdf-syntax-ns#"
   xmlns:svg="http://www.w3.org/2000/svg"
   xmlns="http://www.w3.org/2000/svg"
   xmlns:xlink="http://www.w3.org/1999/xlink"
   xmlns:sodipodi="http://sodipodi.sourceforge.net/DTD/sodipodi-0.dtd"
   xmlns:inkscape="http://www.inkscape.org/namespaces/inkscape"
   width="24"
   height="24"
   id="svg2"
   sodipodi:version="0.32"
   inkscape:version="0.46"
   version="1.0"
   sodipodi:docbase="/home/hbons/Desktop/Gaim Refresh/emotes"
   sodipodi:docname="present.svg"
   inkscape:export-filename="/home/hbons/Desktop/Gaim Refresh/emotes/present.png"
   inkscape:export-xdpi="90"
   inkscape:export-ydpi="90"
   inkscape:output_extension="org.inkscape.output.svg.inkscape">
  <defs
     id="defs4">
    <linearGradient
       id="linearGradient2804">
      <stop
         style="stop-color:black;stop-opacity:0;"
         offset="0"
         id="stop2806" />
      <stop
         id="stop2812"
         offset="0.5"
         style="stop-color:black;stop-opacity:1;" />
      <stop
         style="stop-color:black;stop-opacity:0;"
         offset="1"
         id="stop2808" />
    </linearGradient>
    <linearGradient
       inkscape:collect="always"
       id="linearGradient2781">
      <stop
         style="stop-color:black;stop-opacity:1;"
         offset="0"
         id="stop2783" />
      <stop
         style="stop-color:black;stop-opacity:0;"
         offset="1"
         id="stop2785" />
    </linearGradient>
    <linearGradient
       inkscape:collect="always"
       id="linearGradient2270">
      <stop
         style="stop-color:#eeeeec;stop-opacity:1;"
         offset="0"
         id="stop2272" />
      <stop
         style="stop-color:#eeeeec;stop-opacity:0;"
         offset="1"
         id="stop2274" />
    </linearGradient>
    <linearGradient
       inkscape:collect="always"
       id="linearGradient2250">
      <stop
         style="stop-color:#eeeeec;stop-opacity:1;"
         offset="0"
         id="stop2252" />
      <stop
         style="stop-color:#eeeeec;stop-opacity:0;"
         offset="1"
         id="stop2254" />
    </linearGradient>
    <linearGradient
       inkscape:collect="always"
       id="linearGradient3185">
      <stop
         style="stop-color:#eeeeec;stop-opacity:1;"
         offset="0"
         id="stop3187" />
      <stop
         style="stop-color:#eeeeec;stop-opacity:0;"
         offset="1"
         id="stop3189" />
    </linearGradient>
    <linearGradient
       inkscape:collect="always"
       xlink:href="#linearGradient3185"
       id="linearGradient3191"
       x1="12.896705"
       y1="3.4346247"
       x2="12.896705"
       y2="6.5029979"
       gradientUnits="userSpaceOnUse" />
    <linearGradient
       inkscape:collect="always"
       xlink:href="#linearGradient2250"
       id="linearGradient2302"
       gradientUnits="userSpaceOnUse"
       gradientTransform="translate(0,0.999999)"
       x1="12.818529"
       y1="9.2578955"
       x2="12.818529"
       y2="14.373062" />
    <linearGradient
       inkscape:collect="always"
       xlink:href="#linearGradient2270"
       id="linearGradient2311"
       gradientUnits="userSpaceOnUse"
       gradientTransform="matrix(1,0,0,1.2,0,-1)"
       x1="12.752538"
       y1="5.4465666"
       x2="12.752538"
       y2="8.8023701" />
    <radialGradient
       inkscape:collect="always"
       xlink:href="#linearGradient2781"
       id="radialGradient1512"
       gradientUnits="userSpaceOnUse"
       gradientTransform="matrix(2,0,0,0.8,-13,-79.2)"
       cx="1"
       cy="44"
       fx="1"
       fy="44"
       r="5" />
    <radialGradient
       inkscape:collect="always"
       xlink:href="#linearGradient2781"
       id="radialGradient1514"
       gradientUnits="userSpaceOnUse"
       gradientTransform="matrix(2,0,0,0.8,36,8.8)"
       cx="1"
       cy="44"
       fx="1"
       fy="44"
       r="5" />
    <linearGradient
       inkscape:collect="always"
       xlink:href="#linearGradient2804"
       id="linearGradient1516"
       gradientUnits="userSpaceOnUse"
       x1="21.875"
       y1="48.000977"
       x2="21.875"
       y2="40" />
  </defs>
  <sodipodi:namedview
     id="base"
     pagecolor="#ffffff"
     bordercolor="#666666"
     borderopacity="1.0"
     inkscape:pageopacity="0.0"
     inkscape:pageshadow="2"
     inkscape:zoom="20.899939"
     inkscape:cx="18.293973"
     inkscape:cy="3.8760407"
     inkscape:document-units="px"
     inkscape:current-layer="layer1"
     showgrid="true"
     fill="#ef2929"
     inkscape:grid-points="false"
     inkscape:window-width="1268"
     inkscape:window-height="971"
     inkscape:window-x="6"
     inkscape:window-y="21" />
  <metadata
     id="metadata7">
    <rdf:RDF>
      <cc:Work
         rdf:about="">
        <dc:format>image/svg+xml</dc:format>
        <dc:type
           rdf:resource="http://purl.org/dc/dcmitype/StillImage" />
      </cc:Work>
    </rdf:RDF>
  </metadata>
  <g
     inkscape:label="Layer 1"
     inkscape:groupmode="layer"
     id="layer1">
    <path
       style="opacity:1;fill:#729fcf;fill-opacity:1;stroke:none;stroke-width:1.00000036;stroke-miterlimit:4;stroke-opacity:1"
       d="M 6.623719,4.5336273 L 18.417594,4.5079867 L 19.499068,10.5 L 5.5000002,10.5 L 6.623719,4.5336273 z "
       id="path2297"
       sodipodi:nodetypes="ccccc" />
    <path
       style="opacity:1;fill:#729fcf;fill-opacity:1;stroke:#3465a4;stroke-width:1.00000036;stroke-miterlimit:4;stroke-opacity:1"
       d="M 6.623719,4.5336271 L 18.417594,4.5079865 L 19.499068,10.5 L 5.5000002,10.5 L 6.623719,4.5336271 z "
       id="rect2182"
       sodipodi:nodetypes="ccccc" />
    <path
       sodipodi:type="inkscape:offset"
       inkscape:radius="-1.0262387"
       inkscape:original="M 18.40625 4.5 L 6.625 4.53125 L 5.5 10.5 L 19.5 10.5 L 18.40625 4.5 z "
       xlink:href="#rect2182"
       style="opacity:0.4;fill:url(#linearGradient3191);fill-opacity:1;stroke:#ffffff;stroke-width:0.97772372;stroke-miterlimit:4;stroke-opacity:1"
       id="path2189"
       inkscape:href="#rect2182"
       d="M 17.5625,5.53125 L 7.46875,5.5625 L 6.71875,9.46875 L 18.28125,9.46875 L 17.5625,5.53125 z "
       transform="matrix(1.030979,0,0,1.014655,-0.387236,-0.107515)" />
    <g
       id="g1504"
       style="opacity:0.5"
       transform="matrix(0.404255,0,0,0.749995,2.595745,-13.99976)">
      <rect
         transform="scale(-1,-1)"
         y="-48"
         x="-11"
         height="8"
         width="10"
         id="rect1506"
         style="opacity:1;color:#000000;fill:url(#radialGradient1512);fill-opacity:1;fill-rule:nonzero;stroke:none;stroke-width:1;stroke-linecap:square;stroke-linejoin:round;marker:none;marker-start:none;marker-mid:none;marker-end:none;stroke-miterlimit:4;stroke-dasharray:none;stroke-dashoffset:1.20000057;stroke-opacity:1;visibility:visible;display:inline;overflow:visible" />
      <rect
         y="40"
         x="38"
         height="8"
         width="10"
         id="rect1508"
         style="opacity:1;color:#000000;fill:url(#radialGradient1514);fill-opacity:1;fill-rule:nonzero;stroke:none;stroke-width:1;stroke-linecap:square;stroke-linejoin:round;marker:none;marker-start:none;marker-mid:none;marker-end:none;stroke-miterlimit:4;stroke-dasharray:none;stroke-dashoffset:1.20000057;stroke-opacity:1;visibility:visible;display:inline;overflow:visible" />
      <rect
         y="40"
         x="11"
         height="8"
         width="27"
         id="rect1510"
         style="opacity:1;color:#000000;fill:url(#linearGradient1516);fill-opacity:1;fill-rule:nonzero;stroke:none;stroke-width:1;stroke-linecap:square;stroke-linejoin:round;marker:none;marker-start:none;marker-mid:none;marker-end:none;stroke-miterlimit:4;stroke-dasharray:none;stroke-dashoffset:1.20000057;stroke-opacity:1;visibility:visible;display:inline;overflow:visible" />
    </g>
    <rect
       style="opacity:1;fill:#729fcf;fill-opacity:1;stroke:#3465a4;stroke-width:1.00000048;stroke-miterlimit:4;stroke-dasharray:none;stroke-opacity:1"
       id="rect1307"
       width="14.000004"
       height="9.0069962"
       x="5.5"
       y="10.493004" />
    <rect
       style="opacity:0.4;fill:none;fill-opacity:1;stroke:#ffffff;stroke-width:0.9999997;stroke-miterlimit:4;stroke-dasharray:none;stroke-opacity:1"
       id="rect2185"
       width="11.998221"
       height="7.012033"
       x="6.5"
       y="11.5" />
    <rect
       style="opacity:1;fill:#ef2929;fill-opacity:1;stroke:none;stroke-width:1;stroke-miterlimit:4;stroke-dasharray:none;stroke-opacity:1"
       id="rect2191"
       width="5"
       height="9"
       x="10.020305"
       y="10" />
    <path
       style="opacity:0.4;fill:url(#linearGradient2302);fill-opacity:1;stroke:none;stroke-width:1;stroke-miterlimit:4;stroke-dasharray:none;stroke-opacity:1"
       d="M 10,8.9985878 L 10,11 L 6,11 L 6,19 L 19,19 L 19,11 L 15,11 L 15,8.9985878 L 10,8.9985878 z "
       id="rect2248"
       sodipodi:nodetypes="ccccccccc" />
    <rect
       style="opacity:1;fill:#a40000;fill-opacity:1;stroke:none;stroke-width:1;stroke-miterlimit:4;stroke-dasharray:none;stroke-opacity:1"
       id="rect2206"
       width="1"
       height="9"
       x="10"
       y="10" />
    <rect
       style="opacity:1;fill:#a40000;fill-opacity:1;stroke:none;stroke-width:1;stroke-miterlimit:4;stroke-dasharray:none;stroke-opacity:1"
       id="rect2208"
       width="1"
       height="9"
       x="14.020305"
       y="10" />
    <path
       style="fill:#ef2929;fill-opacity:1;stroke:none;stroke-width:1;stroke-miterlimit:4;stroke-opacity:1"
       d="M 11,5 L 14,5 L 15,10 L 10,10 L 11,5 z "
       id="rect3066"
       sodipodi:nodetypes="ccccc" />
    <path
       style="fill:#ef2929;fill-opacity:1;stroke:none;stroke-width:1;stroke-miterlimit:4;stroke-opacity:1"
       d="M 6.66713,6.9668754 L 18.348064,6.9498996 L 18.546612,7.9498996 L 6.5129579,7.9388295 L 6.66713,6.9668754 z "
       id="rect3069"
       sodipodi:nodetypes="ccccc" />
    <path
       style="fill:url(#linearGradient2311);fill-opacity:1;stroke:none;stroke-width:1;stroke-miterlimit:4;stroke-opacity:1"
       d="M 11,5 L 14,5 L 15,11 L 10,11 L 11,5 z "
       id="path2268"
       sodipodi:nodetypes="ccccc" />
    <path
       style="fill:#a40000;fill-opacity:1;stroke:none;stroke-width:1;stroke-miterlimit:4;stroke-opacity:1"
       d="M 13,6 L 14.117829,6 L 15,10 L 13.882171,10 L 13,6 z "
       id="rect2239"
       sodipodi:nodetypes="ccccc" />
    <path
       style="fill:#a40000;fill-opacity:1;stroke:none;stroke-width:1;stroke-miterlimit:4;stroke-opacity:1"
       d="M 12,6 L 10.882171,6 L 10,10 L 11.117829,10 L 12,6 z "
       id="path2242"
       sodipodi:nodetypes="ccccc" />
    <path
       style="fill:#ef2929;fill-opacity:1;stroke:#a40000;stroke-width:0.99999982;stroke-miterlimit:4;stroke-opacity:1"
       d="M 12.502854,5.5717488 C 12.502854,6.8074155 10.137473,7.8102755 8.4869927,7.8102755 C 6.8365121,7.8102755 4.5000837,10.253844 4.5000837,5.5717488 C 4.5000837,1.7297025 8.3132711,2.5191448 9.4889964,2.5191448 C 11.139477,2.5191448 12.502854,4.3360821 12.502854,5.5717488 z "
       id="path2200"
       sodipodi:nodetypes="csscc" />
    <path
       style="fill:#ef2929;fill-opacity:1;stroke:#a40000;stroke-width:0.99999976;stroke-miterlimit:4;stroke-opacity:1"
       d="M 12.5,5.5729254 C 12.5,6.8089936 14.865016,7.8121797 16.515243,7.8121797 C 18.165468,7.8121797 20.501537,10.256542 20.501537,5.5729254 C 20.501537,1.7296304 16.688937,2.5193294 15.513393,2.5193294 C 13.863166,2.5193294 12.5,4.3368571 12.5,5.5729254 z "
       id="path2222"
       sodipodi:nodetypes="csscc" />
    <path
       style="opacity:0.66600001;fill:#a40000;fill-opacity:1;stroke:none;stroke-width:1.1265254;stroke-miterlimit:4;stroke-dasharray:none;stroke-opacity:1"
       d="M 11.863076,5.9461504 C 10.706709,5.9005971 9.6548118,5.7074867 8.8184343,5.4470877 C 8.3228034,5.292777 7.924461,5.0999539 7.5907555,4.8544507 C 7.2570496,4.6089474 7.00147,4.3092175 7.0014699,3.9498996 L 8.4746843,3.9498996 C 8.4746843,3.9561684 8.4739552,3.9749831 8.4746843,3.981091 C 8.477361,3.9875401 8.5192457,4.0052176 8.5237915,4.0122824 C 8.5266167,4.0160271 8.5203564,4.0394782 8.5237915,4.0434739 C 8.5484008,4.069187 8.6153271,4.0960069 8.6711127,4.1370481 C 8.8198767,4.2464917 9.0408653,4.3971275 9.4077199,4.5113451 C 10.141432,4.73978 11.276654,4.9168336 12.50147,4.9168336 C 13.726287,4.9168337 14.861508,4.7397802 15.59522,4.5113451 C 15.962073,4.3971273 16.183063,4.2464915 16.331826,4.1370481 C 16.387614,4.0960069 16.45454,4.069187 16.479148,4.0434739 C 16.482582,4.0394782 16.476322,4.0160271 16.479148,4.0122824 C 16.483693,4.0052176 16.525578,3.9875401 16.528254,3.981091 C 16.528986,3.9749831 16.528254,3.9561684 16.528254,3.9498996 L 18.00147,3.9498996 C 18.00147,4.3092175 17.745888,4.6089473 17.412186,4.8544507 C 17.07848,5.099954 16.680138,5.292777 16.184504,5.4470877 C 15.193244,5.7557088 13.907003,5.9461503 12.50147,5.9461504 C 12.281856,5.9461504 12.07722,5.9545862 11.863076,5.9461504 z "
       id="path2232" />
    <path
       sodipodi:type="inkscape:offset"
       inkscape:radius="-0.99614358"
       inkscape:original="M 15.5 2.53125 C 13.849773 2.5312501 12.5 4.3264317 12.5 5.5625 C 12.5 6.798568 14.849773 7.8125 16.5 7.8125 C 18.150224 7.8125001 20.5 10.246117 20.5 5.5625 C 20.5 1.7192048 16.675544 2.53125 15.5 2.53125 z "
       xlink:href="#path2222"
       style="opacity:0.3;fill:none;fill-opacity:1;stroke:#ffffff;stroke-width:0.99999976;stroke-miterlimit:4;stroke-opacity:1"
       id="path2230"
       inkscape:href="#path2222"
       d="M 15.5,2.5625 C 15.042389,2.5625 14.53013,2.825904 14.125,3.28125 C 13.71987,3.736596 13.5,4.3695585 13.5,4.625 C 13.5,4.6184045 13.490761,4.6658216 13.625,4.8125 C 13.759239,4.9591784 14.023568,5.1479188 14.34375,5.3125 C 14.984115,5.6416624 15.878903,5.875 16.5,5.875 C 17.157395,5.8750001 17.698659,6.0932358 18.15625,6.25 C 18.613841,6.4067642 19.00151,6.4955254 19.15625,6.5 C 19.31099,6.5044746 19.158676,6.6285103 19.25,6.46875 C 19.341324,6.3089897 19.5,5.7126098 19.5,4.625 C 19.5,3.8293864 19.306929,3.420532 19.09375,3.15625 C 18.880571,2.891968 18.597412,2.7309893 18.1875,2.625 C 17.367676,2.4130214 16.308318,2.5625 15.5,2.5625 z " />
    <path
       sodipodi:type="inkscape:offset"
       inkscape:radius="-1.013841"
       inkscape:original="M 9.5 2.53125 C 8.3242747 2.53125 4.4999998 1.7204538 4.5 5.5625 C 4.5 10.244595 6.8495193 7.8124999 8.5 7.8125 C 10.15048 7.8125 12.5 6.7981668 12.5 5.5625 C 12.5 4.3268333 11.15048 2.53125 9.5 2.53125 z "
       xlink:href="#path2200"
       style="opacity:0.3;fill:none;fill-opacity:1;stroke:#ffffff;stroke-width:0.99999982;stroke-miterlimit:4;stroke-opacity:1"
       id="path2228"
       inkscape:href="#path2200"
       d="M 9.5,2.5625 C 8.6880669,2.5625 7.6273657,2.4141837 6.8125,2.625 C 6.4050672,2.7304081 6.1165244,2.8955914 5.90625,3.15625 C 5.6959756,3.4169086 5.5,3.8326804 5.5,4.625 C 5.5,5.7107313 5.6926914,6.2825899 5.78125,6.4375 C 5.8698086,6.5924101 5.6932818,6.5043152 5.84375,6.5 C 5.9942182,6.4956848 6.3860753,6.3754183 6.84375,6.21875 C 7.3014247,6.0620817 7.8383859,5.875 8.5,5.875 C 9.1175484,5.875 10.018622,5.6403092 10.65625,5.3125 C 10.975064,5.1485954 11.211495,4.9570113 11.34375,4.8125 C 11.476005,4.6679887 11.5,4.6126273 11.5,4.625 C 11.5,4.3762518 11.277654,3.7651273 10.875,3.3125 C 10.472346,2.8598727 9.9511835,2.5625 9.5,2.5625 z " />
  </g>
</svg>
