<?xml version="1.0" encoding="UTF-8" standalone="no"?>
<!-- Created with Inkscape (http://www.inkscape.org/) -->
<svg
   xmlns:dc="http://purl.org/dc/elements/1.1/"
   xmlns:cc="http://creativecommons.org/ns#"
   xmlns:rdf="http://www.w3.org/1999/02/22-rdf-syntax-ns#"
   xmlns:svg="http://www.w3.org/2000/svg"
   xmlns="http://www.w3.org/2000/svg"
   xmlns:xlink="http://www.w3.org/1999/xlink"
   xmlns:sodipodi="http://sodipodi.sourceforge.net/DTD/sodipodi-0.dtd"
   xmlns:inkscape="http://www.inkscape.org/namespaces/inkscape"
   width="24"
   height="24"
   id="svg2201"
   sodipodi:version="0.32"
   inkscape:version="0.46"
   version="1.0"
   sodipodi:docbase="/home/hbons/Desktop/Gaim Refresh/emotes"
   sodipodi:docname="rain.svg"
   inkscape:export-filename="/home/hbons/Bureaublad/Projecten/Pidgin objecten voor 2.5.0/bitmaps/rain.png"
   inkscape:export-xdpi="90"
   inkscape:export-ydpi="90"
   inkscape:output_extension="org.inkscape.output.svg.inkscape">
  <defs
     id="defs2203">
    <linearGradient
       inkscape:collect="always"
       id="linearGradient3225">
      <stop
         style="stop-color:#3465a4;stop-opacity:1;"
         offset="0"
         id="stop3227" />
      <stop
         style="stop-color:#284d7e;stop-opacity:1"
         offset="1"
         id="stop3229" />
    </linearGradient>
    <linearGradient
       inkscape:collect="always"
       id="linearGradient3209">
      <stop
         style="stop-color:#ffffff;stop-opacity:1;"
         offset="0"
         id="stop3211" />
      <stop
         style="stop-color:#ffffff;stop-opacity:0;"
         offset="1"
         id="stop3213" />
    </linearGradient>
    <linearGradient
       inkscape:collect="always"
       id="linearGradient3191">
      <stop
         style="stop-color:#888a85;stop-opacity:1;"
         offset="0"
         id="stop3193" />
      <stop
         style="stop-color:#5c5d59;stop-opacity:1"
         offset="1"
         id="stop3195" />
    </linearGradient>
    <linearGradient
       inkscape:collect="always"
       id="linearGradient3183">
      <stop
         style="stop-color:#888a85;stop-opacity:1;"
         offset="0"
         id="stop3185" />
      <stop
         style="stop-color:#5b5c58;stop-opacity:1"
         offset="1"
         id="stop3187" />
    </linearGradient>
    <linearGradient
       inkscape:collect="always"
       id="linearGradient2256">
      <stop
         style="stop-color:#eeeeec;stop-opacity:1;"
         offset="0"
         id="stop2258" />
      <stop
         style="stop-color:#eeeeec;stop-opacity:0;"
         offset="1"
         id="stop2260" />
    </linearGradient>
    <radialGradient
       inkscape:collect="always"
       xlink:href="#linearGradient2256"
       id="radialGradient2262"
       cx="17.904432"
       cy="8.5087223"
       fx="17.904432"
       fy="8.5087223"
       r="3.5714285"
       gradientTransform="matrix(1,0,0,1.105,0,-0.793125)"
       gradientUnits="userSpaceOnUse" />
    <radialGradient
       inkscape:collect="always"
       xlink:href="#linearGradient2256"
       id="radialGradient2266"
       gradientUnits="userSpaceOnUse"
       gradientTransform="matrix(1,0,0,1.105,0,-0.793125)"
       cx="17.904432"
       cy="8.5087223"
       fx="17.904432"
       fy="8.5087223"
       r="3.5714285" />
    <radialGradient
       inkscape:collect="always"
       xlink:href="#linearGradient2256"
       id="radialGradient2270"
       gradientUnits="userSpaceOnUse"
       gradientTransform="matrix(1,0,0,1.105,0,-0.793125)"
       cx="17.904432"
       cy="8.5087223"
       fx="17.904432"
       fy="8.5087223"
       r="3.5714285" />
    <radialGradient
       inkscape:collect="always"
       xlink:href="#linearGradient2256"
       id="radialGradient2407"
       gradientUnits="userSpaceOnUse"
       gradientTransform="matrix(1,0,0,1.105,0,-0.793125)"
       cx="17.904432"
       cy="8.5087223"
       fx="17.904432"
       fy="8.5087223"
       r="3.5714285" />
    <radialGradient
       inkscape:collect="always"
       xlink:href="#linearGradient2256"
       id="radialGradient2409"
       gradientUnits="userSpaceOnUse"
       gradientTransform="matrix(1,0,0,1.105,0,-0.793125)"
       cx="17.904432"
       cy="8.5087223"
       fx="17.904432"
       fy="8.5087223"
       r="3.5714285" />
    <radialGradient
       inkscape:collect="always"
       xlink:href="#linearGradient2256"
       id="radialGradient2411"
       gradientUnits="userSpaceOnUse"
       gradientTransform="matrix(1,0,0,1.105,0,-0.793125)"
       cx="17.904432"
       cy="8.5087223"
       fx="17.904432"
       fy="8.5087223"
       r="3.5714285" />
    <linearGradient
       inkscape:collect="always"
       xlink:href="#linearGradient3183"
       id="linearGradient3189"
       x1="10.271637"
       y1="6.5004168"
       x2="10.498569"
       y2="9.4952374"
       gradientUnits="userSpaceOnUse" />
    <linearGradient
       inkscape:collect="always"
       xlink:href="#linearGradient3191"
       id="linearGradient3197"
       x1="13.971924"
       y1="12.361108"
       x2="14.056562"
       y2="14.45338"
       gradientUnits="userSpaceOnUse"
       gradientTransform="matrix(-1,0,0,1,27,-1.9991666)" />
    <linearGradient
       inkscape:collect="always"
       xlink:href="#linearGradient3209"
       id="linearGradient3215"
       x1="9.2306118"
       y1="18.03087"
       x2="16.286901"
       y2="18.03087"
       gradientUnits="userSpaceOnUse" />
    <linearGradient
       inkscape:collect="always"
       xlink:href="#linearGradient3225"
       id="linearGradient3231"
       x1="13.21062"
       y1="17.5"
       x2="16.138477"
       y2="20.084574"
       gradientUnits="userSpaceOnUse"
       gradientTransform="translate(0.9582064,-1.0000006)" />
    <linearGradient
       inkscape:collect="always"
       xlink:href="#linearGradient3225"
       id="linearGradient3237"
       gradientUnits="userSpaceOnUse"
       x1="13.538819"
       y1="17.5"
       x2="16.302578"
       y2="19.879448"
       gradientTransform="translate(-5.041794,1.9999991)" />
    <linearGradient
       inkscape:collect="always"
       xlink:href="#linearGradient3209"
       id="linearGradient3239"
       gradientUnits="userSpaceOnUse"
       x1="9.2306118"
       y1="18.03087"
       x2="16.286901"
       y2="18.03087" />
    <linearGradient
       inkscape:collect="always"
       xlink:href="#linearGradient3225"
       id="linearGradient3245"
       gradientUnits="userSpaceOnUse"
       gradientTransform="translate(-10.041794,-3.0000018)"
       x1="13.579844"
       y1="17.623077"
       x2="15.317979"
       y2="20.043549" />
    <linearGradient
       inkscape:collect="always"
       xlink:href="#linearGradient3209"
       id="linearGradient3247"
       gradientUnits="userSpaceOnUse"
       x1="9.2306118"
       y1="18.03087"
       x2="16.286901"
       y2="18.03087" />
  </defs>
  <sodipodi:namedview
     id="base"
     pagecolor="#ffffff"
     bordercolor="#666666"
     borderopacity="1.0"
     inkscape:pageopacity="0.0"
     inkscape:pageshadow="2"
     inkscape:zoom="24.375416"
     inkscape:cx="16.23513"
     inkscape:cy="10.891141"
     inkscape:current-layer="layer1"
     showgrid="true"
     inkscape:grid-bbox="true"
     inkscape:document-units="px"
     fill="#729fcf"
     inkscape:window-width="1440"
     inkscape:window-height="848"
     inkscape:window-x="0"
     inkscape:window-y="0"
     inkscape:snap-nodes="false"
     inkscape:snap-bbox="true"
     objecttolerance="10"
     gridtolerance="10">
    <inkscape:grid
       type="xygrid"
       id="grid2395"
       visible="true"
       enabled="true" />
  </sodipodi:namedview>
  <metadata
     id="metadata2206">
    <rdf:RDF>
      <cc:Work
         rdf:about="">
        <dc:format>image/svg+xml</dc:format>
        <dc:type
           rdf:resource="http://purl.org/dc/dcmitype/StillImage" />
      </cc:Work>
    </rdf:RDF>
  </metadata>
  <g
     id="layer1"
     inkscape:label="Layer 1"
     inkscape:groupmode="layer">
    <path
       style="opacity:1;fill:#d3d7cf;fill-opacity:1;stroke:url(#linearGradient3189);stroke-width:1.00595629000000009;stroke-miterlimit:4;stroke-dasharray:none;stroke-opacity:1"
       d="M 9.795788,1.5056662 C 8.38842,1.6048563 7.158735,2.5214 6.5067752,3.8163507 C 6.0760749,3.6138596 5.5980723,3.5040961 5.1012141,3.5040961 C 3.1137823,3.5040961 1.5029781,5.2930521 1.5029781,7.5009558 C 1.5029781,9.7088598 3.1137823,11.497817 5.1012141,11.497817 C 5.1089776,11.497817 5.1215735,11.497872 5.1293254,11.497817 C 5.1370773,11.497762 5.1496964,11.497926 5.1574366,11.497817 L 5.4666601,11.497817 L 15.530477,11.497817 L 15.867812,11.497817 C 15.875563,11.497872 15.88816,11.497817 15.895923,11.497817 C 17.883354,11.497817 19.494159,9.7088598 19.494159,7.5009558 C 19.494159,5.2930522 17.883354,3.5040961 15.895923,3.5040961 C 15.111819,3.5040961 14.379058,3.7801619 13.787581,4.2535072 C 13.173523,2.64174 11.722669,1.5056662 10.048789,1.5056662 C 9.961608,1.5056662 9.881603,1.499618 9.795788,1.5056662 z"
       id="path2237"
       sodipodi:nodetypes="ccssssccccssscsc" />
    <path
       sodipodi:type="arc"
       style="opacity:1;fill:url(#radialGradient2262);fill-opacity:1;stroke:none;stroke-width:0.94128603;stroke-miterlimit:4;stroke-dasharray:none;stroke-opacity:1"
       id="path2246"
       sodipodi:cx="19.285715"
       sodipodi:cy="7.5535712"
       sodipodi:rx="3.5714285"
       sodipodi:ry="3.9464285"
       d="M 22.857144,7.5535712 A 3.5714285,3.9464285 0 1 1 15.714287,7.5535712 A 3.5714285,3.9464285 0 1 1 22.857144,7.5535712 z"
       transform="matrix(-0.419979,0.848704,0.658303,0.443438,14.12698,-12.216191)" />
    <path
       sodipodi:type="arc"
       style="opacity:1;fill:url(#radialGradient2266);fill-opacity:1;stroke:none;stroke-width:0.94128603;stroke-miterlimit:4;stroke-dasharray:none;stroke-opacity:1"
       id="path2264"
       sodipodi:cx="19.285715"
       sodipodi:cy="7.5535712"
       sodipodi:rx="3.5714285"
       sodipodi:ry="3.9464285"
       d="M 22.857144,7.5535712 A 3.5714285,3.9464285 0 1 1 15.714287,7.5535712 A 3.5714285,3.9464285 0 1 1 22.857144,7.5535712 z"
       transform="matrix(0.419979,0.848582,-0.658302,0.443375,1.8701399,-12.213851)" />
    <path
       sodipodi:type="arc"
       style="opacity:1;fill:url(#radialGradient2270);fill-opacity:1;stroke:none;stroke-width:0.94128603;stroke-miterlimit:4;stroke-dasharray:none;stroke-opacity:1"
       id="path2268"
       sodipodi:cx="19.285715"
       sodipodi:cy="7.5535712"
       sodipodi:rx="3.5714285"
       sodipodi:ry="3.9464285"
       d="M 22.857144,7.5535712 A 3.5714285,3.9464285 0 1 1 15.714287,7.5535712 A 3.5714285,3.9464285 0 1 1 22.857144,7.5535712 z"
       transform="matrix(4.961495e-7,1.12,-0.897657,-7.661627e-7,16.776447,-15.599591)" />
    <path
       sodipodi:type="inkscape:offset"
       inkscape:radius="-1.0351878"
       inkscape:original="M 9.78125 1.5 C 8.3738822 1.59919 7.1519598 2.5175493 6.5 3.8125 C 6.0692995 3.6100089 5.5906082 3.5 5.09375 3.5 C 3.1063184 3.5000001 1.5 5.2920963 1.5 7.5 C 1.5 9.7079042 3.1063182 11.5 5.09375 11.5 C 5.1015137 11.5 5.1172481 11.500055 5.125 11.5 C 5.1327519 11.499945 5.1485098 11.500109 5.15625 11.5 L 5.46875 11.5 L 15.53125 11.5 L 15.875 11.5 C 15.882751 11.500055 15.898487 11.5 15.90625 11.5 C 17.893681 11.5 19.5 9.707904 19.5 7.5 C 19.499999 5.2920966 17.893681 3.5 15.90625 3.5 C 15.122146 3.5000001 14.372727 3.7766547 13.78125 4.25 C 13.167192 2.6382329 11.73638 1.5 10.0625 1.5 C 9.975319 1.4999999 9.867065 1.4939518 9.78125 1.5 z "
       xlink:href="#path2237"
       style="opacity:0.5;fill:none;fill-opacity:1;stroke:#ffffff;stroke-width:1.00595629000000009;stroke-miterlimit:4;stroke-dasharray:none;stroke-opacity:1"
       id="path2286"
       inkscape:href="#path2237"
       d="M 13.03125,3.875 C 12.028962,3.9456405 11.131738,4.6184951 10.625,5.625 C 10.37161,6.1305576 9.7594333,6.3392543 9.25,6.09375 C 8.9559243,5.9554921 8.6253081,5.875 8.28125,5.875 C 6.9052623,5.8749999 5.71875,7.1066836 5.71875,8.8125 C 5.7187502,10.518317 6.9161141,11.78125 8.28125,11.78125 C 8.2939025,11.78125 8.3195824,11.7812 8.3125,11.78125 C 8.3448022,11.781021 8.3704071,11.780875 8.34375,11.78125 L 8.65625,11.78125 L 18.71875,11.78125 L 19.03125,11.78125 C 19.024168,11.7812 19.049848,11.78125 19.0625,11.78125 C 20.427634,11.78125 21.625,10.518316 21.625,8.8125 C 21.624999,7.1066837 20.438486,5.875 19.0625,5.875 C 18.521891,5.8749999 18.050946,6.0653752 17.625,6.40625 C 17.366735,6.6176145 17.022417,6.6915192 16.700161,6.6047581 C 16.377906,6.517997 16.117236,6.281211 16,5.96875 C 15.522843,4.7163183 14.423347,3.875 13.21875,3.875 C 13.08369,3.8750002 13.025462,3.8754079 13.03125,3.875 z" />
    <path
       style="opacity:1;fill:#d3d7cf;fill-opacity:1;stroke:url(#linearGradient3197);stroke-width:1.00595629;stroke-miterlimit:4;stroke-dasharray:none;stroke-opacity:1"
       d="M 14.201349,4.5056662 C 15.608717,4.6048563 16.838402,5.5214 17.490362,6.8163507 C 17.921062,6.6138596 18.399065,6.5040961 18.895923,6.5040961 C 20.883355,6.5040961 22.494159,8.2930524 22.494159,10.500955 C 22.494159,12.708859 20.883355,14.497817 18.895923,14.497817 C 18.88816,14.497817 18.875564,14.497872 18.867812,14.497817 C 18.86006,14.497762 18.847441,14.497926 18.8397,14.497817 L 18.530477,14.497817 L 8.4666601,14.497817 L 8.1293251,14.497817 C 8.1215741,14.497872 8.1089771,14.497817 8.1012141,14.497817 C 6.1137831,14.497817 4.5029781,12.708859 4.5029781,10.500955 C 4.5029781,8.2930524 6.1137831,6.5040961 8.1012141,6.5040961 C 8.8853181,6.5040961 9.6180791,6.7801619 10.209556,7.2535072 C 10.823614,5.64174 12.274468,4.5056662 13.948348,4.5056662 C 14.035529,4.5056662 14.115534,4.499618 14.201349,4.5056662 z"
       id="path2397"
       sodipodi:nodetypes="ccssssccccssscsc" />
    <path
       sodipodi:type="arc"
       style="opacity:1;fill:url(#radialGradient2407);fill-opacity:1;stroke:none;stroke-width:0.94128603;stroke-miterlimit:4;stroke-dasharray:none;stroke-opacity:1"
       id="path2399"
       sodipodi:cx="19.285715"
       sodipodi:cy="7.5535712"
       sodipodi:rx="3.5714285"
       sodipodi:ry="3.9464285"
       d="M 22.857144,7.5535712 A 3.5714285,3.9464285 0 1 1 15.714287,7.5535712 A 3.5714285,3.9464285 0 1 1 22.857144,7.5535712 z"
       transform="matrix(-0.419979,0.848704,0.658303,0.443438,11.12698,-9.216191)" />
    <path
       sodipodi:type="arc"
       style="opacity:1;fill:url(#radialGradient2409);fill-opacity:1;stroke:none;stroke-width:0.94128603;stroke-miterlimit:4;stroke-dasharray:none;stroke-opacity:1"
       id="path2401"
       sodipodi:cx="19.285715"
       sodipodi:cy="7.5535712"
       sodipodi:rx="3.5714285"
       sodipodi:ry="3.9464285"
       d="M 22.857144,7.5535712 A 3.5714285,3.9464285 0 1 1 15.714287,7.5535712 A 3.5714285,3.9464285 0 1 1 22.857144,7.5535712 z"
       transform="matrix(-0.419979,0.848582,0.658302,0.443375,22.126997,-9.213851)" />
    <path
       sodipodi:type="arc"
       style="opacity:1;fill:url(#radialGradient2411);fill-opacity:1;stroke:none;stroke-width:0.94128603;stroke-miterlimit:4;stroke-dasharray:none;stroke-opacity:1"
       id="path2403"
       sodipodi:cx="19.285715"
       sodipodi:cy="7.5535712"
       sodipodi:rx="3.5714285"
       sodipodi:ry="3.9464285"
       d="M 22.857144,7.5535712 A 3.5714285,3.9464285 0 1 1 15.714287,7.5535712 A 3.5714285,3.9464285 0 1 1 22.857144,7.5535712 z"
       transform="matrix(-4.961495e-7,1.12,0.897657,-7.661627e-7,7.2206901,-12.599591)" />
    <path
       sodipodi:type="inkscape:offset"
       inkscape:radius="-1.0351878"
       inkscape:original="M 9.78125 1.5 C 8.3738822 1.59919 7.1519598 2.5175493 6.5 3.8125 C 6.0692995 3.6100089 5.5906082 3.5 5.09375 3.5 C 3.1063184 3.5000001 1.5 5.2920963 1.5 7.5 C 1.5 9.7079042 3.1063182 11.5 5.09375 11.5 C 5.1015137 11.5 5.1172481 11.500055 5.125 11.5 C 5.1327519 11.499945 5.1485098 11.500109 5.15625 11.5 L 5.46875 11.5 L 15.53125 11.5 L 15.875 11.5 C 15.882751 11.500055 15.898487 11.5 15.90625 11.5 C 17.893681 11.5 19.5 9.707904 19.5 7.5 C 19.499999 5.2920966 17.893681 3.5 15.90625 3.5 C 15.122146 3.5000001 14.372727 3.7766547 13.78125 4.25 C 13.167192 2.6382329 11.73638 1.5 10.0625 1.5 C 9.975319 1.4999999 9.867065 1.4939518 9.78125 1.5 z "
       xlink:href="#path2237"
       style="opacity:0.5;fill:none;fill-opacity:1;stroke:#ffffff;stroke-width:1.00595629;stroke-miterlimit:4;stroke-dasharray:none;stroke-opacity:1"
       id="path2405"
       d="M 9.84375,2.53125 C 8.841462,2.6018903 7.9442379,3.2747454 7.4375,4.28125 C 7.1841105,4.7868076 6.5719333,4.9955043 6.0625,4.75 C 5.7684236,4.6117418 5.4378082,4.53125 5.09375,4.53125 C 3.7286144,4.5312501 2.53125,5.7941838 2.53125,7.5 C 2.53125,9.2058169 3.728614,10.46875 5.09375,10.46875 C 5.1064027,10.46875 5.132082,10.4687 5.125,10.46875 C 5.1573038,10.468521 5.1829076,10.468375 5.15625,10.46875 L 5.46875,10.46875 L 15.53125,10.46875 L 15.875,10.46875 C 15.867913,10.4687 15.893598,10.46875 15.90625,10.46875 C 17.271385,10.46875 18.46875,9.2058164 18.46875,7.5 C 18.468749,5.7941838 17.271385,4.53125 15.90625,4.53125 C 15.365642,4.5312501 14.849558,4.7327398 14.4375,5.0625 C 14.179235,5.2738645 13.834917,5.3477692 13.512661,5.2610081 C 13.190406,5.174247 12.929736,4.937461 12.8125,4.625 C 12.331183,3.3616495 11.267097,2.53125 10.0625,2.53125 C 9.9274432,2.5312498 9.8203826,2.5328969 9.84375,2.53125 z"
       transform="matrix(-1,0,0,1,23.997137,3)"
       inkscape:href="#path2237" />
    <path
       style="opacity:1;fill:#729fcf;fill-opacity:1;fill-rule:nonzero;stroke:url(#linearGradient3231);stroke-width:0.99999987999999995;stroke-linecap:square;stroke-linejoin:round;marker:none;marker-start:none;marker-mid:none;marker-end:none;stroke-miterlimit:4;stroke-dasharray:none;stroke-dashoffset:0;stroke-opacity:1;visibility:visible;display:inline;overflow:visible;enable-background:accumulate"
       d="M 13.996959,16.010379 C 13.67951,16.643082 13.32778,17.294632 13.547718,18.030991 C 13.876186,19.13071 15.003477,19.746797 16.063994,19.406189 C 16.774102,19.178122 17.262579,18.581171 17.417523,17.87979 L 17.458208,13.5 C 17.458208,13.5 14.407208,15.299806 13.996959,16.010379 z"
       id="path3202"
       sodipodi:nodetypes="cssccc" />
    <path
       sodipodi:type="arc"
       style="opacity:1;fill:url(#linearGradient3215);fill-opacity:1;fill-rule:nonzero;stroke:none;stroke-width:1;stroke-linecap:square;stroke-linejoin:miter;marker:none;marker-start:none;marker-mid:none;marker-end:none;stroke-miterlimit:4;stroke-dasharray:none;stroke-dashoffset:0;stroke-opacity:1;visibility:visible;display:inline;overflow:visible;enable-background:accumulate"
       id="path3207"
       sodipodi:cx="12.758757"
       sodipodi:cy="18.03087"
       sodipodi:rx="3.5281448"
       sodipodi:ry="2.9332833"
       d="M 16.286901,18.03087 A 3.5281448,2.9332833 0 1 1 9.2306118,18.03087 A 3.5281448,2.9332833 0 1 1 16.286901,18.03087 z"
       transform="matrix(0.2834351,0,0,0.5113725,11.341928,8.2795084)" />
    <path
       style="opacity:1;fill:#729fcf;fill-opacity:1;fill-rule:nonzero;stroke:url(#linearGradient3237);stroke-width:0.99999987999999995;stroke-linecap:square;stroke-linejoin:round;marker:none;marker-start:none;marker-mid:none;marker-end:none;stroke-miterlimit:4;stroke-dasharray:none;stroke-dashoffset:0;stroke-opacity:1;visibility:visible;display:inline;overflow:visible;enable-background:accumulate"
       d="M 7.9969585,19.010379 C 7.6795095,19.643082 7.3277795,20.294632 7.5477175,21.030991 C 7.8761855,22.13071 9.0034765,22.746797 10.063993,22.406189 C 10.774101,22.178122 11.262579,21.581171 11.417523,20.87979 L 11.458208,16.5 C 11.458208,16.5 8.4072075,18.299806 7.9969585,19.010379 z"
       id="path3233"
       sodipodi:nodetypes="cssccc" />
    <path
       sodipodi:type="arc"
       style="opacity:1;fill:url(#linearGradient3239);fill-opacity:1;fill-rule:nonzero;stroke:none;stroke-width:1;stroke-linecap:square;stroke-linejoin:miter;marker:none;marker-start:none;marker-mid:none;marker-end:none;stroke-miterlimit:4;stroke-dasharray:none;stroke-dashoffset:0;stroke-opacity:1;visibility:visible;display:inline;overflow:visible;enable-background:accumulate"
       id="path3235"
       sodipodi:cx="12.758757"
       sodipodi:cy="18.03087"
       sodipodi:rx="3.5281448"
       sodipodi:ry="2.9332833"
       d="M 16.286901,18.03087 A 3.5281448,2.9332833 0 1 1 9.2306118,18.03087 A 3.5281448,2.9332833 0 1 1 16.286901,18.03087 z"
       transform="matrix(0.2834351,0,0,0.5113725,5.3419275,11.279508)" />
    <path
       style="opacity:1;fill:#729fcf;fill-opacity:1;fill-rule:nonzero;stroke:url(#linearGradient3245);stroke-width:0.99999987999999995;stroke-linecap:square;stroke-linejoin:round;marker:none;marker-start:none;marker-mid:none;marker-end:none;stroke-miterlimit:4;stroke-dasharray:none;stroke-dashoffset:0;stroke-opacity:1;visibility:visible;display:inline;overflow:visible;enable-background:accumulate"
       d="M 3.0178548,15.010379 C 2.7004058,15.643082 2.3486758,16.294632 2.5686138,17.030991 C 2.8970818,18.13071 4.0243728,18.746797 5.0848898,18.406189 C 5.7949978,18.178122 6.2834748,17.581171 6.4384188,16.87979 L 6.4791038,12.5 C 6.4791038,12.5 3.4281038,14.299806 3.0178548,15.010379 z"
       id="path3241"
       sodipodi:nodetypes="cssccc" />
    <path
       sodipodi:type="arc"
       style="opacity:1;fill:url(#linearGradient3247);fill-opacity:1;fill-rule:nonzero;stroke:none;stroke-width:1;stroke-linecap:square;stroke-linejoin:miter;marker:none;marker-start:none;marker-mid:none;marker-end:none;stroke-miterlimit:4;stroke-dasharray:none;stroke-dashoffset:0;stroke-opacity:1;visibility:visible;display:inline;overflow:visible;enable-background:accumulate"
       id="path3243"
       sodipodi:cx="12.758757"
       sodipodi:cy="18.03087"
       sodipodi:rx="3.5281448"
       sodipodi:ry="2.9332833"
       d="M 16.286901,18.03087 A 3.5281448,2.9332833 0 1 1 9.2306118,18.03087 A 3.5281448,2.9332833 0 1 1 16.286901,18.03087 z"
       transform="matrix(0.2834351,0,0,0.5113725,0.3628238,7.2795084)" />
  </g>
</svg>
