<?xml version="1.0" encoding="UTF-8" standalone="no"?>
<!-- Created with Inkscape (http://www.inkscape.org/) -->
<svg
   xmlns:dc="http://purl.org/dc/elements/1.1/"
   xmlns:cc="http://creativecommons.org/ns#"
   xmlns:rdf="http://www.w3.org/1999/02/22-rdf-syntax-ns#"
   xmlns:svg="http://www.w3.org/2000/svg"
   xmlns="http://www.w3.org/2000/svg"
   xmlns:xlink="http://www.w3.org/1999/xlink"
   xmlns:sodipodi="http://sodipodi.sourceforge.net/DTD/sodipodi-0.dtd"
   xmlns:inkscape="http://www.inkscape.org/namespaces/inkscape"
   width="24"
   height="24"
   id="svg2"
   sodipodi:version="0.32"
   inkscape:version="0.46"
   version="1.0"
   sodipodi:docbase="/home/hbons/Desktop/Gaim Refresh/emotes"
   sodipodi:docname="rose-dead.svg"
   inkscape:export-filename="/home/hbons/Desktop/Gaim Refresh/emotes/rose-dead.png"
   inkscape:export-xdpi="90"
   inkscape:export-ydpi="90"
   inkscape:output_extension="org.inkscape.output.svg.inkscape">
  <defs
     id="defs4">
    <linearGradient
       inkscape:collect="always"
       id="linearGradient3150">
      <stop
         style="stop-color:#2e3436;stop-opacity:1;"
         offset="0"
         id="stop3152" />
      <stop
         style="stop-color:#2e3436;stop-opacity:0;"
         offset="1"
         id="stop3154" />
    </linearGradient>
    <radialGradient
       inkscape:collect="always"
       xlink:href="#linearGradient3150"
       id="radialGradient3156"
       cx="10.748654"
       cy="10.457643"
       fx="10.748654"
       fy="10.457643"
       r="6.6449099"
       gradientTransform="matrix(-0.842757,5.698892e-16,-4.565819e-9,-0.35721,19.80716,14.19321)"
       gradientUnits="userSpaceOnUse" />
    <linearGradient
       inkscape:collect="always"
       id="linearGradient3182">
      <stop
         style="stop-color:#ffffff;stop-opacity:1;"
         offset="0"
         id="stop3184" />
      <stop
         style="stop-color:#ffffff;stop-opacity:0;"
         offset="1"
         id="stop3186" />
    </linearGradient>
    <linearGradient
       inkscape:collect="always"
       id="linearGradient2250">
      <stop
         style="stop-color:#ffffff;stop-opacity:1;"
         offset="0"
         id="stop2252" />
      <stop
         style="stop-color:#ffffff;stop-opacity:0;"
         offset="1"
         id="stop2254" />
    </linearGradient>
    <linearGradient
       inkscape:collect="always"
       id="linearGradient2224">
      <stop
         style="stop-color:#ffffff;stop-opacity:1;"
         offset="0"
         id="stop2226" />
      <stop
         style="stop-color:#ffffff;stop-opacity:0;"
         offset="1"
         id="stop2228" />
    </linearGradient>
    <linearGradient
       inkscape:collect="always"
       id="linearGradient2204">
      <stop
         style="stop-color:#ffffff;stop-opacity:1;"
         offset="0"
         id="stop2206" />
      <stop
         style="stop-color:#ffffff;stop-opacity:0;"
         offset="1"
         id="stop2208" />
    </linearGradient>
    <linearGradient
       inkscape:collect="always"
       xlink:href="#linearGradient2224"
       id="linearGradient2230"
       x1="3.6179743"
       y1="10.36782"
       x2="5.3769088"
       y2="14.254562"
       gradientUnits="userSpaceOnUse" />
    <linearGradient
       inkscape:collect="always"
       xlink:href="#linearGradient2250"
       id="linearGradient2256"
       x1="4.0834198"
       y1="11.360786"
       x2="5.6472383"
       y2="14.816375"
       gradientUnits="userSpaceOnUse" />
    <linearGradient
       inkscape:collect="always"
       xlink:href="#linearGradient2204"
       id="linearGradient2282"
       gradientUnits="userSpaceOnUse"
       x1="12.499997"
       y1="5.1898127"
       x2="12.499997"
       y2="9.5224342" />
    <linearGradient
       inkscape:collect="always"
       xlink:href="#linearGradient3182"
       id="linearGradient3188"
       x1="11.789481"
       y1="-0.67220891"
       x2="11.789481"
       y2="10.581764"
       gradientUnits="userSpaceOnUse" />
  </defs>
  <sodipodi:namedview
     id="base"
     pagecolor="#ffffff"
     bordercolor="#666666"
     borderopacity="1.0"
     inkscape:pageopacity="0.0"
     inkscape:pageshadow="2"
     inkscape:zoom="24.007726"
     inkscape:cx="20.743869"
     inkscape:cy="9.0910419"
     inkscape:document-units="px"
     inkscape:current-layer="layer1"
     showgrid="true"
     fill="#9db029"
     showguides="true"
     inkscape:guide-bbox="true"
     inkscape:window-width="1268"
     inkscape:window-height="971"
     inkscape:window-x="6"
     inkscape:window-y="21" />
  <metadata
     id="metadata7">
    <rdf:RDF>
      <cc:Work
         rdf:about="">
        <dc:format>image/svg+xml</dc:format>
        <dc:type
           rdf:resource="http://purl.org/dc/dcmitype/StillImage" />
      </cc:Work>
    </rdf:RDF>
  </metadata>
  <g
     inkscape:label="Layer 1"
     inkscape:groupmode="layer"
     id="layer1">
    <path
       sodipodi:type="arc"
       style="opacity:0.4;fill:url(#radialGradient3156);fill-opacity:1;stroke:none;stroke-width:1;stroke-miterlimit:4;stroke-dasharray:none;stroke-opacity:1"
       id="path3140"
       sodipodi:cx="10.748654"
       sodipodi:cy="10.457643"
       sodipodi:rx="6.6449099"
       sodipodi:ry="2.3675451"
       d="M 17.393564 10.457643 A 6.6449099 2.3675451 0 1 1  4.1037445,10.457643 A 6.6449099 2.3675451 0 1 1  17.393564 10.457643 z"
       transform="matrix(1.805893,0,0,1.478325,-7.410923,3.04021)" />
    <path
       style="opacity:1;fill:#9db029;fill-opacity:1;stroke:none;stroke-width:1.00000036;stroke-miterlimit:4;stroke-dasharray:none;stroke-opacity:1"
       d="M 11.5,3.5048458 C 7.1295366,3.7822601 5.5000002,7.4187341 5.5000002,10.471289 L 7.5,10.471289 C 7.4999999,7.7333426 9.3403226,5.5041838 12.125,5.5041838 C 14.909677,5.5041834 16.5625,8.7642527 16.5625,11.502198 L 16.5,15.375915 C 16.5,16.230778 16.70466,16.979769 17,17.375253 C 17.09064,17.489894 17.207302,17.581543 17.3125,17.62517 C 17.345142,17.636748 17.403865,17.652456 17.4375,17.65641 C 17.445964,17.656907 17.460232,17.65641 17.46875,17.65641 C 17.494303,17.65641 17.537449,17.660832 17.5625,17.65641 C 18.059881,17.539216 18.46875,16.568747 18.46875,15.375915 L 18.5,11.502198 C 18.5,8.1964216 16.743983,3.5048458 12.03125,3.5048458 C 11.844441,3.5048458 11.677661,3.4935688 11.5,3.5048458 z "
       id="path3180"
       sodipodi:nodetypes="cccsccsssssccsc" />
    <path
       style="opacity:1;fill:url(#linearGradient3188);fill-opacity:1.0;stroke:#727e0a;stroke-width:1.00000036;stroke-miterlimit:4;stroke-dasharray:none;stroke-opacity:1"
       d="M 11.5,3.5048458 C 7.1295366,3.7822601 5.5000002,7.4187341 5.5000002,10.471289 L 7.5,10.471289 C 7.4999999,7.7333426 9.3403226,5.5041838 12.125,5.5041838 C 14.909677,5.5041834 16.5625,8.7642527 16.5625,11.502198 L 16.5,15.375915 C 16.5,16.230778 16.70466,16.979769 17,17.375253 C 17.09064,17.489894 17.207302,17.581543 17.3125,17.62517 C 17.345142,17.636748 17.403865,17.652456 17.4375,17.65641 C 17.445964,17.656907 17.460232,17.65641 17.46875,17.65641 C 17.494303,17.65641 17.537449,17.660832 17.5625,17.65641 C 18.059881,17.539216 18.46875,16.568747 18.46875,15.375915 L 18.5,11.502198 C 18.5,8.1964216 16.743983,3.5048458 12.03125,3.5048458 C 11.844441,3.5048458 11.677661,3.4935688 11.5,3.5048458 z "
       id="rect2193"
       sodipodi:nodetypes="cccsccsssssccsc" />
    <g
       id="g2278"
       transform="matrix(-1,-4.065758e-18,4.065758e-18,-1,19.0002,20.99619)">
      <path
         sodipodi:nodetypes="csscccc"
         id="path1307"
         d="M 17.499793,7.6417521 C 17.499793,10.365923 15.259882,12.49619 12.499995,12.49619 C 9.7401083,12.49619 7.5001988,10.508917 7.5001988,7.6417521 C 7.5001988,6.9718398 7.5344492,4.0801302 8.0604031,3.0550033 C 9.4773699,5.7464041 11.365076,4.3333429 12.521933,2.0785383 C 13.637823,4.253501 15.253368,5.8692766 17.034643,2.9635011 C 17.833408,4.3470026 17.499793,6.3019273 17.499793,7.6417521 z "
         style="fill:#ef2929;fill-opacity:1;stroke:#a40000;stroke-width:0.99999982;stroke-miterlimit:4;stroke-opacity:1" />
      <path
         d="M 12.5,3.90625 C 12.013567,4.5363609 11.479971,5.0714199 10.75,5.34375 C 10.140845,5.5710073 9.3825719,5.5574612 8.75,5.21875 C 8.7072523,5.1958607 8.6977183,5.1188663 8.65625,5.09375 C 8.6288773,5.2961385 8.5787949,5.358694 8.5625,5.5625 C 8.491031,6.4563861 8.46875,7.3389895 8.46875,7.65625 C 8.46875,10.016552 10.204733,11.53125 12.5,11.53125 C 14.761655,11.53125 16.531251,9.8469515 16.53125,7.65625 C 16.53125,6.7310047 16.536711,5.7765081 16.46875,4.90625 C 16.364195,4.9800599 16.298669,5.1591784 16.1875,5.21875 C 15.544294,5.5634226 14.763798,5.5907191 14.15625,5.34375 C 13.443496,5.0540143 12.937732,4.5151877 12.5,3.90625 z "
         inkscape:href="#path1307"
         id="path2202"
         style="opacity:0.5;fill:url(#linearGradient2282);fill-opacity:1;stroke:#ffffff;stroke-width:0.99999982;stroke-miterlimit:4;stroke-opacity:1"
         xlink:href="#path1307"
         inkscape:original="M 12.53125 2.09375 C 11.374393 4.3485546 9.479467 5.7539007 8.0625 3.0625 C 7.5365461 4.0876269 7.5 6.9863376 7.5 7.65625 C 7.5 10.523415 9.7401131 12.5 12.5 12.5 C 15.259887 12.5 17.500001 10.380421 17.5 7.65625 C 17.5 6.3164252 17.830015 4.3522514 17.03125 2.96875 C 15.249975 5.8745255 13.64714 4.2687126 12.53125 2.09375 z "
         inkscape:radius="-0.97311676"
         sodipodi:type="inkscape:offset" />
    </g>
    <path
       sodipodi:type="arc"
       style="opacity:1;fill:#9db029;fill-opacity:1;stroke:none;stroke-width:1.20974529;stroke-miterlimit:4;stroke-dasharray:none;stroke-opacity:1"
       id="path2222"
       sodipodi:cx="5.1688938"
       sodipodi:cy="13.759372"
       sodipodi:rx="2.6816065"
       sodipodi:ry="1.3796672"
       d="M 7.8505003 13.759372 A 2.6816065 1.3796672 0 1 1  2.4872873,13.759372 A 2.6816065 1.3796672 0 1 1  7.8505003 13.759372 z"
       transform="matrix(0.466836,-0.808583,0.633795,0.365922,4.285503,11.82478)" />
    <path
       sodipodi:type="arc"
       style="opacity:1;fill:url(#linearGradient2230);fill-opacity:1;stroke:#727e0a;stroke-width:1.20974529;stroke-miterlimit:4;stroke-dasharray:none;stroke-opacity:1"
       id="path2198"
       sodipodi:cx="5.1688938"
       sodipodi:cy="13.759372"
       sodipodi:rx="2.6816065"
       sodipodi:ry="1.3796672"
       d="M 7.8505003 13.759372 A 2.6816065 1.3796672 0 1 1  2.4872873,13.759372 A 2.6816065 1.3796672 0 1 1  7.8505003 13.759372 z"
       transform="matrix(0.466836,-0.808583,0.633795,0.365922,3.839403,11.87134)" />
    <path
       sodipodi:type="arc"
       style="opacity:1;fill:#9db029;fill-opacity:1;stroke:none;stroke-width:1.20974529;stroke-miterlimit:4;stroke-dasharray:none;stroke-opacity:1"
       id="path2232"
       sodipodi:cx="5.1688938"
       sodipodi:cy="13.759372"
       sodipodi:rx="2.6816065"
       sodipodi:ry="1.3796672"
       d="M 7.8505003 13.759372 A 2.6816065 1.3796672 0 1 1  2.4872873,13.759372 A 2.6816065 1.3796672 0 1 1  7.8505003 13.759372 z"
       transform="matrix(-0.660205,-0.660204,-0.517491,0.517492,30.62357,11.38286)" />
    <path
       sodipodi:type="arc"
       style="opacity:1;fill:url(#linearGradient2256);fill-opacity:1;stroke:#727e0a;stroke-width:1.20974529;stroke-miterlimit:4;stroke-dasharray:none;stroke-opacity:1"
       id="path2200"
       sodipodi:cx="5.1688938"
       sodipodi:cy="13.759372"
       sodipodi:rx="2.6816065"
       sodipodi:ry="1.3796672"
       d="M 7.8505003 13.759372 A 2.6816065 1.3796672 0 1 1  2.4872873,13.759372 A 2.6816065 1.3796672 0 1 1  7.8505003 13.759372 z"
       transform="matrix(-0.660205,-0.660204,-0.517491,0.517492,30.94219,11.70147)" />
  </g>
</svg>
