<?xml version="1.0" encoding="UTF-8" standalone="no"?>
<!-- Created with Inkscape (http://www.inkscape.org/) -->
<svg
   xmlns:dc="http://purl.org/dc/elements/1.1/"
   xmlns:cc="http://creativecommons.org/ns#"
   xmlns:rdf="http://www.w3.org/1999/02/22-rdf-syntax-ns#"
   xmlns:svg="http://www.w3.org/2000/svg"
   xmlns="http://www.w3.org/2000/svg"
   xmlns:xlink="http://www.w3.org/1999/xlink"
   xmlns:sodipodi="http://sodipodi.sourceforge.net/DTD/sodipodi-0.dtd"
   xmlns:inkscape="http://www.inkscape.org/namespaces/inkscape"
   width="24"
   height="24"
   id="svg2"
   sodipodi:version="0.32"
   inkscape:version="0.46"
   version="1.0"
   sodipodi:docbase="/home/hbons/Desktop/Gaim Refresh/emotes/scalable"
   sodipodi:docname="sheep.svg"
   inkscape:export-filename="/home/hbons/Desktop/Pidgin objects refresh/sheep.png"
   inkscape:export-xdpi="90"
   inkscape:export-ydpi="90"
   inkscape:output_extension="org.inkscape.output.svg.inkscape">
  <defs
     id="defs4">
    <linearGradient
       inkscape:collect="always"
       id="linearGradient3662">
      <stop
         style="stop-color:#2e3436;stop-opacity:1;"
         offset="0"
         id="stop3664" />
      <stop
         style="stop-color:#555753;stop-opacity:1"
         offset="1"
         id="stop3666" />
    </linearGradient>
    <linearGradient
       inkscape:collect="always"
       id="linearGradient3620">
      <stop
         style="stop-color:#f89b9b;stop-opacity:1;"
         offset="0"
         id="stop3622" />
      <stop
         style="stop-color:#fdd5d5;stop-opacity:1"
         offset="1"
         id="stop3624" />
    </linearGradient>
    <linearGradient
       inkscape:collect="always"
       id="linearGradient3546">
      <stop
         style="stop-color:#888a85;stop-opacity:1;"
         offset="0"
         id="stop3548" />
      <stop
         style="stop-color:#4e4f4c;stop-opacity:1"
         offset="1"
         id="stop3550" />
    </linearGradient>
    <linearGradient
       inkscape:collect="always"
       id="linearGradient3353">
      <stop
         style="stop-color:#b77900;stop-opacity:1"
         offset="0"
         id="stop3355" />
      <stop
         style="stop-color:#734c00;stop-opacity:1"
         offset="1"
         id="stop3357" />
    </linearGradient>
    <linearGradient
       inkscape:collect="always"
       xlink:href="#linearGradient3353"
       id="linearGradient3359"
       x1="13.352846"
       y1="14.410679"
       x2="16.935287"
       y2="22.134329"
       gradientUnits="userSpaceOnUse"
       gradientTransform="matrix(0.9991522,0,0,0.9938215,-1.5401989e-2,-0.9522273)" />
    <filter
       inkscape:collect="always"
       id="filter3477"
       x="-0.1154421"
       width="1.2308842"
       y="-0.25611327"
       height="1.5122265">
      <feGaussianBlur
         inkscape:collect="always"
         stdDeviation="0.58430657"
         id="feGaussianBlur3479" />
    </filter>
    <linearGradient
       inkscape:collect="always"
       xlink:href="#linearGradient3546"
       id="linearGradient3552"
       x1="12.549248"
       y1="9.5051908"
       x2="13.951648"
       y2="12.833973"
       gradientUnits="userSpaceOnUse" />
    <linearGradient
       inkscape:collect="always"
       xlink:href="#linearGradient3620"
       id="linearGradient3626"
       x1="21.388779"
       y1="15.469381"
       x2="22.177612"
       y2="15.469381"
       gradientUnits="userSpaceOnUse" />
    <linearGradient
       y2="15.469381"
       x2="22.177612"
       y1="15.469381"
       x1="21.388779"
       gradientUnits="userSpaceOnUse"
       id="linearGradient3644"
       xlink:href="#linearGradient3620"
       inkscape:collect="always" />
    <linearGradient
       inkscape:collect="always"
       xlink:href="#linearGradient3662"
       id="linearGradient3668"
       x1="21.401852"
       y1="10.103472"
       x2="20.79545"
       y2="13.141998"
       gradientUnits="userSpaceOnUse" />
    <linearGradient
       y2="13.141998"
       x2="20.79545"
       y1="10.103472"
       x1="21.401852"
       gradientUnits="userSpaceOnUse"
       id="linearGradient3686"
       xlink:href="#linearGradient3662"
       inkscape:collect="always" />
  </defs>
  <sodipodi:namedview
     id="base"
     pagecolor="#ffffff"
     bordercolor="#666666"
     borderopacity="1.0"
     inkscape:pageopacity="0.0"
     inkscape:pageshadow="2"
     inkscape:zoom="27.577635"
     inkscape:cx="15.789279"
     inkscape:cy="11.684262"
     inkscape:document-units="px"
     inkscape:current-layer="layer1"
     showgrid="true"
     fill="#2e3436"
     inkscape:window-width="1268"
     inkscape:window-height="842"
     inkscape:window-x="4"
     inkscape:window-y="24"
     inkscape:snap-bbox="true"
     inkscape:snap-nodes="false"
     objecttolerance="11"
     gridtolerance="10">
    <inkscape:grid
       type="xygrid"
       id="grid2493"
       empspacing="5"
       visible="true"
       enabled="true" />
  </sodipodi:namedview>
  <metadata
     id="metadata7">
    <rdf:RDF>
      <cc:Work
         rdf:about="">
        <dc:format>image/svg+xml</dc:format>
        <dc:type
           rdf:resource="http://purl.org/dc/dcmitype/StillImage" />
      </cc:Work>
    </rdf:RDF>
  </metadata>
  <g
     inkscape:label="Layer 1"
     inkscape:groupmode="layer"
     id="layer1">
    <path
       sodipodi:type="arc"
       style="opacity:1;fill:url(#linearGradient3686);fill-opacity:1;fill-rule:evenodd;stroke:none"
       id="path3702"
       sodipodi:cx="21.783195"
       sodipodi:cy="15.469381"
       sodipodi:rx="1.3019395"
       sodipodi:ry="7.1315193"
       d="m 23.085135,15.469381 a 1.3019395,7.1315193 0 1 1 -2.603879,0 A 1.3019395,7.1315193 0 1 1 23.085135,15.469381 z"
       transform="matrix(0,-1.53617,-0.56089,0,27.676623,41.462691)" />
    <path
       sodipodi:type="arc"
       style="opacity:0.515;color:#000000;fill:#2e3436;fill-opacity:1;fill-rule:nonzero;stroke:none;stroke-width:1;marker:none;marker-start:none;marker-mid:none;marker-end:none;visibility:visible;display:inline;overflow:visible;enable-background:accumulate;filter:url(#filter3477)"
       id="path3415"
       sodipodi:cx="13.434799"
       sodipodi:cy="20.718355"
       sodipodi:rx="6.0737624"
       sodipodi:ry="2.7377257"
       d="m 19.508562,20.718355 a 6.0737624,2.7377257 0 1 1 -12.147525,0 6.0737624,2.7377257 0 1 1 12.147525,0 z"
       transform="matrix(1.3253731,0,0,1.0958002,-4.7158046,-2.7031787)" />
    <path
       sodipodi:type="arc"
       style="opacity:1;fill:url(#linearGradient3626);fill-opacity:1;fill-rule:evenodd;stroke:none"
       id="path3307"
       sodipodi:cx="21.783195"
       sodipodi:cy="15.469381"
       sodipodi:rx="1.3019395"
       sodipodi:ry="7.1315193"
       d="m 23.085135,15.469381 a 1.3019395,7.1315193 0 1 1 -2.603879,0 A 1.3019395,7.1315193 0 1 1 23.085135,15.469381 z"
       transform="matrix(0,-1.1587333,0.4900134,0,10.949301,33.715463)" />
    <path
       sodipodi:type="arc"
       style="opacity:1;fill:url(#linearGradient3668);fill-opacity:1;fill-rule:evenodd;stroke:none"
       id="path3439"
       sodipodi:cx="21.783195"
       sodipodi:cy="15.469381"
       sodipodi:rx="1.3019395"
       sodipodi:ry="7.1315193"
       d="m 23.085135,15.469381 a 1.3019395,7.1315193 0 1 1 -2.603879,0 A 1.3019395,7.1315193 0 1 1 23.085135,15.469381 z"
       transform="matrix(0,-1.53617,0.56089,0,-3.6766201,41.462692)" />
    <path
       sodipodi:type="arc"
       style="opacity:1;fill:url(#linearGradient3644);fill-opacity:1;fill-rule:evenodd;stroke:none"
       id="path3660"
       sodipodi:cx="21.783195"
       sodipodi:cy="15.469381"
       sodipodi:rx="1.3019395"
       sodipodi:ry="7.1315193"
       d="m 23.085135,15.469381 a 1.3019395,7.1315193 0 1 1 -2.603879,0 A 1.3019395,7.1315193 0 1 1 23.085135,15.469381 z"
       transform="matrix(0,-1.1587333,0.4900134,0,-2.0747442,33.749515)" />
    <path
       style="fill:#fdd474;fill-opacity:1;fill-rule:evenodd;stroke:url(#linearGradient3359);stroke-width:0.99999964;stroke-miterlimit:4;stroke-opacity:1"
       d="m 19.087626,10.946413 c 0,4.657434 2.4157693,3.5962499 0.92845522,7.4013326 -1.4748432,3.7731764 -13.236611,4.3576254 -15.604224,0.6684904 -2.3574336,-3.673273 0.600731,-5.968127 0.600731,-8.069823 0,-4.6624204 3.1528086,-8.4464134 7.0375198,-8.4464134 3.88471,0 7.0375184,3.7529599 7.0375184,8.4464134 z"
       id="path2495"
       sodipodi:nodetypes="czzssz" />
    <path
       sodipodi:type="inkscape:offset"
       inkscape:radius="-1.0327028"
       inkscape:original="M 12.0625 2.5 C 8.1777888 2.5 5.0000002 6.2750796 5 10.9375 C 5 13.039196 2.0488165 15.357978 4.40625 19.03125 C 6.773863 22.720385 18.556407 22.116926 20.03125 18.34375 C 21.518564 14.538667 19.09375 15.594934 19.09375 10.9375 C 19.09375 6.2440465 15.94721 2.5000001 12.0625 2.5 z "
       xlink:href="#path2495"
       style="opacity:0.48999999;fill:none;stroke:#ffffff;stroke-width:0.99770874;stroke-miterlimit:4;stroke-opacity:1"
       id="path3414"
       inkscape:href="#path2495"
       d="m 12.0625,3.53125 c -3.2156721,0 -6.0312498,3.2130724 -6.03125,7.40625 0,1.534219 -0.8621175,2.641923 -1.25,3.78125 -0.3878825,1.139327 -0.5195665,2.161347 0.5,3.75 0.3746967,0.58384 1.3029223,1.166241 2.625,1.53125 1.3220777,0.365009 2.974719,0.54501 4.59375,0.46875 1.619031,-0.07626 3.231565,-0.401627 4.4375,-0.875 1.205935,-0.473373 1.922627,-1.107257 2.125,-1.625 0.343088,-0.877742 0.417167,-1.381827 0.40625,-1.6875 -0.010917,-0.305673 -0.060381,-0.485641 -0.25,-0.84375 -0.379238,-0.716219 -1.15625,-1.992063 -1.15625,-4.5 0,-4.231897 -2.778829,-7.4062499 -6,-7.40625 z"
       transform="matrix(1.001629,0,0,1.0029637,-1.4740041e-3,-4.6726972e-2)" />
    <path
       sodipodi:type="arc"
       style="opacity:1;fill:#2e3436;fill-opacity:1;fill-rule:evenodd;stroke:none"
       id="path2497"
       sodipodi:cx="10.065306"
       sodipodi:cy="13.021205"
       sodipodi:rx="0.59207678"
       sodipodi:ry="1.234903"
       d="m 10.657382,13.021205 a 0.59207678,1.234903 0 1 1 -1.1841536,0 0.59207678,1.234903 0 1 1 1.1841536,0 z"
       transform="matrix(2.5334555,0,0,0.7928172,-17.000004,1.6975121)" />
    <path
       sodipodi:type="arc"
       style="opacity:1;fill:#2e3436;fill-opacity:1;fill-rule:evenodd;stroke:none"
       id="path2499"
       sodipodi:cx="10.065306"
       sodipodi:cy="13.021205"
       sodipodi:rx="0.59207678"
       sodipodi:ry="1.234903"
       d="m 10.657382,13.021205 a 0.59207678,1.234903 0 1 1 -1.1841536,0 0.59207678,1.234903 0 1 1 1.1841536,0 z"
       transform="matrix(2.5279332,0,0,0.80978,-9.9411507,1.4556889)" />
    <path
       sodipodi:type="arc"
       style="opacity:1;fill:#795000;fill-opacity:1;fill-rule:evenodd;stroke:none"
       id="path3351"
       sodipodi:cx="10.065306"
       sodipodi:cy="13.021205"
       sodipodi:rx="0.59207678"
       sodipodi:ry="1.234903"
       d="m 10.657382,13.021205 a 0.59207678,1.234903 0 1 1 -1.1841536,0 0.59207678,1.234903 0 1 1 1.1841536,0 z"
       transform="matrix(-0.6383632,-0.5115594,-0.728057,0.7761039,29.986802,13.178249)"
       inkscape:transform-center-x="1.6588957" />
    <path
       sodipodi:type="arc"
       style="opacity:1;fill:#795000;fill-opacity:1;fill-rule:evenodd;stroke:none"
       id="path3403"
       sodipodi:cx="10.065306"
       sodipodi:cy="13.021205"
       sodipodi:rx="0.59207678"
       sodipodi:ry="1.234903"
       d="m 10.657382,13.021205 a 0.59207678,1.234903 0 1 1 -1.1841536,0 0.59207678,1.234903 0 1 1 1.1841536,0 z"
       transform="matrix(0.6383632,-0.5115594,0.728057,0.7761039,-5.8982957,13.178249)"
       inkscape:transform-center-x="-1.6588957" />
    <path
       sodipodi:type="arc"
       style="opacity:1;color:#000000;fill:#eeeeec;fill-opacity:1;fill-rule:nonzero;stroke:url(#linearGradient3552);stroke-width:0.65185451999999999;stroke-opacity:1;marker:none;marker-start:none;marker-mid:none;marker-end:none;visibility:visible;display:inline;overflow:visible;enable-background:accumulate"
       id="path3501"
       sodipodi:cx="11.875566"
       sodipodi:cy="10.021281"
       sodipodi:rx="4.4782667"
       sodipodi:ry="2.8465095"
       d="m 16.353832,10.021281 a 4.4782667,2.8465095 0 1 1 -8.9565334,0 4.4782667,2.8465095 0 1 1 8.9565334,0 z"
       transform="matrix(1.6747551,0,0,1.4052298,-7.8886636,-8.5822031)" />
    <path
       sodipodi:type="arc"
       style="opacity:0.675;color:#000000;fill:none;stroke:#ffffff;stroke-width:0.80852603999999983;stroke-opacity:1;marker:none;marker-start:none;marker-mid:none;marker-end:none;visibility:visible;display:inline;overflow:visible;enable-background:accumulate"
       id="path3544"
       sodipodi:cx="11.875566"
       sodipodi:cy="10.021281"
       sodipodi:rx="4.4782667"
       sodipodi:ry="2.8465095"
       d="m 16.353832,10.021281 a 4.4782667,2.8465095 0 1 1 -8.9565334,0 4.4782667,2.8465095 0 1 1 8.9565334,0 z"
       transform="matrix(1.4514544,0,0,1.0539224,-5.2368418,-5.0616525)" />
    <path
       sodipodi:type="arc"
       style="opacity:0.8;fill:#ffffff;fill-opacity:1;fill-rule:evenodd;stroke:none"
       id="path3596"
       sodipodi:cx="10.065306"
       sodipodi:cy="13.021205"
       sodipodi:rx="0.59207678"
       sodipodi:ry="1.234903"
       d="m 10.657382,13.021205 a 0.59207678,1.234903 0 1 1 -1.1841536,0 0.59207678,1.234903 0 1 1 1.1841536,0 z"
       transform="matrix(1.671281,0,0,0.4048901,-1.8258882,6.227843)" />
    <path
       sodipodi:type="arc"
       style="opacity:0.8;fill:#ffffff;fill-opacity:1;fill-rule:evenodd;stroke:none"
       id="path3618"
       sodipodi:cx="10.065306"
       sodipodi:cy="13.021205"
       sodipodi:rx="0.59207678"
       sodipodi:ry="1.234903"
       d="m 10.657382,13.021205 a 0.59207678,1.234903 0 1 1 -1.1841536,0 0.59207678,1.234903 0 1 1 1.1841536,0 z"
       transform="matrix(1.671281,0,0,0.4048901,-8.8324275,6.2278435)" />
  </g>
</svg>
