<?xml version="1.0" encoding="UTF-8" standalone="no"?>
<!-- Created with Inkscape (http://www.inkscape.org/) -->
<svg
   xmlns:dc="http://purl.org/dc/elements/1.1/"
   xmlns:cc="http://creativecommons.org/ns#"
   xmlns:rdf="http://www.w3.org/1999/02/22-rdf-syntax-ns#"
   xmlns:svg="http://www.w3.org/2000/svg"
   xmlns="http://www.w3.org/2000/svg"
   xmlns:xlink="http://www.w3.org/1999/xlink"
   xmlns:sodipodi="http://sodipodi.sourceforge.net/DTD/sodipodi-0.dtd"
   xmlns:inkscape="http://www.inkscape.org/namespaces/inkscape"
   width="24"
   height="24"
   id="svg2"
   sodipodi:version="0.32"
   inkscape:version="0.46"
   version="1.0"
   sodipodi:docbase="/home/hbons/Desktop/Gaim Refresh/emotes/scalable"
   sodipodi:docname="sheep.svg"
   inkscape:export-filename="/home/hbons/Desktop/Gaim Refresh/emotes/sheep.png"
   inkscape:export-xdpi="90"
   inkscape:export-ydpi="90"
   inkscape:output_extension="org.inkscape.output.svg.inkscape">
  <defs
     id="defs4">
    <linearGradient
       inkscape:collect="always"
       id="linearGradient3424">
      <stop
         style="stop-color:#d3d7cf;stop-opacity:1;"
         offset="0"
         id="stop3426" />
      <stop
         style="stop-color:#d3d7cf;stop-opacity:0;"
         offset="1"
         id="stop3428" />
    </linearGradient>
    <radialGradient
       inkscape:collect="always"
       xlink:href="#linearGradient3424"
       id="radialGradient3437"
       gradientUnits="userSpaceOnUse"
       gradientTransform="matrix(3.956224,1.444028e-22,-7.227903e-23,2.463895,-35.72013,-6.737683)"
       cx="12.06145"
       cy="3.710233"
       fx="12.06145"
       fy="3.710233"
       r="8.1835221" />
  </defs>
  <sodipodi:namedview
     id="base"
     pagecolor="#ffffff"
     bordercolor="#666666"
     borderopacity="1.0"
     inkscape:pageopacity="0.0"
     inkscape:pageshadow="2"
     inkscape:zoom="27.577635"
     inkscape:cx="21.159745"
     inkscape:cy="14.266343"
     inkscape:document-units="px"
     inkscape:current-layer="layer1"
     showgrid="true"
     fill="#2e3436"
     inkscape:window-width="1268"
     inkscape:window-height="971"
     inkscape:window-x="6"
     inkscape:window-y="21" />
  <metadata
     id="metadata7">
    <rdf:RDF>
      <cc:Work
         rdf:about="">
        <dc:format>image/svg+xml</dc:format>
        <dc:type
           rdf:resource="http://purl.org/dc/dcmitype/StillImage" />
      </cc:Work>
    </rdf:RDF>
  </metadata>
  <g
     inkscape:label="Layer 1"
     inkscape:groupmode="layer"
     id="layer1">
    <path
       sodipodi:type="arc"
       style="opacity:1;fill:#2e3436;fill-opacity:1;fill-rule:evenodd;stroke:none;stroke-width:1;stroke-miterlimit:4;stroke-dasharray:none;stroke-opacity:1"
       id="path2505"
       sodipodi:cx="21.783195"
       sodipodi:cy="15.469381"
       sodipodi:rx="1.3019395"
       sodipodi:ry="7.1315193"
       d="M 23.085135 15.469381 A 1.3019395 7.1315193 0 1 1  20.481256,15.469381 A 1.3019395 7.1315193 0 1 1  23.085135 15.469381 z"
       transform="matrix(0,-1.53617,0.56089,0,10.32338,43.46269)" />
    <path
       sodipodi:type="arc"
       style="opacity:1;fill:#2e3436;fill-opacity:1;fill-rule:evenodd;stroke:none;stroke-width:1;stroke-miterlimit:4;stroke-dasharray:none;stroke-opacity:1"
       id="path3439"
       sodipodi:cx="21.783195"
       sodipodi:cy="15.469381"
       sodipodi:rx="1.3019395"
       sodipodi:ry="7.1315193"
       d="M 23.085135 15.469381 A 1.3019395 7.1315193 0 1 1  20.481256,15.469381 A 1.3019395 7.1315193 0 1 1  23.085135 15.469381 z"
       transform="matrix(0,-1.53617,0.56089,0,-3.676623,43.46269)" />
    <path
       style="fill:#555753;fill-opacity:1;fill-rule:evenodd;stroke:#2e3436;stroke-width:0.9999997;stroke-miterlimit:4;stroke-opacity:1"
       d="M 18.502466,11.972614 C 18.502466,16.659003 14.847725,20.471537 11.999377,20.471537 C 9.003849,20.471537 5.4962867,16.202137 5.4962867,11.972614 C 5.4962867,7.2812077 8.4096709,3.4736898 11.999377,3.4736898 C 15.589082,3.4736898 18.502466,7.2499816 18.502466,11.972614 z "
       id="path2495"
       sodipodi:nodetypes="czssz" />
    <path
       sodipodi:type="arc"
       style="opacity:1;fill:#ffffff;fill-opacity:1;fill-rule:evenodd;stroke:none;stroke-width:1.04071403;stroke-miterlimit:4;stroke-dasharray:none;stroke-opacity:1"
       id="path3422"
       sodipodi:cx="12.06145"
       sodipodi:cy="6.3730283"
       sodipodi:rx="7.6631651"
       sodipodi:ry="4.7704473"
       d="M 19.724615 6.3730283 A 7.6631651 4.7704473 0 1 1  4.3982849,6.3730283 A 7.6631651 4.7704473 0 1 1  19.724615 6.3730283 z"
       transform="matrix(0.979013,0,0,0.94308,0.189346,-6.915279e-3)" />
    <path
       sodipodi:type="inkscape:offset"
       inkscape:radius="-1.0327028"
       inkscape:original="M 12 3.46875 C 8.4102939 3.46875 5.4999998 7.2773434 5.5 11.96875 C 5.5 16.198273 9.0044717 20.46875 12 20.46875 C 14.848348 20.46875 18.5 16.655139 18.5 11.96875 C 18.5 7.2461176 15.589705 3.46875 12 3.46875 z "
       xlink:href="#path2495"
       style="fill:none;fill-opacity:1;fill-rule:evenodd;stroke:#ffffff;stroke-width:0.9999997;stroke-miterlimit:4;stroke-opacity:1;opacity:0.2"
       id="path3414"
       inkscape:href="#path2495"
       d="M 12,4.5 C 10.570371,4.5 9.2411725,5.2564291 8.21875,6.59375 C 7.1963275,7.9310709 6.5312499,9.836591 6.53125,11.96875 C 6.53125,13.319663 6.294852,15.252826 6.84375,16.75 C 7.118199,17.498587 7.5502979,18.111874 8.3125,18.59375 C 9.0747021,19.075626 10.228871,19.4375 12,19.4375 C 13.793778,19.4375 14.954449,19.097642 15.71875,18.625 C 16.483051,18.152358 16.887669,17.547803 17.15625,16.8125 C 17.693412,15.341894 17.46875,13.392226 17.46875,11.96875 C 17.46875,11.038049 16.797572,8.9605157 15.71875,7.3125 C 14.639928,5.6644843 13.231448,4.5 12,4.5 z " />
    <path
       sodipodi:type="arc"
       style="opacity:1;fill:#eeeeec;fill-opacity:1;fill-rule:evenodd;stroke:none;stroke-width:1;stroke-miterlimit:4;stroke-dasharray:none;stroke-opacity:1"
       id="path2497"
       sodipodi:cx="10.065306"
       sodipodi:cy="13.021205"
       sodipodi:rx="0.59207678"
       sodipodi:ry="1.234903"
       d="M 10.657382 13.021205 A 0.59207678 1.234903 0 1 1  9.4732289,13.021205 A 0.59207678 1.234903 0 1 1  10.657382 13.021205 z"
       transform="matrix(1.688969,0,0,1.21467,-6.99999,-2.316469)" />
    <path
       style="fill:url(#radialGradient3437);fill-opacity:1;fill-rule:evenodd;stroke:#888a85;stroke-width:0.99999976;stroke-miterlimit:4;stroke-opacity:1"
       d="M 19.595695,8.0607826 C 19.595695,10.257622 14.736594,11.459215 12.045509,11.459215 C 9.4932666,11.459215 4.4953241,10.401152 4.4953241,8.1564766 C 4.4953241,4.0730835 8.454173,1.5044468 11.997662,1.5044468 C 15.505013,1.5044468 19.595695,3.9825494 19.595695,8.0607826 z "
       id="path2501"
       sodipodi:nodetypes="csszc" />
    <path
       sodipodi:type="arc"
       style="opacity:1;fill:#eeeeec;fill-opacity:1;fill-rule:evenodd;stroke:none;stroke-width:1;stroke-miterlimit:4;stroke-dasharray:none;stroke-opacity:1"
       id="path2499"
       sodipodi:cx="10.065306"
       sodipodi:cy="13.021205"
       sodipodi:rx="0.59207678"
       sodipodi:ry="1.234903"
       d="M 10.657382 13.021205 A 0.59207678 1.234903 0 1 1  9.4732289,13.021205 A 0.59207678 1.234903 0 1 1  10.657382 13.021205 z"
       transform="matrix(1.688967,0,0,1.21467,-2.999967,-2.316467)" />
    <path
       sodipodi:type="inkscape:offset"
       inkscape:radius="-1.0077552"
       inkscape:original="M 12 1.5 C 8.456511 1.5 4.5 4.0728565 4.5 8.15625 C 4.5 10.400925 9.4790073 11.46875 12.03125 11.46875 C 14.722335 11.46875 19.59375 10.25934 19.59375 8.0625 C 19.59375 3.9842668 15.507351 1.5000001 12 1.5 z "
       xlink:href="#path2501"
       style="fill:none;fill-opacity:1;fill-rule:evenodd;stroke:#ffffff;stroke-width:0.99999976;stroke-miterlimit:4;stroke-opacity:1"
       id="path3435"
       inkscape:href="#path2501"
       d="M 12,2.5 C 8.2229512,2.5 6.6080243,3.1582397 6.03125,3.71875 C 5.4544757,4.2792603 5.5,4.9656791 5.5,6 C 5.5,6.2862196 5.6699134,6.6429841 6.0625,7.0625 C 6.4550866,7.4820159 7.0436896,7.9114852 7.75,8.28125 C 9.1626209,9.0207796 10.989298,9.5 12,9.5 C 13.093818,9.5 14.889884,9.0178685 16.28125,8.28125 C 16.976933,7.9129407 17.586456,7.4800072 17.96875,7.0625 C 18.351044,6.6449928 18.5,6.29561 18.5,6 C 18.5,4.975382 18.541426,4.3120049 17.96875,3.75 C 17.396074,3.1879951 15.794243,2.5 12,2.5 z " />
  </g>
</svg>
