<?xml version="1.0" encoding="UTF-8" standalone="no"?>
<!-- Created with Inkscape (http://www.inkscape.org/) -->
<svg
   xmlns:dc="http://purl.org/dc/elements/1.1/"
   xmlns:cc="http://creativecommons.org/ns#"
   xmlns:rdf="http://www.w3.org/1999/02/22-rdf-syntax-ns#"
   xmlns:svg="http://www.w3.org/2000/svg"
   xmlns="http://www.w3.org/2000/svg"
   xmlns:xlink="http://www.w3.org/1999/xlink"
   xmlns:sodipodi="http://sodipodi.sourceforge.net/DTD/sodipodi-0.dtd"
   xmlns:inkscape="http://www.inkscape.org/namespaces/inkscape"
   width="24"
   height="24"
   id="svg2"
   sodipodi:version="0.32"
   inkscape:version="0.46"
   version="1.0"
   sodipodi:docbase="/home/hbons/Desktop/Projects/untitled folder 1"
   sodipodi:docname="sidefrown.svg"
   inkscape:export-filename="/home/hbons/Desktop/newstyle.png"
   inkscape:export-xdpi="90"
   inkscape:export-ydpi="90"
   inkscape:output_extension="org.inkscape.output.svg.inkscape">
  <defs
     id="defs4">
    <linearGradient
       inkscape:collect="always"
       id="linearGradient3104">
      <stop
         style="stop-color:#eeeeec;stop-opacity:1;"
         offset="0"
         id="stop3106" />
      <stop
         style="stop-color:#eeeeec;stop-opacity:0;"
         offset="1"
         id="stop3108" />
    </linearGradient>
    <radialGradient
       inkscape:collect="always"
       xlink:href="#linearGradient3104"
       id="radialGradient3114"
       cx="8.3343515"
       cy="14.186539"
       fx="8.3343515"
       fy="14.186539"
       r="9.975256"
       gradientUnits="userSpaceOnUse"
       gradientTransform="matrix(-0.9327,0.932656,-0.947494,-0.947449,33.02126,11.96667)" />
    <filter
       inkscape:collect="always"
       x="-0.27879594"
       width="1.5575919"
       y="-0.78248726"
       height="2.5649745"
       id="filter3405">
      <feGaussianBlur
         inkscape:collect="always"
         stdDeviation="1.5438116"
         id="feGaussianBlur3407" />
    </filter>
  </defs>
  <sodipodi:namedview
     id="base"
     pagecolor="#ffffff"
     bordercolor="#666666"
     borderopacity="1.0"
     inkscape:pageopacity="0.0"
     inkscape:pageshadow="2"
     inkscape:zoom="22.4"
     inkscape:cx="22.45117"
     inkscape:cy="12.343873"
     inkscape:document-units="px"
     inkscape:current-layer="layer1"
     showgrid="true"
     fill="#fce94f"
     inkscape:window-width="1440"
     inkscape:window-height="849"
     inkscape:window-x="0"
     inkscape:window-y="0" />
  <metadata
     id="metadata7">
    <rdf:RDF>
      <cc:Work
         rdf:about="">
        <dc:format>image/svg+xml</dc:format>
        <dc:type
           rdf:resource="http://purl.org/dc/dcmitype/StillImage" />
      </cc:Work>
    </rdf:RDF>
  </metadata>
  <g
     inkscape:label="Layer 1"
     inkscape:groupmode="layer"
     id="layer1">
    <path
       sodipodi:type="arc"
       style="opacity:0.64044944;fill:#2e3436;fill-opacity:1;stroke:none;stroke-width:1;stroke-miterlimit:4;stroke-dasharray:none;stroke-opacity:1;filter:url(#filter3405)"
       id="path3140"
       sodipodi:cx="10.748654"
       sodipodi:cy="10.457643"
       sodipodi:rx="6.6449099"
       sodipodi:ry="2.3675451"
       d="M 17.393564 10.457643 A 6.6449099 2.3675451 0 1 1  4.1037445,10.457643 A 6.6449099 2.3675451 0 1 1  17.393564 10.457643 z"
       transform="matrix(1.2039291,0,0,1.055946,-0.9406174,8.4572942)" />
    <path
       sodipodi:type="arc"
       style="opacity:1;fill:#edd400;fill-opacity:1;stroke:#cc6400;stroke-width:1.05276573;stroke-miterlimit:4;stroke-dasharray:none;stroke-opacity:1"
       id="path1307"
       sodipodi:cx="11.806158"
       sodipodi:cy="10.983024"
       sodipodi:rx="9.975256"
       sodipodi:ry="9.975256"
       d="M 21.781414 10.983024 A 9.975256 9.975256 0 1 1  1.8309021,10.983024 A 9.975256 9.975256 0 1 1  21.781414 10.983024 z"
       transform="matrix(0.952236,0,0,0.952236,0.757713,1.541608)" />
    <path
       sodipodi:type="arc"
       style="opacity:0.79545455;fill:url(#radialGradient3114);fill-opacity:1.0;stroke:none;stroke-width:1.05274069;stroke-miterlimit:4;stroke-dasharray:none;stroke-opacity:1"
       id="path3102"
       sodipodi:cx="11.806158"
       sodipodi:cy="10.983024"
       sodipodi:rx="9.975256"
       sodipodi:ry="9.975256"
       d="M 21.781414 10.983024 A 9.975256 9.975256 0 1 1  1.8309021,10.983024 A 9.975256 9.975256 0 1 1  21.781414 10.983024 z"
       transform="matrix(0.8019,0,0,0.801938,2.532654,3.191833)" />
    <path
       sodipodi:type="arc"
       style="opacity:0.64044944;fill:none;fill-opacity:1.0;stroke:#ffffff;stroke-width:1.17343897;stroke-miterlimit:4;stroke-dasharray:none;stroke-opacity:1"
       id="path2184"
       sodipodi:cx="11.806158"
       sodipodi:cy="10.983024"
       sodipodi:rx="9.975256"
       sodipodi:ry="9.975256"
       d="M 21.781414 10.983024 A 9.975256 9.975256 0 1 1  1.8309021,10.983024 A 9.975256 9.975256 0 1 1  21.781414 10.983024 z"
       transform="matrix(0.852176,0,0,0.852216,1.93909,2.639626)" />
    <path
       style="fill:#eeeeec;fill-opacity:1;stroke:#fea523;stroke-width:1;stroke-miterlimit:4;stroke-opacity:1"
       d="M 11.747854,10.35244 C 12.105024,11.685418 11.313065,13.057132 9.9800872,13.414302 C 8.6471094,13.771473 7.2753949,12.979513 6.9182247,11.646535 C 6.5610544,10.313558 7.3530142,8.9418438 8.6859919,8.5846735 C 10.01897,8.227503 11.390683,9.0194629 11.747854,10.35244 z "
       id="path3154" />
    <path
       sodipodi:type="arc"
       style="opacity:1;fill:#2e3436;fill-opacity:1;stroke:none;stroke-width:0.98640186;stroke-miterlimit:4;stroke-dasharray:none;stroke-opacity:1"
       id="path2172"
       sodipodi:cx="9.7069349"
       sodipodi:cy="9.6526775"
       sodipodi:rx="1.0259361"
       sodipodi:ry="1.9413869"
       d="M 10.732871 9.6526775 A 1.0259361 1.9413869 0 1 1  8.6809988,9.6526775 A 1.0259361 1.9413869 0 1 1  10.732871 9.6526775 z"
       transform="matrix(0.9415068,-0.252276,0.1999749,0.7463164,-2.0282181,6.7728334)" />
    <path
       sodipodi:type="arc"
       style="opacity:1;fill:#eeeeec;fill-opacity:1;stroke:#fea523;stroke-width:0.56451595;stroke-miterlimit:4;stroke-dasharray:none;stroke-opacity:1"
       id="path3152"
       sodipodi:cx="9.7069349"
       sodipodi:cy="9.6526775"
       sodipodi:rx="1.0259361"
       sodipodi:ry="1.9413869"
       d="M 10.732871 9.6526775 A 1.0259361 1.9413869 0 1 1  8.6809988,9.6526775 A 1.0259361 1.9413869 0 1 1  10.732871 9.6526775 z"
       transform="matrix(2.3537673,-0.63069,0.3332914,1.2438605,-10.936424,3.5620571)" />
    <path
       sodipodi:type="arc"
       style="opacity:1;fill:#2e3436;fill-opacity:1;stroke:none;stroke-width:0.98640186;stroke-miterlimit:4;stroke-dasharray:none;stroke-opacity:1"
       id="path3148"
       sodipodi:cx="9.7069349"
       sodipodi:cy="9.6526775"
       sodipodi:rx="1.0259361"
       sodipodi:ry="1.9413869"
       d="M 10.732871 9.6526775 A 1.0259361 1.9413869 0 1 1  8.6809988,9.6526775 A 1.0259361 1.9413869 0 1 1  10.732871 9.6526775 z"
       transform="matrix(0.9415067,-0.252276,0.1999749,0.7463163,3.2226418,5.4332313)" />
    <path
       sodipodi:type="arc"
       style="opacity:1;fill:none;fill-opacity:1;stroke:#ce5c00;stroke-width:0.73675901;stroke-miterlimit:4;stroke-dasharray:none;stroke-opacity:1"
       id="path3413"
       sodipodi:cx="8.3258924"
       sodipodi:cy="9.2232141"
       sodipodi:rx="1.2276785"
       sodipodi:ry="1.7410715"
       d="M 7.2133909,8.4869402 A 1.2276785,1.7410715 0 0 1 9.288462,8.1425499"
       transform="matrix(-1.8690368,-0.3494647,0.353133,-0.9196421,26.97452,16.126909)"
       sodipodi:start="3.5782199"
       sodipodi:end="5.6135639"
       sodipodi:open="true" />
    <path
       sodipodi:type="arc"
       style="opacity:1;fill:none;fill-opacity:1;stroke:#ce5c00;stroke-width:0.73675901;stroke-miterlimit:4;stroke-dasharray:none;stroke-opacity:1"
       id="path3415"
       sodipodi:cx="8.3258924"
       sodipodi:cy="9.2232141"
       sodipodi:rx="1.2276785"
       sodipodi:ry="1.7410715"
       d="M 7.2133909,8.4869402 A 1.2276785,1.7410715 0 0 1 9.288462,8.1425499"
       transform="matrix(-1.5687175,1.0744997,-0.4005824,-0.8999879,24.332735,6.1519496)"
       sodipodi:start="3.5782199"
       sodipodi:end="5.6135639"
       sodipodi:open="true" />
    <path
       sodipodi:type="arc"
       style="opacity:1;fill:#2e3436;fill-opacity:1;stroke:none;stroke-width:1;stroke-miterlimit:4;stroke-dasharray:none;stroke-opacity:1"
       id="path2174"
       sodipodi:cx="1.2053572"
       sodipodi:cy="11.991072"
       sodipodi:rx="1.4732143"
       sodipodi:ry="1.2053572"
       d="M 2.6785715 11.991072 A 1.4732143 1.2053572 0 1 1  -0.26785707,11.991072 A 1.4732143 1.2053572 0 1 1  2.6785715 11.991072 z"
       transform="matrix(0.9834881,-0.2635248,0.2147239,0.8013607,9.7677343,5.7496882)" />
  </g>
</svg>
