<?xml version="1.0" encoding="UTF-8" standalone="no"?>
<!-- Created with Inkscape (http://www.inkscape.org/) -->
<svg
   xmlns:dc="http://purl.org/dc/elements/1.1/"
   xmlns:cc="http://creativecommons.org/ns#"
   xmlns:rdf="http://www.w3.org/1999/02/22-rdf-syntax-ns#"
   xmlns:svg="http://www.w3.org/2000/svg"
   xmlns="http://www.w3.org/2000/svg"
   xmlns:xlink="http://www.w3.org/1999/xlink"
   xmlns:sodipodi="http://sodipodi.sourceforge.net/DTD/sodipodi-0.dtd"
   xmlns:inkscape="http://www.inkscape.org/namespaces/inkscape"
   width="24"
   height="24"
   id="svg2"
   sodipodi:version="0.32"
   inkscape:version="0.46"
   version="1.0"
   sodipodi:docbase="/home/hbons/Desktop/Gaim Refresh/emotes/scalable"
   sodipodi:docname="skeleton.svg"
   inkscape:export-filename="/home/hbons/Desktop/Gaim Refresh/emotes/skeleton.png"
   inkscape:export-xdpi="90"
   inkscape:export-ydpi="90"
   inkscape:output_extension="org.inkscape.output.svg.inkscape">
  <defs
     id="defs4">
    <linearGradient
       inkscape:collect="always"
       id="linearGradient3785">
      <stop
         style="stop-color:#2e3436;stop-opacity:1;"
         offset="0"
         id="stop3787" />
      <stop
         style="stop-color:#2e3436;stop-opacity:0;"
         offset="1"
         id="stop3789" />
    </linearGradient>
    <linearGradient
       inkscape:collect="always"
       id="linearGradient3150">
      <stop
         style="stop-color:#2e3436;stop-opacity:1;"
         offset="0"
         id="stop3152" />
      <stop
         style="stop-color:#2e3436;stop-opacity:0;"
         offset="1"
         id="stop3154" />
    </linearGradient>
    <linearGradient
       inkscape:collect="always"
       id="linearGradient3104">
      <stop
         style="stop-color:#eeeeec;stop-opacity:1;"
         offset="0"
         id="stop3106" />
      <stop
         style="stop-color:#eeeeec;stop-opacity:0;"
         offset="1"
         id="stop3108" />
    </linearGradient>
    <radialGradient
       inkscape:collect="always"
       xlink:href="#linearGradient3104"
       id="radialGradient3114"
       cx="8.3343515"
       cy="14.186539"
       fx="8.3343515"
       fy="14.186539"
       r="9.975256"
       gradientUnits="userSpaceOnUse"
       gradientTransform="matrix(-0.9327,0.932656,-0.947494,-0.947449,33.02126,11.96667)" />
    <radialGradient
       inkscape:collect="always"
       xlink:href="#linearGradient3150"
       id="radialGradient3156"
       cx="10.748654"
       cy="10.457643"
       fx="10.748654"
       fy="10.457643"
       r="6.6449099"
       gradientTransform="matrix(-0.842757,5.698892e-16,-4.565819e-9,-0.35721,19.80716,14.19321)"
       gradientUnits="userSpaceOnUse" />
    <radialGradient
       inkscape:collect="always"
       xlink:href="#linearGradient3785"
       id="radialGradient3791"
       cx="9.3562393"
       cy="8.9740419"
       fx="9.3562393"
       fy="8.9740419"
       r="1.1679889"
       gradientTransform="matrix(3.833335,-8.465705e-16,1.063964e-15,4.765766,-26.21568,-33.08066)"
       gradientUnits="userSpaceOnUse" />
    <radialGradient
       inkscape:collect="always"
       xlink:href="#linearGradient3785"
       id="radialGradient3795"
       gradientUnits="userSpaceOnUse"
       gradientTransform="matrix(3.833335,-8.465705e-16,1.063964e-15,4.765766,-26.21568,-33.08066)"
       cx="9.3562393"
       cy="8.9598322"
       fx="9.3562393"
       fy="8.9598322"
       r="1.1679889" />
  </defs>
  <sodipodi:namedview
     id="base"
     pagecolor="#ffffff"
     bordercolor="#666666"
     borderopacity="1.0"
     inkscape:pageopacity="0.0"
     inkscape:pageshadow="2"
     inkscape:zoom="25.730843"
     inkscape:cx="21.980575"
     inkscape:cy="12.85081"
     inkscape:document-units="px"
     inkscape:current-layer="layer1"
     showgrid="true"
     fill="#eeeeec"
     inkscape:window-width="1268"
     inkscape:window-height="971"
     inkscape:window-x="6"
     inkscape:window-y="21" />
  <metadata
     id="metadata7">
    <rdf:RDF>
      <cc:Work
         rdf:about="">
        <dc:format>image/svg+xml</dc:format>
        <dc:type
           rdf:resource="http://purl.org/dc/dcmitype/StillImage" />
      </cc:Work>
    </rdf:RDF>
  </metadata>
  <g
     inkscape:label="Layer 1"
     inkscape:groupmode="layer"
     id="layer1">
    <path
       style="fill:#d3d7cf;fill-opacity:1;stroke:#888a85;stroke-width:1.00248146;stroke-miterlimit:4;stroke-opacity:1"
       d="M 21.49876,10.523212 C 21.49876,12.485734 21.612143,16.500449 17.510832,16.500449 C 17.510832,19.517814 14.62163,21.498837 11.999962,21.498837 C 9.3782935,21.498837 6.6056831,19.348554 6.6056831,16.461584 C 2.4770155,16.461584 2.5011639,12.446212 2.5011639,10.562076 C 2.5011639,5.3187391 6.7566254,2.5012407 11.999962,2.5012407 C 17.243298,2.5012407 21.49876,5.2798753 21.49876,10.523212 z "
       id="path1307"
       sodipodi:nodetypes="ccsccsc" />
    <path
       sodipodi:type="inkscape:offset"
       inkscape:radius="-1.030242"
       inkscape:original="M 12 2.5 C 6.7566634 2.5 2.4999999 5.3191635 2.5 10.5625 C 2.5 12.446636 2.4650822 16.46875 6.59375 16.46875 C 6.59375 19.35572 9.3783316 21.5 12 21.5 C 14.621668 21.5 17.5 19.517366 17.5 16.5 C 21.601311 16.5 21.5 12.493772 21.5 10.53125 C 21.5 5.2879133 17.243336 2.5 12 2.5 z "
       xlink:href="#path1307"
       style="fill:none;fill-opacity:1;stroke:#ffffff;stroke-width:1.00248146;stroke-miterlimit:4;stroke-opacity:1;opacity:0.4"
       id="path3879"
       inkscape:href="#path1307"
       d="M 12,3.53125 C 9.5629737,3.53125 7.4308889,4.1937139 5.9375,5.375 C 4.4441111,6.5562861 3.53125,8.2196233 3.53125,10.5625 C 3.53125,11.510932 3.5400256,12.871483 3.9375,13.84375 C 4.3349744,14.816017 4.8639672,15.4375 6.59375,15.4375 C 6.8673281,15.43726 7.1297703,15.545832 7.3232193,15.739281 C 7.5166684,15.93273 7.6252404,16.195172 7.625,16.46875 C 7.625,18.693251 9.9400928,20.46875 12,20.46875 C 13.051127,20.46875 14.208535,20.055458 15.0625,19.34375 C 15.916465,18.632042 16.46875,17.681093 16.46875,16.5 C 16.46851,16.226422 16.577082,15.96398 16.770531,15.770531 C 16.96398,15.577082 17.226422,15.46851 17.5,15.46875 C 19.215203,15.46875 19.71227,14.851034 20.09375,13.875 C 20.47523,12.898966 20.46875,11.530239 20.46875,10.53125 C 20.46875,8.1883732 19.586213,6.5175226 18.09375,5.34375 C 16.601287,4.1699774 14.439073,3.53125 12,3.53125 z " />
    <path
       sodipodi:type="arc"
       style="opacity:0.6;fill:url(#radialGradient3156);fill-opacity:1.0;stroke:none;stroke-width:1;stroke-miterlimit:4;stroke-dasharray:none;stroke-opacity:1"
       id="path3140"
       sodipodi:cx="10.748654"
       sodipodi:cy="10.457643"
       sodipodi:rx="6.6449099"
       sodipodi:ry="2.3675451"
       d="M 17.393564 10.457643 A 6.6449099 2.3675451 0 1 1  4.1037445,10.457643 A 6.6449099 2.3675451 0 1 1  17.393564 10.457643 z"
       transform="matrix(1.504911,0,0,1.300982,-4.175772,6.474929)" />
    <path
       sodipodi:type="arc"
       style="opacity:0.79545456;fill:url(#radialGradient3114);fill-opacity:1;stroke:none;stroke-width:1.05274069;stroke-miterlimit:4;stroke-dasharray:none;stroke-opacity:1"
       id="path3102"
       sodipodi:cx="11.806158"
       sodipodi:cy="10.983024"
       sodipodi:rx="9.975256"
       sodipodi:ry="9.975256"
       d="M 21.781414 10.983024 A 9.975256 9.975256 0 1 1  1.8309021,10.983024 A 9.975256 9.975256 0 1 1  21.781414 10.983024 z"
       transform="matrix(0.902232,0,0,0.852062,1.348101,2.141319)" />
    <path
       sodipodi:type="arc"
       style="opacity:1;fill:url(#radialGradient3791);fill-opacity:1.0;stroke:none;stroke-width:1;stroke-miterlimit:4;stroke-dasharray:none;stroke-opacity:1"
       id="path2191"
       sodipodi:cx="9.0598059"
       sodipodi:cy="8.7845774"
       sodipodi:rx="1.1679889"
       sodipodi:ry="1.4520943"
       d="M 10.227795 8.7845774 A 1.1679889 1.4520943 0 1 1  7.891817,8.7845774 A 1.1679889 1.4520943 0 1 1  10.227795 8.7845774 z"
       transform="matrix(1.712345,0,0,1.721651,-6.513516,-3.623976)" />
    <path
       sodipodi:type="arc"
       style="opacity:1;fill:url(#radialGradient3795);fill-opacity:1;stroke:none;stroke-width:1;stroke-miterlimit:4;stroke-dasharray:none;stroke-opacity:1"
       id="path3793"
       sodipodi:cx="9.0598059"
       sodipodi:cy="8.7845774"
       sodipodi:rx="1.1679889"
       sodipodi:ry="1.4520943"
       d="M 10.227795 8.7845774 A 1.1679889 1.4520943 0 1 1  7.891817,8.7845774 A 1.1679889 1.4520943 0 1 1  10.227795 8.7845774 z"
       transform="matrix(-1.712345,0,0,1.721651,30.51351,-3.623976)" />
    <path
       sodipodi:type="arc"
       style="opacity:1;fill:#d3d7cf;fill-opacity:1;stroke:none;stroke-width:1;stroke-miterlimit:4;stroke-dasharray:none;stroke-opacity:1"
       id="path3817"
       sodipodi:cx="9.0598059"
       sodipodi:cy="8.7845774"
       sodipodi:rx="1.1679889"
       sodipodi:ry="1.4520943"
       d="M 10.227795 8.7845774 A 1.1679889 1.4520943 0 1 1  7.891817,8.7845774 A 1.1679889 1.4520943 0 1 1  10.227795 8.7845774 z"
       transform="matrix(1.712345,0,0,1.721649,-6.513513,-1.623965)" />
    <path
       sodipodi:type="arc"
       style="opacity:1;fill:#d3d7cf;fill-opacity:1;stroke:none;stroke-width:1;stroke-miterlimit:4;stroke-dasharray:none;stroke-opacity:1"
       id="path3821"
       sodipodi:cx="9.0598059"
       sodipodi:cy="8.7845774"
       sodipodi:rx="1.1679889"
       sodipodi:ry="1.4520943"
       d="M 10.227795 8.7845774 A 1.1679889 1.4520943 0 1 1  7.891817,8.7845774 A 1.1679889 1.4520943 0 1 1  10.227795 8.7845774 z"
       transform="matrix(1.712345,0,0,1.721652,-0.513513,-1.623986)" />
    <path
       style="fill:#2e3436;fill-opacity:1;fill-rule:evenodd;stroke:none;stroke-width:1;stroke-miterlimit:4;stroke-opacity:1"
       d="M 10.058969,15.860007 C 10.470022,16.33805 11.092547,16.614029 11.448533,16.476029 C 11.804516,16.338029 10.704311,15.422126 11.864017,14.005571 C 11.508033,14.143571 9.6479128,15.381962 10.058969,15.860007 z "
       id="path3846"
       sodipodi:nodetypes="cscc" />
    <path
       style="fill:#2e3436;fill-opacity:1;fill-rule:evenodd;stroke:none;stroke-width:1;stroke-miterlimit:4;stroke-opacity:1"
       d="M 13.941031,15.860007 C 13.529978,16.33805 12.907453,16.614029 12.551467,16.476029 C 12.195484,16.338029 13.295689,15.422126 12.135983,14.005571 C 12.491967,14.143571 14.352088,15.381962 13.941031,15.860007 z "
       id="path3848"
       sodipodi:nodetypes="cscc" />
    <path
       style="fill:#eeeeec;fill-opacity:1;stroke:#888a85;stroke-width:1.00248194;stroke-miterlimit:4;stroke-opacity:1"
       d="M 13.492422,19.999998 C 13.492422,20.827381 12.823819,21.498878 12.000006,21.498878 C 11.176189,21.498878 10.507588,20.827381 10.507588,19.999998 C 10.507588,19.172618 11.176189,18.501119 12.000006,18.501119 C 12.823819,18.501119 13.492422,19.172618 13.492422,19.999998 z "
       id="path3850"
       sodipodi:nodetypes="cscsc" />
    <path
       style="fill:#eeeeec;fill-opacity:1;stroke:#888a85;stroke-width:1.00248182;stroke-miterlimit:4;stroke-opacity:1"
       d="M 16.495593,19.999998 C 16.495593,20.827381 15.831167,21.498877 15.012498,21.498877 C 14.193828,21.498877 13.529402,20.827381 13.529402,19.999998 C 13.529402,19.172618 14.193828,18.501119 15.012498,18.501119 C 15.831167,18.501119 16.495593,19.172618 16.495593,19.999998 z "
       id="path3858"
       sodipodi:nodetypes="cscsc" />
    <path
       style="fill:#eeeeec;fill-opacity:1;stroke:#888a85;stroke-width:1.00248194;stroke-miterlimit:4;stroke-opacity:1"
       d="M 10.498759,20.00012 C 10.498759,20.827503 9.830156,21.499 9.006343,21.499 C 8.182526,21.499 7.513925,20.827503 7.513925,20.00012 C 7.513925,19.17274 8.182526,18.501241 9.006343,18.501241 C 9.830156,18.501241 10.498759,19.17274 10.498759,20.00012 z "
       id="path3862"
       sodipodi:nodetypes="cscsc" />
  </g>
</svg>
