<?xml version="1.0" encoding="UTF-8" standalone="no"?>
<!-- Created with Inkscape (http://www.inkscape.org/) -->
<svg
   xmlns:dc="http://purl.org/dc/elements/1.1/"
   xmlns:cc="http://web.resource.org/cc/"
   xmlns:rdf="http://www.w3.org/1999/02/22-rdf-syntax-ns#"
   xmlns:svg="http://www.w3.org/2000/svg"
   xmlns="http://www.w3.org/2000/svg"
   xmlns:xlink="http://www.w3.org/1999/xlink"
   xmlns:sodipodi="http://inkscape.sourceforge.net/DTD/s odipodi-0.dtd"
   xmlns:inkscape="http://www.inkscape.org/namespaces/inkscape"
   width="24"
   height="24"
   id="svg2"
   sodipodi:version="0.32"
   inkscape:version="0.43"
   version="1.0"
   sodipodi:docbase="/home/hbons/Desktop/Gaim Refresh/emotes/scalable"
   sodipodi:docname="snowman.svg"
   inkscape:export-filename="/home/hbons/Desktop/Gaim Refresh/emotes/face-smile.png"
   inkscape:export-xdpi="90"
   inkscape:export-ydpi="90">
  <defs
     id="defs4">
    <linearGradient
       inkscape:collect="always"
       id="linearGradient3370">
      <stop
         style="stop-color:#2e3436;stop-opacity:1;"
         offset="0"
         id="stop3372" />
      <stop
         style="stop-color:#2e3436;stop-opacity:0;"
         offset="1"
         id="stop3374" />
    </linearGradient>
    <linearGradient
       inkscape:collect="always"
       id="linearGradient3150">
      <stop
         style="stop-color:#2e3436;stop-opacity:1;"
         offset="0"
         id="stop3152" />
      <stop
         style="stop-color:#2e3436;stop-opacity:0;"
         offset="1"
         id="stop3154" />
    </linearGradient>
    <linearGradient
       inkscape:collect="always"
       id="linearGradient3104">
      <stop
         style="stop-color:#eeeeec;stop-opacity:1;"
         offset="0"
         id="stop3106" />
      <stop
         style="stop-color:#eeeeec;stop-opacity:0;"
         offset="1"
         id="stop3108" />
    </linearGradient>
    <radialGradient
       inkscape:collect="always"
       xlink:href="#linearGradient3104"
       id="radialGradient3114"
       cx="8.3343515"
       cy="14.186539"
       fx="8.3343515"
       fy="14.186539"
       r="9.975256"
       gradientUnits="userSpaceOnUse"
       gradientTransform="matrix(-0.9327,0.932656,-0.947494,-0.947449,33.02126,11.96667)" />
    <radialGradient
       inkscape:collect="always"
       xlink:href="#linearGradient3150"
       id="radialGradient3156"
       cx="10.748654"
       cy="10.457643"
       fx="10.748654"
       fy="10.457643"
       r="6.6449099"
       gradientTransform="matrix(-0.842757,5.698892e-16,-4.565819e-9,-0.35721,19.80716,14.19321)"
       gradientUnits="userSpaceOnUse" />
    <radialGradient
       inkscape:collect="always"
       xlink:href="#linearGradient3370"
       id="radialGradient3376"
       cx="12"
       cy="2.8369939"
       fx="12"
       fy="2.8369939"
       r="7"
       gradientTransform="matrix(2.772431,-6.156034e-16,2.198584e-16,0.990154,-21.26917,0.804554)"
       gradientUnits="userSpaceOnUse" />
  </defs>
  <sodipodi:namedview
     id="base"
     pagecolor="#ffffff"
     bordercolor="#666666"
     borderopacity="1.0"
     inkscape:pageopacity="0.0"
     inkscape:pageshadow="2"
     inkscape:zoom="25.730843"
     inkscape:cx="21.200032"
     inkscape:cy="15.221505"
     inkscape:document-units="px"
     inkscape:current-layer="layer1"
     showgrid="true"
     fill="#c17d11"
     inkscape:window-width="1268"
     inkscape:window-height="971"
     inkscape:window-x="6"
     inkscape:window-y="21" />
  <metadata
     id="metadata7">
    <rdf:RDF>
      <cc:Work
         rdf:about="">
        <dc:format>image/svg+xml</dc:format>
        <dc:type
           rdf:resource="http://purl.org/dc/dcmitype/StillImage" />
      </cc:Work>
    </rdf:RDF>
  </metadata>
  <g
     inkscape:label="Layer 1"
     inkscape:groupmode="layer"
     id="layer1">
    <path
       sodipodi:type="arc"
       style="opacity:0.6;fill:url(#radialGradient3156);fill-opacity:1.0;stroke:none;stroke-width:1;stroke-miterlimit:4;stroke-dasharray:none;stroke-opacity:1"
       id="path3140"
       sodipodi:cx="10.748654"
       sodipodi:cy="10.457643"
       sodipodi:rx="6.6449099"
       sodipodi:ry="2.3675451"
       d="M 17.393564 10.457643 A 6.6449099 2.3675451 0 1 1  4.1037445,10.457643 A 6.6449099 2.3675451 0 1 1  17.393564 10.457643 z"
       transform="matrix(1.504911,0,0,1.300982,-4.175772,6.474929)" />
    <path
       sodipodi:type="arc"
       style="opacity:1;fill:#d3d7cf;fill-opacity:1;stroke:#babdb6;stroke-width:1.05276573;stroke-miterlimit:4;stroke-dasharray:none;stroke-opacity:1"
       id="path1307"
       sodipodi:cx="11.806158"
       sodipodi:cy="10.983024"
       sodipodi:rx="9.975256"
       sodipodi:ry="9.975256"
       d="M 21.781414 10.983024 A 9.975256 9.975256 0 1 1  1.8309021,10.983024 A 9.975256 9.975256 0 1 1  21.781414 10.983024 z"
       transform="matrix(0.952236,0,0,0.952236,0.757713,1.541608)" />
    <path
       sodipodi:type="arc"
       style="opacity:0.79545455;fill:url(#radialGradient3114);fill-opacity:1.0;stroke:none;stroke-width:1.05274069;stroke-miterlimit:4;stroke-dasharray:none;stroke-opacity:1"
       id="path3102"
       sodipodi:cx="11.806158"
       sodipodi:cy="10.983024"
       sodipodi:rx="9.975256"
       sodipodi:ry="9.975256"
       d="M 21.781414 10.983024 A 9.975256 9.975256 0 1 1  1.8309021,10.983024 A 9.975256 9.975256 0 1 1  21.781414 10.983024 z"
       transform="matrix(0.8019,0,0,0.801938,2.532654,3.191833)" />
    <path
       sodipodi:type="arc"
       style="opacity:0.5;fill:none;fill-opacity:1.0;stroke:#ffffff;stroke-width:1.17343897;stroke-miterlimit:4;stroke-dasharray:none;stroke-opacity:1"
       id="path2184"
       sodipodi:cx="11.806158"
       sodipodi:cy="10.983024"
       sodipodi:rx="9.975256"
       sodipodi:ry="9.975256"
       d="M 21.781414 10.983024 A 9.975256 9.975256 0 1 1  1.8309021,10.983024 A 9.975256 9.975256 0 1 1  21.781414 10.983024 z"
       transform="matrix(0.852176,0,0,0.852216,1.93909,2.639626)" />
    <path
       sodipodi:type="arc"
       style="opacity:1;fill:#2e3436;fill-opacity:1;stroke:none;stroke-width:1;stroke-miterlimit:4;stroke-dasharray:none;stroke-opacity:1"
       id="path2191"
       sodipodi:cx="9.0598059"
       sodipodi:cy="8.7845774"
       sodipodi:rx="1.1679889"
       sodipodi:ry="1.4520943"
       d="M 10.227795 8.7845774 A 1.1679889 1.4520943 0 1 1  7.891817,8.7845774 A 1.1679889 1.4520943 0 1 1  10.227795 8.7845774 z"
       transform="matrix(0.856173,0,0,1.377322,2.243238,-9.919412e-2)" />
    <path
       style="fill:#c17d11;fill-opacity:1;fill-rule:evenodd;stroke:#8f5902;stroke-width:0.99999994;stroke-miterlimit:4;stroke-opacity:1"
       d="M 5.4870462,6.6009084 L 5.4870462,14.450676 C 5.4870462,15.032001 5.0159534,15.5 4.4307857,15.5 L 2.5698431,15.5 C 1.9846753,15.5 1.5135827,15.032001 1.5135827,14.450676 C 1.5135827,14.450676 1.1692787,4.5022597 4.604123,4.5022597 C 5.6533945,4.5022597 5.4870462,6.0195827 5.4870462,6.6009084 z "
       id="path3162"
       sodipodi:nodetypes="cccccsc" />
    <path
       sodipodi:type="arc"
       style="opacity:1;fill:#2e3436;fill-opacity:1;stroke:none;stroke-width:1;stroke-miterlimit:4;stroke-dasharray:none;stroke-opacity:1"
       id="path2193"
       sodipodi:cx="9.0598059"
       sodipodi:cy="8.7845774"
       sodipodi:rx="1.1679889"
       sodipodi:ry="1.4520943"
       d="M 10.227795 8.7845774 A 1.1679889 1.4520943 0 1 1  7.891817,8.7845774 A 1.1679889 1.4520943 0 1 1  10.227795 8.7845774 z"
       transform="matrix(0.856173,0,0,1.377322,6.243237,-9.919312e-2)" />
    <path
       sodipodi:type="inkscape:offset"
       inkscape:radius="-0.97291172"
       inkscape:original="M 19.40625 4.5 C 18.363869 4.5000002 18.53125 6.0124243 18.53125 6.59375 L 18.53125 14.4375 C 18.53125 15.018825 19.012425 15.5 19.59375 15.5 L 21.4375 15.5 C 22.018825 15.5 22.5 15.018825 22.5 14.4375 C 22.5 14.4375 22.818538 4.5 19.40625 4.5 z "
       xlink:href="#path3147"
       style="opacity:0.2;fill:none;fill-opacity:1;fill-rule:evenodd;stroke:#ffffff;stroke-width:1.00000012;stroke-miterlimit:4;stroke-opacity:1"
       id="path3164"
       inkscape:href="#path3147"
       d="M 19.53125,5.53125 C 19.481364,5.7854819 19.5,6.2097104 19.5,6.59375 L 19.5,14.4375 C 19.5,14.481959 19.549291,14.53125 19.59375,14.53125 L 21.4375,14.53125 C 21.481959,14.53125 21.53125,14.481959 21.53125,14.4375 C 21.531083,14.427084 21.531083,14.416666 21.53125,14.40625 C 21.53125,14.40625 21.613046,11.969946 21.28125,9.59375 C 21.115352,8.4056518 20.840198,7.2377799 20.46875,6.46875 C 20.283026,6.0842351 20.049897,5.8057658 19.875,5.65625 C 19.74835,5.5479799 19.6465,5.5522454 19.53125,5.53125 z "
       transform="matrix(-1,0,0,1,24.04017,-5.960464e-8)" />
    <path
       style="fill:#c17d11;fill-opacity:1;fill-rule:evenodd;stroke:#8f5902;stroke-width:1.00000048;stroke-miterlimit:4;stroke-opacity:1"
       d="M 19.497754,5.0000267 C 19.497754,6.9319356 16.139003,8.499862 12.000545,8.499862 C 7.8620863,8.499862 4.5033369,6.9319356 4.5033369,5.0000267 C 4.5033369,3.0681174 7.8620863,1.500191 12.000545,1.500191 C 16.139003,1.500191 19.497754,3.0681174 19.497754,5.0000267 z "
       id="path3137" />
    <path
       style="fill:#c17d11;fill-opacity:1;fill-rule:evenodd;stroke:#8f5902;stroke-width:1.00000012;stroke-miterlimit:4;stroke-opacity:1"
       d="M 18.543091,6.6009086 L 18.543091,14.450676 C 18.543091,15.032001 19.01109,15.5 19.592415,15.5 L 21.441137,15.5 C 22.022462,15.5 22.490461,15.032001 22.490461,14.450676 C 22.490461,14.450676 22.832504,4.5022599 19.420216,4.5022599 C 18.377835,4.5022599 18.543091,6.0195829 18.543091,6.6009086 z "
       id="path3147"
       sodipodi:nodetypes="cccccsc" />
    <path
       sodipodi:type="inkscape:offset"
       inkscape:radius="-1.0015612"
       inkscape:original="M 12 1.5 C 7.8615413 1.5 4.5 3.0680907 4.5 5 C 4.5 6.9319089 7.8615418 8.5000003 12 8.5 C 16.138458 8.5 19.500001 6.9319089 19.5 5 C 19.5 3.0680907 16.138458 1.5 12 1.5 z "
       xlink:href="#path3137"
       style="fill:none;fill-opacity:1;fill-rule:evenodd;stroke:#ffffff;stroke-width:1.00000024;stroke-miterlimit:4;stroke-opacity:1;opacity:0.3"
       id="path3156"
       inkscape:href="#path3137"
       d="M 12,2.5 C 10.310262,2.5 8.7673248,2.7649331 7.75,3.15625 C 7.2413376,3.3519084 6.8822566,3.6042603 6.6875,3.78125 C 6.4927434,3.9582397 6.5,4.0074272 6.5,4 C 6.5,3.9925729 6.4927434,4.0417603 6.6875,4.21875 C 6.8822566,4.3957397 7.2413376,4.6480916 7.75,4.84375 C 8.7673248,5.2350669 10.310262,5.5 12,5.5 C 13.689738,5.5 15.232675,5.2350668 16.25,4.84375 C 16.758662,4.6480916 17.117743,4.3957398 17.3125,4.21875 C 17.507257,4.0417602 17.5,3.9925732 17.5,4 C 17.5,4.0074271 17.507257,3.9582397 17.3125,3.78125 C 17.117743,3.6042603 16.758662,3.3519084 16.25,3.15625 C 15.232675,2.7649331 13.689738,2.5 12,2.5 z " />
    <path
       sodipodi:type="inkscape:offset"
       inkscape:radius="-0.97291172"
       inkscape:original="M 19.40625 4.5 C 18.363869 4.5000002 18.53125 6.0124243 18.53125 6.59375 L 18.53125 14.4375 C 18.53125 15.018825 19.012425 15.5 19.59375 15.5 L 21.4375 15.5 C 22.018825 15.5 22.5 15.018825 22.5 14.4375 C 22.5 14.4375 22.818538 4.5 19.40625 4.5 z "
       xlink:href="#path3147"
       style="opacity:0.2;fill:none;fill-opacity:1;fill-rule:evenodd;stroke:#ffffff;stroke-width:1.00000012;stroke-miterlimit:4;stroke-opacity:1"
       id="path3158"
       inkscape:href="#path3147"
       d="M 19.53125,5.53125 C 19.481364,5.7854819 19.5,6.2097104 19.5,6.59375 L 19.5,14.4375 C 19.5,14.481959 19.549291,14.53125 19.59375,14.53125 L 21.4375,14.53125 C 21.481959,14.53125 21.53125,14.481959 21.53125,14.4375 C 21.531083,14.427084 21.531083,14.416666 21.53125,14.40625 C 21.53125,14.40625 21.613046,11.969946 21.28125,9.59375 C 21.115352,8.4056518 20.840198,7.2377799 20.46875,6.46875 C 20.283026,6.0842351 20.049897,5.8057658 19.875,5.65625 C 19.74835,5.5479799 19.6465,5.5522454 19.53125,5.53125 z " />
    <rect
       style="opacity:1;fill:#c17d11;fill-opacity:1;fill-rule:evenodd;stroke:#8f5902;stroke-width:1.00000036;stroke-miterlimit:4;stroke-dasharray:none;stroke-opacity:1"
       id="rect3135"
       width="14.99999"
       height="6.0022683"
       x="4.5000052"
       y="4.4982576"
       rx="1.0881884"
       ry="1.0881873" />
    <path
       sodipodi:type="inkscape:offset"
       inkscape:radius="-1.0077144"
       inkscape:original="M 5.59375 4.5 C 4.9908936 4.5 4.5 4.9908943 4.5 5.59375 L 4.5 9.40625 C 4.5 10.009106 4.9908934 10.5 5.59375 10.5 L 18.40625 10.5 C 19.009106 10.5 19.5 10.009106 19.5 9.40625 L 19.5 5.59375 C 19.5 4.9908942 19.009106 4.5 18.40625 4.5 L 5.59375 4.5 z "
       xlink:href="#rect3135"
       style="opacity:0.2;fill:url(#radialGradient3376);fill-opacity:1.0;fill-rule:evenodd;stroke:#ffffff;stroke-width:0.99999994;stroke-miterlimit:4;stroke-dasharray:none;stroke-opacity:1"
       id="path3149"
       inkscape:href="#rect3135"
       d="M 5.59375,5.5 C 5.5379352,5.5 5.5,5.5379356 5.5,5.59375 L 5.5,8.40625 C 5.5,8.4620641 5.5379355,8.5 5.59375,8.5 L 18.40625,8.5 C 18.462064,8.5 18.5,8.462062 18.5,8.40625 L 18.5,5.59375 C 18.5,5.537935 18.462066,5.5 18.40625,5.5 L 5.59375,5.5 z " />
    <path
       style="fill:#f57900;fill-opacity:1;fill-rule:evenodd;stroke:#ce5c00;stroke-width:0.99999976;stroke-miterlimit:4;stroke-opacity:1"
       d="M 11.512925,13.5 C 12.373203,13.5 17.487073,13.246167 17.487073,14.500001 C 17.487073,15.714971 12.489148,15.500002 11.512925,15.500002 C 11.512925,14.955817 11.512925,14.175958 11.512925,13.5 z "
       id="rect3359"
       sodipodi:nodetypes="czcc" />
    <rect
       style="opacity:1;fill:#2e3436;fill-opacity:1;stroke:none;stroke-width:1;stroke-miterlimit:4;stroke-dasharray:none;stroke-opacity:1"
       id="rect2278"
       width="5"
       height="0.99999976"
       x="10"
       y="17"
       ry="0.5"
       rx="0.5" />
  </g>
</svg>
