<?xml version="1.0" encoding="UTF-8" standalone="no"?>
<!-- Created with Inkscape (http://www.inkscape.org/) -->
<svg
   xmlns:dc="http://purl.org/dc/elements/1.1/"
   xmlns:cc="http://creativecommons.org/ns#"
   xmlns:rdf="http://www.w3.org/1999/02/22-rdf-syntax-ns#"
   xmlns:svg="http://www.w3.org/2000/svg"
   xmlns="http://www.w3.org/2000/svg"
   xmlns:xlink="http://www.w3.org/1999/xlink"
   xmlns:sodipodi="http://sodipodi.sourceforge.net/DTD/sodipodi-0.dtd"
   xmlns:inkscape="http://www.inkscape.org/namespaces/inkscape"
   width="24"
   height="24"
   id="svg2201"
   sodipodi:version="0.32"
   inkscape:version="0.46"
   version="1.0"
   sodipodi:docbase="/home/hbons/Desktop/Gaim Refresh/emotes"
   sodipodi:docname="thunder.svg"
   inkscape:export-filename="/home/hbons/Bureaublad/Projecten/Pidgin objecten voor 2.5.0/bitmaps/thunder.png"
   inkscape:export-xdpi="90"
   inkscape:export-ydpi="90"
   inkscape:output_extension="org.inkscape.output.svg.inkscape">
  <defs
     id="defs2203">
    <linearGradient
       inkscape:collect="always"
       id="linearGradient3355">
      <stop
         style="stop-color:#fdee73;stop-opacity:1;"
         offset="0"
         id="stop3357" />
      <stop
         style="stop-color:#fdee73;stop-opacity:0;"
         offset="1"
         id="stop3359" />
    </linearGradient>
    <linearGradient
       inkscape:collect="always"
       id="linearGradient3347">
      <stop
         style="stop-color:#b07300;stop-opacity:1"
         offset="0"
         id="stop3349" />
      <stop
         style="stop-color:#b08f00;stop-opacity:0;"
         offset="1"
         id="stop3351" />
    </linearGradient>
    <linearGradient
       inkscape:collect="always"
       id="linearGradient3191">
      <stop
         style="stop-color:#656763;stop-opacity:1"
         offset="0"
         id="stop3193" />
      <stop
         style="stop-color:#2e3436;stop-opacity:1"
         offset="1"
         id="stop3195" />
    </linearGradient>
    <linearGradient
       inkscape:collect="always"
       id="linearGradient2256">
      <stop
         style="stop-color:#eeeeec;stop-opacity:1;"
         offset="0"
         id="stop2258" />
      <stop
         style="stop-color:#eeeeec;stop-opacity:0;"
         offset="1"
         id="stop2260" />
    </linearGradient>
    <radialGradient
       inkscape:collect="always"
       xlink:href="#linearGradient2256"
       id="radialGradient2407"
       gradientUnits="userSpaceOnUse"
       gradientTransform="matrix(1,0,0,1.105,0,-0.793125)"
       cx="17.904432"
       cy="8.5087223"
       fx="17.904432"
       fy="8.5087223"
       r="3.5714285" />
    <radialGradient
       inkscape:collect="always"
       xlink:href="#linearGradient2256"
       id="radialGradient2409"
       gradientUnits="userSpaceOnUse"
       gradientTransform="matrix(1,0,0,1.105,0,-0.793125)"
       cx="17.904432"
       cy="8.5087223"
       fx="17.904432"
       fy="8.5087223"
       r="3.5714285" />
    <radialGradient
       inkscape:collect="always"
       xlink:href="#linearGradient2256"
       id="radialGradient2411"
       gradientUnits="userSpaceOnUse"
       gradientTransform="matrix(1,0,0,1.105,0,-0.793125)"
       cx="17.904432"
       cy="8.5087223"
       fx="17.904432"
       fy="8.5087223"
       r="3.5714285" />
    <linearGradient
       inkscape:collect="always"
       xlink:href="#linearGradient3191"
       id="linearGradient3197"
       x1="13.971924"
       y1="13.263657"
       x2="13.277088"
       y2="16.176428"
       gradientUnits="userSpaceOnUse"
       gradientTransform="matrix(-1,0,0,1,27,-1.9991666)" />
    <linearGradient
       inkscape:collect="always"
       xlink:href="#linearGradient3191"
       id="linearGradient3281"
       gradientUnits="userSpaceOnUse"
       gradientTransform="translate(-3.0028622,-4.9991666)"
       x1="13.971924"
       y1="13.263657"
       x2="13.277088"
       y2="16.176428" />
    <radialGradient
       inkscape:collect="always"
       xlink:href="#linearGradient2256"
       id="radialGradient3283"
       gradientUnits="userSpaceOnUse"
       gradientTransform="matrix(1,0,0,1.105,0,-0.793125)"
       cx="17.904432"
       cy="8.5087223"
       fx="17.904432"
       fy="8.5087223"
       r="3.5714285" />
    <radialGradient
       inkscape:collect="always"
       xlink:href="#linearGradient2256"
       id="radialGradient3285"
       gradientUnits="userSpaceOnUse"
       gradientTransform="matrix(1,0,0,1.105,0,-0.793125)"
       cx="17.904432"
       cy="8.5087223"
       fx="17.904432"
       fy="8.5087223"
       r="3.5714285" />
    <radialGradient
       inkscape:collect="always"
       xlink:href="#linearGradient2256"
       id="radialGradient3287"
       gradientUnits="userSpaceOnUse"
       gradientTransform="matrix(1,0,0,1.105,0,-0.793125)"
       cx="17.904432"
       cy="8.5087223"
       fx="17.904432"
       fy="8.5087223"
       r="3.5714285" />
    <linearGradient
       inkscape:collect="always"
       xlink:href="#linearGradient3347"
       id="linearGradient3353"
       x1="11.755341"
       y1="19.200521"
       x2="11.755341"
       y2="22.815796"
       gradientUnits="userSpaceOnUse" />
    <linearGradient
       inkscape:collect="always"
       xlink:href="#linearGradient3355"
       id="linearGradient3361"
       x1="10.729717"
       y1="20.10532"
       x2="10.729717"
       y2="22.695314"
       gradientUnits="userSpaceOnUse" />
  </defs>
  <sodipodi:namedview
     id="base"
     pagecolor="#ffffff"
     bordercolor="#666666"
     borderopacity="1.0"
     inkscape:pageopacity="0.0"
     inkscape:pageshadow="2"
     inkscape:zoom="17.236022"
     inkscape:cx="20.338652"
     inkscape:cy="13.243697"
     inkscape:current-layer="layer1"
     showgrid="true"
     inkscape:grid-bbox="true"
     inkscape:document-units="px"
     fill="#729fcf"
     inkscape:window-width="1440"
     inkscape:window-height="848"
     inkscape:window-x="0"
     inkscape:window-y="0"
     inkscape:snap-nodes="false"
     inkscape:snap-bbox="true"
     objecttolerance="10"
     gridtolerance="10">
    <inkscape:grid
       type="xygrid"
       id="grid2395"
       visible="true"
       enabled="true" />
  </sodipodi:namedview>
  <metadata
     id="metadata2206">
    <rdf:RDF>
      <cc:Work
         rdf:about="">
        <dc:format>image/svg+xml</dc:format>
        <dc:type
           rdf:resource="http://purl.org/dc/dcmitype/StillImage" />
      </cc:Work>
    </rdf:RDF>
  </metadata>
  <g
     id="layer1"
     inkscape:label="Layer 1"
     inkscape:groupmode="layer">
    <path
       style="opacity:1;fill:url(#linearGradient3361);fill-opacity:1;fill-rule:nonzero;stroke:url(#linearGradient3353);stroke-width:1.00000011999999994;stroke-linecap:square;stroke-linejoin:miter;marker:none;marker-start:none;marker-mid:none;marker-end:none;stroke-miterlimit:4;stroke-dasharray:none;stroke-dashoffset:0;stroke-opacity:1;visibility:visible;display:inline;overflow:visible;enable-background:accumulate"
       d="M 13.09375,12.5 L 8.1249998,17.46875 L 9.6249998,19.09375 L 5.9374998,22.78125 L 7.3749998,24.1875 L 11.0625,20.5 L 13.955274,23.300949 L 15.361524,21.863449 L 10.875,17.53125 L 14.5,13.90625 L 13.09375,12.5 z"
       id="rect3339"
       sodipodi:nodetypes="ccccccccccc" />
    <path
       style="opacity:1;fill:#888a85;fill-opacity:1;stroke:url(#linearGradient3281);stroke-width:1.00595629;stroke-miterlimit:4;stroke-dasharray:none;stroke-opacity:1"
       d="M 9.7957881,1.5056662 C 8.3884201,1.6048563 7.1587351,2.5214 6.5067751,3.8163507 C 6.0760751,3.6138597 5.5980721,3.5040961 5.1012141,3.5040961 C 3.1137821,3.5040961 1.5029781,5.2930527 1.5029781,7.5009547 C 1.5029781,9.7088587 3.1137821,11.497817 5.1012141,11.497817 C 5.1089771,11.497817 5.1215731,11.497872 5.1293251,11.497817 C 5.1370771,11.497762 5.1496961,11.497926 5.1574371,11.497817 L 5.4666601,11.497817 L 15.530477,11.497817 L 15.867812,11.497817 C 15.875563,11.497872 15.88816,11.497817 15.895923,11.497817 C 17.883354,11.497817 19.494159,9.7088587 19.494159,7.5009547 C 19.494159,5.2930527 17.883354,3.5040961 15.895923,3.5040961 C 15.111819,3.5040961 14.379058,3.7801617 13.787581,4.2535067 C 13.173523,2.64174 11.722669,1.5056662 10.048789,1.5056662 C 9.9616081,1.5056662 9.8816031,1.499618 9.7957881,1.5056662 z"
       id="path3271"
       sodipodi:nodetypes="ccssssccccssscsc" />
    <path
       sodipodi:type="arc"
       style="opacity:0.62053576;fill:url(#radialGradient3283);fill-opacity:1;stroke:none;stroke-width:0.94128603;stroke-miterlimit:4;stroke-dasharray:none;stroke-opacity:1"
       id="path3273"
       sodipodi:cx="19.285715"
       sodipodi:cy="7.5535712"
       sodipodi:rx="3.5714285"
       sodipodi:ry="3.9464285"
       d="M 22.857144,7.5535712 A 3.5714285,3.9464285 0 1 1 15.714287,7.5535712 A 3.5714285,3.9464285 0 1 1 22.857144,7.5535712 z"
       transform="matrix(0.419979,0.848704,-0.658303,0.443438,12.870157,-12.216191)" />
    <path
       sodipodi:type="arc"
       style="opacity:0.62053576;fill:url(#radialGradient3285);fill-opacity:1;stroke:none;stroke-width:0.94128603;stroke-miterlimit:4;stroke-dasharray:none;stroke-opacity:1"
       id="path3275"
       sodipodi:cx="19.285715"
       sodipodi:cy="7.5535712"
       sodipodi:rx="3.5714285"
       sodipodi:ry="3.9464285"
       d="M 22.857144,7.5535712 A 3.5714285,3.9464285 0 1 1 15.714287,7.5535712 A 3.5714285,3.9464285 0 1 1 22.857144,7.5535712 z"
       transform="matrix(0.419979,0.848582,-0.658302,0.443375,1.8701401,-12.213851)" />
    <path
       sodipodi:type="arc"
       style="opacity:0.62053576;fill:url(#radialGradient3287);fill-opacity:1;stroke:none;stroke-width:0.94128603;stroke-miterlimit:4;stroke-dasharray:none;stroke-opacity:1"
       id="path3277"
       sodipodi:cx="19.285715"
       sodipodi:cy="7.5535712"
       sodipodi:rx="3.5714285"
       sodipodi:ry="3.9464285"
       d="M 22.857144,7.5535712 A 3.5714285,3.9464285 0 1 1 15.714287,7.5535712 A 3.5714285,3.9464285 0 1 1 22.857144,7.5535712 z"
       transform="matrix(4.961495e-7,1.12,-0.897657,-7.661627e-7,16.776447,-15.599591)" />
    <path
       sodipodi:type="inkscape:offset"
       inkscape:radius="-1.0351878"
       inkscape:original="M 10.8125 2.5 C 9.4051328 2.59919 8.1519594 3.5175493 7.5 4.8125 C 7.0692997 4.6100089 6.5906082 4.5 6.09375 4.5 C 4.1063181 4.4999998 2.5 6.2920963 2.5 8.5 C 2.4999999 10.707903 4.1063182 12.5 6.09375 12.5 C 6.1015134 12.5 6.1172481 12.500055 6.125 12.5 C 6.1327521 12.499945 6.1485098 12.500109 6.15625 12.5 L 6.46875 12.5 L 16.53125 12.5 L 16.875 12.5 C 16.882752 12.500055 16.898487 12.5 16.90625 12.5 C 18.89368 12.5 20.5 10.707903 20.5 8.5 C 20.499999 6.2920964 18.893681 4.5 16.90625 4.5 C 16.122145 4.4999998 15.372727 4.7766547 14.78125 5.25 C 14.167192 3.6382326 12.73638 2.5 11.0625 2.5 C 10.975319 2.4999999 10.898315 2.4939518 10.8125 2.5 z "
       xlink:href="#path2237"
       style="opacity:0.5;fill:none;fill-opacity:1;stroke:#ffffff;stroke-width:1.00595629;stroke-miterlimit:4;stroke-dasharray:none;stroke-opacity:1"
       id="path3279"
       d="M 10.875,3.53125 C 9.8716407,3.6019659 8.9382625,4.2866132 8.4375,5.28125 C 8.1841105,5.7868076 7.5719333,5.9955043 7.0625,5.75 C 6.768424,5.611742 6.4378082,5.53125 6.09375,5.53125 C 4.7286142,5.5312499 3.53125,6.7941837 3.53125,8.5 C 3.5312499,10.205815 4.7286144,11.46875 6.09375,11.46875 C 6.1064026,11.46875 6.1320822,11.4687 6.125,11.46875 C 6.157303,11.468521 6.1829073,11.468375 6.15625,11.46875 L 6.46875,11.46875 L 16.53125,11.46875 L 16.875,11.46875 C 16.867918,11.4687 16.893598,11.46875 16.90625,11.46875 C 18.271383,11.46875 19.46875,10.205815 19.46875,8.5 C 19.468749,6.7941835 18.271385,5.53125 16.90625,5.53125 C 16.365641,5.5312499 15.849558,5.7327393 15.4375,6.0625 C 15.179235,6.2738645 14.834917,6.3477692 14.512661,6.2610081 C 14.190406,6.174247 13.929736,5.937461 13.8125,5.625 C 13.331183,4.3616492 12.267097,3.53125 11.0625,3.53125 C 10.927443,3.5312498 10.869214,3.5316578 10.875,3.53125 z"
       transform="translate(-0.9717281,-0.9717281)" />
    <path
       style="opacity:1;fill:#888a85;fill-opacity:1;stroke:url(#linearGradient3197);stroke-width:1.00595629000000009;stroke-miterlimit:4;stroke-dasharray:none;stroke-opacity:1"
       d="M 14.201349,4.5056662 C 15.608717,4.6048563 16.838402,5.5214 17.490362,6.8163507 C 17.921062,6.6138596 18.399065,6.5040961 18.895923,6.5040961 C 20.883355,6.5040961 22.494159,8.2930524 22.494159,10.500955 C 22.494159,12.708859 20.883355,14.497817 18.895923,14.497817 C 18.88816,14.497817 18.875564,14.497872 18.867812,14.497817 C 18.86006,14.497762 18.847441,14.497926 18.8397,14.497817 L 18.530477,14.497817 L 8.4666601,14.497817 L 8.1293251,14.497817 C 8.1215741,14.497872 8.1089771,14.497817 8.1012141,14.497817 C 6.1137831,14.497817 4.5029781,12.708859 4.5029781,10.500955 C 4.5029781,8.2930524 6.1137831,6.5040961 8.1012141,6.5040961 C 8.8853181,6.5040961 9.6180791,6.7801619 10.209556,7.2535072 C 10.823614,5.64174 12.274468,4.5056662 13.948348,4.5056662 C 14.035529,4.5056662 14.115534,4.499618 14.201349,4.5056662 z"
       id="path2397"
       sodipodi:nodetypes="ccssssccccssscsc" />
    <path
       sodipodi:type="arc"
       style="opacity:0.62053571;fill:url(#radialGradient2407);fill-opacity:1;stroke:none;stroke-width:0.94128603000000000;stroke-miterlimit:4;stroke-dasharray:none;stroke-opacity:1"
       id="path2399"
       sodipodi:cx="19.285715"
       sodipodi:cy="7.5535712"
       sodipodi:rx="3.5714285"
       sodipodi:ry="3.9464285"
       d="M 22.857144,7.5535712 A 3.5714285,3.9464285 0 1 1 15.714287,7.5535712 A 3.5714285,3.9464285 0 1 1 22.857144,7.5535712 z"
       transform="matrix(-0.419979,0.848704,0.658303,0.443438,11.12698,-9.216191)" />
    <path
       sodipodi:type="arc"
       style="opacity:0.62053571;fill:url(#radialGradient2409);fill-opacity:1;stroke:none;stroke-width:0.94128603000000000;stroke-miterlimit:4;stroke-dasharray:none;stroke-opacity:1"
       id="path2401"
       sodipodi:cx="19.285715"
       sodipodi:cy="7.5535712"
       sodipodi:rx="3.5714285"
       sodipodi:ry="3.9464285"
       d="M 22.857144,7.5535712 A 3.5714285,3.9464285 0 1 1 15.714287,7.5535712 A 3.5714285,3.9464285 0 1 1 22.857144,7.5535712 z"
       transform="matrix(-0.419979,0.848582,0.658302,0.443375,22.126997,-9.213851)" />
    <path
       sodipodi:type="arc"
       style="opacity:0.62053571;fill:url(#radialGradient2411);fill-opacity:1;stroke:none;stroke-width:0.94128603000000000;stroke-miterlimit:4;stroke-dasharray:none;stroke-opacity:1"
       id="path2403"
       sodipodi:cx="19.285715"
       sodipodi:cy="7.5535712"
       sodipodi:rx="3.5714285"
       sodipodi:ry="3.9464285"
       d="M 22.857144,7.5535712 A 3.5714285,3.9464285 0 1 1 15.714287,7.5535712 A 3.5714285,3.9464285 0 1 1 22.857144,7.5535712 z"
       transform="matrix(-4.961495e-7,1.12,0.897657,-7.661627e-7,7.2206901,-12.599591)" />
    <path
       sodipodi:type="inkscape:offset"
       inkscape:radius="-1.0351878"
       inkscape:original="M 9.78125 1.5 C 8.3738822 1.59919 7.1519598 2.5175493 6.5 3.8125 C 6.0692995 3.6100089 5.5906082 3.5 5.09375 3.5 C 3.1063184 3.5000001 1.5 5.2920963 1.5 7.5 C 1.5 9.7079042 3.1063182 11.5 5.09375 11.5 C 5.1015137 11.5 5.1172481 11.500055 5.125 11.5 C 5.1327519 11.499945 5.1485098 11.500109 5.15625 11.5 L 5.46875 11.5 L 15.53125 11.5 L 15.875 11.5 C 15.882751 11.500055 15.898487 11.5 15.90625 11.5 C 17.893681 11.5 19.5 9.707904 19.5 7.5 C 19.499999 5.2920966 17.893681 3.5 15.90625 3.5 C 15.122146 3.5000001 14.372727 3.7766547 13.78125 4.25 C 13.167192 2.6382329 11.73638 1.5 10.0625 1.5 C 9.975319 1.4999999 9.867065 1.4939518 9.78125 1.5 z "
       xlink:href="#path2237"
       style="opacity:0.5;fill:none;fill-opacity:1;stroke:#ffffff;stroke-width:1.00595629;stroke-miterlimit:4;stroke-dasharray:none;stroke-opacity:1"
       id="path2405"
       d="M 9.84375,2.53125 C 8.841462,2.6018903 7.9442379,3.2747454 7.4375,4.28125 C 7.1841105,4.7868076 6.5719333,4.9955043 6.0625,4.75 C 5.7684236,4.6117418 5.4378082,4.53125 5.09375,4.53125 C 3.7286144,4.5312501 2.53125,5.7941838 2.53125,7.5 C 2.53125,9.2058169 3.728614,10.46875 5.09375,10.46875 C 5.1064027,10.46875 5.132082,10.4687 5.125,10.46875 C 5.1573038,10.468521 5.1829076,10.468375 5.15625,10.46875 L 5.46875,10.46875 L 15.53125,10.46875 L 15.875,10.46875 C 15.867913,10.4687 15.893598,10.46875 15.90625,10.46875 C 17.271385,10.46875 18.46875,9.2058164 18.46875,7.5 C 18.468749,5.7941838 17.271385,4.53125 15.90625,4.53125 C 15.365642,4.5312501 14.849558,4.7327398 14.4375,5.0625 C 14.179235,5.2738645 13.834917,5.3477692 13.512661,5.2610081 C 13.190406,5.174247 12.929736,4.937461 12.8125,4.625 C 12.331183,3.3616495 11.267097,2.53125 10.0625,2.53125 C 9.9274432,2.5312498 9.8203826,2.5328969 9.84375,2.53125 z"
       transform="matrix(-1,0,0,1,23.997137,3)"
       inkscape:href="#path2237" />
  </g>
</svg>
