<?xml version="1.0" encoding="UTF-8" standalone="no"?>
<!-- Created with Inkscape (http://www.inkscape.org/) -->
<svg
   xmlns:dc="http://purl.org/dc/elements/1.1/"
   xmlns:cc="http://creativecommons.org/ns#"
   xmlns:rdf="http://www.w3.org/1999/02/22-rdf-syntax-ns#"
   xmlns:svg="http://www.w3.org/2000/svg"
   xmlns="http://www.w3.org/2000/svg"
   xmlns:xlink="http://www.w3.org/1999/xlink"
   xmlns:sodipodi="http://sodipodi.sourceforge.net/DTD/sodipodi-0.dtd"
   xmlns:inkscape="http://www.inkscape.org/namespaces/inkscape"
   width="24"
   height="24"
   id="svg2"
   sodipodi:version="0.32"
   inkscape:version="0.46"
   version="1.0"
   sodipodi:docbase="/home/hbons/Desktop/Gaim Refresh/emotes/scalable"
   sodipodi:docname="turtle.svg"
   inkscape:export-filename="/home/hbons/Bureaublad/Projecten/Pidgin objecten voor 2.5.0/bitmaps/turtle.png"
   inkscape:export-xdpi="90"
   inkscape:export-ydpi="90"
   inkscape:output_extension="org.inkscape.output.svg.inkscape">
  <defs
     id="defs4">
    <linearGradient
       inkscape:collect="always"
       id="linearGradient3362">
      <stop
         style="stop-color:#8f5902;stop-opacity:1;"
         offset="0"
         id="stop3364" />
      <stop
         style="stop-color:#623c00;stop-opacity:1"
         offset="1"
         id="stop3366" />
    </linearGradient>
    <linearGradient
       inkscape:collect="always"
       id="linearGradient3243">
      <stop
         style="stop-color:#8f5902;stop-opacity:1;"
         offset="0"
         id="stop3245" />
      <stop
         style="stop-color:#694100;stop-opacity:1"
         offset="1"
         id="stop3247" />
    </linearGradient>
    <linearGradient
       inkscape:collect="always"
       id="linearGradient3217">
      <stop
         style="stop-color:#ffffff;stop-opacity:1;"
         offset="0"
         id="stop3219" />
      <stop
         style="stop-color:#ffffff;stop-opacity:0;"
         offset="1"
         id="stop3221" />
    </linearGradient>
    <linearGradient
       inkscape:collect="always"
       id="linearGradient3203">
      <stop
         style="stop-color:#ffffff;stop-opacity:1;"
         offset="0"
         id="stop3205" />
      <stop
         style="stop-color:#ffffff;stop-opacity:0;"
         offset="1"
         id="stop3207" />
    </linearGradient>
    <linearGradient
       inkscape:collect="always"
       id="linearGradient3195">
      <stop
         style="stop-color:#62b312;stop-opacity:1"
         offset="0"
         id="stop3197" />
      <stop
         style="stop-color:#86e925;stop-opacity:1"
         offset="1"
         id="stop3199" />
    </linearGradient>
    <linearGradient
       inkscape:collect="always"
       id="linearGradient3187">
      <stop
         style="stop-color:#ffffff;stop-opacity:1;"
         offset="0"
         id="stop3189" />
      <stop
         style="stop-color:#ffffff;stop-opacity:0;"
         offset="1"
         id="stop3191" />
    </linearGradient>
    <linearGradient
       inkscape:collect="always"
       id="linearGradient3171">
      <stop
         style="stop-color:#377800;stop-opacity:1"
         offset="0"
         id="stop3173" />
      <stop
         style="stop-color:#1e4300;stop-opacity:1"
         offset="1"
         id="stop3175" />
    </linearGradient>
    <linearGradient
       inkscape:collect="always"
       xlink:href="#linearGradient3171"
       id="linearGradient3177"
       x1="14.18378"
       y1="11.475915"
       x2="15.14852"
       y2="14.756321"
       gradientUnits="userSpaceOnUse" />
    <linearGradient
       inkscape:collect="always"
       xlink:href="#linearGradient3187"
       id="linearGradient3193"
       x1="10.865164"
       y1="3.4545939"
       x2="21.249144"
       y2="16.659266"
       gradientUnits="userSpaceOnUse" />
    <linearGradient
       inkscape:collect="always"
       xlink:href="#linearGradient3195"
       id="linearGradient3201"
       x1="16.509132"
       y1="11.268293"
       x2="10.913058"
       y2="11.185246"
       gradientUnits="userSpaceOnUse" />
    <linearGradient
       inkscape:collect="always"
       xlink:href="#linearGradient3203"
       id="linearGradient3209"
       x1="2.8038726"
       y1="4.9226584"
       x2="12.364221"
       y2="15.469787"
       gradientUnits="userSpaceOnUse" />
    <linearGradient
       inkscape:collect="always"
       xlink:href="#linearGradient3217"
       id="linearGradient3223"
       x1="8.0657072"
       y1="16.731804"
       x2="11.460186"
       y2="17.5"
       gradientUnits="userSpaceOnUse" />
    <linearGradient
       inkscape:collect="always"
       xlink:href="#linearGradient3217"
       id="linearGradient3227"
       gradientUnits="userSpaceOnUse"
       x1="8.0657072"
       y1="16.731804"
       x2="11.460186"
       y2="17.5" />
    <linearGradient
       inkscape:collect="always"
       xlink:href="#linearGradient3217"
       id="linearGradient3235"
       gradientUnits="userSpaceOnUse"
       x1="8.0657072"
       y1="16.731804"
       x2="11.460186"
       y2="17.5" />
    <linearGradient
       inkscape:collect="always"
       xlink:href="#linearGradient3217"
       id="linearGradient3241"
       gradientUnits="userSpaceOnUse"
       x1="8.0657072"
       y1="16.731804"
       x2="11.460186"
       y2="17.5" />
    <linearGradient
       inkscape:collect="always"
       xlink:href="#linearGradient3243"
       id="linearGradient3249"
       x1="17"
       y1="17.493673"
       x2="18.843079"
       y2="16.787764"
       gradientUnits="userSpaceOnUse"
       gradientTransform="matrix(1,0,0,1.2507901,0,-3.885131)" />
    <linearGradient
       inkscape:collect="always"
       xlink:href="#linearGradient3243"
       id="linearGradient3256"
       gradientUnits="userSpaceOnUse"
       gradientTransform="matrix(1,0,0,1.5005269,-8.0000003,-8.7539436)"
       x1="17"
       y1="17.493673"
       x2="18.843079"
       y2="16.787764" />
    <filter
       inkscape:collect="always"
       id="filter3324"
       x="-0.092127312"
       width="1.1842546"
       y="-0.14981451"
       height="1.299629">
      <feGaussianBlur
         inkscape:collect="always"
         stdDeviation="0.27734919"
         id="feGaussianBlur3326" />
    </filter>
    <filter
       inkscape:collect="always"
       id="filter3358"
       x="-0.17039155"
       width="1.3407831"
       y="-0.49413551"
       height="1.988271">
      <feGaussianBlur
         inkscape:collect="always"
         stdDeviation="0.94043327"
         id="feGaussianBlur3360" />
    </filter>
    <linearGradient
       inkscape:collect="always"
       xlink:href="#linearGradient3362"
       id="linearGradient3368"
       x1="6.9377627"
       y1="9.8072071"
       x2="10.669972"
       y2="12.672371"
       gradientUnits="userSpaceOnUse" />
  </defs>
  <sodipodi:namedview
     id="base"
     pagecolor="#ffffff"
     bordercolor="#666666"
     borderopacity="1.0"
     inkscape:pageopacity="0.0"
     inkscape:pageshadow="2"
     inkscape:zoom="24.082386"
     inkscape:cx="19.907978"
     inkscape:cy="13.045646"
     inkscape:document-units="px"
     inkscape:current-layer="layer1"
     showgrid="true"
     fill="#2e3436"
     showguides="true"
     inkscape:guide-bbox="true"
     inkscape:window-width="1440"
     inkscape:window-height="848"
     inkscape:window-x="0"
     inkscape:window-y="0"
     inkscape:snap-bbox="true"
     inkscape:snap-nodes="false"
     objecttolerance="10"
     gridtolerance="10">
    <inkscape:grid
       type="xygrid"
       id="grid2399"
       visible="true"
       enabled="true" />
  </sodipodi:namedview>
  <metadata
     id="metadata7">
    <rdf:RDF>
      <cc:Work
         rdf:about="">
        <dc:format>image/svg+xml</dc:format>
        <dc:type
           rdf:resource="http://purl.org/dc/dcmitype/StillImage" />
      </cc:Work>
    </rdf:RDF>
  </metadata>
  <g
     inkscape:label="Layer 1"
     inkscape:groupmode="layer"
     id="layer1">
    <path
       sodipodi:type="arc"
       style="opacity:0.66071424;fill:#2e3436;fill-opacity:1;fill-rule:nonzero;stroke:none;stroke-width:1;stroke-linecap:square;stroke-linejoin:miter;marker:none;marker-start:none;marker-mid:none;marker-end:none;stroke-miterlimit:4;stroke-dasharray:none;stroke-dashoffset:0;stroke-opacity:1;visibility:visible;display:inline;overflow:visible;filter:url(#filter3358);enable-background:accumulate"
       id="path3328"
       sodipodi:cx="12.353427"
       sodipodi:cy="18.477291"
       sodipodi:rx="6.6230979"
       sodipodi:ry="2.2838268"
       d="M 18.976525,18.477291 A 6.6230979,2.2838268 0 1 1 5.730329,18.477291 A 6.6230979,2.2838268 0 1 1 18.976525,18.477291 z"
       transform="matrix(1.1324006,0,0,1.0946539,1.5109722,-0.7262382)" />
    <path
       style="fill:#c17d11;fill-opacity:1;fill-rule:evenodd;stroke:url(#linearGradient3256);stroke-width:0.99999946;stroke-miterlimit:4;stroke-dasharray:none;stroke-opacity:1"
       d="M 13.498912,18.131965 C 13.498912,16.805304 12.892745,14.491564 11.478628,14.491564 C 10.064513,14.491564 9.4999997,16.699277 9.4999997,18.025934 C 9.4999997,19.352598 10.064513,20.500001 11.478628,20.500001 C 12.892745,20.500001 13.498912,19.458632 13.498912,18.131965 z"
       id="path3251"
       sodipodi:nodetypes="csssc" />
    <path
       style="fill:#c17d11;fill-opacity:1;fill-rule:evenodd;stroke:#8f5902;stroke-width:0.99999958;stroke-miterlimit:4;stroke-dasharray:none;stroke-opacity:1"
       d="M 8.6995249,17.043247 C 9.3246989,16.418074 9.9864129,14.899138 8.9865169,13.899242 C 7.98662,12.899346 6.5471018,13.540548 5.9219296,14.165721 C 5.2967538,14.790896 5.155211,15.730755 6.1551074,16.730651 C 7.1550038,17.730547 8.074348,17.668425 8.6995249,17.043247 z"
       id="path3231"
       sodipodi:nodetypes="csssc" />
    <path
       sodipodi:type="inkscape:offset"
       inkscape:radius="-1.0117662"
       inkscape:original="M 10.46875 15.5 C 9.054683 15.5 8.5 16.959623 8.5 17.84375 C 8.5000002 18.727882 9.0546829 19.5 10.46875 19.5 C 11.882817 19.5 12.5 18.821634 12.5 17.9375 C 12.5 17.053371 11.882817 15.5 10.46875 15.5 z "
       style="fill:none;fill-opacity:1;fill-rule:evenodd;stroke:url(#linearGradient3235);stroke-width:0.99999958;stroke-miterlimit:4;stroke-dasharray:none;stroke-opacity:1"
       id="path3233"
       d="M 10.46875,16.5 C 10.109837,16.5 9.9917269,16.636115 9.8125,16.90625 C 9.6332731,17.176385 9.5,17.613274 9.5,17.84375 C 9.5000001,18.07423 9.5653073,18.193733 9.65625,18.28125 C 9.7471927,18.368767 9.9458668,18.5 10.46875,18.5 C 11.013993,18.5 11.279694,18.36189 11.375,18.28125 C 11.470306,18.20061 11.5,18.144141 11.5,17.9375 C 11.5,17.730863 11.35749,17.240744 11.15625,16.9375 C 10.95501,16.634256 10.805304,16.5 10.46875,16.5 z"
       transform="matrix(0.7071068,0.7071068,-0.7071068,0.7071068,12.536344,-4.4712412)" />
    <path
       style="fill:#c17d11;fill-opacity:1;fill-rule:evenodd;stroke:#8f5902;stroke-width:0.99999946;stroke-miterlimit:4;stroke-dasharray:none;stroke-opacity:1"
       d="M 19.498912,17.921864 C 19.498912,17.037734 18.892745,15.495782 17.478628,15.495782 C 16.064513,15.495782 15.5,16.967074 15.5,17.851201 C 15.5,18.735334 16.064513,19.5 17.478628,19.5 C 18.892745,19.5 19.498912,18.805998 19.498912,17.921864 z"
       id="path3237"
       sodipodi:nodetypes="csssc" />
    <path
       sodipodi:type="inkscape:offset"
       inkscape:radius="-1.0117662"
       inkscape:original="M 10.46875 15.5 C 9.054683 15.5 8.5 16.959623 8.5 17.84375 C 8.5000002 18.727882 9.0546829 19.5 10.46875 19.5 C 11.882817 19.5 12.5 18.821634 12.5 17.9375 C 12.5 17.053371 11.882817 15.5 10.46875 15.5 z "
       style="fill:none;fill-opacity:1;fill-rule:evenodd;stroke:url(#linearGradient3241);stroke-width:0.99999958;stroke-miterlimit:4;stroke-dasharray:none;stroke-opacity:1"
       id="path3239"
       d="M 10.46875,16.5 C 10.109837,16.5 9.9917269,16.636115 9.8125,16.90625 C 9.6332731,17.176385 9.5,17.613274 9.5,17.84375 C 9.5000001,18.07423 9.5653073,18.193733 9.65625,18.28125 C 9.7471927,18.368767 9.9458668,18.5 10.46875,18.5 C 11.013993,18.5 11.279694,18.36189 11.375,18.28125 C 11.470306,18.20061 11.5,18.144141 11.5,17.9375 C 11.5,17.730863 11.35749,17.240744 11.15625,16.9375 C 10.95501,16.634256 10.805304,16.5 10.46875,16.5 z"
       transform="translate(6.9989119,-4.2179404e-3)" />
    <path
       style="fill:#c17d11;fill-opacity:1;fill-rule:evenodd;stroke:#8f5902;stroke-width:1.00000131;stroke-miterlimit:4;stroke-opacity:1"
       d="M 18.380153,15.500013 L 18.653345,13.449867 L 21.969791,15.481415 L 18.380153,15.500013 z"
       id="path2240"
       sodipodi:nodetypes="cccc" />
    <path
       style="fill:#c17d11;fill-opacity:1;fill-rule:evenodd;stroke:url(#linearGradient3249);stroke-width:0.99999946;stroke-miterlimit:4;stroke-dasharray:none;stroke-opacity:1"
       d="M 21.498912,18.526083 C 21.498912,17.420222 20.892745,15.491564 19.478628,15.491564 C 18.064513,15.491564 17.5,17.331841 17.5,18.437699 C 17.5,19.543563 18.064513,20.5 19.478628,20.5 C 20.892745,20.5 21.498912,19.631949 21.498912,18.526083 z"
       id="path2195"
       sodipodi:nodetypes="csssc" />
    <path
       sodipodi:type="inkscape:offset"
       inkscape:radius="-1.0117662"
       inkscape:original="M 10.46875 15.5 C 9.054683 15.5 8.5 16.959623 8.5 17.84375 C 8.5000002 18.727882 9.0546829 19.5 10.46875 19.5 C 11.882817 19.5 12.5 18.821634 12.5 17.9375 C 12.5 17.053371 11.882817 15.5 10.46875 15.5 z "
       style="fill:none;fill-opacity:1;fill-rule:evenodd;stroke:url(#linearGradient3223);stroke-width:0.70710647;stroke-miterlimit:4;stroke-dasharray:none;stroke-opacity:1"
       id="path3215"
       d="M 10.46875,16.5 C 10.109837,16.5 9.9917269,16.636115 9.8125,16.90625 C 9.6332731,17.176385 9.5,17.613274 9.5,17.84375 C 9.5000001,18.07423 9.5653073,18.193733 9.65625,18.28125 C 9.7471927,18.368767 9.9458668,18.5 10.46875,18.5 C 11.013993,18.5 11.279694,18.36189 11.375,18.28125 C 11.470306,18.20061 11.5,18.144141 11.5,17.9375 C 11.5,17.730863 11.35749,17.240744 11.15625,16.9375 C 10.95501,16.634256 10.805304,16.5 10.46875,16.5 z"
       transform="matrix(1,0,0,2.0000001,1,-17.500002)" />
    <path
       sodipodi:type="inkscape:offset"
       inkscape:radius="-1.0117662"
       inkscape:original="M 10.46875 15.5 C 9.054683 15.5 8.5 16.959623 8.5 17.84375 C 8.5000002 18.727882 9.0546829 19.5 10.46875 19.5 C 11.882817 19.5 12.5 18.821634 12.5 17.9375 C 12.5 17.053371 11.882817 15.5 10.46875 15.5 z "
       style="fill:none;fill-opacity:1;fill-rule:evenodd;stroke:url(#linearGradient3227);stroke-width:0.81535065;stroke-miterlimit:4;stroke-dasharray:none;stroke-opacity:1"
       id="path3225"
       d="M 10.46875,16.5 C 10.109837,16.5 9.9917269,16.636115 9.8125,16.90625 C 9.6332731,17.176385 9.5,17.613274 9.5,17.84375 C 9.5000001,18.07423 9.5653073,18.193733 9.65625,18.28125 C 9.7471927,18.368767 9.9458668,18.5 10.46875,18.5 C 11.013993,18.5 11.279694,18.36189 11.375,18.28125 C 11.470306,18.20061 11.5,18.144141 11.5,17.9375 C 11.5,17.730863 11.35749,17.240744 11.15625,16.9375 C 10.95501,16.634256 10.805304,16.5 10.46875,16.5 z"
       transform="matrix(1,0,0,1.5042179,8.9989122,-8.3280317)" />
    <path
       style="fill:url(#linearGradient3201);fill-opacity:1;fill-rule:evenodd;stroke:url(#linearGradient3177);stroke-width:1;stroke-miterlimit:4;stroke-opacity:1"
       d="M 21.5,13.538068 C 21.5,17.423083 7.5001064,17.423083 7.5001064,13.538068 C 7.5001064,9.6530485 10.636082,6.5000002 14.500053,6.5000002 C 18.364024,6.5000002 21.5,9.6530485 21.5,13.538068 z"
       id="path2202" />
    <path
       sodipodi:type="inkscape:offset"
       inkscape:radius="-1.0086972"
       inkscape:original="M 14.5 6.5 C 10.636029 6.5 7.5000001 9.6462307 7.5 13.53125 C 7.5 17.416265 21.5 17.416265 21.5 13.53125 C 21.5 9.6462305 18.363971 6.5000002 14.5 6.5 z "
       xlink:href="#path2202"
       style="opacity:1;fill:none;fill-opacity:1;fill-rule:evenodd;stroke:url(#linearGradient3193);stroke-width:1;stroke-miterlimit:4;stroke-opacity:1"
       id="path2337"
       inkscape:href="#path2202"
       d="M 14,7.5 C 10.948372,7.5 8.4999998,9.9214762 8.5,12.875 C 8.5,13.002674 8.5409451,13.08766 8.75,13.28125 C 8.9590549,13.47484 9.3496616,13.717065 9.875,13.90625 C 10.925677,14.28462 12.465813,14.5 14,14.5 C 15.534187,14.5 17.074323,14.28462 18.125,13.90625 C 18.650338,13.717065 19.040945,13.47484 19.25,13.28125 C 19.459055,13.08766 19.5,13.002674 19.5,12.875 C 19.5,9.9214753 17.05163,7.5000001 14,7.5 z " />
    <path
       sodipodi:type="arc"
       style="opacity:0.33482145;fill:#ffffff;fill-opacity:1;fill-rule:nonzero;stroke:none;stroke-width:1;stroke-linecap:square;stroke-linejoin:miter;marker:none;marker-start:none;marker-mid:none;marker-end:none;stroke-miterlimit:4;stroke-dasharray:none;stroke-dashoffset:0;stroke-opacity:1;visibility:visible;display:inline;overflow:visible;filter:url(#filter3324);enable-background:accumulate"
       id="path3258"
       sodipodi:cx="17.772326"
       sodipodi:cy="11.148283"
       sodipodi:rx="3.6125989"
       sodipodi:ry="2.2215407"
       d="M 21.384924,11.148283 A 3.6125989,2.2215407 0 1 1 14.159727,11.148283 A 3.6125989,2.2215407 0 1 1 21.384924,11.148283 z"
       transform="matrix(0.830427,0,0,1,-1.7586195,-0.9267423)" />
    <path
       style="fill:#c17d11;fill-opacity:1;fill-rule:evenodd;stroke:url(#linearGradient3368);stroke-width:0.99999928000000005;stroke-miterlimit:4;stroke-opacity:1"
       d="M 1.970595,6.6238123 C 1.4852787,7.3919643 0.64462194,10.492761 3.8860871,11.376779 C 4.492273,11.542098 5.1322163,11.520503 5.7583557,11.521051 C 6.1815649,11.814521 7.0197851,12.007711 7.3354776,12.411936 C 8.4983446,13.865394 11.447961,13.875333 11.457181,11.913501 C 11.466403,9.9514246 9.8655365,10.890116 7.9899851,7.8953387 C 7.3086163,7.0390029 6.4917713,5.4999999 5.2437105,5.4999999 C 4.0099264,5.4999999 2.5730681,5.7355699 1.970595,6.6238123 z"
       id="path2180"
       sodipodi:nodetypes="cscczcsc" />
    <path
       sodipodi:type="inkscape:offset"
       inkscape:radius="-0.99399596"
       inkscape:original="M 5.25 5.5 C 4.0162159 5.4999999 2.5712231 5.7367576 1.96875 6.625 C 1.4834337 7.3931521 0.63353484 10.490982 3.875 11.375 C 4.4811858 11.540319 5.1238606 11.530702 5.75 11.53125 C 6.1732093 11.82472 7.0280575 12.002025 7.34375 12.40625 C 8.5066168 13.859708 11.45953 13.868082 11.46875 11.90625 C 11.477972 9.9441738 9.8755514 10.901027 8 7.90625 C 7.3186313 7.0499144 6.4980608 5.5 5.25 5.5 z "
       xlink:href="#path2180"
       style="opacity:0.64285714000000005;fill:none;fill-opacity:1;fill-rule:evenodd;stroke:url(#linearGradient3209);stroke-width:0.99999928000000005;stroke-miterlimit:4;stroke-opacity:1"
       id="path2228"
       inkscape:href="#path2180"
       d="M 4.875,6.53125 C 4.3837465,6.53125 3.84272,6.5726408 3.4375,6.6875 C 3.03228,6.8023592 2.8003466,6.975555 2.71875,7.09375 C 2.6499144,7.2007956 2.4284805,7.8130967 2.5,8.25 C 2.5715195,8.6869033 2.7113601,9.0860802 3.90625,9.40625 C 4.258525,9.5006416 4.754095,9.4994926 5.34375,9.5 C 5.5459576,9.503826 5.7421883,9.5692362 5.90625,9.6875 C 6.6357691,10.184525 6.8261828,10.789396 6.96875,10.96875 C 6.979397,10.978934 6.9898162,10.989353 7,11 C 7.505724,11.688199 7.8815648,12.216728 8.3125,12.46875 C 8.4514703,12.494391 8.6905153,12.486436 9.03125,12.40625 C 9.2046811,12.364356 9.3593675,12.091852 9.40625,11.6875 C 9.5204317,10.850319 9.5047862,10.160001 9.21875,9.84375 C 8.6507355,9.203021 8.0058906,9.0285715 6.9375,8.5625 C 6.7918679,8.4999825 6.6632937,8.4035519 6.5625,8.28125 C 6.1934076,7.825496 5.8787176,7.3138006 5.5625,6.96875 C 5.2462824,6.6236994 5.0332712,6.53125 4.875,6.53125 z " />
    <path
       sodipodi:type="arc"
       style="opacity:1;fill:#2e3436;fill-opacity:1;fill-rule:evenodd;stroke:none;stroke-width:1;stroke-miterlimit:4;stroke-dasharray:none;stroke-opacity:1"
       id="path2245"
       sodipodi:cx="2.9697978"
       sodipodi:cy="13.27573"
       sodipodi:rx="0.45689198"
       sodipodi:ry="0.39343476"
       d="M 3.4266898,13.27573 A 0.45689198,0.39343476 0 1 1 2.5129059,13.27573 A 0.45689198,0.39343476 0 1 1 3.4266898,13.27573 z"
       transform="matrix(1.139792,0,0,2.54173,2.0942863,-25.743317)" />
    <path
       sodipodi:type="arc"
       style="opacity:1;fill:#2e3436;fill-opacity:1;fill-rule:evenodd;stroke:none;stroke-width:1;stroke-miterlimit:4;stroke-dasharray:none;stroke-opacity:1"
       id="path3229"
       sodipodi:cx="2.9697978"
       sodipodi:cy="13.27573"
       sodipodi:rx="0.45689198"
       sodipodi:ry="0.39343476"
       d="M 3.4266898,13.27573 A 0.45689198,0.39343476 0 1 1 2.5129059,13.27573 A 0.45689198,0.39343476 0 1 1 3.4266898,13.27573 z"
       transform="matrix(1.139792,0,0,2.5417294,0.13581,-25.743318)" />
  </g>
</svg>
