/* XPM */
static char * gg_sunred_xpm[] = {
"19 18 4 1",
" 	c None",
".	c #FF0000",
"+	c #7F7F7F",
"@	c #000000",
"                   ",
"         .         ",
"         .+        ",
"    .    .+   .    ",
"     . ..... .+    ",
"      .......+     ",
"     ...@.@...+    ",
"     .........+    ",
"  ...............  ",
"     ..@...@..++++ ",
"     ...@@@...+    ",
"      .......+     ",
"     .+..... .+    ",
"    .+   .++  .+   ",
"    +    .+        ",
"         .+        ",
"          +        ",
"                   "};
