/* XPM */
static char * gg_sunyellow_xpm[] = {
"18 18 5 1",
" 	c None",
".	c #FF0000",
"+	c #7F7F7F",
"@	c #FFFF00",
"#	c #000000",
"                  ",
"        .         ",
"        .+        ",
"   .    .+   .    ",
"    . ..@.. .+    ",
"     .@@@@@.+     ",
"    .@@#@#@@.+    ",
"    .@@@@@@@.+    ",
" ...@@@@@@@@@...  ",
"    .@#@@@#@.++++ ",
"    .@@###@@.+    ",
"     .@@@@@.+     ",
"    .+..@.. .+    ",
"   .+   .++  .+   ",
"   +    .+        ",
"        .+        ",
"         +        ",
"                  "};
