<?xml version="1.0" encoding="UTF-8" standalone="no"?>
<!-- Created with Inkscape (http://www.inkscape.org/) -->
<svg
   xmlns:dc="http://purl.org/dc/elements/1.1/"
   xmlns:cc="http://web.resource.org/cc/"
   xmlns:rdf="http://www.w3.org/1999/02/22-rdf-syntax-ns#"
   xmlns:svg="http://www.w3.org/2000/svg"
   xmlns="http://www.w3.org/2000/svg"
   xmlns:xlink="http://www.w3.org/1999/xlink"
   xmlns:sodipodi="http://inkscape.sourceforge.net/DTD/s odipodi-0.dtd"
   xmlns:inkscape="http://www.inkscape.org/namespaces/inkscape"
   width="48"
   height="48"
   id="svg2"
   sodipodi:version="0.32"
   inkscape:version="0.43"
   version="1.0"
   sodipodi:docbase="/home/hbons/Desktop/Gaim Refresh/protocols/48"
   sodipodi:docname="icq.svg"
   inkscape:export-filename="/home/hbons/Desktop/Gaim Refresh/protocols/48/icq.png"
   inkscape:export-xdpi="90"
   inkscape:export-ydpi="90">
  <defs
     id="defs4">
    <linearGradient
       inkscape:collect="always"
       id="linearGradient2256">
      <stop
         style="stop-color:#ffffff;stop-opacity:1;"
         offset="0"
         id="stop2258" />
      <stop
         style="stop-color:#ffffff;stop-opacity:0;"
         offset="1"
         id="stop2260" />
    </linearGradient>
    <linearGradient
       inkscape:collect="always"
       id="linearGradient2248">
      <stop
         style="stop-color:#ffffff;stop-opacity:1;"
         offset="0"
         id="stop2250" />
      <stop
         style="stop-color:#ffffff;stop-opacity:0;"
         offset="1"
         id="stop2252" />
    </linearGradient>
    <linearGradient
       inkscape:collect="always"
       id="linearGradient2240">
      <stop
         style="stop-color:#ffffff;stop-opacity:1;"
         offset="0"
         id="stop2242" />
      <stop
         style="stop-color:#ffffff;stop-opacity:0;"
         offset="1"
         id="stop2244" />
    </linearGradient>
    <linearGradient
       inkscape:collect="always"
       id="linearGradient2232">
      <stop
         style="stop-color:#ffffff;stop-opacity:1;"
         offset="0"
         id="stop2234" />
      <stop
         style="stop-color:#ffffff;stop-opacity:0;"
         offset="1"
         id="stop2236" />
    </linearGradient>
    <linearGradient
       inkscape:collect="always"
       id="linearGradient2224">
      <stop
         style="stop-color:#ffffff;stop-opacity:1;"
         offset="0"
         id="stop2226" />
      <stop
         style="stop-color:#ffffff;stop-opacity:0;"
         offset="1"
         id="stop2228" />
    </linearGradient>
    <linearGradient
       inkscape:collect="always"
       id="linearGradient2216">
      <stop
         style="stop-color:#ffffff;stop-opacity:1;"
         offset="0"
         id="stop2218" />
      <stop
         style="stop-color:#ffffff;stop-opacity:0;"
         offset="1"
         id="stop2220" />
    </linearGradient>
    <linearGradient
       inkscape:collect="always"
       id="linearGradient2208">
      <stop
         style="stop-color:#ffffff;stop-opacity:1;"
         offset="0"
         id="stop2210" />
      <stop
         style="stop-color:#ffffff;stop-opacity:0;"
         offset="1"
         id="stop2212" />
    </linearGradient>
    <linearGradient
       inkscape:collect="always"
       id="linearGradient2361">
      <stop
         style="stop-color:#ffffff;stop-opacity:1;"
         offset="0"
         id="stop2363" />
      <stop
         style="stop-color:#ffffff;stop-opacity:0;"
         offset="1"
         id="stop2365" />
    </linearGradient>
    <linearGradient
       inkscape:collect="always"
       id="linearGradient2321">
      <stop
         style="stop-color:#ffffff;stop-opacity:1;"
         offset="0"
         id="stop2323" />
      <stop
         style="stop-color:#ffffff;stop-opacity:0;"
         offset="1"
         id="stop2325" />
    </linearGradient>
    <linearGradient
       inkscape:collect="always"
       id="linearGradient3150">
      <stop
         style="stop-color:#2e3436;stop-opacity:1;"
         offset="0"
         id="stop3152" />
      <stop
         style="stop-color:#2e3436;stop-opacity:0;"
         offset="1"
         id="stop3154" />
    </linearGradient>
    <radialGradient
       inkscape:collect="always"
       xlink:href="#linearGradient3150"
       id="radialGradient3156"
       cx="10.748654"
       cy="10.457643"
       fx="10.748654"
       fy="10.457643"
       r="6.6449099"
       gradientTransform="matrix(-0.842757,5.698892e-16,-4.565819e-9,-0.35721,19.80716,14.19321)"
       gradientUnits="userSpaceOnUse" />
    <linearGradient
       inkscape:collect="always"
       xlink:href="#linearGradient2321"
       id="linearGradient2327"
       x1="11.787398"
       y1="11.115861"
       x2="12.185872"
       y2="12.839791"
       gradientUnits="userSpaceOnUse" />
    <linearGradient
       inkscape:collect="always"
       xlink:href="#linearGradient2361"
       id="linearGradient2367"
       x1="14.592834"
       y1="24.232048"
       x2="14.592834"
       y2="31.007147"
       gradientUnits="userSpaceOnUse" />
    <linearGradient
       inkscape:collect="always"
       xlink:href="#linearGradient2208"
       id="linearGradient2214"
       x1="28.089931"
       y1="3.8865747"
       x2="28.089931"
       y2="15.058928"
       gradientUnits="userSpaceOnUse" />
    <linearGradient
       inkscape:collect="always"
       xlink:href="#linearGradient2216"
       id="linearGradient2222"
       x1="36.696918"
       y1="10.99979"
       x2="36.696918"
       y2="20.717306"
       gradientUnits="userSpaceOnUse" />
    <linearGradient
       inkscape:collect="always"
       xlink:href="#linearGradient2224"
       id="linearGradient2230"
       x1="36.701996"
       y1="20.379145"
       x2="36.701996"
       y2="29.063459"
       gradientUnits="userSpaceOnUse" />
    <linearGradient
       inkscape:collect="always"
       xlink:href="#linearGradient2232"
       id="linearGradient2238"
       x1="17.892992"
       y1="6.7056818"
       x2="17.892992"
       y2="16.46983"
       gradientUnits="userSpaceOnUse" />
    <linearGradient
       inkscape:collect="always"
       xlink:href="#linearGradient2240"
       id="linearGradient2246"
       x1="12.732279"
       y1="14.645196"
       x2="12.732279"
       y2="23.238768"
       gradientUnits="userSpaceOnUse" />
    <linearGradient
       inkscape:collect="always"
       xlink:href="#linearGradient2248"
       id="linearGradient2254"
       x1="21.683891"
       y1="24.981401"
       x2="21.683891"
       y2="36.415653"
       gradientUnits="userSpaceOnUse" />
    <linearGradient
       inkscape:collect="always"
       xlink:href="#linearGradient2256"
       id="linearGradient2262"
       x1="30.265167"
       y1="27.26486"
       x2="30.265167"
       y2="35.256603"
       gradientUnits="userSpaceOnUse" />
  </defs>
  <sodipodi:namedview
     id="base"
     pagecolor="#ffffff"
     bordercolor="#666666"
     borderopacity="1.0"
     inkscape:pageopacity="0.0"
     inkscape:pageshadow="2"
     inkscape:zoom="14.778489"
     inkscape:cx="38.03465"
     inkscape:cy="24.512139"
     inkscape:document-units="px"
     inkscape:current-layer="layer1"
     showgrid="true"
     fill="#ef2929"
     inkscape:window-width="1268"
     inkscape:window-height="971"
     inkscape:window-x="6"
     inkscape:window-y="21" />
  <metadata
     id="metadata7">
    <rdf:RDF>
      <cc:Work
         rdf:about="">
        <dc:format>image/svg+xml</dc:format>
        <dc:type
           rdf:resource="http://purl.org/dc/dcmitype/StillImage" />
      </cc:Work>
    </rdf:RDF>
  </metadata>
  <g
     inkscape:label="Layer 1"
     inkscape:groupmode="layer"
     id="layer1">
    <path
       sodipodi:type="arc"
       style="opacity:0.5;fill:url(#radialGradient3156);fill-opacity:1;stroke:none;stroke-width:1;stroke-miterlimit:4;stroke-dasharray:none;stroke-opacity:1"
       id="path3140"
       sodipodi:cx="10.748654"
       sodipodi:cy="10.457643"
       sodipodi:rx="6.6449099"
       sodipodi:ry="2.3675451"
       d="M 17.393564 10.457643 A 6.6449099 2.3675451 0 1 1  4.1037445,10.457643 A 6.6449099 2.3675451 0 1 1  17.393564 10.457643 z"
       transform="matrix(3.009823,0,0,2.74546,-8.351546,7.855242)" />
    <path
       style="fill:#73d216;fill-opacity:1;stroke:#4e9a06;stroke-width:1.00000048;stroke-miterlimit:4;stroke-opacity:1"
       d="M 26.367384,35.737238 C 24.85713,31.115741 25.395878,30.363552 27.387814,29.222534 C 29.379747,28.081519 30.462949,28.167777 33.584537,31.603121 C 35.536982,34.958339 35.504926,38.607457 33.513001,39.748468 C 31.521063,40.889489 28.319827,39.092453 26.367384,35.737238 z "
       id="path2226"
       sodipodi:nodetypes="cscsc" />
    <path
       sodipodi:type="inkscape:offset"
       inkscape:radius="-0.95876986"
       inkscape:original="M 28.75 28.625 C 28.319559 28.723691 27.872983 28.933496 27.375 29.21875 C 25.383064 30.359768 24.864746 31.128501 26.375 35.75 C 28.327443 39.105215 31.508063 40.891023 33.5 39.75 C 35.491925 38.608989 35.546194 34.948968 33.59375 31.59375 C 31.252559 29.017242 30.041322 28.328926 28.75 28.625 z "
       xlink:href="#path2226"
       style="opacity:0.4;fill:url(#linearGradient2262);fill-opacity:1;stroke:#ffffff;stroke-width:1;stroke-miterlimit:4;stroke-dasharray:none;stroke-opacity:1"
       id="path2242"
       inkscape:href="#path2226"
       d="M 28.96875,26.5 C 28.686015,26.564825 28.303156,26.736844 27.84375,27 C 27.368858,27.272027 27.042376,27.491026 26.84375,27.6875 C 26.645124,27.883974 26.558141,28.035355 26.5,28.3125 C 26.386493,28.853563 26.554045,30.085975 27.25,32.25 C 28.145595,33.765674 29.317595,34.913452 30.40625,35.53125 C 31.510083,36.157661 32.416733,36.195758 33.03125,35.84375 C 33.64681,35.491146 34.046689,34.69972 34.0625,33.4375 C 34.077874,32.210233 33.659976,30.628765 32.8125,29.125 C 31.711537,27.921881 30.874722,27.139693 30.28125,26.78125 C 29.672583,26.41363 29.393014,26.402725 28.96875,26.5 z "
       inkscape:export-filename="/home/hbons/Desktop/Gaim Refresh/protocols/path2232.png"
       inkscape:export-xdpi="90"
       inkscape:export-ydpi="90" />
    <path
       style="fill:#73d216;fill-opacity:1;stroke:#4e9a06;stroke-width:0.99999982;stroke-miterlimit:4;stroke-opacity:1"
       d="M 33.709491,31.278338 C 29.169302,28.745112 29.065713,27.592023 29.859889,24.733701 C 30.654065,21.875391 31.593198,20.926512 36.586936,20.922121 C 40.576342,21.952999 43.16957,25.109445 42.375396,27.967758 C 41.581221,30.826078 37.6989,32.309217 33.709491,31.278338 z "
       id="path2216"
       sodipodi:nodetypes="cscsc" />
    <path
       sodipodi:type="inkscape:offset"
       inkscape:radius="-0.98264426"
       inkscape:original="M 36.59375 20.9375 C 31.600012 20.941891 30.669177 21.860439 29.875 24.71875 C 29.080824 27.577072 29.17856 28.748025 33.71875 31.28125 C 37.708159 32.312129 41.580824 30.82707 42.375 27.96875 C 43.169174 25.110437 40.583155 21.968378 36.59375 20.9375 z "
       xlink:href="#path2216"
       style="opacity:0.4;fill:url(#linearGradient2230);fill-opacity:1;stroke:#ffffff;stroke-width:1;stroke-miterlimit:4;stroke-dasharray:none;stroke-opacity:1"
       id="path2238"
       inkscape:href="#path2216"
       d="M 36.4375,18.8125 C 34.127551,18.828525 32.839067,19.094363 32.1875,19.5 C 31.517812,19.916918 31.190595,20.545455 30.8125,21.90625 C 30.427461,23.292046 30.362754,23.987827 30.6875,24.625 C 31.003678,25.245362 31.967431,26.095761 34.0625,27.28125 C 35.838582,27.720407 37.581667,27.600958 38.90625,27.09375 C 40.254639,26.577426 41.138951,25.730758 41.4375,24.65625 C 41.735829,23.582532 41.424738,22.405518 40.53125,21.3125 C 39.654391,20.239825 38.199379,19.288753 36.4375,18.8125 z "
       inkscape:export-filename="/home/hbons/Desktop/Gaim Refresh/protocols/path2232.png"
       inkscape:export-xdpi="90"
       inkscape:export-ydpi="90" />
    <path
       style="fill:#73d216;fill-opacity:1;stroke:#4e9a06;stroke-width:1.0000006;stroke-miterlimit:4;stroke-opacity:1"
       d="M 36.67848,22.648043 C 32.052133,24.231706 31.299156,23.66677 30.15694,21.57801 C 29.014732,19.489253 29.101081,18.3534 32.540028,15.08008 C 35.898764,13.032731 39.551708,13.066339 40.693916,15.155093 C 41.836132,17.243854 40.037215,20.600694 36.67848,22.648043 z "
       id="path2224"
       sodipodi:nodetypes="cscsc" />
    <path
       style="fill:#ef2929;fill-opacity:1;stroke:#a40000;stroke-width:1.00000167;stroke-miterlimit:4;stroke-opacity:1"
       d="M 15.680976,33.623016 C 11.05302,35.149988 10.299782,34.605272 9.1571703,32.591284 C 8.0145636,30.577295 8.100941,29.482102 11.541085,26.325956 C 14.900987,24.351896 18.555202,24.3843 19.697807,26.398287 C 20.840426,28.412273 19.040877,31.648952 15.680976,33.623016 z "
       id="path2228"
       sodipodi:nodetypes="cscsc" />
    <path
       sodipodi:type="inkscape:offset"
       inkscape:radius="-1.0000435"
       inkscape:original="M 16.4375 24.875 C 14.961133 24.861908 13.211201 25.32547 11.53125 26.3125 C 8.091106 29.468646 8.0136433 30.579759 9.15625 32.59375 C 10.298862 34.607738 11.059544 35.151972 15.6875 33.625 C 19.047401 31.650936 20.830119 28.420236 19.6875 26.40625 C 19.116197 25.399256 17.913867 24.888092 16.4375 24.875 z "
       xlink:href="#path2228"
       style="opacity:0.35;fill:url(#linearGradient2367);fill-opacity:1;stroke:#ffffff;stroke-width:1.0000006;stroke-miterlimit:4;stroke-opacity:1"
       id="path2244"
       inkscape:href="#path2228"
       d="M 16.4375,25.5625 C 15.225911,25.551756 13.660678,25.986763 12.15625,26.84375 C 10.550146,28.330129 9.7557904,29.328548 9.5625,29.90625 C 9.3649665,30.496634 9.5025865,30.849414 10.03125,31.78125 C 10.302942,32.260138 10.523169,32.613015 10.71875,32.8125 C 10.914331,33.011985 11.040068,33.097389 11.3125,33.15625 C 11.836378,33.269438 13.116625,33.081343 15.21875,32.40625 C 16.739932,31.503646 17.889523,30.32189 18.5,29.21875 C 19.115832,28.105933 19.160409,27.206976 18.8125,26.59375 C 18.466678,25.984194 17.687878,25.573588 16.4375,25.5625 z "
       inkscape:export-filename="/home/hbons/Desktop/Gaim Refresh/protocols/path2232.png"
       inkscape:export-xdpi="90"
       inkscape:export-ydpi="90"
       transform="translate(-3.261295e-4,1.945628e-4)" />
    <path
       style="fill:#73d216;fill-opacity:1;stroke:#4e9a06;stroke-width:1.00000036;stroke-miterlimit:4;stroke-opacity:1"
       d="M 15.781196,31.980797 C 18.406839,27.241987 19.600601,27.133027 22.558995,27.959412 C 25.517377,28.785792 26.498997,29.764879 26.5,34.97494 C 25.429993,39.137961 22.160569,41.845948 19.202184,41.019566 C 16.24379,40.193181 14.711189,36.143816 15.781196,31.980797 z "
       id="path2218"
       sodipodi:nodetypes="cscsc" />
    <path
       sodipodi:type="inkscape:offset"
       inkscape:radius="-1.0089091"
       inkscape:original="M 20.625 27.5625 C 18.918105 27.466646 17.750483 28.414643 15.78125 31.96875 C 14.711243 36.131769 16.229105 40.204865 19.1875 41.03125 C 22.145885 41.857632 25.429993 39.13177 26.5 34.96875 C 26.498997 29.758689 25.520883 28.79513 22.5625 27.96875 C 21.822902 27.762154 21.193965 27.594451 20.625 27.5625 z "
       xlink:href="#path2218"
       style="opacity:0.4;fill:url(#linearGradient2254);fill-opacity:1;stroke:#ffffff;stroke-width:1;stroke-miterlimit:4;stroke-dasharray:none;stroke-opacity:1"
       id="path2240"
       inkscape:href="#path2218"
       d="M 20.5625,25.5 C 19.907811,25.463235 19.561004,25.566238 18.96875,26.09375 C 18.39939,26.600871 17.659523,27.663233 16.75,29.28125 C 16.300255,31.130934 16.385773,32.955321 16.90625,34.34375 C 17.438569,35.763767 18.360161,36.690332 19.46875,37 C 20.577929,37.309833 21.771436,36.972415 22.90625,36.03125 C 24.020697,35.106976 25.004678,33.595596 25.5,31.75 C 25.485662,29.33285 25.202556,27.963789 24.78125,27.28125 C 24.348724,26.580535 23.69033,26.268606 22.28125,25.875 C 21.548137,25.670215 20.975703,25.523204 20.5625,25.5 z "
       inkscape:export-filename="/home/hbons/Desktop/Gaim Refresh/protocols/path2232.png"
       inkscape:export-xdpi="90"
       inkscape:export-ydpi="90" />
    <path
       style="fill:#73d216;fill-opacity:1;stroke:#4e9a06;stroke-width:1.0000006;stroke-miterlimit:4;stroke-opacity:1"
       d="M 22.589636,12.085809 C 24.174724,16.906782 23.609284,17.691436 21.518638,18.881701 C 19.427991,20.071964 18.291112,19.981984 15.014841,16.398361 C 12.965643,12.898328 12.999283,9.0917088 15.089923,7.9014452 C 17.180566,6.7111801 20.540438,8.5857754 22.589636,12.085809 z "
       id="path2222"
       sodipodi:nodetypes="cscsc" />
    <path
       sodipodi:type="inkscape:offset"
       inkscape:radius="-0.96927398"
       inkscape:original="M 16.84375 7.5625 C 16.202747 7.4994497 15.616411 7.6086837 15.09375 7.90625 C 13.00311 9.0965136 12.950802 12.906217 15 16.40625 C 18.276271 19.989873 19.440602 20.065263 21.53125 18.875 C 23.621896 17.684735 24.178838 16.914723 22.59375 12.09375 C 21.056852 9.4687248 18.76676 7.7516509 16.84375 7.5625 z "
       xlink:href="#path2222"
       style="opacity:0.4;fill:url(#linearGradient2238);fill-opacity:1;stroke:#ffffff;stroke-width:1;stroke-miterlimit:4;stroke-dasharray:none;stroke-opacity:1"
       id="path2232"
       inkscape:href="#path2222"
       d="M 16.75,5.46875 C 16.27484,5.4220124 15.902933,5.4936816 15.5625,5.6875 C 14.90056,6.0643619 14.484412,6.9299953 14.46875,8.25 C 14.453381,9.5453187 14.903286,11.163341 15.8125,12.75 C 17.344427,14.407623 18.369904,15.229192 19,15.4375 C 19.647022,15.651404 20.092056,15.52125 21.0625,14.96875 C 21.562192,14.684261 21.911138,14.459507 22.125,14.25 C 22.338862,14.040493 22.436992,13.887548 22.5,13.59375 C 22.621375,13.027792 22.42463,11.70151 21.71875,9.5 C 20.300551,7.1027674 18.170695,5.6084922 16.75,5.46875 z "
       inkscape:export-xdpi="90"
       inkscape:export-ydpi="90"
       transform="translate(0,6.766591e-2)" />
    <path
       style="fill:#73d216;fill-opacity:1;stroke:#4e9a06;stroke-width:1.00000072;stroke-miterlimit:4;stroke-opacity:1"
       d="M 15.110245,15.90519 C 19.82436,18.526878 19.931835,19.720374 19.106984,22.678924 C 18.282136,25.637465 17.306916,26.619664 12.121668,26.624562 C 7.9793465,25.557832 5.2869063,22.290944 6.1117518,19.332403 C 6.9366004,16.373851 10.967924,14.838461 15.110245,15.90519 z "
       id="path2220"
       sodipodi:nodetypes="cscsc" />
    <path
       sodipodi:type="inkscape:offset"
       inkscape:radius="-1.0062078"
       inkscape:original="M 12.0625 15.5625 C 9.1424837 15.682984 6.7436363 17.124836 6.125 19.34375 C 5.3001545 22.302291 7.9826786 25.558271 12.125 26.625 C 17.310248 26.620102 18.268903 25.64604 19.09375 22.6875 C 19.918601 19.72895 19.839115 18.527938 15.125 15.90625 C 14.08942 15.639568 13.035839 15.522339 12.0625 15.5625 z "
       xlink:href="#path2220"
       style="opacity:0.4;fill:url(#linearGradient2246);fill-opacity:1;stroke:#ffffff;stroke-width:1;stroke-miterlimit:4;stroke-dasharray:none;stroke-opacity:1"
       id="path2234"
       inkscape:href="#path2220"
       d="M 12.09375,13.5 C 9.4814409,13.607788 7.5619569,14.883144 7.09375,16.5625 C 6.7827532,17.677978 7.1032888,18.873814 8.03125,20 C 8.9425567,21.105974 10.44513,22.068869 12.28125,22.5625 C 14.685442,22.546282 16.040043,22.264255 16.71875,21.84375 C 17.415725,21.411927 17.731987,20.753401 18.125,19.34375 C 18.525721,17.906458 18.614647,17.219888 18.28125,16.5625 C 17.956369,15.921903 16.929755,15.04136 14.75,13.8125 C 13.845755,13.591694 12.918322,13.465977 12.09375,13.5 z "
       inkscape:export-filename="/home/hbons/Desktop/Gaim Refresh/protocols/path2232.png"
       inkscape:export-xdpi="90"
       inkscape:export-ydpi="90" />
    <path
       sodipodi:type="inkscape:offset"
       inkscape:radius="-1.0066811"
       inkscape:original="M 37.4375 13.5625 C 35.961646 13.548922 34.210618 14.070075 32.53125 15.09375 C 29.092303 18.36707 29.014042 19.473742 30.15625 21.5625 C 31.298466 23.65126 32.061155 24.239913 36.6875 22.65625 C 40.046235 20.608901 41.829716 17.245011 40.6875 15.15625 C 40.116396 14.111873 38.913354 13.576078 37.4375 13.5625 z "
       xlink:href="#path2224"
       style="opacity:0.4;fill:url(#linearGradient2222);fill-opacity:1;stroke:#ffffff;stroke-width:1;stroke-miterlimit:4;stroke-dasharray:none;stroke-opacity:1"
       id="path2236"
       inkscape:href="#path2224"
       d="M 37.4375,11.5 C 36.209007,11.488698 34.640843,11.934525 33.125,12.84375 C 31.572994,14.343465 30.790495,15.387459 30.59375,16 C 30.38941,16.636186 30.501711,17.062882 31.03125,18.03125 C 31.303727,18.529526 31.551384,18.882242 31.75,19.09375 C 31.948616,19.305258 32.078397,19.376294 32.34375,19.4375 C 32.849897,19.554247 34.121629,19.37131 36.1875,18.6875 C 37.705568,17.753005 38.884734,16.530737 39.5,15.375 C 40.120629,14.209188 40.168638,13.213767 39.8125,12.5625 C 39.457388,11.913107 38.674773,11.511383 37.4375,11.5 z "
       inkscape:export-filename="/home/hbons/Desktop/Gaim Refresh/protocols/path2232.png"
       inkscape:export-xdpi="90"
       inkscape:export-ydpi="90" />
    <path
       style="fill:#73d216;fill-opacity:1;stroke:#4e9a06;stroke-width:1.00000048;stroke-miterlimit:4;stroke-opacity:1"
       d="M 33.125387,15.014401 C 30.26869,19.896731 28.973236,20.010902 25.764644,19.165247 C 22.556047,18.319592 21.492567,17.31342 21.500039,11.950433 C 22.667874,7.6634206 26.219761,4.8704358 29.428357,5.7160909 C 32.636953,6.5617466 34.293217,10.72739 33.125387,15.014401 z "
       id="path2192"
       sodipodi:nodetypes="cscsc" />
    <path
       sodipodi:type="inkscape:offset"
       inkscape:radius="-0.99950546"
       inkscape:original="M 27 5.71875 C 24.592663 6.34847 22.375877 8.7222409 21.5 11.9375 C 21.492528 17.300487 22.541402 18.310595 25.75 19.15625 C 28.958592 20.001905 30.268305 19.88233 33.125 15 C 34.29283 10.712989 32.646097 6.5644059 29.4375 5.71875 C 28.635351 5.5073362 27.802446 5.5088433 27 5.71875 z "
       xlink:href="#path2192"
       style="opacity:0.4;fill:url(#linearGradient2214);fill-opacity:1;stroke:#ffffff;stroke-width:1;stroke-miterlimit:4;stroke-dasharray:none;stroke-opacity:1"
       id="path2230"
       inkscape:href="#path2192"
       d="M 27.25,3.625 C 25.314633,4.1312603 23.314958,6.1607857 22.5,9.03125 C 22.510826,11.522864 22.789343,12.909624 23.25,13.625 C 23.722547,14.358839 24.464582,14.720327 26,15.125 C 27.560661,15.536327 28.366368,15.654754 29.125,15.28125 C 29.867191,14.91584 30.838854,13.842149 32.1875,11.5625 C 32.678344,9.6587072 32.56307,7.7926235 32,6.375 C 31.424078,4.9250185 30.443053,3.9559128 29.1875,3.625 C 28.551361,3.4573398 27.889759,3.4576495 27.25,3.625 z "
       inkscape:export-filename="/home/hbons/Desktop/Gaim Refresh/protocols/path2232.png"
       inkscape:export-xdpi="90"
       inkscape:export-ydpi="90" />
    <path
       sodipodi:type="arc"
       style="opacity:1;fill:#edd400;fill-opacity:1;stroke:#c4a000;stroke-width:0.21428883;stroke-miterlimit:4;stroke-dasharray:none;stroke-opacity:1"
       id="path1317"
       sodipodi:cx="12.075002"
       sodipodi:cy="12.360133"
       sodipodi:rx="1.1966218"
       sodipodi:ry="1.4141895"
       d="M 13.271623 12.360133 A 1.1966218 1.4141895 0 1 1  10.87838,12.360133 A 1.1966218 1.4141895 0 1 1  13.271623 12.360133 z"
       transform="matrix(4.891864,1.290148,-1.13072,4.153499,-20.5947,-43.34178)" />
    <path
       sodipodi:type="arc"
       style="opacity:0.4;fill:url(#linearGradient2327);fill-opacity:1;stroke:#ffffff;stroke-width:0.25782824;stroke-miterlimit:4;stroke-dasharray:none;stroke-opacity:1"
       id="path2319"
       sodipodi:cx="12.075002"
       sodipodi:cy="12.360133"
       sodipodi:rx="1.1966218"
       sodipodi:ry="1.4141895"
       d="M 13.271623 12.360133 A 1.1966218 1.4141895 0 1 1  10.87838,12.360133 A 1.1966218 1.4141895 0 1 1  13.271623 12.360133 z"
       transform="matrix(4.068634,1.071527,-0.940435,3.449674,-13.02699,-32.06442)" />
  </g>
</svg>
