<?xml version="1.0" encoding="UTF-8" standalone="no"?>
<!-- Created with Inkscape (http://www.inkscape.org/) -->
<svg
   xmlns:dc="http://purl.org/dc/elements/1.1/"
   xmlns:cc="http://web.resource.org/cc/"
   xmlns:rdf="http://www.w3.org/1999/02/22-rdf-syntax-ns#"
   xmlns:svg="http://www.w3.org/2000/svg"
   xmlns="http://www.w3.org/2000/svg"
   xmlns:xlink="http://www.w3.org/1999/xlink"
   xmlns:sodipodi="http://inkscape.sourceforge.net/DTD/s odipodi-0.dtd"
   xmlns:inkscape="http://www.inkscape.org/namespaces/inkscape"
   width="48"
   height="48"
   id="svg2"
   sodipodi:version="0.32"
   inkscape:version="0.43"
   version="1.0"
   sodipodi:docbase="/home/hbons/Desktop/Gaim Refresh/protocols/48"
   sodipodi:docname="jabber.svg"
   inkscape:export-filename="/home/hbons/Desktop/Gaim Refresh/protocols/48/jabber.png"
   inkscape:export-xdpi="90"
   inkscape:export-ydpi="90">
  <defs
     id="defs4">
    <linearGradient
       inkscape:collect="always"
       id="linearGradient3150">
      <stop
         style="stop-color:#2e3436;stop-opacity:1;"
         offset="0"
         id="stop3152" />
      <stop
         style="stop-color:#2e3436;stop-opacity:0;"
         offset="1"
         id="stop3154" />
    </linearGradient>
    <radialGradient
       inkscape:collect="always"
       xlink:href="#linearGradient3150"
       id="radialGradient3156"
       cx="10.748654"
       cy="10.457643"
       fx="10.748654"
       fy="10.457643"
       r="6.6449099"
       gradientTransform="matrix(-0.842757,5.698892e-16,-4.565819e-9,-0.35721,19.80716,14.19321)"
       gradientUnits="userSpaceOnUse" />
  </defs>
  <sodipodi:namedview
     id="base"
     pagecolor="#ffffff"
     bordercolor="#666666"
     borderopacity="1.0"
     inkscape:pageopacity="0.0"
     inkscape:pageshadow="2"
     inkscape:zoom="12.865422"
     inkscape:cx="36.242166"
     inkscape:cy="27.902049"
     inkscape:document-units="px"
     inkscape:current-layer="layer1"
     showgrid="true"
     fill="#c4a000"
     inkscape:window-width="1268"
     inkscape:window-height="971"
     inkscape:window-x="6"
     inkscape:window-y="21"
     inkscape:grid-points="true" />
  <metadata
     id="metadata7">
    <rdf:RDF>
      <cc:Work
         rdf:about="">
        <dc:format>image/svg+xml</dc:format>
        <dc:type
           rdf:resource="http://purl.org/dc/dcmitype/StillImage" />
      </cc:Work>
    </rdf:RDF>
  </metadata>
  <g
     inkscape:label="Layer 1"
     inkscape:groupmode="layer"
     id="layer1">
    <path
       style="fill:#cc0000;fill-opacity:1;stroke:none;stroke-width:1;stroke-miterlimit:4;stroke-opacity:1"
       d="M 24,2 C 18.807365,2 17.026465,3.6626839 14,5.8823531 L 14,10 C 22.235294,1.764706 38,5.6470591 38,18 C 38,29.138783 28,22.470588 28,41 L 30.058824,41 C 30.058824,24.529412 40.058824,30.352941 40.058824,18 C 40.058824,6.644403 29.136057,2 24,2 z M 15.941176,29 C 15.941176,35.477242 26,34.930147 26,34.930147 L 26,33 C 26,33 18.226314,33.526266 18,29 L 15.941176,29 z M 15.941176,33 C 15.941176,39.477242 26,38.930147 26,38.930147 L 26,37 C 26,37 18.226314,37.526266 18,33 L 15.941176,33 z M 16,37 C 16,43.477242 26,43 26,43 L 26,41.069852 C 26,41.069852 18.2208,41.526266 17.994485,37 L 16,37 z "
       id="rect2274"
       sodipodi:nodetypes="cccsccszccccccccccccccc" />
    <path
       style="fill:#c4a000;fill-opacity:1;stroke:none;stroke-width:1;stroke-miterlimit:4;stroke-opacity:1"
       d="M 20.161617,18.294117 C 18.837158,18.716828 18.034649,20.073961 17.86652,21.396305 C 17.566704,23.001306 17.783598,24.637723 17.706109,26.256709 C 18.178406,26.74717 18.906162,26.541219 19.493602,26.451051 C 19.999799,26.141712 19.813017,25.486447 19.777576,25.001048 C 19.781293,23.595629 19.627838,22.133672 20.142378,20.789743 C 20.516821,20.193958 21.591212,20.507672 21.620848,21.198886 C 21.964949,22.079664 21.788518,23.037079 21.795609,23.954889 C 22.054465,24.600774 22.909129,24.65156 23.480241,24.453639 C 24.054934,24.149471 23.989051,23.404949 23.898556,22.861551 C 23.823793,22.06117 23.971192,21.179299 24.515205,20.556991 C 25.109753,20.187056 25.87691,20.844001 25.807138,21.482646 C 25.909476,22.709477 25.312784,23.836254 25.05905,25.007889 C 24.695237,26.209261 24.294611,27.39902 23.893234,28.588235 C 24.579509,28.58822 25.265783,28.588235 25.952058,28.588235 C 26.630987,26.461124 27.33857,24.343171 28,22.210481 C 27.941608,20.951149 27.597138,19.565831 26.543641,18.767013 C 25.499857,18.073316 23.950948,18.380143 23.22075,19.389278 C 22.481031,19.46105 22.235329,18.512304 21.551013,18.423396 C 21.100438,18.297181 20.627451,18.262239 20.161617,18.294117 z "
       id="rect3156" />
    <path
       sodipodi:type="arc"
       style="opacity:0.4;fill:url(#radialGradient3156);fill-opacity:1;stroke:none;stroke-width:1;stroke-miterlimit:4;stroke-dasharray:none;stroke-opacity:1"
       id="path3140"
       sodipodi:cx="10.748654"
       sodipodi:cy="10.457643"
       sodipodi:rx="6.6449099"
       sodipodi:ry="2.3675451"
       d="M 17.393564 10.457643 A 6.6449099 2.3675451 0 1 1  4.1037445,10.457643 A 6.6449099 2.3675451 0 1 1  17.393564 10.457643 z"
       transform="matrix(2.633595,0,0,1.900701,-4.8076,22.62316)" />
  </g>
</svg>
