<?xml version="1.0" encoding="UTF-8" standalone="no"?>
<!DOCTYPE svg PUBLIC "-//W3C//DTD SVG 20010904//EN"
"http://www.w3.org/TR/2001/REC-SVG-20010904/DTD/svg10.dtd">
<!-- Created with Sodipodi ("http://www.sodipodi.com/") -->
<svg
   xmlns="http://www.w3.org/2000/svg"
   xmlns:sodipodi="http://sodipodi.sourceforge.net/DTD/sodipodi-0.dtd"
   xmlns:xlink="http://www.w3.org/1999/xlink"
   id="svg602"
   sodipodi:version="0.34"
   width="600pt"
   height="600pt"
   xml:space="preserve"
   sodipodi:docname="msn.svg"><defs
   id="defs604"><linearGradient
   id="linearGradient610"><stop
   style="stop-color:#bafaff;stop-opacity:1;"
   offset="0"
   id="stop611" /><stop
   style="stop-color:#1f6d7a;stop-opacity:1;"
   offset="1"
   id="stop612" /></linearGradient><radialGradient
   xlink:href="#linearGradient610"
   id="radialGradient613"
   cx="0.23188564"
   cy="0.21093862"
   r="1.0678792"
   fx="0.23188564"
   fy="0.21093862" /><radialGradient
   xlink:href="#linearGradient610"
   id="radialGradient619"
   cx="0.34507036"
   cy="0.35937503"
   r="0.8064121"
   fx="0.34507036"
   fy="0.35937503" /><radialGradient
   xlink:href="#linearGradient610"
   id="radialGradient620"
   cx="-0.1746002"
   cy="1.56248119e-2"
   r="1.34025764"
   fx="-0.1746002"
   fy="1.56248119e-2" /><linearGradient
   xlink:href="#linearGradient610"
   id="linearGradient621"
   x1="0.42741945"
   y1="0.3671875"
   x2="0.62903237"
   y2="0.671875" /></defs><sodipodi:namedview
   id="base" /><path
   style="font-size:12;fill:url(#radialGradient620);fill-rule:evenodd;stroke:none;stroke-width:2.206821;"
   d="M 628.3572 593.587 C 637.8212 606.5863 659.3297 610.4041 671.7511 611.2572 C 706.5579 613.6131 724.829 586.9664 728.463 568.413 C 730.2665 559.4551 736.181 535.4646 723.4461 506.5224 C 710.9531 476.4522 650.0521 423.3676 617.2823 397.8497 C 587.4937 375.7815 523.4702 330.002 464.3709 305.7129 L 435.2424 319.9056 L 628.3572 593.587 z "
   id="path616"
   sodipodi:nodetypes="cssssccc" /><path
   style="font-size:12;fill:url(#linearGradient621);fill-rule:evenodd;stroke:none;stroke-width:1.25;stroke-dasharray:none;opacity:1;"
   d="M 335.5472 308.8302 C 264.4806 330.3797 187.5258 381.5645 138.9834 425.0029 C 97.82826 460.5888 62.69147 494.5501 36.44296 535.563 C 23.16032 556.317 17.69044 590.4003 26.59756 615.2708 C 35.84246 638.1089 52.58553 655.017 85.88168 658.4644 C 103.5473 660.3283 121.7659 656.0043 136.4999 643.6527 C 148.4276 635.9363 163.7873 617.3516 181.6681 595.3808 L 359.3797 322.2776 L 335.5472 308.8302 z "
   id="path617"
   sodipodi:nodetypes="csssssccc" /><path
   style="fill:url(#radialGradient613);fill-rule:evenodd;stroke:none;stroke-opacity:1;stroke-width:1pt;stroke-linejoin:miter;stroke-linecap:butt;fill-opacity:1;opacity:1;"
   d="M 178.8665 626.6381 C 180.5219 600.1512 185.6971 548.656 240.9447 454.0594 C 276.5073 391.9277 317.5093 335.2822 341.5126 318.7278 C 356.8256 262.0293 456.5656 266.1677 463.1869 316.2445 C 488.0181 333.2128 530.304 378.6359 562.5125 436.6771 C 616.0525 531.0942 629.5578 587.7352 632.0413 626.6381 C 623.7642 649.4001 521.069 698.7646 402.3499 699.8908 C 285.153 701.0146 197.9039 653.1249 178.8665 626.6381 z "
   id="path609"
   sodipodi:nodetypes="csccscsc" /><path
   sodipodi:type="arc"
   style="fill-rule:evenodd;stroke:none;fill:url(#radialGradient619);fill-opacity:1;stroke-opacity:1;stroke-width:1pt;stroke-linejoin:miter;stroke-linecap:butt;opacity:1;"
   id="path618"
   d="M 378.8918 580.6047 A 85.77409 80.70866 0 1 0 207.3436 580.6047 A 85.77409 80.70866 0 1 0  378.8918 580.6047 z"
   sodipodi:cx="293.117737"
   sodipodi:cy="580.604675"
   sodipodi:rx="85.7740936"
   sodipodi:ry="80.7086639"
   transform="matrix(1.838316,0,0,1.746014,-138.9764,-824.7607)" /><path
   style="font-size:12;fill:none;fill-rule:evenodd;stroke:#000000;stroke-width:19.52374;"
   d="M 316.9233 317.9081 C 284.3459 329.5249 191.3267 381.6501 140.2248 422.9068 C 101.5579 454.124 62.69138 491.2126 36.44298 532.2256 C 23.16032 552.9796 17.69017 587.0632 26.59756 611.9334 C 35.84248 634.7715 52.58544 651.6797 85.88156 655.1272 C 103.5473 656.991 121.7658 652.667 136.4999 640.3154 C 148.4275 632.5989 174.9614 600.3569 180.4264 592.0433 L 178.6434 625.6523 C 187.5679 642.2354 266.2461 698.7232 389.7901 698.9913 C 524.2446 699.2817 624.4286 647.9138 632.4894 626.0995 L 630.84 590.2501 C 640.3046 603.2495 659.3293 608.3089 671.7516 609.1621 C 706.5582 611.5178 724.8296 584.8713 728.4633 566.3179 C 730.2667 557.3596 736.1814 533.3696 723.4463 504.4271 C 710.9531 474.357 626.4623 402.6488 617.2828 395.7544 C 587.4003 373.813 540.8525 341.564 485.4769 314.7918 C 516.3918 295.7671 564.1457 265.1669 561.4601 185.7073 C 557.467 104.9184 491.238 45.11145 395.9233 44.87787 C 303.4872 45.85531 234.9411 105.4261 235.3777 186.8741 C 235.8066 265.7192 287.672 303.6138 316.9233 317.9081 z "
   id="path606"
   sodipodi:nodetypes="csssssccsccsssscsssc" /></svg>
