<?xml version="1.0" encoding="UTF-8" standalone="no"?>
<!-- Created with Inkscape (http://www.inkscape.org/) -->
<svg
   xmlns:dc="http://purl.org/dc/elements/1.1/"
   xmlns:cc="http://web.resource.org/cc/"
   xmlns:rdf="http://www.w3.org/1999/02/22-rdf-syntax-ns#"
   xmlns:svg="http://www.w3.org/2000/svg"
   xmlns="http://www.w3.org/2000/svg"
   xmlns:xlink="http://www.w3.org/1999/xlink"
   xmlns:sodipodi="http://inkscape.sourceforge.net/DTD/s odipodi-0.dtd"
   xmlns:inkscape="http://www.inkscape.org/namespaces/inkscape"
   width="16"
   height="16"
   id="svg2"
   sodipodi:version="0.32"
   inkscape:version="0.43"
   version="1.0"
   sodipodi:docbase="/home/hbons/Desktop/Gaim Refresh/toolbars"
   sodipodi:docname="plugins.svg"
   inkscape:export-filename="/home/hbons/Desktop/Gaim Refresh/toolbars/plugins.png"
   inkscape:export-xdpi="90"
   inkscape:export-ydpi="90">
  <defs
     id="defs4">
    <linearGradient
       inkscape:collect="always"
       id="linearGradient3162">
      <stop
         style="stop-color:#75507b;stop-opacity:1;"
         offset="0"
         id="stop3164" />
      <stop
         style="stop-color:#75507b;stop-opacity:0;"
         offset="1"
         id="stop3166" />
    </linearGradient>
    <linearGradient
       inkscape:collect="always"
       xlink:href="#linearGradient3162"
       id="linearGradient3168"
       x1="8"
       y1="10.085922"
       x2="8"
       y2="-4.356256"
       gradientUnits="userSpaceOnUse" />
  </defs>
  <sodipodi:namedview
     id="base"
     pagecolor="#ffffff"
     bordercolor="#666666"
     borderopacity="1.0"
     inkscape:pageopacity="0.0"
     inkscape:pageshadow="2"
     inkscape:zoom="51.461686"
     inkscape:cx="10.774973"
     inkscape:cy="7.1305212"
     inkscape:document-units="px"
     inkscape:current-layer="layer1"
     showgrid="true"
     showguides="true"
     inkscape:guide-bbox="true"
     fill="#75507b"
     inkscape:window-width="1268"
     inkscape:window-height="971"
     inkscape:window-x="6"
     inkscape:window-y="21" />
  <metadata
     id="metadata7">
    <rdf:RDF>
      <cc:Work
         rdf:about="">
        <dc:format>image/svg+xml</dc:format>
        <dc:type
           rdf:resource="http://purl.org/dc/dcmitype/StillImage" />
      </cc:Work>
    </rdf:RDF>
  </metadata>
  <g
     inkscape:label="Layer 1"
     inkscape:groupmode="layer"
     id="layer1">
    <path
       style="opacity:1;fill:#ffffff;fill-opacity:1;fill-rule:evenodd;stroke:none;stroke-width:0.99999934;stroke-miterlimit:4;stroke-dasharray:none;stroke-opacity:1"
       d="M 7.9910715,1.4766833 C 5.9906451,1.4766833 6.5989159,3.4804549 6.5989159,4.5580569 L 3.4999998,4.5242239 L 3.4999998,7.5494427 C 5.3502838,7.5494427 6.5,7.5050807 6.5,9.0464584 C 6.5,10.491956 5.0186253,10.512287 3.4999998,10.512287 L 3.5312498,14.499873 L 6.5,14.499873 C 6.5,13.789163 6.1591083,11.505842 8.0239235,11.505842 C 9.9126603,11.505842 9.53125,13.881548 9.53125,14.499873 L 12.5,14.499873 L 12.5,10.481098 C 11.766486,10.481098 9.5312502,10.737203 9.53125,8.9840828 C 9.53125,7.2071466 11.72913,7.518255 12.5,7.518255 L 12.5,4.5242239 L 9.5,4.5242239 C 9.5,3.4415299 10.013818,1.4766833 7.9910715,1.4766833 z "
       id="path3152"
       sodipodi:nodetypes="cccczccczccczcccz" />
    <path
       style="opacity:1;fill:url(#linearGradient3168);fill-opacity:1.0;fill-rule:evenodd;stroke:#5c3566;stroke-width:0.99999934;stroke-miterlimit:4;stroke-dasharray:none;stroke-opacity:1"
       d="M 7.9910715,1.4766833 C 6.1690798,1.4766833 6.5989159,3.0325559 6.5989159,4.5580569 L 3.4999998,4.5242239 L 3.4999998,7.5494427 C 4.9931409,7.5494427 6.5,7.3994628 6.5,9.0464584 C 6.5,10.671141 5.0186253,10.512287 3.4999998,10.512287 L 3.5312498,14.499873 L 6.5,14.499873 C 6.5,13.789163 6.1591083,11.505842 8.0239235,11.505842 C 9.9126603,11.505842 9.53125,13.881548 9.53125,14.499873 L 12.5,14.499873 L 12.5,10.481098 C 11.007391,10.481098 9.5312502,10.737203 9.53125,8.9840828 C 9.53125,7.2071466 11.059314,7.518255 12.5,7.518255 L 12.5,4.5242239 L 9.5,4.5242239 C 9.5,2.9949384 9.8352479,1.4766833 7.9910715,1.4766833 z "
       id="rect2209"
       sodipodi:nodetypes="cccczccczccczcccz" />
    <rect
       style="opacity:0.4;fill:#eeeeec;fill-opacity:1;fill-rule:evenodd;stroke:none;stroke-width:1;stroke-miterlimit:4;stroke-dasharray:none;stroke-opacity:1"
       id="rect3132"
       width="1"
       height="1.0000001"
       x="3"
       y="4" />
    <rect
       style="opacity:0.4;fill:#eeeeec;fill-opacity:1;fill-rule:evenodd;stroke:none;stroke-width:1;stroke-miterlimit:4;stroke-dasharray:none;stroke-opacity:1"
       id="rect3134"
       width="1"
       height="1.0000001"
       x="12"
       y="4" />
    <rect
       style="opacity:0.4;fill:#eeeeec;fill-opacity:1;fill-rule:evenodd;stroke:none;stroke-width:1;stroke-miterlimit:4;stroke-dasharray:none;stroke-opacity:1"
       id="rect3148"
       width="1"
       height="1.0000001"
       x="12"
       y="14" />
    <rect
       style="opacity:0.4;fill:#eeeeec;fill-opacity:1;fill-rule:evenodd;stroke:none;stroke-width:1;stroke-miterlimit:4;stroke-dasharray:none;stroke-opacity:1"
       id="rect3150"
       width="1"
       height="1.0000001"
       x="3"
       y="14" />
  </g>
</svg>
