<?xml version="1.0" encoding="UTF-8" standalone="no"?>
<!-- Created with Inkscape (http://www.inkscape.org/) -->
<svg
   xmlns:dc="http://purl.org/dc/elements/1.1/"
   xmlns:cc="http://creativecommons.org/ns#"
   xmlns:rdf="http://www.w3.org/1999/02/22-rdf-syntax-ns#"
   xmlns:svg="http://www.w3.org/2000/svg"
   xmlns="http://www.w3.org/2000/svg"
   xmlns:sodipodi="http://sodipodi.sourceforge.net/DTD/sodipodi-0.dtd"
   xmlns:inkscape="http://www.inkscape.org/namespaces/inkscape"
   width="16px"
   height="16px"
   id="svg4239"
   sodipodi:version="0.32"
   inkscape:version="0.46"
   sodipodi:docbase="/home/hbons/GUI/Tango/Gaim Refresh/protocols/16/scalable"
   sodipodi:docname="bonjour.svg"
   inkscape:export-filename="/home/hbons/GUI/Tango/Gaim Refresh/protocols/16/bonjour.png"
   inkscape:export-xdpi="90"
   inkscape:export-ydpi="90"
   inkscape:output_extension="org.inkscape.output.svg.inkscape">
  <defs
     id="defs4241" />
  <sodipodi:namedview
     id="base"
     pagecolor="#ffffff"
     bordercolor="#666666"
     borderopacity="1.0"
     inkscape:pageopacity="0.0"
     inkscape:pageshadow="2"
     inkscape:zoom="31.392433"
     inkscape:cx="14.342546"
     inkscape:cy="8.1647951"
     inkscape:current-layer="layer1"
     showgrid="true"
     inkscape:grid-bbox="true"
     inkscape:document-units="px"
     inkscape:window-width="1274"
     inkscape:window-height="972"
     inkscape:window-x="3"
     inkscape:window-y="23"
     inkscape:grid-points="true" />
  <metadata
     id="metadata4244">
    <rdf:RDF>
      <cc:Work
         rdf:about="">
        <dc:format>image/svg+xml</dc:format>
        <dc:type
           rdf:resource="http://purl.org/dc/dcmitype/StillImage" />
      </cc:Work>
    </rdf:RDF>
  </metadata>
  <g
     id="layer1"
     inkscape:label="Layer 1"
     inkscape:groupmode="layer">
    <path
       style="fill:#babdb6;fill-opacity:1;stroke:#888a85;stroke-width:1.3699801;stroke-miterlimit:4;stroke-opacity:1"
       d="M 7.7318759,2.7396133 C 12.169337,3.9286259 14.881945,7.689964 15.206587,8.9015487 C 13.983578,8.1954444 8.4371398,5.666617 8.4371398,5.666617 L 7.7318759,2.7396133 z "
       id="rect3098"
       sodipodi:nodetypes="cccc"
       transform="matrix(0.729585,0,0,0.73029,-1.094498,-0.500712)" />
    <path
       style="fill:#babdb6;fill-opacity:1;stroke:#888a85;stroke-width:1.36997974;stroke-miterlimit:4;stroke-opacity:1"
       d="M 20.999419,10.287708 C 17.750972,13.53615 13.261202,14.092622 12.049619,13.767978 C 13.272629,13.061875 18.044934,9.5274806 18.044934,9.5274806 L 20.999419,10.287708 z "
       id="path3103"
       sodipodi:nodetypes="cccc"
       transform="matrix(0.729585,0,0,0.73029,-1.820861,-0.457824)" />
    <path
       sodipodi:type="arc"
       style="fill:#f57900;fill-opacity:1;stroke:#ce5c00;stroke-width:1.58610678;stroke-miterlimit:4;stroke-dasharray:none;stroke-opacity:1"
       id="path3210"
       sodipodi:cx="5.6698728"
       sodipodi:cy="3.7607069"
       sodipodi:rx="2.7512043"
       sodipodi:ry="2.0574222"
       d="M 8.421077 3.7607069 A 2.7512043 2.0574222 0 1 1  2.9186685,3.7607069 A 2.7512043 2.0574222 0 1 1  8.421077 3.7607069 z"
       transform="matrix(0.545215,0,0,0.729067,-1.091302,1.258191)" />
    <path
       sodipodi:type="arc"
       style="fill:#f57900;fill-opacity:1;stroke:#ce5c00;stroke-width:1.61469734;stroke-miterlimit:4;stroke-dasharray:none;stroke-opacity:1"
       id="path3265"
       sodipodi:cx="5.6698728"
       sodipodi:cy="3.7607069"
       sodipodi:rx="2.7512043"
       sodipodi:ry="2.0574222"
       d="M 8.421077 3.7607069 A 2.7512043 2.0574222 0 1 1  2.9186685,3.7607069 A 2.7512043 2.0574222 0 1 1  8.421077 3.7607069 z"
       transform="matrix(0.545215,0,0,0.703477,10.9087,1.40708)" />
    <path
       sodipodi:type="arc"
       style="fill:#f57900;fill-opacity:1;stroke:#ce5c00;stroke-width:1.58610427;stroke-miterlimit:4;stroke-dasharray:none;stroke-opacity:1"
       id="path3267"
       sodipodi:cx="5.6698728"
       sodipodi:cy="3.7607069"
       sodipodi:rx="2.7512043"
       sodipodi:ry="2.0574222"
       d="M 8.421077 3.7607069 A 2.7512043 2.0574222 0 1 1  2.9186685,3.7607069 A 2.7512043 2.0574222 0 1 1  8.421077 3.7607069 z"
       transform="matrix(0.545216,0,0,0.729068,4.908695,11.25819)" />
    <path
       sodipodi:type="arc"
       style="opacity:0.35;fill:none;fill-opacity:1;stroke:white;stroke-width:4.7583127;stroke-miterlimit:4;stroke-dasharray:none;stroke-opacity:1"
       id="path3278"
       sodipodi:cx="5.6698728"
       sodipodi:cy="3.7607069"
       sodipodi:rx="2.7512043"
       sodipodi:ry="2.0574222"
       d="M 8.421077 3.7607069 A 2.7512043 2.0574222 0 1 1  2.9186685,3.7607069 A 2.7512043 2.0574222 0 1 1  8.421077 3.7607069 z"
       transform="matrix(0.181739,0,0,0.243022,0.969565,3.086064)" />
    <path
       sodipodi:type="arc"
       style="opacity:0.35;fill:none;fill-opacity:1;stroke:white;stroke-width:4.76153183;stroke-miterlimit:4;stroke-dasharray:none;stroke-opacity:1"
       id="path3280"
       sodipodi:cx="5.6698728"
       sodipodi:cy="3.7607069"
       sodipodi:rx="2.7512043"
       sodipodi:ry="2.0574222"
       d="M 8.421077 3.7607069 A 2.7512043 2.0574222 0 1 1  2.9186685,3.7607069 A 2.7512043 2.0574222 0 1 1  8.421077 3.7607069 z"
       transform="matrix(0.181493,0,0,0.243023,12.97163,3.086063)" />
    <path
       sodipodi:type="arc"
       style="opacity:0.35;fill:none;fill-opacity:1;stroke:white;stroke-width:4.66190624;stroke-miterlimit:4;stroke-dasharray:none;stroke-opacity:1"
       id="path3282"
       sodipodi:cx="5.6698728"
       sodipodi:cy="3.7607069"
       sodipodi:rx="2.7512043"
       sodipodi:ry="2.0574222"
       d="M 8.421077 3.7607069 A 2.7512043 2.0574222 0 1 1  2.9186685,3.7607069 A 2.7512043 2.0574222 0 1 1  8.421077 3.7607069 z"
       transform="matrix(0.18174,0,0,0.253177,6.96956,13.02699)" />
    <path
       style="fill:#babdb6;fill-opacity:1;stroke:#888a85;stroke-width:1.3699789;stroke-miterlimit:4;stroke-opacity:1"
       d="M 8.2402219,17.350151 C 6.3014525,13.204266 9.2816227,8.670635 10.168564,7.7836953 C 10.168563,9.1959037 10.392827,15.689612 10.392827,15.689612 L 8.2402219,17.350151 z "
       id="path3101"
       sodipodi:nodetypes="cccc"
       transform="matrix(0.729585,0,0,0.73029,-0.976045,-0.170641)" />
    <path
       style="fill:#babdb6;fill-opacity:1;stroke:#888a85;stroke-width:1.36997974;stroke-miterlimit:4;stroke-opacity:1"
       d="M 1.5549628,8.708934 C 1.5526429,11.954488 5.2899472,13.419403 6.8285827,13.419403 C 5.9865882,11.961026 4.2284181,9.3792959 4.2284181,9.3792959 L 1.5549628,8.708934 z "
       id="path3105"
       sodipodi:nodetypes="cccc"
       transform="matrix(0.729585,0,0,0.73029,-0.599774,0.150394)" />
    <path
       style="fill:#babdb6;fill-opacity:1;stroke:#888a85;stroke-width:1.36998047;stroke-miterlimit:4;stroke-opacity:1;stroke-dasharray:none"
       d="M 19.83722,1.3615728 C 16.493168,0.56581196 13.018,2.1889619 12.593131,3.5931305 C 14.361353,3.5931305 17.024138,3.7979902 17.024138,3.7979902 L 19.83722,1.3615728 z "
       id="path3107"
       sodipodi:nodetypes="cccc"
       transform="matrix(0.729585,0,0,0.73029,-0.972938,-0.340969)" />
    <path
       style="fill:#babdb6;fill-opacity:1;stroke:#888a85;stroke-width:1.36998034;stroke-miterlimit:4;stroke-opacity:1"
       d="M 16.5,20.072196 C 19.311894,18.451427 18.826975,15.382116 18.057657,14.049618 C 17.215662,15.507995 16.53488,17.120673 16.53488,17.120673 L 16.5,20.072196 z "
       id="path3109"
       sodipodi:nodetypes="cccc"
       transform="matrix(0.729585,0,0,0.73029,-0.538153,-1.158524)" />
  </g>
</svg>
