<?xml version="1.0" encoding="UTF-8" standalone="no"?>
<!-- Created with Inkscape (http://www.inkscape.org/) -->
<svg
   xmlns:dc="http://purl.org/dc/elements/1.1/"
   xmlns:cc="http://creativecommons.org/ns#"
   xmlns:rdf="http://www.w3.org/1999/02/22-rdf-syntax-ns#"
   xmlns:svg="http://www.w3.org/2000/svg"
   xmlns="http://www.w3.org/2000/svg"
   xmlns:xlink="http://www.w3.org/1999/xlink"
   xmlns:sodipodi="http://sodipodi.sourceforge.net/DTD/sodipodi-0.dtd"
   xmlns:inkscape="http://www.inkscape.org/namespaces/inkscape"
   width="16px"
   height="16px"
   id="svg4239"
   sodipodi:version="0.32"
   inkscape:version="0.46"
   sodipodi:docbase="/home/hbons/GUI/Tango/Gaim Refresh/protocols/16/scalable"
   sodipodi:docname="bonjour.svg"
   inkscape:export-filename="/home/hbons/Bureaublad/bonjour.png"
   inkscape:export-xdpi="90"
   inkscape:export-ydpi="90"
   inkscape:output_extension="org.inkscape.output.svg.inkscape">
  <defs
     id="defs4241">
    <inkscape:perspective
       sodipodi:type="inkscape:persp3d"
       inkscape:vp_x="0 : 8 : 1"
       inkscape:vp_y="0 : 1000 : 0"
       inkscape:vp_z="16 : 8 : 1"
       inkscape:persp3d-origin="8 : 5.3333333 : 1"
       id="perspective24" />
    <linearGradient
       inkscape:collect="always"
       id="linearGradient8630">
      <stop
         style="stop-color:#ce5c00;stop-opacity:1;"
         offset="0"
         id="stop8632" />
      <stop
         style="stop-color:#a24700;stop-opacity:1"
         offset="1"
         id="stop8634" />
    </linearGradient>
    <linearGradient
       inkscape:collect="always"
       xlink:href="#linearGradient8630"
       id="linearGradient8636"
       x1="5.3974791"
       y1="2.3890932"
       x2="7.286067"
       y2="5.4647174"
       gradientUnits="userSpaceOnUse" />
    <linearGradient
       inkscape:collect="always"
       xlink:href="#linearGradient8630"
       id="linearGradient8640"
       gradientUnits="userSpaceOnUse"
       x1="5.3974791"
       y1="2.3890932"
       x2="7.286067"
       y2="5.4647174" />
    <linearGradient
       inkscape:collect="always"
       xlink:href="#linearGradient8630"
       id="linearGradient8644"
       gradientUnits="userSpaceOnUse"
       x1="5.3974791"
       y1="2.3890932"
       x2="7.286067"
       y2="5.4647174" />
    <filter
       inkscape:collect="always"
       id="filter8686">
      <feGaussianBlur
         inkscape:collect="always"
         stdDeviation="0.44714331"
         id="feGaussianBlur8688" />
    </filter>
  </defs>
  <sodipodi:namedview
     id="base"
     pagecolor="#ffffff"
     bordercolor="#666666"
     borderopacity="1.0"
     inkscape:pageopacity="0.0"
     inkscape:pageshadow="2"
     inkscape:zoom="22.197802"
     inkscape:cx="19.610287"
     inkscape:cy="10.016761"
     inkscape:current-layer="layer1"
     showgrid="true"
     inkscape:grid-bbox="true"
     inkscape:document-units="px"
     inkscape:window-width="1440"
     inkscape:window-height="847"
     inkscape:window-x="0"
     inkscape:window-y="0"
     inkscape:grid-points="true"
     inkscape:snap-nodes="false"
     inkscape:snap-bbox="true"
     objecttolerance="10"
     gridtolerance="10">
    <inkscape:grid
       type="xygrid"
       id="grid7858"
       visible="true"
       enabled="true" />
  </sodipodi:namedview>
  <metadata
     id="metadata4244">
    <rdf:RDF>
      <cc:Work
         rdf:about="">
        <dc:format>image/svg+xml</dc:format>
        <dc:type
           rdf:resource="http://purl.org/dc/dcmitype/StillImage" />
      </cc:Work>
    </rdf:RDF>
  </metadata>
  <g
     id="layer1"
     inkscape:label="Layer 1"
     inkscape:groupmode="layer">
    <path
       style="opacity:1;fill:#888a85;fill-opacity:1;fill-rule:nonzero;stroke:none;stroke-width:1;stroke-linecap:square;stroke-linejoin:miter;marker:none;marker-start:none;marker-mid:none;marker-end:none;stroke-miterlimit:4;stroke-dashoffset:0;stroke-opacity:1;visibility:visible;display:inline;overflow:visible;enable-background:accumulate"
       d="M 12.25 0.8125 C 11.212904 0.82548147 9.8237981 1.3178148 8 2.75 C 13.624569 0.9376896 12.09375 3.9687501 12.09375 3.96875 C 12.730846 2.6945576 15.125 3.1250001 15.125 3.125 C 15.125 3.125 14.531611 0.78394076 12.25 0.8125 z M 5 1 C 5 1 6.2894977 2.4031671 5.96875 3.875 C 6.2142693 3.9629227 6.4825344 4.1298951 6.75 4.3125 C 6.3025525 4.8585397 4.5708564 7.0310338 3.59375 9.53125 C 1.0655137 6.5798281 2.28125 6.2187501 2.28125 6.21875 C 2.28125 6.21875 0.78185481 5.3348778 0.75 4.15625 C 0.75 4.15625 -2.0476392 7.5220008 3.5 9.78125 C 3.0973823 10.886071 2.8800606 12.018686 3.0625 13 C 3.0625 13 3.6157102 11.426301 5.03125 10.96875 C 4.9701968 10.621698 4.9938478 10.192279 5.0625 9.71875 C 5.3532166 7.7135288 6.5068895 5.1127489 6.84375 4.375 C 8.4782617 5.5373726 10.241354 7.9344916 10.75 8.65625 C 8.5490333 9.3974261 5.2127054 9.7062603 5.0625 9.71875 C 5.2473055 9.7481019 12.134313 10.824709 14.9375 8.625 C 14.9375 8.625 13.27052 8.9201184 12.15625 8 C 11.847198 8.2378763 11.367484 8.4425412 10.84375 8.625 C 10.458227 7.6220151 8.2341467 2.1234583 5 1 z M 11 10 C 10.948461 14.034482 8.8749996 13.6875 8.875 13.6875 C 8.875 13.6875 9.2741924 15.554033 8 16 C 8 16 14.4206 15.813404 11 10 z "
       id="path8669" />
    <path
       sodipodi:type="arc"
       style="fill:#ffac5b;fill-opacity:1;stroke:url(#linearGradient8636);stroke-width:1.5861057;stroke-miterlimit:4;stroke-dasharray:none;stroke-opacity:1"
       id="path3210"
       sodipodi:cx="5.6698728"
       sodipodi:cy="3.7607069"
       sodipodi:rx="2.7512043"
       sodipodi:ry="2.0574222"
       d="M 8.421077,3.7607069 A 2.7512043,2.0574222 0 1 1 2.9186685,3.7607069 A 2.7512043,2.0574222 0 1 1 8.421077,3.7607069 z"
       transform="matrix(0.5452158,0,0,0.7290669,-9.1304146e-2,0.2581915)" />
    <path
       sodipodi:type="arc"
       style="fill:#ffac5b;fill-opacity:1;stroke:url(#linearGradient8640);stroke-width:1.58610499;stroke-miterlimit:4;stroke-dasharray:none;stroke-opacity:1"
       id="path8638"
       sodipodi:cx="5.6698728"
       sodipodi:cy="3.7607069"
       sodipodi:rx="2.7512043"
       sodipodi:ry="2.0574222"
       d="M 8.421077,3.7607069 A 2.7512043,2.0574222 0 1 1 2.9186685,3.7607069 A 2.7512043,2.0574222 0 1 1 8.421077,3.7607069 z"
       transform="matrix(0.5452157,0,0,0.7290676,10.908697,3.2581906)" />
    <path
       sodipodi:type="arc"
       style="fill:#ffac5b;fill-opacity:1;stroke:url(#linearGradient8644);stroke-width:1.58610499;stroke-miterlimit:4;stroke-dasharray:none;stroke-opacity:1"
       id="path8642"
       sodipodi:cx="5.6698728"
       sodipodi:cy="3.7607069"
       sodipodi:rx="2.7512043"
       sodipodi:ry="2.0574222"
       d="M 8.421077,3.7607069 A 2.7512043,2.0574222 0 1 1 2.9186685,3.7607069 A 2.7512043,2.0574222 0 1 1 8.421077,3.7607069 z"
       transform="matrix(0.5452157,0,0,0.7290676,2.9086961,11.25819)" />
    <path
       sodipodi:type="arc"
       style="opacity:0.47685185;fill:#ffffff;fill-opacity:1;fill-rule:nonzero;stroke:none;stroke-width:1;stroke-linecap:square;stroke-linejoin:miter;marker:none;marker-start:none;marker-mid:none;marker-end:none;stroke-miterlimit:4;stroke-dasharray:none;stroke-dashoffset:0;stroke-opacity:1;visibility:visible;display:inline;overflow:visible;enable-background:accumulate"
       id="path8682"
       sodipodi:cx="2.3731835"
       sodipodi:cy="2.1909397"
       sodipodi:rx="0.90786207"
       sodipodi:ry="1.0352813"
       d="M 3.2810456,2.1909397 A 0.90786207,1.0352813 0 1 1 1.4653214,2.1909397 A 0.90786207,1.0352813 0 1 1 3.2810456,2.1909397 z"
       transform="matrix(1.1014889,0,0,0.9659211,-0.6140352,-0.1162747)" />
    <path
       sodipodi:type="arc"
       style="opacity:0.47685188;fill:#ffffff;fill-opacity:1;fill-rule:nonzero;stroke:none;stroke-width:1;stroke-linecap:square;stroke-linejoin:miter;marker:none;marker-start:none;marker-mid:none;marker-end:none;stroke-miterlimit:4;stroke-dasharray:none;stroke-dashoffset:0;stroke-opacity:1;visibility:visible;display:inline;overflow:visible;enable-background:accumulate"
       id="path8684"
       sodipodi:cx="2.3731835"
       sodipodi:cy="2.1909397"
       sodipodi:rx="0.90786207"
       sodipodi:ry="1.0352813"
       d="M 3.2810456,2.1909397 A 0.90786207,1.0352813 0 1 1 1.4653214,2.1909397 A 0.90786207,1.0352813 0 1 1 3.2810456,2.1909397 z"
       transform="matrix(1.1014889,0,0,0.9659211,10.385965,2.8837252)" />
    <path
       sodipodi:type="arc"
       style="opacity:0.47685188;fill:#ffffff;fill-opacity:1;fill-rule:nonzero;stroke:none;stroke-width:1;stroke-linecap:square;stroke-linejoin:miter;marker:none;marker-start:none;marker-mid:none;marker-end:none;stroke-miterlimit:4;stroke-dasharray:none;stroke-dashoffset:0;stroke-opacity:1;visibility:visible;display:inline;overflow:visible;enable-background:accumulate"
       id="path8686"
       sodipodi:cx="2.3731835"
       sodipodi:cy="2.1909397"
       sodipodi:rx="0.90786207"
       sodipodi:ry="1.0352813"
       d="M 3.2810456,2.1909397 A 0.90786207,1.0352813 0 1 1 1.4653214,2.1909397 A 0.90786207,1.0352813 0 1 1 3.2810456,2.1909397 z"
       transform="matrix(1.1014889,0,0,0.9659211,2.3859647,10.883725)" />
  </g>
</svg>
