<?xml version="1.0" encoding="UTF-8" standalone="no"?>
<!-- Created with Inkscape (http://www.inkscape.org/) -->
<svg
   xmlns:dc="http://purl.org/dc/elements/1.1/"
   xmlns:cc="http://creativecommons.org/ns#"
   xmlns:rdf="http://www.w3.org/1999/02/22-rdf-syntax-ns#"
   xmlns:svg="http://www.w3.org/2000/svg"
   xmlns="http://www.w3.org/2000/svg"
   xmlns:sodipodi="http://sodipodi.sourceforge.net/DTD/sodipodi-0.dtd"
   xmlns:inkscape="http://www.inkscape.org/namespaces/inkscape"
   width="16px"
   height="16px"
   id="svg4239"
   sodipodi:version="0.32"
   inkscape:version="0.46"
   sodipodi:docbase="/home/hbons/GUI/Tango/Gaim Refresh/protocols/16/scalable"
   sodipodi:docname="gadu-gadu.svg"
   inkscape:export-filename="/home/hbons/GUI/Tango/Gaim Refresh/protocols/16/jabber.png"
   inkscape:export-xdpi="90"
   inkscape:export-ydpi="90"
   inkscape:output_extension="org.inkscape.output.svg.inkscape">
  <defs
     id="defs4241" />
  <sodipodi:namedview
     id="base"
     pagecolor="#ffffff"
     bordercolor="#666666"
     borderopacity="1.0"
     inkscape:pageopacity="0.0"
     inkscape:pageshadow="2"
     inkscape:zoom="27.3287"
     inkscape:cx="16.107917"
     inkscape:cy="5.9800079"
     inkscape:current-layer="layer1"
     showgrid="true"
     inkscape:grid-bbox="true"
     inkscape:document-units="px"
     inkscape:window-width="1274"
     inkscape:window-height="972"
     inkscape:window-x="3"
     inkscape:window-y="23"
     inkscape:grid-points="true" />
  <metadata
     id="metadata4244">
    <rdf:RDF>
      <cc:Work
         rdf:about="">
        <dc:format>image/svg+xml</dc:format>
        <dc:type
           rdf:resource="http://purl.org/dc/dcmitype/StillImage" />
      </cc:Work>
    </rdf:RDF>
  </metadata>
  <g
     id="layer1"
     inkscape:label="Layer 1"
     inkscape:groupmode="layer">
    <rect
       style="fill:#c00;fill-opacity:1;stroke:none;stroke-width:1;stroke-miterlimit:4;stroke-dasharray:none;stroke-opacity:1"
       id="rect5602"
       width="2.0000005"
       height="3.000001"
       x="-0.29289341"
       y="7.3639612"
       transform="matrix(0.534613,0.535044,0.534613,-0.535044,-1.453351,16.70189)" />
    <rect
       style="fill:#c00;fill-opacity:1;stroke:none;stroke-width:1;stroke-miterlimit:4;stroke-dasharray:none;stroke-opacity:1"
       id="rect5600"
       width="2.0000005"
       height="3.000001"
       x="-0.29289341"
       y="7.3639612"
       transform="matrix(-0.534613,0.535044,-0.534613,-0.535044,16.45335,16.70189)" />
    <rect
       style="fill:#c00;fill-opacity:1;stroke:none;stroke-width:1;stroke-miterlimit:4;stroke-dasharray:none;stroke-opacity:1"
       id="rect5598"
       width="2.0000005"
       height="3.000001"
       x="-0.29289341"
       y="7.3639612"
       transform="matrix(-0.534613,-0.535044,-0.534613,0.535044,17.45335,-1.026666)" />
    <rect
       style="fill:#c00;fill-opacity:1;stroke:none;stroke-width:1;stroke-miterlimit:4;stroke-dasharray:none;stroke-opacity:1"
       id="rect2235"
       width="2.0000005"
       height="3.000001"
       x="-0.29289341"
       y="7.3639612"
       transform="matrix(0.534613,-0.535044,0.534613,0.535044,-2.453351,-1.026666)" />
    <rect
       style="fill:#db2424;fill-opacity:1;stroke:none;stroke-width:1;stroke-miterlimit:4;stroke-dasharray:none;stroke-opacity:1"
       id="rect2192"
       width="1.9907103"
       height="3"
       x="12"
       y="1"
       transform="matrix(0.502331,0,0,0.666667,0.972029,-0.666667)" />
    <rect
       style="fill:#db2424;fill-opacity:1;stroke:none;stroke-width:1;stroke-miterlimit:4;stroke-dasharray:none;stroke-opacity:1"
       id="rect2203"
       width="2"
       height="3"
       x="12"
       y="18"
       transform="matrix(0.500003,0,0,0.666664,0.999958,1.000042)" />
    <rect
       style="fill:#db2424;fill-opacity:1;stroke:none;stroke-width:1;stroke-miterlimit:4;stroke-dasharray:none;stroke-opacity:1"
       id="rect2211"
       width="2"
       height="3.4306233"
       x="-12"
       y="3"
       transform="matrix(0,-0.5,0.756056,0,-2.268168,2)" />
    <rect
       style="fill:#db2424;fill-opacity:1;stroke:none;stroke-width:1;stroke-miterlimit:4;stroke-dasharray:none;stroke-opacity:1"
       id="rect2213"
       width="2"
       height="3"
       x="-12"
       y="20"
       transform="matrix(0,-0.500003,0.666669,0,-0.333387,1.99997)" />
    <path
       sodipodi:type="arc"
       style="fill:#fce94f;fill-opacity:1;stroke:#c00;stroke-width:0.9228707;stroke-miterlimit:4;stroke-dasharray:none;stroke-opacity:1"
       id="path2217"
       sodipodi:cx="8.0702047"
       sodipodi:cy="8.0363102"
       sodipodi:rx="5.5372205"
       sodipodi:ry="5.5372205"
       d="M 13.607425 8.0363102 A 5.5372205 5.5372205 0 1 1  2.5329843,8.0363102 A 5.5372205 5.5372205 0 1 1  13.607425 8.0363102 z"
       transform="matrix(1.083576,0,0,1.083576,-1.244681,-1.207954)" />
    <path
       sodipodi:type="arc"
       style="opacity:0.7;fill:none;fill-opacity:1;stroke:#c4a000;stroke-width:1.10744393;stroke-miterlimit:4;stroke-dasharray:none;stroke-opacity:0.4848485"
       id="path2222"
       sodipodi:cx="8.0702047"
       sodipodi:cy="8.0363102"
       sodipodi:rx="5.5372205"
       sodipodi:ry="5.5372205"
       d="M 13.607425 8.0363102 A 5.5372205 5.5372205 0 1 1  2.5329843,8.0363102 A 5.5372205 5.5372205 0 1 1  13.607425 8.0363102 z"
       transform="matrix(0.90298,0,0,0.90298,0.212765,0.243372)" />
    <path
       sodipodi:type="arc"
       style="fill:#2e3436;fill-opacity:1;stroke:none;stroke-width:1;stroke-miterlimit:4;stroke-dasharray:none;stroke-opacity:1"
       id="path2243"
       sodipodi:cx="9.8489876"
       sodipodi:cy="10.583912"
       sodipodi:rx="1.2626907"
       sodipodi:ry="1.0417198"
       d="M 11.111678 10.583912 A 1.2626907 1.0417198 0 1 1  8.5862969,10.583912 A 1.2626907 1.0417198 0 1 1  11.111678 10.583912 z"
       transform="matrix(0,0.79196,-0.959949,0,16.16002,-1.799999)" />
    <path
       sodipodi:type="arc"
       style="fill:#2e3436;fill-opacity:1;stroke:none;stroke-width:1;stroke-miterlimit:4;stroke-dasharray:none;stroke-opacity:1"
       id="path2245"
       sodipodi:cx="9.8489876"
       sodipodi:cy="10.583912"
       sodipodi:rx="1.2626907"
       sodipodi:ry="1.0417198"
       d="M 11.111678 10.583912 A 1.2626907 1.0417198 0 1 1  8.5862969,10.583912 A 1.2626907 1.0417198 0 1 1  11.111678 10.583912 z"
       transform="matrix(0,-0.79196,0.959951,0,-1.160034,13.8)" />
    <rect
       style="opacity:0.7;fill:white;fill-opacity:1;stroke:none;stroke-width:1;stroke-miterlimit:4;stroke-dasharray:none;stroke-opacity:1"
       id="rect2341"
       width="1"
       height="1"
       x="3"
       y="8"
       transform="matrix(0.756056,0,0,0.756666,-2.146197,-0.634999)" />
    <path
       style="fill:#555753;fill-opacity:1;stroke:none;stroke-width:0.69848949;stroke-miterlimit:4;stroke-opacity:1"
       d="M 4,8 C 4.1024002,8.7112758 4.3693907,9.4284647 4.875,9.9375 C 5.4999891,10.566724 6.442298,11 7.5,11 C 8.5577019,11 9.4687606,10.566724 10.09375,9.9375 C 10.599359,9.4284645 10.884255,8.7112758 11,8 L 10,8 C 9.9052328,8.5521948 9.5146579,9.0766631 9.15625,9.4375 C 8.6952392,9.9016351 8.0982984,10 7.5,10 C 6.9017015,10 6.336011,9.9016353 5.875,9.4375 C 5.516592,9.0766629 5.1091274,8.5521948 5,8 L 4,8 z "
       id="path5604"
       sodipodi:nodetypes="csssccssscc" />
    <rect
       style="opacity:1;fill:black;fill-opacity:1;stroke:none;stroke-width:1;stroke-miterlimit:4;stroke-dasharray:none;stroke-opacity:1"
       id="rect5636"
       width="0"
       height="0.54582173"
       x="-5"
       y="-2" />
  </g>
</svg>
