<?xml version="1.0" encoding="UTF-8" standalone="no"?>
<!-- Created with Inkscape (http://www.inkscape.org/) -->
<svg
   xmlns:dc="http://purl.org/dc/elements/1.1/"
   xmlns:cc="http://creativecommons.org/ns#"
   xmlns:rdf="http://www.w3.org/1999/02/22-rdf-syntax-ns#"
   xmlns:svg="http://www.w3.org/2000/svg"
   xmlns="http://www.w3.org/2000/svg"
   xmlns:xlink="http://www.w3.org/1999/xlink"
   xmlns:sodipodi="http://sodipodi.sourceforge.net/DTD/sodipodi-0.dtd"
   xmlns:inkscape="http://www.inkscape.org/namespaces/inkscape"
   width="16"
   height="16"
   id="svg4345"
   sodipodi:version="0.32"
   inkscape:version="0.46"
   sodipodi:docbase="/home/hbons/Desktop"
   sodipodi:docname="irc.svg"
   inkscape:export-filename="/home/hbons/Bureaublad/irc.png"
   inkscape:export-xdpi="90"
   inkscape:export-ydpi="90"
   version="1.0"
   inkscape:output_extension="org.inkscape.output.svg.inkscape">
  <defs
     id="defs4347">
    <linearGradient
       inkscape:collect="always"
       id="linearGradient8648">
      <stop
         style="stop-color:#ffffff;stop-opacity:1;"
         offset="0"
         id="stop8650" />
      <stop
         style="stop-color:#729fcf;stop-opacity:1"
         offset="1"
         id="stop8652" />
    </linearGradient>
    <linearGradient
       inkscape:collect="always"
       id="linearGradient8632">
      <stop
         style="stop-color:#729fcf;stop-opacity:1"
         offset="0"
         id="stop8634" />
      <stop
         style="stop-color:#386ca5;stop-opacity:1"
         offset="1"
         id="stop8636" />
    </linearGradient>
    <linearGradient
       inkscape:collect="always"
       id="linearGradient5235">
      <stop
         style="stop-color:#2e3436;stop-opacity:1;"
         offset="0"
         id="stop5237" />
      <stop
         style="stop-color:#2e3436;stop-opacity:0;"
         offset="1"
         id="stop5239" />
    </linearGradient>
    <linearGradient
       inkscape:collect="always"
       id="linearGradient3816">
      <stop
         style="stop-color:#000000;stop-opacity:1;"
         offset="0"
         id="stop3818" />
      <stop
         style="stop-color:#000000;stop-opacity:0;"
         offset="1"
         id="stop3820" />
    </linearGradient>
    <radialGradient
       inkscape:collect="always"
       xlink:href="#linearGradient3816"
       id="radialGradient4179"
       gradientUnits="userSpaceOnUse"
       cx="31.112698"
       cy="19.008621"
       fx="31.112698"
       fy="19.008621"
       r="8.6620579" />
    <radialGradient
       inkscape:collect="always"
       xlink:href="#linearGradient5235"
       id="radialGradient5241"
       cx="23.234518"
       cy="40.688972"
       fx="23.234518"
       fy="40.688972"
       r="16.956987"
       gradientTransform="matrix(1,0,0,0.133183,0,35.2699)"
       gradientUnits="userSpaceOnUse" />
    <linearGradient
       inkscape:collect="always"
       xlink:href="#linearGradient8632"
       id="linearGradient8638"
       x1="12.031081"
       y1="3.9636562"
       x2="14.700418"
       y2="10.228306"
       gradientUnits="userSpaceOnUse" />
    <linearGradient
       inkscape:collect="always"
       xlink:href="#linearGradient8648"
       id="linearGradient8654"
       x1="11.198016"
       y1="1.0312058"
       x2="11.198016"
       y2="14.496081"
       gradientUnits="userSpaceOnUse" />
    <linearGradient
       inkscape:collect="always"
       xlink:href="#linearGradient8648"
       id="linearGradient8660"
       gradientUnits="userSpaceOnUse"
       x1="11.198016"
       y1="1.1643296"
       x2="11.198016"
       y2="14.496081"
       gradientTransform="matrix(-1,0,0,1,16.00001,5)" />
    <linearGradient
       inkscape:collect="always"
       xlink:href="#linearGradient8632"
       id="linearGradient8662"
       gradientUnits="userSpaceOnUse"
       x1="9.7651443"
       y1="4.0303011"
       x2="9.0022526"
       y2="9.9950476"
       gradientTransform="matrix(-1,0,0,1,16.00001,5)" />
  </defs>
  <sodipodi:namedview
     id="base"
     pagecolor="#ffffff"
     bordercolor="#666666"
     borderopacity="1.0"
     inkscape:pageopacity="0.0"
     inkscape:pageshadow="2"
     inkscape:zoom="15.004829"
     inkscape:cx="21.840023"
     inkscape:cy="16.645163"
     inkscape:current-layer="layer1"
     showgrid="true"
     inkscape:grid-bbox="true"
     inkscape:document-units="px"
     inkscape:window-width="1440"
     inkscape:window-height="847"
     inkscape:window-x="0"
     inkscape:window-y="0"
     width="16px"
     height="16px"
     inkscape:snap-bbox="true"
     inkscape:snap-nodes="false"
     objecttolerance="10"
     gridtolerance="10"
     showguides="true"
     inkscape:guide-bbox="true">
    <inkscape:grid
       type="xygrid"
       id="grid7860"
       visible="true"
       enabled="true" />
  </sodipodi:namedview>
  <metadata
     id="metadata4350">
    <rdf:RDF>
      <cc:Work
         rdf:about="">
        <dc:format>image/svg+xml</dc:format>
        <dc:type
           rdf:resource="http://purl.org/dc/dcmitype/StillImage" />
      </cc:Work>
    </rdf:RDF>
  </metadata>
  <g
     id="layer1"
     inkscape:label="Layer 1"
     inkscape:groupmode="layer">
    <path
       style="opacity:0.66000000000000003;fill:url(#linearGradient8654);fill-opacity:1;stroke:url(#linearGradient8638);stroke-width:0.99999928000000005;stroke-miterlimit:4;stroke-dasharray:none;stroke-opacity:1"
       d="M 14.875001,0.49999963 C 15.217688,0.49999963 15.5,0.74481173 15.5,1.049489 L 15.5,3.7114598 L 15.5,4.7860168 L 15.5,7.9687565 C 15.5,8.2734337 15.217688,8.5182463 14.875001,8.5182459 L 13.523824,8.5182459 C 13.523824,8.5182459 13.500261,10.537057 13.500261,10.537057 C 12.189929,10.537057 10.901093,8.5069021 10.901093,8.5069021 L 6.1250097,8.5182459 C 5.7823233,8.5182459 5.5000104,8.2734333 5.5000104,7.9687565 L 5.5000104,4.7860168 L 5.5000104,3.7114598 L 5.5000104,1.049489 C 5.5000104,0.74481189 5.7823228,0.49999967 6.1250097,0.49999963 L 8.8380752,0.49999963 L 12.375003,0.49999963 L 14.875001,0.49999963 z"
       id="path5540"
       sodipodi:nodetypes="cccccccccccccccccc" />
    <path
       style="fill:none;fill-opacity:1;stroke:#ffffff;stroke-width:0.99999892999999995;stroke-miterlimit:4;stroke-opacity:1;opacity:0.66"
       d="M 14.326096,1.4999995 C 14.416734,1.4999995 14.500009,1.5636953 14.500009,1.6546223 L 14.500009,3.9018072 L 14.500009,4.8089277 L 14.500009,7.35505 C 14.500009,7.4459764 14.416733,7.5096728 14.326096,7.5096728 L 12.610239,7.5206242 C 12.405479,7.52273 12.449632,8.6309999 12.449632,8.6309999 L 11.44851,7.4434005 L 6.6739127,7.5096728 C 6.5832743,7.5096728 6.4999995,7.4459761 6.4999995,7.35505 L 6.4999995,4.8089277 L 6.4999995,3.9018072 L 6.4999995,1.6546223 C 6.4999995,1.5636954 6.5832739,1.4999995 6.6739127,1.4999995 L 9.0465863,1.4999995 L 12.139758,1.4999995 L 14.326096,1.4999995 z"
       id="path5542"
       sodipodi:nodetypes="cccccccccccccccccc" />
    <path
       sodipodi:type="arc"
       style="opacity:0.52838428;fill:url(#radialGradient5241);fill-opacity:1;stroke:none;stroke-width:1;stroke-miterlimit:4;stroke-dasharray:none;stroke-opacity:1"
       id="path4340"
       sodipodi:cx="23.234518"
       sodipodi:cy="40.688972"
       sodipodi:rx="16.956987"
       sodipodi:ry="2.2583797"
       d="M 40.191505 40.688972 A 16.956987 2.2583797 0 1 1  6.2775307,40.688972 A 16.956987 2.2583797 0 1 1  40.191505 40.688972 z"
       transform="matrix(1.208941,0,0,1.980928,-1.589159,5.924394)" />
    <path
       transform="matrix(2.539812,0,0,0.410815,-57.0204,65.80212)"
       sodipodi:type="arc"
       style="opacity:1;color:black;fill:url(#radialGradient4179);fill-opacity:1;fill-rule:evenodd;stroke:none;stroke-width:1px;stroke-linecap:round;stroke-linejoin:round;marker:none;marker-start:none;marker-mid:none;marker-end:none;stroke-miterlimit:4;stroke-dasharray:none;stroke-dashoffset:0;stroke-opacity:1;visibility:visible;display:inline;overflow:visible"
       id="path4306"
       sodipodi:cx="31.112698"
       sodipodi:cy="19.008621"
       sodipodi:rx="8.6620579"
       sodipodi:ry="8.6620579"
       d="M 39.774755 19.008621 A 8.6620579 8.6620579 0 1 1  22.45064,19.008621 A 8.6620579 8.6620579 0 1 1  39.774755 19.008621 z" />
    <path
       style="opacity:1;fill:url(#linearGradient8660);fill-opacity:1;stroke:url(#linearGradient8662);stroke-width:0.99999928000000005;stroke-miterlimit:4;stroke-dasharray:none;stroke-opacity:1"
       d="M 1.125011,5.4999996 C 0.78232384,5.4999996 0.50001184,5.7448117 0.50001184,6.049489 L 0.50001184,8.7114598 L 0.50001184,9.7860168 L 0.50001184,12.968757 C 0.50001184,13.273434 0.78232384,13.518247 1.125011,13.518246 L 2.476188,13.518246 C 2.476188,13.518246 2.499751,15.631308 2.499751,15.631308 C 3.810083,15.631308 5.0989186,13.506902 5.0989186,13.506902 L 9.8750026,13.518246 C 10.217687,13.518246 10.5,13.273434 10.5,12.968757 L 10.5,9.7860168 L 10.5,8.7114598 L 10.5,6.049489 C 10.5,5.7448118 10.217688,5.4999996 9.8750026,5.4999996 L 7.1619366,5.4999996 L 3.625009,5.4999996 L 1.125011,5.4999996 z"
       id="path8656"
       sodipodi:nodetypes="cccccccccccccccccc" />
    <path
       style="opacity:0.375;fill:none;fill-opacity:1;stroke:#ffffff;stroke-width:0.99999893;stroke-miterlimit:4;stroke-opacity:1"
       d="M 1.673916,6.4999995 C 1.583278,6.4999995 1.500003,6.5636953 1.500003,6.6546223 L 1.500003,8.9018072 L 1.500003,9.8089277 L 1.500003,12.35505 C 1.500003,12.445977 1.583279,12.509673 1.673916,12.509673 L 3.389773,12.520625 C 3.594533,12.52273 3.5714046,13.578902 3.5032546,14.008003 L 4.551502,12.443401 L 9.3260996,12.509673 C 9.4167376,12.509673 9.5000126,12.445976 9.5000126,12.35505 L 9.5000126,9.8089277 L 9.5000126,8.9018072 L 9.5000126,6.6546223 C 9.5000126,6.5636954 9.4167376,6.4999995 9.3260996,6.4999995 L 6.9534256,6.4999995 L 3.860254,6.4999995 L 1.673916,6.4999995 z"
       id="path8658"
       sodipodi:nodetypes="cccccccccccccccccc" />
  </g>
</svg>
