<?xml version="1.0" encoding="UTF-8" standalone="no"?>
<!-- Created with Inkscape (http://www.inkscape.org/) -->
<svg
   xmlns:dc="http://purl.org/dc/elements/1.1/"
   xmlns:cc="http://creativecommons.org/ns#"
   xmlns:rdf="http://www.w3.org/1999/02/22-rdf-syntax-ns#"
   xmlns:svg="http://www.w3.org/2000/svg"
   xmlns="http://www.w3.org/2000/svg"
   xmlns:xlink="http://www.w3.org/1999/xlink"
   xmlns:sodipodi="http://sodipodi.sourceforge.net/DTD/sodipodi-0.dtd"
   xmlns:inkscape="http://www.inkscape.org/namespaces/inkscape"
   width="16"
   height="16"
   id="svg4345"
   sodipodi:version="0.32"
   inkscape:version="0.46"
   sodipodi:docbase="/home/hbons/Desktop"
   sodipodi:docname="irc.svg"
   inkscape:export-filename="/home/hbons/Desktop/pidgin.png"
   inkscape:export-xdpi="90"
   inkscape:export-ydpi="90"
   version="1.0"
   inkscape:output_extension="org.inkscape.output.svg.inkscape">
  <defs
     id="defs4347">
    <linearGradient
       inkscape:collect="always"
       id="linearGradient5235">
      <stop
         style="stop-color:#2e3436;stop-opacity:1;"
         offset="0"
         id="stop5237" />
      <stop
         style="stop-color:#2e3436;stop-opacity:0;"
         offset="1"
         id="stop5239" />
    </linearGradient>
    <linearGradient
       inkscape:collect="always"
       id="linearGradient3816">
      <stop
         style="stop-color:#000000;stop-opacity:1;"
         offset="0"
         id="stop3818" />
      <stop
         style="stop-color:#000000;stop-opacity:0;"
         offset="1"
         id="stop3820" />
    </linearGradient>
    <radialGradient
       inkscape:collect="always"
       xlink:href="#linearGradient3816"
       id="radialGradient4179"
       gradientUnits="userSpaceOnUse"
       cx="31.112698"
       cy="19.008621"
       fx="31.112698"
       fy="19.008621"
       r="8.6620579" />
    <radialGradient
       inkscape:collect="always"
       xlink:href="#linearGradient5235"
       id="radialGradient5241"
       cx="23.234518"
       cy="40.688972"
       fx="23.234518"
       fy="40.688972"
       r="16.956987"
       gradientTransform="matrix(1,0,0,0.133183,0,35.2699)"
       gradientUnits="userSpaceOnUse" />
  </defs>
  <sodipodi:namedview
     id="base"
     pagecolor="#ffffff"
     bordercolor="#666666"
     borderopacity="1.0"
     inkscape:pageopacity="0.0"
     inkscape:pageshadow="2"
     inkscape:zoom="42.440064"
     inkscape:cx="12.433319"
     inkscape:cy="6.6578459"
     inkscape:current-layer="layer1"
     showgrid="true"
     inkscape:grid-bbox="true"
     inkscape:document-units="px"
     inkscape:window-width="1274"
     inkscape:window-height="966"
     inkscape:window-x="3"
     inkscape:window-y="25"
     width="16px"
     height="16px" />
  <metadata
     id="metadata4350">
    <rdf:RDF>
      <cc:Work
         rdf:about="">
        <dc:format>image/svg+xml</dc:format>
        <dc:type
           rdf:resource="http://purl.org/dc/dcmitype/StillImage" />
      </cc:Work>
    </rdf:RDF>
  </metadata>
  <g
     id="layer1"
     inkscape:label="Layer 1"
     inkscape:groupmode="layer">
    <path
       style="opacity:1;fill:#efefef;fill-opacity:1;stroke:#787878;stroke-width:2.37280941;stroke-miterlimit:4;stroke-dasharray:none;stroke-opacity:1"
       d="M 2.875,7.5 C 2.1210885,7.5 1.5,8.1265217 1.5,8.90625 L 1.5,15.71875 L 1.5,18.46875 L 1.5,26.613999 C 1.5,27.393727 2.1210885,28.02025 2.875,28.020249 L 5.8475934,28.020249 L 5.8475934,32.22122 L 11.690916,27.991218 L 22.125,28.020249 C 22.878911,28.020249 23.5,27.393726 23.5,26.613999 L 23.5,18.46875 L 23.5,15.71875 L 23.5,8.90625 C 23.5,8.1265221 22.878912,7.5000001 22.125,7.5 L 16.15625,7.5 L 8.375,7.5 L 2.875,7.5 z "
       id="path5540"
       transform="matrix(-0.454545,0,0,0.390748,16.18182,-2.43061)"
       sodipodi:nodetypes="cccccccccccccccccc" />
    <path
       transform="matrix(-0.397516,0,0,0.329862,15.46895,-1.283212)"
       style="fill:none;fill-opacity:1;stroke:white;stroke-width:2.76157022;stroke-miterlimit:4;stroke-opacity:1"
       d="M 2.875,8.4375 C 2.6469872,8.4375 2.4375,8.6305983 2.4375,8.90625 L 2.4375,15.71875 L 2.4375,18.46875 L 2.4375,26.1875 C 2.4375,26.46315 2.6469898,26.65625 2.875,26.65625 L 7.1914464,26.68945 C 7.7065457,26.695834 7.4705404,28.897647 7.4769247,29.412746 L 11.299413,26.8125 L 22.125,26.65625 C 22.353012,26.65625 22.5625,26.463149 22.5625,26.1875 L 22.5625,18.46875 L 22.5625,15.71875 L 22.5625,8.90625 C 22.5625,8.6305986 22.353013,8.4375 22.125,8.4375 L 16.15625,8.4375 L 8.375,8.4375 L 2.875,8.4375 z "
       id="path5542"
       sodipodi:nodetypes="cccccccccccccccccc" />
    <path
       sodipodi:type="arc"
       style="opacity:0.52838428;fill:url(#radialGradient5241);fill-opacity:1;stroke:none;stroke-width:1;stroke-miterlimit:4;stroke-dasharray:none;stroke-opacity:1"
       id="path4340"
       sodipodi:cx="23.234518"
       sodipodi:cy="40.688972"
       sodipodi:rx="16.956987"
       sodipodi:ry="2.2583797"
       d="M 40.191505 40.688972 A 16.956987 2.2583797 0 1 1  6.2775307,40.688972 A 16.956987 2.2583797 0 1 1  40.191505 40.688972 z"
       transform="matrix(1.208941,0,0,1.980928,-1.589159,5.924394)" />
    <path
       transform="matrix(2.539812,0,0,0.410815,-57.0204,65.80212)"
       sodipodi:type="arc"
       style="opacity:1;color:black;fill:url(#radialGradient4179);fill-opacity:1;fill-rule:evenodd;stroke:none;stroke-width:1px;stroke-linecap:round;stroke-linejoin:round;marker:none;marker-start:none;marker-mid:none;marker-end:none;stroke-miterlimit:4;stroke-dasharray:none;stroke-dashoffset:0;stroke-opacity:1;visibility:visible;display:inline;overflow:visible"
       id="path4306"
       sodipodi:cx="31.112698"
       sodipodi:cy="19.008621"
       sodipodi:rx="8.6620579"
       sodipodi:ry="8.6620579"
       d="M 39.774755 19.008621 A 8.6620579 8.6620579 0 1 1  22.45064,19.008621 A 8.6620579 8.6620579 0 1 1  39.774755 19.008621 z" />
    <path
       style="opacity:1;fill:#efefef;fill-opacity:1;stroke:#787878;stroke-width:2.37280941;stroke-miterlimit:4;stroke-dasharray:none;stroke-opacity:1"
       d="M 2.875,7.5 C 2.1210885,7.5 1.5,8.1265217 1.5,8.90625 L 1.5,15.71875 L 1.5,18.46875 L 1.5,26.613999 C 1.5,27.393727 2.1210885,28.02025 2.875,28.020249 L 5.8475934,28.020249 L 5.8475934,32.22122 L 11.690916,27.991218 L 22.125,28.020249 C 22.878911,28.020249 23.5,27.393726 23.5,26.613999 L 23.5,18.46875 L 23.5,15.71875 L 23.5,8.90625 C 23.5,8.1265221 22.878912,7.5000001 22.125,7.5 L 16.15625,7.5 L 8.375,7.5 L 2.875,7.5 z "
       id="path5534"
       transform="matrix(0.454545,0,0,0.390748,-0.181807,2.56939)"
       sodipodi:nodetypes="cccccccccccccccccc" />
    <path
       transform="matrix(0.397516,0,0,0.329862,0.531062,3.716788)"
       style="fill:none;fill-opacity:1;stroke:white;stroke-width:2.76157022;stroke-miterlimit:4;stroke-opacity:1"
       d="M 2.875,8.4375 C 2.6469872,8.4375 2.4375,8.6305983 2.4375,8.90625 L 2.4375,15.71875 L 2.4375,18.46875 L 2.4375,26.1875 C 2.4375,26.46315 2.6469898,26.65625 2.875,26.65625 L 7.1914464,26.68945 C 7.7065457,26.695834 7.4705404,28.897647 7.4769247,29.412746 L 11.299413,26.8125 L 22.125,26.65625 C 22.353012,26.65625 22.5625,26.463149 22.5625,26.1875 L 22.5625,18.46875 L 22.5625,15.71875 L 22.5625,8.90625 C 22.5625,8.6305986 22.353013,8.4375 22.125,8.4375 L 16.15625,8.4375 L 8.375,8.4375 L 2.875,8.4375 z "
       id="path5536"
       sodipodi:nodetypes="cccccccccccccccccc" />
  </g>
</svg>
