<?xml version="1.0" encoding="UTF-8" standalone="no"?>
<!-- Created with Inkscape (http://www.inkscape.org/) -->
<svg
   xmlns:dc="http://purl.org/dc/elements/1.1/"
   xmlns:cc="http://web.resource.org/cc/"
   xmlns:rdf="http://www.w3.org/1999/02/22-rdf-syntax-ns#"
   xmlns:svg="http://www.w3.org/2000/svg"
   xmlns="http://www.w3.org/2000/svg"
   xmlns:xlink="http://www.w3.org/1999/xlink"
   xmlns:sodipodi="http://sodipodi.sourceforge.net/DTD/sodipodi-0.dtd"
   xmlns:inkscape="http://www.inkscape.org/namespaces/inkscape"
   width="16px"
   height="16px"
   id="svg4239"
   sodipodi:version="0.32"
   inkscape:version="0.44.1"
   sodipodi:docbase="/home/hbons/GUI/Tango/Gaim Refresh/protocols/16/scalable"
   sodipodi:docname="jabber.svg"
   inkscape:export-filename="/home/hbons/GUI/Tango/Gaim Refresh/protocols/16/jabber.png"
   inkscape:export-xdpi="90"
   inkscape:export-ydpi="90">
  <defs
     id="defs4241">
    <linearGradient
       id="linearGradient2228"
       inkscape:collect="always">
      <stop
         id="stop2230"
         offset="0"
         style="stop-color:#f56600;stop-opacity:1;" />
      <stop
         id="stop2232"
         offset="1"
         style="stop-color:#f56600;stop-opacity:0;" />
    </linearGradient>
    <linearGradient
       gradientUnits="userSpaceOnUse"
       y2="17.595036"
       x2="13.090998"
       y1="0.78084093"
       x1="13.090998"
       id="linearGradient4544"
       xlink:href="#linearGradient2222"
       inkscape:collect="always" />
    <radialGradient
       gradientUnits="userSpaceOnUse"
       gradientTransform="matrix(-0.842757,0,0,-0.35721,19.80716,14.19321)"
       r="6.6449099"
       fy="10.457643"
       fx="10.748654"
       cy="10.457643"
       cx="10.748654"
       id="radialGradient3156"
       xlink:href="#linearGradient3150"
       inkscape:collect="always" />
    <linearGradient
       id="linearGradient3150"
       inkscape:collect="always">
      <stop
         id="stop3152"
         offset="0"
         style="stop-color:#2e3436;stop-opacity:1;" />
      <stop
         id="stop3154"
         offset="1"
         style="stop-color:#2e3436;stop-opacity:0;" />
    </linearGradient>
    <linearGradient
       id="linearGradient2222"
       inkscape:collect="always">
      <stop
         id="stop2224"
         offset="0"
         style="stop-color:#ffffff;stop-opacity:1;" />
      <stop
         id="stop2226"
         offset="1"
         style="stop-color:#ffffff;stop-opacity:0;" />
    </linearGradient>
    <linearGradient
       id="linearGradient2230"
       inkscape:collect="always">
      <stop
         id="stop4533"
         offset="0"
         style="stop-color:#ffffff;stop-opacity:1;" />
      <stop
         id="stop2234"
         offset="1"
         style="stop-color:#ffffff;stop-opacity:0;" />
    </linearGradient>
    <linearGradient
       inkscape:collect="always"
       xlink:href="#linearGradient2230"
       id="linearGradient4573"
       gradientUnits="userSpaceOnUse"
       x1="10.063863"
       y1="-0.14116688"
       x2="10.063863"
       y2="7.1152339" />
    <linearGradient
       inkscape:collect="always"
       xlink:href="#linearGradient2228"
       id="linearGradient4575"
       gradientUnits="userSpaceOnUse"
       gradientTransform="scale(1.031957,0.969033)"
       x1="2.9373798"
       y1="13.076829"
       x2="20.319405"
       y2="13.076829" />
    <radialGradient
       gradientUnits="userSpaceOnUse"
       gradientTransform="matrix(-0.842757,5.698892e-16,-4.565819e-9,-0.35721,19.80716,14.19321)"
       r="6.6449099"
       fy="10.457643"
       fx="10.748654"
       cy="10.457643"
       cx="10.748654"
       id="radialGradient5480"
       xlink:href="#linearGradient3150"
       inkscape:collect="always" />
    <radialGradient
       inkscape:collect="always"
       xlink:href="#linearGradient3150"
       id="radialGradient5491"
       gradientUnits="userSpaceOnUse"
       gradientTransform="matrix(-0.842757,0,0,-0.35721,19.80716,14.19321)"
       cx="10.748654"
       cy="10.457643"
       fx="10.748654"
       fy="10.457643"
       r="6.6449099" />
  </defs>
  <sodipodi:namedview
     id="base"
     pagecolor="#ffffff"
     bordercolor="#666666"
     borderopacity="1.0"
     inkscape:pageopacity="0.0"
     inkscape:pageshadow="2"
     inkscape:zoom="44.395604"
     inkscape:cx="10.948505"
     inkscape:cy="7.7364031"
     inkscape:current-layer="layer1"
     showgrid="true"
     inkscape:grid-bbox="true"
     inkscape:document-units="px"
     inkscape:window-width="1274"
     inkscape:window-height="972"
     inkscape:window-x="3"
     inkscape:window-y="23"
     inkscape:grid-points="true" />
  <metadata
     id="metadata4244">
    <rdf:RDF>
      <cc:Work
         rdf:about="">
        <dc:format>image/svg+xml</dc:format>
        <dc:type
           rdf:resource="http://purl.org/dc/dcmitype/StillImage" />
      </cc:Work>
    </rdf:RDF>
  </metadata>
  <g
     id="layer1"
     inkscape:label="Layer 1"
     inkscape:groupmode="layer">
    <path
       style="fill:#c00;fill-opacity:1;stroke:none;stroke-width:1;stroke-miterlimit:4;stroke-opacity:1"
       d="M 12,1 C 9.4778629,1 8.4418468,1.1716344 6.9718495,2.2497594 L 6.9718495,4.7492783 C 10.971849,0.74927826 18.750242,2.4985565 18.750241,8.4985565 C 18.750241,12.247835 13.751203,9.4966319 13.751203,18.496632 L 15.000962,18.496632 C 15.000962,10.496632 20,13.497594 20,8.4985565 C 20,2.9829807 14.494656,1 12,1 z M 7.5024063,13.497595 C 7.5024063,16.643684 12.501443,15.997113 12.501443,15.997113 L 12.501443,14.747354 C 12.501443,14.747354 8.7521657,15.358261 8.7521657,13.497595 L 7.5024063,13.497595 z "
       id="rect2274"
       sodipodi:nodetypes="cccsccszccccc"
       transform="matrix(0.800154,0,0,0.800154,-3.00308,-0.800154)" />
    <path
       style="fill:#c4a000;fill-opacity:1;stroke:none;stroke-width:1;stroke-miterlimit:4;stroke-opacity:1"
       d="M 10.245437,9.0009623 C 9.8446207,9.1304698 9.4469824,9.4315911 9.2910643,9.8252597 C 8.9015914,10.630275 9.0119643,11.546096 9,12.410727 C 9,12.607151 8.9956771,12.553817 8.9956771,12.750241 C 9.3290104,12.750241 9.9121032,12.750241 10.245437,12.750241 C 10.269943,11.947821 9.9451522,11.388849 10.051385,10.591009 C 10.099544,10.33424 10.295871,9.9149161 10.617745,10.051197 C 10.909947,10.219323 10.960351,10.594232 10.995034,10.898787 C 11.020383,11.243843 10.982638,11.58962 10.999054,11.934891 C 11.279504,12.093685 11.603216,11.943822 11.901485,12.002777 C 12.142024,11.75941 11.931494,11.395495 11.996911,11.098317 C 12.00242,10.729241 12.055537,10.314276 12.34596,10.053499 C 12.657741,9.9025341 12.879524,10.27981 12.942417,10.535993 C 13.058497,10.893135 12.269117,13.199046 12,14 C 12.333333,14 12.666667,14 13,14 C 13.329773,12.966834 13.673449,11.2866 13.994715,10.250722 C 13.949129,9.6432787 13.81357,9.604151 13.288033,9.225105 C 12.778167,8.8886263 12.031835,9.0485888 11.673365,9.5319351 C 11.368765,9.6559892 11.274467,9.1769481 11.001141,9.1256287 C 10.746476,9.0155125 10.521652,8.9697111 10.245437,9.0009623 z "
       id="rect3156"
       sodipodi:nodetypes="ccsccccsccccsccccccc"
       transform="matrix(0.800154,0,0,0.800154,-3.197927,-1.202156)" />
    <path
       style="fill:#c00;fill-opacity:1;stroke:none;stroke-width:1;stroke-miterlimit:4;stroke-opacity:1"
       d="M 3,11 C 3,13.517356 7,13 7,13 L 7,12 C 7.0000001,12 4,12.488819 4,11 L 3,11 z "
       id="path5501"
       transform="translate(0,1)" />
    <path
       style="fill:#c00;fill-opacity:1;stroke:none;stroke-width:1;stroke-miterlimit:4;stroke-opacity:1"
       d="M 3,11 C 3,13.517356 7,13 7,13 L 7,12 C 7.0000001,12 4,12.488819 4,11 L 3,11 z "
       id="path5503"
       transform="translate(0,3)" />
  </g>
</svg>
