<?xml version="1.0" encoding="UTF-8" standalone="no"?>
<!-- Created with Inkscape (http://www.inkscape.org/) -->
<svg
   xmlns:dc="http://purl.org/dc/elements/1.1/"
   xmlns:cc="http://creativecommons.org/ns#"
   xmlns:rdf="http://www.w3.org/1999/02/22-rdf-syntax-ns#"
   xmlns:svg="http://www.w3.org/2000/svg"
   xmlns="http://www.w3.org/2000/svg"
   xmlns:xlink="http://www.w3.org/1999/xlink"
   xmlns:sodipodi="http://sodipodi.sourceforge.net/DTD/sodipodi-0.dtd"
   xmlns:inkscape="http://www.inkscape.org/namespaces/inkscape"
   width="16px"
   height="16px"
   id="svg4239"
   sodipodi:version="0.32"
   inkscape:version="0.46"
   sodipodi:docbase="/home/hbons/GUI/Tango/Gaim Refresh/protocols/16/scalable"
   sodipodi:docname="meanwhile.svg"
   inkscape:export-filename="/home/hbons/GUI/Tango/Gaim Refresh/protocols/16/msn.png"
   inkscape:export-xdpi="90"
   inkscape:export-ydpi="90"
   inkscape:output_extension="org.inkscape.output.svg.inkscape">
  <defs
     id="defs4241">
    <linearGradient
       id="linearGradient2228"
       inkscape:collect="always">
      <stop
         id="stop2230"
         offset="0"
         style="stop-color:#f56600;stop-opacity:1;" />
      <stop
         id="stop2232"
         offset="1"
         style="stop-color:#f56600;stop-opacity:0;" />
    </linearGradient>
    <linearGradient
       id="linearGradient2230"
       inkscape:collect="always">
      <stop
         id="stop4533"
         offset="0"
         style="stop-color:#ffffff;stop-opacity:1;" />
      <stop
         id="stop2234"
         offset="1"
         style="stop-color:#ffffff;stop-opacity:0;" />
    </linearGradient>
    <linearGradient
       inkscape:collect="always"
       xlink:href="#linearGradient2230"
       id="linearGradient4573"
       gradientUnits="userSpaceOnUse"
       x1="10.063863"
       y1="-0.14116688"
       x2="10.063863"
       y2="7.1152339" />
    <linearGradient
       inkscape:collect="always"
       xlink:href="#linearGradient2228"
       id="linearGradient4575"
       gradientUnits="userSpaceOnUse"
       gradientTransform="scale(1.031957,0.969033)"
       x1="2.9373798"
       y1="13.076829"
       x2="20.319405"
       y2="13.076829" />
  </defs>
  <sodipodi:namedview
     id="base"
     pagecolor="#ffffff"
     bordercolor="#666666"
     borderopacity="1.0"
     inkscape:pageopacity="0.0"
     inkscape:pageshadow="2"
     inkscape:zoom="27.3287"
     inkscape:cx="11.439423"
     inkscape:cy="11.021722"
     inkscape:current-layer="layer1"
     showgrid="true"
     inkscape:grid-bbox="true"
     inkscape:document-units="px"
     inkscape:window-width="1274"
     inkscape:window-height="972"
     inkscape:window-x="3"
     inkscape:window-y="23" />
  <metadata
     id="metadata4244">
    <rdf:RDF>
      <cc:Work
         rdf:about="">
        <dc:format>image/svg+xml</dc:format>
        <dc:type
           rdf:resource="http://purl.org/dc/dcmitype/StillImage" />
      </cc:Work>
    </rdf:RDF>
  </metadata>
  <g
     id="layer1"
     inkscape:label="Layer 1"
     inkscape:groupmode="layer">
    <path
       sodipodi:type="arc"
       style="fill:#f57900;fill-opacity:1;stroke:#ce5c00;stroke-width:2.02997494;stroke-miterlimit:4;stroke-dasharray:none;stroke-opacity:1"
       id="path4302"
       sodipodi:cx="10.555883"
       sodipodi:cy="4.0385542"
       sodipodi:rx="5.074944"
       sodipodi:ry="5.074944"
       d="M 15.630827 4.0385542 A 5.074944 5.074944 0 1 1  5.4809394,4.0385542 A 5.074944 5.074944 0 1 1  15.630827 4.0385542 z"
       transform="matrix(0.492616,0,0,0.492616,2.739041,1.010542)" />
    <path
       sodipodi:type="arc"
       style="opacity:0.45;fill:url(#linearGradient4573);fill-opacity:1;stroke:white;stroke-width:3.36565328;stroke-miterlimit:4;stroke-dasharray:none;stroke-opacity:1"
       id="path4273"
       sodipodi:cx="10.555883"
       sodipodi:cy="4.0385542"
       sodipodi:rx="5.074944"
       sodipodi:ry="5.074944"
       d="M 15.630827 4.0385542 A 5.074944 5.074944 0 1 1  5.4809394,4.0385542 A 5.074944 5.074944 0 1 1  15.630827 4.0385542 z"
       transform="matrix(0.298676,0,0,0.29557,4.802013,1.806325)" />
    <path
       style="fill:#f57900;fill-opacity:1;stroke:#ce5c00;stroke-width:1.38365984;stroke-miterlimit:4;stroke-opacity:1"
       d="M 18.622156,3.5326297 C 18.622156,6.3750182 17.015921,10.340055 12.458352,10.340055 C 7.9302336,10.340055 6.3122733,6.4738666 6.3122733,3.5468552 L 2.1513856,4.6666575 C 2.1513856,11.364426 9.0401786,13.686864 9.0401786,13.686864 C 9.0401786,13.686864 3.7908129,16.358274 3.7908129,21.425015 L 9.4201327,21.369834 C 9.4201327,21.369834 10.683141,15.858798 12.492742,15.858798 C 14.346985,15.858798 15.855674,21.40727 15.855674,21.40727 L 20.956516,21.423292 C 20.956516,16.019846 15.809216,13.730487 15.809216,13.730487 C 15.809216,13.730487 22.921023,11.481038 22.921023,4.630092 L 18.622156,3.5326297 z "
       id="rect2213"
       sodipodi:nodetypes="czccccczccccc"
       transform="matrix(0.725563,0,0,0.719891,-1.060965,0.139182)" />
    <path
       sodipodi:type="inkscape:offset"
       inkscape:radius="-1.291461"
       inkscape:original="M 6.3125 3.53125 L 2.15625 4.65625 C 2.1562501 11.354019 9.03125 13.6875 9.03125 13.6875 C 9.0312503 13.6875 3.78125 16.370759 3.78125 21.4375 L 9.40625 21.375 C 9.4062501 21.374999 10.690399 15.84375 12.5 15.84375 C 14.354243 15.84375 15.84375 21.40625 15.84375 21.40625 L 20.96875 21.4375 C 20.96875 16.034054 15.8125 13.71875 15.8125 13.71875 C 15.8125 13.71875 22.90625 11.475946 22.90625 4.625 L 18.625 3.53125 C 18.625 6.3736385 17.026319 10.34375 12.46875 10.34375 C 7.9406315 10.34375 6.3125 6.4582614 6.3125 3.53125 z "
       xlink:href="#rect2213"
       style="opacity:0.35;fill:url(#linearGradient4575);fill-opacity:1;stroke:white;stroke-width:1.38365984;stroke-miterlimit:4;stroke-opacity:1"
       id="path2220"
       inkscape:href="#rect2213"
       d="M 19.6875,5.125 C 19.479335,6.3408248 19.10126,7.5623531 18.28125,8.65625 C 17.098128,10.23454 15.101871,11.40625 12.46875,11.40625 C 9.8560949,11.40625 7.846537,10.287651 6.65625,8.71875 C 5.83396,7.6349007 5.4620969,6.3829562 5.25,5.15625 L 3.5625,5.625 C 3.8508962,7.9231674 5.0550155,9.4112475 6.375,10.40625 C 7.8801948,11.540864 9.375,11.9375 9.375,11.9375 C 9.8633851,12.065436 10.232457,12.466204 10.319812,12.963454 C 10.407166,13.460703 10.196788,13.963267 9.78125,14.25 C 9.78125,14.25 6.6870543,16.661399 6,20.21875 L 8.53125,20.25 C 8.6279407,19.728499 8.6357133,19.435825 8.90625,18.59375 C 9.1308882,17.894539 9.4345458,17.180193 9.875,16.53125 C 10.315454,15.882307 11.039189,15.1875 12.09375,15.1875 C 13.141346,15.1875 13.857969,15.823928 14.375,16.4375 C 14.892031,17.051072 15.299081,17.75007 15.625,18.4375 C 16.057357,19.349428 16.150148,19.71998 16.3125,20.21875 L 18.90625,20.25 C 18.133599,16.517155 14.59375,14.25 14.59375,14.25 C 14.135611,13.985943 13.884704,13.469297 13.96045,12.945961 C 14.036196,12.422626 14.423293,11.998322 14.9375,11.875 C 14.9375,11.875 16.505992,11.463005 18.09375,10.3125 C 19.489548,9.3010912 20.764052,7.794432 21.0625,5.4375 L 19.6875,5.125 z "
       transform="matrix(0.725563,0,0,0.719891,-1.060965,0.139182)" />
  </g>
</svg>
