<?xml version="1.0" encoding="UTF-8" standalone="no"?>
<!-- Created with Inkscape (http://www.inkscape.org/) -->
<svg
   xmlns:dc="http://purl.org/dc/elements/1.1/"
   xmlns:cc="http://creativecommons.org/ns#"
   xmlns:rdf="http://www.w3.org/1999/02/22-rdf-syntax-ns#"
   xmlns:svg="http://www.w3.org/2000/svg"
   xmlns="http://www.w3.org/2000/svg"
   xmlns:xlink="http://www.w3.org/1999/xlink"
   xmlns:sodipodi="http://sodipodi.sourceforge.net/DTD/sodipodi-0.dtd"
   xmlns:inkscape="http://www.inkscape.org/namespaces/inkscape"
   width="16px"
   height="16px"
   id="svg4239"
   sodipodi:version="0.32"
   inkscape:version="0.46"
   sodipodi:docbase="/home/hbons/GUI/Tango/Gaim Refresh/protocols/16/scalable"
   sodipodi:docname="msn.svg"
   inkscape:export-filename="/home/hbons/Bureaublad/msn.png"
   inkscape:export-xdpi="90"
   inkscape:export-ydpi="90"
   inkscape:output_extension="org.inkscape.output.svg.inkscape">
  <defs
     id="defs4241">
    <linearGradient
       inkscape:collect="always"
       id="linearGradient8709">
      <stop
         style="stop-color:#ffffff;stop-opacity:1;"
         offset="0"
         id="stop8711" />
      <stop
         style="stop-color:#ffffff;stop-opacity:0;"
         offset="1"
         id="stop8713" />
    </linearGradient>
    <linearGradient
       inkscape:collect="always"
       id="linearGradient8701">
      <stop
         style="stop-color:#ffffff;stop-opacity:1;"
         offset="0"
         id="stop8703" />
      <stop
         style="stop-color:#ffffff;stop-opacity:0;"
         offset="1"
         id="stop8705" />
    </linearGradient>
    <linearGradient
       inkscape:collect="always"
       id="linearGradient8693">
      <stop
         style="stop-color:#ffffff;stop-opacity:1;"
         offset="0"
         id="stop8695" />
      <stop
         style="stop-color:#ffffff;stop-opacity:0;"
         offset="1"
         id="stop8697" />
    </linearGradient>
    <linearGradient
       inkscape:collect="always"
       id="linearGradient8685">
      <stop
         style="stop-color:#ffffff;stop-opacity:1;"
         offset="0"
         id="stop8687" />
      <stop
         style="stop-color:#ffffff;stop-opacity:0;"
         offset="1"
         id="stop8689" />
    </linearGradient>
    <linearGradient
       inkscape:collect="always"
       id="linearGradient8677">
      <stop
         style="stop-color:#5c3566;stop-opacity:1;"
         offset="0"
         id="stop8679" />
      <stop
         style="stop-color:#874e96;stop-opacity:1"
         offset="1"
         id="stop8681" />
    </linearGradient>
    <linearGradient
       inkscape:collect="always"
       id="linearGradient8660">
      <stop
         style="stop-color:#275ba6;stop-opacity:1"
         offset="0"
         id="stop8662" />
      <stop
         style="stop-color:#183765;stop-opacity:1"
         offset="1"
         id="stop8664" />
    </linearGradient>
    <linearGradient
       inkscape:collect="always"
       id="linearGradient8652">
      <stop
         style="stop-color:#4e9a06;stop-opacity:1;"
         offset="0"
         id="stop8654" />
      <stop
         style="stop-color:#2f5f02;stop-opacity:1"
         offset="1"
         id="stop8656" />
    </linearGradient>
    <linearGradient
       inkscape:collect="always"
       id="linearGradient8644">
      <stop
         style="stop-color:#c4a000;stop-opacity:1;"
         offset="0"
         id="stop8646" />
      <stop
         style="stop-color:#786300;stop-opacity:1"
         offset="1"
         id="stop8648" />
    </linearGradient>
    <linearGradient
       inkscape:collect="always"
       id="linearGradient8636">
      <stop
         style="stop-color:#ce5d00;stop-opacity:1;"
         offset="0"
         id="stop8638" />
      <stop
         style="stop-color:#833b00;stop-opacity:1"
         offset="1"
         id="stop8640" />
    </linearGradient>
    <linearGradient
       id="linearGradient2219"
       inkscape:collect="always">
      <stop
         id="stop2221"
         offset="0"
         style="stop-color:#3465a4;stop-opacity:1;" />
      <stop
         id="stop2223"
         offset="1"
         style="stop-color:#3465a4;stop-opacity:0;" />
    </linearGradient>
    <linearGradient
       id="linearGradient2228"
       inkscape:collect="always">
      <stop
         id="stop2230"
         offset="0"
         style="stop-color:#f56600;stop-opacity:1;" />
      <stop
         id="stop2232"
         offset="1"
         style="stop-color:#f56600;stop-opacity:0;" />
    </linearGradient>
    <linearGradient
       inkscape:collect="always"
       xlink:href="#linearGradient2228"
       id="linearGradient4505"
       gradientUnits="userSpaceOnUse"
       gradientTransform="matrix(0.782765,0,0,0.747651,1.035995,0.614065)"
       x1="20.007692"
       y1="13.250565"
       x2="18.727983"
       y2="17.102213" />
    <linearGradient
       inkscape:collect="always"
       xlink:href="#linearGradient2219"
       id="linearGradient4507"
       gradientUnits="userSpaceOnUse"
       gradientTransform="matrix(0.5438817,0,0,0.5799505,-0.3274572,-0.2722861)"
       x1="10.200594"
       y1="14.726058"
       x2="13.252806"
       y2="18.174761" />
    <linearGradient
       inkscape:collect="always"
       xlink:href="#linearGradient8636"
       id="linearGradient8642"
       x1="16.397886"
       y1="7.1729202"
       x2="19.359613"
       y2="12.699073"
       gradientUnits="userSpaceOnUse" />
    <linearGradient
       inkscape:collect="always"
       xlink:href="#linearGradient8644"
       id="linearGradient8650"
       x1="17.004478"
       y1="15.059639"
       x2="19.158651"
       y2="19.232847"
       gradientUnits="userSpaceOnUse"
       gradientTransform="matrix(0.8565497,0,0,0.700607,-3.0651761,-0.162781)" />
    <linearGradient
       inkscape:collect="always"
       xlink:href="#linearGradient8652"
       id="linearGradient8658"
       x1="11.425816"
       y1="15.977947"
       x2="13.070351"
       y2="19.869415"
       gradientUnits="userSpaceOnUse" />
    <linearGradient
       inkscape:collect="always"
       xlink:href="#linearGradient8660"
       id="linearGradient8666"
       x1="1.1384629"
       y1="4.3090925"
       x2="6.360837"
       y2="9.665041"
       gradientUnits="userSpaceOnUse" />
    <linearGradient
       inkscape:collect="always"
       xlink:href="#linearGradient8677"
       id="linearGradient8683"
       x1="9.734354"
       y1="10.855804"
       x2="8.227417"
       y2="7.5956616"
       gradientUnits="userSpaceOnUse" />
    <linearGradient
       inkscape:collect="always"
       xlink:href="#linearGradient8685"
       id="linearGradient8691"
       x1="2.27721"
       y1="6.7656131"
       x2="10.084975"
       y2="12.919206"
       gradientUnits="userSpaceOnUse" />
    <linearGradient
       inkscape:collect="always"
       xlink:href="#linearGradient8709"
       id="linearGradient8733"
       gradientUnits="userSpaceOnUse"
       gradientTransform="matrix(0.789526,0,0,0.621298,-1.921384,0.986574)"
       x1="18.850323"
       y1="18.158928"
       x2="17.372902"
       y2="13.093926" />
    <linearGradient
       inkscape:collect="always"
       xlink:href="#linearGradient8701"
       id="linearGradient8742"
       gradientUnits="userSpaceOnUse"
       gradientTransform="matrix(0.599236,0,0,0.624815,0.408284,1.315959)"
       x1="12.687945"
       y1="18.895752"
       x2="11.633714"
       y2="15.440485" />
    <linearGradient
       inkscape:collect="always"
       xlink:href="#linearGradient8693"
       id="linearGradient8745"
       gradientUnits="userSpaceOnUse"
       x1="13.573946"
       y1="3.1337965"
       x2="11.223683"
       y2="8.5642729" />
  </defs>
  <sodipodi:namedview
     id="base"
     pagecolor="#ffffff"
     bordercolor="#666666"
     borderopacity="1.0"
     inkscape:pageopacity="0.0"
     inkscape:pageshadow="2"
     inkscape:zoom="27.3287"
     inkscape:cx="20.590777"
     inkscape:cy="9.6812143"
     inkscape:current-layer="layer1"
     showgrid="true"
     inkscape:grid-bbox="true"
     inkscape:document-units="px"
     inkscape:window-width="1430"
     inkscape:window-height="837"
     inkscape:window-x="254"
     inkscape:window-y="427"
     inkscape:snap-nodes="false"
     inkscape:snap-bbox="true"
     objecttolerance="10"
     gridtolerance="10">
    <inkscape:grid
       type="xygrid"
       id="grid7864"
       visible="true"
       enabled="true" />
  </sodipodi:namedview>
  <metadata
     id="metadata4244">
    <rdf:RDF>
      <cc:Work
         rdf:about="">
        <dc:format>image/svg+xml</dc:format>
        <dc:type
           rdf:resource="http://purl.org/dc/dcmitype/StillImage" />
      </cc:Work>
    </rdf:RDF>
  </metadata>
  <g
     id="layer1"
     inkscape:label="Layer 1"
     inkscape:groupmode="layer">
    <path
       style="fill:#edd400;fill-opacity:1;stroke:url(#linearGradient8650);stroke-width:1;stroke-miterlimit:4;stroke-opacity:1;stroke-dasharray:none"
       d="M 12.726618,6.7821693 C 14.954366,7.315014 15.232686,13.499992 12.702089,13.499992 C 10.20215,13.499992 4.63567,4.846936 12.726618,6.7821693 z"
       id="rect2194" />
    <path
       style="opacity:0.5;fill:none;fill-opacity:1;stroke:url(#linearGradient8733);stroke-width:1.00000119;stroke-miterlimit:4;stroke-opacity:1"
       d="M 10.464305,7.5102029 C 10.084666,7.5060849 9.6095224,7.6779929 9.5306688,8.0961333 C 9.4083085,8.8812767 9.7824927,9.6266355 10.172483,10.280772 C 10.718966,11.141573 11.429181,11.932478 12.346756,12.402887 C 12.624698,12.609701 12.991224,12.391706 13.128703,12.12186 C 13.685105,10.954392 13.588008,9.5514732 13.062635,8.3912413 C 12.867487,7.9910733 12.482071,7.658617 12.022113,7.639864 C 11.508321,7.5519031 10.987071,7.4717107 10.464305,7.5102029 z"
       id="path2259" />
    <path
       transform="matrix(0.712542,0,0,0.698139,-0.834614,0.18154)"
       style="fill:#73d216;fill-opacity:1;stroke:url(#linearGradient8658);stroke-width:1.41783130000000002;stroke-miterlimit:4;stroke-opacity:1"
       d="M 13.316085,20.509475 C 10.851196,20.509475 4.3258741,14.508937 9.3204332,11.066555 C 14.310647,7.6271659 15.818731,20.509475 13.316085,20.509475 z "
       id="rect2201" />
    <path
       style="opacity:0.5;fill:none;fill-opacity:1;stroke:url(#linearGradient8742);stroke-width:1;stroke-miterlimit:4;stroke-opacity:1"
       d="M 6.9969196,8.5005798 C 6.4095407,8.5652754 5.9363988,9.0353859 5.6504082,9.5247059 C 5.3128668,10.187546 5.6118436,10.924286 5.9818793,11.497377 C 6.4590192,12.279805 7.2102283,12.858859 7.9986562,13.300897 C 8.6344334,13.702713 8.4099456,12.64584 8.4957981,12.27224 C 8.4979791,11.096105 8.2902419,9.8546211 7.6065424,8.8720886 C 7.4570093,8.6818207 7.2484632,8.5134511 6.9969196,8.5005798 z"
       id="path2254" />
    <path
       transform="matrix(0.720961,0,0,0.718898,-0.697672,-0.282723)"
       style="opacity:0.25;fill:none;fill-opacity:1;stroke:white;stroke-width:1.389027;stroke-miterlimit:4;stroke-opacity:1"
       d="M 20,3.5 C 18.995087,3.678281 17.104383,5.3426949 15.71875,7.0625 C 14.498278,8.5773128 13.796939,9.7027104 13.59375,10.03125 L 15.0625,13.375 C 17.799931,13.187054 19.57299,12.186552 19.84375,12 C 19.951969,11.755173 20.691026,10.13991 21.15625,8.125 C 21.405718,7.0445423 21.52736,5.9263632 21.4375,5.09375 C 21.34764,4.2611368 21.117806,3.8050199 20.65625,3.5625 C 20.487599,3.4738843 20.316754,3.4438049 20,3.5 z "
       id="path2245" />
    <path
       style="fill:url(#linearGradient4507);fill-opacity:1;stroke:url(#linearGradient8666);stroke-width:1.00000106999999994;stroke-miterlimit:4;stroke-opacity:1"
       d="M 0.66009074,3.7661675 C 1.638065,2.0184654 11.689407,9.4126942 7.470982,10.391083 C 3.2580442,11.368199 -0.30791802,5.4960608 0.66009074,3.7661675 z"
       id="rect2197" />
    <path
       transform="matrix(0.666514,0,0,0.713565,-0.165619,-0.134566)"
       style="opacity:0.50000000000000000;fill:none;fill-opacity:1;stroke:url(#linearGradient8691);stroke-width:1.45003652999999999;stroke-miterlimit:4;stroke-opacity:1"
       d="M 2.9037792,8.1978741 C 3.2143877,9.0316623 3.9610232,9.9051913 4.759397,10.781009 C 6.3561448,12.532642 8.35926,13.89948 10.765977,13.389526 C 11.255672,13.285765 11.400406,13.151715 11.448617,13.081331 C 11.496824,13.010949 11.537361,12.912219 11.448617,12.641053 C 11.271127,12.098721 10.247411,11.388991 9.1968152,10.475925 C 8.146221,9.5628599 6.8660046,8.7034079 5.6266656,8.0176219 C 4.3873265,7.3318362 3.3045923,6.5498939 2.7239802,6.4956482 C 2.4148401,6.4667656 2.5931708,7.3640855 2.9037792,8.1978741 z"
       id="path2249"
       sodipodi:nodetypes="csssssssc" />
    <path
       transform="matrix(0.700821,0,0,0.664862,-0.245183,-0.148725)"
       style="fill:url(#linearGradient4505);fill-opacity:1;stroke:url(#linearGradient8642);stroke-width:1.46497786000000008;stroke-miterlimit:4;stroke-opacity:1"
       d="M 12.478485,9.9508709 C 12.478485,9.9508709 17.866649,0.9861607 21.122294,2.6968071 C 24.404423,4.4213689 20.644961,12.673483 20.644961,12.673483 C 20.644961,12.673483 18.181394,14.512366 14.476578,14.512366 L 12.478485,9.9508709 z "
       id="rect1317" />
    <path
       style="opacity:0.50000000000000000;fill:none;fill-opacity:1;stroke:url(#linearGradient8745);stroke-width:1.00000059999999991;stroke-miterlimit:4;stroke-opacity:1"
       d="M 13.641543,2.6087804 C 13.042222,2.7550593 12.566354,3.1867157 12.108436,3.5768078 C 11.18133,4.4213418 10.408475,5.418624 9.6753778,6.4315252 C 9.7266839,7.073663 10.22649,7.8212816 10.524225,8.4451141 C 11.523392,8.3745467 12.537477,8.14589 13.395949,7.6120796 C 13.929097,6.4895545 14.279568,5.2829939 14.46967,4.0564994 C 14.517847,3.5935306 14.505216,3.0568259 14.178422,2.69122 C 14.015215,2.4959594 13.853389,2.5338947 13.641543,2.6087804 z"
       id="path1328"
       sodipodi:nodetypes="ccccccsc" />
    <path
       style="fill:url(#linearGradient8683);fill-opacity:1;stroke:none;stroke-width:1;stroke-miterlimit:4;stroke-dasharray:none;stroke-opacity:1"
       d="M 7.84375,6.0625 C 7.2204009,5.7746851 6.7868533,6.5768349 7.0386107,7.0974232 C 7.2879783,8.4863432 7.8061372,9.8184408 8.4250523,11.082033 C 8.6624096,11.493677 8.9604116,12.091198 9.5358102,11.967269 C 10.350721,11.726246 9.8989976,10.67735 9.7858357,10.097672 C 9.4218582,8.8029479 8.9711599,7.5041911 8.2319551,6.3726804 C 8.1261729,6.2440217 7.9975858,6.1299296 7.84375,6.0625 z"
       id="path2192" />
  </g>
</svg>
