<?xml version="1.0" encoding="UTF-8" standalone="no"?>
<!-- Created with Inkscape (http://www.inkscape.org/) -->
<svg
   xmlns:dc="http://purl.org/dc/elements/1.1/"
   xmlns:cc="http://creativecommons.org/ns#"
   xmlns:rdf="http://www.w3.org/1999/02/22-rdf-syntax-ns#"
   xmlns:svg="http://www.w3.org/2000/svg"
   xmlns="http://www.w3.org/2000/svg"
   xmlns:xlink="http://www.w3.org/1999/xlink"
   xmlns:sodipodi="http://sodipodi.sourceforge.net/DTD/sodipodi-0.dtd"
   xmlns:inkscape="http://www.inkscape.org/namespaces/inkscape"
   width="16px"
   height="16px"
   id="svg4248"
   sodipodi:version="0.32"
   inkscape:version="0.46"
   sodipodi:docbase="/home/hbons/GUI/Tango/Gaim Refresh/protocols/16/scalable"
   sodipodi:docname="simple.svg"
   inkscape:export-filename="/home/hbons/GUI/Tango/Gaim Refresh/protocols/16/sip.png"
   inkscape:export-xdpi="90"
   inkscape:export-ydpi="90"
   inkscape:output_extension="org.inkscape.output.svg.inkscape">
  <defs
     id="defs4250">
    <linearGradient
       inkscape:collect="always"
       id="linearGradient6929">
      <stop
         style="stop-color:white;stop-opacity:1;"
         offset="0"
         id="stop6931" />
      <stop
         style="stop-color:white;stop-opacity:0;"
         offset="1"
         id="stop6933" />
    </linearGradient>
    <linearGradient
       inkscape:collect="always"
       xlink:href="#linearGradient6929"
       id="linearGradient6935"
       x1="8"
       y1="1.824675"
       x2="8"
       y2="8.6981058"
       gradientUnits="userSpaceOnUse" />
  </defs>
  <sodipodi:namedview
     id="base"
     pagecolor="#ffffff"
     bordercolor="#666666"
     borderopacity="1.0"
     inkscape:pageopacity="0.0"
     inkscape:pageshadow="2"
     inkscape:zoom="38.648618"
     inkscape:cx="13.089557"
     inkscape:cy="6.9871882"
     inkscape:current-layer="layer1"
     showgrid="true"
     inkscape:grid-bbox="true"
     inkscape:document-units="px"
     inkscape:window-width="1274"
     inkscape:window-height="972"
     inkscape:window-x="3"
     inkscape:window-y="23"
     inkscape:grid-points="false"
     inkscape:guide-points="false"
     gridtolerance="10000"
     inkscape:object-points="false"
     inkscape:object-nodes="false"
     objecttolerance="50" />
  <metadata
     id="metadata4253">
    <rdf:RDF>
      <cc:Work
         rdf:about="">
        <dc:format>image/svg+xml</dc:format>
        <dc:type
           rdf:resource="http://purl.org/dc/dcmitype/StillImage" />
      </cc:Work>
    </rdf:RDF>
  </metadata>
  <g
     id="layer1"
     inkscape:label="Layer 1"
     inkscape:groupmode="layer">
    <rect
       style="fill:#729fcf;fill-opacity:1;stroke:none;stroke-width:1.30841398;stroke-miterlimit:4;stroke-dasharray:none;stroke-opacity:1"
       id="rect6898"
       width="10.0164"
       height="2.0509641"
       x="-14.508198"
       y="10.493749"
       transform="matrix(4.713604e-8,-0.599017,0.975149,9.711613e-8,-2.732958,2.809336)"
       rx="1.6895111"
       ry="0.95520729" />
    <path
       style="fill:#729fcf;fill-opacity:1;stroke:none;stroke-width:1;stroke-miterlimit:4;stroke-opacity:1"
       d="M 11.5,7.5349659 L 11.5,11.716085 C 11.5,12.418986 11.965735,12.5 12.276224,12.5 C 12.923078,12.5 13.5,12.581494 13.5,11.801398 L 13.5,10.5 C 13.5,10.5 13.921461,10.507115 14.5,10.507115 C 15.170077,10.507115 15.5,10.009253 15.5,9.620279 L 15.5,7.2321668 C 15.5,6.765714 15.111888,6.5 14.672027,6.5 L 12.490908,6.5 C 11.817683,6.5 11.5,6.9657346 11.5,7.5349659 z "
       id="path6900"
       sodipodi:nodetypes="ccsccsccccc"
       transform="translate(0,-0.999999)" />
    <rect
       style="opacity:1;fill:#729fcf;fill-opacity:1;stroke:none;stroke-width:1.06803429;stroke-miterlimit:4;stroke-dasharray:none;stroke-opacity:1"
       id="rect6902"
       width="5.0195842"
       height="6.8174801"
       x="0"
       y="6"
       transform="matrix(0.996098,0,0,0.88009,0.5,0.219462)"
       rx="1.087779"
       ry="1.087779" />
    <rect
       style="opacity:0;fill:none;fill-opacity:1;stroke:#a40000;stroke-width:1;stroke-miterlimit:4;stroke-dasharray:none;stroke-opacity:1"
       id="rect3203"
       width="0"
       height="2.5118096"
       x="6"
       y="6.4881902"
       transform="translate(-1.463597e-2,-4.995136)" />
    <path
       style="fill:url(#linearGradient6935);fill-opacity:1.0;stroke:#3465a4;stroke-width:1;stroke-miterlimit:4;stroke-dasharray:none;stroke-opacity:1"
       d="M 1.59375 5.5 C 0.99347187 5.5 0.5 5.9383817 0.5 6.46875 L 0.5 10.53125 C 0.5 11.061618 0.99347192 11.5 1.59375 11.5 L 4.40625 11.5 C 5.0065281 11.5 5.5000001 11.061618 5.5 10.53125 L 5.5 6.46875 C 5.5 5.9383817 5.006528 5.5000001 4.40625 5.5 L 1.59375 5.5 z M 8.4375 5.5 C 7.9214659 5.4999999 7.5000003 5.9393266 7.5 6.5 L 7.5 10.5 C 7.5 11.060673 7.9214657 11.5 8.4375 11.5 L 8.5625 11.5 C 9.0785341 11.5 9.4999998 11.060673 9.5 10.5 L 9.5 6.5 C 9.5 5.9393266 9.0785338 5.5000002 8.5625 5.5 L 8.4375 5.5 z M 12.5 5.5 C 11.826775 5.5 11.5 5.9620187 11.5 6.53125 L 11.5 10.71875 C 11.5 11.421651 11.970761 11.5 12.28125 11.5 C 12.928104 11.5 13.5 11.592596 13.5 10.8125 L 13.5 9.5 C 13.5 9.5 13.921461 9.5 14.5 9.5 C 15.170077 9.4999997 15.5 9.013974 15.5 8.625 L 15.5 6.21875 C 15.5 5.7522973 15.127361 5.5 14.6875 5.5 L 12.5 5.5 z "
       id="rect2224" />
    <rect
       style="opacity:1;fill:#3465a4;fill-opacity:1;stroke:none;stroke-width:1;stroke-miterlimit:4;stroke-dasharray:none;stroke-opacity:1"
       id="rect6886"
       width="0.90699607"
       height="0.44194731"
       x="3"
       y="2"
       transform="matrix(1.102536,0,0,2.262713,9.692391,2.474575)" />
    <rect
       style="opacity:1;fill:#3465a4;fill-opacity:1;stroke:none;stroke-width:1;stroke-miterlimit:4;stroke-dasharray:none;stroke-opacity:1"
       id="rect6890"
       width="1.9664351"
       height="0.81327707"
       x="0"
       y="3"
       transform="matrix(1.525603,0,0,1.229593,2,3.311221)" />
    <rect
       style="opacity:1;fill:#3465a4;fill-opacity:1;stroke:none;stroke-width:1;stroke-miterlimit:4;stroke-dasharray:none;stroke-opacity:1"
       id="rect6892"
       width="1.9664351"
       height="0.81327707"
       x="0"
       y="3"
       transform="matrix(1.525603,0,0,1.229593,1.000001,5.311222)" />
  </g>
</svg>
