<?xml version="1.0" encoding="UTF-8" standalone="no"?>
<!-- Created with Inkscape (http://www.inkscape.org/) -->
<svg
   xmlns:dc="http://purl.org/dc/elements/1.1/"
   xmlns:cc="http://creativecommons.org/ns#"
   xmlns:rdf="http://www.w3.org/1999/02/22-rdf-syntax-ns#"
   xmlns:svg="http://www.w3.org/2000/svg"
   xmlns="http://www.w3.org/2000/svg"
   xmlns:xlink="http://www.w3.org/1999/xlink"
   xmlns:sodipodi="http://sodipodi.sourceforge.net/DTD/sodipodi-0.dtd"
   xmlns:inkscape="http://www.inkscape.org/namespaces/inkscape"
   width="16px"
   height="16px"
   id="svg4248"
   sodipodi:version="0.32"
   inkscape:version="0.46"
   sodipodi:docbase="/home/hbons/GUI/Tango/Gaim Refresh/protocols/16/scalable"
   sodipodi:docname="zephyr.svg"
   inkscape:export-filename="/home/hbons/GUI/Tango/Gaim Refresh/protocols/16/icq.png"
   inkscape:export-xdpi="90"
   inkscape:export-ydpi="90"
   inkscape:output_extension="org.inkscape.output.svg.inkscape">
  <defs
     id="defs4250">
    <linearGradient
       inkscape:collect="always"
       id="linearGradient5549">
      <stop
         style="stop-color:#eeeeec;stop-opacity:1;"
         offset="0"
         id="stop5551" />
      <stop
         style="stop-color:#eeeeec;stop-opacity:0;"
         offset="1"
         id="stop5553" />
    </linearGradient>
    <linearGradient
       inkscape:collect="always"
       xlink:href="#linearGradient5549"
       id="linearGradient5555"
       x1="7.5"
       y1="-9.7224264"
       x2="7.5"
       y2="13.121667"
       gradientUnits="userSpaceOnUse" />
  </defs>
  <sodipodi:namedview
     id="base"
     pagecolor="#ffffff"
     bordercolor="#666666"
     borderopacity="1.0"
     inkscape:pageopacity="0.0"
     inkscape:pageshadow="2"
     inkscape:zoom="41.422563"
     inkscape:cx="12.771452"
     inkscape:cy="4.9285563"
     inkscape:current-layer="layer1"
     showgrid="true"
     inkscape:grid-bbox="true"
     inkscape:document-units="px"
     inkscape:window-width="1274"
     inkscape:window-height="972"
     inkscape:window-x="3"
     inkscape:window-y="23" />
  <metadata
     id="metadata4253">
    <rdf:RDF>
      <cc:Work
         rdf:about="">
        <dc:format>image/svg+xml</dc:format>
        <dc:type
           rdf:resource="http://purl.org/dc/dcmitype/StillImage" />
      </cc:Work>
    </rdf:RDF>
  </metadata>
  <g
     id="layer1"
     inkscape:label="Layer 1"
     inkscape:groupmode="layer">
    <rect
       style="opacity:0;fill:none;fill-opacity:1;stroke:#a40000;stroke-width:1.13196862;stroke-miterlimit:4;stroke-dasharray:none;stroke-opacity:1"
       id="rect3203"
       width="0"
       height="2.5118096"
       x="6"
       y="6.4881902"
       transform="matrix(0.883816,0,0,0.883018,-2.999998,-1.426403)" />
    <path
       style="fill:#3465a4;fill-opacity:1;stroke:#204a87;stroke-width:1;stroke-miterlimit:4;stroke-opacity:1"
       d="M 2.28125 0.5 C 2.0164486 0.53736235 1.5 0.72942384 1.5 1.5625 L 1.5 3.375 C 1.5 3.3749999 1.3732764 4.53125 2.34375 4.53125 L 10.5 4.5 C 10.5 4.5 10.437503 5.5 11.5 5.5 L 12.65625 5.5 C 12.65625 5.5 13.5 5.5165235 13.5 4.5 L 13.5 1.5 C 13.5 0.51020128 12.5 0.5 12.5 0.5 L 2.4375 0.5 C 2.4375 0.5 2.3695171 0.48754588 2.28125 0.5 z M 6.125 6.5 C 5.7831005 6.5 5.5 6.7302717 5.5 7.03125 L 5.5 8.96875 C 5.5 9.2697285 5.7831007 9.4999998 6.125 9.5 L 8.875 9.5 C 9.2168995 9.5 9.5 9.2697283 9.5 8.96875 L 9.5 7.03125 C 9.5 6.7302715 9.2168999 6.5000002 8.875 6.5 L 6.125 6.5 z M 2.21875 10.5 C 1.9811078 10.545871 1.5 10.737607 1.5 11.5 L 1.5 14.5 C 1.5 15.489799 2.46875 15.5 2.46875 15.5 L 12.5625 15.5 C 12.5625 15.5 13.5 15.548268 13.5 14.4375 L 13.5 12.625 C 13.5 12.625 13.626724 11.46875 12.65625 11.46875 L 4.5 11.5 C 4.5 11.5 4.531247 10.5 3.46875 10.5 L 2.34375 10.5 C 2.34375 10.5 2.2979641 10.48471 2.21875 10.5 z "
       id="rect5514" />
    <path
       sodipodi:type="inkscape:offset"
       inkscape:radius="-1.0998782"
       inkscape:original="M 2.28125 0.5 C 2.0164486 0.53736235 1.5 0.72942384 1.5 1.5625 L 1.5 3.375 C 1.5 3.3749999 1.3732764 4.53125 2.34375 4.53125 L 10.5 4.5 C 10.5 4.5 10.437503 5.5 11.5 5.5 L 12.65625 5.5 C 12.65625 5.5 13.5 5.5165235 13.5 4.5 L 13.5 1.5 C 13.5 0.51020128 12.5 0.5 12.5 0.5 L 2.4375 0.5 C 2.4375 0.5 2.3695171 0.48754588 2.28125 0.5 z M 6.125 6.5 C 5.7831005 6.5 5.5 6.7302717 5.5 7.03125 L 5.5 8.96875 C 5.5 9.2697285 5.7831007 9.4999998 6.125 9.5 L 8.875 9.5 C 9.2168995 9.5 9.5 9.2697283 9.5 8.96875 L 9.5 7.03125 C 9.5 6.7302715 9.2168999 6.5000002 8.875 6.5 L 6.125 6.5 z M 2.21875 10.5 C 1.9811078 10.545871 1.5 10.737607 1.5 11.5 L 1.5 14.5 C 1.5 15.489799 2.46875 15.5 2.46875 15.5 L 12.5625 15.5 C 12.5625 15.5 13.5 15.548268 13.5 14.4375 L 13.5 12.625 C 13.5 12.625 13.626724 11.46875 12.65625 11.46875 L 4.5 11.5 C 4.5 11.5 4.531247 10.5 3.46875 10.5 L 2.34375 10.5 C 2.34375 10.5 2.2979641 10.48471 2.21875 10.5 z "
       style="opacity:0.25;fill:url(#linearGradient5555);fill-opacity:1;stroke:#eeeeec;stroke-width:1;stroke-miterlimit:4;stroke-opacity:1"
       id="path5547"
       d="M 2.59375,1.59375 L 2.59375,3.375 C 2.594342,3.3958291 2.594342,3.4166709 2.59375,3.4375 L 10.5,3.40625 C 11.068117,3.40712 11.542109,3.8404838 11.59375,4.40625 L 12.40625,4.40625 L 12.40625,1.59375 L 2.59375,1.59375 z M 6.59375,7.59375 L 6.59375,8.40625 L 8.40625,8.40625 L 8.40625,7.59375 L 6.59375,7.59375 z M 2.59375,11.59375 L 2.59375,14.40625 L 12.40625,14.40625 L 12.40625,12.625 C 12.405658,12.604171 12.405658,12.583329 12.40625,12.5625 L 4.5,12.59375 C 3.9318826,12.59288 3.4578909,12.159516 3.40625,11.59375 L 2.59375,11.59375 z " />
  </g>
</svg>
