<?xml version="1.0" encoding="UTF-8" standalone="no"?>
<!-- Created with Inkscape (http://www.inkscape.org/) -->
<svg
   xmlns:dc="http://purl.org/dc/elements/1.1/"
   xmlns:cc="http://web.resource.org/cc/"
   xmlns:rdf="http://www.w3.org/1999/02/22-rdf-syntax-ns#"
   xmlns:svg="http://www.w3.org/2000/svg"
   xmlns="http://www.w3.org/2000/svg"
   xmlns:xlink="http://www.w3.org/1999/xlink"
   xmlns:sodipodi="http://inkscape.sourceforge.net/DTD/s odipodi-0.dtd"
   xmlns:inkscape="http://www.inkscape.org/namespaces/inkscape"
   width="32"
   height="32"
   id="svg1307"
   sodipodi:version="0.32"
   inkscape:version="0.43"
   sodipodi:docbase="/home/hbons/Desktop/Gaim Refresh/status/32/scalable"
   sodipodi:docname="extended-away.svg"
   inkscape:export-filename="/home/hbons/Desktop/Gaim Refresh/status/32/extended-away.png"
   inkscape:export-xdpi="90"
   inkscape:export-ydpi="90"
   version="1.0">
  <defs
     id="defs1309">
    <linearGradient
       inkscape:collect="always"
       id="linearGradient2442">
      <stop
         style="stop-color:#ffffff;stop-opacity:1;"
         offset="0"
         id="stop2444" />
      <stop
         style="stop-color:#ffffff;stop-opacity:0;"
         offset="1"
         id="stop2446" />
    </linearGradient>
    <linearGradient
       inkscape:collect="always"
       id="linearGradient2218">
      <stop
         style="stop-color:#ffffff;stop-opacity:1;"
         offset="0"
         id="stop2220" />
      <stop
         style="stop-color:#ffffff;stop-opacity:0;"
         offset="1"
         id="stop2222" />
    </linearGradient>
    <linearGradient
       inkscape:collect="always"
       xlink:href="#linearGradient2218"
       id="linearGradient2224"
       x1="16.78166"
       y1="2.2841253"
       x2="16.78166"
       y2="31.254913"
       gradientUnits="userSpaceOnUse" />
    <linearGradient
       inkscape:collect="always"
       id="linearGradient3816">
      <stop
         style="stop-color:#000000;stop-opacity:1;"
         offset="0"
         id="stop3818" />
      <stop
         style="stop-color:#000000;stop-opacity:0;"
         offset="1"
         id="stop3820" />
    </linearGradient>
    <radialGradient
       inkscape:collect="always"
       xlink:href="#linearGradient3816"
       id="radialGradient3822"
       cx="31.112698"
       cy="19.008621"
       fx="31.112698"
       fy="19.008621"
       r="8.6620579"
       gradientUnits="userSpaceOnUse" />
    <linearGradient
       inkscape:collect="always"
       id="linearGradient2223">
      <stop
         style="stop-color:#ebf3ff;stop-opacity:1;"
         offset="0"
         id="stop2225" />
      <stop
         style="stop-color:#ebf3ff;stop-opacity:0;"
         offset="1"
         id="stop2227" />
    </linearGradient>
    <linearGradient
       inkscape:collect="always"
       id="linearGradient2215">
      <stop
         style="stop-color:#ffffff;stop-opacity:1;"
         offset="0"
         id="stop2217" />
      <stop
         style="stop-color:#ffffff;stop-opacity:0;"
         offset="1"
         id="stop2219" />
    </linearGradient>
    <linearGradient
       inkscape:collect="always"
       xlink:href="#linearGradient2215"
       id="linearGradient2221"
       x1="8.3892212"
       y1="10"
       x2="3.5579317"
       y2="10"
       gradientUnits="userSpaceOnUse" />
    <linearGradient
       inkscape:collect="always"
       xlink:href="#linearGradient2223"
       id="linearGradient2229"
       x1="12.56203"
       y1="10"
       x2="8.2020855"
       y2="10"
       gradientUnits="userSpaceOnUse" />
    <radialGradient
       inkscape:collect="always"
       xlink:href="#linearGradient3816"
       id="radialGradient2407"
       gradientUnits="userSpaceOnUse"
       cx="31.112698"
       cy="19.008621"
       fx="31.112698"
       fy="19.008621"
       r="8.6620579" />
    <linearGradient
       inkscape:collect="always"
       xlink:href="#linearGradient2223"
       id="linearGradient2409"
       gradientUnits="userSpaceOnUse"
       x1="12.56203"
       y1="10"
       x2="8.2020855"
       y2="10" />
    <linearGradient
       inkscape:collect="always"
       xlink:href="#linearGradient2215"
       id="linearGradient2411"
       gradientUnits="userSpaceOnUse"
       x1="8.3892212"
       y1="10"
       x2="3.5579317"
       y2="10" />
    <linearGradient
       inkscape:collect="always"
       xlink:href="#linearGradient2442"
       id="linearGradient2448"
       x1="12.921875"
       y1="4.6247787"
       x2="12.921875"
       y2="25.292774"
       gradientUnits="userSpaceOnUse" />
    <linearGradient
       gradientUnits="userSpaceOnUse"
       y2="31.254913"
       x2="16.78166"
       y1="2.2841253"
       x1="16.78166"
       id="linearGradient2302"
       xlink:href="#linearGradient2218"
       inkscape:collect="always" />
    <linearGradient
       gradientUnits="userSpaceOnUse"
       y2="10"
       x2="8.2020855"
       y1="10"
       x1="11.402334"
       id="linearGradient2300"
       xlink:href="#linearGradient2223"
       inkscape:collect="always" />
    <linearGradient
       gradientUnits="userSpaceOnUse"
       y2="10"
       x2="3.5579317"
       y1="10"
       x1="6.9676862"
       id="linearGradient2298"
       xlink:href="#linearGradient2215"
       inkscape:collect="always" />
    <radialGradient
       gradientUnits="userSpaceOnUse"
       r="8.6620579"
       fy="19.008621"
       fx="31.112698"
       cy="19.008621"
       cx="31.112698"
       id="radialGradient2284"
       xlink:href="#linearGradient3816"
       inkscape:collect="always" />
    <radialGradient
       inkscape:collect="always"
       xlink:href="#linearGradient3816"
       id="radialGradient2329"
       gradientUnits="userSpaceOnUse"
       cx="31.112698"
       cy="19.008621"
       fx="31.112698"
       fy="19.008621"
       r="8.6620579" />
    <linearGradient
       inkscape:collect="always"
       xlink:href="#linearGradient2223"
       id="linearGradient2331"
       gradientUnits="userSpaceOnUse"
       x1="12.56203"
       y1="10"
       x2="8.2020855"
       y2="10" />
    <linearGradient
       inkscape:collect="always"
       xlink:href="#linearGradient2215"
       id="linearGradient2333"
       gradientUnits="userSpaceOnUse"
       x1="8.3892212"
       y1="10"
       x2="3.5579317"
       y2="10" />
  </defs>
  <sodipodi:namedview
     id="base"
     pagecolor="#ffffff"
     bordercolor="#666666"
     borderopacity="1.0"
     inkscape:pageopacity="0.0"
     inkscape:pageshadow="2"
     inkscape:zoom="18.190884"
     inkscape:cx="25.389762"
     inkscape:cy="10.962876"
     inkscape:current-layer="layer1"
     showgrid="true"
     inkscape:grid-bbox="true"
     inkscape:document-units="px"
     fill="#edd400"
     showguides="true"
     inkscape:guide-bbox="true"
     inkscape:window-width="1268"
     inkscape:window-height="971"
     inkscape:window-x="6"
     inkscape:window-y="21" />
  <metadata
     id="metadata1312">
    <rdf:RDF>
      <cc:Work
         rdf:about="">
        <dc:format>image/svg+xml</dc:format>
        <dc:type
           rdf:resource="http://purl.org/dc/dcmitype/StillImage" />
      </cc:Work>
    </rdf:RDF>
  </metadata>
  <g
     id="layer1"
     inkscape:label="Layer 1"
     inkscape:groupmode="layer">
    <path
       d="M 39.774755 19.008621 A 8.6620579 8.6620579 0 1 1  22.45064,19.008621 A 8.6620579 8.6620579 0 1 1  39.774755 19.008621 z"
       sodipodi:ry="8.6620579"
       sodipodi:rx="8.6620579"
       sodipodi:cy="19.008621"
       sodipodi:cx="31.112698"
       id="path4318"
       style="opacity:0.6;color:#000000;fill:url(#radialGradient3822);fill-opacity:1;fill-rule:evenodd;stroke:none;stroke-width:1px;stroke-linecap:round;stroke-linejoin:round;marker:none;marker-start:none;marker-mid:none;marker-end:none;stroke-miterlimit:4;stroke-dasharray:none;stroke-dashoffset:0;stroke-opacity:1;visibility:visible;display:inline;overflow:visible"
       sodipodi:type="arc"
       transform="matrix(1.673967,0,0,0.403354,-36.58163,19.76375)" />
    <path
       style="fill:#edd400;fill-opacity:1;fill-rule:evenodd;stroke:#c17d11;stroke-width:0.99999988;stroke-miterlimit:4;stroke-dasharray:none;stroke-opacity:1"
       d="M 4.5080959,4.4269758 C 10.557346,4.4269758 20.15621,4.465285 27.184542,4.465285 C 27.184542,8.6448632 28.02146,21.037271 29.481401,27.685585 C 23.079726,29.361794 4.5346529,28.315941 4.5346529,28.315941 C 4.5346529,20.85508 4.5080959,13.687753 4.5080959,4.4269758 z "
       id="rect1315"
       sodipodi:nodetypes="ccccc" />
    <path
       sodipodi:type="inkscape:offset"
       inkscape:radius="-1.0393443"
       inkscape:original="M 4.5 4.4375 C 4.5 13.698277 4.5312502 20.851639 4.53125 28.3125 C 4.53125 28.3125 23.067075 29.363709 29.46875 27.6875 C 28.008809 21.039186 27.1875 8.6483284 27.1875 4.46875 C 20.159168 4.46875 10.54925 4.4375001 4.5 4.4375 z "
       xlink:href="#rect1315"
       style="opacity:0.7;fill:url(#linearGradient2448);fill-opacity:1;fill-rule:evenodd;stroke:#ffffff;stroke-width:1.00000024;stroke-miterlimit:4;stroke-opacity:1"
       id="path2197"
       inkscape:href="#rect1315"
       d="M 5.53125,3.53125 C 5.5336072,11.831399 5.5601429,18.573215 5.5625,25.375 C 6.3482241,25.398715 9.4703272,25.494413 14.09375,25.4375 C 18.884454,25.378528 24.215992,25.091659 27.34375,24.4375 C 26.107491,17.785975 26.144132,7.9866899 26.15625,3.5625 C 19.562455,3.5600347 11.310382,3.5337152 5.53125,3.53125 z " />
    <path
       style="fill:#888a85;fill-opacity:1;fill-rule:evenodd;stroke:none;stroke-width:1;stroke-miterlimit:4;stroke-opacity:1"
       d="M 13.749747,6.6050121 L 15.625,7.8883843 L 13.749747,9.9112132 L 13.749747,6.6050121 z "
       id="rect2325"
       sodipodi:nodetypes="cccc" />
    <path
       style="fill:#3465a4;fill-opacity:1;fill-rule:evenodd;stroke:#204a87;stroke-width:1.00000048;stroke-miterlimit:4;stroke-opacity:1"
       d="M 13.74852,8.4678156 C 13.74852,11.235194 11.509501,13.481182 8.7507066,13.481182 C 5.9919126,13.481182 3.7528913,11.235194 3.7528913,8.4678156 C 3.7528913,5.7004381 5.9919126,3.4544504 8.7507066,3.4544504 C 11.509501,3.4544504 13.74852,5.7004381 13.74852,8.4678156 z "
       id="path2193" />
    <path
       sodipodi:type="inkscape:offset"
       inkscape:radius="-0.95346487"
       inkscape:original="M 8.75 3.46875 C 5.991206 3.46875 3.75 5.7013727 3.75 8.46875 C 3.75 11.236128 5.9912059 13.46875 8.75 13.46875 C 11.508794 13.46875 13.75 11.236129 13.75 8.46875 C 13.75 5.7013725 11.508794 3.46875 8.75 3.46875 z "
       xlink:href="#path2193"
       style="opacity:0.5;fill:none;fill-opacity:1;fill-rule:evenodd;stroke:url(#linearGradient2229);stroke-width:1.00443506;stroke-miterlimit:4;stroke-opacity:1"
       id="path2203"
       inkscape:href="#path2193"
       d="M 7.75,4.4375 C 5.5128163,4.4375 3.71875,6.2474089 3.71875,8.5 C 3.71875,10.752592 5.5056158,12.53125 7.75,12.53125 C 9.994384,12.53125 11.78125,10.752592 11.78125,8.5 C 11.78125,6.2474086 9.9871838,4.4375001 7.75,4.4375 z "
       transform="matrix(1,0,0,0.991189,0,9.7192e-2)" />
    <path
       style="fill:#3465a4;fill-opacity:1;fill-rule:evenodd;stroke:#204a87;stroke-width:1.00000048;stroke-miterlimit:4;stroke-opacity:1"
       d="M 9.52976,8.000001 C 9.52976,9.9478989 7.9469225,11.5288 5.9966401,11.5288 C 4.0463575,11.5288 2.4635196,11.118871 2.4635196,8.000001 C 2.4635196,4.9643308 4.0463575,4.4712007 5.9966401,4.4712007 C 7.9469225,4.4712007 9.52976,6.0521032 9.52976,8.000001 z "
       id="path2191"
       sodipodi:nodetypes="cszsz" />
    <path
       sodipodi:type="inkscape:offset"
       inkscape:radius="-1.0040261"
       inkscape:original="M 6 4.46875 C 4.0497174 4.46875 2.46875 4.9643298 2.46875 8 C 2.46875 11.11887 4.0497173 11.53125 6 11.53125 C 7.9502824 11.53125 9.5312496 9.9478979 9.53125 8 C 9.53125 6.0521022 7.9502823 4.4687502 6 4.46875 z "
       xlink:href="#path2191"
       style="opacity:0.2;fill:none;fill-opacity:1;fill-rule:evenodd;stroke:url(#linearGradient2221);stroke-width:1;stroke-miterlimit:4;stroke-dasharray:none;stroke-opacity:1"
       id="path2205"
       inkscape:href="#path2191"
       d="M 6.25,5.75 C 5.2984865,5.75 4.6069837,5.9126162 4.21875,6.21875 C 3.8305163,6.5248838 3.5,7.0635578 3.5,8.5 C 3.5,9.9852307 3.8443679,10.527692 4.21875,10.8125 C 4.5931321,11.097308 5.2791948,11.21875 6.25,11.21875 C 7.7905436,11.21875 9,10.024112 9,8.5 C 9,6.9758887 7.7804565,5.7499999 6.25,5.75 z " />
    <path
       style="fill:#1f2325;fill-opacity:1;fill-rule:nonzero;stroke:none;stroke-width:1px;stroke-linecap:butt;stroke-linejoin:miter;stroke-opacity:1"
       id="path2321"
       d="M 7.4664419,21.790504 C 7.6171335,21.472639 7.5903631,21.080207 7.5738107,20.724054 C 7.5645966,20.328182 7.553531,19.931444 7.5628815,19.535434 C 7.6862086,18.934722 7.4223025,18.284509 7.5619837,17.695635 C 8.4913478,16.918611 8.779547,17.520222 8.9732134,18.535315 C 9.141714,19.316993 9.0808976,20.138929 9.3107603,20.904493 C 9.4229858,21.186719 9.5228874,21.533907 9.7862865,21.688466 C 9.8717985,21.738642 10.160546,21.650479 10.076139,21.702911 C 9.9277994,21.795056 9.7738321,21.875554 9.6226778,21.961876 C 10.166856,21.463073 10.350205,20.729344 10.396938,19.982391 C 10.435833,19.581606 10.451998,19.188952 10.399578,18.789123 C 10.166407,18.058179 10.990102,17.248796 11.51262,17.886694 C 11.720664,18.218895 11.740938,18.63542 11.90574,18.994554 C 11.947812,19.086236 12.251074,19.046225 12.168944,19.093863 C 11.395379,19.542562 11.603267,19.552673 11.755485,19.186599 C 11.923692,18.381531 12.070216,17.57428 12.262965,16.77402 C 12.355647,16.128047 13.073444,15.326089 13.632005,15.832071 C 13.922797,17.038416 13.775507,18.350327 13.779031,19.594719 C 13.762689,20.259909 13.823491,20.46924 14.391772,20.232099 C 14.673689,20.036509 15.879147,19.780615 14.605225,20.302133 C 14.428558,20.374457 14.592391,19.881822 14.551741,19.677654 C 14.406583,18.798019 14.328474,17.905712 14.205756,17.02013 C 13.741974,15.732 15.323052,14.999636 15.833449,16.332594 C 16.072345,16.847093 15.632116,17.920383 16.293839,17.999536 C 16.606773,18.008892 17.2325,17.627433 16.195304,18.221431 C 16.067604,18.294563 16.352036,17.945237 16.379382,17.788593 L 17,17.446903 C 16.917573,18.113071 16.305197,18.459743 15.730448,18.445044 C 15.022636,18.315751 15.472421,17.252659 15.259499,16.690238 C 15.157937,16.423212 14.979402,16.059468 14.690545,15.993681 C 14.578077,15.968067 14.259461,16.142923 14.352808,16.068695 C 15.057372,15.508443 14.634768,16.014378 14.806068,16.667643 C 14.92647,17.552937 14.989234,18.4456 15.143858,19.323134 C 15.406315,20.480254 14.551321,20.369083 13.850464,20.701846 C 13.232029,20.951398 13.149873,20.590349 13.181406,19.93174 C 13.214535,18.714058 13.356393,17.417552 13.040099,16.240856 C 12.944597,16.162057 12.592575,16.220478 12.692818,16.149313 C 13.641649,15.475716 12.957186,15.912077 12.883197,16.445334 C 12.677069,17.245994 12.508758,18.050062 12.37553,18.869996 C 11.749734,20.643047 11.14424,18.96046 10.923029,18.27894 C 10.603335,17.926927 10.411727,18.247051 11.147353,17.72929 C 11.203912,17.689479 10.787221,18.33988 11.013091,18.429835 C 11.062284,18.835092 11.071264,19.232258 11.01471,19.638079 C 10.962733,20.40254 10.779662,21.14716 10.248302,21.685351 C 9.3607654,22.279855 9.0841413,22.308764 8.7096713,21.275282 C 8.4697235,20.505358 8.564412,19.671829 8.3875807,18.884671 C 8.3162099,18.539051 8.2444032,18.154232 8.0131768,17.89074 C 7.9316171,17.7978 7.5991028,17.793749 7.6969194,17.722745 C 7.8618476,17.603021 8.4763633,17.236704 8.2003734,17.378751 C 8.0348997,17.946135 8.2494951,18.593839 8.1876043,19.188648 C 8.1698229,19.58173 8.1803028,19.97754 8.1900281,20.370998 C 8.2081877,20.74632 8.2130102,21.123443 8.1240771,21.487995 L 7.4664419,21.790504 z " />
    <path
       style="fill:#1f2325;fill-opacity:1;fill-rule:nonzero;stroke:none;stroke-width:1px;stroke-linecap:butt;stroke-linejoin:miter;stroke-opacity:1"
       id="path2323"
       d="M 24.902817,19.286144 C 24.74629,19.580709 24.774097,19.944379 24.79129,20.274426 C 24.800861,20.641282 24.812355,21.008939 24.80264,21.375924 C 24.674538,21.932605 24.948665,22.535158 24.803574,23.080869 C 23.838216,23.80094 23.538852,23.243425 23.337684,22.302736 C 23.162656,21.578352 23.225828,20.816663 22.987063,20.10721 C 22.87049,19.845673 22.76672,19.523932 22.493119,19.380702 C 22.404296,19.334204 22.104364,19.415905 22.192041,19.367317 C 22.346124,19.281926 22.506057,19.207327 22.663065,19.127333 C 22.09781,19.589576 21.907359,20.269524 21.858815,20.961727 C 21.818415,21.333135 21.801623,21.697009 21.856073,22.067532 C 22.098275,22.7449 21.242678,23.494957 20.69992,22.903814 C 20.48382,22.595962 20.462759,22.209969 20.291574,21.877159 C 20.247873,21.792194 19.932864,21.829275 20.018176,21.785128 C 20.821704,21.369318 20.605763,21.359947 20.447648,21.699188 C 20.272926,22.445248 20.120725,23.193329 19.920512,23.934933 C 19.824241,24.533558 19.078644,25.276734 18.498446,24.80784 C 18.196392,23.689917 18.349388,22.474165 18.345726,21.320983 C 18.362702,20.70455 18.299545,20.510563 17.709252,20.730322 C 17.416416,20.911575 16.164267,21.148713 17.487532,20.665419 C 17.67104,20.598399 17.500864,21.054924 17.543086,21.244128 C 17.693869,22.059287 17.775002,22.886191 17.902472,23.706862 C 18.38422,24.900575 16.741902,25.57926 16.211735,24.344003 C 15.963585,23.867215 16.420866,22.872595 15.733513,22.799243 C 15.408459,22.790574 14.758495,23.144072 15.835866,22.593613 C 15.968511,22.52584 15.673063,22.849563 15.644657,22.994726 L 15,23.31137 C 15.08562,22.69403 15.721716,22.372768 16.318726,22.38639 C 17.053954,22.506205 16.586747,23.491375 16.807916,24.012573 C 16.913412,24.260027 17.098863,24.59711 17.398906,24.658075 C 17.515731,24.681812 17.846689,24.519773 17.749726,24.588559 C 17.017873,25.107746 17.456845,24.638894 17.278909,24.033512 C 17.153843,23.213108 17.08865,22.385875 16.928037,21.57266 C 16.655414,20.500356 17.543525,20.603378 18.271528,20.295007 C 18.913916,20.063744 18.999253,20.39833 18.966499,21.008665 C 18.932088,22.137094 18.784734,23.33857 19.11328,24.429017 C 19.212481,24.50204 19.578137,24.4479 19.47401,24.513851 C 18.488429,25.138075 19.199404,24.733695 19.276259,24.239527 C 19.490371,23.497554 19.6652,22.752422 19.803589,21.992587 C 20.453622,20.349496 21.082568,21.908754 21.312349,22.540319 C 21.644424,22.86653 21.843455,22.569871 21.079334,23.049682 C 21.020585,23.086574 21.453416,22.483845 21.218798,22.400483 C 21.167699,22.024932 21.158371,21.656878 21.217118,21.2808 C 21.271106,20.572373 21.461269,19.882332 22.013209,19.383589 C 22.935122,18.832661 23.22246,18.805872 23.611435,19.763601 C 23.860676,20.477092 23.762321,21.249526 23.945999,21.978987 C 24.020135,22.299274 24.094725,22.655886 24.334906,22.900065 C 24.419624,22.986194 24.765016,22.989948 24.663414,23.055747 C 24.492096,23.166695 23.853779,23.506162 24.140459,23.374525 C 24.312341,22.84873 24.089434,22.248499 24.153722,21.69729 C 24.172192,21.333021 24.161306,20.966223 24.151203,20.601604 C 24.13234,20.253793 24.127334,19.90431 24.21971,19.56648 L 24.902817,19.286144 z " />
    <path
       style="fill:#1f2325;fill-opacity:1;fill-rule:nonzero;stroke:none;stroke-width:1px;stroke-linecap:butt;stroke-linejoin:miter;stroke-opacity:1"
       id="path2325"
       d="M 19.434371,17.997739 C 19.583934,17.787903 19.056933,18.227677 18.856826,18.316432 C 18.689706,18.390555 19.008924,17.961456 19.043842,17.771658 C 19.138359,17.257908 19.151802,16.715855 19.142419,16.19344 C 18.976609,15.560293 19.220874,14.76829 19.99978,15.063775 C 20.528061,15.484111 21.121779,15.449251 21.713451,15.571757 C 21.971675,15.987856 21.571998,16.490821 21.710246,16.920641 C 22.348603,16.68343 23.142157,16.604952 23.728112,16.233558 C 23.555872,16.336972 23.386976,16.447029 23.211392,16.543799 C 23.10366,16.603173 23.40537,16.349058 23.412144,16.219682 C 23.426732,15.941106 23.078888,15.635634 22.92216,15.441116 L 23.536507,15.048071 C 24.162131,15.887481 24.256767,16.159049 23.175256,16.709785 C 22.574631,17.029295 21.729113,17.284671 21.083753,17.316818 C 20.882967,16.899514 21.297701,16.431856 21.119644,16.008156 C 20.514216,15.913603 19.945832,15.855236 19.397048,15.496677 C 18.83123,15.343594 19.932847,14.478665 19.766147,15.853187 C 19.758462,16.970485 19.880276,17.928468 18.835791,18.462694 L 19.434371,17.997739 z " />
  </g>
</svg>
