<?xml version="1.0" encoding="UTF-8" standalone="no"?>
<!-- Created with Inkscape (http://www.inkscape.org/) -->
<svg
   xmlns:dc="http://purl.org/dc/elements/1.1/"
   xmlns:cc="http://creativecommons.org/ns#"
   xmlns:rdf="http://www.w3.org/1999/02/22-rdf-syntax-ns#"
   xmlns:svg="http://www.w3.org/2000/svg"
   xmlns="http://www.w3.org/2000/svg"
   xmlns:xlink="http://www.w3.org/1999/xlink"
   xmlns:sodipodi="http://sodipodi.sourceforge.net/DTD/sodipodi-0.dtd"
   xmlns:inkscape="http://www.inkscape.org/namespaces/inkscape"
   width="16"
   height="16"
   id="svg2"
   sodipodi:version="0.32"
   inkscape:version="0.46"
   version="1.0"
   sodipodi:docbase="/home/hbons/Desktop/Gaim Refresh/emblems/scalable"
   sodipodi:docname="qq-member.svg"
   inkscape:export-filename="/home/hbons/Desktop/Gaim Refresh/emblems/qq-member.png"
   inkscape:export-xdpi="90"
   inkscape:export-ydpi="90"
   inkscape:output_extension="org.inkscape.output.svg.inkscape">
  <defs
     id="defs4" />
  <sodipodi:namedview
     id="base"
     pagecolor="#ffffff"
     bordercolor="#666666"
     borderopacity="1.0"
     inkscape:pageopacity="0.0"
     inkscape:pageshadow="2"
     inkscape:zoom="31.678384"
     inkscape:cx="14.657198"
     inkscape:cy="9.1928113"
     inkscape:document-units="px"
     inkscape:current-layer="layer1"
     showgrid="true"
     showguides="true"
     inkscape:guide-bbox="true"
     fill="#f57900"
     inkscape:window-width="1268"
     inkscape:window-height="971"
     inkscape:window-x="6"
     inkscape:window-y="21" />
  <metadata
     id="metadata7">
    <rdf:RDF>
      <cc:Work
         rdf:about="">
        <dc:format>image/svg+xml</dc:format>
        <dc:type
           rdf:resource="http://purl.org/dc/dcmitype/StillImage" />
      </cc:Work>
    </rdf:RDF>
  </metadata>
  <g
     inkscape:label="Layer 1"
     inkscape:groupmode="layer"
     id="layer1">
    <path
       sodipodi:type="arc"
       style="opacity:1;fill:#f57900;fill-opacity:1;stroke:#ce5c00;stroke-width:1.46078622;stroke-miterlimit:4;stroke-dasharray:none;stroke-opacity:1"
       id="path2344"
       sodipodi:cx="3.4614794"
       sodipodi:cy="19.897507"
       sodipodi:rx="3.8204477"
       sodipodi:ry="1.8461224"
       d="M 7.2819271 19.897507 A 3.8204477 1.8461224 0 1 1  -0.35896826,19.897507 A 3.8204477 1.8461224 0 1 1  7.2819271 19.897507 z"
       transform="matrix(0.76425,0,0,0.77926,8.868813,-1.507098)" />
    <path
       sodipodi:type="arc"
       style="opacity:1;fill:#f57900;fill-opacity:1;stroke:#ce5c00;stroke-width:1.46078622;stroke-miterlimit:4;stroke-dasharray:none;stroke-opacity:1"
       id="path2340"
       sodipodi:cx="3.4614794"
       sodipodi:cy="19.897507"
       sodipodi:rx="3.8204477"
       sodipodi:ry="1.8461224"
       d="M 7.2819271 19.897507 A 3.8204477 1.8461224 0 1 1  -0.35896826,19.897507 A 3.8204477 1.8461224 0 1 1  7.2819271 19.897507 z"
       transform="matrix(0.76425,0,0,0.77926,1.868813,-1.507098)" />
    <path
       sodipodi:type="arc"
       style="opacity:1;fill:#555753;fill-opacity:1;stroke:#2e3436;stroke-width:3.17369032;stroke-miterlimit:4;stroke-dasharray:none;stroke-opacity:1"
       id="path2346"
       sodipodi:cx="11.230577"
       sodipodi:cy="16.820635"
       sodipodi:rx="7.0768023"
       sodipodi:ry="5.7434916"
       d="M 18.30738 16.820635 A 7.0768023 5.7434916 0 1 1  4.1537752,16.820635 A 7.0768023 5.7434916 0 1 1  18.30738 16.820635 z"
       transform="matrix(0.284233,0,0,0.349298,-0.692104,3.624594)" />
    <path
       sodipodi:type="arc"
       style="opacity:1;fill:#555753;fill-opacity:1;stroke:#2e3436;stroke-width:3.14814281;stroke-miterlimit:4;stroke-dasharray:none;stroke-opacity:1"
       id="path2348"
       sodipodi:cx="11.230577"
       sodipodi:cy="16.820635"
       sodipodi:rx="7.0768023"
       sodipodi:ry="5.7434916"
       d="M 18.30738 16.820635 A 7.0768023 5.7434916 0 1 1  4.1537752,16.820635 A 7.0768023 5.7434916 0 1 1  18.30738 16.820635 z"
       transform="matrix(0.287243,0,0,0.35127,10.30629,3.574208)" />
    <path
       sodipodi:type="arc"
       style="opacity:1;fill:#555753;fill-opacity:1;stroke:#2e3436;stroke-width:1.28010798;stroke-miterlimit:4;stroke-dasharray:none;stroke-opacity:1"
       id="path2322"
       sodipodi:cx="11.230577"
       sodipodi:cy="16.820635"
       sodipodi:rx="7.0768023"
       sodipodi:ry="5.7434916"
       d="M 18.30738 16.820635 A 7.0768023 5.7434916 0 1 1  4.1537752,16.820635 A 7.0768023 5.7434916 0 1 1  18.30738 16.820635 z"
       transform="matrix(0.778937,0,0,0.783435,-0.759922,-2.17753)" />
    <path
       style="fill:#eeeeec;fill-opacity:1;stroke:#babdb6;stroke-width:1.0000006;stroke-miterlimit:4;stroke-opacity:1"
       d="M 12.499168,11.000754 C 12.499168,12.928874 10.484543,14.493723 8.0022374,14.493723 C 5.5199315,14.493723 3.5053065,12.928874 3.5053065,11.000754 C 3.5053065,9.0726373 5.5199315,7.5077885 8.0022374,7.5077885 C 10.484543,7.5077885 12.499168,9.0726373 12.499168,11.000754 z "
       id="path2324" />
    <path
       style="fill:#ef2929;fill-opacity:1;stroke:#a40000;stroke-width:1.00000131;stroke-miterlimit:4;stroke-opacity:1"
       d="M 13.500455,9.0793411 C 13.500455,10.097614 11.053157,11.154467 7.858743,11.154467 C 7.0601403,11.154467 5.0724919,10.737992 2.9392977,12.494449 C 2.3961235,11.997703 1.7730984,11.677973 1.4999988,11.245381 C 2.656505,10.082571 2.1807148,9.5555594 2.1807148,9.0464228 C 2.1807148,8.0281496 4.5192556,7.4998051 7.7136673,7.4998051 C 10.908078,7.4998051 13.500455,8.0610678 13.500455,9.0793411 z "
       id="path2338"
       sodipodi:nodetypes="csccscc" />
    <path
       sodipodi:type="inkscape:offset"
       inkscape:radius="-1.0198945"
       inkscape:original="M 7.71875 7.5 C 4.5243383 7.5 2.1875 8.0129766 2.1875 9.03125 C 2.1875 9.5403866 2.6565062 10.08719 1.5 11.25 C 1.7730996 11.682592 2.3943258 12.003254 2.9375 12.5 C 5.0706942 10.743543 7.0451471 11.15625 7.84375 11.15625 C 11.038164 11.15625 13.5 10.112023 13.5 9.09375 C 13.5 8.0754767 10.913161 7.5000001 7.71875 7.5 z "
       xlink:href="#path2338"
       style="opacity:0.2;fill:#ef2929;fill-opacity:1;stroke:#ffffff;stroke-width:1.00000036;stroke-miterlimit:4;stroke-opacity:1"
       id="path2352"
       inkscape:href="#path2338"
       d="M 7.78125,7.78125 C 6.2056615,7.78125 4.8491705,7.9136549 4,8.15625 C 3.5754148,8.2775475 3.3004488,8.4430178 3.1875,8.53125 C 3.0745512,8.6194822 3.15625,8.5391895 3.15625,8.46875 C 3.15625,8.4575392 3.2894467,8.8656831 3.25,9.5 C 3.2272601,9.865665 2.8516835,10.300044 2.625,10.71875 C 2.7056245,10.790412 2.8603146,10.942134 3,11.0625 C 3.979307,10.38765 4.9560069,9.9645065 5.78125,9.84375 C 6.8285986,9.6904932 7.7226625,9.8125 7.9375,9.8125 C 9.4513866,9.8125 10.781471,9.5551666 11.65625,9.1875 C 12.09364,9.0036667 12.403103,8.7753999 12.5625,8.625 C 12.632635,8.5588241 12.610828,8.6154264 12.625,8.59375 C 12.474022,8.487747 12.139821,8.3148445 11.6875,8.1875 C 10.75734,7.925627 9.3503426,7.7812501 7.78125,7.78125 z " />
    <path
       style="fill:#555753;fill-opacity:1;stroke:#2e3436;stroke-width:0.99999952;stroke-miterlimit:4;stroke-opacity:1"
       d="M 7.1687017,0.50474152 L 8.7175626,0.50474152 C 10.884158,0.50474152 12.725973,2.4197619 13.271888,4.5023703 C 13.832643,6.6415931 13.596752,8.5000002 9.5621605,8.5000002 L 6.4045417,8.5000002 C 2.3634134,8.5000002 2.1742771,6.6415931 2.7350333,4.5023703 C 3.2579631,2.5074515 5.0021064,0.50474152 7.1687017,0.50474152 z "
       id="rect2317"
       sodipodi:nodetypes="ccsccsc" />
    <path
       sodipodi:type="inkscape:offset"
       inkscape:radius="-1.0200312"
       inkscape:original="M 7.15625 0.5 C 4.9896547 0.5 3.2729298 2.5050811 2.75 4.5 C 2.1892438 6.6392228 2.3651219 8.5000002 6.40625 8.5 L 9.5625 8.5 C 13.597092 8.5 13.842005 6.6392227 13.28125 4.5 C 12.735335 2.4173916 10.885345 0.49999997 8.71875 0.5 L 7.15625 0.5 z "
       xlink:href="#rect2317"
       style="opacity:0.1;fill:#555753;fill-opacity:1;stroke:#ffffff;stroke-width:0.9999997;stroke-miterlimit:4;stroke-opacity:1"
       id="path2355"
       inkscape:href="#rect2317"
       d="M 7.15625,1.53125 C 6.3973765,1.53125 5.6771094,1.8616365 5.0625,2.46875 C 4.4478906,3.0758635 3.9933517,3.9351753 3.78125,4.75 C 3.5273221,5.7255068 3.5403429,6.426123 3.75,6.75 C 3.9596571,7.073877 4.5574314,7.4687499 6.40625,7.46875 L 9.5625,7.46875 C 11.407817,7.46875 12.033042,7.0791701 12.25,6.75 C 12.466958,6.4208299 12.471262,5.7200702 12.21875,4.75 C 11.777347,3.0542739 10.264213,1.53125 8.71875,1.53125 L 7.15625,1.53125 z " />
    <path
       sodipodi:type="arc"
       style="opacity:1;fill:#eeeeec;fill-opacity:1;stroke:none;stroke-width:1;stroke-miterlimit:4;stroke-dasharray:none;stroke-opacity:1"
       id="path2326"
       sodipodi:cx="5.5383673"
       sodipodi:cy="3.4618888"
       sodipodi:rx="1.2307483"
       sodipodi:ry="2.4871371"
       d="M 6.7691156 3.4618888 A 1.2307483 2.4871371 0 1 1  4.307619,3.4618888 A 1.2307483 2.4871371 0 1 1  6.7691156 3.4618888 z"
       transform="matrix(0.812514,0,0,0.804137,1.499999,1.216166)" />
    <path
       sodipodi:type="arc"
       style="opacity:1;fill:#eeeeec;fill-opacity:1;stroke:none;stroke-width:1;stroke-miterlimit:4;stroke-dasharray:none;stroke-opacity:1"
       id="path2328"
       sodipodi:cx="5.5383673"
       sodipodi:cy="3.4618888"
       sodipodi:rx="1.2307483"
       sodipodi:ry="2.4871371"
       d="M 6.7691156 3.4618888 A 1.2307483 2.4871371 0 1 1  4.307619,3.4618888 A 1.2307483 2.4871371 0 1 1  6.7691156 3.4618888 z"
       transform="matrix(0.812514,0,0,0.804137,5.499999,1.216166)" />
    <path
       style="fill:#f57900;fill-opacity:1;stroke:#ce5c00;stroke-width:1.00000083;stroke-miterlimit:4;stroke-opacity:1"
       d="M 12.49879,7.4976412 C 12.49879,8.5974947 10.483202,9.4901278 7.9997082,9.4901278 C 5.5162155,9.4901278 3.5006267,8.5974947 3.5006267,7.4976412 C 3.5006267,6.3977886 5.5162155,5.5051544 7.9997082,5.5051544 C 10.483202,5.5051544 12.49879,6.3977886 12.49879,7.4976412 z "
       id="path2320" />
    <path
       sodipodi:type="arc"
       style="opacity:1;fill:#2e3436;fill-opacity:1;stroke:none;stroke-width:1;stroke-miterlimit:4;stroke-dasharray:none;stroke-opacity:1"
       id="path2330"
       sodipodi:cx="5.5383673"
       sodipodi:cy="3.4618888"
       sodipodi:rx="1.2307483"
       sodipodi:ry="2.4871371"
       d="M 6.7691156 3.4618888 A 1.2307483 2.4871371 0 1 1  4.307619,3.4618888 A 1.2307483 2.4871371 0 1 1  6.7691156 3.4618888 z"
       transform="matrix(0.406257,0,0,0.201034,7.250001,2.804042)" />
    <path
       sodipodi:type="arc"
       style="opacity:1;fill:#2e3436;fill-opacity:1;stroke:none;stroke-width:1;stroke-miterlimit:4;stroke-dasharray:none;stroke-opacity:1"
       id="path2332"
       sodipodi:cx="5.5383673"
       sodipodi:cy="3.4618888"
       sodipodi:rx="1.2307483"
       sodipodi:ry="2.4871371"
       d="M 6.7691156 3.4618888 A 1.2307483 2.4871371 0 1 1  4.307619,3.4618888 A 1.2307483 2.4871371 0 1 1  6.7691156 3.4618888 z"
       transform="matrix(0.406257,0,0,0.201034,4.25,2.804042)" />
    <path
       sodipodi:type="arc"
       style="opacity:0.19318183;fill:none;fill-opacity:1;stroke:#ffffff;stroke-width:1.99083459;stroke-miterlimit:4;stroke-dasharray:none;stroke-opacity:1"
       id="path2336"
       sodipodi:cx="13.296353"
       sodipodi:cy="10.923561"
       sodipodi:rx="8.2214088"
       sodipodi:ry="1.7085644"
       d="M 21.517762 10.923561 A 8.2214088 1.7085644 0 1 1  5.0749445,10.923561 A 8.2214088 1.7085644 0 1 1  21.517762 10.923561 z"
       transform="matrix(0.427975,0,0,0.589538,2.309499,1.065602)" />
  </g>
</svg>
