/* XPM */
static char * icon_offline_xpm[] = {
"12 12 5 1",
" 	c None",
".	c #000000",
"+	c #FFFFFF",
"@	c #F80000",
"#	c #F8FC00",
"   .. ..    ",
"  .+@.+@.   ",
"  .@@.@@... ",
" ...@.@@.+@.",
".+@@....+@@.",
".@@@.+#.... ",
" ....##.+@@.",
".+@@....@@@.",
".@@.+@.+... ",
" ...@@.@@.  ",
"   .@@.@@.  ",
"    .. ..   "};
