/* XPM */
static char * icon_occ_xpm[] = {
"12 12 7 1",
" 	c None",
".	c #000000",
"+	c #FFFFFF",
"@	c #808080",
"#	c #00FC00",
"$	c #F8FCF8",
"%	c #F80000",
"   .....    ",
"  .+.@.#.   ",
"  ...$..... ",
" .%%.$.%%...",
".%...$....%.",
"..%%..$$.%. ",
" ....$$$$...",
".+##.$..$.$.",
".##..$.$$.$.",
" ....$...@$.",
"   ..@$$$$..",
"    ....... "};
