/* XPM */
static char * icon_away_xpm[] = {
"12 12 7 1",
" 	c None",
".	c #000000",
"+	c #FFFFFF",
"@	c #00FC00",
"#	c #C0C0C0",
"$	c #F8FCF8",
"%	c #2C2C2C",
"   .. ..    ",
"  .+@..#.   ",
"  .@@.#$%.. ",
" ....$$$#.@.",
"...#$$$$$#..",
".#$$$$$$$$. ",
" .$$$$$$$$#.",
"..#$$$$$#...",
".@.$$$$#... ",
" ...$$#.@.  ",
"   .#..@@.  ",
"    .. ..   "};
