<?xml version="1.0" encoding="UTF-8" standalone="no"?>
<!-- Created with Inkscape (http://www.inkscape.org/) -->
<svg
   xmlns:dc="http://purl.org/dc/elements/1.1/"
   xmlns:cc="http://creativecommons.org/ns#"
   xmlns:rdf="http://www.w3.org/1999/02/22-rdf-syntax-ns#"
   xmlns:svg="http://www.w3.org/2000/svg"
   xmlns="http://www.w3.org/2000/svg"
   xmlns:xlink="http://www.w3.org/1999/xlink"
   xmlns:sodipodi="http://sodipodi.sourceforge.net/DTD/sodipodi-0.dtd"
   xmlns:inkscape="http://www.inkscape.org/namespaces/inkscape"
   width="24"
   height="24"
   id="svg1307"
   sodipodi:version="0.32"
   inkscape:version="0.46"
   sodipodi:docbase="/home/hbons/Desktop/Gaim Refresh/status/22"
   sodipodi:docname="extended-away.svg"
   inkscape:export-filename="/home/hbons/Desktop/Gaim Refresh/status/22/extended-away22.png"
   inkscape:export-xdpi="90"
   inkscape:export-ydpi="90"
   version="1.0"
   inkscape:output_extension="org.inkscape.output.svg.inkscape">
  <defs
     id="defs1309">
    <linearGradient
       inkscape:collect="always"
       id="linearGradient2442">
      <stop
         style="stop-color:#ffffff;stop-opacity:1;"
         offset="0"
         id="stop2444" />
      <stop
         style="stop-color:#ffffff;stop-opacity:0;"
         offset="1"
         id="stop2446" />
    </linearGradient>
    <linearGradient
       inkscape:collect="always"
       id="linearGradient3816">
      <stop
         style="stop-color:#000000;stop-opacity:1;"
         offset="0"
         id="stop3818" />
      <stop
         style="stop-color:#000000;stop-opacity:0;"
         offset="1"
         id="stop3820" />
    </linearGradient>
    <radialGradient
       inkscape:collect="always"
       xlink:href="#linearGradient3816"
       id="radialGradient3822"
       cx="31.112698"
       cy="19.008621"
       fx="31.112698"
       fy="19.008621"
       r="8.6620579"
       gradientUnits="userSpaceOnUse" />
    <linearGradient
       inkscape:collect="always"
       id="linearGradient2223">
      <stop
         style="stop-color:#ebf3ff;stop-opacity:1;"
         offset="0"
         id="stop2225" />
      <stop
         style="stop-color:#ebf3ff;stop-opacity:0;"
         offset="1"
         id="stop2227" />
    </linearGradient>
    <linearGradient
       inkscape:collect="always"
       id="linearGradient2215">
      <stop
         style="stop-color:#ffffff;stop-opacity:1;"
         offset="0"
         id="stop2217" />
      <stop
         style="stop-color:#ffffff;stop-opacity:0;"
         offset="1"
         id="stop2219" />
    </linearGradient>
    <linearGradient
       inkscape:collect="always"
       xlink:href="#linearGradient2215"
       id="linearGradient2221"
       x1="8.3892212"
       y1="10"
       x2="3.5579317"
       y2="10"
       gradientUnits="userSpaceOnUse" />
    <linearGradient
       inkscape:collect="always"
       xlink:href="#linearGradient2223"
       id="linearGradient2229"
       x1="12.56203"
       y1="10"
       x2="8.2020855"
       y2="10"
       gradientUnits="userSpaceOnUse" />
    <linearGradient
       inkscape:collect="always"
       xlink:href="#linearGradient2442"
       id="linearGradient2448"
       x1="12.921875"
       y1="4.6247787"
       x2="12.921875"
       y2="25.292774"
       gradientUnits="userSpaceOnUse" />
  </defs>
  <sodipodi:namedview
     id="base"
     pagecolor="#ffffff"
     bordercolor="#666666"
     borderopacity="1.0"
     inkscape:pageopacity="0.0"
     inkscape:pageshadow="2"
     inkscape:zoom="16.972694"
     inkscape:cx="21.574867"
     inkscape:cy="13.048292"
     inkscape:current-layer="layer1"
     showgrid="true"
     inkscape:grid-bbox="true"
     inkscape:document-units="px"
     fill="#edd400"
     showguides="true"
     inkscape:guide-bbox="true"
     inkscape:window-width="1268"
     inkscape:window-height="971"
     inkscape:window-x="6"
     inkscape:window-y="21" />
  <metadata
     id="metadata1312">
    <rdf:RDF>
      <cc:Work
         rdf:about="">
        <dc:format>image/svg+xml</dc:format>
        <dc:type
           rdf:resource="http://purl.org/dc/dcmitype/StillImage" />
      </cc:Work>
    </rdf:RDF>
  </metadata>
  <g
     id="layer1"
     inkscape:label="Layer 1"
     inkscape:groupmode="layer">
    <path
       d="M 39.774755 19.008621 A 8.6620579 8.6620579 0 1 1  22.45064,19.008621 A 8.6620579 8.6620579 0 1 1  39.774755 19.008621 z"
       sodipodi:ry="8.6620579"
       sodipodi:rx="8.6620579"
       sodipodi:cy="19.008621"
       sodipodi:cx="31.112698"
       id="path4318"
       style="opacity:0.6;color:#000000;fill:url(#radialGradient3822);fill-opacity:1;fill-rule:evenodd;stroke:none;stroke-width:1px;stroke-linecap:round;stroke-linejoin:round;marker:none;marker-start:none;marker-mid:none;marker-end:none;stroke-miterlimit:4;stroke-dasharray:none;stroke-dashoffset:0;stroke-opacity:1;visibility:visible;display:inline;overflow:visible"
       sodipodi:type="arc"
       transform="matrix(1.385352,0,0,0.346338,-31.10204,14.41659)" />
    <path
       style="fill:#edd400;fill-opacity:1;fill-rule:evenodd;stroke:#c17d11;stroke-width:1.00000024;stroke-miterlimit:4;stroke-dasharray:none;stroke-opacity:1"
       d="M 3.5354021,2.4509757 C 8.2976823,2.4509757 15.8544,2.4814924 21.387463,2.4814924 C 21.387463,5.8108984 21.267337,15.33223 22.416677,20.628203 C 17.376951,21.963453 3.5563092,21.480663 3.5563092,21.480663 C 3.5563092,15.537423 3.5354021,9.8280087 3.5354021,2.4509757 z "
       id="rect1315"
       sodipodi:nodetypes="ccccc" />
    <path
       sodipodi:type="inkscape:offset"
       inkscape:radius="-1.0393443"
       inkscape:original="M 3.53125 2.4375 C 3.53125 9.814533 3.5625 15.52551 3.5625 21.46875 C 3.5625 21.46875 17.366524 21.960251 22.40625 20.625 C 21.25691 15.329027 21.375 5.7981561 21.375 2.46875 C 15.841937 2.46875 8.2935302 2.4375 3.53125 2.4375 z "
       xlink:href="#rect1315"
       style="opacity:0.7;fill:url(#linearGradient2448);fill-opacity:1.0;fill-rule:evenodd;stroke:#ffffff;stroke-width:1.00000024;stroke-miterlimit:4;stroke-opacity:1"
       id="path2197"
       inkscape:href="#rect1315"
       d="M 4.21875,3.65625 C 4.3591263,4.537157 4.6587332,6.2489196 4.8125,9.5 C 4.9772457,12.983206 4.8497616,17.037671 3.78125,20.40625 C 5.5832318,20.450728 13.203339,20.560549 21.21875,19.84375 C 20.032959,14.807668 20.162255,10.896046 20.1875,3.6875 C 11.3223,4.8023606 7.670249,3.8584292 4.21875,3.65625 z " />
    <path
       style="fill:#888a85;fill-opacity:1;fill-rule:evenodd;stroke:none;stroke-width:1;stroke-miterlimit:4;stroke-opacity:1"
       d="M 11.499798,6.0001256 L 13,7.0268234 L 11.499798,8.6450863 L 11.499798,6.0001256 z "
       id="rect2325"
       sodipodi:nodetypes="cccc" />
    <path
       style="fill:#3465a4;fill-opacity:1;fill-rule:evenodd;stroke:#204a87;stroke-width:1.00000048;stroke-miterlimit:4;stroke-opacity:1"
       d="M 11.498816,7.4903683 C 11.498816,9.7042701 9.7076004,11.501061 7.5005649,11.501061 C 5.2935297,11.501061 3.5023127,9.7042701 3.5023127,7.4903683 C 3.5023127,5.2764663 5.2935297,3.4796762 7.5005649,3.4796762 C 9.7076004,3.4796762 11.498816,5.2764663 11.498816,7.4903683 z "
       id="path2193" />
    <path
       sodipodi:type="inkscape:offset"
       inkscape:radius="-0.95346487"
       inkscape:original="M 7.5 3.46875 C 5.2929648 3.46875 3.5 5.2860979 3.5 7.5 C 3.5 9.7139018 5.2929646 11.5 7.5 11.5 C 9.7070355 11.5 11.5 9.7139017 11.5 7.5 C 11.5 5.286098 9.7070353 3.46875 7.5 3.46875 z "
       xlink:href="#path2193"
       style="opacity:0.8;fill:none;fill-opacity:1;fill-rule:evenodd;stroke:url(#linearGradient2229);stroke-width:1.00443506;stroke-miterlimit:4;stroke-opacity:1"
       id="path2203"
       inkscape:href="#path2193"
       d="M 7.5,4.4375 C 5.8163751,4.4375 4.46875,5.800884 4.46875,7.5 C 4.46875,9.1991157 5.8073747,10.53125 7.5,10.53125 C 9.1926254,10.53125 10.53125,9.1991156 10.53125,7.5 C 10.53125,5.8008841 9.183625,4.4375 7.5,4.4375 z "
       transform="matrix(1,0,0,0.991189,0,9.7192e-2)" />
    <path
       style="fill:#3465a4;fill-opacity:1;fill-rule:evenodd;stroke:#204a87;stroke-width:1.00000036;stroke-miterlimit:4;stroke-opacity:1"
       d="M 8.5053755,7.5041184 C 8.5053755,9.1576797 7.1589674,10.4997 5.4999997,10.4997 C 3.8410319,10.4997 2.4946233,10.151713 2.4946233,7.5041184 C 2.4946233,4.9271515 3.8410319,4.5085356 5.4999997,4.5085356 C 7.1589674,4.5085356 8.5053755,5.8505566 8.5053755,7.5041184 z "
       id="path2191"
       sodipodi:nodetypes="cszsz" />
    <path
       sodipodi:type="inkscape:offset"
       inkscape:radius="-1.0040261"
       inkscape:original="M 5.5 4.5 C 3.8410322 4.5 2.5000001 4.9230331 2.5 7.5 C 2.5 10.147595 3.8410324 10.5 5.5 10.5 C 7.1589677 10.5 8.4999996 9.1535613 8.5 7.5 C 8.5 5.8464382 7.1589679 4.5000002 5.5 4.5 z "
       xlink:href="#path2191"
       style="opacity:0.4;fill:none;fill-opacity:1;fill-rule:evenodd;stroke:url(#linearGradient2221);stroke-width:1;stroke-miterlimit:4;stroke-dasharray:none;stroke-opacity:1"
       id="path2205"
       inkscape:href="#path2191"
       d="M 5.46875,5.5 C 4.7130748,5.5 4.1942447,5.6144004 3.9375,5.8125 C 3.6807553,6.0105996 3.4375,6.3693657 3.4375,7.46875 C 3.4375,8.6078647 3.6909149,8.9386748 3.9375,9.125 C 4.1840851,9.3113252 4.6991068,9.4375 5.46875,9.4375 C 6.61486,9.4375 7.5000001,8.5542197 7.5,7.46875 C 7.5,6.3832798 6.6148604,5.5000001 5.46875,5.5 z " />
    <path
       style="fill:#1f2325;fill-opacity:1;fill-rule:nonzero;stroke:none;stroke-width:1px;stroke-linecap:butt;stroke-linejoin:miter;stroke-opacity:1"
       id="path2426"
       d="M 7.0470024,15.413824 C 6.9072231,13.985828 7.008631,13.796619 8.3442977,13.052956 C 9.0148939,12.935076 9.524414,12.969636 9.7985228,13.623732 C 9.9394033,14.375105 9.9616293,15.182355 10.51014,15.774306 C 10.4242,16.265055 12.048025,15.57261 11.83365,15.691826 C 10.755777,16.291244 11.088411,16.329076 11.131175,15.787408 C 10.864796,14.731244 12.292065,13.49309 13.157711,14.396267 C 13.100906,14.504226 13.619018,14.415019 13.514471,14.477885 C 12.358461,15.173013 12.956097,14.57223 12.970219,13.741642 L 13.883119,13.282859 C 13.839102,14.121802 13.472034,15.608151 12.291954,14.925302 C 11.766087,14.417284 11.391884,14.853814 12.51374,14.171493 C 12.609674,14.113146 11.539868,15.158227 12.023876,15.314569 C 12.223926,16.261124 10.309656,16.814511 9.6501495,16.304378 C 9.1041704,15.690168 9.035487,14.890332 8.9135374,14.114959 C 8.6522172,13.529844 8.1280107,13.532657 7.5389634,13.684574 C 8.707984,12.967806 7.6130286,13.527587 7.9794753,14.938706 L 7.0470024,15.413824 z " />
    <path
       style="fill:#1f2325;fill-opacity:1;fill-rule:nonzero;stroke:none;stroke-width:1px;stroke-linecap:butt;stroke-linejoin:miter;stroke-opacity:1"
       id="path2428"
       d="M 15.168543,12.616134 C 16.560586,11.696074 15.552304,13.075919 15.83051,14.159512 C 15.76948,14.710758 17.129397,14.174789 16.91402,14.292459 C 15.648965,14.983614 16.442889,14.539051 16.728387,14.054989 C 17.132944,13.055989 17.956669,12.64758 18.836632,13.231764 C 17.969841,13.761801 18.204351,13.531307 18.013401,12.682276 L 18.89371,12.210338 C 19.081332,13.152856 19.147894,13.342395 17.974364,13.784982 C 17.760151,13.639556 17.029901,13.639611 17.250317,13.50377 C 18.578858,12.684999 17.864671,13.062807 17.64402,13.647143 C 17.153474,14.521313 15.764203,15.643424 14.942576,14.660446 C 14.633305,13.530442 14.911674,12.451417 16.016579,12 L 15.168543,12.616134 z " />
    <path
       style="fill:#1f2325;fill-opacity:1;fill-rule:nonzero;stroke:none;stroke-width:1px;stroke-linecap:butt;stroke-linejoin:miter;stroke-opacity:1"
       id="path2432"
       d="M 10.047002,16.586176 C 9.9072232,18.014172 10.008631,18.203381 11.344297,18.947044 C 12.014894,19.064924 12.524414,19.030364 12.798523,18.376268 C 12.939403,17.624895 12.961629,16.817645 13.51014,16.225694 C 13.4242,15.734945 15.048025,16.42739 14.83365,16.308174 C 13.755777,15.708756 14.088411,15.670924 14.131175,16.212592 C 13.864796,17.268756 15.292065,18.50691 16.157711,17.603733 C 16.100906,17.495774 16.619018,17.584981 16.514471,17.522115 C 15.358461,16.826987 15.956097,17.42777 15.970219,18.258358 L 16.883119,18.717141 C 16.839102,17.878198 16.472034,16.391849 15.291954,17.074698 C 14.766087,17.582716 14.391884,17.146186 15.51374,17.828507 C 15.609674,17.886854 14.539868,16.841773 15.023876,16.685431 C 15.223926,15.738876 13.309656,15.185489 12.650149,15.695622 C 12.10417,16.309832 12.035487,17.109668 11.913537,17.885041 C 11.652217,18.470156 11.12801,18.467343 10.538963,18.315426 C 11.707984,19.032194 10.613028,18.472413 10.979475,17.061294 L 10.047002,16.586176 z " />
  </g>
</svg>
