<?xml version="1.0" encoding="UTF-8" standalone="no"?>
<!-- Created with Inkscape (http://www.inkscape.org/) -->
<svg
   xmlns:dc="http://purl.org/dc/elements/1.1/"
   xmlns:cc="http://creativecommons.org/ns#"
   xmlns:rdf="http://www.w3.org/1999/02/22-rdf-syntax-ns#"
   xmlns:svg="http://www.w3.org/2000/svg"
   xmlns="http://www.w3.org/2000/svg"
   xmlns:xlink="http://www.w3.org/1999/xlink"
   xmlns:sodipodi="http://sodipodi.sourceforge.net/DTD/sodipodi-0.dtd"
   xmlns:inkscape="http://www.inkscape.org/namespaces/inkscape"
   width="24"
   height="24"
   id="svg2"
   sodipodi:version="0.32"
   inkscape:version="0.46"
   version="1.0"
   sodipodi:docbase="/home/hbons/Desktop/experiment/status/22/scalable"
   sodipodi:docname="offline.svg"
   inkscape:export-filename="/home/hbons/Desktop/Gaim Refresh/status/offline.png"
   inkscape:export-xdpi="90"
   inkscape:export-ydpi="90"
   inkscape:output_extension="org.inkscape.output.svg.inkscape">
  <defs
     id="defs4">
    <linearGradient
       inkscape:collect="always"
       id="linearGradient3034">
      <stop
         style="stop-color:#babdb6;stop-opacity:1"
         offset="0"
         id="stop3036" />
      <stop
         style="stop-color:#d3d7cf;stop-opacity:0;"
         offset="1"
         id="stop3038" />
    </linearGradient>
    <linearGradient
       inkscape:collect="always"
       id="linearGradient2225">
      <stop
         style="stop-color:#eeeeec;stop-opacity:1;"
         offset="0"
         id="stop2227" />
      <stop
         style="stop-color:#eeeeec;stop-opacity:0;"
         offset="1"
         id="stop2229" />
    </linearGradient>
    <linearGradient
       inkscape:collect="always"
       xlink:href="#linearGradient2225"
       id="linearGradient2231"
       x1="11.802028"
       y1="1.9986149"
       x2="11.802028"
       y2="14.895812"
       gradientUnits="userSpaceOnUse" />
    <linearGradient
       inkscape:collect="always"
       id="linearGradient2812">
      <stop
         style="stop-color:#2e3436;stop-opacity:1;"
         offset="0"
         id="stop2814" />
      <stop
         style="stop-color:#2e3436;stop-opacity:0;"
         offset="1"
         id="stop2816" />
    </linearGradient>
    <radialGradient
       inkscape:collect="always"
       xlink:href="#linearGradient2812"
       id="radialGradient3021"
       gradientUnits="userSpaceOnUse"
       cx="31.112698"
       cy="19.008621"
       fx="31.112698"
       fy="19.008621"
       r="8.6620579" />
    <linearGradient
       inkscape:collect="always"
       xlink:href="#linearGradient3034"
       id="linearGradient3040"
       x1="11.500003"
       y1="19.000008"
       x2="11.500003"
       y2="9.3821249"
       gradientUnits="userSpaceOnUse" />
  </defs>
  <sodipodi:namedview
     id="base"
     pagecolor="#ffffff"
     bordercolor="#666666"
     borderopacity="1.0"
     inkscape:pageopacity="0.0"
     inkscape:pageshadow="2"
     inkscape:zoom="20.899939"
     inkscape:cx="22.169755"
     inkscape:cy="10.589231"
     inkscape:document-units="px"
     inkscape:current-layer="layer1"
     showgrid="true"
     fill="#888a85"
     inkscape:window-width="1434"
     inkscape:window-height="844"
     inkscape:window-x="0"
     inkscape:window-y="0"
     showguides="true"
     inkscape:guide-bbox="true" />
  <metadata
     id="metadata7">
    <rdf:RDF>
      <cc:Work
         rdf:about="">
        <dc:format>image/svg+xml</dc:format>
        <dc:type
           rdf:resource="http://purl.org/dc/dcmitype/StillImage" />
      </cc:Work>
    </rdf:RDF>
  </metadata>
  <g
     inkscape:label="Layer 1"
     inkscape:groupmode="layer"
     id="layer1">
    <path
       d="M 39.774755 19.008621 A 8.6620579 8.6620579 0 1 1  22.45064,19.008621 A 8.6620579 8.6620579 0 1 1  39.774755 19.008621 z"
       sodipodi:ry="8.6620579"
       sodipodi:rx="8.6620579"
       sodipodi:cy="19.008621"
       sodipodi:cx="31.112698"
       id="path1948"
       style="color:black;fill:url(#radialGradient3021);fill-opacity:1;fill-rule:evenodd;stroke:none;stroke-width:1px;stroke-linecap:round;stroke-linejoin:round;marker:none;marker-start:none;marker-mid:none;marker-end:none;stroke-miterlimit:4;stroke-dasharray:none;stroke-dashoffset:0;stroke-opacity:1;visibility:visible;display:inline;overflow:visible"
       sodipodi:type="arc"
       transform="matrix(1.269906,0,0,0.346338,-27.5102,14.41659)" />
    <path
       style="fill:#888a85;fill-opacity:1;stroke:#2e3436;stroke-width:0.99999821;stroke-miterlimit:4;stroke-opacity:1"
       d="M 19.27853,19.278538 C 14.983883,23.573188 8.0135883,23.573914 3.719837,19.280161 C -0.57391464,14.986408 -0.57318755,8.0161106 3.72146,3.7214613 C 8.0161072,-0.57318761 14.986402,-0.57391481 19.280153,3.7198384 C 23.573904,8.0135915 23.573178,14.983889 19.27853,19.278538 z "
       id="path2187" />
    <path
       style="opacity:0.4;fill:url(#linearGradient2231);fill-opacity:1;stroke:white;stroke-width:0.99999809;stroke-miterlimit:4;stroke-opacity:1"
       d="M 11.5,1.5 C 8.9408673,1.500267 6.3904601,2.4845389 4.4375,4.4375 C 0.53092837,8.3440732 0.53180564,14.656804 4.4375,18.5625 C 8.3431938,22.468195 14.655929,22.469073 18.5625,18.5625 C 22.469072,14.655927 22.468194,8.3431958 18.5625,4.4375 C 16.609962,2.4849619 14.058743,1.4997331 11.5,1.5 z "
       id="path2215" />
    <path
       style="opacity:1;fill:#eeeeec;fill-opacity:1;stroke:none;stroke-width:1.00000024;stroke-miterlimit:4;stroke-dasharray:none;stroke-opacity:1"
       d="M 15.527292,4.7878577 C 15.153659,4.4142246 14.558496,4.4142246 14.184863,4.7878577 L 11.500003,7.4727164 L 8.7941693,4.7668822 C 8.4383282,4.4110411 7.849532,4.4110411 7.4936909,4.7668822 L 4.7668812,7.4936919 C 4.4110402,7.8495329 4.4110401,8.4383292 4.7668812,8.7941703 L 7.4727154,11.500004 L 4.7878567,14.184864 C 4.4142238,14.558497 4.4142236,15.15366 4.7878567,15.527293 L 7.4727154,18.212151 C 7.8463484,18.585784 8.4415118,18.585784 8.8151448,18.212151 L 11.500003,15.527293 L 14.205838,18.233126 C 14.561679,18.588967 15.150475,18.588967 15.506317,18.233126 L 18.233125,15.506318 C 18.588966,15.150476 18.588965,14.56168 18.233125,14.205839 L 15.527292,11.500004 L 18.21215,8.8151458 C 18.585783,8.4415126 18.585784,7.84635 18.21215,7.4727164 L 15.527292,4.7878577 z "
       id="path3032" />
    <path
       style="opacity:1;fill:url(#linearGradient3040);fill-opacity:1.0;stroke:#555753;stroke-width:1.00000024;stroke-miterlimit:4;stroke-dasharray:none;stroke-opacity:1"
       d="M 15.527292,4.7878577 C 15.153659,4.4142246 14.558496,4.4142246 14.184863,4.7878577 L 11.500003,7.4727164 L 8.7941693,4.7668822 C 8.4383282,4.4110411 7.849532,4.4110411 7.4936909,4.7668822 L 4.7668812,7.4936919 C 4.4110402,7.8495329 4.4110401,8.4383292 4.7668812,8.7941703 L 7.4727154,11.500004 L 4.7878567,14.184864 C 4.4142238,14.558497 4.4142236,15.15366 4.7878567,15.527293 L 7.4727154,18.212151 C 7.8463484,18.585784 8.4415118,18.585784 8.8151448,18.212151 L 11.500003,15.527293 L 14.205838,18.233126 C 14.561679,18.588967 15.150475,18.588967 15.506317,18.233126 L 18.233125,15.506318 C 18.588966,15.150476 18.588965,14.56168 18.233125,14.205839 L 15.527292,11.500004 L 18.21215,8.8151458 C 18.585783,8.4415126 18.585784,7.84635 18.21215,7.4727164 L 15.527292,4.7878577 z "
       id="rect3024" />
    <path
       style="fill:none;fill-opacity:1;stroke:white;stroke-width:1.00000024;stroke-miterlimit:4;stroke-opacity:1"
       d="M 8.15625,5.625 L 5.625,8.15625 L 8.21875,10.78125 C 8.6216689,11.187934 8.6216689,11.843316 8.21875,12.25 L 5.625,14.875 L 8.125,17.375 L 10.75,14.78125 C 11.156684,14.378331 11.812066,14.378331 12.21875,14.78125 L 14.84375,17.375 L 17.375,14.84375 L 14.78125,12.21875 C 14.378331,11.812066 14.378331,11.156684 14.78125,10.75 L 17.375,8.125 L 14.875,5.625 L 12.25,8.21875 C 11.843316,8.6216689 11.187934,8.6216689 10.78125,8.21875 L 8.15625,5.625 z "
       id="path3050" />
  </g>
</svg>
