<?xml version="1.0" encoding="UTF-8" standalone="no"?>
<!-- Created with Inkscape (http://www.inkscape.org/) -->
<svg
   xmlns:dc="http://purl.org/dc/elements/1.1/"
   xmlns:cc="http://web.resource.org/cc/"
   xmlns:rdf="http://www.w3.org/1999/02/22-rdf-syntax-ns#"
   xmlns:svg="http://www.w3.org/2000/svg"
   xmlns="http://www.w3.org/2000/svg"
   xmlns:xlink="http://www.w3.org/1999/xlink"
   xmlns:sodipodi="http://inkscape.sourceforge.net/DTD/s odipodi-0.dtd"
   xmlns:inkscape="http://www.inkscape.org/namespaces/inkscape"
   width="24"
   height="24"
   id="svg2"
   sodipodi:version="0.32"
   inkscape:version="0.43"
   version="1.0"
   sodipodi:docbase="/home/hbons/Desktop/Gaim Refresh/status/22/scalable"
   sodipodi:docname="offline22.svg"
   inkscape:export-filename="/home/hbons/Desktop/Gaim Refresh/status/offline.png"
   inkscape:export-xdpi="90"
   inkscape:export-ydpi="90">
  <defs
     id="defs4">
    <linearGradient
       inkscape:collect="always"
       id="linearGradient3816">
      <stop
         style="stop-color:#000000;stop-opacity:1;"
         offset="0"
         id="stop3818" />
      <stop
         style="stop-color:#000000;stop-opacity:0;"
         offset="1"
         id="stop3820" />
    </linearGradient>
    <radialGradient
       inkscape:collect="always"
       xlink:href="#linearGradient3816"
       id="radialGradient3822"
       cx="31.112698"
       cy="19.008621"
       fx="31.112698"
       fy="19.008621"
       r="8.6620579"
       gradientUnits="userSpaceOnUse" />
    <linearGradient
       inkscape:collect="always"
       id="linearGradient3150">
      <stop
         style="stop-color:#2e3436;stop-opacity:1;"
         offset="0"
         id="stop3152" />
      <stop
         style="stop-color:#2e3436;stop-opacity:0;"
         offset="1"
         id="stop3154" />
    </linearGradient>
    <radialGradient
       inkscape:collect="always"
       xlink:href="#linearGradient3150"
       id="radialGradient3156"
       cx="10.748654"
       cy="10.457643"
       fx="10.748654"
       fy="10.457643"
       r="6.6449099"
       gradientTransform="matrix(-0.842757,5.698892e-16,-4.565819e-9,-0.35721,19.80716,14.19321)"
       gradientUnits="userSpaceOnUse" />
    <linearGradient
       inkscape:collect="always"
       id="linearGradient2235">
      <stop
         style="stop-color:#babdb6;stop-opacity:1;"
         offset="0"
         id="stop2237" />
      <stop
         style="stop-color:#babdb6;stop-opacity:0;"
         offset="1"
         id="stop2239" />
    </linearGradient>
    <linearGradient
       inkscape:collect="always"
       id="linearGradient2225">
      <stop
         style="stop-color:#eeeeec;stop-opacity:1;"
         offset="0"
         id="stop2227" />
      <stop
         style="stop-color:#eeeeec;stop-opacity:0;"
         offset="1"
         id="stop2229" />
    </linearGradient>
    <linearGradient
       inkscape:collect="always"
       xlink:href="#linearGradient2225"
       id="linearGradient2231"
       x1="11.802028"
       y1="1.9986149"
       x2="11.802028"
       y2="14.895812"
       gradientUnits="userSpaceOnUse" />
    <linearGradient
       inkscape:collect="always"
       xlink:href="#linearGradient2235"
       id="linearGradient2270"
       gradientUnits="userSpaceOnUse"
       x1="12.00096"
       y1="18.000015"
       x2="12.00096"
       y2="12.421011" />
  </defs>
  <sodipodi:namedview
     id="base"
     pagecolor="#ffffff"
     bordercolor="#666666"
     borderopacity="1.0"
     inkscape:pageopacity="0.0"
     inkscape:pageshadow="2"
     inkscape:zoom="20.899939"
     inkscape:cx="21.212814"
     inkscape:cy="11.149734"
     inkscape:document-units="px"
     inkscape:current-layer="layer1"
     showgrid="true"
     fill="#888a85"
     inkscape:window-width="1268"
     inkscape:window-height="971"
     inkscape:window-x="6"
     inkscape:window-y="21" />
  <metadata
     id="metadata7">
    <rdf:RDF>
      <cc:Work
         rdf:about="">
        <dc:format>image/svg+xml</dc:format>
        <dc:type
           rdf:resource="http://purl.org/dc/dcmitype/StillImage" />
      </cc:Work>
    </rdf:RDF>
  </metadata>
  <g
     inkscape:label="Layer 1"
     inkscape:groupmode="layer"
     id="layer1">
    <path
       d="M 39.774755 19.008621 A 8.6620579 8.6620579 0 1 1  22.45064,19.008621 A 8.6620579 8.6620579 0 1 1  39.774755 19.008621 z"
       sodipodi:ry="8.6620579"
       sodipodi:rx="8.6620579"
       sodipodi:cy="19.008621"
       sodipodi:cx="31.112698"
       id="path4318"
       style="opacity:0.7;color:#000000;fill:url(#radialGradient3822);fill-opacity:1;fill-rule:evenodd;stroke:none;stroke-width:1px;stroke-linecap:round;stroke-linejoin:round;marker:none;marker-start:none;marker-mid:none;marker-end:none;stroke-miterlimit:4;stroke-dasharray:none;stroke-dashoffset:0;stroke-opacity:1;visibility:visible;display:inline;overflow:visible"
       sodipodi:type="arc"
       transform="matrix(1.385352,0,0,0.634953,-31.10204,6.430418)" />
    <path
       style="fill:#888a85;fill-opacity:1;stroke:#555753;stroke-width:0.99999809;stroke-miterlimit:4;stroke-opacity:1"
       d="M 19.424962,19.424965 C 15.325526,23.524403 8.6720624,23.525096 4.5734814,19.426514 C 0.47490009,15.327931 0.47559413,8.6744652 4.5750306,4.5750271 C 8.6744668,0.4755893 15.32793,0.47489516 19.426511,4.573478 C 23.525092,8.6720606 23.524399,15.325527 19.424962,19.424965 z "
       id="path2187" />
    <path
       sodipodi:type="inkscape:offset"
       inkscape:radius="-1.0137641"
       inkscape:original="M 12 1.5 C 9.311882 1.5002804 6.612218 2.5127812 4.5625 4.5625 C 0.46306353 8.6619381 0.46391853 15.338917 4.5625 19.4375 C 8.661081 23.536082 15.338065 23.536938 19.4375 19.4375 C 23.536937 15.338062 23.53608 8.6610824 19.4375 4.5625 C 17.388209 2.5132086 14.688118 1.4997196 12 1.5 z "
       xlink:href="#path2187"
       style="fill:url(#linearGradient2231);fill-opacity:1.0;stroke:#ffffff;stroke-width:0.99999809;stroke-miterlimit:4;stroke-opacity:1;opacity:0.4"
       id="path2215"
       inkscape:href="#path2187"
       d="M 12,2.5 C 9.5663798,2.5002539 7.1342728,3.4282024 5.28125,5.28125 C 1.5710546,8.9914951 1.5718911,15.009341 5.28125,18.71875 C 8.9905967,22.428146 15.008567,22.428982 18.71875,18.71875 C 22.428945,15.008505 22.428107,8.990658 18.71875,5.28125 C 16.86613,3.4286052 14.43323,2.4997462 12,2.5 z " />
    <path
       style="opacity:1;fill:#eeeeec;fill-opacity:1;stroke:none;stroke-width:1.00000036;stroke-miterlimit:4;stroke-dasharray:none;stroke-opacity:1"
       d="M 15.713272,5.1062978 L 12.00096,8.8186095 L 8.2886482,5.1062978 L 5.0182784,8.3766676 L 8.7305901,12.088979 L 5.1066667,15.712903 L 8.3770366,18.983273 L 12.00096,15.359349 L 15.602786,18.961176 L 18.873156,15.690806 L 15.27133,12.088979 L 18.983642,8.3766676 L 15.713272,5.1062978 z "
       id="path2233" />
    <path
       style="opacity:1;fill:url(#linearGradient2270);fill-opacity:1;stroke:#555753;stroke-width:1.00000036;stroke-miterlimit:4;stroke-dasharray:none;stroke-opacity:1"
       d="M 15.713272,5.1062978 L 12.00096,8.8186095 L 8.2886482,5.1062978 L 5.0182784,8.3766676 L 8.7305901,12.088979 L 5.1066667,15.712903 L 8.3770366,18.983273 L 12.00096,15.359349 L 15.602786,18.961176 L 18.873156,15.690806 L 15.27133,12.088979 L 18.983642,8.3766676 L 15.713272,5.1062978 z "
       id="rect2204" />
    <path
       sodipodi:type="inkscape:offset"
       inkscape:radius="-1.0009557"
       inkscape:original="M 8.28125 5.09375 L 5.03125 8.375 L 8.71875 12.09375 L 5.09375 15.71875 L 8.375 18.96875 L 12 15.34375 L 15.59375 18.96875 L 18.875 15.6875 L 15.28125 12.09375 L 18.96875 8.375 L 15.71875 5.09375 L 12 8.8125 L 8.28125 5.09375 z "
       xlink:href="#rect2204"
       style="opacity:1;fill:none;fill-opacity:1;stroke:#e1e1e1;stroke-width:1.00000036;stroke-miterlimit:4;stroke-dasharray:none;stroke-opacity:1"
       id="path2268"
       inkscape:href="#rect2204"
       d="M 8.28125,6.53125 L 6.46875,8.375 L 9.4375,11.375 C 9.6319915,11.563548 9.7417695,11.822867 9.7417695,12.09375 C 9.7417695,12.364633 9.6319915,12.623952 9.4375,12.8125 L 6.53125,15.71875 L 8.375,17.53125 L 11.28125,14.625 C 11.469798,14.430508 11.729117,14.320731 12,14.320731 C 12.270883,14.320731 12.530202,14.430508 12.71875,14.625 L 15.59375,17.53125 L 17.4375,15.6875 L 14.5625,12.8125 C 14.368008,12.623952 14.258231,12.364633 14.258231,12.09375 C 14.258231,11.822867 14.368008,11.563548 14.5625,11.375 L 17.53125,8.375 L 15.71875,6.53125 L 12.71875,9.53125 C 12.530202,9.7257415 12.270883,9.8355195 12,9.8355195 C 11.729117,9.8355195 11.469798,9.7257415 11.28125,9.53125 L 8.28125,6.53125 z " />
  </g>
</svg>
