<?xml version="1.0" encoding="UTF-8" standalone="no"?>
<!-- Created with Inkscape (http://www.inkscape.org/) -->
<svg
   xmlns:dc="http://purl.org/dc/elements/1.1/"
   xmlns:cc="http://creativecommons.org/ns#"
   xmlns:rdf="http://www.w3.org/1999/02/22-rdf-syntax-ns#"
   xmlns:svg="http://www.w3.org/2000/svg"
   xmlns="http://www.w3.org/2000/svg"
   xmlns:xlink="http://www.w3.org/1999/xlink"
   xmlns:sodipodi="http://sodipodi.sourceforge.net/DTD/sodipodi-0.dtd"
   xmlns:inkscape="http://www.inkscape.org/namespaces/inkscape"
   width="16"
   height="16"
   id="svg7380"
   sodipodi:version="0.32"
   inkscape:version="0.46"
   sodipodi:docbase="/home/hbons/Desktop"
   sodipodi:docname="chat.svg"
   inkscape:export-filename="/home/hbons/Bureaublad/chat.png"
   inkscape:export-xdpi="90"
   inkscape:export-ydpi="90"
   inkscape:output_extension="org.inkscape.output.svg.inkscape"
   version="1.0">
  <defs
     id="defs7382">
    <linearGradient
       id="linearGradient9105"
       inkscape:collect="always">
      <stop
         id="stop9107"
         offset="0"
         style="stop-color:#75507b;stop-opacity:1" />
      <stop
         id="stop9109"
         offset="1"
         style="stop-color:#5c3566;stop-opacity:0;" />
    </linearGradient>
    <linearGradient
       id="linearGradient9099"
       inkscape:collect="always">
      <stop
         id="stop9101"
         offset="0"
         style="stop-color:#75507b;stop-opacity:1" />
      <stop
         id="stop9103"
         offset="1"
         style="stop-color:#5c3566;stop-opacity:0;" />
    </linearGradient>
    <linearGradient
       id="linearGradient9093"
       inkscape:collect="always">
      <stop
         id="stop9095"
         offset="0"
         style="stop-color:#3465a4;stop-opacity:1" />
      <stop
         id="stop9097"
         offset="1"
         style="stop-color:#5c3566;stop-opacity:0;" />
    </linearGradient>
    <linearGradient
       inkscape:collect="always"
       id="linearGradient8986">
      <stop
         style="stop-color:#ffffff;stop-opacity:1;"
         offset="0"
         id="stop8988" />
      <stop
         style="stop-color:#ffffff;stop-opacity:0;"
         offset="1"
         id="stop8990" />
    </linearGradient>
    <linearGradient
       inkscape:collect="always"
       id="linearGradient8978">
      <stop
         style="stop-color:#884a02;stop-opacity:1"
         offset="0"
         id="stop8980" />
      <stop
         style="stop-color:#b37124;stop-opacity:1"
         offset="1"
         id="stop8982" />
    </linearGradient>
    <linearGradient
       inkscape:collect="always"
       id="linearGradient8970">
      <stop
         style="stop-color:#b85400;stop-opacity:1"
         offset="0"
         id="stop8972" />
      <stop
         style="stop-color:#954400;stop-opacity:1"
         offset="1"
         id="stop8974" />
    </linearGradient>
    <linearGradient
       inkscape:collect="always"
       id="linearGradient8944">
      <stop
         style="stop-color:#ffffff;stop-opacity:1;"
         offset="0"
         id="stop8946" />
      <stop
         style="stop-color:#ffffff;stop-opacity:0;"
         offset="1"
         id="stop8948" />
    </linearGradient>
    <linearGradient
       inkscape:collect="always"
       id="linearGradient8920">
      <stop
         style="stop-color:#ffffff;stop-opacity:1;"
         offset="0"
         id="stop8922" />
      <stop
         style="stop-color:#ffffff;stop-opacity:0;"
         offset="1"
         id="stop8924" />
    </linearGradient>
    <linearGradient
       inkscape:collect="always"
       id="linearGradient8901">
      <stop
         style="stop-color:#ffffff;stop-opacity:1;"
         offset="0"
         id="stop8903" />
      <stop
         style="stop-color:#ffffff;stop-opacity:0;"
         offset="1"
         id="stop8905" />
    </linearGradient>
    <linearGradient
       inkscape:collect="always"
       id="linearGradient3327">
      <stop
         style="stop-color:#ffffff;stop-opacity:1;"
         offset="0"
         id="stop3329" />
      <stop
         style="stop-color:#ffffff;stop-opacity:0;"
         offset="1"
         id="stop3331" />
    </linearGradient>
    <linearGradient
       inkscape:collect="always"
       xlink:href="#linearGradient3327"
       id="linearGradient3409"
       gradientUnits="userSpaceOnUse"
       x1="32.26284"
       y1="18.39094"
       x2="40.463146"
       y2="28.908117" />
    <linearGradient
       inkscape:collect="always"
       xlink:href="#linearGradient3327"
       id="linearGradient8895"
       gradientUnits="userSpaceOnUse"
       x1="32.26284"
       y1="18.39094"
       x2="40.463146"
       y2="28.908117" />
    <linearGradient
       inkscape:collect="always"
       xlink:href="#linearGradient8901"
       id="linearGradient8907"
       x1="1.5392504"
       y1="5.5203876"
       x2="8.2186995"
       y2="19.06147"
       gradientUnits="userSpaceOnUse" />
    <linearGradient
       inkscape:collect="always"
       xlink:href="#linearGradient8920"
       id="linearGradient8926"
       x1="16.822878"
       y1="19.008617"
       x2="32.99292"
       y2="19.008623"
       gradientUnits="userSpaceOnUse" />
    <linearGradient
       inkscape:collect="always"
       xlink:href="#linearGradient8944"
       id="linearGradient8950"
       x1="21.635874"
       y1="16.722939"
       x2="34.254536"
       y2="19.008621"
       gradientUnits="userSpaceOnUse" />
    <linearGradient
       inkscape:collect="always"
       xlink:href="#linearGradient8970"
       id="linearGradient8976"
       x1="29.945496"
       y1="15.951253"
       x2="36.016682"
       y2="26.057554"
       gradientUnits="userSpaceOnUse" />
    <linearGradient
       inkscape:collect="always"
       xlink:href="#linearGradient8978"
       id="linearGradient8984"
       x1="34.021988"
       y1="23.42482"
       x2="28.033556"
       y2="13.403446"
       gradientUnits="userSpaceOnUse" />
    <linearGradient
       inkscape:collect="always"
       xlink:href="#linearGradient8986"
       id="linearGradient8992"
       x1="5.1100583"
       y1="5.9662361"
       x2="5.1100583"
       y2="14.328883"
       gradientUnits="userSpaceOnUse" />
    <linearGradient
       inkscape:collect="always"
       xlink:href="#linearGradient8986"
       id="linearGradient8996"
       gradientUnits="userSpaceOnUse"
       x1="5.1100583"
       y1="5.9662361"
       x2="5.1100583"
       y2="14.328883" />
    <linearGradient
       inkscape:collect="always"
       xlink:href="#linearGradient8901"
       id="linearGradient8998"
       gradientUnits="userSpaceOnUse"
       x1="5.1017504"
       y1="7.2391376"
       x2="10.718699"
       y2="18.06147" />
    <linearGradient
       inkscape:collect="always"
       xlink:href="#linearGradient9099"
       id="linearGradient9073"
       gradientUnits="userSpaceOnUse"
       gradientTransform="matrix(-1,0,0,1,22,-0.9999997)"
       x1="13.5"
       y1="15.016466"
       x2="13.5"
       y2="11.480932" />
    <linearGradient
       inkscape:collect="always"
       xlink:href="#linearGradient9105"
       id="linearGradient9081"
       gradientUnits="userSpaceOnUse"
       gradientTransform="translate(-11,-0.9999997)"
       x1="13.5"
       y1="15.016466"
       x2="13.5"
       y2="11.480932" />
    <linearGradient
       inkscape:collect="always"
       xlink:href="#linearGradient9093"
       id="linearGradient9091"
       gradientUnits="userSpaceOnUse"
       gradientTransform="matrix(-1,0,0,1,27,-1.9999997)"
       x1="13.5"
       y1="15.016466"
       x2="13.5"
       y2="11.480932" />
  </defs>
  <sodipodi:namedview
     id="base"
     pagecolor="#ffffff"
     bordercolor="#666666"
     borderopacity="1.0"
     inkscape:pageopacity="0.0"
     inkscape:pageshadow="2"
     inkscape:zoom="32"
     inkscape:cx="17.053842"
     inkscape:cy="7.0543638"
     inkscape:current-layer="layer1"
     showgrid="true"
     inkscape:grid-bbox="true"
     inkscape:document-units="px"
     inkscape:window-width="1440"
     inkscape:window-height="847"
     inkscape:window-x="0"
     inkscape:window-y="0"
     width="11px"
     height="11px"
     inkscape:snap-nodes="false"
     inkscape:snap-bbox="true"
     objecttolerance="7"
     gridtolerance="7"
     showguides="true"
     inkscape:guide-bbox="true">
    <inkscape:grid
       type="xygrid"
       id="grid2497"
       empspacing="5"
       visible="true"
       enabled="true" />
  </sodipodi:namedview>
  <metadata
     id="metadata7385">
    <rdf:RDF>
      <cc:Work
         rdf:about="">
        <dc:format>image/svg+xml</dc:format>
        <dc:type
           rdf:resource="http://purl.org/dc/dcmitype/StillImage" />
      </cc:Work>
    </rdf:RDF>
  </metadata>
  <g
     id="layer1"
     inkscape:label="Layer 1"
     inkscape:groupmode="layer">
    <path
       style="opacity:1;fill:#729fcf;fill-opacity:1;fill-rule:nonzero;stroke:#204a87;stroke-width:0.99999994;stroke-linecap:square;stroke-linejoin:miter;marker:none;marker-start:none;marker-mid:none;marker-end:none;stroke-miterlimit:4;stroke-dasharray:none;stroke-dashoffset:0;stroke-opacity:1;visibility:visible;display:inline;overflow:visible;enable-background:accumulate"
       d="M 10.5,6.4999997 C 13.26,6.4999997 15.5,8.2919998 15.5,10.5 L 15.5,13.010217 C 15.5,13.919263 14.969825,14.5 14.006545,14.5 L 6.949881,14.5 C 6.029272,14.5 5.503482,14.019448 5.503482,12.993824 C 5.503482,12.323147 5.5,11.14772 5.5,10.5 C 5.5,8.2919998 7.74,6.4999997 10.5,6.4999997 z"
       id="path8952"
       sodipodi:nodetypes="cccccscc" />
    <path
       d="M 39.774755,19.008621 A 8.6620579,8.6620579 0 1 1 22.45064,19.008621 A 8.6620579,8.6620579 0 1 1 39.774755,19.008621 z"
       sodipodi:ry="8.6620579"
       sodipodi:rx="8.6620579"
       sodipodi:cy="19.008621"
       sodipodi:cx="31.112698"
       id="path9012"
       style="opacity:0.625;fill:#ffffff;fill-opacity:1;stroke:none;stroke-width:2.88735723px;stroke-linecap:round;stroke-linejoin:round;marker:none;marker-start:none;marker-mid:none;marker-end:none;stroke-miterlimit:4;stroke-dasharray:none;stroke-dashoffset:0;stroke-opacity:1;visibility:visible;display:inline;overflow:visible"
       sodipodi:type="arc"
       transform="matrix(0.2041125,0.2041124,-0.2041124,0.2041125,8.0294047,-1.7303844)" />
    <path
       sodipodi:type="inkscape:offset"
       inkscape:radius="-1.0099438"
       inkscape:original="M 5.5 7.5 C 2.74 7.5 0.5 9.2920001 0.5 11.5 L 0.5 14 C 0.50000002 14.909046 1.03672 15.5 2 15.5 L 9.0625 15.5 C 9.9831085 15.5 10.5 15.025624 10.5 14 C 10.5 13.329323 10.5 12.14772 10.5 11.5 C 10.5 9.2920001 8.26 7.5 5.5 7.5 z "
       style="opacity:1;fill:url(#linearGradient8996);fill-opacity:1;fill-rule:nonzero;stroke:url(#linearGradient8998);stroke-width:0.99999994000000003;stroke-linecap:square;stroke-linejoin:miter;marker:none;marker-start:none;marker-mid:none;marker-end:none;stroke-miterlimit:4;stroke-dasharray:none;stroke-dashoffset:0;stroke-opacity:1;visibility:visible;display:inline;overflow:visible;enable-background:accumulate"
       id="path8994"
       d="M 5.5,8.5 C 3.1771545,8.5 1.5,9.9750539 1.5,11.5 L 1.5,14 C 1.5,14.255759 1.5835553,14.332452 1.625,14.375 C 1.6664447,14.417548 1.7248871,14.5 2,14.5 L 9.0625,14.5 C 9.3493345,14.5 9.3965243,14.447325 9.40625,14.4375 C 9.4159757,14.427675 9.5,14.343149 9.5,14 C 9.5,13.329323 9.5,12.14772 9.5,11.5 C 9.5,9.9750539 7.8228455,8.5 5.5,8.5 z"
       transform="translate(5,-1)" />
    <path
       sodipodi:type="arc"
       style="opacity:1;fill:#cdaa71;fill-opacity:1;fill-rule:evenodd;stroke:url(#linearGradient8984);stroke-width:2.16551828px;stroke-linecap:round;stroke-linejoin:round;marker:none;marker-start:none;marker-mid:none;marker-end:none;stroke-miterlimit:4;stroke-dasharray:none;stroke-dashoffset:0;stroke-opacity:1;visibility:visible;display:inline;overflow:visible"
       id="path8887"
       sodipodi:cx="31.112698"
       sodipodi:cy="19.008621"
       sodipodi:rx="8.6620579"
       sodipodi:ry="8.6620579"
       d="M 39.774755,19.008621 A 8.6620579,8.6620579 0 1 1 22.45064,19.008621 A 8.6620579,8.6620579 0 1 1 39.774755,19.008621 z"
       transform="matrix(0.461784,0,0,0.4617839,-3.8673469,-4.2778756)" />
    <path
       d="M 39.774755,19.008621 A 8.6620579,8.6620579 0 1 1 22.45064,19.008621 A 8.6620579,8.6620579 0 1 1 39.774755,19.008621 z"
       sodipodi:ry="8.6620579"
       sodipodi:rx="8.6620579"
       sodipodi:cy="19.008621"
       sodipodi:cx="31.112698"
       id="path8889"
       style="opacity:0.59722218000000005;fill:url(#linearGradient8950);fill-opacity:1;stroke:url(#linearGradient8895);stroke-width:2.88735342000000017;stroke-linecap:round;stroke-linejoin:round;marker:none;marker-start:none;marker-mid:none;marker-end:none;stroke-miterlimit:4;stroke-dasharray:none;stroke-dashoffset:0;stroke-opacity:1;visibility:visible;display:inline;overflow:visible"
       sodipodi:type="arc"
       transform="matrix(0.2448979,0.2448979,-0.2448979,0.2448979,7.5357341,-7.7746052)" />
    <path
       style="opacity:1;fill:#ad7fa8;fill-opacity:1;fill-rule:nonzero;stroke:#5c3566;stroke-width:0.99999994;stroke-linecap:square;stroke-linejoin:miter;marker:none;marker-start:none;marker-mid:none;marker-end:none;stroke-miterlimit:4;stroke-dasharray:none;stroke-dashoffset:0;stroke-opacity:1;visibility:visible;display:inline;overflow:visible;enable-background:accumulate"
       d="M 5.5,7.5000003 C 8.26,7.5000003 10.5,9.2920004 10.5,11.5 L 10.5,14.010217 C 10.5,14.919263 9.969825,15.5 9.006545,15.5 L 1.949881,15.5 C 1.029272,15.5 0.503482,15.019448 0.503482,13.993824 C 0.503482,13.323147 0.5,12.14772 0.5,11.5 C 0.5,9.2920004 2.74,7.5000003 5.5,7.5000003 z"
       id="path8878"
       sodipodi:nodetypes="cccccscc" />
    <path
       sodipodi:type="inkscape:offset"
       inkscape:radius="-1.0099438"
       inkscape:original="M 5.5 7.5 C 2.74 7.5 0.5 9.2920001 0.5 11.5 L 0.5 14 C 0.50000002 14.909046 1.03672 15.5 2 15.5 L 9.0625 15.5 C 9.9831085 15.5 10.5 15.025624 10.5 14 C 10.5 13.329323 10.5 12.14772 10.5 11.5 C 10.5 9.2920001 8.26 7.5 5.5 7.5 z "
       style="opacity:1;fill:url(#linearGradient8992);fill-opacity:1;fill-rule:nonzero;stroke:url(#linearGradient8907);stroke-width:0.99999994000000003;stroke-linecap:square;stroke-linejoin:miter;marker:none;marker-start:none;marker-mid:none;marker-end:none;stroke-miterlimit:4;stroke-dasharray:none;stroke-dashoffset:0;stroke-opacity:1;visibility:visible;display:inline;overflow:visible;enable-background:accumulate"
       id="path8899"
       d="M 5.5,8.5 C 3.1771545,8.5 1.5,9.9750539 1.5,11.5 L 1.5,14 C 1.5,14.255759 1.5835553,14.332452 1.625,14.375 C 1.6664447,14.417548 1.7248871,14.5 2,14.5 L 9.0625,14.5 C 9.3493345,14.5 9.3965243,14.447325 9.40625,14.4375 C 9.4159757,14.427675 9.5,14.343149 9.5,14 C 9.5,13.329323 9.5,12.14772 9.5,11.5 C 9.5,9.9750539 7.8228455,8.5 5.5,8.5 z" />
    <path
       d="M 39.774755,19.008621 A 8.6620579,8.6620579 0 1 1 22.45064,19.008621 A 8.6620579,8.6620579 0 1 1 39.774755,19.008621 z"
       sodipodi:ry="8.6620579"
       sodipodi:rx="8.6620579"
       sodipodi:cy="19.008621"
       sodipodi:cx="31.112698"
       id="path9006"
       style="opacity:0.625;fill:#ffffff;fill-opacity:1;stroke:none;stroke-width:2.88735723px;stroke-linecap:round;stroke-linejoin:round;marker:none;marker-start:none;marker-mid:none;marker-end:none;stroke-miterlimit:4;stroke-dasharray:none;stroke-dashoffset:0;stroke-opacity:1;visibility:visible;display:inline;overflow:visible"
       sodipodi:type="arc"
       transform="matrix(0.2041125,0.2041124,-0.2041124,0.2041125,3.0294049,-0.7303849)" />
    <path
       sodipodi:type="arc"
       style="opacity:1;fill:#e2b369;fill-opacity:1;fill-rule:evenodd;stroke:url(#linearGradient8976);stroke-width:2.16551828px;stroke-linecap:round;stroke-linejoin:round;marker:none;marker-start:none;marker-mid:none;marker-end:none;stroke-miterlimit:4;stroke-dasharray:none;stroke-dashoffset:0;stroke-opacity:0.95686484;visibility:visible;display:inline;overflow:visible"
       id="path3405"
       sodipodi:cx="31.112698"
       sodipodi:cy="19.008621"
       sodipodi:rx="8.6620579"
       sodipodi:ry="8.6620579"
       d="M 39.774755,19.008621 A 8.6620579,8.6620579 0 1 1 22.45064,19.008621 A 8.6620579,8.6620579 0 1 1 39.774755,19.008621 z"
       transform="matrix(0.461784,0,0,0.4617839,-8.867346,-3.2778756)" />
    <path
       d="M 39.774755,19.008621 A 8.6620579,8.6620579 0 1 1 22.45064,19.008621 A 8.6620579,8.6620579 0 1 1 39.774755,19.008621 z"
       sodipodi:ry="8.6620579"
       sodipodi:rx="8.6620579"
       sodipodi:cy="19.008621"
       sodipodi:cx="31.112698"
       id="path3407"
       style="opacity:0.73611111;fill:url(#linearGradient8926);fill-opacity:1;stroke:url(#linearGradient3409);stroke-width:2.88735723000000011px;stroke-linecap:round;stroke-linejoin:round;marker:none;marker-start:none;marker-mid:none;marker-end:none;stroke-miterlimit:4;stroke-dasharray:none;stroke-dashoffset:0;stroke-opacity:1;visibility:visible;display:inline;overflow:visible"
       sodipodi:type="arc"
       transform="matrix(0.2448979,0.2448978,-0.2448978,0.2448979,2.5357361,-6.7746053)" />
    <image
       xlink:href="/usr/share/icons/Tango/16x16/apps/system-users.png"
       sodipodi:absref="/usr/share/icons/Tango/16x16/apps/system-users.png"
       width="16"
       height="16"
       id="image8875"
       x="-26"
       y="-1.5467961" />
    <path
       d="M 39.774755,19.008621 A 8.6620579,8.6620579 0 1 1 22.45064,19.008621 A 8.6620579,8.6620579 0 1 1 39.774755,19.008621 z"
       sodipodi:ry="8.6620579"
       sodipodi:rx="8.6620579"
       sodipodi:cy="19.008621"
       sodipodi:cx="31.112698"
       id="path9000"
       style="opacity:0.625;fill:#ffffff;fill-opacity:1;stroke:none;stroke-width:2.88735723px;stroke-linecap:round;stroke-linejoin:round;marker:none;marker-start:none;marker-mid:none;marker-end:none;stroke-miterlimit:4;stroke-dasharray:none;stroke-dashoffset:0;stroke-opacity:1;visibility:visible;display:inline;overflow:visible"
       sodipodi:type="arc"
       transform="matrix(0.2448979,0.2448978,-0.2448978,0.2448979,21.525366,-19.96268)" />
    <path
       style="opacity:1;fill:url(#linearGradient9073);fill-opacity:1;fill-rule:nonzero;stroke:none;stroke-width:1;stroke-linecap:square;stroke-linejoin:miter;marker:none;marker-start:none;marker-mid:none;marker-end:none;stroke-miterlimit:4;stroke-dasharray:none;stroke-dashoffset:0;stroke-opacity:1;visibility:visible;display:inline;overflow:visible;enable-background:accumulate"
       d="M 8.5,11 C 8.777,11 9,11.223 9,11.5 L 9,14 L 9.5,14 C 9.777,14 10,14.223 10,14.5 C 10,14.777 9.777,15 9.5,15 L 8.5,15 C 8.43075,15 8.3723594,14.993984 8.3125,14.96875 C 8.1329219,14.893047 8,14.70775 8,14.5 L 8,11.5 C 8,11.223 8.223,11 8.5,11 z"
       id="rect9030" />
    <path
       style="opacity:1;fill:url(#linearGradient9081);fill-opacity:1;fill-rule:nonzero;stroke:none;stroke-width:1;stroke-linecap:square;stroke-linejoin:miter;marker:none;marker-start:none;marker-mid:none;marker-end:none;stroke-miterlimit:4;stroke-dasharray:none;stroke-dashoffset:0;stroke-opacity:1;visibility:visible;display:inline;overflow:visible;enable-background:accumulate"
       d="M 2.5,11 C 2.223,11 2,11.223 2,11.5 L 2,14 L 1.5,14 C 1.223,14 1,14.223 1,14.5 C 1,14.777 1.223,15 1.5,15 L 2.5,15 C 2.56925,15 2.6276406,14.993984 2.6875,14.96875 C 2.8670781,14.893047 3,14.70775 3,14.5 L 3,11.5 C 3,11.223 2.777,11 2.5,11 z"
       id="path9079" />
    <path
       style="opacity:1;fill:url(#linearGradient9091);fill-opacity:1;fill-rule:nonzero;stroke:none;stroke-width:1;stroke-linecap:square;stroke-linejoin:miter;marker:none;marker-start:none;marker-mid:none;marker-end:none;stroke-miterlimit:4;stroke-dasharray:none;stroke-dashoffset:0;stroke-opacity:1;visibility:visible;display:inline;overflow:visible;enable-background:accumulate"
       d="M 13.5,10 C 13.777,10 14,10.223 14,10.5 L 14,13 L 14.5,13 C 14.777,13 15,13.223 15,13.5 C 15,13.777 14.777,14 14.5,14 L 13.5,14 C 13.43075,14 13.372359,13.993984 13.3125,13.96875 C 13.132922,13.893047 13,13.70775 13,13.5 L 13,10.5 C 13,10.223 13.223,10 13.5,10 z"
       id="path9083" />
  </g>
</svg>
