/* XPM */
static char * admin_icon_xpm[] = {
/* width height num_colors chars_per_pixel */
"12 12 5 1",
/* colors */
" 	c None",
".	c Gray0",
"X	c yellow",
"o	c #009900",
"O	c #cccc99",
/* pixels */
" .   ..   . ",
" .. .XX. .. ",
" .X.XXXX.X. ",
" .XXXooXXX. ",
" .XXXoOXXX. ",
" .XXooooXX. ",
" .XXooooXX. ",
" .XooXoooX. ",
" .XXXXXXXX. ",
"  .XXXXXX.  ",
"   ..XX..   ",
"     ..     "};
