/* XPM */
static char * aimicon_xpm[] = {
"30 42 347 2",
"  	c None",
". 	c #A8A154",
"+ 	c #CDC02D",
"@ 	c #E5D814",
"# 	c #E7DC13",
"$ 	c #D9D122",
"% 	c #C0BA3C",
"& 	c #D6C723",
"* 	c #F7E200",
"= 	c #F7E500",
"- 	c #F9E900",
"; 	c #F9EB00",
"> 	c #F8EB00",
", 	c #F9EC00",
"' 	c #F0E70A",
") 	c #E2D116",
"! 	c #F7E400",
"~ 	c #F8E600",
"{ 	c #F8E700",
"] 	c #F8EA00",
"^ 	c #F8EC02",
"/ 	c #CBBE2F",
"( 	c #F7E100",
"_ 	c #F7E300",
": 	c #F8E500",
"< 	c #F1E608",
"[ 	c #EFD807",
"} 	c #F6DE00",
"| 	c #F8E400",
"1 	c #F9E800",
"2 	c #F9EA00",
"3 	c #C9C332",
"4 	c #B1A849",
"5 	c #F4D700",
"6 	c #F4DB00",
"7 	c #F8E200",
"8 	c #F9E700",
"9 	c #E5DB15",
"0 	c #BFB03A",
"a 	c #F1D200",
"b 	c #F3D900",
"c 	c #EDE20C",
"d 	c #B9AB40",
"e 	c #F1D000",
"f 	c #F3D600",
"g 	c #EADF10",
"h 	c #F2D100",
"i 	c #F1D100",
"j 	c #F5DC00",
"k 	c #F6E200",
"l 	c #DCD21E",
"m 	c #E4CB11",
"n 	c #F0CB00",
"o 	c #F3D300",
"p 	c #F7DF00",
"q 	c #F8E300",
"r 	c #F0CE00",
"s 	c #EFCA00",
"t 	c #F4D500",
"u 	c #F7E000",
"v 	c #E0D119",
"w 	c #BEB03A",
"x 	c #EECC02",
"y 	c #F1CF00",
"z 	c #F4DA00",
"A 	c #F6E000",
"B 	c #F6E100",
"C 	c #E5D212",
"D 	c #DAC51B",
"E 	c #EED205",
"F 	c #F3D800",
"G 	c #F5DA00",
"H 	c #ECD30A",
"I 	c #C8B831",
"J 	c #C8BE32",
"K 	c #ECDA0D",
"L 	c #D7CB23",
"M 	c #C3BC38",
"N 	c #C7C134",
"O 	c #D9CA1F",
"P 	c #F5E805",
"Q 	c #E3D717",
"R 	c #D4C826",
"S 	c #CDC22E",
"T 	c #C5BC36",
"U 	c #C5BB37",
"V 	c #D1C72A",
"W 	c #DDD21E",
"X 	c #ECDF0F",
"Y 	c #F7E803",
"Z 	c #FAEE00",
"` 	c #EAE110",
" .	c #ECD50C",
"..	c #F4DC00",
"+.	c #F9EE3C",
"@.	c #FDF8AA",
"#.	c #F2F0CF",
"$.	c #ECE9C4",
"%.	c #FAF7CF",
"&.	c #FCF79D",
"*.	c #FCF587",
"=.	c #FCF58F",
"-.	c #FCF698",
";.	c #FBF47F",
">.	c #F8E800",
",.	c #F8E900",
"'.	c #C3BD38",
").	c #F5DB01",
"!.	c #EEE564",
"~.	c #FFFFFF",
"{.	c #EBE7B2",
"].	c #DBCD19",
"^.	c #D4C717",
"/.	c #B3AC58",
"(.	c #EFEFEF",
"_.	c #E5E3C4",
":.	c #CBC684",
"<.	c #EAE16F",
"[.	c #F3E707",
"}.	c #F5D800",
"|.	c #F5DD00",
"1.	c #DCCE18",
"2.	c #F8F8F4",
"3.	c #FFFFFD",
"4.	c #F8EA3C",
"5.	c #E3D30C",
"6.	c #C4C1A4",
"7.	c #F4EEA7",
"8.	c #F7E502",
"9.	c #DED51D",
"0.	c #F4D600",
"a.	c #BCB342",
"b.	c #FFFDEF",
"c.	c #F9EA28",
"d.	c #BEB86D",
"e.	c #FEFCE1",
"f.	c #F8E70E",
"g.	c #F7E301",
"h.	c #F6E302",
"i.	c #C8C034",
"j.	c #D5C123",
"k.	c #F6DF00",
"l.	c #BBB243",
"m.	c #F4F4F4",
"n.	c #FAED43",
"o.	c #C4BE71",
"p.	c #FEFACC",
"q.	c #F8E706",
"r.	c #E3D014",
"s.	c #ECDB0C",
"t.	c #FAEC00",
"u.	c #E2CA13",
"v.	c #F3D500",
"w.	c #E0D114",
"x.	c #B7B598",
"y.	c #F7F7F7",
"z.	c #FDF7B2",
"A.	c #F9E818",
"B.	c #EADC2B",
"C.	c #E9E8DF",
"D.	c #FEFDF8",
"E.	c #F9EC4D",
"F.	c #CCBA2C",
"G.	c #E1D318",
"H.	c #BEB73D",
"I.	c #E5CB0F",
"J.	c #E1D21C",
"K.	c #C6C180",
"L.	c #F1F1F1",
"M.	c #F5F3D0",
"N.	c #F3EEAB",
"O.	c #E6E4CB",
"P.	c #E0DCAF",
"Q.	c #E9DC35",
"R.	c #DCCF1E",
"S.	c #E8D912",
"T.	c #EBCF07",
"U.	c #F1E11A",
"V.	c #FAF6C8",
"W.	c #E4DD85",
"X.	c #D9CD3C",
"Y.	c #D7CC45",
"Z.	c #DFD32D",
"`.	c #F6E505",
" +	c #F5DF00",
".+	c #EECF04",
"++	c #F2D600",
"@+	c #F6E401",
"#+	c #D1CC85",
"$+	c #FAF17C",
"%+	c #F8E70C",
"&+	c #F8E70A",
"*+	c #F8E70D",
"=+	c #F8E70B",
"-+	c #F8E604",
";+	c #F4DB01",
">+	c #EFD203",
",+	c #F5D900",
"'+	c #EFDE03",
")+	c #A6A26C",
"!+	c #F0F0F0",
"~+	c #FCFCFB",
"{+	c #FEFDE9",
"]+	c #FEFCE2",
"^+	c #FEFCE5",
"/+	c #FEFAD1",
"(+	c #FDF9C2",
"_+	c #FDF7AA",
":+	c #FAEE50",
"<+	c #F8E503",
"[+	c #F5DB00",
"}+	c #E7DA30",
"|+	c #C5C2A4",
"1+	c #EBEBEB",
"2+	c #FAFAFA",
"3+	c #FDFDFD",
"4+	c #FBF172",
"5+	c #F5DD01",
"6+	c #F2D400",
"7+	c #F4D800",
"8+	c #F2E432",
"9+	c #FDF9C5",
"0+	c #EEEBCB",
"a+	c #D5CC5A",
"b+	c #D2C62B",
"c+	c #CDC128",
"d+	c #C8BD26",
"e+	c #BFB432",
"f+	c #B8B151",
"g+	c #C6C4B0",
"h+	c #F0D805",
"i+	c #F1D300",
"j+	c #E9D90A",
"k+	c #EAE8CA",
"l+	c #EEE34C",
"m+	c #C0B638",
"n+	c #FFFEF4",
"o+	c #EED708",
"p+	c #F0D202",
"q+	c #F7DE00",
"r+	c #CDC01F",
"s+	c #E8E8E8",
"t+	c #FFFFFE",
"u+	c #FAEE52",
"v+	c #DCD13F",
"w+	c #FDF7AE",
"x+	c #030595",
"y+	c #27247F",
"z+	c #DFC30C",
"A+	c #F2D300",
"B+	c #DECE0F",
"C+	c #BDBA99",
"D+	c #FEFDE7",
"E+	c #FBF062",
"F+	c #F9EA24",
"G+	c #F9E91A",
"H+	c #F9E91B",
"I+	c #F9E921",
"J+	c #FBEF5F",
"K+	c #F8F6E0",
"L+	c #F3F0C3",
"M+	c #F8E929",
"N+	c #F5DD02",
"O+	c #161891",
"P+	c #020495",
"Q+	c #10108C",
"R+	c #D1B714",
"S+	c #F2CF00",
"T+	c #D5C71A",
"U+	c #BFB866",
"V+	c #D4D1AA",
"W+	c #E5E3CD",
"X+	c #F1EDC6",
"Y+	c #F2EEBA",
"Z+	c #F2EEB7",
"`+	c #E8E4B1",
" @	c #E2DEA7",
".@	c #E2D85C",
"+@	c #F6E50E",
"@@	c #B59F26",
"#@	c #F1CE00",
"$@	c #F4E202",
"%@	c #EAD909",
"&@	c #E1D214",
"*@	c #D9CB1C",
"=@	c #D6C91D",
"-@	c #DDCE1A",
";@	c #EBDC18",
">@	c #F3E207",
",@	c #111392",
"'@	c #101292",
")@	c #887743",
"!@	c #EFCC00",
"~@	c #F3D400",
"{@	c #25278F",
"]@	c #594E5F",
"^@	c #EEC900",
"/@	c #E4CD0B",
"(@	c #97883A",
"_@	c #786E4D",
":@	c #C8B71F",
"<@	c #F6DB00",
"[@	c #2C287B",
"}@	c #DCBC0C",
"|@	c #F1CD00",
"1@	c #F6DC00",
"2@	c #BFA820",
"3@	c #332E77",
"4@	c #292A8E",
"5@	c #978F53",
"6@	c #E3C80B",
"7@	c #EFCF00",
"8@	c #0B0D93",
"9@	c #0B0C90",
"0@	c #C0A51F",
"a@	c #CFB617",
"b@	c #1A1886",
"c@	c #060894",
"d@	c #E5C70C",
"e@	c #EECC00",
"f@	c #BCB13F",
"g@	c #040695",
"h@	c #988338",
"i@	c #EECB00",
"j@	c #EACD06",
"k@	c #3E3970",
"l@	c #E9C805",
"m@	c #5F535B",
"n@	c #7F7148",
"o@	c #CBB72B",
"p@	c #E2C209",
"q@	c #F0CD00",
"r@	c #CCB317",
"s@	c #1E2090",
"t@	c #3A3B8B",
"u@	c #CEB926",
"v@	c #D6BB1D",
"w@	c #080992",
"x@	c #BDA521",
"y@	c #EFCD00",
"z@	c #202190",
"A@	c #282A8E",
"B@	c #D1B723",
"C@	c #907E3D",
"D@	c #DBBE10",
"E@	c #30318D",
"F@	c #2D2E8D",
"                        . + @ # $ %                         ",
"                      & * = - ; > , '                       ",
"                    ) * ! ~ { { { { ] ^                     ",
"                  / ( _ : ~ ~ ~ ~ ~ { - <                   ",
"                  [ } | : ~ ~ ~ ~ ~ { 1 2 3                 ",
"                4 5 6 7 : ~ ~ ~ ~ ~ ~ 8 - 9                 ",
"                0 a b * | ~ ~ ~ ~ ~ ~ { ] c                 ",
"                d e f ( _ : ~ ~ ~ ~ ~ { 2 g                 ",
"                  h i j k _ : ~ ~ ~ ~ { - l                 ",
"                  m n o p k k q ~ ~ ~ { 1                   ",
"                    r s t u * k _ : ~ = v                   ",
"                    w x y z ( 7 A u B C                     ",
"                        D E F G 6 H I                       ",
"            J ~ K L M                       N               ",
"            O u : - , , P Q R S T U V W X Y Z `             ",
"             ..._ 8 2 +.@.#.$.%.&.*.=.-.;.>.,., '.          ",
"            ).j * : !.~.{.].^./.(.~._.:.<.~ ~ - [.          ",
"            }.|.* 1.2.3.4.~ ~ 5.6.~.7.8.~ ~ ~ { , 9.        ",
"            0.} ! a.~.b.c.~ ~ = d.~.e.f.~ ~ g.h.,., i.      ",
"          j.0.k.! l.m.3.n.~ ~ ~ o.~.p.q.~ : r.  s.>.t.      ",
"          u.v.B ! w.x.y.z.A.~ B.C.D.E.~ ~ q F.    G.,.; H.  ",
"          I.0.( : ~ J.K.L.M.N.O.P.Q.~ ~ ~ B           R.S.  ",
"          T.f A : ~ U.V.W.X.Y.Z.`.~ ~ ~ ~  +                ",
"          .+++* : @+#+~.$+%+&+*+=+%+-+~ : ;+                ",
"          >+,+_ : '+)+!+~+{+]+^+/+(+_+:+<+[+                ",
"          v.z _ : ~ }+|+m.m.(.1+!+2+3+3.4+5+                ",
"          6+7+* ~ 8+9+0+a+b+c+d+e+f+g+3+e.h+                ",
"          i+v.( j+k+~.l+~ ~ ~ ~ ~ ~ m+(.n+o+                ",
"          p+o q+r+s+t+u+~ ~ ~ ~ ~ ~ v+y.w+[                 ",
"    x+x+y+z+A+[+B+C+3+D+E+F+G+H+I+J+K+L+M+N+                ",
"  O+x+P+Q+R+S+6 _ T+U+V+W+X+Y+Z+`+ @.@+@~ (                 ",
"          @@#@F _ ~ $@%@&@*@=@-@;@>@~ ~ ~ _                 ",
",@P+'@    )@!@~@( ~ ~ ~ ~ ~ : ! ! | ~ ~ ~ !                 ",
"{@P+P+P+P+]@^@h A ~ ~ ! p /@(@_@:@u <@|.| ~                 ",
"  P+P+P+P+[@}@|@k.~ _ 1@2@3@P+4@  5@6@7@z |                 ",
"  8@P+P+P+9@0@n 6 q 1@a@b@P+P+c@      d@e@G f@              ",
"    g@P+P+P+h@i@v.1@j@k@P+P+P+P+g@      l@r I               ",
"      8@P+P+m@e@e v.n@P+P+P+P+P+P+P+      i@o@              ",
"        O+P+[@p@q@r@        s@s@c@P+P+t@  u@v@              ",
"            w@x@y@                  z@P+A@  B@              ",
"              C@D@                      E@F@                ",
"                                                            "};
