/* XPM */
static char *aimicon_xpm[] = {
/* columns rows colors chars-per-pixel */
"29 42 169 2",
"   c Gray0",
".  c Transparent",
"X  c #000002",
"o  c #010102",
"O  c #010103",
"+  c #020203",
"@  c Gray1",
"#  c #020204",
"$  c #030304",
"%  c #040304",
"&  c #050506",
"*  c #050507",
"=  c #060608",
"-  c #070708",
";  c #070709",
":  c #0e0c05",
">  c #08080a",
",  c #0a0a0c",
"<  c #0c0c0d",
"1  c #0c0c0e",
"2  c #0e0e10",
"3  c #10100f",
"4  c #12110d",
"5  c #191507",
"6  c #181508",
"7  c #1b1708",
"8  c #101012",
"9  c #141415",
"0  c #161618",
"q  c #18181a",
"w  c #1e1e20",
"e  c #231f0c",
"r  c #24200b",
"t  c #2d280e",
"y  c #21201b",
"u  c #2c2712",
"i  c Gray13",
"p  c #29292b",
"a  c #2e2e30",
"s  c #3a372c",
"d  c #303031",
"f  c #383734",
"g  c #3d3d3f",
"h  c #423912",
"j  c #433a12",
"k  c #433b13",
"l  c #463f18",
"z  c #463f21",
"x  c #4c4316",
"c  c #53491a",
"v  c #554a19",
"b  c #564b19",
"n  c #474020",
"m  c #60531a",
"M  c #61551a",
"N  c #63571a",
"B  c #645820",
"V  c #6a5f2b",
"C  c #6e601d",
"Z  c #6e611f",
"A  c #73641f",
"S  c #77671f",
"D  c #776821",
"F  c #7b6b22",
"G  c #71683f",
"H  c #7d6e36",
"J  c #404041",
"K  c #424243",
"L  c #434344",
"P  c #454544",
"I  c #454546",
"U  c #4a4947",
"Y  c #49494b",
"T  c #545455",
"R  c #59595a",
"E  c #5b5b5d",
"W  c #5c5c5e",
"Q  c #5e5e60",
"!  c #7f7857",
"~  c #606060",
"^  c #6a6a6b",
"/  c #6c6c6b",
"(  c Gray43",
")  c #717170",
"_  c #727272",
"`  c #797978",
"'  c #7b7b7b",
"]  c Gray50",
"[  c #837223",
"{  c #837325",
"}  c #887725",
"|  c #8d7b25",
" . c #8d7a26",
".. c #8d7b26",
"X. c #8e7c26",
"o. c #807233",
"O. c #8b7b38",
"+. c #917f27",
"@. c None",
"#. c #958228",
"$. c #9a872a",
"%. c #958431",
"&. c #aa952d",
"*. c #ad972f",
"=. c #ae982e",
"-. c #a59130",
";. c #b39c34",
":. c #b59e32",
">. c #baa233",
",. c #bca433",
"<. c #bda533",
"1. c #b8a33d",
"2. c #aca16e",
"3. c #c0a734",
"4. c #c3ab39",
"5. c #c9af36",
"6. c #cab037",
"7. c #cdb338",
"8. c #cfb438",
"9. c #cfb538",
"0. c #d1b738",
"q. c #d3b839",
"w. c #d2b83b",
"e. c #d2b83c",
"r. c #d5ba3a",
"t. c #d9bd3b",
"y. c #dabe3b",
"u. c #dbbf3b",
"i. c #dabe3c",
"p. c #dbbf3c",
"a. c #c1ab45",
"s. c #d5bb40",
"d. c #d9bf42",
"f. c #dcc03b",
"g. c #dcc03c",
"h. c #ddc13c",
"j. c #838383",
"k. c #838385",
"l. c #868685",
"z. c #888889",
"x. c #8d8d8f",
"c. c #8e8e8d",
"v. c #b8af86",
"b. c #b5b5b3",
"n. c #b5b5b4",
"m. c Gray71",
"M. c #bababc",
"N. c #bcbcbb",
"B. c #c3c3c3",
"V. c #c4c4c3",
"C. c #c5c5c3",
"Z. c #c7c7c6",
"A. c #c9c9c8",
"S. c #d2d2d0",
"D. c #d5d5d3",
"F. c #d6d6d4",
"G. c #dddddb",
"H. c #e5e5e6",
"J. c #e7e7e6",
"K. c #e8e8e6",
"L. c #ebebe9",
"P. c #efefee",
"I. c #f5f5f3",
"U. c #f9f9f8",
"Y. c #fafaf9",
"T. c #fbfbf9",
"R. c #fdfdfb",
"E. c #fdfdfc",
"W. c #fefefc",
/* pixels */
"@.@.@.@.@.@.@.@.@.@.@.@.@.@.@.@.@.@.@.@.@.@.@.@.@.@.@.@.@.",
"@.@.@.@.@.@.@.@.@.@.o o @.@.@.@.@.@.@.@.@.@.@.@.@.@.@.@.@.",
"@.@.@.@.@.@.@.@.@.o o o o @.@.@.@.@.@.@.@.@.@.@.@.@.@.@.@.",
"@.@.@.@.@.@.@.@.o o o o o o @.@.@.@.@.@.@.@.@.@.@.@.@.@.@.",
"@.@.@.@.@.@.@.o # o o o o 9 ~ x.@.@.@.@.@.@.@.@.@.@.@.@.@.",
"@.@.@.@.@.@.o o # o o o o l._ k.@.@.@.@.@.@.@.@.@.@.@.@.@.",
"@.@.@.@.@.@.o o # o o o o n.K M.@.@.@.@.@.@.@.@.@.@.@.@.@.",
"@.@.@.@.@.@.o o # o o o o d ' U z @.@.@.@.@.@.@.@.@.@.@.@.",
"@.@.@.@.@.@.o o # o o o o o i B ;.v v F 3.M @.@.@.@.@.@.@.",
"@.@.@.@.@.@.o o # o o o o o Z 8.e.O.M  .=.@.@.@.@.@.@.@.@.",
"@.@.@.@.@.@.o o # o o o o o x 5.4.H o @.@.@.@.@.@.@.@.@.@.",
"@.@.@.@.@.@.o o # o o o o o % n @.@.@.@.@.@.@.@.@.@.@.@.@.",
"@.@.@.@.@.@.o o # o o o o o P g @.@.@.@.@.@.@.@.@.@.@.@.@.",
"@.@.@.@.@.@.o o # o o o o o D.@.@.@.@.@.@.@.@.@.@.@.@.@.@.",
"@.@.@.@.@.@.o o # o q ( 0 o _ @.@.@.@.@.@.@.@.@.@.@.@.@.@.",
"@.@.@.@.@.@.o o # o 8 L 2 o = o o @.@.@.@.@.@.@.@.@.@.z.@.",
"@.@.@.@.@.@.o o # o o o o o o o o o o o Y R @.@.o o o a @.",
"@.@.@.@.@.@.o o # o o o o o o o # # # # 1 2 o o o # # o @.",
"@.@.@.@.@.o o o # o o o o o o o # # # # # # # # # # o @.@.",
"@.@.@.@.@.o o o # o o o o o o o # # # # # # # o = # @.@.@.",
"@.@.@.@.o o o o # o o o o o o o # # # # o o o o = @.@.@.@.",
"@.@.@.@.o o o o # o o o o o o o # o o o o @.@.@.@.@.@.@.@.",
"@.@.@.o o o o o # o o o o o o 1 P , @.@.@.@.@.@.@.@.@.@.@.",
"@.@.@.o o o o o # o o o o ~ ^ ' A.Q @.@.@.@.@.@.@.@.@.@.@.",
"@.@.@.# o o o o # o o o o S.K.L.Y.n.@.@.@.@.@.@.@.@.@.@.@.",
"@.@.4 # o o o o # o o o x.I.R.R.E.B.@.@.@.@.@.@.@.@.@.@.@.",
"@.@.& # o o o o # o o o D.R.R.R.E.V.@.@.@.@.@.@.@.@.@.@.@.",
"@.@.o # o o o o # o o p G.R.R.R.E.V.@.@.@.@.@.@.@.@.@.@.@.",
"@.@.o # o o o o # o o N.Y.R.R.R.E.V.@.@.@.@.@.@.@.@.@.@.@.",
"@.E o # o o o o # o o V.R.R.R.R.E.V.@.@.@.@.@.@.@.@.@.@.@.",
"@.T o # o o o o # o o V.R.R.R.R.E.V.@.@.@.@.@.@.@.@.@.@.@.",
"@.@.# # o o o o # o o b.Y.R.R.R.E.V.@.@.@.@.@.@.r 4 u @.@.",
"@.-.w # o o o o # o o W J.R.R.R.E.V.@.@.@.A :.:.:.V l @.@.",
"@.%.! # o o o o # o o > F.R.R.R.P.j.@.S 6.w.p.p.p.w.+.[ @.",
"@.7 >.c & o o o # o o o ^ Z.J.] / e X.g.g.r.7.8.8.d.{ : @.",
"@.@.Z 1.s o o o # o o o o K E o t $.w.3.3. .@.@.@.2.a.5 @.",
"@.@.@.s.o.o o o o o o o o o o y D *. .@.@.@.@.@.@.@.@.@.@.",
"@.@.@.g.&.@.j j j 7 o o o @.@.f @.@.@.@.@.@.@.@.@.@.@.@.@.",
"@.@.@.p.0.<.<.<.<.j @.@.@.@.@.@.@.@.@.@.@.@.@.@.@.@.@.@.@.",
"@.@.@.p.y.f.f.y.#.@.@.@.@.@.@.@.@.@.@.@.@.@.@.@.@.@.@.@.@.",
"@.@.@.G v.@.} y.m @.@.@.@.@.@.@.@.@.@.@.@.@.@.@.@.@.@.@.@.",
"@.@.@.@.@.@.@.@.@.@.@.@.@.@.@.@.@.@.@.@.@.@.@.@.@.@.@.@.@."
};
