/* XPM */
static char * angel_xpm[] = {
"19 19 7 1",
" 	c None",
".	c #000066",
"+	c #000000",
"@	c #FFFF00",
"#	c #333333",
"$	c #FFFFFF",
"%	c #FFFF33",
"     ..........    ",
"   ...        ...  ",
"  ..   ++++++   .. ",
" ..  ++@@@@@@++  ..",
"  ..+@@@@@@@@@@+.. ",
"   ...@@@@@@@@...  ",
"  +@@..........@@+ ",
"  +@@@@#@@@@+@@@@+ ",
" +@@@@@++@@@++@@@@+",
" +@@@@#$+@@#$+@@@@+",
" +@@@@#$$@@#$$@@@@+",
" +@@@@@#@@@@#@@@@@+",
" +@@@@@@@@@@@@@@@@+",
"  +@@+%@@@@@@@+%@+ ",
"  +@@@+@@@@@@+@@@+ ",
"   +@@@++++++@@@+  ",
"    +@@@@@@@@@@+   ",
"     ++@@@@@@++    ",
"       ++++++      "};
