/* XPM */
static char * arrow_down_xpm[] = {
"11 6 3 1",
" 	c None",
".	c #000000",
"+	c #FFFFFF",
"...........",
" .+++++++. ",
"  .+++++.  ",
"   .+++.   ",
"    .+.    ",
"     .     "};
