/* XPM */
static char * available_error_xpm[] = {
"12 14 6 1",
" 	c None",
".	c #333333",
"+	c #000000",
"@	c #E8E8E8",
"#	c #666666",
"$	c #4C4C4C",
"     ..     ",
"   . +@.    ",
"  .@#+@@.   ",
" .@@@+@@@.  ",
" .@@++#@@.  ",
" .@@+@+++.  ",
" .@+@+@@@.  ",
"  .@+++@#   ",
"  .+@@@+.   ",
"   .@@@.    ",
"   $+++$    ",
"   $+++$    ",
"    +++     ",
"            "};
