/* XPM */
static char * available_chat_xpm[] = {
"15 15 6 1",
" 	c None",
".	c #333333",
"+	c #FFFF00",
"@	c #666666",
"#	c #000000",
"$	c #4C4C4C",
"               ",
"      ...      ",
"     .+++.     ",
"    .+++++.    ",
"   .++@+@++.   ",
"   .+@+@+@+.   ",
"   .+@+++###   ",
"    .+@+#+++#  ",
"    .+@#+++++# ",
"     .#++#+#++#",
"     .#+++++++#",
"     $#++#+#++#",
"     $.#++#++# ",
"      ..#+++#  ",
"         ###   "};
