/* XPM */
static char * available_away_xpm[] = {
"12 14 7 1",
" 	c None",
".	c #333333",
"+	c #FFFF00",
"@	c #FF0000",
"#	c #FFFFFF",
"$	c #000000",
"%	c #4C4C4C",
"     ..     ",
"    .++.    ",
"   .++++.   ",
"  @@@@@@@@  ",
" @########@ ",
"@#$##$#$$##@",
"@#$$#$$##$#@",
"@#$#$$$$$$#@",
"@#$##$$##$#@",
" @########@ ",
"  @@@@@@@@  ",
"    %.$$%   ",
"     ...    ",
"            "};
