/* XPM */
static char * away_xpm[] = {
"16 7 2 1",
" 	c None",
".	c #E89530",
"  ....          ",
" .  ..          ",
"   ..  .... ....",
"  ..  . .. . .. ",
" ...  . .  . .  ",
" ..  . .. . .. .",
"..... .... .... "};
