/* XPM */
static char * away_icon_xpm[] = {
"12 12 6 1",
" 	c None",
".	c #000000",
"+	c #EFFB41",
"@	c #FBF9AE",
"#	c #F2FB3C",
"$	c #F4FC44",
"  ......... ",
" ..+++++++. ",
".@.+...+++. ",
".@.+++++++. ",
".@.#+....+. ",
".@.$++++++. ",
".@.++....+. ",
".@..++++++..",
".@@.+++++++.",
".@@.........",
".@@@@@@@@.  ",
"..........  "};
