/* XPM */
static char * away_big_xpm[] = {
"24 24 18 1",
" 	c None",
".	c #040404",
"+	c #374236",
"@	c #526E52",
"#	c #6E926E",
"$	c #B0B2AB",
"%	c #C0C1BD",
"&	c #2F342E",
"*	c #D8D9D4",
"=	c #252925",
"-	c #636362",
";	c #9B9B99",
">	c #EBECEA",
",	c #1E221E",
"'	c #767575",
")	c #858683",
"!	c #4D4D4D",
"~	c #627E62",
"                        ",
"                        ",
"      ;+,,,,+;          ",
"     ,-;%>*%;-,         ",
"    ,)$>***>>$),        ",
"   ,)$*%$$$$%$$),       ",
"  ;-$*$$$$%%)=)$-;      ",
"  +;>$'-'%%)++;*;+      ",
"  ,%*$-&&;;!=;**$,      ",
"  ,**;$)+&.!;****,      ",
"  ,**$$$)=&'*****,      ",
"  ,$*$$%$))%****;,      ",
"  +;*%$%%%******;+      ",
"  ;-$*%$%%*%***$-;      ",
"   ,)$>*%%%***$),       ",
"    ,)$*****%$',   ,    ",
"     ,-;$**%;-,,   ,,   ",
"      ;+,,,,+@#@,,,,@,  ",
"            ,@#~@@@@#@, ",
"            ,@########@,",
"             ,@@@@@@#@, ",
"              ,,,,,,@,  ",
"                   ,,   ",
"                   ,    "};
