/* XPM */
static char *big_xpm[] = {
/* columns rows colors chars-per-pixel */
"17 13 7 1",
"  c Gray0",
". c Gray40",
"X c #666666669999",
"o c Magenta",
"O c #999999996666",
"+ c Gray60",
"@ c None",
/* pixels */
"@@@@@@@@@@@@@@@@@",
"@@@@@@@@@@@@@@@@@",
"@@@ @@@@@@@ @@@@@",
"@@   @@@@@@ @@@@@",
"@     @@@@   @@@@",
"@     @@@@   @@@@",
"@ . . @@@  @  @@@",
"@XOXO.@@@  @  @@@",
"@OXOX@@@@     @@@",
"@XOXO.@@  @@@  @@",
"@@@@@@@@  @@@  @@",
"@@@@@@@    @    @",
"@@@@@@@@@@@@@@@@@",
};
