/* XPM */
static char * bold_xpm[] = {
"12 11 2 1",
" 	c None",
".	c #000000",
"            ",
"  .......   ",
"   ... ...  ",
"   ... ...  ",
"   ... ...  ",
"   ......   ",
"   ... ...  ",
"   ... ...  ",
"   ... ...  ",
"  .......   ",
"            "};
