/* XPM */
static char * bold_xpm[] = {
"22 17 2 1",
" 	c None",
".	c #000000",
"                      ",
"                      ",
"                      ",
"                      ",
"                      ",
"       .......        ",
"        ... ...       ",
"        ... ...       ",
"        ... ...       ",
"        ......        ",
"        ... ...       ",
"        ... ...       ",
"        ... ...       ",
"       .......        ",
"                      ",
"                      ",
"                      "};
