/* XPM */
static char * bsmile_xpm[] = {
"15 15 7 1",
" 	c None",
".	c #000000",
"+	c #CCCC00",
"@	c #FFFF00",
"#	c #666600",
"$	c #999900",
"%	c #FF3300",
"   .........   ",
"  .@@@@@@@@@.  ",
" .@@@@@@@@@@@. ",
".@@@.@@@@@.@@@.",
".@@...@@@...@@.",
".@@...@@@...@@.",
".@@@.@@@@@.@@@.",
".@@@@@@@@@@@@@.",
".@@@@@@@@@@@@@.",
".@@.+@@@@@+.@@.",
".@@@.@@@@@.@@@.",
".@@@.%%%%%.@@@.",
" .@@@.....@@@. ",
"  .@@@@@@@@@.  ",
"   .........   "};
