/* XPM */
static char * buddyadd_xpm[] = {
"42 39 221 2",
"  	c None",
". 	c #F41515",
"+ 	c #F71515",
"@ 	c #ED1414",
"# 	c #F91515",
"$ 	c #D41212",
"% 	c #DD1313",
"& 	c #CD1111",
"* 	c #D21212",
"= 	c #E21313",
"- 	c #D81212",
"; 	c #FA1515",
"> 	c #EF1414",
", 	c #EB1414",
"' 	c #F61515",
") 	c #FC1616",
"! 	c #EA1414",
"~ 	c #DF1313",
"{ 	c #DB1313",
"] 	c #E61414",
"^ 	c #000000",
"/ 	c #E91414",
"( 	c #EE1414",
"_ 	c #E71414",
": 	c #E01313",
"< 	c #0A0A0A",
"[ 	c #6B6B6B",
"} 	c #090909",
"| 	c #595959",
"1 	c #0F0F0F",
"2 	c #CA1111",
"3 	c #464646",
"4 	c #7A7A83",
"5 	c #D11212",
"6 	c #FFFFFF",
"7 	c #F5F5F5",
"8 	c #DEDEDE",
"9 	c #C71111",
"0 	c #C31111",
"a 	c #1B1B1B",
"b 	c #7B7B7B",
"c 	c #FFD712",
"d 	c #FFE316",
"e 	c #EED408",
"f 	c #EBEBEB",
"g 	c #F4B509",
"h 	c #FFDB09",
"i 	c #FFE608",
"j 	c #F9D83B",
"k 	c #DFC707",
"l 	c #D8C007",
"m 	c #FFC712",
"n 	c #FFE23E",
"o 	c #EDD308",
"p 	c #C99100",
"q 	c #DD9D07",
"r 	c #D0D0D0",
"s 	c #EDBB04",
"t 	c #EFA808",
"u 	c #E4A110",
"v 	c #A6813C",
"w 	c #CCCCCC",
"x 	c #272727",
"y 	c #2D2D27",
"z 	c #FAFAFA",
"A 	c #D3D3D3",
"B 	c #B58D42",
"C 	c #D1D1D1",
"D 	c #F2F2F2",
"E 	c #E4E4E4",
"F 	c #E8E8E8",
"G 	c #D4D4D4",
"H 	c #E7E7E7",
"I 	c #F3F3F3",
"J 	c #EFEFEF",
"K 	c #ECECEC",
"L 	c #DCDCDC",
"M 	c #EEEEEE",
"N 	c #D5D5D5",
"O 	c #FBFBFB",
"P 	c #F7F7F7",
"Q 	c #BBBBBB",
"R 	c #3D3D3D",
"S 	c #F6F6F6",
"T 	c #F4F4F4",
"U 	c #BABABA",
"V 	c #FEFEFE",
"W 	c #F8F8F8",
"X 	c #1F1F1F",
"Y 	c #070707",
"Z 	c #5E5E5E",
"` 	c #25253C",
" .	c #676767",
"..	c #1E1E1E",
"+.	c #FFF025",
"@.	c #FFD812",
"#.	c #D7970F",
"$.	c #FFCE15",
"%.	c #FFFF1A",
"&.	c #FFE614",
"*.	c #FFEF17",
"=.	c #EFC713",
"-.	c #D7A30F",
";.	c #0C0C0C",
">.	c #958514",
",.	c #FFDD15",
"'.	c #FFC616",
").	c #FFF416",
"!.	c #FFFF1B",
"~.	c #FFFF29",
"{.	c #FFE609",
"].	c #C7C7C7",
"^.	c #F7C737",
"/.	c #CF9700",
"(.	c #8C5D07",
"_.	c #282103",
":.	c #966806",
"<.	c #A78005",
"[.	c #9B7805",
"}.	c #FFD40A",
"|.	c #FFFF16",
"1.	c #FFDB0A",
"2.	c #FFF40A",
"3.	c #FFF626",
"4.	c #FFEB16",
"5.	c #BF8F03",
"6.	c #DFA707",
"7.	c #D29C07",
"8.	c #C69307",
"9.	c #C89A0D",
"0.	c #C79A06",
"a.	c #BD9D0F",
"b.	c #FFC114",
"c.	c #FFFE0A",
"d.	c #FFF615",
"e.	c #FFFF33",
"f.	c #FFE814",
"g.	c #FFFC27",
"h.	c #FFED42",
"i.	c #FFD012",
"j.	c #F5B110",
"k.	c #F0F0F0",
"l.	c #C2C2C2",
"m.	c #BA8307",
"n.	c #E1AA07",
"o.	c #E6B00F",
"p.	c #E5B107",
"q.	c #D7B311",
"r.	c #DEA50E",
"s.	c #CEAB11",
"t.	c #B99A0F",
"u.	c #FAA612",
"v.	c #FFF218",
"w.	c #FFC309",
"x.	c #FFBA09",
"y.	c #FFD909",
"z.	c #FFD408",
"A.	c #FFCD08",
"B.	c #ECC308",
"C.	c #E0E0E0",
"D.	c #DDDDDD",
"E.	c #B87F07",
"F.	c #D8A607",
"G.	c #DAB91D",
"H.	c #DCAA07",
"I.	c #D59E0D",
"J.	c #C48C07",
"K.	c #DCB511",
"L.	c #B98406",
"M.	c #F1AA11",
"N.	c #FFCD11",
"O.	c #F3CF20",
"P.	c #EBAE0F",
"Q.	c #E9B507",
"R.	c #EFB10F",
"S.	c #ECB707",
"T.	c #DBA10E",
"U.	c #AE7D06",
"V.	c #CACACA",
"W.	c #C0C0C0",
"X.	c #B9B9B9",
"Y.	c #A16F06",
"Z.	c #C8A006",
"`.	c #D2AF11",
" +	c #BA8506",
".+	c #B69A18",
"++	c #A78E16",
"@+	c #AD800B",
"#+	c #A5780B",
"$+	c #E39D11",
"%+	c #CE9408",
"&+	c #B28206",
"*+	c #997105",
"=+	c #A87F05",
"-+	c #CE9F06",
";+	c #C4A71A",
">+	c #BA8E0C",
",+	c #8B5B06",
"'+	c #8C5F05",
")+	c #C69106",
"!+	c #D7A00D",
"~+	c #BE9106",
"{+	c #9E7805",
"]+	c #6E4E10",
"^+	c #4B3303",
"/+	c #654105",
"(+	c #7F5305",
"_+	c #886205",
":+	c #956D05",
"<+	c #7D5705",
"[+	c #523002",
"}+	c #714B05",
"|+	c #A07106",
"1+	c #B18106",
"2+	c #8A6205",
"3+	c #291B04",
"4+	c #020100",
"5+	c #030200",
"6+	c #0F0A00",
"7+	c #100B00",
"8+	c #040200",
"                                                                                    ",
"                                                                    . +             ",
"                                                                    @ #             ",
"                                                                    $ %             ",
"                                                                    & *             ",
"                                                                    = -             ",
"                                                          . ; > , ' ) ! ~ ~ { ! ]   ",
"                                ^ ^ ^ ^ ^                 / ' ( _ / ( ~ ~ ~ : ] {   ",
"                              ^ ^ ^ ^ < [ ^                         ~ ~             ",
"                            ^ ^ ^ ^ ^ } | 1 ^                       ~ ~             ",
"                            ^ ^ ^ ^ ^ ^ ^ ^ ^                       ~ 2             ",
"                            ^ ^ 3 ^ ^ 4 ^ ^ ^                       & 5             ",
"                            ^ 6 6 ^ 7 6 8 ^ ^ ^                     9 0             ",
"                            ^ ^ 6 a 6 ^ b ^ ^ ^                                     ",
"                            ^ ^ c d e ^ f ^ ^ ^                                     ",
"                            ^ g h i j k l ^ ^ ^                                     ",
"                            ^ m h n o p q ^ ^ ^                                     ",
"                            ^ r s t u v w ^ x y ^                                   ",
"                            ^ z A B A C D E ^ ^ ^                                   ",
"                          ^ 6 6 F G 6 z D H ^ ^ ^ ^                                 ",
"                        ^ ^ 6 6 6 6 6 z I J K ^ ^ ^                                 ",
"                      ^ ^ L 6 6 6 6 6 z M N F ^ ^ ^ ^                               ",
"                      ^ ^ 6 6 6 6 6 6 O P K Q R ^ ^ ^ ^                             ",
"                      ^ ^ 6 6 6 6 6 6 O P S T U ^ 1 ^ ^                             ",
"                    ^ ^ 6 6 6 6 6 6 V W P P T D X Y 3 ^ ^                           ",
"                    ^ ^ 6 6 6 6 6 V W P P P S S P ^ ^ ^ ^                           ",
"                  ^ Z 6 6 6 6 6 V W P P P P P P P ^ ` ^ ^                           ",
"                  ^  .6 6 6 6 6 O P P P P P P P T ^ ..^ ^                           ",
"                  ^ } 6 6 6 6 6 O P P P P P P P S ^ 1 ^ ^                           ",
"                  +.@.^ 6 6 6 V W P P P P P P #.#.^ ^ ^ ^                           ",
"                $.%.&.*.^ 6 6 O P P P P P P P =.-.^ ^ ;.>.                          ",
"            ,.'.).!.~.{.^ ^ V W P P P P P P ].^./.(._.:.<.[.                        ",
"          }.|.|.1.%.2.3.4.^ ^ P P P P P P P ].5.6.7.8.9.0.a.                        ",
"          b.c.d.e.f.g.h.i.j.^ k.k.k.k.k.k.k.l.m.n.o.p.q.r.s.t.                      ",
"          u.v.&.w.x.y.z.A.B.f C.D.L L L L ^ ^ E.F.G.H.I.J.K.s.L.                    ",
"          M.i.N.O.P.Q.R.S.T.U.V.W.Q X.X.^ ^ ^ Y.Z.`. +.+++@+#+                      ",
"          $+%+&+*+=+0.-+;+>+,+^ ^ ^ ^ ^ ^ ^ ^ '+)+!+~+{+]+                          ",
"                ^+/+(+_+:+<+[+^ ^           ^ }+|+1+2+3+                            ",
"                      4+5+^                   6+7+8+^                               "};
