/* XPM */
static char * buddydel_xpm[] = {
"42 39 205 2",
"  	c None",
". 	c #F41515",
"+ 	c #FA1515",
"@ 	c #EF1414",
"# 	c #EB1414",
"$ 	c #EA1414",
"% 	c #E61414",
"& 	c #000000",
"* 	c #E91414",
"= 	c #F61515",
"- 	c #EE1414",
"; 	c #E71414",
"> 	c #DB1313",
", 	c #0A0A0A",
"' 	c #6B6B6B",
") 	c #090909",
"! 	c #595959",
"~ 	c #0F0F0F",
"{ 	c #464646",
"] 	c #7A7A83",
"^ 	c #FFFFFF",
"/ 	c #F5F5F5",
"( 	c #DEDEDE",
"_ 	c #1B1B1B",
": 	c #7B7B7B",
"< 	c #FFD712",
"[ 	c #FFE316",
"} 	c #EED408",
"| 	c #EBEBEB",
"1 	c #F4B509",
"2 	c #FFDB09",
"3 	c #FFE608",
"4 	c #F9D83B",
"5 	c #DFC707",
"6 	c #D8C007",
"7 	c #FFC712",
"8 	c #FFE23E",
"9 	c #EDD308",
"0 	c #C99100",
"a 	c #DD9D07",
"b 	c #D0D0D0",
"c 	c #EDBB04",
"d 	c #EFA808",
"e 	c #E4A110",
"f 	c #A6813C",
"g 	c #CCCCCC",
"h 	c #272727",
"i 	c #2D2D27",
"j 	c #FAFAFA",
"k 	c #D3D3D3",
"l 	c #B58D42",
"m 	c #D1D1D1",
"n 	c #F2F2F2",
"o 	c #E4E4E4",
"p 	c #E8E8E8",
"q 	c #D4D4D4",
"r 	c #E7E7E7",
"s 	c #F3F3F3",
"t 	c #EFEFEF",
"u 	c #ECECEC",
"v 	c #DCDCDC",
"w 	c #EEEEEE",
"x 	c #D5D5D5",
"y 	c #FBFBFB",
"z 	c #F7F7F7",
"A 	c #BBBBBB",
"B 	c #3D3D3D",
"C 	c #F6F6F6",
"D 	c #F4F4F4",
"E 	c #BABABA",
"F 	c #FEFEFE",
"G 	c #F8F8F8",
"H 	c #1F1F1F",
"I 	c #070707",
"J 	c #5E5E5E",
"K 	c #25253C",
"L 	c #676767",
"M 	c #1E1E1E",
"N 	c #FFF025",
"O 	c #FFD812",
"P 	c #D7970F",
"Q 	c #FFCE15",
"R 	c #FFFF1A",
"S 	c #FFE614",
"T 	c #FFEF17",
"U 	c #EFC713",
"V 	c #D7A30F",
"W 	c #0C0C0C",
"X 	c #958514",
"Y 	c #FFDD15",
"Z 	c #FFC616",
"` 	c #FFF416",
" .	c #FFFF1B",
"..	c #FFFF29",
"+.	c #FFE609",
"@.	c #C7C7C7",
"#.	c #F7C737",
"$.	c #CF9700",
"%.	c #8C5D07",
"&.	c #282103",
"*.	c #966806",
"=.	c #A78005",
"-.	c #9B7805",
";.	c #FFD40A",
">.	c #FFFF16",
",.	c #FFDB0A",
"'.	c #FFF40A",
").	c #FFF626",
"!.	c #FFEB16",
"~.	c #BF8F03",
"{.	c #DFA707",
"].	c #D29C07",
"^.	c #C69307",
"/.	c #C89A0D",
"(.	c #C79A06",
"_.	c #BD9D0F",
":.	c #FFC114",
"<.	c #FFFE0A",
"[.	c #FFF615",
"}.	c #FFFF33",
"|.	c #FFE814",
"1.	c #FFFC27",
"2.	c #FFED42",
"3.	c #FFD012",
"4.	c #F5B110",
"5.	c #F0F0F0",
"6.	c #C2C2C2",
"7.	c #BA8307",
"8.	c #E1AA07",
"9.	c #E6B00F",
"0.	c #E5B107",
"a.	c #D7B311",
"b.	c #DEA50E",
"c.	c #CEAB11",
"d.	c #B99A0F",
"e.	c #FAA612",
"f.	c #FFF218",
"g.	c #FFC309",
"h.	c #FFBA09",
"i.	c #FFD909",
"j.	c #FFD408",
"k.	c #FFCD08",
"l.	c #ECC308",
"m.	c #E0E0E0",
"n.	c #DDDDDD",
"o.	c #B87F07",
"p.	c #D8A607",
"q.	c #DAB91D",
"r.	c #DCAA07",
"s.	c #D59E0D",
"t.	c #C48C07",
"u.	c #DCB511",
"v.	c #B98406",
"w.	c #F1AA11",
"x.	c #FFCD11",
"y.	c #F3CF20",
"z.	c #EBAE0F",
"A.	c #E9B507",
"B.	c #EFB10F",
"C.	c #ECB707",
"D.	c #DBA10E",
"E.	c #AE7D06",
"F.	c #CACACA",
"G.	c #C0C0C0",
"H.	c #B9B9B9",
"I.	c #A16F06",
"J.	c #C8A006",
"K.	c #D2AF11",
"L.	c #BA8506",
"M.	c #B69A18",
"N.	c #A78E16",
"O.	c #AD800B",
"P.	c #A5780B",
"Q.	c #E39D11",
"R.	c #CE9408",
"S.	c #B28206",
"T.	c #997105",
"U.	c #A87F05",
"V.	c #CE9F06",
"W.	c #C4A71A",
"X.	c #BA8E0C",
"Y.	c #8B5B06",
"Z.	c #8C5F05",
"`.	c #C69106",
" +	c #D7A00D",
".+	c #BE9106",
"++	c #9E7805",
"@+	c #6E4E10",
"#+	c #4B3303",
"$+	c #654105",
"%+	c #7F5305",
"&+	c #886205",
"*+	c #956D05",
"=+	c #7D5705",
"-+	c #523002",
";+	c #714B05",
">+	c #A07106",
",+	c #B18106",
"'+	c #8A6205",
")+	c #291B04",
"!+	c #020100",
"~+	c #030200",
"{+	c #0F0A00",
"]+	c #100B00",
"^+	c #040200",
"                                                                                    ",
"                                                                                    ",
"                                                                                    ",
"                                                                                    ",
"                                                                                    ",
"                                                                                    ",
"                                                          . + @ # # # # # # # $ %   ",
"                                & & & & &                 * = - ; % % % % % % % >   ",
"                              & & & & , ' &                                         ",
"                            & & & & & ) ! ~ &                                       ",
"                            & & & & & & & & &                                       ",
"                            & & { & & ] & & &                                       ",
"                            & ^ ^ & / ^ ( & & &                                     ",
"                            & & ^ _ ^ & : & & &                                     ",
"                            & & < [ } & | & & &                                     ",
"                            & 1 2 3 4 5 6 & & &                                     ",
"                            & 7 2 8 9 0 a & & &                                     ",
"                            & b c d e f g & h i &                                   ",
"                            & j k l k m n o & & &                                   ",
"                          & ^ ^ p q ^ j n r & & & &                                 ",
"                        & & ^ ^ ^ ^ ^ j s t u & & &                                 ",
"                      & & v ^ ^ ^ ^ ^ j w x p & & & &                               ",
"                      & & ^ ^ ^ ^ ^ ^ y z u A B & & & &                             ",
"                      & & ^ ^ ^ ^ ^ ^ y z C D E & ~ & &                             ",
"                    & & ^ ^ ^ ^ ^ ^ F G z z D n H I { & &                           ",
"                    & & ^ ^ ^ ^ ^ F G z z z C C z & & & &                           ",
"                  & J ^ ^ ^ ^ ^ F G z z z z z z z & K & &                           ",
"                  & L ^ ^ ^ ^ ^ y z z z z z z z D & M & &                           ",
"                  & ) ^ ^ ^ ^ ^ y z z z z z z z C & ~ & &                           ",
"                  N O & ^ ^ ^ F G z z z z z z P P & & & &                           ",
"                Q R S T & ^ ^ y z z z z z z z U V & & W X                           ",
"            Y Z `  ...+.& & F G z z z z z z @.#.$.%.&.*.=.-.                        ",
"          ;.>.>.,.R '.).!.& & z z z z z z z @.~.{.].^./.(._.                        ",
"          :.<.[.}.|.1.2.3.4.& 5.5.5.5.5.5.5.6.7.8.9.0.a.b.c.d.                      ",
"          e.f.S g.h.i.j.k.l.| m.n.v v v v & & o.p.q.r.s.t.u.c.v.                    ",
"          w.3.x.y.z.A.B.C.D.E.F.G.A H.H.& & & I.J.K.L.M.N.O.P.                      ",
"          Q.R.S.T.U.(.V.W.X.Y.& & & & & & & & Z.`. +.+++@+                          ",
"                #+$+%+&+*+=+-+& &           & ;+>+,+'+)+                            ",
"                      !+~+&                   {+]+^+&                               "};
