/* XPM */
static char * buddychat_xpm[] = {
"34 40 380 2",
"  	c None",
". 	c #FFFFFF",
"+ 	c #FEFEFE",
"@ 	c #E9E9E9",
"# 	c #FDFDFD",
"$ 	c #F4F4F4",
"% 	c #E5E5E5",
"& 	c #FBFBFB",
"* 	c #FAFAFA",
"= 	c #E3E3E3",
"- 	c #C1C1C1",
"; 	c #F8F8F8",
"> 	c #F7F7F7",
", 	c #F0F0F0",
"' 	c #D1D1D1",
") 	c #F6F6F6",
"! 	c #EDEDED",
"~ 	c #DBDBDB",
"{ 	c #C4C4C4",
"] 	c #B5B5B5",
"^ 	c #E0E0E0",
"/ 	c #D2D2D2",
"( 	c #C3C3C3",
"_ 	c #ADADAD",
": 	c #949494",
"< 	c #EAEAEA",
"[ 	c #EFEFEF",
"} 	c #F9F9F9",
"| 	c #F1F1F1",
"1 	c #E7E7E7",
"2 	c #F3F3F3",
"3 	c #E6E6E6",
"4 	c #D4D4D4",
"5 	c #E2E2E2",
"6 	c #CACACA",
"7 	c #CDCDCD",
"8 	c #DCDCDC",
"9 	c #DEDEDE",
"0 	c #D6D6D6",
"a 	c #B2B2B2",
"b 	c #959595",
"c 	c #B9B9B9",
"d 	c #A4A4A4",
"e 	c #A8A8A8",
"f 	c #D5D5D5",
"g 	c #D8D8D8",
"h 	c #CECECE",
"i 	c #C7C7C7",
"j 	c #C5C5C5",
"k 	c #BEBEBE",
"l 	c #BABABA",
"m 	c #B6B6B6",
"n 	c #A2A2A2",
"o 	c #9E9E9E",
"p 	c #A1A1A1",
"q 	c #ABABAB",
"r 	c #A9A9A9",
"s 	c #A5A5A5",
"t 	c #C0C0C0",
"u 	c #010102",
"v 	c #383839",
"w 	c #000001",
"x 	c #0B0B0B",
"y 	c #020203",
"z 	c #000002",
"A 	c #161516",
"B 	c #313031",
"C 	c #010104",
"D 	c #010103",
"E 	c #020205",
"F 	c #020204",
"G 	c #1D1D1D",
"H 	c #1C1B1B",
"I 	c #030304",
"J 	c #313030",
"K 	c #050506",
"L 	c #060607",
"M 	c #0C0C0D",
"N 	c #060609",
"O 	c #070709",
"P 	c #CCCCCC",
"Q 	c #232324",
"R 	c #1D1D1E",
"S 	c #080809",
"T 	c #19191A",
"U 	c #1E1E1F",
"V 	c #C2C2C1",
"W 	c #565556",
"X 	c #6E6E6E",
"Y 	c #5C5C5D",
"Z 	c #404041",
"` 	c #888888",
" .	c #383738",
"..	c #AFAFAD",
"+.	c #2A2A2B",
"@.	c #939392",
"#.	c #272727",
"$.	c #717171",
"%.	c #3C3C3E",
"&.	c #696353",
"*.	c #B39F55",
"=.	c #8C7A3E",
"-.	c #555453",
";.	c #4B4B4C",
">.	c #7D6E42",
",.	c #AE9A4B",
"'.	c #121112",
").	c #4E4E4E",
"!.	c #A49D7A",
"~.	c #BEA635",
"{.	c #C19E15",
"].	c #53472B",
"^.	c #332B10",
"/.	c #FFEF26",
"(.	c #FFFD26",
"_.	c #FFD00C",
":.	c #7A5A15",
"<.	c #553F11",
"[.	c #F3BB0C",
"}.	c #504407",
"|.	c #1B1B1B",
"1.	c #0D0D0E",
"2.	c #BC9210",
"3.	c #FFD916",
"4.	c #E0BD15",
"5.	c #7E5D05",
"6.	c #2C2C2E",
"7.	c #4A463E",
"8.	c #F0C762",
"9.	c #EBB40F",
"0.	c #EEBC1B",
"a.	c #5A4B26",
"b.	c #38301B",
"c.	c #B58F1D",
"d.	c #060604",
"e.	c #141415",
"f.	c #030305",
"g.	c #0B0B0D",
"h.	c #2F2F30",
"i.	c #D8CFBD",
"j.	c #C9A24D",
"k.	c #B08A23",
"l.	c #64583C",
"m.	c #DADAD9",
"n.	c #DDD3BF",
"o.	c #CFC7B8",
"p.	c #919191",
"q.	c #616061",
"r.	c #8E8C87",
"s.	c #3A3A3B",
"t.	c #171718",
"u.	c #2D2D2E",
"v.	c #4F4F4F",
"w.	c #777676",
"x.	c #F7F7F5",
"y.	c #B5B5B4",
"z.	c #9F9F9E",
"A.	c #1F1F1F",
"B.	c #272628",
"C.	c #29292A",
"D.	c #9B9B9A",
"E.	c #626263",
"F.	c #524F42",
"G.	c #6B6962",
"H.	c #7D7D7C",
"I.	c #040406",
"J.	c #C6C6C6",
"K.	c #E3E3E2",
"L.	c #CCCCCA",
"M.	c #767676",
"N.	c #09090B",
"O.	c #959597",
"P.	c #F5F5F3",
"Q.	c #59595A",
"R.	c #131315",
"S.	c #765F2B",
"T.	c #D8AE0F",
"U.	c #DCBF25",
"V.	c #CDB851",
"W.	c #040405",
"X.	c #484849",
"Y.	c #F3F3F2",
"Z.	c #F0F0EF",
"`.	c #E7E7E6",
" +	c #C7C7C6",
".+	c #0F0D10",
"++	c #383838",
"@+	c #FFFFFE",
"#+	c #D2D2D1",
"$+	c #121213",
"%+	c #936F0D",
"&+	c #EBC215",
"*+	c #E2B80F",
"=+	c #CD9F24",
"-+	c #505050",
";+	c #F6F6F5",
">+	c #F8F8F6",
",+	c #636364",
"'+	c #060606",
")+	c #030203",
"!+	c #4D4D4E",
"~+	c #FDFDFC",
"{+	c #FBFBF9",
"]+	c #88847C",
"^+	c #B6995B",
"/+	c #C0A571",
"(+	c #E5E3DD",
"_+	c #525253",
":+	c #111113",
"<+	c #FEFEFD",
"[+	c #FAFAF9",
"}+	c #F9F9F8",
"|+	c #F8F8F7",
"1+	c #EEEEEC",
"2+	c #B3B3B2",
"3+	c #060608",
"4+	c #8B8B8B",
"5+	c #FCFCFB",
"6+	c #DEDEDD",
"7+	c #414141",
"8+	c #DAD9D8",
"9+	c #F0F0EE",
"0+	c #FDFDFB",
"a+	c #BABAB8",
"b+	c #FCFCFA",
"c+	c #EFEFEE",
"d+	c #D8D7D7",
"e+	c #0E0E0F",
"f+	c #0B0B0C",
"g+	c #5D5B54",
"h+	c #565657",
"i+	c #6C6B6C",
"j+	c #F7F7F6",
"k+	c #ECECEC",
"l+	c #D3D3D2",
"m+	c #202021",
"n+	c #616162",
"o+	c #EEEEED",
"p+	c #F3F3F1",
"q+	c #A7A6A2",
"r+	c #795F10",
"s+	c #3F2E03",
"t+	c #81690D",
"u+	c #060404",
"v+	c #795C08",
"w+	c #FFF288",
"x+	c #BBBBBB",
"y+	c #D3D3D1",
"z+	c #FBFBFA",
"A+	c #969696",
"B+	c #101011",
"C+	c #CCCCCB",
"D+	c #F9F9F7",
"E+	c #F4F4F2",
"F+	c #909090",
"G+	c #68540F",
"H+	c #CA9C09",
"I+	c #B88B08",
"J+	c #8D6808",
"K+	c #FFD40C",
"L+	c #C89008",
"M+	c #E7A709",
"N+	c #E2C168",
"O+	c #FAFAF8",
"P+	c #7A7A7A",
"Q+	c #676767",
"R+	c #6F6F6F",
"S+	c #B1B1B0",
"T+	c #1E1905",
"U+	c #CDA00A",
"V+	c #E2AF0B",
"W+	c #EAB30B",
"X+	c #DCA80A",
"Y+	c #FFF00F",
"Z+	c #FFF10F",
"`+	c #FFE60D",
" @	c #9C7517",
".@	c #BDBDBC",
"+@	c #E7E7E5",
"@@	c #E3E3E1",
"#@	c #CBCBCA",
"$@	c #0F0F10",
"%@	c #9E9E9D",
"&@	c #F6F6F4",
"*@	c #F5F5F4",
"=@	c #313132",
"-@	c #D4D4D3",
";@	c #C8C7C6",
">@	c #A2851C",
",@	c #DBA90A",
"'@	c #E4B00B",
")@	c #EBB50B",
"!@	c #CC9C09",
"~@	c #D39C09",
"{@	c #FFE20D",
"]@	c #FFD90C",
"^@	c #F2B90B",
"/@	c #886106",
"(@	c #5B5B5B",
"_@	c #7A7A79",
":@	c #646462",
"<@	c #100D09",
"[@	c #CECECD",
"}@	c #363637",
"|@	c #09090A",
"1@	c #393939",
"2@	c #3F3728",
"3@	c #9E7706",
"4@	c #C09409",
"5@	c #C39508",
"6@	c #B48A09",
"7@	c #A37B07",
"8@	c #513903",
"9@	c #956D05",
"0@	c #AD8007",
"a@	c #604103",
"b@	c #050301",
"c@	c #231702",
"d@	c #5D4305",
"e@	c #CD9E0A",
"f@	c #7E7555",
"g@	c #FFFFFD",
"h@	c #EAD475",
"i@	c #251D04",
"j@	c #312A0A",
"k@	c #0E0901",
"l@	c #593D03",
"m@	c #745304",
"n@	c #302101",
"o@	c #332201",
"p@	c #705306",
"q@	c #BF9108",
"r@	c #FAC00C",
"s@	c #CFA10A",
"t@	c #3C3B36",
"u@	c #DBDBD9",
"v@	c #F4F4F3",
"w@	c #E5E5E4",
"x@	c #D5AD3C",
"y@	c #755105",
"z@	c #5E4305",
"A@	c #957207",
"B@	c #A47B07",
"C@	c #EFB80A",
"D@	c #FFCF0D",
"E@	c #FFC70C",
"F@	c #655006",
"G@	c #7E7E7E",
"H@	c #E1E1E0",
"I@	c #E0E0DE",
"J@	c #BCBCBA",
"K@	c #A98117",
"L@	c #CA9908",
"M@	c #AF8708",
"N@	c #745905",
"O@	c #EEB30A",
"P@	c #FFCC0B",
"Q@	c #FFC90C",
"R@	c #BA9209",
"S@	c #B0AA9E",
"T@	c #B9B9B8",
"U@	c #201E1C",
"V@	c #936B06",
"W@	c #B98E09",
"X@	c #B68C08",
"Y@	c #A98207",
"Z@	c #916D07",
"`@	c #D59A09",
" #	c #E2A80C",
".#	c #C89709",
"+#	c #AC8407",
"@#	c #957006",
"##	c #2C1D02",
"$#	c #040302",
"%#	c #705004",
"&#	c #977306",
"*#	c #8B6806",
"=#	c #453202",
"-#	c #050300",
";#	c #020100",
"                                                                    ",
"                          . . . . . . . . . . .                     ",
"                    . . . . . . . . . . . . . . .                   ",
"                  . . . . . . . . . . . . . . . + @                 ",
"              . . . . . . . . . . . . . . . . . # $ %               ",
"            . . . . . . . . . . . . . . . . . . . & @               ",
"            . . . . . . . . . . . . . . . . . . . * = -             ",
"            . . . . . . . . . . . . . + + # & ; > , = '             ",
"            . . . . . . . . . . + + + + & ) ! % ~ ' { ]             ",
"            . . . # . . . + * ; ; * & & ; ! ^ / ( _ :               ",
"              < [ & . } | < 1 @ | ) 2 | , 3 4 ( _ :                 ",
"              = < ; | 5 4 6 7 8 1 < = 9 ~ 0 6 a b                   ",
"                5 ! 9 c d e - f g h i j k l m n                     ",
"                = 1 7     o { i a p n q r   n s                     ",
"                  '       { 5         n     r t                     ",
"                            +         0                             ",
"                    u       v u w     .     x y z w                 ",
"                A B C D u u E F G H   .   I J K F F                 ",
"                L M C N D D N E N O u P   F Q R S T                 ",
"              u U V W X Y Z `  ...+.D     F @.e #.$.                ",
"              D %.&.*.=.-.;.>.,.'.).D     F !.~.{.].                ",
"              D ^./.(._.:.<.[.}.F D |.    1.2.3.4.5.                ",
"              6.7.8.9.0.a.b.c.d.D D e.f.g.h.i.j.k.l.                ",
"            D y m.. n.o.p.q.r.s.t.u.v.f.F w.. x.y.z.A.              ",
"            D B.. . . . x.C.D.E.F.G.H.f.I.J.. . K.L.M.w             ",
"          E N.O.. . . . P.Q.R.S.T.U.V.W.X.Y.. . Z.`. +R.            ",
"        u .+++. . . . . @+#+$+%+&+*+=+t.-+. . @+;+x.>+,+'+          ",
"        D )+!+. . . . . ~+{+-+]+^+/+(+_+:+r <+[+}+|+1+2+3+          ",
"        D 1.4+. . . . <+5+6+7+P.8+9+0+a+D +.x.b+{+, c+d+A           ",
"        e+f+g+. . . . [+Y.h+i+j+Y.}+k+l+m+F n+b+j+o+p+q+r+s+        ",
"        t+u+v+w+. . . |+x+e+y+z+{+b+b+, A+B+N.C+D+E+F+G+H+I+J+      ",
"        K+L+M+N+|+O+>+E+P+Q+D+O+|+z+b+[+`.e+K R+o+S+T+U+V+W+X+      ",
"      Y+Z+`+_. @.@+@@@#@$@%@&@}+|+[+b+b+*@=@F =@-@;@>@,@'@)@!@      ",
"      ~@{@]@^@/@f+(@_@:@<@[@@+j+O+z+0+0+E+}@f+|@1@2@3@4@5@6@7@8@    ",
"          9@0@a@w b@c@d@e@f@g@j+j+0+0+b+h@i@K j@  k@l@m@8@n@        ",
"            o@      p@q@r@s@t@u@v@P.Y.w@x@y@z@A@                    ",
"                    B@C@D@E@F@G@H@I@I@J@K@L@q@M@N@                  ",
"                    O@P@Q@'@R@S@T@a+4+U@V@W@X@Y@Z@                  ",
"                    `@ #.#+#@###K u w $#%#&#*#=#                    ",
"                          -#;#          ;#;#                        "};
