/* XPM */
static char * cancel_xpm[] = {
"24 24 8 1",
" 	c None",
".	c #000000",
"+	c #C46D74",
"@	c #9F3C44",
"#	c #B5444E",
"$	c #BD5A62",
"%	c #7B2D34",
"&	c #8C343C",
"                        ",
"                        ",
"                        ",
"                        ",
"                        ",
"                        ",
"         ..      .      ",
"        .+@.    .#.     ",
"        .##.   .$#.     ",
"         .#@. .$#%.     ",
"         .##..$#&.      ",
"          .####@.       ",
"          .####.        ",
"         .$###.         ",
"        .$####.         ",
"       .$#&..#&.        ",
"      .+#&. .@#.        ",
"      .#&.   .#@.       ",
"       ..    .@#.       ",
"              ..        ",
"                        ",
"                        ",
"                        ",
"                        "};
