/* XPM */
static char * cry_xpm[] = {
"19 19 12 1",
" 	c None",
".	c #000000",
"+	c #CCCC00",
"@	c #FFFF00",
"#	c #333300",
"$	c #333333",
"%	c #999900",
"&	c #FFFFFF",
"*	c #666600",
"=	c #CCCC33",
"-	c #666666",
";	c #FFCC00",
"      .......      ",
"    ..+@@@@@+..    ",
"   .+@@@@@@@@@+.   ",
"  .@@@@.@@@..@@@.  ",
" .+@@.#@@@@@@.@@+. ",
" .@@.@$..@@$.$.@@. ",
".+@@@%&..@%&..@@@+.",
".@@@@%&&$@%&&*@@@@.",
".@@@@@$$=@@$-@#@@@.",
".@@@@@@@@@@@@@.*@@.",
".;@@@@@@@@@@@@.*@@.",
".;@@@@.......@@@@@.",
".;@@@.@@@@@@@.@@@+.",
" .;@.;;;...@@@.@@. ",
" .;@@@@;;;@@@@@@+. ",
"  .;@@@@@@@@@@@@.  ",
"   .;;@@@@@@@@+.   ",
"    ..;;;@@@+..    ",
"      .......      "};
