/* XPM */
static char * daemon_permadd_xpm[] = {
"52 45 282 2",
"  	c None",
". 	c #FF1717",
"+ 	c #FF1616",
"@ 	c #FF1515",
"# 	c #B31A19",
"$ 	c #C11D1B",
"% 	c #FF1414",
"& 	c #FF1313",
"* 	c #FA1313",
"= 	c #FE1313",
"- 	c #B51B19",
"; 	c #C91E1C",
"> 	c #FF1212",
", 	c #F61111",
"' 	c #F21111",
") 	c #F51212",
"! 	c #A21817",
"~ 	c #B21A19",
"{ 	c #FB1212",
"] 	c #E21010",
"^ 	c #D40F0F",
"/ 	c #C80E0E",
"( 	c #D90F0F",
"_ 	c #DE0F0F",
": 	c #E61010",
"< 	c #F91111",
"[ 	c #EB1111",
"} 	c #F41212",
"| 	c #B01B18",
"1 	c #AC1918",
"2 	c #F71111",
"3 	c #C00D0D",
"4 	c #7F757C",
"5 	c #412A38",
"6 	c #8E8186",
"7 	c #EA1010",
"8 	c #EF1212",
"9 	c #C41D1A",
"0 	c #C51E1B",
"a 	c #BE1C1A",
"b 	c #AB1917",
"c 	c #841412",
"d 	c #821412",
"e 	c #AE1A17",
"f 	c #8C1514",
"g 	c #D30F0F",
"h 	c #694B55",
"i 	c #522936",
"j 	c #7A3D44",
"k 	c #9B0B0B",
"l 	c #ED1212",
"m 	c #DA1010",
"n 	c #C31D1A",
"o 	c #CA1E1C",
"p 	c #C31E1B",
"q 	c #B21B18",
"r 	c #A11817",
"s 	c #931615",
"t 	c #9C1715",
"u 	c #B81C19",
"v 	c #8A1413",
"w 	c #855F68",
"x 	c #7A2C36",
"y 	c #382028",
"z 	c #908E90",
"A 	c #765F66",
"B 	c #8F2D38",
"C 	c #31323D",
"D 	c #C20D0D",
"E 	c #F71212",
"F 	c #F31212",
"G 	c #EA1111",
"H 	c #70100F",
"I 	c #851413",
"J 	c #A0212D",
"K 	c #64343E",
"L 	c #55202A",
"M 	c #64222B",
"N 	c #422026",
"O 	c #42171F",
"P 	c #371923",
"Q 	c #F21212",
"R 	c #DF1010",
"S 	c #CC0F0F",
"T 	c #620E0E",
"U 	c #871413",
"V 	c #A51722",
"W 	c #A0373C",
"X 	c #A22930",
"Y 	c #2A1E23",
"Z 	c #371521",
"` 	c #6D3E48",
" .	c #841F2A",
"..	c #E51111",
"+.	c #D61010",
"@.	c #C90F0F",
"#.	c #8F1514",
"$.	c #A51817",
"%.	c #8A393D",
"&.	c #FFFFFF",
"*.	c #CFB9B9",
"=.	c #8C555E",
"-.	c #A09A9A",
";.	c #7A1F29",
">.	c #4E1623",
",.	c #4D1736",
"'.	c #950E1A",
").	c #84121C",
"!.	c #E21111",
"~.	c #DB1010",
"{.	c #B70D0D",
"].	c #BF0E0E",
"^.	c #D81010",
"/.	c #D10F0F",
"(.	c #640F0E",
"_.	c #6B100E",
":.	c #53404A",
"<.	c #E7DDDD",
"[.	c #874B58",
"}.	c #DCD4C0",
"|.	c #A1272A",
"1.	c #611825",
"2.	c #CF0F0F",
"3.	c #DE1010",
"4.	c #9A0B0B",
"5.	c #A60C0C",
"6.	c #C80F0F",
"7.	c #B00D0D",
"8.	c #D9E1D9",
"9.	c #AEA5AB",
"0.	c #DD1010",
"a.	c #D00F0F",
"b.	c #D31010",
"c.	c #7D8D91",
"d.	c #223F6A",
"e.	c #BDC0C4",
"f.	c #668FA6",
"g.	c #92B4C1",
"h.	c #FC1313",
"i.	c #E41111",
"j.	c #C40E0E",
"k.	c #EC1111",
"l.	c #DC0F0F",
"m.	c #282341",
"n.	c #1C1D23",
"o.	c #1B3258",
"p.	c #375371",
"q.	c #EEE6D3",
"r.	c #4C202A",
"s.	c #E71111",
"t.	c #E31111",
"u.	c #CA0F0F",
"v.	c #AA0C0C",
"w.	c #C60F0F",
"x.	c #D51010",
"y.	c #AB0D0D",
"z.	c #672A34",
"A.	c #162045",
"B.	c #5C7D96",
"C.	c #ADC5BE",
"D.	c #A53127",
"E.	c #701D20",
"F.	c #E01111",
"G.	c #B10D0D",
"H.	c #78151D",
"I.	c #96050E",
"J.	c #C8A0A0",
"K.	c #D41010",
"L.	c #C00E0E",
"M.	c #5B657F",
"N.	c #818185",
"O.	c #564A54",
"P.	c #902030",
"Q.	c #AB0C16",
"R.	c #E91111",
"S.	c #D91010",
"T.	c #799DA9",
"U.	c #6C6D74",
"V.	c #90161D",
"W.	c #FD1313",
"X.	c #F81212",
"Y.	c #384868",
"Z.	c #EE1212",
"`.	c #FB1313",
" +	c #956A74",
".+	c #523240",
"++	c #475E84",
"@+	c #445374",
"#+	c #6A5461",
"$+	c #D61213",
"%+	c #26151B",
"&+	c #DB1212",
"*+	c #C71213",
"=+	c #DA1212",
"-+	c #CE1314",
";+	c #B31416",
">+	c #7F6D6F",
",+	c #DA1112",
"'+	c #CA1213",
")+	c #D51213",
"!+	c #302A35",
"~+	c #C50E0E",
"{+	c #CE0F0F",
"]+	c #461D25",
"^+	c #433D45",
"/+	c #AF0C0C",
"(+	c #4F3521",
"_+	c #FF2617",
":+	c #F11212",
"<+	c #4B4B54",
"[+	c #3F3441",
"}+	c #FF2213",
"|+	c #BC0E0E",
"1+	c #555458",
"2+	c #653525",
"3+	c #4B2E33",
"4+	c #4A2D32",
"5+	c #2D2227",
"6+	c #3C3C5D",
"7+	c #371922",
"8+	c #F02810",
"9+	c #BA0E0E",
"0+	c #A00C0C",
"a+	c #B20D0D",
"b+	c #313D63",
"c+	c #574C49",
"d+	c #686266",
"e+	c #2B1E22",
"f+	c #CC0F0E",
"g+	c #B50D0D",
"h+	c #9D0B0B",
"i+	c #BF120D",
"j+	c #64636A",
"k+	c #99A4A0",
"l+	c #AABCB3",
"m+	c #A4AC8F",
"n+	c #829A95",
"o+	c #766D5F",
"p+	c #6F6E6F",
"q+	c #645F56",
"r+	c #5F392F",
"s+	c #7F1518",
"t+	c #891214",
"u+	c #8D1A1D",
"v+	c #3F6C97",
"w+	c #5189AE",
"x+	c #245E91",
"y+	c #234B7B",
"z+	c #0B0B09",
"A+	c #121417",
"B+	c #885D56",
"C+	c #C60F0E",
"D+	c #B90D0D",
"E+	c #AD0C0C",
"F+	c #A50C0C",
"G+	c #71151A",
"H+	c #C90E0E",
"I+	c #C70E0E",
"J+	c #4B7EA5",
"K+	c #2B6DA0",
"L+	c #1C5588",
"M+	c #1C2948",
"N+	c #CD0E0E",
"O+	c #A5191B",
"P+	c #980B0B",
"Q+	c #D70F0F",
"R+	c #DA0F0F",
"S+	c #CA0E0E",
"T+	c #AFB2B2",
"U+	c #6E747F",
"V+	c #E92021",
"W+	c #E11010",
"X+	c #B21011",
"Y+	c #9A0F12",
"Z+	c #825253",
"`+	c #B60D0D",
" @	c #CE0E0E",
".@	c #D10E0E",
"+@	c #FA1515",
"@@	c #940E11",
"#@	c #E81111",
"$@	c #5B5C60",
"                                                                                                        ",
"                                                                                                        ",
"                                                                                                        ",
"                                  . . + @ @ @ @ @                                         # $           ",
"                        . . + @ + . + @ % @ % % & * = %                                   - ;           ",
"                    . . . . @ % % + % & & % & > , ' > & * )                               ! ~           ",
"                  . . . @ % { ] ^                 / ( _ : < [ }                           | 1           ",
"                . . . % 2 3   4 5                   6     / 7 * 8                   9 0 0 a b c d e f   ",
"              . . . & g     h i                       j     k ( l m l               n o p q r s t u v   ",
"            + . . %       w x y     z A 4             B C     D 2 E F G                   H I           ",
"            + + &         J K y y L M N O P y         M y   F & % & Q R S                 T U           ",
"        . . . &           V K B K W X J Y O Z y 4   `  .P + . + @ & ..R +.@.              #.$.          ",
"      + . . %             X %.&.*.=.&.-.;.>.O ,.M '.).Z !.. . + % ~.{.].^./.              (._.          ",
"      + @ %               :.<.&.[.&.&.}.|.;.L L 1.,.,.2.& . + % 3.4.    5.6.7.                          ",
"    + + % _               h 8.&.9.&.&.&.J  .L N y y 0.E % @ & m 4.        a.b.].                        ",
"    @ % &                 c.d.e.f.g.&.&.J  .L P Z 3.8 h.) i.j.          7.+.k.b.                        ",
"    % % l.              :.m.n.N o.p.q.&.V ;.r.Z 3.s.k.t.u.v.              w.3.x.y.                      ",
"  + @ %               z V ;.i z.A.B.&.C.D.E.O R F.i.0.@.G.                6./.i.].                      ",
"  @ + %               L '.H.I.M y J.J.i ;.M !.R R R K.L.5.                  w.t.2.                      ",
"  & & F           M.N.O. .M ,.Z Z P.V Q.'.l !.R R 0.b.L.                    a.R.S.                      ",
"  * 2 @.      T.    U.  i P ;.;.;.'.V.).W.l !.R R 0.b.                      8 X.3.                      ",
"  * F           z M.Y.      y z.;.;.,.& h.Z.t.R R 0.                        * W.R                       ",
"  * `.      B.    Y.C   h  +  .+N y % & ) k.t.R R                           * W.R                       ",
"  * &         ++@+    m.I.Z     #+% % W.8 ..$+R R                           * W.R                       ",
"  * &                 z.,.%+    % & = ) k.&+*+                              * W.R                       ",
"  * &                 '.H.%+N @ % & ) l =+-+;+                              * W.R                       ",
"  * > L.              >+Z Z @ % & h.8 ,+'+r.O U.                            * W.R                       ",
"  * % ..                  + @ % = } k.)+5 y O 5                             * W.3.                      ",
"  * % k.                % @ @ % = 8 ,+P %+O O !+                            & & m                       ",
"  * W.R               . + @ % & h.Z.%+%+P O P                             + @ % ~+                      ",
"  ) l ^.            . . . + % = } k.P %+%+%+%+                            @ + %                         ",
"    {+R /         . . . + @ % = ).]+y Z Z %+Y ^+                          % % Q                         ",
"    6.S._ /+    . + + + @ @ % M ).H.>.P %+%+%+Y                         . + % @.                        ",
"      w.R ^ K.% . + @ % % &   ^+(+Z P y P Z Z P !+                    _+. . &                           ",
"      6.S.:+h.@ + + @ & h.    <+K P P N y y y %+P [+                  }++ %                             ",
"        |+w.t.& % % % )     1+O.w 2+5 3+4+5+6+  !+N 7+O.            8+* s.9+                            ",
"          0+a+@.^.R 3.B.b+.+<+5 c+.+5 Z N y 5 d+    :.e+P y [+    f+u.g+                                ",
"            h+a+j.i+f.j+k+l+m+n+B.r.r.N O O O 5 n.<+d+o+p+q+r+Y s+t+u+                                  ",
"              h+a+L.3 v+T.f.w+v+x+5 N 5 5 [+y+y+z+A+C ^+U.B+C+D+E+F+G+5                                 ",
"                h+g+j.H+I+T.J+K+x+L+L+L+y+M+A+A+z+n.C 1+N.N+H+O+y.P+  y [+d+                            ",
"                  0+9+Q+R+R+S+T+U+!+n.n.Y n.!+!+C 1+V+> 2 W+X+Y+Z+A y !+n.^+d+4                         ",
"                    0+`+].~+Q+ @.@Q & % % % @ % % @ + + +@~.@@r.N y %+Y <+1+N.                          ",
"                            7.S #@@ % % % % @ @ % @ + @ x.        U.O.$@N.                              ",
"                                4.{+t.!.R R R R 3.~.~+                                                  ",
"                                                                                                        "};
