/* XPM */
static char * daemon_buddydel_xpm[] = {
"40 38 105 2",
"  	c None",
". 	c #564A54",
"+ 	c #7F757C",
"@ 	c #412A38",
"# 	c #8E8186",
"$ 	c #694B55",
"% 	c #522936",
"& 	c #7A3D44",
"* 	c #855F68",
"= 	c #7A2C36",
"- 	c #382028",
"; 	c #908E90",
"> 	c #765F66",
", 	c #8F2D38",
"' 	c #31323D",
") 	c #A0212D",
"! 	c #64343E",
"~ 	c #55202A",
"{ 	c #64222B",
"] 	c #422026",
"^ 	c #42171F",
"/ 	c #371923",
"( 	c #A51722",
"_ 	c #A0373C",
": 	c #A22930",
"< 	c #2A1E23",
"[ 	c #371521",
"} 	c #6D3E48",
"| 	c #841F2A",
"1 	c #3F3441",
"2 	c #8A393D",
"3 	c #FFFFFF",
"4 	c #CFB9B9",
"5 	c #8C555E",
"6 	c #A09A9A",
"7 	c #7A1F29",
"8 	c #4E1623",
"9 	c #4D1736",
"0 	c #950E1A",
"a 	c #84121C",
"b 	c #3C3C5D",
"c 	c #53404A",
"d 	c #E7DDDD",
"e 	c #874B58",
"f 	c #611825",
"g 	c #282341",
"h 	c #AB0C16",
"i 	c #D9E1D9",
"j 	c #AEA5AB",
"k 	c #7D8D91",
"l 	c #223F6A",
"m 	c #BDC0C4",
"n 	c #668FA6",
"o 	c #92B4C1",
"p 	c #1C1D23",
"q 	c #1B3258",
"r 	c #375371",
"s 	c #4C202A",
"t 	c #6C6D74",
"u 	c #672A34",
"v 	c #162045",
"w 	c #5C7D96",
"x 	c #ADC5BE",
"y 	c #6C1620",
"z 	c #78151D",
"A 	c #96050E",
"B 	c #C8A0A0",
"C 	c #5B657F",
"D 	c #818185",
"E 	c #902030",
"F 	c #799DA9",
"G 	c #90161D",
"H 	c #384868",
"I 	c #956A74",
"J 	c #523240",
"K 	c #475E84",
"L 	c #445374",
"M 	c #6A5461",
"N 	c #26151B",
"O 	c #7F6D6F",
"P 	c #A6050D",
"Q 	c #302A35",
"R 	c #433D45",
"S 	c #4B4B54",
"T 	c #555458",
"U 	c #9DB5BE",
"V 	c #81A9BA",
"W 	c #313D63",
"X 	c #686266",
"Y 	c #799CBB",
"Z 	c #4B7EA5",
"` 	c #B1CFD4",
" .	c #5B5C60",
"..	c #3F6C97",
"+.	c #5189AE",
"@.	c #245E91",
"#.	c #234B7B",
"$.	c #0B0B09",
"%.	c #121417",
"&.	c #6F808F",
"*.	c #2B6DA0",
"=.	c #1C5588",
"-.	c #1C2948",
";.	c #AFB2B2",
">.	c #6E747F",
"                              .                                                 ",
"                    + @                   #                                     ",
"                  $ %                       &                                   ",
"                * = -     ; > +             , '                                 ",
"                ) ! - - ~ { ] ^ / -         { -                                 ",
"                ( ! , ! _ : ) < ^ [ - +   } | / 1                               ",
"                : 2 3 4 5 3 6 7 8 ^ 9 { 0 a [ [ b                               ",
"                c d 3 e 3 3 3 ) 7 ~ ~ f 9 9 g [       h h h h h h h h h h h h   ",
"                $ i 3 j 3 3 3 ) | ~ ] - - [ [ g       h h h h h h h h h h h h   ",
"                k l m n o 3 3 ) | ~ / [ ^ [ 1                                   ",
"              c g p ] q r 3 3 ( 7 s [ [ ^ t                                     ",
"            ; ( 7 % u v w 3 x ) y ^ < ^ /                                       ",
"            ~ 0 z A { - B B % 7 { / / [ -                                       ",
"        C D . | { 9 [ [ E ( h 0 8 ^ < [ 1                                       ",
"    F     t   % / 7 7 7 0 G a 8 ^ / [ ]                                         ",
"      ; C H       - u 7 7 9 < - / [ [                                           ",
"  w     H '   $ I   J ] - 9 s / ] -                                             ",
"    K L     g A [     M / N ] s ^ @                                             ",
"            u 9 N     % a 0 7 G 7 -                                             ",
"            0 z N ] < ~ f f ~ ~ { -                                             ",
"            O [ [ [ N G P a / - s ^ t                                           ",
"                M - ^ A A a s @ - ^ @                                           ",
"                  1 8 z { [ / N ^ ^ Q                                           ",
"                    - - / N N / ^ /                                             ",
"                  ! a - - / N N N N                                             ",
"                  > 0 a ^ - [ [ N < R                                           ",
"                    { a z 8 / N N N <                                           ",
"                    R - [ / - / [ [ / Q                                         ",
"                    S ! / / ] - - - N / 1                                       ",
"                  T . * 9 @ ] ] < b   Q ] / .                                   ",
"      k U V w W J S @ b J @ [ ] - @ X     c < / - 1                             ",
"    ; V Y n Z U ` x V w s s ] ^ ^ ^ @ p S X t t  .1 < - - c                     ",
"      V n Z ..F n +...@.@ ] @ @ 1 #.#.$.%.' R t +         s @                   ",
"              &.F Z *.@.=.=.=.#.-.%.%.$.p ' T D     .       - 1 X               ",
"                    ;.>.Q p p < p Q Q ' T t       ~ 7 O > - Q p R X       +     ",
"                                              7 y f s ] - N < S T D             ",
"                                                        t .  .D                 ",
"                                                                                "};
