/* XPM */
static char * daemon_buddyadd_xpm[] = {
"40 38 105 2",
"  	c None",
". 	c #564A54",
"+ 	c #7F757C",
"@ 	c #412A38",
"# 	c #8E8186",
"$ 	c #AB0C16",
"% 	c #694B55",
"& 	c #522936",
"* 	c #7A3D44",
"= 	c #855F68",
"- 	c #7A2C36",
"; 	c #382028",
"> 	c #908E90",
", 	c #765F66",
"' 	c #8F2D38",
") 	c #31323D",
"! 	c #A0212D",
"~ 	c #64343E",
"{ 	c #55202A",
"] 	c #64222B",
"^ 	c #422026",
"/ 	c #42171F",
"( 	c #371923",
"_ 	c #A51722",
": 	c #A0373C",
"< 	c #A22930",
"[ 	c #2A1E23",
"} 	c #371521",
"| 	c #6D3E48",
"1 	c #841F2A",
"2 	c #3F3441",
"3 	c #8A393D",
"4 	c #FFFFFF",
"5 	c #CFB9B9",
"6 	c #8C555E",
"7 	c #A09A9A",
"8 	c #7A1F29",
"9 	c #4E1623",
"0 	c #4D1736",
"a 	c #950E1A",
"b 	c #84121C",
"c 	c #3C3C5D",
"d 	c #53404A",
"e 	c #E7DDDD",
"f 	c #874B58",
"g 	c #611825",
"h 	c #282341",
"i 	c #D9E1D9",
"j 	c #AEA5AB",
"k 	c #7D8D91",
"l 	c #223F6A",
"m 	c #BDC0C4",
"n 	c #668FA6",
"o 	c #92B4C1",
"p 	c #1C1D23",
"q 	c #1B3258",
"r 	c #375371",
"s 	c #4C202A",
"t 	c #6C6D74",
"u 	c #672A34",
"v 	c #162045",
"w 	c #5C7D96",
"x 	c #ADC5BE",
"y 	c #6C1620",
"z 	c #78151D",
"A 	c #96050E",
"B 	c #C8A0A0",
"C 	c #5B657F",
"D 	c #818185",
"E 	c #902030",
"F 	c #799DA9",
"G 	c #90161D",
"H 	c #384868",
"I 	c #956A74",
"J 	c #523240",
"K 	c #475E84",
"L 	c #445374",
"M 	c #6A5461",
"N 	c #26151B",
"O 	c #7F6D6F",
"P 	c #A6050D",
"Q 	c #302A35",
"R 	c #433D45",
"S 	c #4B4B54",
"T 	c #555458",
"U 	c #9DB5BE",
"V 	c #81A9BA",
"W 	c #313D63",
"X 	c #686266",
"Y 	c #799CBB",
"Z 	c #4B7EA5",
"` 	c #B1CFD4",
" .	c #5B5C60",
"..	c #3F6C97",
"+.	c #5189AE",
"@.	c #245E91",
"#.	c #234B7B",
"$.	c #0B0B09",
"%.	c #121417",
"&.	c #6F808F",
"*.	c #2B6DA0",
"=.	c #1C5588",
"-.	c #1C2948",
";.	c #AFB2B2",
">.	c #6E747F",
"                              .                                                 ",
"                    + @                   #                     $ $             ",
"                  % &                       *                   $ $             ",
"                = - ;     > , +             ' )                 $ $             ",
"                ! ~ ; ; { ] ^ / ( ;         ] ;                 $ $             ",
"                _ ~ ' ~ : < ! [ / } ; +   | 1 ( 2               $ $             ",
"                < 3 4 5 6 4 7 8 9 / 0 ] a b } } c     $ $ $ $ $ $ $ $ $ $ $ $   ",
"                d e 4 f 4 4 4 ! 8 { { g 0 0 h }       $ $ $ $ $ $ $ $ $ $ $ $   ",
"                % i 4 j 4 4 4 ! 1 { ^ ; ; } } h                 $ $             ",
"                k l m n o 4 4 ! 1 { ( } / } 2                   $ $             ",
"              d h p ^ q r 4 4 _ 8 s } } / t                     $ $             ",
"            > _ 8 & u v w 4 x ! y / [ / (                       $ $             ",
"            { a z A ] ; B B & 8 ] ( ( } ;                       $ $             ",
"        C D . 1 ] 0 } } E _ $ a 9 / [ } 2                                       ",
"    F     t   & ( 8 8 8 a G b 9 / ( } ^                                         ",
"      > C H       ; u 8 8 0 [ ; ( } }                                           ",
"  w     H )   % I   J ^ ; 0 s ( ^ ;                                             ",
"    K L     h A }     M ( N ^ s / @                                             ",
"            u 0 N     & b a 8 G 8 ;                                             ",
"            a z N ^ [ { g g { { ] ;                                             ",
"            O } } } N G P b ( ; s / t                                           ",
"                M ; / A A b s @ ; / @                                           ",
"                  2 9 z ] } ( N / / Q                                           ",
"                    ; ; ( N N ( / (                                             ",
"                  ~ b ; ; ( N N N N                                             ",
"                  , a b / ; } } N [ R                                           ",
"                    ] b z 9 ( N N N [                                           ",
"                    R ; } ( ; ( } } ( Q                                         ",
"                    S ~ ( ( ^ ; ; ; N ( 2                                       ",
"                  T . = 0 @ ^ ^ [ c   Q ^ ( .                                   ",
"      k U V w W J S @ c J @ } ^ ; @ X     d [ ( ; 2                             ",
"    > V Y n Z U ` x V w s s ^ / / / @ p S X t t  .2 [ ; ; d                     ",
"      V n Z ..F n +...@.@ ^ @ @ 2 #.#.$.%.) R t +         s @                   ",
"              &.F Z *.@.=.=.=.#.-.%.%.$.p ) T D     .       ; 2 X               ",
"                    ;.>.Q p p [ p Q Q ) T t       { 8 O , ; Q p R X       +     ",
"                                              8 y g s ^ ; N [ S T D             ",
"                                                        t .  .D                 ",
"                                                                                "};
