/* XPM */
static char * daemon_buddychat_xpm[] = {
"34 40 286 2",
"  	c None",
". 	c #FFFFFF",
"+ 	c #FEFEFE",
"@ 	c #E9E9E9",
"# 	c #FDFDFD",
"$ 	c #F4F4F4",
"% 	c #E5E5E5",
"& 	c #FBFBFB",
"* 	c #FAFAFA",
"= 	c #E3E3E3",
"- 	c #C1C1C1",
"; 	c #F8F8F8",
"> 	c #F7F7F7",
", 	c #F0F0F0",
"' 	c #D1D1D1",
") 	c #F6F6F6",
"! 	c #EDEDED",
"~ 	c #DBDBDB",
"{ 	c #C4C4C4",
"] 	c #B5B5B5",
"^ 	c #E0E0E0",
"/ 	c #D2D2D2",
"( 	c #C3C3C3",
"_ 	c #ADADAD",
": 	c #949494",
"< 	c #EAEAEA",
"[ 	c #EFEFEF",
"} 	c #F9F9F9",
"| 	c #F1F1F1",
"1 	c #E7E7E7",
"2 	c #F3F3F3",
"3 	c #E6E6E6",
"4 	c #D4D4D4",
"5 	c #E2E2E2",
"6 	c #CACACA",
"7 	c #CDCDCD",
"8 	c #DCDCDC",
"9 	c #DEDEDE",
"0 	c #D6D6D6",
"a 	c #B2B2B2",
"b 	c #959595",
"c 	c #B9B9B9",
"d 	c #A4A4A4",
"e 	c #A8A8A8",
"f 	c #D5D5D5",
"g 	c #D8D8D8",
"h 	c #CECECE",
"i 	c #C7C7C7",
"j 	c #C5C5C5",
"k 	c #BEBEBE",
"l 	c #BABABA",
"m 	c #B6B6B6",
"n 	c #A2A2A2",
"o 	c #9E9E9E",
"p 	c #A1A1A1",
"q 	c #ABABAB",
"r 	c #A9A9A9",
"s 	c #A5A5A5",
"t 	c #C0C0C0",
"u 	c #32161C",
"v 	c #3C191F",
"w 	c #2F151B",
"x 	c #562C32",
"y 	c #67383E",
"z 	c #613A41",
"A 	c #32141E",
"B 	c #411924",
"C 	c #371821",
"D 	c #4F1B24",
"E 	c #8B5C62",
"F 	c #A2797E",
"G 	c #906F75",
"H 	c #4F282D",
"I 	c #27111E",
"J 	c #3C1828",
"K 	c #4A1A27",
"L 	c #701D28",
"M 	c #C19FA3",
"N 	c #DCD4D6",
"O 	c #BBB1B7",
"P 	c #433237",
"Q 	c #3A161A",
"R 	c #A1A0A1",
"S 	c #22151A",
"T 	c #371721",
"U 	c #6D1B25",
"V 	c #AA8E94",
"W 	c #A7A7B0",
"X 	c #4B475B",
"Y 	c #442731",
"Z 	c #462429",
"` 	c #331922",
" .	c #561822",
"..	c #883A43",
"+.	c #8F424B",
"@.	c #5C2531",
"#.	c #531B25",
"$.	c #4B383E",
"%.	c #514045",
"&.	c #1F0F15",
"*.	c #451822",
"=.	c #64222D",
"-.	c #6B2530",
";.	c #511D26",
">.	c #3F1A21",
",.	c #4D2E3A",
"'.	c #502F3B",
").	c #3B1A23",
"!.	c #481B27",
"~.	c #4B1B27",
"{.	c #392027",
"].	c #3D2329",
"^.	c #601E2A",
"/.	c #4A1F29",
"(.	c #5B2931",
"_.	c #59252C",
":.	c #43151D",
"<.	c #30161C",
"[.	c #50292F",
"}.	c #66373D",
"|.	c #3A1A1E",
"1.	c #351E24",
"2.	c #621E2A",
"3.	c #5D2632",
"4.	c #4D1B24",
"5.	c #611923",
"6.	c #5C1720",
"7.	c #302129",
"8.	c #3D212B",
"9.	c #4D1A23",
"0.	c #431921",
"a.	c #451924",
"b.	c #471A25",
"c.	c #3B1821",
"d.	c #44282E",
"e.	c #312028",
"f.	c #521C25",
"g.	c #571F29",
"h.	c #3C1A22",
"i.	c #521720",
"j.	c #5B151F",
"k.	c #3D1E28",
"l.	c #2B1F28",
"m.	c #361A1F",
"n.	c #3C1921",
"o.	c #331421",
"p.	c #3C1827",
"q.	c #491A26",
"r.	c #453940",
"s.	c #261E26",
"t.	c #3A1B21",
"u.	c #481F27",
"v.	c #31171E",
"w.	c #3E171F",
"x.	c #491720",
"y.	c #4C151C",
"z.	c #240D12",
"A.	c #42141E",
"B.	c #3A161C",
"C.	c #49141B",
"D.	c #40161E",
"E.	c #4E2D39",
"F.	c #251217",
"G.	c #3E141D",
"H.	c #3B171D",
"I.	c #2B161C",
"J.	c #32171F",
"K.	c #501B23",
"L.	c #2A151B",
"M.	c #59151D",
"N.	c #55131D",
"O.	c #3E121A",
"P.	c #392229",
"Q.	c #281C21",
"R.	c #1F141A",
"S.	c #2F1820",
"T.	c #3A1922",
"U.	c #421B25",
"V.	c #472129",
"W.	c #5B1921",
"X.	c #48161F",
"Y.	c #35141B",
"Z.	c #261218",
"`.	c #441721",
" +	c #37262F",
".+	c #25222B",
"++	c #2C2228",
"@+	c #32262D",
"#+	c #281F24",
"$+	c #38222C",
"%+	c #3F212C",
"&+	c #462A37",
"*+	c #564958",
"=+	c #35363F",
"-+	c #2E353B",
";+	c #531E26",
">+	c #30161D",
",+	c #251318",
"'+	c #3B1C22",
")+	c #2B222D",
"!+	c #21222D",
"~+	c #551D25",
"{+	c #3C373D",
"]+	c #3C3840",
"^+	c #212128",
"/+	c #302738",
"(+	c #352C3F",
"_+	c #3C3B51",
":+	c #48607C",
"<+	c #516776",
"[+	c #384B57",
"}+	c #46242C",
"|+	c #391821",
"1+	c #2C171E",
"2+	c #4A1A23",
"3+	c #43151F",
"4+	c #49222A",
"5+	c #2D2228",
"6+	c #291B1F",
"7+	c #312226",
"8+	c #383237",
"9+	c #333238",
"0+	c #191C23",
"a+	c #22202F",
"b+	c #252536",
"c+	c #2A3347",
"d+	c #354B5C",
"e+	c #3E4E58",
"f+	c #353B45",
"g+	c #554857",
"h+	c #3A1E29",
"i+	c #2D1C24",
"j+	c #3B1A22",
"k+	c #5A151F",
"l+	c #57141C",
"m+	c #2B1F25",
"n+	c #2A2E35",
"o+	c #32333C",
"p+	c #443A41",
"q+	c #473238",
"r+	c #331016",
"s+	c #2C3A44",
"t+	c #405664",
"u+	c #546A79",
"v+	c #4A627E",
"w+	c #32293B",
"x+	c #28212E",
"y+	c #30171E",
"z+	c #481720",
"A+	c #5A1921",
"B+	c #23232A",
"C+	c #32404A",
"D+	c #4D616E",
"E+	c #465D69",
"F+	c #385670",
"G+	c #222232",
"H+	c #1B1924",
"I+	c #2A161C",
"J+	c #3B1921",
"K+	c #531D25",
"L+	c #1F1D23",
"M+	c #2C323A",
"N+	c #3E4D58",
"O+	c #355169",
"P+	c #293144",
"Q+	c #292126",
"R+	c #1C1217",
"S+	c #2E171F",
"T+	c #411A24",
"U+	c #462028",
"V+	c #3F2C32",
"W+	c #42383F",
"X+	c #3A353B",
"Y+	c #2C2B2D",
"Z+	c #242325",
"`+	c #3E393F",
" @	c #191618",
".@	c #2D2329",
"+@	c #231C20",
"@@	c #37212B",
"#@	c #554856",
"$@	c #3D363F",
"%@	c #3E4048",
"&@	c #373B42",
"*@	c #415765",
"=@	c #353336",
"                                                                    ",
"                          . . . . . . . . . . .                     ",
"                    . . . . . . . . . . . . . . .                   ",
"                  . . . . . . . . . . . . . . . + @                 ",
"              . . . . . . . . . . . . . . . . . # $ %               ",
"            . . . . . . . . . . . . . . . . . . . & @               ",
"            . . . . . . . . . . . . . . . . . . . * = -             ",
"            . . . . . . . . . . . . . + + # & ; > , = '             ",
"            . . . . . . . . . . + + + + & ) ! % ~ ' { ]             ",
"            . . . # . . . + * ; ; * & & ; ! ^ / ( _ :               ",
"              < [ & . } | < 1 @ | ) 2 | , 3 4 ( _ :                 ",
"              = < ; | 5 4 6 7 8 1 < = 9 ~ 0 6 a b                   ",
"                5 ! 9 c d e - f g h i j k l m n                     ",
"                = 1 7     o { i a p n q r   n s                     ",
"                  '       { 5         n     r t                     ",
"                            +         0                             ",
"      u v   w x y z                   .                             ",
"      A B C D E F G H                 .                             ",
"      I J K L M N O P Q z y x w   v u R       z y x w   v u         ",
"        S T U V W X Y Z G F E D C B A       H G F E D C B A         ",
"          `  ...+.@.#.$.O N M L K J I       %.O N M L K J I         ",
"          &.*.=.-.;.>.,.X W V U T S         '.X W V U T S           ",
"            ).!.~.{.].^./.(._.:.<.[.}.z |.1.2.3.+... .`             ",
"            4.5.6.7.8.9.0.a.b.c.9.E F G d.e.f.g.-.=.*.&.            ",
"            h.i.j.k.l.m.n.o.p.q.L M N O r.s.t.u.~.!.).              ",
"            v.w.x.y.z.A.B.C.D.T U V W X E.F.G.H.6.5.4.              ",
"            I.J.n.K.  L.M.N.O.`  ...+.3.2.P.Q.M.j.i.h.              ",
"          R.S.T.U.V.    W.X.Y.Z.`.=.-.g.f. +.+W.x.w.v.              ",
"      ++@+#+$+%+&+*+=+-+;+n.>+,+T.!.~.u.'+)+!+~+n.J.I.              ",
"      {+]+^+/+(+_+:+<+[+}+U.|+1+2+5.6.B.3+    4+U.T.S.R.            ",
"5+6+7+8+9+0+a+b+c+d+e+f+g+&+h+i+j+i.k+l+m+n+o+*+&+%+$+#+@+++        ",
"p+q+r+            s+t+u+v+_+w+x+y+w.z+A+B+C+D+v+_+(+/+^+]+{+        ",
"p+q+r+                E+F+c+G+H+I+J.J+K+L+M+N+O+P+b+a+0+9+8+7+6+5+Q+",
"                              R+S+T.T+U+V+W+X+Y+Z+          r+q+p+`+",
"                         @#+.@+@@@%+&+#@$@%@&@Y+Z+          r+q+p+`+",
"                          {+]+^+/+(+_+v+u+*@                        ",
"                  Q+5+6+7+8+9+0+a+b+c+F+E+                          ",
"              =@=@`+p+q+r+                                          ",
"              =@=@`+p+q+r+                                          ",
"                                                                    "};
