/* XPM */
static char * daemon_xpm[] = {
"40 38 129 2",
"  	c None",
". 	c #0B0B09",
"+ 	c #5189AE",
"@ 	c #234B7B",
"# 	c #611825",
"$ 	c #1C2948",
"% 	c #B1CFD4",
"& 	c #672A34",
"* 	c #694B55",
"= 	c #371521",
"- 	c #A09A9A",
"; 	c #96050E",
"> 	c #412A38",
", 	c #4E1623",
"' 	c #6C6D74",
") 	c #2B6DA0",
"! 	c #9DB5BE",
"~ 	c #78151D",
"{ 	c #433D45",
"] 	c #382028",
"^ 	c #7D8D91",
"/ 	c #8F2D38",
"( 	c #4B4B54",
"_ 	c #E7DDDD",
": 	c #90161D",
"< 	c #956A74",
"[ 	c #CFB9B9",
"} 	c #81A9BA",
"| 	c #522936",
"1 	c #1C1D23",
"2 	c #FDFDFD",
"3 	c #223F6A",
"4 	c #6F808F",
"5 	c #7A1F29",
"6 	c #61414B",
"7 	c #64222B",
"8 	c #4C202A",
"9 	c #874B58",
"0 	c #42171F",
"a 	c #BAB4B7",
"b 	c #475E84",
"c 	c #302A35",
"d 	c #3F3441",
"e 	c #C8A0A0",
"f 	c #7F6D6F",
"g 	c #A51722",
"h 	c #686266",
"i 	c #A2A4AB",
"j 	c #A6050D",
"k 	c #422026",
"l 	c #908E90",
"m 	c #841F2A",
"n 	c #7A2C36",
"o 	c #245E91",
"p 	c #564A54",
"q 	c #536D83",
"r 	c #162045",
"s 	c #FFFFFF",
"t 	c #53404A",
"u 	c #371923",
"v 	c #31323D",
"w 	c #950E1A",
"x 	c #A22930",
"y 	c #55202A",
"z 	c #BDC0C4",
"A 	c #6C1620",
"B 	c #4B7EA5",
"C 	c #D5D5D5",
"D 	c #EFEFE0",
"E 	c #8E8186",
"F 	c #26151B",
"G 	c #CBC7CB",
"H 	c #668FA6",
"I 	c #384868",
"J 	c #799DA9",
"K 	c #855F68",
"L 	c #5B5C60",
"M 	c #A0C0C8",
"N 	c #92B4C1",
"O 	c #7A3D44",
"P 	c #939CA4",
"Q 	c #3E7CA5",
"R 	c #445374",
"S 	c #E9BEBE",
"T 	c #FFFFFF",
"U 	c #A57E8D",
"V 	c #5C7D96",
"W 	c #D9E1D9",
"X 	c #7A4F59",
"Y 	c #3F6C97",
"Z 	c #8A393D",
"` 	c #FFFFFF",
" .	c #313D63",
"..	c #818185",
"+.	c #649CB4",
"@.	c #90ACB6",
"#.	c #B69AA4",
"$.	c #F7D8D8",
"%.	c #366592",
"&.	c #A0373C",
"*.	c #5594BD",
"=.	c #1C5588",
"-.	c #64343E",
";.	c #6E747F",
">.	c #902030",
",.	c #2A1E23",
"'.	c #121417",
").	c #A0212D",
"!.	c #1B3258",
"~.	c #7F757C",
"{.	c #555458",
"].	c #765F66",
"^.	c #AEA5AB",
"/.	c #282341",
"(.	c #E0C3CA",
"_.	c #8C555E",
":.	c #A07575",
"<.	c #4D1736",
"[.	c #3C3C5D",
"}.	c #6D3E48",
"|.	c #799CBB",
"1.	c #5B657F",
"2.	c #ADC5BE",
"3.	c #6A5461",
"4.	c #523240",
"5.	c #AB0C16",
"6.	c #375371",
"7.	c #AFB2B2",
"8.	c #84121C",
"                              p                                                 ",
"                          ~.>                   E                               ",
"                        * |                       O                             ",
"                      K n ]     l ].~.            / v                           ",
"                      ).-.] ] y 7 k 0 u ]         7 ]                           ",
"                      g -./ -.&.x ).,.0 = ] ~.  }.m u d                         ",
"                      x Z ` [ _.` - 5 , 0 <.7 w 8.= = [.                        ",
"                      t _ T 9 ` ` ` ).5 y y # <.<./.=                           ",
"                      * W ` ^.` ` ` ).m y k ] ] = = /.                          ",
"                      ^ 3 z H N s ` ).m y u = 0 = d                             ",
"                    t /.1 k !.6.` ` g 5 8 = = 0 '                               ",
"                  l g 5 | & r V ` 2.).A 0 ,.0 u                                 ",
"                  y w ~ ; 7 ] e e | 5 7 u u = ]                                 ",
"              1...p m 7 <.= = >.g 5.w , 0 ,.= d                                 ",
"          J     '   | u 5 5 5 w : 8., 0 u = k                                   ",
"            l 1.I       ] & 5 5 <.,.] u = =                                     ",
"        V     I v   * <   4.k ] <.8 u k ]                                       ",
"          b R     /.; =     3.u F k 8 0 >                                       ",
"                  & <.F     | 8.w 5 : 5 ]                                       ",
"                  w ~ F k ,.y # # y y 7 ]                                       ",
"                  f = = = F : j 8.u ] 8 0 '                                     ",
"                      3.] 0 ; ; 8.8 > ] 0 >                                     ",
"                        d , ~ 7 = u F 0 0 c                                     ",
"                          ] ] u F F u 0 u                                       ",
"                        -.8.] ] u F F F F                                       ",
"                        ].w 8.0 ] = = F ,.{                                     ",
"                          7 8.~ , u F F F ,.                                    ",
"                          { ] = u ] u = = u c                                   ",
"                          ( -.u u k ] ] ] F u d                                 ",
"                        {.p K <.> k k ,.[.  c k u p                             ",
"            ^ ! } V  .4.( > [.4.> = k ] > h     t ,.u ] d                       ",
"          l } |.H B ! % 2.} V 8 8 k 0 0 0 > 1 ( h ' ' L d ,.] ] t               ",
"            } H B Y J H + Y o > k > > d @ @ . '.v { ' ~.        8 >             ",
"                    4 J B ) o =.=.=.@ $ '.'.. 1 v {...    p       ] d h         ",
"                          7.;.c 1 1 ,.1 c c v {.'       y 5 f ].] c 1 { h ~.    ",
"                                                    5 A # 8 k ] F ,.( {...      ",
"                                                              ' p L ..          ",
"                                                                                "};
