/* XPM */
static char * daemon_permdel_xpm[] = {
"52 45 266 2",
"  	c None",
". 	c #FF1717",
"+ 	c #FF1616",
"@ 	c #FF1515",
"# 	c #FF1414",
"$ 	c #FF1313",
"% 	c #FA1313",
"& 	c #FE1313",
"* 	c #FF1212",
"= 	c #F61111",
"- 	c #F21111",
"; 	c #F51212",
"> 	c #FB1212",
", 	c #E21010",
"' 	c #D40F0F",
") 	c #C80E0E",
"! 	c #D90F0F",
"~ 	c #DE0F0F",
"{ 	c #E61010",
"] 	c #F91111",
"^ 	c #EB1111",
"/ 	c #F41212",
"( 	c #F71111",
"_ 	c #C00D0D",
": 	c #7F757C",
"< 	c #412A38",
"[ 	c #8E8186",
"} 	c #EA1010",
"| 	c #EF1212",
"1 	c #C41D1A",
"2 	c #C51E1B",
"3 	c #BD1C1A",
"4 	c #B11B18",
"5 	c #AC1917",
"6 	c #B91C19",
"7 	c #BB1C19",
"8 	c #8C1514",
"9 	c #D30F0F",
"0 	c #694B55",
"a 	c #522936",
"b 	c #7A3D44",
"c 	c #9B0B0B",
"d 	c #ED1212",
"e 	c #DA1010",
"f 	c #C31D1A",
"g 	c #CA1E1C",
"h 	c #C21D1B",
"i 	c #AD1A18",
"j 	c #A61917",
"k 	c #B91B1A",
"l 	c #BC1C1A",
"m 	c #BE1C1A",
"n 	c #8A1413",
"o 	c #855F68",
"p 	c #7A2C36",
"q 	c #382028",
"r 	c #908E90",
"s 	c #765F66",
"t 	c #8F2D38",
"u 	c #31323D",
"v 	c #C20D0D",
"w 	c #F71212",
"x 	c #F31212",
"y 	c #EA1111",
"z 	c #A0212D",
"A 	c #64343E",
"B 	c #55202A",
"C 	c #64222B",
"D 	c #422026",
"E 	c #42171F",
"F 	c #371923",
"G 	c #F21212",
"H 	c #DF1010",
"I 	c #CC0F0F",
"J 	c #A51722",
"K 	c #A0373C",
"L 	c #A22930",
"M 	c #2A1E23",
"N 	c #371521",
"O 	c #6D3E48",
"P 	c #841F2A",
"Q 	c #E51111",
"R 	c #D61010",
"S 	c #C90F0F",
"T 	c #8A393D",
"U 	c #FFFFFF",
"V 	c #CFB9B9",
"W 	c #8C555E",
"X 	c #A09A9A",
"Y 	c #7A1F29",
"Z 	c #4E1623",
"` 	c #4D1736",
" .	c #950E1A",
"..	c #84121C",
"+.	c #E21111",
"@.	c #DB1010",
"#.	c #B70D0D",
"$.	c #BF0E0E",
"%.	c #D81010",
"&.	c #D10F0F",
"*.	c #53404A",
"=.	c #E7DDDD",
"-.	c #874B58",
";.	c #DCD4C0",
">.	c #A1272A",
",.	c #611825",
"'.	c #CF0F0F",
").	c #DE1010",
"!.	c #9A0B0B",
"~.	c #A60C0C",
"{.	c #C80F0F",
"].	c #B00D0D",
"^.	c #D9E1D9",
"/.	c #AEA5AB",
"(.	c #DD1010",
"_.	c #D00F0F",
":.	c #D31010",
"<.	c #7D8D91",
"[.	c #223F6A",
"}.	c #BDC0C4",
"|.	c #668FA6",
"1.	c #92B4C1",
"2.	c #FC1313",
"3.	c #E41111",
"4.	c #C40E0E",
"5.	c #EC1111",
"6.	c #DC0F0F",
"7.	c #282341",
"8.	c #1C1D23",
"9.	c #1B3258",
"0.	c #375371",
"a.	c #EEE6D3",
"b.	c #4C202A",
"c.	c #E71111",
"d.	c #E31111",
"e.	c #CA0F0F",
"f.	c #AA0C0C",
"g.	c #C60F0F",
"h.	c #D51010",
"i.	c #AB0D0D",
"j.	c #672A34",
"k.	c #162045",
"l.	c #5C7D96",
"m.	c #ADC5BE",
"n.	c #A53127",
"o.	c #701D20",
"p.	c #E01111",
"q.	c #B10D0D",
"r.	c #78151D",
"s.	c #96050E",
"t.	c #C8A0A0",
"u.	c #D41010",
"v.	c #C00E0E",
"w.	c #5B657F",
"x.	c #818185",
"y.	c #564A54",
"z.	c #902030",
"A.	c #AB0C16",
"B.	c #E91111",
"C.	c #D91010",
"D.	c #799DA9",
"E.	c #6C6D74",
"F.	c #90161D",
"G.	c #FD1313",
"H.	c #F81212",
"I.	c #384868",
"J.	c #EE1212",
"K.	c #FB1313",
"L.	c #956A74",
"M.	c #523240",
"N.	c #475E84",
"O.	c #445374",
"P.	c #6A5461",
"Q.	c #D61213",
"R.	c #26151B",
"S.	c #DB1212",
"T.	c #C71213",
"U.	c #DA1212",
"V.	c #CE1314",
"W.	c #B31416",
"X.	c #7F6D6F",
"Y.	c #DA1112",
"Z.	c #CA1213",
"`.	c #D51213",
" +	c #302A35",
".+	c #C50E0E",
"++	c #CE0F0F",
"@+	c #461D25",
"#+	c #433D45",
"$+	c #AF0C0C",
"%+	c #4F3521",
"&+	c #FF2617",
"*+	c #F11212",
"=+	c #4B4B54",
"-+	c #3F3441",
";+	c #FF2213",
">+	c #BC0E0E",
",+	c #555458",
"'+	c #653525",
")+	c #4B2E33",
"!+	c #4A2D32",
"~+	c #2D2227",
"{+	c #3C3C5D",
"]+	c #371922",
"^+	c #F02810",
"/+	c #BA0E0E",
"(+	c #A00C0C",
"_+	c #B20D0D",
":+	c #313D63",
"<+	c #574C49",
"[+	c #686266",
"}+	c #2B1E22",
"|+	c #CC0F0E",
"1+	c #B50D0D",
"2+	c #9D0B0B",
"3+	c #BF120D",
"4+	c #64636A",
"5+	c #99A4A0",
"6+	c #AABCB3",
"7+	c #A4AC8F",
"8+	c #829A95",
"9+	c #766D5F",
"0+	c #6F6E6F",
"a+	c #645F56",
"b+	c #5F392F",
"c+	c #7F1518",
"d+	c #891214",
"e+	c #8D1A1D",
"f+	c #3F6C97",
"g+	c #5189AE",
"h+	c #245E91",
"i+	c #234B7B",
"j+	c #0B0B09",
"k+	c #121417",
"l+	c #885D56",
"m+	c #C60F0E",
"n+	c #B90D0D",
"o+	c #AD0C0C",
"p+	c #A50C0C",
"q+	c #71151A",
"r+	c #C90E0E",
"s+	c #C70E0E",
"t+	c #4B7EA5",
"u+	c #2B6DA0",
"v+	c #1C5588",
"w+	c #1C2948",
"x+	c #CD0E0E",
"y+	c #A5191B",
"z+	c #980B0B",
"A+	c #D70F0F",
"B+	c #DA0F0F",
"C+	c #CA0E0E",
"D+	c #AFB2B2",
"E+	c #6E747F",
"F+	c #E92021",
"G+	c #E11010",
"H+	c #B21011",
"I+	c #9A0F12",
"J+	c #825253",
"K+	c #B60D0D",
"L+	c #CE0E0E",
"M+	c #D10E0E",
"N+	c #FA1515",
"O+	c #940E11",
"P+	c #E81111",
"Q+	c #5B5C60",
"                                                                                                        ",
"                                                                                                        ",
"                                                                                                        ",
"                                  . . + @ @ @ @ @                                                       ",
"                        . . + @ + . + @ # @ # # $ % & #                                                 ",
"                    . . . . @ # # + # $ $ # $ * = - * $ % ;                                             ",
"                  . . . @ # > , '                 ) ! ~ { ] ^ /                                         ",
"                . . . # ( _   : <                   [     ) } % |                   1 2 3 4 5 6 6 7 8   ",
"              . . . $ 9     0 a                       b     c ! d e d               f g h i j k l m n   ",
"            + . . #       o p q     r s :             t u     v ( w x y                                 ",
"            + + $         z A q q B C D E F q         C q   x $ # $ G H I                               ",
"        . . . $           J A t A K L z M E N q :   O P F + . + @ $ Q H R S                             ",
"      + . . #             L T U V W U X Y Z E ` C  ...N +.. . + # @.#.$.%.&.                            ",
"      + @ #               *.=.U -.U U ;.>.Y B B ,.` ` '.$ . + # ).!.    ~.{.].                          ",
"    + + # ~               0 ^.U /.U U U z P B D q q (.w # @ $ e !.        _.:.$.                        ",
"    @ # $                 <.[.}.|.1.U U z P B F N ).| 2.; 3.4.          ].R 5.:.                        ",
"    # # 6.              *.7.8.D 9.0.a.U J Y b.N ).c.5.d.e.f.              g.).h.i.                      ",
"  + @ #               r J Y a j.k.l.U m.n.o.E H p.3.(.S q.                {.&.3.$.                      ",
"  @ + #               B  .r.s.C q t.t.a Y C +.H H H u.v.~.                  g.d.'.                      ",
"  $ $ x           w.x.y.P C ` N N z.J A. .d +.H H (.:.v.                    _.B.C.                      ",
"  % ( S       D.    E.  a F Y Y Y  .F...G.d +.H H (.:.                      | H.).                      ",
"  % x           r w.I.      q j.Y Y ` $ 2.J.d.H H (.                        % G.H                       ",
"  % K.      l.    I.u   0 L.  M.D q # $ ; 5.d.H H                           % G.H                       ",
"  % $         N.O.    7.s.N     P.# # G.| Q Q.H H                           % G.H                       ",
"  % $                 j.` R.    # $ & ; 5.S.T.                              % G.H                       ",
"  % $                  .r.R.D @ # $ ; d U.V.W.                              % G.H                       ",
"  % * v.              X.N N @ # $ 2.| Y.Z.b.E E.                            % G.H                       ",
"  % # Q                   + @ # & / 5.`.< q E <                             % G.).                      ",
"  % # 5.                # @ @ # & | Y.F R.E E  +                            $ $ e                       ",
"  % G.H               . + @ # $ 2.J.R.R.F E F                             + @ # .+                      ",
"  ; d %.            . . . + # & / 5.F R.R.R.R.                            @ + #                         ",
"    ++H )         . . . + @ # & ..@+q N N R.M #+                          # # G                         ",
"    {.C.~ $+    . + + + @ @ # C ..r.Z F R.R.R.M                         . + # S                         ",
"      g.H ' u.# . + @ # # $   #+%+N F q F N N F  +                    &+. . $                           ",
"      {.C.*+2.@ + + @ $ 2.    =+A F F D q q q R.F -+                  ;++ #                             ",
"        >+g.d.$ # # # ;     ,+y.o '+< )+!+~+{+   +D ]+y.            ^+% c./+                            ",
"          (+_+S %.H ).l.:+M.=+< <+M.< N D q < [+    *.}+F q -+    |+e.1+                                ",
"            2+_+4.3+|.4+5+6+7+8+l.b.b.D E E E < 8.=+[+9+0+a+b+M c+d+e+                                  ",
"              2+_+v._ f+D.|.g+f+h+< D < < -+i+i+j+k+u #+E.l+m+n+o+p+q+<                                 ",
"                2+1+4.r+s+D.t+u+h+v+v+v+i+w+k+k+j+8.u ,+x.x+r+y+i.z+  q -+[+                            ",
"                  (+/+A+B+B+C+D+E+ +8.8.M 8. + +u ,+F+* ( G+H+I+J+s q  +8.#+[+:                         ",
"                    (+K+$..+A+L+M+G $ # # # @ # # @ + + N+@.O+b.D q R.M =+,+x.                          ",
"                            ].I P+@ # # # # @ @ # @ + @ h.        E.y.Q+x.                              ",
"                                !.++d.+.H H H H ).@..+                                                  ",
"                                                                                                        "};
