/* XPM */
static char * exit_small_xpm[] = {
"18 18 28 1",
" 	c None",
".	c #000000",
"+	c #555552",
"@	c #72726E",
"#	c #ABABA5",
"$	c #E4E4DC",
"%	c #0C0708",
"&	c #180F0F",
"*	c #301D1E",
"=	c #905A5D",
"-	c #6E6563",
";	c #B6B6B0",
">	c #787874",
",	c #6B3C3D",
"'	c #7A4446",
")	c #824B4C",
"!	c #965B5E",
"~	c #C2797D",
"{	c #A56B6D",
"]	c #646460",
"^	c #1C1C1C",
"/	c #6B3C3E",
"(	c #915A5D",
"_	c #D6D6CE",
":	c #2B2B29",
"<	c #565653",
"[	c #575754",
"}	c #040404",
"                  ",
"                  ",
"                  ",
"                  ",
"       .+@@@+.    ",
"       .#$$$#.    ",
"      %&#$$$#.    ",
"   ...*=-$;>#.    ",
"  .,')!~{]>^#.    ",
"  ./')!~{]$$#.    ",
"   ...*(-$$$#.    ",
"      %&#$$$#.    ",
"       .#_#:..    ",
"       .<[}}}}    ",
"                  ",
"                  ",
"                  ",
"                  "};
