/* XPM */
static char * farted2_xpm[] = {
"19 19 10 1",
" 	c None",
".	c #000000",
"+	c #CCCC00",
"@	c #FFFF00",
"#	c #D8D83F",
"$	c #666633",
"%	c #FFFFFF",
"&	c #FFCC00",
"*	c #FF9900",
"=	c #999933",
"      .......      ",
"    ..+@@@@@+..    ",
"   .+@@@@@@@@@+.   ",
"  .@@@@@@@@@@@@@.  ",
" .+@@@.@@@@@.@@@+. ",
" .@@@.@@@@@@@.@@@. ",
".#@@.$..@@@..$.@@+.",
".@@.$%.%.@.%.%$.@@.",
".@@@$%.%.@.%.%$@@@.",
".@@@&.%%.@.%%.&@@@.",
".@&&&&..@@@..&&&@@.",
".@&&**&@@@@@&**&&@.",
".+&****&@@@&****&+.",
" .&&*..&@@@&..*&&. ",
" .&&&=&.....&=&&&. ",
"  .&&&@@@@@@@&&&.  ",
"   .+*@@***@@*+.   ",
"    ..+@@@@@+..    ",
"      .......      "};
