/* XPM */
static char * fontface2_xpm[] = {
"24 24 25 1",
" 	c None",
".	c #FFFF99",
"+	c #FFC777",
"@	c #FF5533",
"#	c #FF1D11",
"$	c #FF0000",
"%	c #FF3922",
"&	c #FF8E55",
"*	c #FFAA66",
"=	c #FF7244",
"-	c #FFE388",
";	c #FF5935",
">	c #FF9157",
",	c #FFD07D",
"'	c #FF4E2F",
")	c #FF190F",
"!	c #FF331E",
"~	c #FF472A",
"{	c #FFDC84",
"]	c #FF7D4B",
"^	c #FFDF86",
"/	c #FFBB70",
"(	c #FF3F25",
"_	c #FF4E2E",
":	c #FFB36B",
"       .........        ",
"      .+@#$$$$%&.       ",
"     .*$=+.-#$$$.       ",
"     .@&...=$#$$.       ",
"     .;>..-$=@$$.       ",
"     .,'..=#.@$$.       ",
"      .,..#=.@$$.       ",
"        .&$&*%$$..-**.. ",
"        .#$$$$$$.%$$$#*.",
"...    .&#...*$$.@-.&$$+",
"...........  *$$.*. .&$+",
".+@)!~@$%@+. *$$$@.  .*.",
"=$&..+*.+#$*.-***..     ",
"$&..@$@..+$#..$$*.      ",
"%- .@$@. .$#..$$=.      ",
"{] .@$@..-$*..$$#..     ",
" + .@$@.^##-..@$$@.  ./.",
"   .@$@.^#$%..+$$$&..-%.",
"   .@$@..+$$* .*$$$%@$=.",
"   .@$@. .$$*  .-&@@=+..",
"   .@$=..-$$+    .....  ",
"  .^#$@(_#$@.           ",
"  :_@@@(_@+..           ",
"  .........             "};
