/* XPM */
static char * free_icon_xpm[] = {
"12 14 105 2",
"  	c None",
". 	c #34322E",
"+ 	c #8A887D",
"@ 	c #9F9E9E",
"# 	c #79797B",
"$ 	c #2F2A1B",
"% 	c #C9A93D",
"& 	c #FAE993",
"* 	c #A9A069",
"= 	c #49494B",
"- 	c #2C2C32",
"; 	c #5B4C1B",
"> 	c #F2C63E",
", 	c #F8CC40",
"' 	c #E1BB41",
") 	c #2C2B24",
"! 	c #2E2E37",
"~ 	c #322A10",
"{ 	c #E8BD37",
"] 	c #F5C93F",
"^ 	c #A2862E",
"/ 	c #2D2C2B",
"( 	c #4A4A4A",
"_ 	c #252538",
": 	c #0C0B09",
"< 	c #3B3215",
"[ 	c #5F4F21",
"} 	c #201E1A",
"| 	c #6F6F70",
"1 	c #414143",
"2 	c #17150F",
"3 	c #A88825",
"4 	c #9E802A",
"5 	c #1E1E1C",
"6 	c #242429",
"7 	c #69561A",
"8 	c #EBBD34",
"9 	c #F5C73C",
"0 	c #D6B03A",
"a 	c #F3DB7C",
"b 	c #F0DD89",
"c 	c #403823",
"d 	c #111219",
"e 	c #A78826",
"f 	c #EDBD31",
"g 	c #B69329",
"h 	c #B08E2D",
"i 	c #B59432",
"j 	c #675622",
"k 	c #29261E",
"l 	c #43434A",
"m 	c #0D0C10",
"n 	c #C8A22C",
"o 	c #EEBE32",
"p 	c #9F8024",
"q 	c #201B0D",
"r 	c #121316",
"s 	c #222237",
"t 	c #E5B830",
"u 	c #EEBF33",
"v 	c #EFBF33",
"w 	c #E0B537",
"x 	c #5F522A",
"y 	c #454548",
"z 	c #1F2034",
"A 	c #1A170F",
"B 	c #B89529",
"C 	c #EBBC31",
"D 	c #947823",
"E 	c #AD8C2C",
"F 	c #F0C53E",
"G 	c #F4CF4C",
"H 	c #686138",
"I 	c #151310",
"J 	c #544619",
"K 	c #C8A22E",
"L 	c #E7BA31",
"M 	c #8D7321",
"N 	c #0C0B0F",
"O 	c #0E0D16",
"P 	c #50431D",
"Q 	c #D5AE38",
"R 	c #EBCF55",
"S 	c #3D3728",
"T 	c #3E3E3F",
"U 	c #261F0E",
"V 	c #CCA52E",
"W 	c #CFA62E",
"X 	c #76601D",
"Y 	c #14120F",
"Z 	c #33333D",
"` 	c #424249",
" .	c #2A2A33",
"..	c #3A331B",
"+.	c #C7A436",
"@.	c #645423",
"#.	c #49494A",
"$.	c #151517",
"%.	c #483A13",
"&.	c #28220F",
"*.	c #1E1D1E",
"=.	c #3E3E40",
"-.	c #444549",
";.	c #242116",
">.	c #2C2C2E",
"              . + @     ",
"          # $ % & * =   ",
"          - ; > , ' )   ",
"          ! ~ { ] ^ /   ",
"        ( _ : < [ } |   ",
"        1 2 3 4 5       ",
"        6 7 8 9 0 a b c ",
"        d e f g h i j k ",
"      l m n o p q r     ",
"    ( s ~ t u v w x     ",
"  y z A B C D E F G H   ",
"( I J K L M N O P Q R S ",
"T U V W X Y Z `  ...+.@.",
"#.$.%.&.*.=.      -.;.>."};
