/* XPM */
static char * free_icon_xpm[] = {
"12 14 101 2",
"  	c None",
". 	c #34322E",
"+ 	c #8A887D",
"@ 	c #9F9E9E",
"# 	c #2F2A1B",
"$ 	c #C9A93D",
"% 	c #FAE993",
"& 	c #A9A069",
"* 	c #49494B",
"= 	c #2C2C32",
"- 	c #5B4C1B",
"; 	c #F2C63E",
"> 	c #F8CC40",
", 	c #E1BB41",
"' 	c #2C2B24",
") 	c #2E2E37",
"! 	c #322A10",
"~ 	c #E8BD37",
"{ 	c #F5C93F",
"] 	c #A2862E",
"^ 	c #2D2C2B",
"/ 	c #252538",
"( 	c #0C0B09",
"_ 	c #3B3215",
": 	c #5F4F21",
"< 	c #201E1A",
"[ 	c #414143",
"} 	c #17150F",
"| 	c #A88825",
"1 	c #9E802A",
"2 	c #1E1E1C",
"3 	c #242429",
"4 	c #69561A",
"5 	c #EBBD34",
"6 	c #F5C73C",
"7 	c #D6B03A",
"8 	c #F3DB7C",
"9 	c #F0DD89",
"0 	c #403823",
"a 	c #111219",
"b 	c #A78826",
"c 	c #EDBD31",
"d 	c #B69329",
"e 	c #B08E2D",
"f 	c #B59432",
"g 	c #675622",
"h 	c #29261E",
"i 	c #43434A",
"j 	c #0D0C10",
"k 	c #C8A22C",
"l 	c #EEBE32",
"m 	c #9F8024",
"n 	c #201B0D",
"o 	c #121316",
"p 	c #4A4A4A",
"q 	c #222237",
"r 	c #E5B830",
"s 	c #EEBF33",
"t 	c #EFBF33",
"u 	c #E0B537",
"v 	c #5F522A",
"w 	c #454548",
"x 	c #1F2034",
"y 	c #1A170F",
"z 	c #B89529",
"A 	c #EBBC31",
"B 	c #947823",
"C 	c #AD8C2C",
"D 	c #F0C53E",
"E 	c #F4CF4C",
"F 	c #686138",
"G 	c #151310",
"H 	c #544619",
"I 	c #C8A22E",
"J 	c #E7BA31",
"K 	c #8D7321",
"L 	c #0C0B0F",
"M 	c #0E0D16",
"N 	c #50431D",
"O 	c #D5AE38",
"P 	c #EBCF55",
"Q 	c #3D3728",
"R 	c #3E3E3F",
"S 	c #261F0E",
"T 	c #CCA52E",
"U 	c #CFA62E",
"V 	c #76601D",
"W 	c #14120F",
"X 	c #424249",
"Y 	c #2A2A33",
"Z 	c #3A331B",
"` 	c #C7A436",
" .	c #645423",
"..	c #49494A",
"+.	c #151517",
"@.	c #483A13",
"#.	c #28220F",
"$.	c #1E1D1E",
"%.	c #444549",
"&.	c #242116",
"*.	c #2C2C2E",
"              . + @     ",
"            # $ % & *   ",
"          = - ; > , '   ",
"          ) ! ~ { ] ^   ",
"          / ( _ : <     ",
"        [ } | 1 2       ",
"        3 4 5 6 7 8 9 0 ",
"        a b c d e f g h ",
"      i j k l m n o     ",
"    p q ! r s t u v     ",
"  w x y z A B C D E F   ",
"p G H I J K L M N O P Q ",
"R S T U V W   X Y Z `  .",
"..+.@.#.$.        %.&.*."};
