/* XPM */
static char * icon_na_xpm[] = {
/* columns rows colors chars-per-pixel */
"16 16 5 1",
"  c black",
". c #00fc00",
"X c #f80000",
"o c #f8fcf8",
"O c None",
/* pixels */
"OOOOOOO  OOOOOOO",
"OOOOOO o. O   OO",
"OO  O o..   o. O",
"O o   o..  o.. O",
"OXXXXXXXXXXXXXXO",
"XXooooooooooooXX",
"Xo oo ooo o  ooX",
"Xo  o oo o oo oX",
"Xo o  oo o    oX",
"Xo oo o oo oo oX",
"Xo oo o oo oo oX",
"XXooooooooooooXX",
"OXXXXXXXXXXXXXXO",
"O  O o.   o.. OO",
"OOOO o  O  o  OO",
"OOOO   OOOO  OOO"
};
