/* XPM */
static char *icon_offline_xpm[] = {
/* columns rows colors chars-per-pixel */
"12 14 18 1",
"  c black",
". c #3d4e53",
"X c #3f5156",
"o c #4c4c4c",
"O c #425357",
"+ c #43555a",
"@ c #45585e",
"# c #475b61",
"$ c #485d63",
"% c #4b6066",
"& c #4e636a",
"* c #50676d",
"= c #51686e",
"- c #556d74",
"; c #59737a",
": c #7e7e7e",
"> c #8b8b8b",
", c None",
/* pixels */
",,,,,,,,,,,,",
">>>>>>>>>>:,",
">$&&&%#@+X:o",
">$;;;--#+X:o",
">-;;;;;#+X:o",
">*;;;-;$+X:o",
">#*--=&#+X:o",
">$&$&*&#+O:o",
">O$$@.@..X:o",
":::::::::::o",
",oo>:::ooooo",
",,,>:::o,,,,",
",>:::::::o,,",
",,,,,,,,,,,,"};
