/* XPM */
static char * icon_ffc_xpm[] = {
"12 12 6 1",
" 	c None",
".	c #000000",
"+	c #FFFFFF",
"@	c #00FC00",
"#	c #FFFF00",
"$	c #000080",
"   .. ..    ",
"  .+@.+@.   ",
"  ......... ",
" ..+#####.@.",
"..+#$$#$$#..",
"..+#######. ",
" .+#$###$#..",
".+.+#$$$#.@.",
".@@.+###... ",
" .....#.@.  ",
"   .@@.@@.  ",
"    .. ..   "};
