/* XPM */
static char * gnome_remove_xpm[] = {
"24 24 30 1",
" 	c None",
".	c #000000",
"+	c #200002",
"@	c #140000",
"#	c #190001",
"$	c #706C60",
"%	c #100000",
"&	c #E0DCC0",
"*	c #ADA798",
"=	c #686754",
"-	c #949480",
";	c #BAB696",
">	c #41413F",
",	c #5F5F59",
"'	c #D4CCC0",
")	c #A7A296",
"!	c #B3B090",
"~	c #484844",
"{	c #84847C",
"]	c #A19D90",
"^	c #4B4B48",
"/	c #CEC7B9",
"(	c #969289",
"_	c #BAB3A8",
":	c #6D6D66",
"<	c #AAA597",
"[	c #5B5B56",
"}	c #7F7C71",
"|	c #5A5A54",
"1	c #8D897F",
"                        ",
"                        ",
"                        ",
"            .           ",
"           ...          ",
"          .....         ",
"         .......        ",
"           ...          ",
"           +@#          ",
"          .###.         ",
"       ...$%@#&...      ",
"     ..$$$$##+&&&&..    ",
"     .*.=$$$-&&&;>,.    ",
"     .'').=$-&!~,{{.    ",
"     .''''].$^,{{{{.    ",
"     .'''''/.{{{{{{.    ",
"     .''''''.{{{{{{.    ",
"     .''''''.{{{{{{.    ",
"     .(_''''.{{{{{:.    ",
"      ..<'''.{{{{[..    ",
"        .}_'.{{|..      ",
"         ..1.|..        ",
"           ...          ",
"                        "};
