/* XPM */
static char * icon_away_xpm[] = {
/* columns rows colors chars-per-pixel */
"16 16 6 1",
"  c black",
". c #00fc00",
"X c #808080",
"o c #c0c0c0",
"O c #f8fcf8",
"+ c None",
/* pixels */
"+++++ O  +++++++",
"++++ O O      ++",
"++      .  o . +",
"+ O   O.. oO . +",
"+ O.  O. oOO  ++",
"++  .   oOOOo ++",
"      XOOOOOO ++",
" O  oOOOOOOOOo +",
"+ oOOOOOOOOOOO +",
"+  OOOOOOOOOOOo ",
"   oOOOOOOOOo  +",
" O. OOOOOOo  +++",
" OO oOOOo  .. ++",
"+  + OOo  O.. ++",
"++++ o  +  O  ++",
"++++   ++++  +++"
};
