/* XPM */
static char * im_xpm[] = {
"42 39 256 2",
"  	c None",
". 	c #FFFFFF",
"+ 	c #020205",
"@ 	c #020204",
"# 	c #FDFDFB",
"$ 	c #E8E8E6",
"% 	c #3F3F3F",
"& 	c #FCFCFA",
"* 	c #F3F3F1",
"= 	c #FAFAF8",
"- 	c #6F6F6F",
"; 	c #1B1B1A",
"> 	c #010103",
", 	c #FFFFFE",
"' 	c #FEFEFC",
") 	c #F9F9F7",
"! 	c #0E0E0E",
"~ 	c #505050",
"{ 	c #EAEAEA",
"] 	c #0B0704",
"^ 	c #838383",
"/ 	c #D1D1D1",
"( 	c #A3A3A3",
"_ 	c #D3D3D1",
": 	c #E4E4E4",
"< 	c #9F9F9E",
"[ 	c #161615",
"} 	c #EEEEEE",
"| 	c #F5F5F3",
"1 	c #ECECEA",
"2 	c #E2E2E1",
"3 	c #C0C0BF",
"4 	c #D4D3D2",
"5 	c #54420D",
"6 	c #D8A30C",
"7 	c #EBEBEA",
"8 	c #989898",
"9 	c #F6F6F4",
"0 	c #EBEBE9",
"a 	c #DEDEDC",
"b 	c #D1D1D0",
"c 	c #AEAEAD",
"d 	c #D1940A",
"e 	c #FFCF0D",
"f 	c #FFE20F",
"g 	c #FFE64E",
"h 	c #F5CE0C",
"i 	c #A1823B",
"j 	c #C9C9C7",
"k 	c #CCCCCA",
"l 	c #A0A09F",
"m 	c #ADADAB",
"n 	c #CDCDCC",
"o 	c #E1E1DF",
"p 	c #F2F2F0",
"q 	c #F7F7F5",
"r 	c #C2C2C0",
"s 	c #939392",
"t 	c #BF7F05",
"u 	c #FCBA0A",
"v 	c #FFD60C",
"w 	c #FFEB2E",
"x 	c #FFE615",
"y 	c #F9D80D",
"z 	c #D7A008",
"A 	c #010102",
"B 	c #959594",
"C 	c #DBDBDA",
"D 	c #E7E7E5",
"E 	c #EFEFED",
"F 	c #E4E4E2",
"G 	c #D0D0CE",
"H 	c #CD9E09",
"I 	c #FFEA2D",
"J 	c #FFEA12",
"K 	c #845705",
"L 	c #DA9D08",
"M 	c #B17B2E",
"N 	c #545454",
"O 	c #080808",
"P 	c #B1B1B0",
"Q 	c #CACAC9",
"R 	c #DFDFDE",
"S 	c #DDDDDB",
"T 	c #CFCFCD",
"U 	c #C6C6C5",
"V 	c #BCBCBB",
"W 	c #ABABAA",
"X 	c #DCDBD9",
"Y 	c #C6890B",
"Z 	c #DC9908",
"` 	c #B57805",
" .	c #BFBEBD",
"..	c #DFDFDF",
"+.	c #212121",
"@.	c #0E0E0D",
"#.	c #B0B0AE",
"$.	c #BFBFBE",
"%.	c #C8C8C6",
"&.	c #B9B9B8",
"*.	c #AAAAA9",
"=.	c #9C9C9B",
"-.	c #8A8A88",
";.	c #606063",
">.	c #F5F5F5",
",.	c #DDDCDA",
"'.	c #D9D9D9",
").	c #C9C8C7",
"!.	c #A7A7A6",
"~.	c #A1A1A0",
"{.	c #91918F",
"].	c #8E8E8D",
"^.	c #8F8F8E",
"/.	c #878786",
"(.	c #E3E3E3",
"_.	c #EEEEEC",
":.	c #474747",
"<.	c #E2E2E2",
"[.	c #EFEFEF",
"}.	c #D2D2D2",
"|.	c #C9C9C9",
"1.	c #C4C4C4",
"2.	c #262624",
"3.	c #CECECE",
"4.	c #ECECEC",
"5.	c #343434",
"6.	c #D3D3D3",
"7.	c #1C1C1B",
"8.	c #F4F4F4",
"9.	c #F3F3F3",
"0.	c #F6F6F6",
"a.	c #0B0B0B",
"b.	c #F7F7F7",
"c.	c #C88B0B",
"d.	c #FFE40E",
"e.	c #595959",
"f.	c #FFD40B",
"g.	c #FFDF0E",
"h.	c #FFE00E",
"i.	c #DEA408",
"j.	c #F2CC0B",
"k.	c #968107",
"l.	c #FFD00A",
"m.	c #FFE20C",
"n.	c #FFEA0C",
"o.	c #FFFF10",
"p.	c #FFF10F",
"q.	c #FFDE0E",
"r.	c #FFD40D",
"s.	c #E8E8E7",
"t.	c #EBEBEB",
"u.	c #D79B07",
"v.	c #A98707",
"w.	c #AD8608",
"x.	c #FFE81C",
"y.	c #FFFA0F",
"z.	c #FFD30C",
"A.	c #141413",
"B.	c #C3C3C3",
"C.	c #CE9317",
"D.	c #EBB30A",
"E.	c #CB8C07",
"F.	c #BC8207",
"G.	c #C08B07",
"H.	c #CFA00A",
"I.	c #B88E09",
"J.	c #FFBF0A",
"K.	c #FFE80E",
"L.	c #FFF40F",
"M.	c #FFF00F",
"N.	c #FFED0F",
"O.	c #FFE50E",
"P.	c #FFD60D",
"Q.	c #FBD80E",
"R.	c #B88208",
"S.	c #E2A908",
"T.	c #DBA508",
"U.	c #E0A80B",
"V.	c #D5A40A",
"W.	c #BB9009",
"X.	c #A37D07",
"Y.	c #F1AE08",
"Z.	c #FFD80D",
"`.	c #FFE20E",
" +	c #FFE10E",
".+	c #FFDC0D",
"++	c #FFD50D",
"@+	c #FFC70C",
"#+	c #A27609",
"$+	c #B37F08",
"%+	c #E4B60A",
"&+	c #EBB50B",
"*+	c #E4B00B",
"=+	c #DDAA0A",
"-+	c #D3A30A",
";+	c #CB9D09",
">+	c #CD9E0A",
",+	c #D1A10A",
"'+	c #FFCA0A",
")+	c #FFDB0D",
"!+	c #FFCE0D",
"~+	c #FCC20C",
"{+	c #F8BF0C",
"]+	c #FBC10C",
"^+	c #F0B90B",
"/+	c #CEAC0A",
"(+	c #AFAFAF",
"_+	c #A16F08",
":+	c #D9A70A",
"<+	c #DCA90A",
"[+	c #D6A50A",
"}+	c #CA9C09",
"|+	c #BF9309",
"1+	c #C29509",
"2+	c #B98907",
"3+	c #F4A908",
"4+	c #FFD90B",
"5+	c #FFCD0D",
"6+	c #DAA80A",
"7+	c #C09208",
"8+	c #795205",
"9+	c #8A6206",
"0+	c #BE9209",
"a+	c #BA8F09",
"b+	c #A57C08",
"c+	c #816005",
"d+	c #AE7507",
"e+	c #B87C07",
"f+	c #A87506",
"g+	c #916804",
"h+	c #A07606",
"i+	c #C29209",
"j+	c #C19109",
"k+	c #9E6E09",
"l+	c #5F3C02",
"m+	c #654302",
"n+	c #9D7406",
"o+	c #BF9009",
"p+	c #926905",
"q+	c #634202",
"r+	c #2E1E02",
"s+	c #553C04",
"t+	c #704A03",
"u+	c #755305",
"v+	c #775204",
"w+	c #603D03",
"x+	c #362302",
"y+	c #432A01",
"z+	c #7B5506",
"A+	c #996C05",
"B+	c #7A5204",
"C+	c #3F2702",
"D+	c #020100",
"E+	c #010100",
"F+	c #140D01",
"G+	c #0B0700",
"                                                                                    ",
"                                                                                    ",
"                                                          . . . . . . . .           ",
"                                                      . . . . . + + . . . . .       ",
"                                                    . . . . . + + + @ . . . . .     ",
"                          + + + + +               . . . . . . @ @ @ @ . . . . # $   ",
"                        + + + + + % @           . . . . . . . @ @ @ @ . . . . & * = ",
"                      + + + + + @ - ; >         . . . . . . . @ @ @ @ . . . , ' = ) ",
"                      + + + + @ @ @ > >         . . . . . . . @ @ @ @ , , , , , ) * ",
"                      @ ! + @ @ @ ~ > > >     . . . . . . . . @ @ > > # # ' , # * $ ",
"                      @ { ] @ ^ / ( > > >   . . . . . . . . . @ > > > # # & = * $ _ ",
"                      : < . [ . @ } > > >   . . . . . . . # # & > > # # = | 1 2 _ 3 ",
"                      4 @ 5 6 7 @ 8 > > > * . . . . & ) | 9 ) = & # # = | 0 a b 3 c ",
"                      @ d e f g h i > > > j k   l m n o 1 p 9 q > > q * 0 a b r c s ",
"                      t u v w x y z > > A         B r C D 1 E > > > > F C G 3 m s   ",
"                      @ H I J K L M > N O           P Q C R S > > > > T U V W s     ",
"                      ! X Y Z `  ...+.> @.A           #.$.r %.G > > 3 &.*.=.-.      ",
"                    + ;.>.,.'.).} ) 1 > > A               B !.#.~.{.].^./.          ",
"                  + + . . { (.. , ) _.:.> > >                                       ",
"                  + . . . . . . , = | E > > > >                                     ",
"                + + <.. . . . . [.}.|.1.> > > > >                                   ",
"              + + 2.. . . . . . . # = 3.4.> 5.> >                                   ",
"              + + . . . . . . . ' # & & 6.@ 7.> > >                                 ",
"              ! @ . . . . . . 8.# 9.# # ' 0.; a.> >                                 ",
"            + + . . . . . . . # # 9.# # 9.# > > > >                                 ",
"            + + . . . . . . ' # # # # # # = > > > > A                               ",
"          + + + . . . . . ' 9.9.9.# # # # & > > > > >                               ",
"          + + + . . . . b.# # # # # # 9.9.# > a.> > A                               ",
"          c.d.@ . . . . . # # # 9.# # # # # > > > e.                                ",
"          f.g.h.@ . . . 8.# # # # # # 9.i.j.> > > A k.                              ",
"    l.m.n.o.p.q.r.@ s.b.# # # # # # # t.u.i.a.> > v.w.                              ",
"    x.o.o.o.y.d.z.@ @ A.# # # # # # 9.B.C.D.E.F.G.H.I.                              ",
"    J.K.L.M.N.O.P.Q.@ > # # # 9.# # # (.R.D.S.T.U.V.W.X.                            ",
"    Y.Z.`. +q..+++@+#+9 9 9 4.4.9 4.9 > $+%+&+*+=+-+;+>+,+                          ",
"    '+)+Z.!+~+{+]+^+/+(+o o o o o o > > _+:+<+[+}+|+I.1+2+                          ",
"  3+4+q.5+*+>+H.6+:+7+8+> ! O A A A A A 9+0+>+;+a+b+c+                              ",
"    d+e+f+g+h+i+}+j+k+l+A A A A A A A A m+n+i+o+p+q+                                ",
"          r+s+t+u+v+w+x+                y+z+A+B+C+                                  ",
"                  D+E+                    F+G+                                      "};
