/* XPM */
static char * info_xpm[] = {
"48 45 328 2",
"  	c None",
". 	c #000000",
"+ 	c #1A1A1A",
"@ 	c #252525",
"# 	c #222222",
"$ 	c #444444",
"% 	c #5C5C5C",
"& 	c #474748",
"* 	c #141417",
"= 	c #252527",
"- 	c #7E7E7F",
"; 	c #060606",
"> 	c #202020",
", 	c #0A0A0A",
"' 	c #242425",
") 	c #636363",
"! 	c #18181A",
"~ 	c #010103",
"{ 	c #1A1A1B",
"] 	c #656565",
"^ 	c #737374",
"/ 	c #2B2B2C",
"( 	c #0E0E10",
"_ 	c #717174",
": 	c #2F2F2F",
"< 	c #060607",
"[ 	c #A7A6A6",
"} 	c #BEBEBC",
"| 	c #AAA8A8",
"1 	c #171718",
"2 	c #A1A1A1",
"3 	c #9C9C9A",
"4 	c #8D8D8D",
"5 	c #BABAB9",
"6 	c #050507",
"7 	c #6B6B6C",
"8 	c #07070A",
"9 	c #7F7E7E",
"0 	c #211C12",
"a 	c #B99C4A",
"b 	c #A1810D",
"c 	c #B49E4F",
"d 	c #353021",
"e 	c #0B0B0D",
"f 	c #C4C4C3",
"g 	c #0F0F11",
"h 	c #000002",
"i 	c #404040",
"j 	c #2B2B2B",
"k 	c #020206",
"l 	c #9D8E72",
"m 	c #D99F11",
"n 	c #FFD00C",
"o 	c #FFDB10",
"p 	c #FDDB2E",
"q 	c #F0CD15",
"r 	c #D0B22C",
"s 	c #BEAC69",
"t 	c #060403",
"u 	c #1B1B1D",
"v 	c #545454",
"w 	c #090909",
"x 	c #150F05",
"y 	c #C88B09",
"z 	c #FFC30A",
"A 	c #FFD50C",
"B 	c #FFE11F",
"C 	c #FFE32E",
"D 	c #FFDE0F",
"E 	c #E1BA0B",
"F 	c #DAA70D",
"G 	c #1F1604",
"H 	c #030305",
"I 	c #050404",
"J 	c #7A5C18",
"K 	c #EDB30B",
"L 	c #FDD214",
"M 	c #F1CE13",
"N 	c #D5AD0B",
"O 	c #CA9609",
"P 	c #D29A10",
"Q 	c #B38F3C",
"R 	c #0C0A08",
"S 	c #292929",
"T 	c #101011",
"U 	c #4D4D4E",
"V 	c #1D1D1D",
"W 	c #020204",
"X 	c #8C8B8A",
"Y 	c #BB9751",
"Z 	c #CE9908",
"` 	c #D19509",
" .	c #C58708",
"..	c #BE9032",
"+.	c #BFB5A2",
"@.	c #CBCBCA",
"#.	c #363637",
"$.	c #151516",
"%.	c #383838",
"&.	c #0A0A0B",
"*.	c #454545",
"=.	c #040407",
"-.	c #B7B5B5",
";.	c #DDDBD7",
">.	c #C4B49A",
",.	c #B59865",
"'.	c #B6A688",
").	c #C1BFBC",
"!.	c #E6E6E5",
"~.	c #F6F6F4",
"{.	c #A1A0A0",
"].	c #020203",
"^.	c #555555",
"/.	c #010101",
"(.	c #0F0F0F",
"_.	c #6A686A",
":.	c #FFFFFF",
"<.	c #D2D1D0",
"[.	c #C9C8C8",
"}.	c #D4D4D3",
"|.	c #F3F3F2",
"1.	c #FCFCFA",
"2.	c #F9F9F7",
"3.	c #F1F1EF",
"4.	c #3B3B3B",
"5.	c #19191B",
"6.	c #09090C",
"7.	c #FDFDFC",
"8.	c #FEFEFC",
"9.	c #FDFDFB",
"0.	c #FAFAF8",
"a.	c #9C9C9B",
"b.	c #323233",
"c.	c #FFFFFE",
"d.	c #FCFCFB",
"e.	c #F6F6F5",
"f.	c #CCCCCC",
"g.	c #010104",
"h.	c #7E7E7E",
"i.	c #F9F9F8",
"j.	c #EAEAEA",
"k.	c #D9D9D9",
"l.	c #CFCFCE",
"m.	c #D0D0CF",
"n.	c #2B2A2B",
"o.	c #0A0A0C",
"p.	c #111113",
"q.	c #060609",
"r.	c #080809",
"s.	c #D5D5D5",
"t.	c #F4F4F3",
"u.	c #E7E7E6",
"v.	c #CBCBCB",
"w.	c #BEBEBE",
"x.	c #121214",
"y.	c #19191A",
"z.	c #1D1D1E",
"A.	c #6A6A6B",
"B.	c #FBFBF9",
"C.	c #FBFBFA",
"D.	c #F8F8F6",
"E.	c #DADADA",
"F.	c #606061",
"G.	c #09090A",
"H.	c #161515",
"I.	c #3A3A3B",
"J.	c #131314",
"K.	c #111112",
"L.	c #B4B4B3",
"M.	c #212121",
"N.	c #1B1B1B",
"O.	c #070708",
"P.	c #1C1C1E",
"Q.	c #141214",
"R.	c #464646",
"S.	c #E6E6E4",
"T.	c #0D0D0E",
"U.	c #020205",
"V.	c #181819",
"W.	c #AEAEAE",
"X.	c #F7F7F6",
"Y.	c #FAFAF9",
"Z.	c #F7F7F5",
"`.	c #272729",
" +	c #040406",
".+	c #121213",
"++	c #EDEDEC",
"@+	c #202021",
"#+	c #0B0B0B",
"$+	c #111111",
"%+	c #FEFEFD",
"&+	c #EBEBEB",
"*+	c #29292A",
"=+	c #050506",
"-+	c #303030",
";+	c #565656",
">+	c #FFFFFD",
",+	c #ECECEB",
"'+	c #0B0B0C",
")+	c #050505",
"!+	c #F5B80D",
"~+	c #7A5D0C",
"{+	c #C0BFBE",
"]+	c #F1EDE2",
"^+	c #D2C6A4",
"/+	c #120E0A",
"(+	c #3C341E",
"_+	c #FFC90C",
":+	c #FFD30C",
"<+	c #7F630E",
"[+	c #9F9F9E",
"}+	c #E9E9E8",
"|+	c #F5F5F4",
"1+	c #F2F2F0",
"2+	c #DCB851",
"3+	c #C7A109",
"4+	c #0E0B03",
"5+	c #291E03",
"6+	c #967B25",
"7+	c #1F1F1F",
"8+	c #FFCD0C",
"9+	c #FFD80D",
"0+	c #FFD10C",
"a+	c #3F3105",
"b+	c #515051",
"c+	c #E4E4E2",
"d+	c #EBEBEA",
"e+	c #F4F4F2",
"f+	c #F5F5F3",
"g+	c #EBEBE9",
"h+	c #D3D2D1",
"i+	c #C6A23D",
"j+	c #B98707",
"k+	c #765405",
"l+	c #A57E07",
"m+	c #997407",
"n+	c #8E7C4A",
"o+	c #5B5B5B",
"p+	c #FFBC14",
"q+	c #FFE30F",
"r+	c #FFE30E",
"s+	c #FFCF0D",
"t+	c #CB9F09",
"u+	c #1D1603",
"v+	c #9B9A99",
"w+	c #E1E1DF",
"x+	c #E2E2E0",
"y+	c #DFDFDD",
"z+	c #E0E0DF",
"A+	c #DEDEDD",
"B+	c #DADAD9",
"C+	c #ACACAB",
"D+	c #A87F18",
"E+	c #B68A08",
"F+	c #AB8208",
"G+	c #8C6C14",
"H+	c #6D4D17",
"I+	c #4A340F",
"J+	c #181105",
"K+	c #FAC044",
"L+	c #D5960B",
"M+	c #B38008",
"N+	c #946E06",
"O+	c #836506",
"P+	c #312910",
"Q+	c #646464",
"R+	c #CECECD",
"S+	c #C7C7C6",
"T+	c #C0C0BE",
"U+	c #BCBCBB",
"V+	c #BDBDBB",
"W+	c #BBBBBA",
"X+	c #999998",
"Y+	c #5B4C2C",
"Z+	c #9A7306",
"`+	c #8B6506",
" @	c #7D6532",
".@	c #7B571B",
"+@	c #79571A",
"@@	c #7A561B",
"#@	c #513A11",
"$@	c #120C03",
"%@	c #49350F",
"&@	c #674804",
"*@	c #6D5C3E",
"=@	c #72716F",
"-@	c #616161",
";@	c #60605F",
">@	c #4E4D4C",
",@	c #231703",
"'@	c #5A3D03",
")@	c #573C06",
"!@	c #080808",
"~@	c #7E5A1B",
"{@	c #7D591B",
"]@	c #79561A",
"^@	c #654815",
"/@	c #5E4314",
"(@	c #030200",
"_@	c #575757",
":@	c #7A571A",
"<@	c #6F4F18",
"[@	c #5B4114",
"}@	c #44310F",
"|@	c #060300",
"1@	c #131312",
"2@	c #7E581B",
"3@	c #5A4013",
"4@	c #3E2C0D",
"5@	c #0F0B02",
"6@	c #2D2D2D",
"7@	c #959595",
"8@	c #979797",
"9@	c #929292",
"0@	c #3E3E3E",
"a@	c #7C581B",
"b@	c #78551A",
"c@	c #6E4E18",
"d@	c #7C5A1B",
"e@	c #7C591B",
"f@	c #78571A",
"g@	c #6E4F18",
"h@	c #7D581B",
"i@	c #7A551A",
"j@	c #6F4E18",
"k@	c #7B591B",
"l@	c #77561A",
"m@	c #594013",
"                                                                                                ",
"                                                  . . + @ @ @ @ # . . .                         ",
"                                            . . $                     % . .                     ",
"                                          .           & * * * = -           ; .                 ",
"                                      . >         , ' ) ! ~ { ] ^ / ( _       : .               ",
"                                    .             < [ } | 1 2 3 4 5 6 ~ 7         .             ",
"                                  .               8 9 0 a b c d e f g h i           .           ",
"                                  j               k l m n o p q r s t h u           v .         ",
"                                w                 x y z A B C D E F G h H             > .       ",
"                              .                   I J K L M N O P Q R S T U             .       ",
"                              V                   W X Y Z `  ...+.@.#.$.%.&.            *..     ",
"                            .                     =.-.;.>.,.'.).!.~.{.].~ h ^.            .     ",
"                            /.                  (._.:.:.<.[.}.|.1.2.3.$ h h e             # .   ",
"                            4.                5.6.:.:.:.:.7.8.9.9.1.0.a.h h h b.            .   ",
"                          .                   ~ ] :.:.:.:.:.c.d.d.1.e.f.].h h h             .   ",
"                          .                 g.~ h.:.:.:.:.:.7.i.j.k.l.m.n.H ~ h o.          .   ",
"                          .               p.q.r.s.:.:.:.:.:.c.1.0.t.u.v.w.x.y.H h           .   ",
"                          .               ].z.A.:.:.:.:.:.:.9.B.B.C.B.D.E.F.G.H.h I.        .   ",
"                          .               J.K.i.:.:.:.:.:.9.1.B.1.1.C.1.e.L.M.N.O.P.        .   ",
"                          .               Q.R.:.:.:.:.:.1.B.C.B.C.C.1.1.B.S.T.~ T.h         .   ",
"                          .             U.V.W.:.:.:.:.X.Y.C.1.C.C.B.1.1.1.Z.`.h  +h         .   ",
"                          .             < .+:.:.:.:.:.++D.C.B.C.C.C.0.B.1.~.@+~ #+T         .   ",
"                            $+          G.`.:.:.:.:.%+&+i.C.1.1.1.1.C.B.B.~.*+=+].-+      ;+.   ",
"                            .            +@+:.:.:.:.>+,+i.B.1.1.1.9.1.B.2.3.> '+G.        )+    ",
"                            . *.        !+~+{+:.:.:.>+++B.1.1.1.Y.C.1.2.]+^+/+~ (+        .     ",
"                              .         _+:+<+[+:.9.D.}+e.0.1.B.1.2.|+1+2+3+4+5+6+      (..     ",
"                              . 7+      8+9+0+a+b+}.c+d+e+|.f+f+f+3.g+h+i+j+k+l+m+n+  o+.       ",
"                                .     p+q+r+s+t+u+.+v+w+!.x+y+y+z+A+B+C+D+E+F+G+      /.        ",
"                              H+I+J+    K+L+M+N+O+P+Q+R+S+T+U+U+V+W+X+Y+Z+`+ @      w .         ",
"                            .@+@@@#@$@          %@&@*@=@) -@;@) o+>@,@'@)@        !@.           ",
"                          .@~@{@]@^@/@(@_@                                      . .             ",
"                        .@~@{@:@<@[@}@  |@1@                                -+. .               ",
"                      .@2@{@:@<@3@4@      5@. S                         i /..                   ",
"                    .@~@{@:@<@3@4@            . . . 6@h.7@8@8@9@4 0@. . .                       ",
"                  .@~@{@:@H+3@4@                    . . . . . . . .                             ",
"                .@a@a@b@c@3@4@                                                                  ",
"              .@d@e@f@g@3@4@                                                                    ",
"            .@a@a@f@g@3@4@                                                                      ",
"          .@~@e@f@<@3@4@                                                                        ",
"        .@d@e@:@<@3@4@                                                                          ",
"      .@2@h@i@j@3@4@                                                                            ",
"    .@~@{@:@<@3@4@                                                                              ",
"  .@~@{@:@<@3@4@                                                                                ",
"b@k@k@l@c@m@4@                                                                                  ",
"k@k@l@c@m@4@                                                                                    "};
