/* XPM */
static char * link_xpm[] = {
"14 14 5 1",
" 	c None",
".	c #2F2F60",
"+	c #CFCFFF",
"@	c #FFFFFF",
"#	c #6060CF",
"           .. ",
"          .+@.",
"      ....+@#.",
"     .+@.+@#. ",
"    .+@.+@#.  ",
"   .+@..##..  ",
"  .+@.  ..+.  ",
" .+@.  @.+@.  ",
" .@.. @.+@.   ",
" ..+ ..+@.    ",
" .+@#.+@.     ",
".+@#.+@.      ",
".@#....       ",
"...           "};
