/* XPM */
static char * logout_menu_xpm[] = {
/* width height num_colors chars_per_pixel */
"18 18 15 1",
/* colors */
" 	c #cccccc",
".	c #999999",
"X	c None",
"o	c black",
"O	c #000066",
"+	c #996666",
"@	c white",
"#	c #000099",
"$	c #666699",
"%	c #ffff99",
"&	c #6666cc",
"*	c #336699",
"=	c #333366",
"-	c #333399",
";	c #333333",
/* pixels */
"XXXXXXXXXXXXXXXXXX",
"XXXXXXXXXXXXXXXXXX",
"XXXXXXXXXXXXXXXXXX",
"XXX .XoooooooooXXX",
"XXXXXXo       OXXX",
"XXXo.Xo ++@++@#XXX",
"XXXXX$o.+%@+%@OXXX",
"XXXXX&o +%@+%@#XXX",
"XXX .*o @@@@@@OXXX",
"XXX=X-ooo+@++@#XXX",
"XXXXX=o +.@+%@#XXX",
"XXXX.;o +%@+%@OXXX",
"XXXoXXo +%@+%@#XXX",
"XXXXXXo @@@@@@OXXX",
"XXX .*#O#O#O#O#XXX",
"XXXXXXXXXXXXXXXXXX",
"XXXXXXXXXXXXXXXXXX",
"XXXXXXXXXXXXXXXXXX"};
