/* XPM */
static char * logout_icon_xpm[] = {
/* width height num_colors chars_per_pixel */
"12 12 15 1",
/* colors */
" 	c #cccccc",
".	c #999999",
"X	c None",
"o	c black",
"O	c #000066",
"+	c #996666",
"@	c white",
"#	c #000099",
"$	c #666699",
"%	c #ffff99",
"&	c #6666cc",
"*	c #336699",
"=	c #333366",
"-	c #333399",
";	c #333333",
/* pixels */
" .Xooooooooo",
"XXXo       O",
"o.Xo ++@++@#",
"XX$o.+%@+%@O",
"XX&o +%@+%@#",
" .*o @@@@@@O",
"=X-ooo+@++@#",
"XX=o +.@+%@#",
"X.;o +%@+%@O",
"oXXo +%@+%@#",
"XXXo @@@@@@O",
" .*#O#O#O#O#"};
