/* XPM */
static char * mrt_xpm[] = {
"18 19 5 1",
" 	c None",
".	c #000000",
"+	c #000008",
"@	c #FFBD00",
"#	c #FFFFFF",
"      ......      ",
"    ..@@@@@@..    ",
"  ..@..@@@@..@..  ",
"  ..@..@@@@..@..  ",
" .@@.#+.@@..#+@@. ",
" ..#####..####++. ",
"..##############++",
".+####+####+####++",
".+####+####+##++@.",
".@+#####++###+@@@.",
".@@..##+@@+##+@@@.",
".@@@@.+@@@@++@@@@.",
" .@@@@......@@@@. ",
" ..@@.@@@@@@.@... ",
"  ....@....@....  ",
"  ....@....@..    ",
"   ...@....@..    ",
"     .@@@@@@.     ",
"      ......      "};
