/* XPM */
static char * msg_pending_xpm[] = {
"32 31 791 2",
"  	c None",
". 	c #000000",
"+ 	c #0F0B08",
"@ 	c #383330",
"# 	c #2E2A2A",
"$ 	c #2E2924",
"% 	c #35312E",
"& 	c #0B0E10",
"* 	c #050403",
"= 	c #3D3E47",
"- 	c #26211F",
"; 	c #050201",
"> 	c #010100",
", 	c #050402",
"' 	c #161314",
") 	c #332D28",
"! 	c #332B23",
"~ 	c #2A241A",
"{ 	c #0E0A08",
"] 	c #25221F",
"^ 	c #9D8B7C",
"/ 	c #756F65",
"( 	c #3E3D3F",
"_ 	c #36322D",
": 	c #676258",
"< 	c #7F879C",
"[ 	c #888C94",
"} 	c #75798D",
"| 	c #97979E",
"1 	c #787A8E",
"2 	c #97989E",
"3 	c #7C7D8F",
"4 	c #888D93",
"5 	c #BEC0CF",
"6 	c #AFABAE",
"7 	c #7E7E8E",
"8 	c #7B7D8E",
"9 	c #7F7F90",
"0 	c #7B7D8F",
"a 	c #A1A09E",
"b 	c #A09281",
"c 	c #98989A",
"d 	c #767A8E",
"e 	c #70768E",
"f 	c #636577",
"g 	c #3C3732",
"h 	c #786B5F",
"i 	c #9D8E7E",
"j 	c #A19E9E",
"k 	c #212122",
"l 	c #5A5349",
"m 	c #AB9D8F",
"n 	c #424240",
"o 	c #5C5D67",
"p 	c #8C8A81",
"q 	c #8F8A88",
"r 	c #C7CACE",
"s 	c #A6ABC8",
"t 	c #A8ACC8",
"u 	c #ACAFC9",
"v 	c #AEB0C9",
"w 	c #B1B1C9",
"x 	c #B1B2C9",
"y 	c #B2B3C9",
"z 	c #B5B4C9",
"A 	c #676877",
"B 	c #A8A9B8",
"C 	c #AFB1C9",
"D 	c #CCC9D0",
"E 	c #A3A9C8",
"F 	c #929AB2",
"G 	c #636871",
"H 	c #6C6B77",
"I 	c #252C2F",
"J 	c #C4BFB3",
"K 	c #32312A",
"L 	c #4A423B",
"M 	c #423C35",
"N 	c #42434A",
"O 	c #9DA6C8",
"P 	c #B7BCD2",
"Q 	c #ABB0CA",
"R 	c #A7ABC8",
"S 	c #AAAEC9",
"T 	c #ADB0C9",
"U 	c #B3B3C9",
"V 	c #B6B5CA",
"W 	c #ABAABC",
"X 	c #BBBBCC",
"Y 	c #B8B7CA",
"Z 	c #B7B6CA",
"` 	c #B8B8CB",
" .	c #0A0202",
"..	c #302626",
"+.	c #CBC5C1",
"@.	c #BEC3D4",
"#.	c #A4AAC8",
"$.	c #A1A8C8",
"%.	c #C7C3BC",
"&.	c #756962",
"*.	c #AEA79B",
"=.	c #282724",
"-.	c #2C2A28",
";.	c #393834",
">.	c #615F63",
",.	c #A9ADC9",
"'.	c #B2B2C9",
").	c #B4B4C9",
"!.	c #D9D8E2",
"~.	c #A39DA3",
"{.	c #CACBD2",
"].	c #ADABAB",
"^.	c #E0E4E3",
"/.	c #BCBDCD",
"(.	c #C5C5CA",
"_.	c #D1D2CE",
":.	c #540B0B",
"<.	c #A50000",
"[.	c #182220",
"}.	c #4C6065",
"|.	c #C8C9D8",
"1.	c #B1B7D2",
"2.	c #ADB4D1",
"3.	c #C3C7C3",
"4.	c #302D2F",
"5.	c #3F3935",
"6.	c #A4968B",
"7.	c #6D6C6F",
"8.	c #AEB3C7",
"9.	c #ADAFC9",
"0.	c #B6B5C9",
"a.	c #D4D4DE",
"b.	c #B0AAA3",
"c.	c #232221",
"d.	c #2E2D2A",
"e.	c #515048",
"f.	c #CCC3B9",
"g.	c #ECECEF",
"h.	c #B8BCB7",
"i.	c #BEC2BD",
"j.	c #590507",
"k.	c #FD0101",
"l.	c #D70000",
"m.	c #660000",
"n.	c #92A3A5",
"o.	c #C5C8D3",
"p.	c #9AA7AA",
"q.	c #1B2121",
"r.	c #302A27",
"s.	c #5D5455",
"t.	c #AAABBA",
"u.	c #BFC1CE",
"v.	c #B0B1C9",
"w.	c #D5D5DB",
"x.	c #818087",
"y.	c #48423D",
"z.	c #666765",
"A.	c #464542",
"B.	c #040404",
"C.	c #211D1C",
"D.	c #989395",
"E.	c #BFBABE",
"F.	c #F6F6F7",
"G.	c #550100",
"H.	c #FE0000",
"I.	c #FD0000",
"J.	c #162728",
"K.	c #BCD0D1",
"L.	c #B5B5C9",
"M.	c #9FA1A7",
"N.	c #131210",
"O.	c #060705",
"P.	c #494A4A",
"Q.	c #A8ADC9",
"R.	c #AEB1CA",
"S.	c #BABCC2",
"T.	c #7A817C",
"U.	c #252A27",
"V.	c #4B4947",
"W.	c #C3B8A5",
"X.	c #E7D9C4",
"Y.	c #CDCBC5",
"Z.	c #242524",
"`.	c #0F0C0F",
" +	c #54504D",
".+	c #C8CCC5",
"++	c #540000",
"@+	c #550101",
"#+	c #E80000",
"$+	c #0F191A",
"%+	c #B8C3C3",
"&+	c #BEBBCA",
"*+	c #B7B7CA",
"=+	c #ABAEC9",
"-+	c #CBCECD",
";+	c #222624",
">+	c #25282B",
",+	c #949AB1",
"'+	c #A9ADC8",
")+	c #C5C4D3",
"!+	c #595E5B",
"~+	c #141715",
"{+	c #35393F",
"]+	c #7A6F66",
"^+	c #B2AA99",
"/+	c #C5B19F",
"(+	c #C8BBAC",
"_+	c #C5C6C6",
":+	c #29292A",
"<+	c #000403",
"[+	c #214639",
"}+	c #560101",
"|+	c #5D6264",
"1+	c #430000",
"2+	c #0E1310",
"3+	c #B6BAB7",
"4+	c #BEBCCA",
"5+	c #B8B8CA",
"6+	c #CFD2CA",
"7+	c #272B22",
"8+	c #4B4B49",
"9+	c #BBBDCE",
"0+	c #B5B6CA",
"a+	c #7B777A",
"b+	c #111612",
"c+	c #6F6058",
"d+	c #91837D",
"e+	c #E6D2BB",
"f+	c #A59C93",
"g+	c #9B9A95",
"h+	c #74685F",
"i+	c #FCFAFA",
"j+	c #828080",
"k+	c #080708",
"l+	c #01190E",
"m+	c #849592",
"n+	c #DADAD4",
"o+	c #D0D0D6",
"p+	c #EDEEE7",
"q+	c #C6C6CB",
"r+	c #C0C1CE",
"s+	c #969590",
"t+	c #C4C6D3",
"u+	c #D1D6D2",
"v+	c #2A2E2A",
"w+	c #393A43",
"x+	c #C1C2C7",
"y+	c #292D29",
"z+	c #554E46",
"A+	c #9B908D",
"B+	c #C6BFBA",
"C+	c #8A8174",
"D+	c #C0B9B7",
"E+	c #B7C1BE",
"F+	c #999897",
"G+	c #EDDDCB",
"H+	c #ACA39F",
"I+	c #090708",
"J+	c #01271A",
"K+	c #0A0E0C",
"L+	c #424644",
"M+	c #878785",
"N+	c #BCBDC6",
"O+	c #D3D2D6",
"P+	c #B7B9B7",
"Q+	c #C7C5D0",
"R+	c #B5B8CE",
"S+	c #CFD1C9",
"T+	c #262720",
"U+	c #625F58",
"V+	c #C7C9D7",
"W+	c #B5B5CA",
"X+	c #BDBDCA",
"Y+	c #4A4B50",
"Z+	c #212524",
"`+	c #463F3B",
" @	c #23251F",
".@	c #2A302B",
"+@	c #939793",
"@@	c #989B96",
"#@	c #6D6A66",
"$@	c #A2A4A4",
"%@	c #F7EBDC",
"&@	c #B1ADB0",
"*@	c #030303",
"=@	c #012A1D",
"-@	c #4C4851",
";@	c #2E2B29",
">@	c #21201D",
",@	c #0D0C0B",
"'@	c #494445",
")@	c #949193",
"!@	c #A4A5A1",
"~@	c #B9BAC0",
"{@	c #B5B4CA",
"]@	c #D1D7D4",
"^@	c #292E2B",
"/@	c #434347",
"(@	c #B3B6CC",
"_@	c #BDBDCB",
":@	c #4C5053",
"<@	c #353836",
"[@	c #2B2A2C",
"}@	c #2B2C2B",
"|@	c #292926",
"1@	c #8D7F75",
"2@	c #5C5353",
"3@	c #BFB7B2",
"4@	c #7A7579",
"5@	c #020202",
"6@	c #000906",
"7@	c #272B28",
"8@	c #45403E",
"9@	c #5E5E55",
"0@	c #878782",
"a@	c #322D2C",
"b@	c #221D1F",
"c@	c #524847",
"d@	c #B5AEB4",
"e@	c #CFD0C8",
"f@	c #272820",
"g@	c #2A2A32",
"h@	c #9D9FB9",
"i@	c #C7C7D2",
"j@	c #5B605A",
"k@	c #1F2420",
"l@	c #121212",
"m@	c #010101",
"n@	c #362F30",
"o@	c #615A54",
"p@	c #73675D",
"q@	c #FCF9F9",
"r@	c #676262",
"s@	c #020303",
"t@	c #515453",
"u@	c #252822",
"v@	c #605B5B",
"w@	c #777571",
"x@	c #A99A90",
"y@	c #908576",
"z@	c #010102",
"A@	c #605F6E",
"B@	c #CACAD6",
"C@	c #CDD4D4",
"D@	c #252C2C",
"E@	c #050708",
"F@	c #93959C",
"G@	c #90919A",
"H@	c #212320",
"I@	c #5B544C",
"J@	c #030302",
"K@	c #050504",
"L@	c #4B4040",
"M@	c #424440",
"N@	c #5C5651",
"O@	c #FCF8F8",
"P@	c #A49D9A",
"Q@	c #030E0C",
"R@	c #6B0000",
"S@	c #530000",
"T@	c #434745",
"U@	c #595653",
"V@	c #7B7270",
"W@	c #8F8378",
"X@	c #817A7A",
"Y@	c #C3BFB6",
"Z@	c #817566",
"`@	c #171517",
" #	c #C0BFCF",
".#	c #E2E2DE",
"+#	c #393936",
"@#	c #080808",
"##	c #7C7C8D",
"$#	c #898C8E",
"%#	c #303331",
"&#	c #333032",
"*#	c #252221",
"=#	c #463D3E",
"-#	c #4C4841",
";#	c #67605D",
">#	c #4F4849",
",#	c #FCF9F7",
"'#	c #60605C",
")#	c #020D09",
"!#	c #0A3428",
"~#	c #DA0000",
"{#	c #480403",
"]#	c #3A3937",
"^#	c #50504F",
"/#	c #827675",
"(#	c #AB9A8B",
"_#	c #9E8F86",
":#	c #A6968A",
"<#	c #F6EFD5",
"[#	c #4E4741",
"}#	c #7B7A87",
"|#	c #D6D5C8",
"1#	c #2C2B23",
"2#	c #121313",
"3#	c #878899",
"4#	c #C0C1CA",
"5#	c #6A6C74",
"6#	c #2D362B",
"7#	c #020203",
"8#	c #0E0D0C",
"9#	c #131213",
"0#	c #534E4D",
"a#	c #746D6B",
"b#	c #7B6C61",
"c#	c #FDFCF8",
"d#	c #545252",
"e#	c #060806",
"f#	c #081C13",
"g#	c #56322D",
"h#	c #3D3537",
"i#	c #5B5856",
"j#	c #3B3D39",
"k#	c #645E5F",
"l#	c #65615A",
"m#	c #A08E7E",
"n#	c #AE9B8B",
"o#	c #FDF9F6",
"p#	c #787975",
"q#	c #3D3C43",
"r#	c #CECEBC",
"s#	c #25261B",
"t#	c #2A2C33",
"u#	c #9DA2B9",
"v#	c #787A86",
"w#	c #191D1E",
"x#	c #1F2925",
"y#	c #030602",
"z#	c #060706",
"A#	c #32332F",
"B#	c #393533",
"C#	c #423C3C",
"D#	c #514B49",
"E#	c #817263",
"F#	c #FDFCF4",
"G#	c #545353",
"H#	c #0D140F",
"I#	c #182017",
"J#	c #453B3C",
"K#	c #575450",
"L#	c #5D5B59",
"M#	c #5C5954",
"N#	c #8E8377",
"O#	c #6B675E",
"P#	c #B6B3A9",
"Q#	c #FCF2E6",
"R#	c #FDF9F9",
"S#	c #1A1A1D",
"T#	c #8F90A3",
"U#	c #CFD8D7",
"V#	c #262E2E",
"W#	c #383942",
"X#	c #494E51",
"Y#	c #3A3934",
"Z#	c #191816",
"`#	c #090D0C",
" $	c #172018",
".$	c #42423C",
"+$	c #46443D",
"@$	c #625E5A",
"#$	c #746D6C",
"$$	c #090F0B",
"%$	c #151F17",
"&$	c #3D3736",
"*$	c #483E3F",
"=$	c #52534B",
"-$	c #5C5852",
";$	c #514C4A",
">$	c #1E1D1F",
",$	c #2E2E31",
"'$	c #6A6463",
")$	c #E8DAC6",
"!$	c #FBEDD9",
"~$	c #A4A5A6",
"{$	c #C0BFBC",
"]$	c #171614",
"^$	c #3D3D44",
"/$	c #494E52",
"($	c #8A7A71",
"_$	c #7D7062",
":$	c #0E0E0D",
"<$	c #020402",
"[$	c #201919",
"}$	c #2E2A2F",
"|$	c #33322C",
"1$	c #4B4944",
"2$	c #CAC5C6",
"3$	c #EEE9E9",
"4$	c #F3F3F1",
"5$	c #4A4B49",
"6$	c #050505",
"7$	c #121A13",
"8$	c #3E3834",
"9$	c #6E6767",
"0$	c #56524C",
"a$	c #050529",
"b$	c #0000E3",
"c$	c #0000D9",
"d$	c #0E0C1F",
"e$	c #A9A099",
"f$	c #FCF3EB",
"g$	c #A9A9A8",
"h$	c #C0BCB7",
"i$	c #17130F",
"j$	c #4C4A4B",
"k$	c #B1B5CC",
"l$	c #C1C1CC",
"m$	c #2A2926",
"n$	c #585557",
"o$	c #F3EBE1",
"p$	c #F3ECE8",
"q$	c #F8F4F4",
"r$	c #F9F4F5",
"s$	c #EFE8E4",
"t$	c #D4C5BB",
"u$	c #D0C6BC",
"v$	c #938C82",
"w$	c #21211F",
"x$	c #1B1511",
"y$	c #92867B",
"z$	c #4E4843",
"A$	c #090907",
"B$	c #10160F",
"C$	c #4E5147",
"D$	c #595652",
"E$	c #00005F",
"F$	c #0000FF",
"G$	c #0000FE",
"H$	c #00003F",
"I$	c #94908C",
"J$	c #97989D",
"K$	c #BDC4CA",
"L$	c #272D2D",
"M$	c #424347",
"N$	c #B1B4CC",
"O$	c #BFC0CE",
"P$	c #AFADB5",
"Q$	c #565959",
"R$	c #4F4D4D",
"S$	c #4D4844",
"T$	c #352A21",
"U$	c #37322B",
"V$	c #96968A",
"W$	c #A49C91",
"X$	c #B6AC9B",
"Y$	c #E4D8C2",
"Z$	c #796E68",
"`$	c #9A8F84",
" %	c #50514C",
".%	c #141D14",
"+%	c #42443F",
"@%	c #03031C",
"#%	c #0000AC",
"$%	c #0000A0",
"%%	c #211E1E",
"&%	c #A49891",
"*%	c #F4EAE1",
"=%	c #717383",
"-%	c #CBD0D3",
";%	c #343837",
">%	c #353842",
",%	c #D2D2DE",
"'%	c #373539",
")%	c #19110D",
"!%	c #81776D",
"~%	c #E4E1DF",
"{%	c #F5EBD9",
"]%	c #E3CDAE",
"^%	c #CBC9C0",
"/%	c #CAC5BD",
"(%	c #E6D7C4",
"_%	c #FAF9F7",
":%	c #F9F0E5",
"<%	c #AF9A88",
"[%	c #AE9A8C",
"}%	c #302C2D",
"|%	c #00009C",
"1%	c #070716",
"2%	c #494946",
"3%	c #F5F0EE",
"4%	c #5C5B5E",
"5%	c #CABCA8",
"6%	c #231D19",
"7%	c #28272F",
"8%	c #9498B5",
"9%	c #ACA9BB",
"0%	c #A4A0A0",
"a%	c #6A6A73",
"b%	c #252824",
"c%	c #575451",
"d%	c #98999B",
"e%	c #E3DDC8",
"f%	c #E4E5E3",
"g%	c #D8CEBE",
"h%	c #6C6058",
"i%	c #5F5959",
"j%	c #EEE1CE",
"k%	c #E3D1BA",
"l%	c #BAA996",
"m%	c #010144",
"n%	c #0000FD",
"o%	c #0000FA",
"p%	c #0000EE",
"q%	c #0000F8",
"r%	c #03032F",
"s%	c #D4D0D0",
"t%	c #6E7185",
"u%	c #C2BDB7",
"v%	c #1A1512",
"w%	c #232125",
"x%	c #8E91AB",
"y%	c #BBBACA",
"z%	c #E5E5E8",
"A%	c #56545C",
"B%	c #1E1D1E",
"C%	c #060505",
"D%	c #201A17",
"E%	c #0F0F0C",
"F%	c #4D4D4C",
"G%	c #1D1B1B",
"H%	c #90908A",
"I%	c #CCCDC6",
"J%	c #96948F",
"K%	c #00007F",
"L%	c #000074",
"M%	c #080840",
"N%	c #4E4640",
"O%	c #CCC9CA",
"P%	c #6B7085",
"Q%	c #A9A69A",
"R%	c #121410",
"S%	c #343743",
"T%	c #9AA3C8",
"U%	c #B6B6CA",
"V%	c #BFBFCF",
"W%	c #BAB9CA",
"X%	c #BCBBC4",
"Y%	c #888687",
"Z%	c #696362",
"`%	c #050707",
" &	c #E3E4E5",
".&	c #4C4C4C",
"+&	c #2A2A26",
"@&	c #9D9E96",
"#&	c #5E5F5E",
"$&	c #0000A6",
"%&	c #0000F6",
"&&	c #43413E",
"*&	c #84776B",
"=&	c #242322",
"-&	c #050E05",
";&	c #6F768A",
">&	c #CFC8B1",
",&	c #2A2B20",
"'&	c #323642",
")&	c #98A2C7",
"!&	c #9EA6C8",
"~&	c #AFB0C9",
"{&	c #C2C6CD",
"]&	c #929196",
"^&	c #C3C2D3",
"/&	c #ECEDF1",
"(&	c #202228",
"_&	c #010000",
":&	c #FDFBFB",
"<&	c #7B716D",
"[&	c #090D0D",
"}&	c #00005E",
"|&	c #0000FC",
"1&	c #0000B6",
"2&	c #0000BF",
"3&	c #00008D",
"4&	c #3C362C",
"5&	c #5F5453",
"6&	c #8E94AF",
"7&	c #C7CED1",
"8&	c #1E2428",
"9&	c #444444",
"0&	c #969DAE",
"a&	c #A6ADC0",
"b&	c #C9CDDF",
"c&	c #A2A8C8",
"d&	c #B4B5CA",
"e&	c #BABCC3",
"f&	c #C4C3CF",
"g&	c #E9E8E4",
"h&	c #56453A",
"i&	c #020000",
"j&	c #FDF5EE",
"k&	c #C9BBAD",
"l&	c #00000C",
"m&	c #0000AE",
"n&	c #0000C6",
"o&	c #202029",
"p&	c #3E3A3B",
"q&	c #01013F",
"r&	c #7F8398",
"s&	c #B0B3C9",
"t&	c #98A0AC",
"u&	c #BABFBF",
"v&	c #2C2F2E",
"w&	c #50453E",
"x&	c #6F6658",
"y&	c #545E58",
"z&	c #B8BFCE",
"A&	c #A0A7C8",
"B&	c #BFC0D4",
"C&	c #F3F3EC",
"D&	c #766858",
"E&	c #221E21",
"F&	c #CBC8C8",
"G&	c #5F5D5D",
"H&	c #131112",
"I&	c #0000AF",
"J&	c #000079",
"K&	c #2D2E3B",
"L&	c #9B9DB5",
"M&	c #4A4D5A",
"N&	c #000065",
"O&	c #06072A",
"P&	c #7F808B",
"Q&	c #C6C9C8",
"R&	c #232725",
"S&	c #767167",
"T&	c #282624",
"U&	c #3F3730",
"V&	c #CDB6A4",
"W&	c #5F594F",
"X&	c #282625",
"Y&	c #222123",
"Z&	c #524740",
"`&	c #A0A7B7",
" *	c #C1C5BF",
".*	c #C0C5C4",
"+*	c #C0C4BF",
"@*	c #C1C6C5",
"#*	c #D6D3CF",
"$*	c #CDCFCC",
"%*	c #BEC0BF",
"&*	c #1F1D19",
"**	c #B6B2B1",
"=*	c #F6F3F3",
"-*	c #92918E",
";*	c #2C2923",
">*	c #4C4944",
",*	c #747479",
"'*	c #AEB0C0",
")*	c #A4A1B1",
"!*	c #8A8FA2",
"~*	c #A7A7B7",
"{*	c #474954",
"]*	c #878D94",
"^*	c #99A4A2",
"/*	c #403F3A",
"(*	c #404139",
"_*	c #D8CFC0",
":*	c #3B3733",
"<*	c #060605",
"[*	c #302B27",
"}*	c #5A493C",
"|*	c #38342C",
"1*	c #3E3F41",
"2*	c #353330",
"3*	c #161B17",
"4*	c #151B17",
"5*	c #151916",
"6*	c #171C18",
"7*	c #302C28",
"8*	c #242621",
"9*	c #0D100E",
"0*	c #2F2B27",
"a*	c #797170",
"b*	c #E7E3E2",
"c*	c #BBB1A3",
"d*	c #111712",
"e*	c #837B72",
"f*	c #191817",
"g*	c #696461",
"h*	c #362F2A",
"i*	c #191B19",
"j*	c #464039",
"k*	c #2F2D2E",
"l*	c #1A1F18",
"m*	c #2B2929",
"n*	c #2E2E2A",
"o*	c #323533",
"p*	c #3F3B36",
". + @ # $ % & . . * . * . . = - . . ; > , > , > . . ' ) ! ~ { . ",
"] ^ / ( _ : < [ } | 1 2 3 4 5 6 7 8 9 0 a b c d [ e f g h i j k ",
"l m n o p q r s t u v w x x y z z y A B C D u t s E F G H I J K ",
"L M N O P Q R S T C U z V W X Y Z `  ...+.@.C T S R #.$.%.&.*.=.",
"-.;.>.$.s ,.u v '.).!.~.{.].^./.(._.:.<.[.}.|.'.v u ,.s 1.2.3.4.",
"5.6.7.8.,.9.x U 0.a.b.c.d.e.f.g.h.i.j.k.l.m.n.o.U x 9.,.#.$.p.q.",
"r.s.t.u.u v.).0.w.x.y.z.A.B.C.D.E.F.G.H.I.H.J.K.L.).v.u R E M.N.",
"O.P.Q.R.v U 0.S.T.U.V.W.X.Y.Z.`. +.+++m.@+#+$+%+&+*+U v =+s -+;+",
">+,+'+T y L.)+!+~+{+]+^+/+(+_+:+<+[+++}+|+1+2+3+4+5+).y T '+6+7+",
"8+9+T v.0+*+a+b+c+d+e+f+g+h+i+j+k+l+++++m+n+o+p+q+r+s+t+v.T u+v+",
"w+t v y *+x+y+z+A+B+C+D+E+F+G+H+I+J+++++K+L+M+N+O+P+Q+R+y v S+T+",
"U+V+w W+X+Y+Z+`+ @.@+@@@#@$@%@&@*@=@++++-@;@>@,@'@)@!@~@{@v.]@^@",
"/@(@x )._@:@<@[@> > }@|@1@2@3@4@5@6@++++7@8@9@0@a@b@c@d@z x e@f@",
"g@h@w L.i@j@k@l@. m@C.n@o@p@q@r@s@. ++G.t@u@v@w@x@y@z@A@B@x C@D@",
"E@F@).0.G@H@I@. J@K@n@L@M@N@O@P@E@Q@R@S@T@U@V@W@X@Y@Z@`@ #)..#+#",
"@###z 0.$#%#&#. K@*#=#-#;#>#,#'#)#!#~#{#]#^#/#(#_#:#<#[#}#z |#1#",
"2#3#y 4#5#6#7#J@J@8#9#0#a#b#c#d#e#f#g#h#i#j#k#l#m#n#o#p#q#).r#s#",
"t#u#w v#w#x#y#J@z#A#B#C#D#E#F#G#H#I#]#J#K#L#M#N#O#P#Q#R#S#T#U#V#",
"W#=+x X#Y#Z#J@J@`# $.$+$@$#$R#G#$$%$&$*$=$-$;$>$,$'$)$!$. ~${$]$",
"^$=+w /$($_$:$<$[$}$|$1$2$3$4$5$6$7$8$ +9$0$a$b$c$d$e$f$. g$h$i$",
"j$k$v l$m$n$o$p$q$r$s$t$u$v$w$x$y$z$A$B$C$D$E$F$G$H$I$R#. J$K$L$",
"M$N$T O$P$Q$R$R$R$R$S$T$U$V$W$X$Y$Z$`$ %.%+%@%#%$%%%&%*%. =%-%;%",
">%#.'+T y ,%'%)%. . !%~%{%]%^%/%(%_%:%<%[%}%|%E$. 1%2%3%. 4%5%6%",
"7%8%s =+v U 9%0%a%b%Z#c%d%e%f%g%h%i%j%k%l%m%n%o%p%q%r%s%. t%u%v%",
"w%x%E R u v.).L.y%z%A%B%C%D%E%. F%G%H%I%J%K%n%L%E$M%N%O%. P%Q%R%",
"S%T%$.#.,.9.x U U%V%W%X%Y%Z%`%.  &.&+&@&#&$&n%%&K%&&*&=&-&;&>&,&",
"'&)&!&$.s ,.u ~&'.U {&]&^&/&(&_&:&<&. [&}&|&1&2&n%3&K@4&5&6&7&8&",
"9&0&a&b&c&#.t =+T ~&d&e&f&g&h&i&j&k&l&m&F$n&o&p&L%G$q&r&s&t&u&v&",
"w&x&y&z&O A&E s t u T C B&C&D&E&F&G&H&I&J&K&L&t M&N&O&P&Q&R&S&T&",
"U&V&W&X&Y&Z&`& *.*+*@*#*$*%*&***=*-*;*>*,*'*)*!*~*{*]*^*/*(*_*:*",
"<*[*}*|*1*2*Z+3*4*5*6*7*8*9*0*a*b*c*d*e*f*g*h*i*j*k*l*m*n*o*p*8#"};
