/* XPM */
static char * offline_xpm[] = {
"35 32 357 2",
"  	c None",
". 	c #989897",
"+ 	c #F7F7F5",
"@ 	c #FEFEFD",
"# 	c #FEFEFC",
"$ 	c #C4C4C2",
"% 	c #E5E5E3",
"& 	c #FDFDFB",
"* 	c #FEFEFE",
"= 	c #A7A7A6",
"- 	c #010102",
"; 	c #010103",
"> 	c #060608",
", 	c #C3C5FC",
"' 	c #A4A8FC",
") 	c #EBECFC",
"! 	c #FDFDFD",
"~ 	c #FAFBFF",
"{ 	c #CACBFE",
"] 	c #A3A7FB",
"^ 	c #E7E7F7",
"/ 	c #FBFBF9",
"( 	c #AFAFAE",
"_ 	c #232324",
": 	c #1F1F1F",
"< 	c #E6E6E5",
"[ 	c #DADBFC",
"} 	c #6469F8",
"| 	c #7579F1",
"1 	c #D6D7F2",
"2 	c #FCFCFC",
"3 	c #B5B7FF",
"4 	c #5F64FC",
"5 	c #8D90EA",
"6 	c #CFD0D8",
"7 	c #F1F1EF",
"8 	c #141416",
"9 	c #151516",
"0 	c #030304",
"a 	c #BABCF9",
"b 	c #3E44F0",
"c 	c #5C61E9",
"d 	c #9093F3",
"e 	c #454BFD",
"f 	c #676BE7",
"g 	c #A9AABD",
"h 	c #C3C3C1",
"i 	c #EEEEEC",
"j 	c #050506",
"k 	c #040406",
"l 	c #1F1F21",
"m 	c #151517",
"n 	c #8F8F8E",
"o 	c #F9F9F7",
"p 	c #F9F9FC",
"q 	c #A1A4F1",
"r 	c #2930F0",
"s 	c #1D25F7",
"t 	c #4A4FE5",
"u 	c #9999AB",
"v 	c #AAAAA8",
"w 	c #CCCCCA",
"x 	c #F4F4F2",
"y 	c #6E6E6E",
"z 	c #686564",
"A 	c #161516",
"B 	c #939393",
"C 	c #A8A8A8",
"D 	c #3A3A3C",
"E 	c #7E7E7D",
"F 	c #FAFAFE",
"G 	c #ADAFFD",
"H 	c #3239F8",
"I 	c #181FF1",
"J 	c #3136CC",
"K 	c #88899B",
"L 	c #BCBCBB",
"M 	c #E9E9E7",
"N 	c #939292",
"O 	c #959083",
"P 	c #706032",
"Q 	c #AFAFAF",
"R 	c #646465",
"S 	c #434345",
"T 	c #1F1F20",
"U 	c #B1B1B0",
"V 	c #BEC0FE",
"W 	c #4A4FFD",
"X 	c #575BE4",
"Y 	c #585BBB",
"Z 	c #2329DA",
"` 	c #464AC6",
" .	c #B9BACD",
"..	c #F8F8F6",
"+.	c #5C4D2D",
"@.	c #99720A",
"#.	c #D6B114",
"$.	c #D3C162",
"%.	c #998433",
"&.	c #342E22",
"*.	c #4C4C4D",
"=.	c #929291",
"-.	c #F0F0EE",
";.	c #686DFD",
">.	c #6D71E9",
",.	c #9C9DB8",
"'.	c #9E9E9E",
").	c #7678C0",
"!.	c #3A3FD7",
"~.	c #7376D1",
"{.	c #DDDEE7",
"].	c #AC7906",
"^.	c #E5B10A",
"/.	c #F0CF20",
"(.	c #F5D819",
"_.	c #E3B90F",
":.	c #433308",
"<.	c #101011",
"[.	c #9A9DF2",
"}.	c #BBBCCC",
"|.	c #B6B6B6",
"1.	c #BABABA",
"2.	c #D8D8DC",
"3.	c #A6A7DA",
"4.	c #6C6FC4",
"5.	c #B4B4C4",
"6.	c #F5F5F3",
"7.	c #554617",
"8.	c #D1AE25",
"9.	c #E0BB11",
"0.	c #9B6D0F",
"a.	c #C99A3E",
"b.	c #423421",
"c.	c #424242",
"d.	c #090909",
"e.	c #DBDBDB",
"f.	c #D2D2D2",
"g.	c #E7E7E7",
"h.	c #D9D9D7",
"i.	c #C7C7C5",
"j.	c #999998",
"k.	c #09090A",
"l.	c #6B6B6B",
"m.	c #B8A276",
"n.	c #C29E52",
"o.	c #BAA171",
"p.	c #DEDEDD",
"q.	c #9F9F9F",
"r.	c #101012",
"s.	c #ECECEB",
"t.	c #EEEEED",
"u.	c #FCFCFB",
"v.	c #BEBEBD",
"w.	c #868685",
"x.	c #2E2E30",
"y.	c #CCCCCB",
"z.	c #CECECD",
"A.	c #C9C9C9",
"B.	c #E5E4E4",
"C.	c #FAFAF8",
"D.	c #434344",
"E.	c #0A0A0B",
"F.	c #CDCDCD",
"G.	c #F1F1F0",
"H.	c #F3F3F1",
"I.	c #FCFCFA",
"J.	c #CBCBCA",
"K.	c #0E0E0F",
"L.	c #C6C6C6",
"M.	c #F0F0F1",
"N.	c #E2DEE1",
"O.	c #DBD0D5",
"P.	c #E5D9DD",
"Q.	c #DAD3D7",
"R.	c #CCC7CC",
"S.	c #B7B4B9",
"T.	c #212124",
"U.	c #020204",
"V.	c #676767",
"W.	c #E4DFE9",
"X.	c #DAC0CD",
"Y.	c #C295A3",
"Z.	c #A76F80",
"`.	c #A06879",
" +	c #B4808E",
".+	c #C68E9D",
"++	c #AE8497",
"@+	c #8B8A96",
"#+	c #161617",
"$+	c #0D0D0F",
"%+	c #040405",
"&+	c #C6C4CA",
"*+	c #D1A0AE",
"=+	c #C56A71",
"-+	c #94515A",
";+	c #998291",
">+	c #A897A6",
",+	c #A37D89",
"'+	c #AD595E",
")+	c #9A4247",
"!+	c #918DA0",
"~+	c #545456",
"{+	c #0D0D0E",
"]+	c #838382",
"^+	c #CCB3C3",
"/+	c #D16468",
"(+	c #A3393B",
"_+	c #8E6B7B",
":+	c #DDDDE4",
"<+	c #F2F3F4",
"[+	c #DDDBE1",
"}+	c #A38B97",
"|+	c #7F5E6B",
"1+	c #C3C4D3",
"2+	c #7E7F80",
"3+	c #A1A1A0",
"4+	c #D1777D",
"5+	c #C4484A",
"6+	c #982F33",
"7+	c #9F8596",
"8+	c #F2F2F4",
"9+	c #F7F7F7",
"0+	c #F0EEF2",
"a+	c #E4E2EA",
"b+	c #DFDCE6",
"c+	c #EFEFF2",
"d+	c #7D7E7E",
"e+	c #C66264",
"f+	c #C04244",
"g+	c #A53438",
"h+	c #A58093",
"i+	c #E8E8ED",
"j+	c #CEC3D2",
"k+	c #C39AAA",
"l+	c #CB92A1",
"m+	c #C78C9B",
"n+	c #BC97A3",
"o+	c #5F575D",
"p+	c #725207",
"q+	c #544106",
"r+	c #A2A2A1",
"s+	c #BA7C87",
"t+	c #B73A3C",
"u+	c #B63B3D",
"v+	c #9F5667",
"w+	c #CFC8D9",
"x+	c #CDC2D1",
"y+	c #BE8991",
"z+	c #C4595B",
"A+	c #AB4042",
"B+	c #825865",
"C+	c #48424D",
"D+	c #303031",
"E+	c #DFA709",
"F+	c #E0AC0B",
"G+	c #685825",
"H+	c #B1A4B4",
"I+	c #9F4750",
"J+	c #B3393B",
"K+	c #B34046",
"L+	c #B38298",
"M+	c #C7C2D8",
"N+	c #CBA5B1",
"O+	c #B74F54",
"P+	c #762D2D",
"Q+	c #A38430",
"R+	c #70611A",
"S+	c #4F4715",
"T+	c #E0A60A",
"U+	c #E7AE09",
"V+	c #F5BD0C",
"W+	c #F5BD0B",
"X+	c #EABC0B",
"Y+	c #2C260E",
"Z+	c #82778A",
"`+	c #753F4D",
" @	c #963A3F",
".@	c #A33D41",
"+@	c #A75A63",
"@@	c #A05B63",
"#@	c #7D484E",
"$@	c #8D8287",
"%@	c #D09910",
"&@	c #8A670A",
"*@	c #2C1F06",
"=@	c #403005",
"-@	c #E4B30A",
";@	c #EFB60D",
">@	c #F5BC0B",
",@	c #F1BC0B",
"'@	c #725F08",
")@	c #05060B",
"!@	c #65646F",
"~@	c #AA9DA6",
"{@	c #8F7274",
"]@	c #8C7071",
"^@	c #9A8B91",
"/@	c #C5C4CF",
"(@	c #CAC6BF",
"_@	c #D1980F",
":@	c #E1A709",
"<@	c #D49808",
"[@	c #E3A709",
"}@	c #F4BC0B",
"|@	c #A88108",
"1@	c #EAB10A",
"2@	c #EBBC0C",
"3@	c #705C2B",
"4@	c #F8F8F7",
"5@	c #F6F6F6",
"6@	c #777267",
"7@	c #C79209",
"8@	c #ECB70A",
"9@	c #EEB60A",
"0@	c #F3BA0B",
"a@	c #AD8608",
"b@	c #EDB50A",
"c@	c #F4BD0C",
"d@	c #F3BC0B",
"e@	c #D4B63C",
"f@	c #E4E4E3",
"g@	c #737374",
"h@	c #18130A",
"i@	c #C8910A",
"j@	c #E8AF0A",
"k@	c #B27F06",
"l@	c #DFA50A",
"m@	c #EAB10B",
"n@	c #EEB50B",
"o@	c #F2B90B",
"p@	c #F3BB0B",
"q@	c #D49C0A",
"r@	c #553805",
"s@	c #0B0B0B",
"t@	c #0A0A0A",
"u@	c #120D04",
"v@	c #C79009",
"w@	c #F4BB0B",
"x@	c #D49C09",
"y@	c #664504",
"z@	c #765104",
"A@	c #A87606",
"B@	c #C58F08",
"C@	c #D9A10A",
"D@	c #DCA10A",
"E@	c #AD7408",
"F@	c #442B03",
"G@	c #0F0A02",
"H@	c #AD7506",
"I@	c #D89D09",
"J@	c #DBA009",
"K@	c #AB7706",
"L@	c #795105",
"M@	c #573804",
"N@	c #4E3303",
"O@	c #875C06",
"P@	c #5C3E04",
"                                                                      ",
"                                                                      ",
"                                            . + @ @ @ @ # $ .         ",
"                                          % & # * * * * @ # # =       ",
"                    - ; ; >             & & , ' ) ! * ~ { ] ^ / (     ",
"                  - ; ; ; _ :         < & & [ } | 1 2 3 4 5 6 7 #     ",
"                  ; ; ; ; 8 9 0       < & & & a b c d e f g h i #     ",
"                  j k ; ; l m ; -   n o & & & p q r s t u v w x #     ",
"                  y z A B C D ; - E & & & & & F G H I J K L M & #     ",
"                  N O P Q R S ; T U & & & & & V W X Y Z `  ...# #     ",
"                  +.@.#.$.%.&.; *.& =.-.& & [ ;.>.,.'.).!.~.{.& #     ",
"                  ].^./.(._.:.; <.      & & , [.}.|.1.2.3.4.5.6.(     ",
"                  7.8.9.0.a.b.c.d.        % & 7 e.f.g.@ + h.i.j.      ",
"                k.l.m.n.o.p.q.r.k.-         . 6.s.t.u.@ # v.w.        ",
"              - x.y.z.A.B.C.& D.; ;                                   ",
"              E.F.& G.H.I.& & J.; ; ;                                 ",
"            - K.L.M.N.O.P.Q.R.S.T.> k ;                               ",
"            U.V.W.X.Y.Z.`. +.+++@+#+$+;                               ",
"            %+&+*+=+-+;+>+,+'+)+!+~+{+U.-                             ",
"          U.]+^+/+(+_+:+<+[+}+|+1+2+k U.-                             ",
"          U.3+4+5+6+7+8+9+0+a+b+c+d+; ; ;                             ",
"        U.U.'.e+f+g+h+i+j+k+l+m+n+o+k U.;                             ",
"        p+q+r+s+t+u+v+w+x+y+z+A+B+C+k E.D+                            ",
"        E+F+G+H+I+J+K+L+M+N+O+P+Q+R+; k S+                            ",
"    T+U+V+W+X+Y+Z+`+ @.@+@@@#@$@%@&@*@=@-@                            ",
"    ;@>@W+W+,@'@)@!@~@{@]@^@/@(@_@:@<@[@}@|@                          ",
"    1@V+W+W+V+2@3@i.& 4@5@/ I.6@7@8@9@0@}@}@a@                        ",
"    b@V+c@V+V+d@e@f@& I.I.& g@h@i@d@}@}@}@}@j@                        ",
"  k@l@m@n@o@}@p@q@r@s@t@; ; ; u@v@o@w@n@x@                            ",
"    y@z@A@B@C@D@E@F@- - - - - G@H@I@J@K@                              ",
"              L@M@              N@O@P@                                ",
"                                                                      "};
