/* XPM */
static char *oneeye_xpm[] = {
"19 19 6 1",
" 	c None",
".	c #000000",
"X	c #FFFF00",
"o	c #0033FF",
"0	c #FF3300",
"+      c #FFFFFF",
"      .......      ",
"    ..XXXXXXX..    ",
"   .XXXXXXXXXXX.   ",
"  .XXXXXXXXXXXXX.  ",
" .XXXXX.....XXXXX. ",
" .XXXX.+++++.XXXX. ",
".XXXX.++ooo++.XXXX.",
".XXXX.++ooo++.XXXX.",
".XXXXX.+++++.XXXXX.",
".XXXXXX.....XXXXXX.",
".XXX.XXXXXXXXX.XXX.",
".XX.XXXXXXXXXXX.XX.",
".X.X.XXXXXXXXX.X.X.",
" .XXX.XXXXXXX.XXX. ",
" .XXXX.......XXXX. ",
"  .XXX.00.00.XXX.  ",
"   .XXX.000.XXX.   ",
"    ..XXXXXXX..    ",
"      ........     "};
