/* XPM */
static char * online_xpm[] = {
"35 32 358 2",
"  	c None",
". 	c #888887",
"+ 	c #C6C6C4",
"@ 	c #FEFEFD",
"# 	c #FEFEFC",
"$ 	c #F8F8F6",
"% 	c #B7B7B6",
"& 	c #FDFDFB",
"* 	c #FEFEFE",
"= 	c #DFDFDD",
"- 	c #010103",
"; 	c #020204",
"> 	c #030304",
", 	c #B2B2B0",
"' 	c #FCFCFA",
") 	c #FDFDFD",
"! 	c #FDF8F8",
"~ 	c #EDEDEC",
"{ 	c #101012",
"] 	c #282828",
"^ 	c #91918F",
"/ 	c #FCF8F6",
"( 	c #FDE0E0",
"_ 	c #FDE5E5",
": 	c #CDBEBE",
"< 	c #EDB2B2",
"[ 	c #FC9E9E",
"} 	c #FCCAC8",
"| 	c #FCF6F4",
"1 	c #0F0F10",
"2 	c #272728",
"3 	c #070708",
"4 	c #FCD9D7",
"5 	c #FB7878",
"6 	c #FB7D7D",
"7 	c #312323",
"8 	c #D64949",
"9 	c #F92727",
"0 	c #F95251",
"a 	c #EEB7B5",
"b 	c #E8E5E3",
"c 	c #E5E5E3",
"d 	c #EBEBE9",
"e 	c #030305",
"f 	c #050506",
"g 	c #0D0D0F",
"h 	c #1D1D1E",
"i 	c #010102",
"j 	c #CDCDCB",
"k 	c #C4C4C2",
"l 	c #B3B3B1",
"m 	c #BAB9B7",
"n 	c #D09896",
"o 	c #F64848",
"p 	c #FA4242",
"q 	c #070404",
"r 	c #4F1C1C",
"s 	c #F93131",
"t 	c #EE3E3D",
"u 	c #AD5B5A",
"v 	c #7A6F6E",
"w 	c #6D6D6C",
"x 	c #303031",
"y 	c #5A5858",
"z 	c #040303",
"A 	c #525253",
"B 	c #99999A",
"C 	c #545455",
"D 	c #DDDDDB",
"E 	c #C9C9C7",
"F 	c #4B4B4B",
"G 	c #303030",
"H 	c #3B3434",
"I 	c #803635",
"J 	c #E23B3B",
"K 	c #F84A4A",
"L 	c #140A0A",
"M 	c #693131",
"N 	c #E23B3A",
"O 	c #7F3535",
"P 	c #AFAFAE",
"Q 	c #A8A7A2",
"R 	c #686251",
"S 	c #CDCCC8",
"T 	c #3B3B3D",
"U 	c #838384",
"V 	c #E3E3E1",
"W 	c #AE5C5B",
"X 	c #EE3E3E",
"Y 	c #110707",
"Z 	c #301616",
"` 	c #F64847",
" .	c #D09796",
"..	c #6C675C",
"+.	c #5E4608",
"@.	c #B68F0B",
"#.	c #DBCD8C",
"$.	c #645822",
"%.	c #5B5548",
"&.	c #DDDDDC",
"*.	c #D8D8D6",
"=.	c #EFB8B7",
"-.	c #F95252",
";.	c #8C3030",
">.	c #9B6B6B",
",.	c #FB7877",
"'.	c #795405",
").	c #DCA50A",
"!.	c #EEC816",
"~.	c #F4D82A",
"{.	c #E7C211",
"].	c #6E5515",
"^.	c #DEDEDD",
"/.	c #FDF7F6",
"(.	c #FCCACA",
"_.	c #FCBDBD",
":.	c #FDEAEA",
"<.	c #FDE0DE",
"[.	c #949493",
"}.	c #5E4405",
"|.	c #D5AC13",
"1.	c #EECF1A",
"2.	c #B08B0B",
"3.	c #D9A40F",
"4.	c #6E4F15",
"5.	c #2B2B2D",
"6.	c #141415",
"7.	c #F5F5F3",
"8.	c #919190",
"9.	c #403E39",
"0.	c #B99F61",
"a.	c #C49114",
"b.	c #AC7A16",
"c.	c #CAC2B0",
"d.	c #918D88",
"e.	c #19191A",
"f.	c #111111",
"g.	c #F0F0EF",
"h.	c #F7F7F5",
"i.	c #979796",
"j.	c #0C0C0E",
"k.	c #8E8E8E",
"l.	c #C8C8C7",
"m.	c #C3C3C3",
"n.	c #CBCACA",
"o.	c #F3F3F2",
"p.	c #6D6D6D",
"q.	c #050507",
"r.	c #C3C3C1",
"s.	c #BABAB8",
"t.	c #676768",
"u.	c #EBEBEA",
"v.	c #DDDDDD",
"w.	c #F5F5F4",
"x.	c #BEBEBD",
"y.	c #1E1E1F",
"z.	c #B7B7B7",
"A.	c #F6F6F5",
"B.	c #F2F2F1",
"C.	c #EBEBEB",
"D.	c #E3E3E2",
"E.	c #E0E0DF",
"F.	c #2C2C2D",
"G.	c #101010",
"H.	c #CECED0",
"I.	c #E7E7EE",
"J.	c #D4CBD9",
"K.	c #C5A1B3",
"L.	c #C08D9E",
"M.	c #CBAEBA",
"N.	c #C5B3C4",
"O.	c #B6AABE",
"P.	c #ACACB6",
"Q.	c #09090B",
"R.	c #A8A9AA",
"S.	c #D7CBDA",
"T.	c #CE92A2",
"U.	c #BA676E",
"V.	c #945B65",
"W.	c #896271",
"X.	c #9B5D66",
"Y.	c #BC6267",
"Z.	c #B6585E",
"`.	c #A08AA0",
" +	c #1F1F23",
".+	c #131313",
"++	c #2D2D2E",
"@+	c #B2ACB6",
"#+	c #D28691",
"$+	c #BD4F50",
"%+	c #874A55",
"&+	c #AAA5B5",
"*+	c #D5D8E3",
"=+	c #C3BFCB",
"-+	c #A27A85",
";+	c #8A4148",
">+	c #958497",
",+	c #C4C5C8",
"'+	c #0F0F0F",
")+	c #040406",
"!+	c #868685",
"~+	c #D7A8B3",
"{+	c #CD5B5E",
"]+	c #A73639",
"^+	c #8D626F",
"/+	c #E0E0E8",
"(+	c #F8F8F8",
"_+	c #D3D0D7",
":+	c #B0A6B1",
"<+	c #CCCCD7",
"[+	c #CBCCCB",
"}+	c #828283",
"|+	c #D58184",
"1+	c #C4484A",
"2+	c #A73539",
"3+	c #966A7A",
"4+	c #E2E2EA",
"5+	c #EEEFF2",
"6+	c #D7D1DF",
"7+	c #D4C8D9",
"8+	c #D0C2D4",
"9+	c #D6CEDC",
"0+	c #C2C3C6",
"a+	c #060503",
"b+	c #060504",
"c+	c #858585",
"d+	c #C7797C",
"e+	c #BE4143",
"f+	c #B43A3D",
"g+	c #A26372",
"h+	c #DBD7E2",
"i+	c #C7BED3",
"j+	c #BF7D85",
"k+	c #CC7075",
"l+	c #CC676B",
"m+	c #B0595F",
"n+	c #715862",
"o+	c #B88409",
"p+	c #B48B09",
"q+	c #827D6C",
"r+	c #BBA0AD",
"s+	c #AB4248",
"t+	c #B93D3E",
"u+	c #A83F49",
"v+	c #B38FA6",
"w+	c #D7D5E3",
"x+	c #C2AFBC",
"y+	c #BB6166",
"z+	c #9E3235",
"A+	c #724847",
"B+	c #8D8B7A",
"C+	c #474747",
"D+	c #E5AE0A",
"E+	c #F5BC0B",
"F+	c #A28009",
"G+	c #777167",
"H+	c #9C7180",
"I+	c #993940",
"J+	c #AD3A3C",
"K+	c #B35864",
"L+	c #BB90A4",
"M+	c #C99EAA",
"N+	c #A75156",
"O+	c #793E47",
"P+	c #9D7428",
"Q+	c #BD980B",
"R+	c #040405",
"S+	c #403305",
"T+	c #CAA80A",
"U+	c #E7AE0C",
"V+	c #EDB40A",
"W+	c #F4BC0B",
"X+	c #EDBC0B",
"Y+	c #433707",
"Z+	c #46434F",
"`+	c #5A4050",
" @	c #8C5460",
".@	c #792D32",
"+@	c #7A363B",
"@@	c #7C4A52",
"#@	c #8A6672",
"$@	c #99919E",
"%@	c #C39532",
"&@	c #D19C0A",
"*@	c #765208",
"=@	c #765406",
"-@	c #CD9F09",
";@	c #D1A10A",
">@	c #ECB40C",
",@	c #F3BC0B",
"'@	c #C3A20B",
")@	c #131106",
"!@	c #48484D",
"~@	c #DED9DD",
"{@	c #CFC4C4",
"]@	c #C9BCBC",
"^@	c #D0C9C9",
"/@	c #E1DFE3",
"(@	c #DFE0E2",
"_@	c #C39634",
":@	c #E9B10A",
"<@	c #DEA308",
"[@	c #E5AA0A",
"}@	c #F2B90B",
"|@	c #ECB60B",
"1@	c #E9AF0A",
"2@	c #F4BD0C",
"3@	c #F5BD0C",
"4@	c #AC861E",
"5@	c #F8F8F7",
"6@	c #F5F5F5",
"7@	c #EEEEED",
"8@	c #626263",
"9@	c #996D0B",
"0@	c #EDBB0B",
"a@	c #F3BB0B",
"b@	c #EDB70B",
"c@	c #785804",
"d@	c #F4BD0B",
"e@	c #E2B818",
"f@	c #B8AE99",
"g@	c #B9B9B8",
"h@	c #B6B6B6",
"i@	c #696969",
"j@	c #946708",
"k@	c #F4BB0B",
"l@	c #E6AF0A",
"m@	c #AA8107",
"n@	c #8A6205",
"o@	c #CD9408",
"p@	c #DDA20A",
"q@	c #E4AA09",
"r@	c #EDB40B",
"s@	c #F4BA0C",
"t@	c #DCA10B",
"u@	c #6C4705",
"v@	c #060607",
"w@	c #080809",
"x@	c #906406",
"y@	c #ECB30A",
"z@	c #F3B90B",
"A@	c #ECB20A",
"B@	c #D69C09",
"C@	c #895E05",
"D@	c #AF7D07",
"E@	c #C78F08",
"F@	c #D09609",
"G@	c #AB7307",
"H@	c #503303",
"I@	c #7C4F03",
"J@	c #C88F09",
"K@	c #D29708",
"L@	c #AD7706",
"M@	c #523702",
"N@	c #573904",
"O@	c #523505",
"P@	c #704A06",
"Q@	c #553A04",
"                                                                      ",
"                                                                      ",
"                                            . + @ @ @ @ # $ .         ",
"                                          % & & * * * * * # & =       ",
"                      - - ; >           , ' & & * * ) ! ! & & & ~     ",
"                    - - - { ] >       ^ & & & / ( _ : < [ } | & & &   ",
"                  - - - - 1 2 3       ^ & & & 4 5 6 7 8 9 0 a b c d   ",
"                  e f - - g h - i     j k l m n o p q r s t u v w .   ",
"                  x y z A B C - -   D E F G H I J K L M K N O H G F   ",
"                  P Q R S T U - -   & V . w v W X s Y Z p `  .m l k   ",
"                  ..+.@.#.$.%.- - & &.*.d c b =.-.9 ;.>.6 ,.4 & & &   ",
"                  '.).!.~.{.].- -       ^.& & /.(.[ _.:._ <./ & & [.  ",
"                  }.|.1.2.3.4.5.6.        7.& # ) ! ! ) @ # & & 8.    ",
"                  9.0.a.b.c.d.e.f.i         g.h.# * * * # & g.i.      ",
"                j.k.l.m.n.o.& p.q.-             r.r.r.r.r.s.          ",
"              i t.& u.v.w.& & x.y.- -                                 ",
"              - z.A.B.C.A.g.D.E.F.- - -                               ",
"            - G.H.I.J.K.L.M.N.O.P.Q.e.-                               ",
"            ; R.S.T.U.V.W.X.Y.Z.`. +.+; -                             ",
"          > ++@+#+$+%+&+*+=+-+;+>+,+'+)+-                             ",
"          ; !+~+{+]+^+/+& (+_+:+<+[+- - -                             ",
"        i ; }+|+1+2+3+4+5+6+7+8+9+0+- - - -                           ",
"        a+b+c+d+e+f+g+h+i+j+k+l+m+n+f f )+-                           ",
"        o+p+q+r+s+t+u+v+w+x+y+z+A+B+- - C+                            ",
"        D+E+F+G+H+I+J+K+L+M+N+O+P+Q+R+- S+T+                          ",
"    U+V+W+E+X+Y+Z+`+ @.@+@@@#@$@%@&@*@=@-@;@                          ",
"    >@W+W+E+,@'@)@!@~@{@]@^@/@(@_@:@<@[@}@|@                          ",
"    1@2@3@W+2@2@4@u.& 5@6@' 7@8@9@0@a@W+W+W+b@                        ",
"  c@V+W+W+d@W+3@e@f@g@s.% h@i@- j@W+W+W+k@l@m@                        ",
"  n@o@p@q@r@k@s@t@u@v@w@; - - - x@y@z@A@B@                            ",
"        C@D@E@F@G@H@            I@J@K@L@M@                            ",
"              N@O@                P@Q@                                "};
