/* XPM */
static char * palette_xpm[] = {
"16 16 110 2",
"  	c None",
". 	c #45454F",
"+ 	c #494850",
"@ 	c #C0C1C6",
"# 	c #E8EAE9",
"$ 	c #FEFDFB",
"% 	c #FCFEFD",
"& 	c #6F6E74",
"* 	c #3F414D",
"= 	c #EFEFF1",
"- 	c #FFFFFF",
"; 	c #ECBFFF",
"> 	c #FFFDFF",
", 	c #6C6D72",
"' 	c #FFFFFD",
") 	c #F4F3F1",
"! 	c #D473FF",
"~ 	c #CE5EFE",
"{ 	c #FFFEFF",
"] 	c #FEFFFF",
"^ 	c #545760",
"/ 	c #FDFDFB",
"( 	c #F9F7FA",
"_ 	c #BC1CFF",
": 	c #B912FE",
"< 	c #FEFFFD",
"[ 	c #73777A",
"} 	c #4F4B5A",
"| 	c #FCFCFA",
"1 	c #FDFBFC",
"2 	c #FEFEFF",
"3 	c #FEFEFE",
"4 	c #FFFDFE",
"5 	c #7E7E86",
"6 	c #A2A1A6",
"7 	c #F2F2F0",
"8 	c #FBFDFA",
"9 	c #909195",
"0 	c #ADACB1",
"a 	c #FFFCFD",
"b 	c #7690FE",
"c 	c #F2F3F5",
"d 	c #9F9EA4",
"e 	c #FEFFFB",
"f 	c #373741",
"g 	c #080A17",
"h 	c #DDDDDD",
"i 	c #FBFFFE",
"j 	c #99ABFD",
"k 	c #123EF9",
"l 	c #DBE3FA",
"m 	c #FDFFFE",
"n 	c #BEBCC1",
"o 	c #FCFAFD",
"p 	c #FFFFFB",
"q 	c #474751",
"r 	c #595963",
"s 	c #A7A8AC",
"t 	c #EBF1FF",
"u 	c #7890FC",
"v 	c #FDFCFF",
"w 	c #EFF1EE",
"x 	c #FDFFFC",
"y 	c #A09DA4",
"z 	c #64646C",
"A 	c #514F5A",
"B 	c #EDEDED",
"C 	c #FFFBFA",
"D 	c #FFFEFC",
"E 	c #F6F6F4",
"F 	c #EAFFEE",
"G 	c #FCFDFF",
"H 	c #FEB6B7",
"I 	c #FFFCFB",
"J 	c #FEFEFC",
"K 	c #E2FEE7",
"L 	c #26FA50",
"M 	c #6AFB86",
"N 	c #FCFAFB",
"O 	c #FBF5F9",
"P 	c #FAFCFB",
"Q 	c #FDC6C3",
"R 	c #FA0605",
"S 	c #FB696C",
"T 	c #F9BD77",
"U 	c #FA9426",
"V 	c #0BF934",
"W 	c #F3FDF4",
"X 	c #FCFCFC",
"Y 	c #86898E",
"Z 	c #DBDDDC",
"` 	c #F3F3F5",
" .	c #FDDEDC",
"..	c #FDF9F8",
"+.	c #FB850A",
"@.	c #FBCA92",
"#.	c #FCFFFF",
"$.	c #F9FAFC",
"%.	c #E3E3E3",
"&.	c #A9AAAF",
"*.	c #F8F8FA",
"=.	c #F9FBFA",
"-.	c #F9F9F9",
";.	c #E3E5E4",
">.	c #85848C",
",.	c #BABEC1",
"'.	c #F7F9F6",
").	c #EAE8EB",
"!.	c #F4F4F2",
"~.	c #88898E",
"            . +                 ",
"          @ # $ % &             ",
"        * = - - ; > -           ",
"        , ' ) ! ~ { ' ]         ",
"        ^ / ( _ : { < - - [     ",
"        } | 1 2 ' 3 { - 4 - 5   ",
"  6 2 7 8 ] - 9 0 { a ' b { c   ",
"d e 2 - { 2 { f g h i j k l m n ",
"o < { - p ] m q r s 1 t u v - w ",
"- ] - - x ' y z A B 2 { x { - C ",
"] - ' D { - - E | ] - - - F ] G ",
"3 ] { ] 4 H I ] { ] J { K L M N ",
"  O % P Q R S ] - T U J i V W X ",
"  Y Z ` C  ...' J +.@.#.{ { J $.",
"    %.&.*.4 2 { ] > ' 2 ] =.-.;.",
"      >.,.| '.N 8 - { ] 4 ).!.~."};
