/* XPM */
static char * peng_wink_xpm[] = {
"32 32 244 2",
"  	c None",
". 	c #000000",
"+ 	c #030000",
"@ 	c #020202",
"# 	c #040404",
"$ 	c #040001",
"% 	c #010000",
"& 	c #1B1B1B",
"* 	c #393939",
"= 	c #181820",
"- 	c #080808",
"; 	c #090909",
"> 	c #2B2B2B",
", 	c #666666",
"' 	c #656565",
") 	c #2C2C32",
"! 	c #0A0A0A",
"~ 	c #050505",
"{ 	c #353535",
"] 	c #787878",
"^ 	c #737376",
"/ 	c #3E3E40",
"( 	c #1E1E1E",
"_ 	c #030303",
": 	c #363636",
"< 	c #5A5A5E",
"[ 	c #444444",
"} 	c #272727",
"| 	c #1A1A1A",
"1 	c #212121",
"2 	c #0F0F0F",
"3 	c #010101",
"4 	c #060606",
"5 	c #0B0B0B",
"6 	c #292929",
"7 	c #121212",
"8 	c #171719",
"9 	c #4A4A4A",
"0 	c #4E4E50",
"a 	c #141415",
"b 	c #28282F",
"c 	c #0C0C0C",
"d 	c #0D0D0E",
"e 	c #6A6A6E",
"f 	c #B2B2B2",
"g 	c #B3B3B4",
"h 	c #747478",
"i 	c #0D0D0D",
"j 	c #39393A",
"k 	c #A9A9AD",
"l 	c #D3D3D3",
"m 	c #E5E5E6",
"n 	c #DBDBDC",
"o 	c #75757D",
"p 	c #0B0B0C",
"q 	c #6D6D6F",
"r 	c #EFEFEF",
"s 	c #6A6A6A",
"t 	c #7E7E7E",
"u 	c #E4E4E4",
"v 	c #E1E1E1",
"w 	c #141414",
"x 	c #848484",
"y 	c #6B6B6B",
"z 	c #626262",
"A 	c #414141",
"B 	c #111115",
"C 	c #1B1B1F",
"D 	c #8C8C8E",
"E 	c #6F6F6F",
"F 	c #5B5B5B",
"G 	c #4E4E4E",
"H 	c #EDEDED",
"I 	c #424242",
"J 	c #101011",
"K 	c #242425",
"L 	c #232323",
"M 	c #6B6B70",
"N 	c #6C6C6C",
"O 	c #181818",
"P 	c #373631",
"Q 	c #E2D8B7",
"R 	c #504213",
"S 	c #4E3D02",
"T 	c #423202",
"U 	c #433510",
"V 	c #B8B8B8",
"W 	c #191919",
"X 	c #010100",
"Y 	c #553C01",
"Z 	c #D6A309",
"` 	c #F2C108",
" .	c #E2B907",
"..	c #D2A914",
"+.	c #C19009",
"@.	c #B28F06",
"#.	c #AB9A3B",
"$.	c #0E0B00",
"%.	c #B7B7B7",
"&.	c #B2A78C",
"*.	c #7E5B07",
"=.	c #D9A20B",
"-.	c #E9B10C",
";.	c #F2C40F",
">.	c #EDC80E",
",.	c #E8CA10",
"'.	c #DBB31B",
").	c #D4B91F",
"!.	c #EDCA12",
"~.	c #C0A40E",
"{.	c #605005",
"].	c #594614",
"^.	c #736D63",
"/.	c #BD891E",
"(.	c #D7A00C",
"_.	c #EDB50D",
":.	c #F2BC0F",
"<.	c #F0C310",
"[.	c #EFCB0E",
"}.	c #EACF0F",
"|.	c #E9CC29",
"1.	c #EBCD2E",
"2.	c #E8CC42",
"3.	c #E5CB1A",
"4.	c #E0C608",
"5.	c #D7B709",
"6.	c #E0BA2E",
"7.	c #A48229",
"8.	c #292008",
"9.	c #171001",
"0.	c #8B6006",
"a.	c #C88E0C",
"b.	c #E6AE0D",
"c.	c #F1B90D",
"d.	c #EFBC0C",
"e.	c #F0C410",
"f.	c #F0CF14",
"g.	c #E4CA12",
"h.	c #E8CC35",
"i.	c #EBCC32",
"j.	c #E7CD36",
"k.	c #E3CA15",
"l.	c #E0C809",
"m.	c #E0C808",
"n.	c #E4CB10",
"o.	c #C09A05",
"p.	c #A9860C",
"q.	c #110D00",
"r.	c #6A4B05",
"s.	c #C1880E",
"t.	c #DB9C10",
"u.	c #EBB10D",
"v.	c #F6B90C",
"w.	c #F1C008",
"x.	c #F0C910",
"y.	c #F1D116",
"z.	c #E8CD22",
"A.	c #E8CC49",
"B.	c #E9CC30",
"C.	c #E1C912",
"D.	c #E1C910",
"E.	c #E0C80D",
"F.	c #E0C707",
"G.	c #9A7504",
"H.	c #C79B0D",
"I.	c #171101",
"J.	c #76540C",
"K.	c #BE8809",
"L.	c #DF9F0C",
"M.	c #EDB30D",
"N.	c #F4BE0B",
"O.	c #F3C10C",
"P.	c #F0CD14",
"Q.	c #EACE10",
"R.	c #E9CC3E",
"S.	c #E6CC3C",
"T.	c #E1C90D",
"U.	c #DFC707",
"V.	c #CDB20E",
"W.	c #B7860A",
"X.	c #110C01",
"Y.	c #302103",
"Z.	c #704A05",
"`.	c #D79C0B",
" +	c #F0B60A",
".+	c #F2C415",
"++	c #F2C40E",
"@+	c #F4D112",
"#+	c #E6CB21",
"$+	c #E6CC17",
"%+	c #C6AD0E",
"&+	c #DEA708",
"*+	c #D99D0B",
"=+	c #876006",
"-+	c #3D2A01",
";+	c #845E05",
">+	c #CB9B07",
",+	c #F0BD0D",
"'+	c #F1C916",
")+	c #EED030",
"!+	c #E5CA1D",
"~+	c #D4BC07",
"{+	c #C3A705",
"]+	c #806705",
"^+	c #DDA307",
"/+	c #DEA30B",
"(+	c #D09512",
"_+	c #79570D",
":+	c #5E4304",
"<+	c #895F06",
"[+	c #A47D05",
"}+	c #BD9904",
"|+	c #AB8D08",
"1+	c #C49F05",
"2+	c #AE8202",
"3+	c #A87805",
"4+	c #CD9209",
"5+	c #D6970C",
"6+	c #D6970B",
"7+	c #CF9108",
"8+	c #BD8C2D",
"9+	c #916A29",
"0+	c #9E6B08",
"a+	c #C89609",
"b+	c #DCA909",
"c+	c #D89E0A",
"d+	c #D89809",
"e+	c #D7970C",
"f+	c #D08F0E",
"g+	c #C7890C",
"h+	c #A27316",
"i+	c #8C6E35",
"j+	c #9B6A08",
"k+	c #B97F0A",
"l+	c #BA8008",
"m+	c #BB7E09",
"n+	c #B47609",
"o+	c #AF7408",
"p+	c #A5741F",
"q+	c #795212",
"r+	c #7C5208",
"s+	c #7F5616",
"t+	c #8A6626",
"u+	c #59492A",
"                      . . . . . . . .                           ",
"                  . . . . . . . . . . . . +                     ",
"              . . . . . . . . . . . . @ # $ % .                 ",
"            . . . . . . . . . . . . # & * = - . .               ",
"          . . . . . . . . . . . . . ; > , ' ) ! . .             ",
"          . . . . . . . . . . . . . ~ { ] ^ / ( _ . .           ",
"        . . . . . . . . . . . . . . ; : < [ } | ~ . .           ",
"        . . . . . . . . . . . . . . - ( 1 2 # @ . . . .         ",
"        . . . . . . . . . . . . . . _ # @ . . . . . . .         ",
"      . . . . . . . . . . . . . . . . . . . . . . . . .         ",
"      . . . 3 @ - ! . . . . . . . 3 - . . ; . . . . . . .       ",
"      . . 3 ! 4 5 6 7 . . . . . . . . . . . . . . . . . .       ",
"      . . @ 8 9 0 a b c . . # . . . . . . . . . . . . . .       ",
"      . . d e f g h 1 i . . . . . . . . . . . . . . . . .       ",
"      . . j k l m n o 3 . . p . . . . . . . . . . . . . .       ",
"      . . q r s t u v w . ~ . . . . . . . . . . . . . . . .     ",
"        . x s c y z r A B C . . . . . . . . . . . . . . .       ",
"        . D E . F G H I J K L . . . . . . . . . . . . . .       ",
"        . M N . O P Q R S T U . . . . . . . . . . . . . .       ",
"        . | V W X Y Z `  ...+.@.#.$.. . . . . . . . . .         ",
"        . c %.&.*.=.-.;.>.,.'.).!.~.{.].. . . . . . . .         ",
"        . . ^./.(._.:.<.[.}.|.1.2.3.4.5.6.7.8.. . . .           ",
"        . 9.0.a.b.c.d.e.f.g.h.i.j.k.l.m.n.o.p.q.. . .           ",
"          r.s.t.u.v.w.x.y.z.A.B.C.D.E.F.o.G.H.I.. .             ",
"          J.K.L.M.N.O.P.Q.R.S.T.U.E.V.G.G.o.W.X.                ",
"          Y.Z.`. +.+++@+#+$+D.m.%+o.G.o.&+*+=+                  ",
"            -+;+>+,+'+)+!+~+{+]+G.G.^+/+(+_+                    ",
"              :+<+[+}+|+1+2+3+4+5+6+7+8+                        ",
"                9+0+a+b+c+d+e+f+g+h+                            ",
"                  i+j+k+l+m+n+o+p+                              ",
"                      q+r+s+t+u+                                ",
"                                                                "};
