/* XPM */
static char * peng_frown_xpm[] = {
"32 32 277 2",
"  	c None",
". 	c #000000",
"+ 	c #030000",
"@ 	c #020202",
"# 	c #040404",
"$ 	c #040001",
"% 	c #010000",
"& 	c #1B1B1B",
"* 	c #393939",
"= 	c #181820",
"- 	c #080808",
"; 	c #090909",
"> 	c #2B2B2B",
", 	c #666666",
"' 	c #656565",
") 	c #2C2C32",
"! 	c #0A0A0A",
"~ 	c #050505",
"{ 	c #353535",
"] 	c #787878",
"^ 	c #737376",
"/ 	c #3E3E40",
"( 	c #1E1E1E",
"_ 	c #030303",
": 	c #363636",
"< 	c #5A5A5E",
"[ 	c #444444",
"} 	c #272727",
"| 	c #1A1A1A",
"1 	c #212121",
"2 	c #0F0F0F",
"3 	c #010101",
"4 	c #0B0B0B",
"5 	c #0A0A09",
"6 	c #060606",
"7 	c #292929",
"8 	c #121212",
"9 	c #141414",
"0 	c #11110D",
"a 	c #454545",
"b 	c #171719",
"c 	c #4A4A4A",
"d 	c #4E4E50",
"e 	c #141415",
"f 	c #28282F",
"g 	c #0C0C0C",
"h 	c #848486",
"i 	c #939392",
"j 	c #9B9B9A",
"k 	c #919191",
"l 	c #171717",
"m 	c #262626",
"n 	c #0D0D0E",
"o 	c #6A6A6E",
"p 	c #B2B2B2",
"q 	c #B3B3B4",
"r 	c #747478",
"s 	c #0D0D0D",
"t 	c #212129",
"u 	c #8F8F8F",
"v 	c #ADADAD",
"w 	c #B8B8B8",
"x 	c #C5C5C4",
"y 	c #C5C5C5",
"z 	c #757575",
"A 	c #39393A",
"B 	c #A9A9AD",
"C 	c #D3D3D3",
"D 	c #E5E5E6",
"E 	c #DBDBDC",
"F 	c #75757D",
"G 	c #0B0B0C",
"H 	c #868688",
"I 	c #DCDCDC",
"J 	c #EBEBEB",
"K 	c #E3E3E3",
"L 	c #E6E6E6",
"M 	c #D7D7D7",
"N 	c #A6A6A6",
"O 	c #6D6D6F",
"P 	c #EFEFEF",
"Q 	c #6A6A6A",
"R 	c #7E7E7E",
"S 	c #E4E4E4",
"T 	c #E1E1E1",
"U 	c #181818",
"V 	c #D2D2D2",
"W 	c #F7F7F7",
"X 	c #A4A4A4",
"Y 	c #565656",
"Z 	c #727272",
"` 	c #CECECE",
" .	c #F1F1F1",
"..	c #848484",
"+.	c #6B6B6B",
"@.	c #626262",
"#.	c #414141",
"$.	c #111115",
"%.	c #1B1B1F",
"&.	c #171718",
"*.	c #D0D0D6",
"=.	c #E2E2E2",
"-.	c #646464",
";.	c #ECECEC",
">.	c #191919",
",.	c #8C8C8E",
"'.	c #6F6F6F",
").	c #5B5B5B",
"!.	c #4E4E4E",
"~.	c #EDEDED",
"{.	c #424242",
"].	c #101011",
"^.	c #242425",
"/.	c #232323",
"(.	c #939393",
"_.	c #DADADA",
":.	c #E9E9E9",
"<.	c #3B3B3B",
"[.	c #6B6B70",
"}.	c #6C6C6C",
"|.	c #373631",
"1.	c #E2D8B7",
"2.	c #795212",
"3.	c #7C5208",
"4.	c #7F5616",
"5.	c #8A6626",
"6.	c #59492A",
"7.	c #8A8A8A",
"8.	c #C9C9C9",
"9.	c #010100",
"0.	c #8C6E35",
"a.	c #9B6A08",
"b.	c #B97F0A",
"c.	c #BA8008",
"d.	c #BB7E09",
"e.	c #B47609",
"f.	c #AF7408",
"g.	c #A5741F",
"h.	c #0E0B00",
"i.	c #B7B7B7",
"j.	c #B2A78C",
"k.	c #916A29",
"l.	c #9E6B08",
"m.	c #C89609",
"n.	c #DCA909",
"o.	c #D89E0A",
"p.	c #D89809",
"q.	c #D7970C",
"r.	c #D08F0E",
"s.	c #C7890C",
"t.	c #A27316",
"u.	c #605005",
"v.	c #594614",
"w.	c #F8F8F8",
"x.	c #736D63",
"y.	c #5E4304",
"z.	c #895F06",
"A.	c #806705",
"B.	c #CD9209",
"C.	c #D6970C",
"D.	c #D6970B",
"E.	c #CF9108",
"F.	c #BD8C2D",
"G.	c #E0BA2E",
"H.	c #A48229",
"I.	c #292008",
"J.	c #3D2A01",
"K.	c #F0BD0D",
"L.	c #F1C916",
"M.	c #EED030",
"N.	c #E5CA1D",
"O.	c #D4BC07",
"P.	c #C3A705",
"Q.	c #9A7504",
"R.	c #DDA307",
"S.	c #DEA30B",
"T.	c #D09512",
"U.	c #79570D",
"V.	c #A9860C",
"W.	c #110D00",
"X.	c #302103",
"Y.	c #F0B60A",
"Z.	c #F2C415",
"`.	c #F2C40E",
" +	c #F4D112",
".+	c #E6CB21",
"++	c #E6CC17",
"@+	c #E1C910",
"#+	c #E0C808",
"$+	c #C6AD0E",
"%+	c #B59405",
"&+	c #D9A007",
"*+	c #DEA708",
"=+	c #D99D0B",
"-+	c #876006",
";+	c #171101",
">+	c #76540C",
",+	c #DF9F0C",
"'+	c #EDB30D",
")+	c #F4BE0B",
"!+	c #F3C10C",
"~+	c #F0CD14",
"{+	c #EACE10",
"]+	c #E9CC3E",
"^+	c #E6CC3C",
"/+	c #E1C90D",
"(+	c #DFC707",
"_+	c #E0C80D",
":+	c #CDB20E",
"<+	c #D9A006",
"[+	c #B7860A",
"}+	c #110C01",
"|+	c #6A4B05",
"1+	c #C1880E",
"2+	c #DB9C10",
"3+	c #EBB10D",
"4+	c #F6B90C",
"5+	c #F1C008",
"6+	c #F0C910",
"7+	c #F1D116",
"8+	c #E8CD22",
"9+	c #E8CC49",
"0+	c #E9CC30",
"a+	c #E1C912",
"b+	c #E0C707",
"c+	c #D3AC10",
"d+	c #C79B0D",
"e+	c #171001",
"f+	c #8B6006",
"g+	c #C88E0C",
"h+	c #E6AE0D",
"i+	c #F1B90D",
"j+	c #EFBC0C",
"k+	c #F0C410",
"l+	c #F0CF14",
"m+	c #E4CA12",
"n+	c #E8CC35",
"o+	c #EBCC32",
"p+	c #E7CD36",
"q+	c #E3CA15",
"r+	c #E0C809",
"s+	c #E4CB10",
"t+	c #E9C227",
"u+	c #BD891E",
"v+	c #D7A00C",
"w+	c #EDB50D",
"x+	c #F2BC0F",
"y+	c #F0C310",
"z+	c #EFCB0E",
"A+	c #EACF0F",
"B+	c #E9CC29",
"C+	c #EBCD2E",
"D+	c #E8CC42",
"E+	c #E5CB1A",
"F+	c #E0C608",
"G+	c #D7B709",
"H+	c #7E5B07",
"I+	c #D9A20B",
"J+	c #E9B10C",
"K+	c #F2C40F",
"L+	c #EDC80E",
"M+	c #E8CA10",
"N+	c #DBB31B",
"O+	c #D4B91F",
"P+	c #EDCA12",
"Q+	c #C0A40E",
"R+	c #553C01",
"S+	c #D6A309",
"T+	c #F2C108",
"U+	c #E2B907",
"V+	c #D2A914",
"W+	c #C19009",
"X+	c #B28F06",
"Y+	c #504213",
"Z+	c #4E3D02",
"`+	c #423202",
" @	c #433510",
"                      . . . . . . . .                           ",
"                  . . . . . . . . . . . . +                     ",
"              . . . . . . . . . . . . @ # $ % .                 ",
"            . . . . . . . . . . . . # & * = - . .               ",
"          . . . . . . . . . . . . . ; > , ' ) ! . .             ",
"          . . . . . . . . . . . . . ~ { ] ^ / ( _ . .           ",
"        . . . . . . . . . . . . . . ; : < [ } | ~ . .           ",
"        . . . . . . . . . . . . . . - ( 1 2 # @ . . . .         ",
"        . . . . . . . . . . . . . . _ # @ . . . . . . .         ",
"      . . . . . . . . . . . . . . . . . . . . . . . . .         ",
"      . . . 3 @ - ! . . . . . . . 3 - 4 5 ; . . . . . . .       ",
"      . . 3 ! 6 4 7 8 . . . . _ 3 . 9 ! 0 a 8 . . . . . .       ",
"      . . @ b c d e f g . . # . 7 h i j k l m 6 . . . . .       ",
"      . . n o p q r 1 s . . . t u v w x y z 8 # . . . . .       ",
"      . . A B C D E F 3 . . G H I J K L M N m . . . . . .       ",
"      . . O P Q R S T 9 . ~ U V W X Y Z `  .... . . . . . .     ",
"        . ..Q g +.@.P #.$.%.&.*.=.U ; -.c ;.` >.. . . . .       ",
"        . ,.'.. ).!.~.{.].^./.` (.@ . g ! _.:.<.. . . . .       ",
"        . [.}.. U |.1.2.3.4.5.6.7.. . . . 8.:.<.. . . . .       ",
"        . | w >.9.0.a.b.c.d.e.f.g.h.. . . I :.<.. . . .         ",
"        . g i.j.k.l.m.n.o.p.q.r.s.t.u.v.w.w.R . . . . .         ",
"        . . x.y.z.A.A.A.A.A.A.B.C.D.E.F.G.H.I.. . . .           ",
"        .   J.A.A.K.L.M.N.O.P.A.Q.A.R.S.T.U.V.W.. . .           ",
"          X.A.A.Y.Z.`. +.+++@+#+$+%+A.&+*+=+-+;+. .             ",
"          >+A.,+'+)+!+~+{+]+^+/+(+_+:+A.A.<+[+}+                ",
"          |+1+2+3+4+5+6+7+8+9+0+a+@+_+b+A.c+d+                  ",
"          e+f+g+h+i+j+k+l+m+n+o+p+q+r+#+s+t+                    ",
"              u+v+w+x+y+z+A+B+C+D+E+F+G+                        ",
"                H+I+J+K+L+M+N+O+P+Q+                            ",
"                  R+S+T+U+V+W+X+                                ",
"                      Y+Z+`+ @                                  ",
"                                                                "};
