/* XPM */
static char * permdel_xpm[] = {
"52 45 406 2",
"  	c None",
". 	c #FF1717",
"+ 	c #FF1616",
"@ 	c #FF1515",
"# 	c #FF1414",
"$ 	c #FF1313",
"% 	c #FA1313",
"& 	c #FE1313",
"* 	c #FF1212",
"= 	c #F61111",
"- 	c #F21111",
"; 	c #F51212",
"> 	c #FB1212",
", 	c #E21010",
"' 	c #D40F0F",
") 	c #670809",
"! 	c #250405",
"~ 	c #180305",
"{ 	c #440607",
"] 	c #8E0B0B",
"^ 	c #C80E0E",
"/ 	c #D90F0F",
"( 	c #DE0F0F",
"_ 	c #E61010",
": 	c #F91111",
"< 	c #EB1111",
"[ 	c #F41212",
"} 	c #F71111",
"| 	c #C00D0D",
"1 	c #1B0204",
"2 	c #010103",
"3 	c #040406",
"4 	c #1B1B1C",
"5 	c #240607",
"6 	c #8A0909",
"7 	c #EA1010",
"8 	c #EF1212",
"9 	c #C41D1A",
"0 	c #C51E1B",
"a 	c #BD1C1A",
"b 	c #B11B18",
"c 	c #AC1917",
"d 	c #B91C19",
"e 	c #BB1C19",
"f 	c #8C1514",
"g 	c #D30F0F",
"h 	c #4B0506",
"i 	c #080809",
"j 	c #4A4A4A",
"k 	c #171717",
"l 	c #1C0204",
"m 	c #9B0B0B",
"n 	c #ED1212",
"o 	c #DA1010",
"p 	c #C31D1A",
"q 	c #CA1E1C",
"r 	c #C21D1B",
"s 	c #AD1A18",
"t 	c #A61917",
"u 	c #B91B1A",
"v 	c #BC1C1A",
"w 	c #BE1C1A",
"x 	c #8A1413",
"y 	c #120304",
"z 	c #030304",
"A 	c #070608",
"B 	c #000002",
"C 	c #C20D0D",
"D 	c #F71212",
"E 	c #F31212",
"F 	c #EA1111",
"G 	c #140305",
"H 	c #070708",
"I 	c #0D0D0E",
"J 	c #020203",
"K 	c #141315",
"L 	c #141415",
"M 	c #060606",
"N 	c #390405",
"O 	c #F21212",
"P 	c #DF1010",
"Q 	c #CC0F0F",
"R 	c #241516",
"S 	c #AFAFAF",
"T 	c #5A5858",
"U 	c #484849",
"V 	c #B8B8B7",
"W 	c #919191",
"X 	c #0C0C0D",
"Y 	c #260304",
"Z 	c #E51111",
"` 	c #D61010",
" .	c #C90F0F",
"..	c #6E5E5F",
"+.	c #656565",
"@.	c #0F0F10",
"#.	c #B1B0B0",
"$.	c #383839",
"%.	c #9B9B9A",
"&.	c #343435",
"*.	c #280404",
"=.	c #E21111",
"-.	c #DB1010",
";.	c #B70D0D",
">.	c #BF0E0E",
",.	c #D81010",
"'.	c #D10F0F",
").	c #645556",
"!.	c #353231",
"~.	c #8D7330",
"{.	c #B28D08",
"].	c #B8A04F",
"^.	c #15130E",
"/.	c #6F6F70",
"(.	c #404041",
"_.	c #2A0405",
":.	c #CF0F0F",
"<.	c #DE1010",
"[.	c #9A0B0B",
"}.	c #780909",
"|.	c #A60C0C",
"1.	c #C80F0F",
"2.	c #B00D0D",
"3.	c #271411",
"4.	c #D5AA4A",
"5.	c #FFC70B",
"6.	c #FFDB0F",
"7.	c #FEDE2D",
"8.	c #EBC70F",
"9.	c #D7BC4C",
"0.	c #29220F",
"a.	c #DD1010",
"b.	c #900A0A",
"c.	c #D00F0F",
"d.	c #D31010",
"e.	c #522F06",
"f.	c #ECAB09",
"g.	c #FFD40C",
"h.	c #FFE61F",
"i.	c #FFE320",
"j.	c #E5C10D",
"k.	c #CE9C09",
"l.	c #3E2F05",
"m.	c #FC1313",
"n.	c #E41111",
"o.	c #C40E0E",
"p.	c #920B0B",
"q.	c #EC1111",
"r.	c #DC0F0F",
"s.	c #1C0A07",
"t.	c #AD872C",
"u.	c #F7C711",
"v.	c #F6CC0F",
"w.	c #CD9A09",
"x.	c #C7900F",
"y.	c #C4A357",
"z.	c #E71111",
"A.	c #E31111",
"B.	c #CA0F0F",
"C.	c #AA0C0C",
"D.	c #8B0A0A",
"E.	c #C60F0F",
"F.	c #D51010",
"G.	c #AB0D0D",
"H.	c #1B0E0F",
"I.	c #C7C3BB",
"J.	c #C69E48",
"K.	c #C68909",
"L.	c #BE8D2F",
"M.	c #BEB49E",
"N.	c #E01111",
"O.	c #B10D0D",
"P.	c #910B0B",
"Q.	c #700E0F",
"R.	c #757575",
"S.	c #FFFFFF",
"T.	c #DEDDDC",
"U.	c #D1D0CF",
"V.	c #D4D4D3",
"W.	c #D41010",
"X.	c #C00E0E",
"Y.	c #870A0A",
"Z.	c #FFFEFD",
"`.	c #060102",
" +	c #E91111",
".+	c #D91010",
"++	c #0A0205",
"@+	c #6F6F6F",
"#+	c #FD1313",
"$+	c #0A0102",
"%+	c #F81212",
"&+	c #350507",
"*+	c #020205",
"=+	c #A5A5A5",
"-+	c #EE1212",
";+	c #3B3B3C",
">+	c #0E0E0F",
",+	c #1E0304",
"'+	c #FB1313",
")+	c #111112",
"!+	c #212122",
"~+	c #E4E4E3",
"{+	c #B8B8B8",
"]+	c #0B0B0D",
"^+	c #151415",
"/+	c #030305",
"(+	c #7C0A0B",
"_+	c #171718",
":+	c #9B9B9B",
"<+	c #F9F9F7",
"[+	c #E8E8E7",
"}+	c #565656",
"|+	c #242423",
"1+	c #330405",
"2+	c #331516",
"3+	c #19191B",
"4+	c #FCFCFA",
"5+	c #FBFBF9",
"6+	c #A2A2A1",
"7+	c #050506",
"8+	c #171617",
"9+	c #010102",
"0+	c #0F0204",
"a+	c #121213",
"b+	c #6E6E6F",
"c+	c #FBFBFA",
"d+	c #D0D0CF",
"e+	c #131314",
"f+	c #1C0306",
"g+	c #29292A",
"h+	c #FAFAF9",
"i+	c #D6D6D4",
"j+	c #101011",
"k+	c #480506",
"l+	c #F9F9F8",
"m+	c #DCDCDA",
"n+	c #060608",
"o+	c #450506",
"p+	c #F4F4F3",
"q+	c #CBCBCA",
"r+	c #09090A",
"s+	c #0A0A0B",
"t+	c #0D0D0F",
"u+	c #EECE68",
"v+	c #DAB51E",
"w+	c #0F0B03",
"x+	c #020204",
"y+	c #262113",
"z+	c #C50E0E",
"A+	c #910A0A",
"B+	c #FF7D14",
"C+	c #FFFFFD",
"D+	c #E4BA43",
"E+	c #D6A209",
"F+	c #120D03",
"G+	c #030203",
"H+	c #6B5306",
"I+	c #85530B",
"J+	c #CE0F0F",
"K+	c #FF8010",
"L+	c #080709",
"M+	c #8D8D8D",
"N+	c #FAFAF8",
"O+	c #DADAD8",
"P+	c #D5A939",
"Q+	c #DDA508",
"R+	c #976906",
"S+	c #6D4B05",
"T+	c #8C6305",
"U+	c #B88B07",
"V+	c #AF7609",
"W+	c #AF0C0C",
"X+	c #FEC90C",
"Y+	c #1E1704",
"Z+	c #C9C9C8",
"`+	c #DBDBDB",
" @	c #BF9532",
".@	c #E8AF09",
"+@	c #DAA008",
"@@	c #CD9507",
"#@	c #D09D08",
"$@	c #D4A309",
"%@	c #CC9D0A",
"&@	c #AD5B0A",
"*@	c #FFD60C",
"=@	c #FFCE0C",
"-@	c #AA8709",
";@	c #373635",
">@	c #DCDCDB",
",@	c #F5F5F3",
"'@	c #F4F4F2",
")@	c #F3F3F2",
"!@	c #F2F2F0",
"~@	c #878786",
"{@	c #A07107",
"]@	c #E6AE09",
"^@	c #EBB40A",
"/@	c #E5B00A",
"(@	c #E3AF0A",
"_@	c #DFAC0A",
":@	c #D9A809",
"<@	c #D3A20A",
"[@	c #DC900E",
"}@	c #FF2617",
"|@	c #F11212",
"1@	c #FFCB0B",
"2@	c #FFC60B",
"3@	c #FABF0B",
"4@	c #E1B30A",
"5@	c #BFAB76",
"6@	c #E1E1E0",
"7@	c #E0E0DE",
"8@	c #555455",
"9@	c #986C06",
"0@	c #D8A509",
"a@	c #E8B20B",
"b@	c #E4B00A",
"c@	c #E0AD0A",
"d@	c #F6BC0C",
"e@	c #FDB20D",
"f@	c #FF2213",
"g@	c #BC0E0E",
"h@	c #F7BE0C",
"i@	c #EBB50A",
"j@	c #DDAA0A",
"k@	c #D09F09",
"l@	c #90690A",
"m@	c #585550",
"n@	c #898989",
"o@	c #838383",
"p@	c #505050",
"q@	c #080502",
"r@	c #875E05",
"s@	c #C89909",
"t@	c #DCA909",
"u@	c #E6B10A",
"v@	c #E6B10B",
"w@	c #E4AF0B",
"x@	c #E1A80A",
"y@	c #E0780F",
"z@	c #F02810",
"A@	c #BA0E0E",
"B@	c #A00C0C",
"C@	c #B20D0D",
"D@	c #CE9608",
"E@	c #CF9B09",
"F@	c #CC9B09",
"G@	c #C69808",
"H@	c #BE9209",
"I@	c #B38607",
"J@	c #7E5604",
"K@	c #150E02",
"L@	c #000001",
"M@	c #0B0702",
"N@	c #775104",
"O@	c #BE8E09",
"P@	c #DFAA0A",
"Q@	c #E3AD0B",
"R@	c #D59D09",
"S@	c #C26E09",
"T@	c #CC0F0E",
"U@	c #B50D0D",
"V@	c #9D0B0B",
"W@	c #BF120D",
"X@	c #903707",
"Y@	c #874A05",
"Z@	c #875A06",
"`@	c #8B6205",
" #	c #896306",
".#	c #755103",
"+#	c #4B2E02",
"@#	c #290803",
"##	c #300805",
"$#	c #593A03",
"%#	c #A37106",
"&#	c #BF8A07",
"*#	c #B58007",
"=#	c #A64708",
"-#	c #AD0C0C",
";#	c #A50C0C",
">#	c #512803",
",#	c #4A2403",
"'#	c #651807",
")#	c #673804",
"!#	c #774505",
"~#	c #9C2D0A",
"{#	c #C60F0E",
"]#	c #B90D0D",
"^#	c #970B0B",
"/#	c #C90E0E",
"(#	c #C70E0E",
"_#	c #CD0E0E",
":#	c #BA0D0D",
"<#	c #980B0B",
"[#	c #D70F0F",
"}#	c #DA0F0F",
"|#	c #CA0E0E",
"1#	c #E11010",
"2#	c #A30C0C",
"3#	c #8C0A0A",
"4#	c #B60D0D",
"5#	c #CE0E0E",
"6#	c #D10E0E",
"7#	c #A20C0C",
"8#	c #7D0909",
"9#	c #E81111",
"                                                                                                        ",
"                                                                                                        ",
"                                                                                                        ",
"                                  . . + @ @ @ @ @                                                       ",
"                        . . + @ + . + @ # @ # # $ % & #                                                 ",
"                    . . . . @ # # + # $ $ # $ * = - * $ % ;                                             ",
"                  . . . @ # > , '     ) ! ~ { ]   ^ / ( _ : < [                                         ",
"                . . . # } |         1 2 2 2 3 4 5       6 ^ 7 % 8                   9 0 a b c d d e f   ",
"              . . . $ g           h 2 2 2 2 i j k l         m / n o n               p q r s t u v w x   ",
"            + . . #               y 2 2 2 2 z A B B           C } D E F                                 ",
"            + + $                 G H I 2 J K L M B N       E $ # $ O P Q                               ",
"        . . . $                   R S T J U V W X B Y     + . + @ $ Z P `  .                            ",
"      + . . #                     ..+.V @.#.$.%.&.B *.  =.. . + # -.;.>.,.'.                            ",
"      + @ #                       ).!.~.{.].^./.(.B _.:.$ . + # <.[.  }.|.1.2.                          ",
"    + + # (                       3.4.5.6.7.8.9.0.B a.D # @ $ o [.      b.c.d.>.                        ",
"    @ # $                         e.f.g.h.i.j.k.l.<.8 m.; n.o.p.        2.` q.d.                        ",
"    # # r.                        s.t.u.v.w.x.y.<.z.q.A.B.C.D.            E.<.F.G.                      ",
"  + @ #                           H.I.J.K.L.M.P N.n.a. .O.P.              1.'.n.>.                      ",
"  @ + #                         Q.R.S.T.U.V.=.P P P W.X.|.Y.                E.A.:.                      ",
"  $ $ E                         I S.S.S.Z.n =.P P a.d.X.`.                  c. +.+                      ",
"  % }  .                      ++@+S.S.S.#+n =.P P a.d.B B $+                8 %+<.                      ",
"  % E                       &+*+=+S.S.$ m.-+A.P P a.;+>+J B ,+              % #+P                       ",
"  % '+                      )+!+S.S.# $ ; q.A.P P ~+{+]+^+/+B               % #+P                       ",
"  % $                     (+_+:+S.# # #+8 Z N.P P <+[+}+|+L B 1+            % #+P                       ",
"  % $                     2+3+S.# $ & ; q.A.P 4+4+5+<+6+7+8+9+0+            % #+P                       ",
"  % $                     a+b+@ # $ ; n Z N.P 5+c+4+5+d+2 e+9+B             % #+P                       ",
"  % * X.                f+g+@ # $ m.8 Z N.5+5+h+4+c+4+i+/+j+B B k+          % #+P                       ",
"  % # Z                 *++ @ # & [ q.A.4+h+l+5+4+5+4+m+n+@.B B o+          % #+<.                      ",
"  % # q.                # @ @ # & 8 Z p+5+h+c+c+5+4+5+q+X r+s+t+            $ $ o                       ",
"  % #+P               . + @ # $ m.-+c+p+h+4+h+4+4+4+u+v+w+B x+y+          + @ # z+                      ",
"  ; n ,.A+        B+. . . + # & [ q.C+<+4+5+5+4+4+p+D+E+F+B G+H+I+        @ + #                         ",
"    J+P ^       K+. . . + @ # & L+M+N+4+4+5+4+5+4+O+P+Q+R+S+T+U+V+        # # O                         ",
"    1..+( W+    . + + + @ @ # X+Y+/+Z+4+5+h+N+4+4+`+ @.@+@@@#@$@%@&@    . + #  .                        ",
"      E.P ' W.# . + @ # # $ *@=@-@;@>@,@,@'@)@'@!@~@{@]@^@/@(@_@:@<@[@}@. . $                           ",
"      1..+|@m.@ + + @ $ m.1@2@3@4@5@6@7@7@7@7@d+8@2 9@0@(@a@b@c@b@d@e@f@+ #                             ",
"        g@E.A.$ # # # ; h@i@(@j@k@l@m@~@n@o@p@)+B q@r@s@t@u@v@w@x@y@z@% z.A@                            ",
"          B@C@ .,.P <.D@E@F@G@H@I@J@K@L@L@L@L@L@L@M@N@O@P@Q@R@S@  T@B.U@b.                              ",
"            V@C@o.W@  X@Y@Z@`@ #.#+#@#            ##$#%#&#*#=#  U@-#;#b.                                ",
"              V@C@X.|         >#,#                  '#)#!#~#{#]#-#;#^#                                  ",
"                V@U@o./#(#                                _#/#:#G.<#                                    ",
"                  B@A@[#}#}#|#                      $ * } 1#X.2#3#                                      ",
"                    B@4#>.z+[#5#6#O $ # # # @ # # @ + + @ P 7#                                          ",
"                          8#2.Q 9#@ # # # # @ @ # @ + @ F.                                              ",
"                                [.J+A.=.P P P P <.-.z+                                                  ",
"                                                                                                        "};
