/* XPM */
static char * permadd_xpm[] = {
"52 45 422 2",
"  	c None",
". 	c #FF1717",
"+ 	c #FF1616",
"@ 	c #FF1515",
"# 	c #B31A19",
"$ 	c #C11D1B",
"% 	c #FF1414",
"& 	c #FF1313",
"* 	c #FA1313",
"= 	c #FE1313",
"- 	c #B51B19",
"; 	c #C91E1C",
"> 	c #FF1212",
", 	c #F61111",
"' 	c #F21111",
") 	c #F51212",
"! 	c #A21817",
"~ 	c #B21A19",
"{ 	c #FB1212",
"] 	c #E21010",
"^ 	c #D40F0F",
"/ 	c #670809",
"( 	c #250405",
"_ 	c #180305",
": 	c #440607",
"< 	c #8E0B0B",
"[ 	c #C80E0E",
"} 	c #D90F0F",
"| 	c #DE0F0F",
"1 	c #E61010",
"2 	c #F91111",
"3 	c #EB1111",
"4 	c #F41212",
"5 	c #B01B18",
"6 	c #AC1918",
"7 	c #F71111",
"8 	c #C00D0D",
"9 	c #1B0204",
"0 	c #010103",
"a 	c #040406",
"b 	c #1B1B1C",
"c 	c #240607",
"d 	c #8A0909",
"e 	c #EA1010",
"f 	c #EF1212",
"g 	c #C41D1A",
"h 	c #C51E1B",
"i 	c #BE1C1A",
"j 	c #AB1917",
"k 	c #841412",
"l 	c #821412",
"m 	c #AE1A17",
"n 	c #8C1514",
"o 	c #D30F0F",
"p 	c #4B0506",
"q 	c #080809",
"r 	c #4A4A4A",
"s 	c #171717",
"t 	c #1C0204",
"u 	c #9B0B0B",
"v 	c #ED1212",
"w 	c #DA1010",
"x 	c #C31D1A",
"y 	c #CA1E1C",
"z 	c #C31E1B",
"A 	c #B21B18",
"B 	c #A11817",
"C 	c #931615",
"D 	c #9C1715",
"E 	c #B81C19",
"F 	c #8A1413",
"G 	c #120304",
"H 	c #030304",
"I 	c #070608",
"J 	c #000002",
"K 	c #C20D0D",
"L 	c #F71212",
"M 	c #F31212",
"N 	c #EA1111",
"O 	c #70100F",
"P 	c #851413",
"Q 	c #140305",
"R 	c #070708",
"S 	c #0D0D0E",
"T 	c #020203",
"U 	c #141315",
"V 	c #141415",
"W 	c #060606",
"X 	c #390405",
"Y 	c #F21212",
"Z 	c #DF1010",
"` 	c #CC0F0F",
" .	c #620E0E",
"..	c #871413",
"+.	c #241516",
"@.	c #AFAFAF",
"#.	c #5A5858",
"$.	c #484849",
"%.	c #B8B8B7",
"&.	c #919191",
"*.	c #0C0C0D",
"=.	c #260304",
"-.	c #E51111",
";.	c #D61010",
">.	c #C90F0F",
",.	c #8F1514",
"'.	c #A51817",
").	c #6E5E5F",
"!.	c #656565",
"~.	c #0F0F10",
"{.	c #B1B0B0",
"].	c #383839",
"^.	c #9B9B9A",
"/.	c #343435",
"(.	c #280404",
"_.	c #E21111",
":.	c #DB1010",
"<.	c #B70D0D",
"[.	c #BF0E0E",
"}.	c #D81010",
"|.	c #D10F0F",
"1.	c #640F0E",
"2.	c #6B100E",
"3.	c #645556",
"4.	c #353231",
"5.	c #8D7330",
"6.	c #B28D08",
"7.	c #B8A04F",
"8.	c #15130E",
"9.	c #6F6F70",
"0.	c #404041",
"a.	c #2A0405",
"b.	c #CF0F0F",
"c.	c #DE1010",
"d.	c #9A0B0B",
"e.	c #780909",
"f.	c #A60C0C",
"g.	c #C80F0F",
"h.	c #B00D0D",
"i.	c #271411",
"j.	c #D5AA4A",
"k.	c #FFC70B",
"l.	c #FFDB0F",
"m.	c #FEDE2D",
"n.	c #EBC70F",
"o.	c #D7BC4C",
"p.	c #29220F",
"q.	c #DD1010",
"r.	c #900A0A",
"s.	c #D00F0F",
"t.	c #D31010",
"u.	c #522F06",
"v.	c #ECAB09",
"w.	c #FFD40C",
"x.	c #FFE61F",
"y.	c #FFE320",
"z.	c #E5C10D",
"A.	c #CE9C09",
"B.	c #3E2F05",
"C.	c #FC1313",
"D.	c #E41111",
"E.	c #C40E0E",
"F.	c #920B0B",
"G.	c #EC1111",
"H.	c #DC0F0F",
"I.	c #1C0A07",
"J.	c #AD872C",
"K.	c #F7C711",
"L.	c #F6CC0F",
"M.	c #CD9A09",
"N.	c #C7900F",
"O.	c #C4A357",
"P.	c #E71111",
"Q.	c #E31111",
"R.	c #CA0F0F",
"S.	c #AA0C0C",
"T.	c #8B0A0A",
"U.	c #C60F0F",
"V.	c #D51010",
"W.	c #AB0D0D",
"X.	c #1B0E0F",
"Y.	c #C7C3BB",
"Z.	c #C69E48",
"`.	c #C68909",
" +	c #BE8D2F",
".+	c #BEB49E",
"++	c #E01111",
"@+	c #B10D0D",
"#+	c #910B0B",
"$+	c #700E0F",
"%+	c #757575",
"&+	c #FFFFFF",
"*+	c #DEDDDC",
"=+	c #D1D0CF",
"-+	c #D4D4D3",
";+	c #D41010",
">+	c #C00E0E",
",+	c #870A0A",
"'+	c #FFFEFD",
")+	c #060102",
"!+	c #E91111",
"~+	c #D91010",
"{+	c #0A0205",
"]+	c #6F6F6F",
"^+	c #FD1313",
"/+	c #0A0102",
"(+	c #F81212",
"_+	c #350507",
":+	c #020205",
"<+	c #A5A5A5",
"[+	c #EE1212",
"}+	c #3B3B3C",
"|+	c #0E0E0F",
"1+	c #1E0304",
"2+	c #FB1313",
"3+	c #111112",
"4+	c #212122",
"5+	c #E4E4E3",
"6+	c #B8B8B8",
"7+	c #0B0B0D",
"8+	c #151415",
"9+	c #030305",
"0+	c #7C0A0B",
"a+	c #171718",
"b+	c #9B9B9B",
"c+	c #F9F9F7",
"d+	c #E8E8E7",
"e+	c #565656",
"f+	c #242423",
"g+	c #330405",
"h+	c #331516",
"i+	c #19191B",
"j+	c #FCFCFA",
"k+	c #FBFBF9",
"l+	c #A2A2A1",
"m+	c #050506",
"n+	c #171617",
"o+	c #010102",
"p+	c #0F0204",
"q+	c #121213",
"r+	c #6E6E6F",
"s+	c #FBFBFA",
"t+	c #D0D0CF",
"u+	c #131314",
"v+	c #1C0306",
"w+	c #29292A",
"x+	c #FAFAF9",
"y+	c #D6D6D4",
"z+	c #101011",
"A+	c #480506",
"B+	c #F9F9F8",
"C+	c #DCDCDA",
"D+	c #060608",
"E+	c #450506",
"F+	c #F4F4F3",
"G+	c #CBCBCA",
"H+	c #09090A",
"I+	c #0A0A0B",
"J+	c #0D0D0F",
"K+	c #EECE68",
"L+	c #DAB51E",
"M+	c #0F0B03",
"N+	c #020204",
"O+	c #262113",
"P+	c #C50E0E",
"Q+	c #910A0A",
"R+	c #FF7D14",
"S+	c #FFFFFD",
"T+	c #E4BA43",
"U+	c #D6A209",
"V+	c #120D03",
"W+	c #030203",
"X+	c #6B5306",
"Y+	c #85530B",
"Z+	c #CE0F0F",
"`+	c #FF8010",
" @	c #080709",
".@	c #8D8D8D",
"+@	c #FAFAF8",
"@@	c #DADAD8",
"#@	c #D5A939",
"$@	c #DDA508",
"%@	c #976906",
"&@	c #6D4B05",
"*@	c #8C6305",
"=@	c #B88B07",
"-@	c #AF7609",
";@	c #AF0C0C",
">@	c #FEC90C",
",@	c #1E1704",
"'@	c #C9C9C8",
")@	c #DBDBDB",
"!@	c #BF9532",
"~@	c #E8AF09",
"{@	c #DAA008",
"]@	c #CD9507",
"^@	c #D09D08",
"/@	c #D4A309",
"(@	c #CC9D0A",
"_@	c #AD5B0A",
":@	c #FFD60C",
"<@	c #FFCE0C",
"[@	c #AA8709",
"}@	c #373635",
"|@	c #DCDCDB",
"1@	c #F5F5F3",
"2@	c #F4F4F2",
"3@	c #F3F3F2",
"4@	c #F2F2F0",
"5@	c #878786",
"6@	c #A07107",
"7@	c #E6AE09",
"8@	c #EBB40A",
"9@	c #E5B00A",
"0@	c #E3AF0A",
"a@	c #DFAC0A",
"b@	c #D9A809",
"c@	c #D3A20A",
"d@	c #DC900E",
"e@	c #FF2617",
"f@	c #F11212",
"g@	c #FFCB0B",
"h@	c #FFC60B",
"i@	c #FABF0B",
"j@	c #E1B30A",
"k@	c #BFAB76",
"l@	c #E1E1E0",
"m@	c #E0E0DE",
"n@	c #555455",
"o@	c #986C06",
"p@	c #D8A509",
"q@	c #E8B20B",
"r@	c #E4B00A",
"s@	c #E0AD0A",
"t@	c #F6BC0C",
"u@	c #FDB20D",
"v@	c #FF2213",
"w@	c #BC0E0E",
"x@	c #F7BE0C",
"y@	c #EBB50A",
"z@	c #DDAA0A",
"A@	c #D09F09",
"B@	c #90690A",
"C@	c #585550",
"D@	c #898989",
"E@	c #838383",
"F@	c #505050",
"G@	c #080502",
"H@	c #875E05",
"I@	c #C89909",
"J@	c #DCA909",
"K@	c #E6B10A",
"L@	c #E6B10B",
"M@	c #E4AF0B",
"N@	c #E1A80A",
"O@	c #E0780F",
"P@	c #F02810",
"Q@	c #BA0E0E",
"R@	c #A00C0C",
"S@	c #B20D0D",
"T@	c #CE9608",
"U@	c #CF9B09",
"V@	c #CC9B09",
"W@	c #C69808",
"X@	c #BE9209",
"Y@	c #B38607",
"Z@	c #7E5604",
"`@	c #150E02",
" #	c #000001",
".#	c #0B0702",
"+#	c #775104",
"@#	c #BE8E09",
"##	c #DFAA0A",
"$#	c #E3AD0B",
"%#	c #D59D09",
"&#	c #C26E09",
"*#	c #CC0F0E",
"=#	c #B50D0D",
"-#	c #9D0B0B",
";#	c #BF120D",
">#	c #903707",
",#	c #874A05",
"'#	c #875A06",
")#	c #8B6205",
"!#	c #896306",
"~#	c #755103",
"{#	c #4B2E02",
"]#	c #290803",
"^#	c #300805",
"/#	c #593A03",
"(#	c #A37106",
"_#	c #BF8A07",
":#	c #B58007",
"<#	c #A64708",
"[#	c #AD0C0C",
"}#	c #A50C0C",
"|#	c #512803",
"1#	c #4A2403",
"2#	c #651807",
"3#	c #673804",
"4#	c #774505",
"5#	c #9C2D0A",
"6#	c #C60F0E",
"7#	c #B90D0D",
"8#	c #970B0B",
"9#	c #C90E0E",
"0#	c #C70E0E",
"a#	c #CD0E0E",
"b#	c #BA0D0D",
"c#	c #980B0B",
"d#	c #D70F0F",
"e#	c #DA0F0F",
"f#	c #CA0E0E",
"g#	c #E11010",
"h#	c #A30C0C",
"i#	c #8C0A0A",
"j#	c #B60D0D",
"k#	c #CE0E0E",
"l#	c #D10E0E",
"m#	c #A20C0C",
"n#	c #7D0909",
"o#	c #E81111",
"                                                                                                        ",
"                                                                                                        ",
"                                                                                                        ",
"                                  . . + @ @ @ @ @                                         # $           ",
"                        . . + @ + . + @ % @ % % & * = %                                   - ;           ",
"                    . . . . @ % % + % & & % & > , ' > & * )                               ! ~           ",
"                  . . . @ % { ] ^     / ( _ : <   [ } | 1 2 3 4                           5 6           ",
"                . . . % 7 8         9 0 0 0 a b c       d [ e * f                   g h h i j k l m n   ",
"              . . . & o           p 0 0 0 0 q r s t         u } v w v               x y z A B C D E F   ",
"            + . . %               G 0 0 0 0 H I J J           K 7 L M N                   O P           ",
"            + + &                 Q R S 0 T U V W J X       M & % & Y Z `                  ...          ",
"        . . . &                   +.@.#.T $.%.&.*.J =.    + . + @ & -.Z ;.>.              ,.'.          ",
"      + . . %                     ).!.%.~.{.].^./.J (.  _.. . + % :.<.[.}.|.              1.2.          ",
"      + @ %                       3.4.5.6.7.8.9.0.J a.b.& . + % c.d.  e.f.g.h.                          ",
"    + + % |                       i.j.k.l.m.n.o.p.J q.L % @ & w d.      r.s.t.[.                        ",
"    @ % &                         u.v.w.x.y.z.A.B.c.f C.) D.E.F.        h.;.G.t.                        ",
"    % % H.                        I.J.K.L.M.N.O.c.P.G.Q.R.S.T.            U.c.V.W.                      ",
"  + @ %                           X.Y.Z.`. +.+Z ++D.q.>.@+#+              g.|.D.[.                      ",
"  @ + %                         $+%+&+*+=+-+_.Z Z Z ;+>+f.,+                U.Q.b.                      ",
"  & & M                         S &+&+&+'+v _.Z Z q.t.>+)+                  s.!+~+                      ",
"  * 7 >.                      {+]+&+&+&+^+v _.Z Z q.t.J J /+                f (+c.                      ",
"  * M                       _+:+<+&+&+& C.[+Q.Z Z q.}+|+T J 1+              * ^+Z                       ",
"  * 2+                      3+4+&+&+% & ) G.Q.Z Z 5+6+7+8+9+J               * ^+Z                       ",
"  * &                     0+a+b+&+% % ^+f -.++Z Z c+d+e+f+V J g+            * ^+Z                       ",
"  * &                     h+i+&+% & = ) G.Q.Z j+j+k+c+l+m+n+o+p+            * ^+Z                       ",
"  * &                     q+r+@ % & ) v -.++Z k+s+j+k+t+0 u+o+J             * ^+Z                       ",
"  * > >+                v+w+@ % & C.f -.++k+k+x+j+s+j+y+9+z+J J A+          * ^+Z                       ",
"  * % -.                :++ @ % = 4 G.Q.j+x+B+k+j+k+j+C+D+~.J J E+          * ^+c.                      ",
"  * % G.                % @ @ % = f -.F+k+x+s+s+k+j+k+G+*.H+I+J+            & & w                       ",
"  * ^+Z               . + @ % & C.[+s+F+x+j+x+j+j+j+K+L+M+J N+O+          + @ % P+                      ",
"  ) v }.Q+        R+. . . + % = 4 G.S+c+j+k+k+j+j+F+T+U+V+J W+X+Y+        @ + %                         ",
"    Z+Z [       `+. . . + @ % =  @.@+@j+j+k+j+k+j+@@#@$@%@&@*@=@-@        % % Y                         ",
"    g.~+| ;@    . + + + @ @ % >@,@9+'@j+k+x++@j+j+)@!@~@{@]@^@/@(@_@    . + % >.                        ",
"      U.Z ^ ;+% . + @ % % & :@<@[@}@|@1@1@2@3@2@4@5@6@7@8@9@0@a@b@c@d@e@. . &                           ",
"      g.~+f@C.@ + + @ & C.g@h@i@j@k@l@m@m@m@m@t+n@0 o@p@0@q@r@s@r@t@u@v@+ %                             ",
"        w@U.Q.& % % % ) x@y@0@z@A@B@C@5@D@E@F@3+J G@H@I@J@K@L@M@N@O@P@* P.Q@                            ",
"          R@S@>.}.Z c.T@U@V@W@X@Y@Z@`@ # # # # # #.#+#@###$#%#&#  *#R.=#r.                              ",
"            -#S@E.;#  >#,#'#)#!#~#{#]#            ^#/#(#_#:#<#  =#[#}#r.                                ",
"              -#S@>+8         |#1#                  2#3#4#5#6#7#[#}#8#                                  ",
"                -#=#E.9#0#                                a#9#b#W.c#                                    ",
"                  R@Q@d#e#e#f#                      & > 7 g#>+h#i#                                      ",
"                    R@j#[.P+d#k#l#Y & % % % @ % % @ + + @ Z m#                                          ",
"                          n#h.` o#@ % % % % @ @ % @ + @ V.                                              ",
"                                d.Z+Q._.Z Z Z Z c.:.P+                                                  ",
"                                                                                                        "};
