/* XPM */
static char * plugins_small_xpm[] = {
"18 18 80 1",
" 	c None",
".	c #000000",
"+	c #6F6A4F",
"@	c #504C38",
"#	c #ACA379",
"$	c #5A5540",
"%	c #161510",
"&	c #87805F",
"*	c #BAB184",
"=	c #A49C74",
"-	c #857E5E",
";	c #16150F",
">	c #201F17",
",	c #9B946E",
"'	c #968F6A",
")	c #B3AA7E",
"!	c #A19A72",
"~	c #222018",
"{	c #524D3A",
"]	c #918A66",
"^	c #B9B083",
"/	c #57533E",
"(	c #25231A",
"_	c #B3AA7F",
":	c #29261D",
"<	c #181711",
"[	c #55513C",
"}	c #938C68",
"|	c #635E46",
"1	c #928B67",
"2	c #C1B889",
"3	c #AAA278",
"4	c #635F46",
"5	c #9B936D",
"6	c #9F9871",
"7	c #CCC290",
"8	c #CEC492",
"9	c #D0C693",
"0	c #CDC391",
"a	c #C7BE8D",
"b	c #6F694E",
"c	c #C8BF8E",
"d	c #D2C895",
"e	c #D3C995",
"f	c #C6BD8D",
"g	c #D4CA96",
"h	c #D5CB96",
"i	c #D0C692",
"j	c #28261C",
"k	c #1B1913",
"l	c #C0B788",
"m	c #BBB284",
"n	c #A19972",
"o	c #B1A97D",
"p	c #D5CC97",
"q	c #D1C793",
"r	c #C6BC8C",
"s	c #3F3C2D",
"t	c #0E0E0A",
"u	c #D1C794",
"v	c #C8BF8D",
"w	c #97906B",
"x	c #BFB687",
"y	c #C4BA8A",
"z	c #26241B",
"A	c #958E6A",
"B	c #CDC491",
"C	c #D2C894",
"D	c #CEC592",
"E	c #C8BE8D",
"F	c #A8A077",
"G	c #C9BF8E",
"H	c #CCC391",
"I	c #CAC18F",
"J	c #C0B687",
"K	c #322F23",
"L	c #7B7557",
"M	c #9D966F",
"N	c #312E22",
"O	c #817B5B",
"                  ",
"                  ",
"     ..           ",
"    +@#$          ",
"   %&*=-;         ",
"   >,')!~  ..     ",
"   .{]^/. (_ ..   ",
"    :<[:}|12345.  ",
"       .678990a.  ",
"       bcdefghij. ",
"      klcdmnopqrs ",
"      t2cuvwxe8yz ",
"       .ABC99DE.  ",
"       .FG7HIrJ.  ",
"       . KLyMN .  ",
"        . .O  .   ",
"           .      ",
"                  "};
