/* XPM */
static char * plugins_small_xpm[] = {
"18 18 10 1",
" 	c None",
".	c #000000",
"+	c #FFFFFF",
"@	c #E5E5E5",
"#	c #CCCCCC",
"$	c #999999",
"%	c #666666",
"&	c #4C4C4C",
"*	c #FFEB96",
"=	c #F9CD39",
"                  ",
"      ... ...     ",
"      .+. .+.     ",
"      .@. .@.     ",
"      .#. .#.     ",
"    ...........   ",
"    .$$$$$$$$$.   ",
"    .$%%%%%%%&.   ",
"     .%%%%%%&.    ",
"     .&&&&&&&.    ",
"      .......     ",
"       .+*=.      ",
"       .....      ",
"        .%.       ",
"        .%.       ",
"        .$.       ",
"        .#.       ",
"                  "};
