/* XPM */
static char * pounce_small_xpm[] = {
"18 18 60 1",
" 	c None",
".	c #212121",
"+	c #4F4A48",
"@	c #B5A29A",
"#	c #AE9287",
"$	c #171717",
"%	c #B5ABA7",
"&	c #D6CDCA",
"*	c #E5C9BE",
"=	c #B19282",
"-	c #443D39",
";	c #000000",
">	c #4E5647",
",	c #6B7066",
"'	c #6D7169",
")	c #3A4133",
"!	c #71625C",
"~	c #DDB8A9",
"{	c #D2AC9A",
"]	c #736057",
"^	c #3C4336",
"/	c #A3B195",
"(	c #B9CAA8",
"_	c #555E4B",
":	c #6E5A52",
"<	c #DBB4A4",
"[	c #CBA694",
"}	c #68574E",
"|	c #2E2F2C",
"1	c #353732",
"2	c #D6DFCC",
"3	c #B3C3A3",
"4	c #6F7C61",
"5	c #485040",
"6	c #69564E",
"7	c #CDA795",
"8	c #7D685E",
"9	c #71746D",
"0	c #A0A799",
"a	c #C3D1B5",
"b	c #B1C2A0",
"c	c #879677",
"d	c #383F31",
"e	c #404839",
"f	c #362D29",
"g	c #6C5A52",
"h	c #646661",
"i	c #CCD7BF",
"j	c #AEC19A",
"k	c #9CAE8A",
"l	c #424A3B",
"m	c #10110E",
"n	c #070707",
"o	c #5F635C",
"p	c #AAB99C",
"q	c #67735B",
"r	c #21241D",
"s	c #4E5349",
"t	c #485140",
"u	c #161813",
"                  ",
"                  ",
"                  ",
"                  ",
"          ..      ",
"        .+@#.     ",
"        $%&*=-    ",
"     ;>,')!~{]    ",
"      ^/(_:<[}    ",
"    |12345678.    ",
"   90abcdefg.     ",
"   hijkl mn       ",
"    opqr          ",
"     st;          ",
"      u           ",
"                  ",
"                  ",
"                  "};
