/* XPM */
static char * sad_xpm[] = {
"19 19 11 1",
" 	c None",
".	c #000000",
"+	c #CCCC00",
"@	c #FFFF00",
"#	c #333333",
"$	c #666600",
"%	c #666666",
"&	c #FFFFFF",
"*	c #CCCC33",
"=	c #999900",
"-	c #333300",
"      .......      ",
"    ..+@@@@@+..    ",
"   .+@@.@@@.@@+.   ",
"  .@@@.@@@@@.@@@.  ",
" .+@.###@@@##..@+. ",
" .@@$%&&*@$&&=$@@. ",
".+@@@%&.*@-&.=@@@+.",
".@@@@+..*@*..+@@@@.",
".@@@@@$@@@@@=@@@@@.",
".@@@@@@@@@@@@@@@@@.",
".@@@@@.......@@@@@.",
".@@$@.=@@@@@=.@$@@.",
".+@$-@@@***@@@-$@+.",
" .@@$@@@@@@@@@$@@. ",
" .+@@@@@@@@@@@@@+. ",
"  .@@@@@@@@@@@@@.  ",
"   .+@@@@@@@@@+.   ",
"    ..+@@@@@+..    ",
"      .......      "};
