/* XPM */
static char * scream_xpm[] = {
"19 19 7 1",
" 	c None",
".	c #000000",
"+	c #CCCC00",
"@	c #FFFF00",
"#	c #333300",
"$	c #999900",
"%	c #FFFFFF",
"      .......      ",
"    ..+@@@@@+..    ",
"   .+@#@@@@@#@+.   ",
"  .@@.@#@@@#@.@@.  ",
" .+@@$%%@@@%%$@@+. ",
" .@@$%.%$@$%.%$@@. ",
".+@@$%.%$@$%.%$@@+.",
".@@@@.%%$@$%%.@@@@.",
".@@@@@..@@@..@@@@@.",
".@@@@@@@@@@@@@@@@@.",
".@@@@@@@...@@@@@@@.",
".@@@@@@$...$@@@@@@.",
".+@@@@@.....@@@@@+.",
" .@@@@@.....@@@@@. ",
" .+@@@@$...$@@@@+. ",
"  .@@@@@...@@@@@.  ",
"   .+@@@@@@@@@+.   ",
"    ..+@@@@@+..    ",
"      .......      "};
