/* XPM */
static char * search_small_xpm[] = {
"18 18 114 2",
"  	c None",
". 	c #000000",
"+ 	c #282824",
"@ 	c #4A4A43",
"# 	c #30302B",
"$ 	c #8A8A7B",
"% 	c #DDDDC5",
"& 	c #99998B",
"* 	c #47473F",
"= 	c #808072",
"- 	c #CBCBB6",
"; 	c #D8D8C2",
"> 	c #DCDCC5",
", 	c #E0E0C9",
"' 	c #7B7B6E",
") 	c #1D1D1D",
"! 	c #545454",
"~ 	c #AAAA9A",
"{ 	c #D5D5BE",
"] 	c #D6D6C0",
"^ 	c #D9D9C2",
"/ 	c #DEDEC6",
"( 	c #E2E2CA",
"_ 	c #272727",
": 	c #3A3A3A",
"< 	c #A6A6A6",
"[ 	c #8C8C81",
"} 	c #D3D3BC",
"| 	c #E3E3CB",
"1 	c #E7E7CF",
"2 	c #ECECD3",
"3 	c #BDBDAA",
"4 	c #21211E",
"5 	c #3B3B3A",
"6 	c #EDEDE9",
"7 	c #696965",
"8 	c #B8B8A4",
"9 	c #CDCDB7",
"0 	c #A0A08F",
"a 	c #78786B",
"b 	c #89897B",
"c 	c #C8C8B3",
"d 	c #E8E8D0",
"e 	c #66665B",
"f 	c #3B3B39",
"g 	c #B3B3AE",
"h 	c #7B7B72",
"i 	c #BEBEA9",
"j 	c #868677",
"k 	c #7A7A6D",
"l 	c #9B9B8B",
"m 	c #89897A",
"n 	c #616157",
"o 	c #393933",
"p 	c #080807",
"q 	c #626259",
"r 	c #B2B29F",
"s 	c #707064",
"t 	c #D9D9CA",
"u 	c #D9D9CC",
"v 	c #B6B6A3",
"w 	c #919181",
"x 	c #69695E",
"y 	c #F5F5DC",
"z 	c #32322D",
"A 	c #222220",
"B 	c #B1B1A2",
"C 	c #DADAC3",
"D 	c #A8A897",
"E 	c #6C6C61",
"F 	c #E5E5DA",
"G 	c #BABAA6",
"H 	c #A8A896",
"I 	c #949485",
"J 	c #44443D",
"K 	c #818174",
"L 	c #828275",
"M 	c #DFDFC7",
"N 	c #B7B7A3",
"O 	c #6B6B60",
"P 	c #BABAA9",
"Q 	c #ACAC9A",
"R 	c #9A9A8A",
"S 	c #7F7F72",
"T 	c #69695F",
"U 	c #1E1E1B",
"V 	c #5D5D56",
"W 	c #D5D5C0",
"X 	c #DEDEC7",
"Y 	c #8E8E7F",
"Z 	c #6F6F64",
"` 	c #78786C",
" .	c #6B6B61",
"..	c #2E2E2C",
"+.	c #292925",
"@.	c #5D5D54",
"#.	c #B9B9A7",
"$.	c #EBEBD3",
"%.	c #E1E1C9",
"&.	c #7D7D70",
"*.	c #858579",
"=.	c #4D4D4A",
"-.	c #363631",
";.	c #EEEED6",
">.	c #F0F0D7",
",.	c #F1F1D8",
"'.	c #DEDEC8",
").	c #77776B",
"!.	c #A6A695",
"~.	c #E9E9D1",
"{.	c #ABAB9A",
"].	c #3A3A34",
"^.	c #31312C",
"/.	c #66665C",
"                                    ",
"                                    ",
"                . + @               ",
"              # $ % &               ",
"        . * = - ; > , '             ",
"      ) ! ~ { ] ^ / ( / _           ",
"      : < [ } ; % | 1 2 3 4         ",
"      5 6 7 8 9 0 a b c d e         ",
"      f g h i j k l m n ; ] o       ",
"      p q c r s t u v w x y ] z     ",
"      A B C D E F G H I J y y K .   ",
"        L M N O P Q R S T y O U     ",
"        V W X Y Z `  ...+.@.        ",
"        _ #.$.%.Q &.*.=.. .         ",
"          -.;.>.,.'.).    . .       ",
"          . !.~.{.].        . .     ",
"            ^./.4                   ",
"                                    "};
