/* XPM */
static char * send_small_xpm[] = {
"18 18 122 2",
"  	c None",
". 	c #000000",
"+ 	c #1C1C1C",
"@ 	c #797976",
"# 	c #ADACA9",
"$ 	c #737371",
"% 	c #161616",
"& 	c #313131",
"* 	c #3E3E3D",
"= 	c #969694",
"- 	c #DADAD6",
"; 	c #F0F0EC",
"> 	c #F1F1ED",
", 	c #F0F0EB",
"' 	c #C1C1BC",
") 	c #82817F",
"! 	c #212121",
"~ 	c #6F6E6D",
"{ 	c #9C9C9A",
"] 	c #C7C7C5",
"^ 	c #F2F2EF",
"/ 	c #F4F4F0",
"( 	c #F3F2EE",
"_ 	c #F2F1EC",
": 	c #F0EFEB",
"< 	c #DAD9D4",
"[ 	c #737370",
"} 	c #C0BFBA",
"| 	c #646461",
"1 	c #6F6F6D",
"2 	c #B5B4B2",
"3 	c #838382",
"4 	c #929190",
"5 	c #E5E4E0",
"6 	c #EFEEE8",
"7 	c #A8A7A3",
"8 	c #949490",
"9 	c #E2E0DA",
"0 	c #757471",
"a 	c #EEEEEB",
"b 	c #F4F3EF",
"c 	c #D0CFCB",
"d 	c #A3A29F",
"e 	c #8C8B88",
"f 	c #C4C3BF",
"g 	c #ACABA7",
"h 	c #7B7A77",
"i 	c #858580",
"j 	c #D1D0C9",
"k 	c #CECDC7",
"l 	c #30302F",
"m 	c #CACAC7",
"n 	c #F2F2ED",
"o 	c #F1F0EB",
"p 	c #D8D7D3",
"q 	c #B3B2AE",
"r 	c #BCBBB6",
"s 	c #A5A5A0",
"t 	c #D5D3CD",
"u 	c #C9C8C2",
"v 	c #A9A8A2",
"w 	c #AAA9A2",
"x 	c #2F2F2D",
"y 	c #5C5C5A",
"z 	c #EFEEE9",
"A 	c #BAB9B5",
"B 	c #BBBAB5",
"C 	c #ECEAE4",
"D 	c #EAE8E1",
"E 	c #E9E7DF",
"F 	c #E7E6DE",
"G 	c #DFDDD5",
"H 	c #A3A19B",
"I 	c #71706B",
"J 	c #383837",
"K 	c #E8E7E2",
"L 	c #E5E3DE",
"M 	c #8E8D8A",
"N 	c #EAE9E3",
"O 	c #E9E8E1",
"P 	c #E3E2DA",
"Q 	c #D5D4CC",
"R 	c #A7A59F",
"S 	c #8A8984",
"T 	c #262524",
"U 	c #242424",
"V 	c #A4A39F",
"W 	c #A6A6A1",
"X 	c #CBCAC3",
"Y 	c #E9E8E0",
"Z 	c #DEDDD6",
"` 	c #ABABA5",
" .	c #6D6C69",
"..	c #52514F",
"+.	c #4B4A49",
"@.	c #8C8B87",
"#.	c #D0CEC8",
"$.	c #7B7B77",
"%.	c #353533",
"&.	c #222221",
"*.	c #544F48",
"=.	c #33302B",
"-.	c #565552",
";.	c #413C33",
">.	c #908572",
",.	c #706759",
"'.	c #161411",
").	c #9D8F7C",
"!.	c #514A3F",
"~.	c #090807",
"{.	c #5C5245",
"].	c #B3A089",
"^.	c #8E7E6B",
"/.	c #201D18",
"(.	c #25211C",
"_.	c #A5937D",
":.	c #CCB69B",
"<.	c #554B40",
"[.	c #2E2923",
"}.	c #695D4F",
"|.	c #6D6153",
"1.	c #5F5446",
"                                    ",
"                    . .             ",
"            . . . + @ # $           ",
"    % & * * = - ; > , ' ) !         ",
"  . ~ { ] ^ / ( _ : < [ } |         ",
"  . 1 2 3 4 5 _ , 6 7 8 9 0         ",
"    . a b c d e f g h i j k l       ",
"    . m n o p q r s t u v w x       ",
"      y o z A B C D E F G H I .     ",
"      J K L M N O F P Q R S T .     ",
"      U V W X Y Z `  .... .         ",
"        +.@.#.$.%.&.  + *.=.        ",
"        T -..       . ;.>.,.'.      ",
"          .         . . ).!.~.      ",
"                      {.].^./.      ",
"                    (._.:.:.<.      ",
"                    [.}.|.|.1..     ",
"                                    "};
