/* XPM */
static char * signing_on_xpm[] = {
"34 32 511 2",
"  	c None",
". 	c #8E96FD",
"+ 	c #929AFE",
"@ 	c #969EFE",
"# 	c #939BFE",
"$ 	c #8B93FD",
"% 	c #959DFD",
"& 	c #A8ADFD",
"* 	c #CBCFFD",
"= 	c #CCD0FD",
"- 	c #CFD2FE",
"; 	c #CDD0FD",
"> 	c #CBCEFD",
", 	c #CED1FC",
"' 	c #A4AAFD",
") 	c #8C93FD",
"! 	c #979FFD",
"~ 	c #C7CBFC",
"{ 	c #C6C9FD",
"] 	c #C3C7FD",
"^ 	c #C5C9FF",
"/ 	c #C8CDFF",
"( 	c #C4C8FF",
"_ 	c #C3C7FE",
": 	c #C9CDFD",
"< 	c #CDD0FC",
"[ 	c #C4C8FC",
"} 	c #1B1E48",
"| 	c #18193D",
"1 	c #191B40",
"2 	c #1C1F45",
"3 	c #949CFD",
"4 	c #C8CBFC",
"5 	c #C7CAFC",
"6 	c #BEC3FD",
"7 	c #B8BDFD",
"8 	c #B9BEFF",
"9 	c #C0C6FE",
"0 	c #B8BDFE",
"a 	c #BBC0FE",
"b 	c #C2C6FD",
"c 	c #C5C9FC",
"d 	c #CBCEFC",
"e 	c #CACDFC",
"f 	c #1D2151",
"g 	c #0E0F26",
"h 	c #0F1028",
"i 	c #10112B",
"j 	c #393A54",
"k 	c #242753",
"l 	c #CFD2FC",
"m 	c #C8CBFD",
"n 	c #C0C3FB",
"o 	c #B9B6F5",
"p 	c #ABADF9",
"q 	c #A6ACFD",
"r 	c #B6BDFE",
"s 	c #A8A5F5",
"t 	c #B8A5E5",
"u 	c #BBAEEB",
"v 	c #BFC2FA",
"w 	c #C7CBFD",
"x 	c #CED2FC",
"y 	c #F4F5FC",
"z 	c #33388E",
"A 	c #0D0E24",
"B 	c #0F1029",
"C 	c #343551",
"D 	c #1D1F3C",
"E 	c #333885",
"F 	c #C6CAFD",
"G 	c #C1B2E9",
"H 	c #C380B3",
"I 	c #AA7CBE",
"J 	c #8B85D7",
"K 	c #B9BEEC",
"L 	c #A787D2",
"M 	c #CF537C",
"N 	c #CF618A",
"O 	c #BEA7DB",
"P 	c #C0C3F2",
"Q 	c #C8CBF3",
"R 	c #F3F3FA",
"S 	c #101227",
"T 	c #0E0F27",
"U 	c #0F112C",
"V 	c #2F304C",
"W 	c #141635",
"X 	c #1F2356",
"Y 	c #A4A9F1",
"Z 	c #A9ABD5",
"` 	c #A0A3D1",
" .	c #B082AF",
"..	c #D93E5A",
"+.	c #A83856",
"@.	c #56405C",
"#.	c #898A8F",
"$.	c #AE8EA6",
"%.	c #BF2032",
"&.	c #E12E3F",
"*.	c #A56581",
"=.	c #827F9C",
"-.	c #898BA6",
";.	c #E7E7EB",
">.	c #737488",
",.	c #1C1B30",
"'.	c #292A43",
").	c #797B94",
"!.	c #8A8CA7",
"~.	c #151737",
"{.	c #141638",
"].	c #4047B1",
"^.	c #A8AEFC",
"/.	c #9598B7",
"(.	c #454759",
"_.	c #3D3B4E",
":.	c #763349",
"<.	c #CF2640",
"[.	c #B42C4D",
"}.	c #835C65",
"|.	c #A9A8A8",
"1.	c #DFBEBF",
"2.	c #CD3F4A",
"3.	c #D82F3E",
"4.	c #74313E",
"5.	c #38333F",
"6.	c #3F404D",
"7.	c #D8D8D9",
"8.	c #8A90E4",
"9.	c #87889C",
"0.	c #AFADBA",
"a.	c #6F6D77",
"b.	c #6D6E87",
"c.	c #A1A3BD",
"d.	c #171938",
"e.	c #151738",
"f.	c #4E55B1",
"g.	c #C1C5FB",
"h.	c #ADAFD2",
"i.	c #6E708B",
"j.	c #67637F",
"k.	c #974E69",
"l.	c #DE293C",
"m.	c #B22130",
"n.	c #543439",
"o.	c #6F7079",
"p.	c #C4B0C1",
"q.	c #A72C46",
"r.	c #DB354E",
"s.	c #A979A0",
"t.	c #9497BE",
"u.	c #9EA1C3",
"v.	c #EBEBF1",
"w.	c #6C71C5",
"x.	c #524843",
"y.	c #81682D",
"z.	c #C5AC5E",
"A.	c #8B836B",
"B.	c #847D7B",
"C.	c #161835",
"D.	c #8C8FAF",
"E.	c #D6D9FC",
"F.	c #B4B9F9",
"G.	c #C1C5EE",
"H.	c #BBBEED",
"I.	c #C09CCA",
"J.	c #D84F6D",
"K.	c #D74263",
"L.	c #D19CC0",
"M.	c #ACB5FC",
"N.	c #9792E4",
"O.	c #AD6BA6",
"P.	c #C76B9B",
"Q.	c #BFAAE4",
"R.	c #C4C8FD",
"S.	c #CCCFFC",
"T.	c #F4F4FC",
"U.	c #5B548E",
"V.	c #A17827",
"W.	c #D8AE2E",
"X.	c #DBC342",
"Y.	c #DDC43E",
"Z.	c #B99842",
"`.	c #171833",
" +	c #696EB0",
".+	c #9EA5FD",
"++	c #B3B9FD",
"@+	c #C0C0F8",
"#+	c #BEA2DD",
"$+	c #C29ED4",
"%+	c #B8B1F0",
"&+	c #9CA4FE",
"*+	c #9CA2FD",
"=+	c #AFACF5",
"-+	c #B8B0EF",
";+	c #BDBFFA",
">+	c #C5C9FD",
",+	c #8D8D95",
"'+	c #4C4A8E",
")+	c #937225",
"!+	c #D6B83B",
"~+	c #C4A935",
"{+	c #B5902F",
"]+	c #B68B42",
"^+	c #21223C",
"/+	c #383A57",
"(+	c #4A51B1",
"_+	c #B2B7FD",
":+	c #C4C7FC",
"<+	c #C2C5FC",
"[+	c #BBBFFE",
"}+	c #AFB5FE",
"|+	c #AEB3FF",
"1+	c #B6BBFE",
"2+	c #BFC4FD",
"3+	c #C9CDFC",
"4+	c #A2A8FD",
"5+	c #393E8C",
"6+	c #86838B",
"7+	c #AD873D",
"8+	c #B18432",
"9+	c #A9937A",
"0+	c #C5C0CE",
"a+	c #34364F",
"b+	c #20223E",
"c+	c #22244B",
"d+	c #BCC0FD",
"e+	c #BDC2FE",
"f+	c #BCC0FE",
"g+	c #C6CBFC",
"h+	c #A9AFFD",
"i+	c #393F97",
"j+	c #3F4053",
"k+	c #ACADBF",
"l+	c #B4B5C7",
"m+	c #B8BACE",
"n+	c #CCCDE2",
"o+	c #E2E4F9",
"p+	c #C0C2D8",
"q+	c #1D1F3A",
"r+	c #151735",
"s+	c #474EB5",
"t+	c #B4B9FD",
"u+	c #B0B5FD",
"v+	c #AEB3FD",
"w+	c #B3B8FD",
"x+	c #252638",
"y+	c #A7A8B9",
"z+	c #EBECFC",
"A+	c #CBCDDF",
"B+	c #D6D7EA",
"C+	c #E5E6FA",
"D+	c #E6E7FC",
"E+	c #D4D6EC",
"F+	c #5D5F79",
"G+	c #131532",
"H+	c #151839",
"I+	c #303580",
"J+	c #404152",
"K+	c #CECFE0",
"L+	c #E8E9F9",
"M+	c #D7D9EA",
"N+	c #DEDFF2",
"O+	c #E0E1F5",
"P+	c #D4D5EA",
"Q+	c #CCCDE4",
"R+	c #81839C",
"S+	c #121430",
"T+	c #141533",
"U+	c #1D204A",
"V+	c #343989",
"W+	c #0F1024",
"X+	c #545565",
"Y+	c #D7D8EC",
"Z+	c #D2D2ED",
"`+	c #BDACCD",
" @	c #B48CAF",
".@	c #B996B6",
"+@	c #B7A5C9",
"@@	c #B2A6CD",
"#@	c #9F9CC2",
"$@	c #494C69",
"%@	c #2B2D48",
"&@	c #151634",
"*@	c #3C428E",
"=@	c #272B65",
"-@	c #1E1F2F",
";@	c #D7D6EA",
">@	c #C5ACCC",
",@	c #C27F99",
"'@	c #9A5B72",
")@	c #86617E",
"!@	c #88607F",
"~@	c #A0607A",
"{@	c #B4627B",
"]@	c #996B8E",
"^@	c #535476",
"/@	c #282A43",
"(@	c #141630",
"_@	c #171937",
":@	c #222451",
"<@	c #555565",
"[@	c #CBB1CB",
"}@	c #C36E83",
"|@	c #9B4052",
"1@	c #826F90",
"2@	c #BCC0DD",
"3@	c #C2C5E2",
"4@	c #A69CBB",
"5@	c #8D526D",
"6@	c #845D7E",
"7@	c #BCBCDC",
"8@	c #42445B",
"9@	c #171930",
"0@	c #13152F",
"a@	c #383D94",
"b@	c #0A0A1A",
"c@	c #CFCAD9",
"d@	c #BF7790",
"e@	c #BA4E60",
"f@	c #812E41",
"g@	c #A9A5C6",
"h@	c #E8EAFA",
"i@	c #E9EBFC",
"j@	c #D9DBF1",
"k@	c #ABA6C3",
"l@	c #AEAAC8",
"m@	c #D7DAF2",
"n@	c #383A50",
"o@	c #11132B",
"p@	c #12132C",
"q@	c #2F3473",
"r@	c #181B41",
"s@	c #0A0A19",
"t@	c #CAC1CF",
"u@	c #BC5162",
"v@	c #B54556",
"w@	c #853045",
"x@	c #B2AECF",
"y@	c #E2E4F5",
"z@	c #D1D1EB",
"A@	c #C7BFE0",
"B@	c #C2B8DB",
"C@	c #C3BBDC",
"D@	c #D4D4ED",
"E@	c #36374D",
"F@	c #101228",
"G@	c #11122A",
"H@	c #0D0D18",
"I@	c #0B0B19",
"J@	c #CCC4D1",
"K@	c #AD4658",
"L@	c #B54354",
"M@	c #9C374A",
"N@	c #AA9BBE",
"O@	c #D2D2EB",
"P@	c #B393B1",
"Q@	c #B9758C",
"R@	c #C1697E",
"S@	c #B16077",
"T@	c #906480",
"U@	c #252138",
"V@	c #15162A",
"W@	c #111228",
"X@	c #13142D",
"Y@	c #CA981E",
"Z@	c #70591C",
"`@	c #AEABB5",
" #	c #A9738E",
".#	c #A83F4F",
"+#	c #AF4050",
"@#	c #975373",
"##	c #BEB9DB",
"$#	c #C2C1DD",
"%#	c #B2869E",
"&#	c #A84256",
"*#	c #7B3F51",
"=#	c #8D8389",
"-#	c #2A2B3B",
";#	c #0E0F24",
">#	c #313247",
",#	c #7375B2",
"'#	c #A28B84",
")#	c #E3B01E",
"!#	c #E8B51F",
"~#	c #6C5C27",
"{#	c #877B95",
"]#	c #935872",
"^#	c #9B3B4D",
"/#	c #A94558",
"(#	c #AD7594",
"_#	c #BB9DBC",
":#	c #B3768E",
"<#	c #843D52",
"[#	c #805D53",
"}#	c #C29C2E",
"|#	c #362F25",
"1#	c #0E0F22",
"2#	c #2D2824",
"3#	c #B19629",
"4#	c #AA8D73",
"5#	c #DFAB1D",
"6#	c #E4B01D",
"7#	c #E9B61F",
"8#	c #C9A41F",
"9#	c #1E1F31",
"0#	c #48405B",
"a#	c #7E5E79",
"b#	c #793C51",
"c#	c #763345",
"d#	c #774358",
"e#	c #7F556E",
"f#	c #8D7E99",
"g#	c #A8957F",
"h#	c #CD9C29",
"i#	c #886625",
"j#	c #715423",
"k#	c #A27F25",
"l#	c #DEB028",
"m#	c #AA8C71",
"n#	c #E6B21D",
"o#	c #E8B61E",
"p#	c #E9B51E",
"q#	c #E0B11F",
"r#	c #796A1D",
"s#	c #0C0D1E",
"t#	c #A2A2B4",
"u#	c #C8C1D1",
"v#	c #C1B6C4",
"w#	c #C0B7C6",
"x#	c #CAC7D8",
"y#	c #D9DBED",
"z#	c #C2B095",
"A#	c #CC9C25",
"B#	c #D2A024",
"C#	c #D19F24",
"D#	c #DEAC26",
"E#	c #E3B327",
"F#	c #C09F62",
"G#	c #A5876E",
"H#	c #E5B11C",
"I#	c #E9B61D",
"J#	c #CFA11F",
"K#	c #B9A783",
"L#	c #E9EAF5",
"M#	c #EEEFFB",
"N#	c #E7E8F5",
"O#	c #EBECF9",
"P#	c #E8E9F7",
"Q#	c #B4B5C2",
"R#	c #554328",
"S#	c #CB9E23",
"T#	c #E2B224",
"U#	c #E4B225",
"V#	c #E4B325",
"W#	c #E4B326",
"X#	c #E3B227",
"Y#	c #B6996F",
"Z#	c #B59156",
"`#	c #E7B21C",
" $	c #E9B51D",
".$	c #E8B51E",
"+$	c #E4B51F",
"@$	c #C4AB5C",
"#$	c #AFACB1",
"$$	c #B3B4BF",
"%$	c #B0B1BD",
"&$	c #AEAFBC",
"*$	c #0E0F1E",
"=$	c #4B381D",
"-$	c #CF9E22",
";$	c #E6B423",
">$	c #E5B423",
",$	c #E4B324",
"'$	c #E1AF24",
")$	c #C29F5A",
"!$	c #9A848D",
"~$	c #AA823F",
"{$	c #CA9419",
"]$	c #D6A11B",
"^$	c #DCA71B",
"/$	c #E5B01D",
"($	c #E2AD1E",
"_$	c #B3811B",
":$	c #2F2217",
"<$	c #10111E",
"[$	c #0C0D1B",
"}$	c #0A0B19",
"|$	c #0A0B1A",
"1$	c #49361B",
"2$	c #C99720",
"3$	c #E3B022",
"4$	c #E2AF22",
"5$	c #D09D21",
"6$	c #AB8A63",
"7$	c #806C86",
"8$	c #916817",
"9$	c #B07F18",
"0$	c #C4911B",
"a$	c #BE881A",
"b$	c #8A5D18",
"c$	c #4D4882",
"d$	c #625373",
"e$	c #AB791D",
"f$	c #C8941F",
"g$	c #B4821F",
"h$	c #86695C",
"i$	c #654516",
"j$	c #5B4F78",
"k$	c #6C5764",
"l$	c #735120",
"                                                                    ",
"                                                . + @ # $ $         ",
"                                            % & * = - ; > , ' )     ",
"                                          ! ~ { ] ^ / ( _ : < [     ",
"                      } | 1 2           3 4 5 6 7 8 9 0 a b c d e   ",
"                    f g h i j k         l m n o p q r s t u v w x y ",
"                  z A g B i C D E       < F G H I J K L M N O P Q R ",
"                  z S T B U V W X     Y Z `  ...+.@.#.$.%.&.*.=.-.;.",
"                  z >.,.'.).!.~.{.].^./.(._.:.<.[.}.|.1.2.3.4.5.6.7.",
"                  8.9.0.a.b.c.d.e.f.g.h.i.j.k.l.m.n.o.p.q.r.s.t.u.v.",
"                  w.x.y.z.A.B.C.e.D.E.F.G.H.I.J.K.L.M.N.O.P.Q.R.S.T.",
"                  U.V.W.X.Y.Z.`.~. +.+  ++: @+#+$+%+&+*+=+-+;+>+< ,+",
"                  '+)+!+~+{+]+^+/+(+      _+:+<+<+[+}+|+1+2+>+3+4+  ",
"                  5+6+7+8+9+0+a+b+c+        d+: : _ e+f+2+F g+h+    ",
"                i+j+k+l+m+n+o+p+q+r+s+          7 t+u+v+u+w+        ",
"                x+y+z+A+B+C+D+E+F+G+H+                              ",
"              I+J+K+L+M+N+O+P+Q+R+S+T+U+                            ",
"            V+W+X+Y+Z+`+ @.@+@@@#@$@%@&@*@                          ",
"            =@-@;@>@,@'@)@!@~@{@]@^@/@(@_@                          ",
"            :@<@[@}@|@1@2@3@4@5@6@7@8@9@0@                          ",
"          a@b@c@d@e@f@g@h@i@j@k@l@m@n@o@p@q@                        ",
"          r@s@t@u@v@w@x@y@z@A@B@C@D@E@F@G@o@                        ",
"          H@I@J@K@L@M@N@O@P@Q@R@S@T@U@V@W@X@                        ",
"          Y@Z@`@ #.#+#@###$#%#&#*#=#-#;#>#,#                        ",
"        '#)#!#~#{#]#^#/#(#_#:#<#[#}#|#1#2#3#                        ",
"    4#5#6#7#!#8#9#0#a#b#c#d#e#f#g#h#i#j#k#l#                        ",
"    m#n#o#p#!#q#r#s#t#u#v#w#x#y#z#A#B#C#D#E#F#                      ",
"    G#H#I#o#o#!#J#K#L#M#N#O#P#Q#R#S#T#U#V#W#X#Y#                    ",
"    Z#`# $I#I#.$+$@$#$$$%$&$&$*$=$-$;$>$,$'$)$!$                    ",
"    ~${$]$^$/$.$($_$:$<$[$}$}$|$1$2$3$4$5$6$                        ",
"        7$8$9$0$a$b$c$          d$e$f$g$h$                          ",
"                i$j$              k$l$                              "};
