/* XPM */
static char *small_xpm[] = {
/* columns rows colors chars-per-pixel */
"17 13 5 1",
"  c Gray0",
". c Gray40",
"X c Magenta",
"o c Gray60",
"O c None",
/* pixels */
"OOOOOOOOOOOOOOOOO",
"OOOOOOOOOOOOOOOOO",
"OOOOOOOOOOOOOOOOO",
"OOOOOOOOOOOOOOOOO",
"OOOOOOOOOO.o.o.OO",
"OOOOOOOOOOo.o.oOO",
"OOOOOOOOOO.o.o.OO",
"OOOO OOOOO  .  OO",
"OOOO OOOOO     OO",
"OOO   OOOO     OO",
"OOO O OOOOO   OOO",
"OO  O  OOOOO OOOO",
"OOOOOOOOOOOOOOOOO",
};
