/* XPM */
static char * smile8_xpm[] = {
"19 19 6 1",
" 	c None",
".	c #000000",
"+	c #CCCC00",
"@	c #FFFF00",
"#	c #FFFFFF",
"$	c #999933",
"      .......      ",
"    ..+@@@@@+..    ",
"   .+@@@@@@@@@+.   ",
"  .@@@@@@@@@@@@@.  ",
" .+@...@@@@@...@+. ",
" .@.###.@@@.###.@. ",
".+.##.##.@.##.##.+.",
".@.##.##.@.##.##.@.",
".@@.###.@@@.###.@@.",
".@@@...@@@@@...@@@.",
".@@@@@@@@@@@@@@@@@.",
".@@@.@@@@@@@@@.@@@.",
".+@..@@@@@@@@@..@+.",
" .@@@.$@@@@@$.@@@. ",
" .+@@@.......@@@+. ",
"  .@@@@.$$$.@@@@.  ",
"   .+@@@...@@@+.   ",
"    ..+@@@@@+..    ",
"      .......      "};
