/* XPM */
static char * smile_icon_xpm[] = {
"13 13 33 1",
" 	c None",
".	c #424200",
"+	c #515100",
"@	c #313100",
"#	c #939300",
"$	c #E8E800",
"%	c #FFFF00",
"&	c #EBEB00",
"*	c #FEFE00",
"=	c #D1D100",
"-	c #AAAA00",
";	c #222200",
">	c #B9B900",
",	c #6B6B00",
"'	c #000000",
")	c #868600",
"!	c #2A2A00",
"~	c #C6C600",
"{	c #F4F400",
"]	c #EEEE00",
"^	c #E3E300",
"/	c #767600",
"(	c #A8A800",
"_	c #D2D200",
":	c #8C8C00",
"<	c #BDBD00",
"[	c #EDED00",
"}	c #646400",
"|	c #673A00",
"1	c #C46E00",
"2	c #F1F100",
"3	c #836700",
"4	c #511B00",
"    .+++.    ",
"  @#$%%%$#@  ",
" @&*=%%%=*&@ ",
" #*-;>%>;-*# ",
".$%,')%)',%$.",
"+%%>!~%~!>%%+",
"+%{]^%%%^]{%+",
"+%/(%%%%%(/%+",
".$_:<[{[<:_$.",
" #*%}|1|}%*# ",
" @&*23432*&@ ",
"  @#$%%%$#@  ",
"    .+++.    "};
