/* XPM */
static char * smile_happy_xpm[] = {
"20 15 3 1",
" 	c None",
".	c #000000",
"+	c #FFFF00",
"       ......       ",
"      ..++++..      ",
"     ..++++++..     ",
"    ..++++++++..    ",
"   ..+++.++.+++..   ",
"   .++++.++.++++.   ",
"   .++++++++++++.   ",
"   .++++++++++++.   ",
"   .+++.++++.+++.   ",
"   ..+++....+++..   ",
"    ..++++++++..    ",
"     ..++++++..     ",
"      ..++++..      ",
"       ......       ",
"                    "};
