/* XPM */
static char * status_away_xpm[] = {
"12 13 11 1",
" 	c None",
".	c #C6C3C6",
"+	c #000000",
"@	c #848200",
"#	c #FFFF00",
"$	c #FFFFFF",
"%	c #000084",
"&	c #848284",
"*	c #840000",
"=	c #272727",
"-	c #FF0000",
"  ..++@@..  ",
" .++####@@. ",
".+##$$$$#$@.",
".+#$$$####@.",
"+#$$%$#%$##@",
"+#$.&..&.##@",
"+#**+######@",
"=*---+##@##@",
"*-----+@##@.",
"*$$$$$+###@.",
"*-----+#@@. ",
".*---++@..  ",
" .**+...    "};
