/* XPM */
static char * status_idle_xpm[] = {
"12 13 13 1",
" 	c None",
".	c #C6C3C6",
"+	c #000000",
"@	c #848200",
"#	c #FFFF00",
"$	c #FFFFFF",
"%	c #000084",
"&	c #848284",
"*	c #A1A100",
"=	c #2B2BFF",
"-	c #0000FF",
";	c #00FFFF",
">	c #840084",
"  ..++@@..  ",
" .++####@@. ",
".+##$$$$#$@.",
".+#$$$####@.",
"+#$$%$#%$##@",
"+#$.&..&.##@",
"+*=-%######@",
"+%;+;%##@##@",
"%;$%$;%@##@.",
"%+@%$.%###@.",
"%;.$.;>#@@. ",
".%;;;>+@..  ",
" .>>>...    "};
