/* XPM */
static char * strike_xpm[] = {
"15 13 2 1",
" 	c None",
".	c #000000",
"               ",
"               ",
"     .... .    ",
"    ..   ..    ",
"    ..    .    ",
"    ...        ",
" ............. ",
"        ...    ",
"    .    ..    ",
"    ..   ..    ",
"    . ....     ",
"               ",
"               "};
