/* XPM */
static char * tb_drag_arrow_left_xpm[] = {
"16 13 2 1",
" 	c None",
".	c #FF0000",
"      .         ",
"     ..         ",
"    ...         ",
"   ....         ",
"  .....         ",
" ...............",
"................",
" ...............",
"  .....         ",
"   ....         ",
"    ...         ",
"     ..         ",
"      .         "};
