/* XPM */
static char * tongue_xpm[] = {
"19 19 5 1",
" 	c None",
".	c #000000",
"+	c #CCCC00",
"@	c #FFFF00",
"#	c #FF0000",
"      .......      ",
"    ..+@@@@@+..    ",
"   .+@@@@@@@@@+.   ",
"  .@@@@@@@@@@@@@.  ",
" .+@@@.@@@@@.@@@+. ",
" .@@@...@@@...@@@. ",
".+@@@...@@@...@@@+.",
".@@@@...@@@...@@@@.",
".@@@@...@@@...@@@@.",
".@@@@@.@@@@@.@@@@@.",
".@@@@@@@@@@@@@@@@@.",
".@@@@@@@@@@@@@@@@@.",
".+@@...........@@+.",
" .@@@@@#####@@@@@. ",
" .+@@@@@@####@@@+. ",
"  .@@@@@@@##@@@@.  ",
"   .+@@@@@@@@@+.   ",
"    ..+@@@@@+..    ",
"      .......      "};
