/* XPM */
static char * yell_xpm[] = {
"19 19 8 1",
" 	c None",
".	c #000000",
"+	c #CCCC00",
"@	c #FFFF00",
"#	c #333300",
"$	c #330000",
"%	c #FF6600",
"&	c #CC3300",
"      .......      ",
"    ..+@@@@@+..    ",
"   .+@@@@@@@@@+.   ",
"  ..@@@@@@@@@@@#.  ",
" .++..@@@@@@@..++. ",
" .@@@@..@@@..@@@@. ",
".+@@@..@@@@@..@@@+.",
".@@@@..@@@@@..@@@@.",
".@@@@@@@@@@@@@@@@@.",
".@@@@@@@....@@@@@@.",
".@@@@@@......@@@@@.",
".@@@@@........@@@@.",
".+@@@@........@@@+.",
" .@@@@...$$...@@@. ",
" .+@@@..%%%%..@@+. ",
"  .@@@@.%&&%.@@@.  ",
"   .+@@@.$$.@@+.   ",
"    ..+@@@@@+..    ",
"      .......      "};
