<?xml version="1.0" encoding="UTF-8" standalone="no"?>
<!-- Created with Inkscape (http://www.inkscape.org/) -->
<svg
   xmlns:dc="http://purl.org/dc/elements/1.1/"
   xmlns:cc="http://creativecommons.org/ns#"
   xmlns:rdf="http://www.w3.org/1999/02/22-rdf-syntax-ns#"
   xmlns:svg="http://www.w3.org/2000/svg"
   xmlns="http://www.w3.org/2000/svg"
   xmlns:xlink="http://www.w3.org/1999/xlink"
   xmlns:sodipodi="http://sodipodi.sourceforge.net/DTD/sodipodi-0.dtd"
   xmlns:inkscape="http://www.inkscape.org/namespaces/inkscape"
   width="48"
   height="48"
   id="svg2"
   sodipodi:version="0.32"
   inkscape:version="0.46"
   version="1.0"
   sodipodi:docbase="/home/hbons/Desktop"
   sodipodi:docname="question.svg"
   inkscape:export-filename="/home/hbons/Bureaublad/question.png"
   inkscape:export-xdpi="90"
   inkscape:export-ydpi="90"
   inkscape:output_extension="org.inkscape.output.svg.inkscape"
   sodipodi:modified="true">
  <defs
     id="defs4">
    <linearGradient
       inkscape:collect="always"
       id="linearGradient8711">
      <stop
         style="stop-color:#a5c2e1;stop-opacity:1"
         offset="0"
         id="stop8713" />
      <stop
         style="stop-color:#ffffff;stop-opacity:1"
         offset="1"
         id="stop8715" />
    </linearGradient>
    <linearGradient
       inkscape:collect="always"
       id="linearGradient11586">
      <stop
         style="stop-color:#ffffff;stop-opacity:1;"
         offset="0"
         id="stop11588" />
      <stop
         style="stop-color:#ffffff;stop-opacity:0;"
         offset="1"
         id="stop11590" />
    </linearGradient>
    <linearGradient
       inkscape:collect="always"
       id="linearGradient11570">
      <stop
         style="stop-color:#0a387a;stop-opacity:1"
         offset="0"
         id="stop11572" />
      <stop
         style="stop-color:#368eec;stop-opacity:1"
         offset="1"
         id="stop11574" />
    </linearGradient>
    <linearGradient
       id="linearGradient11493"
       inkscape:collect="always">
      <stop
         id="stop11495"
         offset="0"
         style="stop-color:#555753;stop-opacity:1" />
      <stop
         id="stop11497"
         offset="1"
         style="stop-color:#070808;stop-opacity:1" />
    </linearGradient>
    <linearGradient
       id="linearGradient11487"
       inkscape:collect="always">
      <stop
         id="stop11489"
         offset="0"
         style="stop-color:#538ac5;stop-opacity:1" />
      <stop
         id="stop11491"
         offset="1"
         style="stop-color:#ffffff;stop-opacity:1" />
    </linearGradient>
    <linearGradient
       inkscape:collect="always"
       id="linearGradient11474">
      <stop
         style="stop-color:#558bc5;stop-opacity:1"
         offset="0"
         id="stop11476" />
      <stop
         style="stop-color:#ffffff;stop-opacity:1"
         offset="1"
         id="stop11478" />
    </linearGradient>
    <linearGradient
       inkscape:collect="always"
       id="linearGradient11418">
      <stop
         style="stop-color:#ffffff;stop-opacity:1;"
         offset="0"
         id="stop11420" />
      <stop
         style="stop-color:#ffffff;stop-opacity:0;"
         offset="1"
         id="stop11422" />
    </linearGradient>
    <linearGradient
       inkscape:collect="always"
       id="linearGradient11333">
      <stop
         style="stop-color:#ffffff;stop-opacity:1;"
         offset="0"
         id="stop11335" />
      <stop
         style="stop-color:#ffffff;stop-opacity:0;"
         offset="1"
         id="stop11337" />
    </linearGradient>
    <linearGradient
       id="linearGradient11316"
       inkscape:collect="always">
      <stop
         id="stop11318"
         offset="0"
         style="stop-color:#edd400;stop-opacity:1" />
      <stop
         id="stop11320"
         offset="1"
         style="stop-color:#f6c93b;stop-opacity:0;" />
    </linearGradient>
    <linearGradient
       inkscape:collect="always"
       id="linearGradient11304">
      <stop
         style="stop-color:#ffffff;stop-opacity:1;"
         offset="0"
         id="stop11306" />
      <stop
         style="stop-color:#ffffff;stop-opacity:0;"
         offset="1"
         id="stop11308" />
    </linearGradient>
    <linearGradient
       inkscape:collect="always"
       id="linearGradient11292">
      <stop
         style="stop-color:#ffffff;stop-opacity:1;"
         offset="0"
         id="stop11294" />
      <stop
         style="stop-color:#ffffff;stop-opacity:0;"
         offset="1"
         id="stop11296" />
    </linearGradient>
    <linearGradient
       inkscape:collect="always"
       id="linearGradient11259">
      <stop
         style="stop-color:#ffffff;stop-opacity:1;"
         offset="0"
         id="stop11261" />
      <stop
         style="stop-color:#ffffff;stop-opacity:0;"
         offset="1"
         id="stop11263" />
    </linearGradient>
    <linearGradient
       inkscape:collect="always"
       id="linearGradient11241">
      <stop
         style="stop-color:#4f381b;stop-opacity:0.97254902"
         offset="0"
         id="stop11243" />
      <stop
         style="stop-color:#a87b42;stop-opacity:0.96078432"
         offset="1"
         id="stop11245" />
    </linearGradient>
    <linearGradient
       inkscape:collect="always"
       id="linearGradient11208">
      <stop
         style="stop-color:#c32f00;stop-opacity:1"
         offset="0"
         id="stop11210" />
      <stop
         style="stop-color:#6c1300;stop-opacity:1"
         offset="1"
         id="stop11212" />
    </linearGradient>
    <linearGradient
       inkscape:collect="always"
       id="linearGradient11196">
      <stop
         style="stop-color:#555753;stop-opacity:1"
         offset="0"
         id="stop11198" />
      <stop
         style="stop-color:#000000;stop-opacity:1"
         offset="1"
         id="stop11200" />
    </linearGradient>
    <linearGradient
       inkscape:collect="always"
       xlink:href="#linearGradient11241"
       id="linearGradient10406"
       gradientUnits="userSpaceOnUse"
       x1="14.365882"
       y1="19.515574"
       x2="11.215483"
       y2="8.2263536" />
    <linearGradient
       inkscape:collect="always"
       xlink:href="#linearGradient11493"
       id="linearGradient11202"
       x1="9.7069349"
       y1="8.5495605"
       x2="9.9879932"
       y2="10.59237"
       gradientUnits="userSpaceOnUse" />
    <linearGradient
       inkscape:collect="always"
       xlink:href="#linearGradient11196"
       id="linearGradient11206"
       gradientUnits="userSpaceOnUse"
       x1="9.7069349"
       y1="8.5495605"
       x2="9.9879932"
       y2="10.59237" />
    <linearGradient
       inkscape:collect="always"
       xlink:href="#linearGradient11208"
       id="linearGradient11214"
       x1="22.919643"
       y1="33.491837"
       x2="22.919643"
       y2="36.402832"
       gradientUnits="userSpaceOnUse"
       gradientTransform="matrix(-1,0,0,1,45.999931,1.885788e-7)" />
    <radialGradient
       inkscape:collect="always"
       xlink:href="#linearGradient11316"
       id="radialGradient11271"
       gradientUnits="userSpaceOnUse"
       gradientTransform="matrix(1.8771377,9.6878354e-8,-5.330884e-8,1.0893079,-10.4827,-2.6428601)"
       cx="11.873854"
       cy="12.147273"
       fx="11.594166"
       fy="8.8655272"
       r="9.975256" />
    <radialGradient
       inkscape:collect="always"
       xlink:href="#linearGradient11292"
       id="radialGradient11298"
       cx="24.00321"
       cy="34.70562"
       fx="24.00321"
       fy="34.70562"
       r="12.133846"
       gradientTransform="matrix(1.5208182,0,0,0.7073167,-12.501486,7.9416791)"
       gradientUnits="userSpaceOnUse" />
    <linearGradient
       inkscape:collect="always"
       xlink:href="#linearGradient11304"
       id="linearGradient11310"
       x1="8.9530411"
       y1="6.2636566"
       x2="10.732871"
       y2="9.6526775"
       gradientUnits="userSpaceOnUse" />
    <linearGradient
       inkscape:collect="always"
       xlink:href="#linearGradient11304"
       id="linearGradient11314"
       gradientUnits="userSpaceOnUse"
       x1="8.9530411"
       y1="6.2636566"
       x2="10.732871"
       y2="9.6526775" />
    <radialGradient
       inkscape:collect="always"
       xlink:href="#linearGradient11259"
       id="radialGradient11327"
       gradientUnits="userSpaceOnUse"
       gradientTransform="matrix(1.023438,0,0,0.8870879,-0.2709505,0.7064648)"
       cx="11.736404"
       cy="7.3689327"
       fx="11.800528"
       fy="1.1734189"
       r="9.975256" />
    <linearGradient
       inkscape:collect="always"
       xlink:href="#linearGradient11333"
       id="linearGradient11339"
       x1="14.6875"
       y1="11.875"
       x2="20.6875"
       y2="22.5625"
       gradientUnits="userSpaceOnUse"
       gradientTransform="translate(-2.0000685,1.885788e-7)" />
    <linearGradient
       inkscape:collect="always"
       xlink:href="#linearGradient11333"
       id="linearGradient11343"
       gradientUnits="userSpaceOnUse"
       x1="14.6875"
       y1="11.875"
       x2="20.6875"
       y2="22.5625"
       gradientTransform="translate(10.999931,1.885788e-7)" />
    <linearGradient
       inkscape:collect="always"
       xlink:href="#linearGradient11418"
       id="linearGradient11424"
       x1="22.915459"
       y1="34.796875"
       x2="22.854631"
       y2="29.835938"
       gradientUnits="userSpaceOnUse" />
    <filter
       inkscape:collect="always"
       id="filter11462"
       x="-0.078992675"
       width="1.1579853"
       y="-0.19133781"
       height="1.3826756">
      <feGaussianBlur
         inkscape:collect="always"
         stdDeviation="0.448448"
         id="feGaussianBlur11464" />
    </filter>
    <linearGradient
       inkscape:collect="always"
       xlink:href="#linearGradient11487"
       id="linearGradient11480"
       x1="14.728965"
       y1="15.785595"
       x2="16.957989"
       y2="24.104429"
       gradientUnits="userSpaceOnUse"
       gradientTransform="translate(-2.0000685,1.885788e-7)" />
    <filter
       inkscape:collect="always"
       id="filter11503"
       x="-0.11697236"
       width="1.2339447"
       y="-0.32830241"
       height="1.6566048">
      <feGaussianBlur
         inkscape:collect="always"
         stdDeviation="0.64772565"
         id="feGaussianBlur11505" />
    </filter>
    <linearGradient
       inkscape:collect="always"
       xlink:href="#linearGradient11474"
       id="linearGradient11507"
       gradientUnits="userSpaceOnUse"
       gradientTransform="matrix(-1,0,0,1,45.999932,1.885788e-7)"
       x1="14.728965"
       y1="15.785595"
       x2="16.957989"
       y2="24.104429" />
    <linearGradient
       inkscape:collect="always"
       xlink:href="#linearGradient11570"
       id="linearGradient11576"
       x1="48.140072"
       y1="17.348257"
       x2="36.310215"
       y2="9.2333107"
       gradientUnits="userSpaceOnUse"
       gradientTransform="translate(0,-2)" />
    <linearGradient
       inkscape:collect="always"
       xlink:href="#linearGradient11586"
       id="linearGradient11592"
       x1="43.267006"
       y1="14"
       x2="54.781696"
       y2="18.949747"
       gradientUnits="userSpaceOnUse" />
    <linearGradient
       inkscape:collect="always"
       xlink:href="#linearGradient11570"
       id="linearGradient8706"
       gradientUnits="userSpaceOnUse"
       gradientTransform="translate(0,-2)"
       x1="46.202572"
       y1="17.035757"
       x2="37.247715"
       y2="14.5" />
    <linearGradient
       inkscape:collect="always"
       xlink:href="#linearGradient11586"
       id="linearGradient8708"
       gradientUnits="userSpaceOnUse"
       x1="43.267006"
       y1="14"
       x2="54.781696"
       y2="18.949747"
       gradientTransform="translate(0,-2)" />
    <linearGradient
       inkscape:collect="always"
       xlink:href="#linearGradient8711"
       id="linearGradient8717"
       x1="47.873451"
       y1="13.986977"
       x2="41.067547"
       y2="12.484375"
       gradientUnits="userSpaceOnUse" />
  </defs>
  <sodipodi:namedview
     id="base"
     pagecolor="#ffffff"
     bordercolor="#666666"
     borderopacity="1.0"
     inkscape:pageopacity="0.0"
     inkscape:pageshadow="2"
     inkscape:zoom="11.313709"
     inkscape:cx="48.898255"
     inkscape:cy="29.543471"
     inkscape:document-units="px"
     inkscape:current-layer="layer1"
     showgrid="true"
     fill="#fce94f"
     inkscape:window-width="1440"
     inkscape:window-height="847"
     inkscape:window-x="0"
     inkscape:window-y="0"
     width="48px"
     height="48px"
     inkscape:snap-bbox="true"
     inkscape:snap-nodes="false"
     objecttolerance="10"
     gridtolerance="10"
     showguides="true"
     inkscape:guide-bbox="true">
    <inkscape:grid
       type="xygrid"
       id="grid10393"
       visible="true"
       enabled="true" />
  </sodipodi:namedview>
  <metadata
     id="metadata7">
    <rdf:RDF>
      <cc:Work
         rdf:about="">
        <dc:format>image/svg+xml</dc:format>
        <dc:type
           rdf:resource="http://purl.org/dc/dcmitype/StillImage" />
      </cc:Work>
    </rdf:RDF>
  </metadata>
  <g
     inkscape:label="Layer 1"
     inkscape:groupmode="layer"
     id="layer1">
    <path
       transform="matrix(2.257367,0,0,2.7454598,-1.263726,9.7889628)"
       d="M 17.393564,10.457643 A 6.6449099,2.3675451 0 1 1 4.1037445,10.457643 A 6.6449099,2.3675451 0 1 1 17.393564,10.457643 z"
       sodipodi:ry="2.3675451"
       sodipodi:rx="6.6449099"
       sodipodi:cy="10.457643"
       sodipodi:cx="10.748654"
       id="path17958"
       style="opacity:0.7342342;fill:#2e3436;fill-opacity:1;stroke:none;stroke-width:1;stroke-miterlimit:4;stroke-dasharray:none;stroke-opacity:1;display:inline;filter:url(#filter11503);enable-background:new"
       sodipodi:type="arc" />
    <path
       transform="matrix(2.0549539,0,0,2.0549096,-2.2611787,1.4304378)"
       d="M 21.781414,10.983024 A 9.975256,9.975256 0 1 1 1.8309021,10.983024 A 9.975256,9.975256 0 1 1 21.781414,10.983024 z"
       sodipodi:ry="9.975256"
       sodipodi:rx="9.975256"
       sodipodi:cy="10.983024"
       sodipodi:cx="11.806158"
       id="path17960"
       style="opacity:1;fill:#e08700;fill-opacity:1;stroke:url(#linearGradient10406);stroke-width:0.4878417;stroke-miterlimit:4;stroke-dasharray:none;stroke-opacity:1;display:inline;enable-background:new"
       sodipodi:type="arc" />
    <path
       transform="matrix(1.904713,0,0,1.904713,-0.4874115,3.0804919)"
       d="M 21.781414,10.983024 A 9.975256,9.975256 0 1 1 1.8309021,10.983024 A 9.975256,9.975256 0 1 1 21.781414,10.983024 z"
       sodipodi:ry="9.975256"
       sodipodi:rx="9.975256"
       sodipodi:cy="10.983024"
       sodipodi:cx="11.806158"
       id="path11247"
       style="opacity:1;fill:url(#radialGradient11271);fill-opacity:1;stroke:none;stroke-width:0.51155168;stroke-miterlimit:4;stroke-dasharray:none;stroke-opacity:1;display:inline;enable-background:new"
       sodipodi:type="arc" />
    <path
       transform="matrix(1.904713,0,0,1.904713,-0.4874115,3.0804919)"
       d="M 21.781414,10.983024 A 9.975256,9.975256 0 1 1 1.8309021,10.983024 A 9.975256,9.975256 0 1 1 21.781414,10.983024 z"
       sodipodi:ry="9.975256"
       sodipodi:rx="9.975256"
       sodipodi:cy="10.983024"
       sodipodi:cx="11.806158"
       id="path11257"
       style="opacity:1;fill:url(#radialGradient11327);fill-opacity:1;stroke:none;stroke-width:0.51155168;stroke-miterlimit:4;stroke-dasharray:none;stroke-opacity:1;display:inline;enable-background:new"
       sodipodi:type="arc" />
    <path
       id="path11329"
       d="M 21.499931,19.500002 C 21.499931,22.812 18.811935,25.5 15.499932,25.5 C 12.187931,25.5 9.4999315,22.812 9.4999315,19.500002 C 9.4999315,16.188 12.187931,13.5 15.499932,13.5 C 18.811935,13.5 21.499931,16.188 21.499931,19.500002 z"
       style="opacity:1;fill:none;fill-opacity:1;stroke:url(#linearGradient11339);stroke-width:1;stroke-miterlimit:4;stroke-opacity:1;display:inline;enable-background:new" />
    <path
       transform="matrix(1.954837,0,0,-1.954837,-1.0791836,45.47002)"
       d="M 21.781414,10.983024 A 9.975256,9.975256 0 1 1 1.8309021,10.983024 A 9.975256,9.975256 0 1 1 21.781414,10.983024 z"
       sodipodi:ry="9.975256"
       sodipodi:rx="9.975256"
       sodipodi:cy="10.983024"
       sodipodi:cx="11.806158"
       id="path17964"
       style="opacity:0.48699999;fill:none;fill-opacity:1;stroke:#ffffff;stroke-width:0.51155168;stroke-miterlimit:4;stroke-dasharray:none;stroke-opacity:1;display:inline;enable-background:new"
       sodipodi:type="arc" />
    <path
       id="path17966"
       d="M 20.499932,19.5 C 20.499932,22.259999 18.259935,24.499999 15.499932,24.499999 C 12.739932,24.499999 10.499932,22.259999 10.499932,19.5 C 10.499932,16.739999 12.739932,14.499999 15.499932,14.499999 C 18.259935,14.499999 20.499932,16.739999 20.499932,19.5 z"
       style="opacity:1;fill:#ffffff;fill-opacity:1;stroke:url(#linearGradient11480);stroke-width:1;stroke-miterlimit:4;stroke-opacity:1;display:inline;enable-background:new" />
    <path
       transform="matrix(2.4367989,0,0,1.5452869,-6.1538483,7.0838437)"
       d="M 10.732871,9.6526775 A 1.0259361,1.9413869 0 1 1 8.6809988,9.6526775 A 1.0259361,1.9413869 0 1 1 10.732871,9.6526775 z"
       sodipodi:ry="1.9413869"
       sodipodi:rx="1.0259361"
       sodipodi:cy="9.6526775"
       sodipodi:cx="9.7069349"
       id="path17968"
       style="opacity:1;fill:url(#linearGradient11202);fill-opacity:1;stroke:none;stroke-width:0.98640186;stroke-miterlimit:4;stroke-dasharray:none;stroke-opacity:1;display:inline;enable-background:new"
       sodipodi:type="arc" />
    <path
       sodipodi:type="inkscape:offset"
       inkscape:radius="0.98821175"
       inkscape:original="M 13 28 C 14.290259 33.138472 18.711597 37 24 37 C 29.288399 37 33.709743 33.138472 35 28 C 32.681757 31.327326 28.610225 35.09375 24 35.09375 C 19.389774 35.093751 15.318244 31.327326 13 28 z "
       style="opacity:0.37037036;fill:url(#radialGradient11298);fill-opacity:1;stroke:none;stroke-width:1;stroke-miterlimit:4;stroke-dasharray:none;stroke-opacity:1;display:inline;enable-background:new"
       id="path11288"
       d="M 12.96875,27 C 12.66316,27.004794 12.37698,27.150701 12.193604,27.395203 C 12.010227,27.639705 11.950287,27.955291 12.03125,28.25 C 13.422894,33.792238 18.230543,38 24,38 C 29.769453,38 34.577108,33.792239 35.96875,28.25 C 36.109736,27.777313 35.880605,27.273042 35.431823,27.068334 C 34.983041,26.863627 34.452032,27.021167 34.1875,27.4375 C 31.979544,30.606533 28.071998,34.09375 24,34.09375 C 19.928002,34.093751 16.020457,30.606534 13.8125,27.4375 C 13.624435,27.157127 13.306264,26.992149 12.96875,27 L 12.96875,27 z"
       transform="translate(-2.0000685,1.885788e-7)" />
    <path
       sodipodi:nodetypes="cscsc"
       id="path17974"
       d="M 10.999931,28 C 12.29019,33.138472 16.711529,37 21.999932,37 C 27.288332,37 31.709674,33.138472 32.999931,28 C 30.681688,31.327326 26.610157,35.102442 21.999932,35.102442 C 17.389707,35.102445 13.318175,31.327326 10.999931,28 z"
       style="opacity:1;fill:url(#linearGradient11214);fill-opacity:1;stroke:none;stroke-width:1;stroke-miterlimit:4;stroke-dasharray:none;stroke-opacity:1;display:inline;enable-background:new" />
    <path
       sodipodi:open="true"
       sodipodi:end="5.6135639"
       sodipodi:start="3.5782199"
       transform="matrix(3.7380737,0.6989293,-0.7062659,1.8392838,3.5297812,-10.968438)"
       d="M 7.2133909,8.4869402 A 1.2276785,1.7410715 0 0 1 9.288462,8.1425499"
       sodipodi:ry="1.7410715"
       sodipodi:rx="1.2276785"
       sodipodi:cy="9.2232141"
       sodipodi:cx="8.3258924"
       id="path11325"
       style="opacity:1;fill:none;fill-opacity:1;stroke:#ffffff;stroke-width:0.36837956;stroke-miterlimit:4;stroke-dasharray:none;stroke-opacity:1;display:inline;enable-background:new"
       sodipodi:type="arc" />
    <path
       sodipodi:open="true"
       sodipodi:end="5.6135639"
       sodipodi:start="3.5782199"
       transform="matrix(3.7380737,0.6989296,-0.7062659,1.8392846,3.5297812,-9.9684476)"
       d="M 7.2133909,8.4869402 A 1.2276785,1.7410715 0 0 1 9.288462,8.1425499"
       sodipodi:ry="1.7410715"
       sodipodi:rx="1.2276785"
       sodipodi:cy="9.2232141"
       sodipodi:cx="8.3258924"
       id="path17976"
       style="opacity:1;fill:none;fill-opacity:1;stroke:#a95300;stroke-width:0.36837947;stroke-miterlimit:4;stroke-dasharray:none;stroke-opacity:1;display:inline;enable-background:new"
       sodipodi:type="arc" />
    <path
       sodipodi:open="true"
       sodipodi:end="5.6135639"
       sodipodi:start="3.5782199"
       transform="matrix(-3.7380737,0.6989293,0.7062659,1.8392838,40.470081,-10.968438)"
       d="M 7.2133909,8.4869402 A 1.2276785,1.7410715 0 0 1 9.288462,8.1425499"
       sodipodi:ry="1.7410715"
       sodipodi:rx="1.2276785"
       sodipodi:cy="9.2232141"
       sodipodi:cx="8.3258924"
       id="path11323"
       style="opacity:1;fill:none;fill-opacity:1;stroke:#ffffff;stroke-width:0.36837956;stroke-miterlimit:4;stroke-dasharray:none;stroke-opacity:1;display:inline;enable-background:new"
       sodipodi:type="arc" />
    <path
       sodipodi:open="true"
       sodipodi:end="5.6135639"
       sodipodi:start="3.5782199"
       transform="matrix(-3.7380737,0.6989293,0.7062659,1.8392838,40.470081,-9.9684383)"
       d="M 7.2133909,8.4869402 A 1.2276785,1.7410715 0 0 1 9.288462,8.1425499"
       sodipodi:ry="1.7410715"
       sodipodi:rx="1.2276785"
       sodipodi:cy="9.2232141"
       sodipodi:cx="8.3258924"
       id="path17978"
       style="opacity:1;fill:none;fill-opacity:1;stroke:#a95300;stroke-width:0.36837956;stroke-miterlimit:4;stroke-dasharray:none;stroke-opacity:1;display:inline;enable-background:new"
       sodipodi:type="arc" />
    <path
       id="path11482"
       d="M 23.499931,19.5 C 23.499931,22.259999 25.739928,24.499999 28.499931,24.499999 C 31.259931,24.499999 33.499931,22.259999 33.499931,19.5 C 33.499931,16.739999 31.259931,14.499999 28.499931,14.499999 C 25.739928,14.499999 23.499931,16.739999 23.499931,19.5 z"
       style="opacity:1;fill:#ffffff;fill-opacity:1;stroke:url(#linearGradient11507);stroke-width:1;stroke-miterlimit:4;stroke-opacity:1;display:inline;enable-background:new" />
    <path
       transform="matrix(2.436799,0,0,1.5452869,5.8461508,7.0838441)"
       d="M 10.732871,9.6526775 A 1.0259361,1.9413869 0 1 1 8.6809988,9.6526775 A 1.0259361,1.9413869 0 1 1 10.732871,9.6526775 z"
       sodipodi:ry="1.9413869"
       sodipodi:rx="1.0259361"
       sodipodi:cy="9.6526775"
       sodipodi:cx="9.7069349"
       id="path11204"
       style="opacity:1;fill:url(#linearGradient11206);fill-opacity:1;stroke:none;stroke-width:0.98640186;stroke-miterlimit:4;stroke-dasharray:none;stroke-opacity:1;display:inline;enable-background:new"
       sodipodi:type="arc" />
    <path
       transform="matrix(1.4620795,0,0,1.0301913,3.3076893,12.055896)"
       d="M 10.732871,9.6526775 A 1.0259361,1.9413869 0 1 1 8.6809988,9.6526775 A 1.0259361,1.9413869 0 1 1 10.732871,9.6526775 z"
       sodipodi:ry="1.9413869"
       sodipodi:rx="1.0259361"
       sodipodi:cy="9.6526775"
       sodipodi:cx="9.7069349"
       id="path11300"
       style="opacity:1;fill:url(#linearGradient11310);fill-opacity:1;stroke:none;stroke-width:0.98640186;stroke-miterlimit:4;stroke-dasharray:none;stroke-opacity:1;display:inline;enable-background:new"
       sodipodi:type="arc" />
    <path
       transform="matrix(1.4620795,0,0,1.0301913,15.30769,12.055896)"
       d="M 10.732871,9.6526775 A 1.0259361,1.9413869 0 1 1 8.6809988,9.6526775 A 1.0259361,1.9413869 0 1 1 10.732871,9.6526775 z"
       sodipodi:ry="1.9413869"
       sodipodi:rx="1.0259361"
       sodipodi:cy="9.6526775"
       sodipodi:cx="9.7069349"
       id="path11312"
       style="opacity:1;fill:url(#linearGradient11314);fill-opacity:1;stroke:none;stroke-width:0.98640186;stroke-miterlimit:4;stroke-dasharray:none;stroke-opacity:1;display:inline;enable-background:new"
       sodipodi:type="arc" />
    <path
       id="path11341"
       d="M 34.499931,19.500002 C 34.499931,22.812 31.811935,25.5 28.499932,25.5 C 25.187931,25.5 22.499931,22.812 22.499931,19.500002 C 22.499931,16.188 25.187931,13.5 28.499932,13.5 C 31.811935,13.5 34.499931,16.188 34.499931,19.500002 z"
       style="opacity:1;fill:none;fill-opacity:1;stroke:url(#linearGradient11343);stroke-width:1;stroke-miterlimit:4;stroke-opacity:1;display:inline;enable-background:new" />
    <path
       sodipodi:type="arc"
       style="opacity:1;fill:url(#linearGradient11424);fill-opacity:1;fill-rule:nonzero;stroke:none;stroke-width:1;stroke-linecap:square;stroke-linejoin:miter;marker:none;marker-start:none;marker-mid:none;marker-end:none;stroke-miterlimit:4;stroke-dasharray:none;stroke-dashoffset:0;stroke-opacity:1;visibility:visible;display:inline;overflow:visible;filter:url(#filter11462);enable-background:accumulate"
       id="path11416"
       sodipodi:cx="23.25"
       sodipodi:cy="30.1875"
       sodipodi:rx="6.8125"
       sodipodi:ry="2.8125"
       d="M 30.0625,30.1875 A 6.8125,2.8125 0 1 1 16.4375,30.1875 A 6.8125,2.8125 0 1 1 30.0625,30.1875 z"
       transform="matrix(1.0275229,0,0,1.777778,-1.8899762,-24.666672)" />
    <path
       style="font-size:19.03945922999999851px;font-style:normal;font-variant:normal;font-weight:normal;font-stretch:normal;text-align:start;line-height:125%;writing-mode:lr-tb;text-anchor:start;fill:url(#linearGradient8706);fill-opacity:1;stroke:none;stroke-width:1.55613649000000009px;stroke-linecap:butt;stroke-linejoin:miter;stroke-opacity:1;font-family:Century Schoolbook L"
       d="M 40.5625,1 C 38.874477,1 37.314933,1.4226492 36.09375,2.28125 C 34.872565,3.1398509 34,4.5416345 34,6.125 C 33.999998,7.9320376 35.500885,9 37.375,9 C 38.972866,9 40.03125,8.6239064 40.03125,6.9375 C 40.03125,5.8358747 41.03125,5.7736538 41.03125,7 C 41.031252,7.5731772 40.720035,7.6923202 40.46875,8.03125 C 39.556981,9.1888218 39.147246,9.72288 38.8125,10.21875 C 37.953228,11.557311 37,12.936936 37,14.46875 C 36.999998,17.077704 39.59375,16.96875 39.59375,16.96875 C 39.236295,17.077217 38.886105,17.297356 38.5625,17.5625 C 38.550686,17.570277 38.542964,17.585834 38.53125,17.59375 C 38.424354,17.683359 38.318146,17.772605 38.21875,17.875 C 37.480053,18.516861 37,19.445308 37,20.5 C 37,22.432 38.568,24 40.5,24 C 42.432,24 44.000001,22.432 44,20.5 C 44,18.95785 43.010761,17.653479 41.625,17.1875 C 41.444379,17.110901 41.249634,17.062378 41.0625,17 C 41.763982,16.748864 42.068061,15.931257 42.0625,15.1875 C 42.051002,14.139574 42.280169,13.716262 42.375,13.5 C 43.426067,11.600594 44.954699,11.097944 46.125,9.75 C 46.749619,8.8343856 47,7.7477245 47,6.75 C 47.000001,5.1014533 46.28805,3.5482598 45.09375,2.53125 C 43.89945,1.5142402 42.298617,1 40.5625,1 z"
       id="path3346"
       sodipodi:nodetypes="csssssccscsscsssccsccssc" />
    <path
       style="font-size:19.03945922999999851px;font-style:normal;font-variant:normal;font-weight:normal;font-stretch:normal;text-align:start;line-height:125%;writing-mode:lr-tb;text-anchor:start;fill:url(#linearGradient8717);fill-opacity:1;stroke:none;stroke-width:1.55613649000000009px;stroke-linecap:butt;stroke-linejoin:miter;stroke-opacity:1;font-family:Century Schoolbook L"
       d="M 40.5625 1.96875 C 39.03732 1.96875 37.680971 2.3732797 36.65625 3.09375 C 35.664894 3.7907611 34.96875 4.9000488 34.96875 6.125 C 34.968749 6.758422 35.192622 7.1443716 35.59375 7.46875 C 35.994878 7.7931284 36.623252 8.03125 37.375 8.03125 C 38.097392 8.03125 38.596706 7.9024002 38.78125 7.78125 C 38.965794 7.6600998 39.0625 7.5766139 39.0625 6.9375 C 39.0625 6.5144976 39.145775 6.1274407 39.375 5.78125 C 39.604225 5.4350593 40.027732 5.1249297 40.53125 5.125 C 41.034768 5.1250703 41.462039 5.4531849 41.6875 5.8125 C 41.912961 6.1718151 42 6.5608281 42 7 C 42.000002 7.4631574 41.827288 7.9211544 41.625 8.1875 C 41.422712 8.453846 41.293456 8.566387 41.25 8.625 C 40.340574 9.779598 39.934939 10.290878 39.625 10.75 C 38.753163 12.108134 37.96875 13.34166 37.96875 14.46875 C 37.968749 15.449931 38.315321 15.62655 38.71875 15.8125 C 39.583542 16.168963 40.115403 16.105798 40.96875 15.84375 C 41.047882 15.684154 41.095517 15.423765 41.09375 15.1875 C 41.08066 13.994488 41.418028 13.209423 41.46875 13.09375 C 41.488628 13.071983 41.509483 13.051128 41.53125 13.03125 C 42.136141 11.938138 42.896246 11.218183 43.59375 10.65625 C 44.265082 10.115402 44.835184 9.717613 45.3125 9.1875 C 45.803013 8.468469 46.03125 7.5845097 46.03125 6.75 C 46.031251 5.3823316 45.435469 4.1044628 44.46875 3.28125 C 43.478484 2.4379857 42.105973 1.96875 40.5625 1.96875 z M 40.5 18 C 39.12 18 37.999999 19.12 38 20.5 C 38 21.88 39.119998 23 40.5 23 C 41.88 23 43.000002 21.88 43 20.5 C 43 19.12 41.879998 17.999999 40.5 18 z "
       id="path11582" />
  </g>
</svg>
