<?xml version="1.0" encoding="UTF-8" standalone="no"?>
<!-- Created with Inkscape (http://www.inkscape.org/) -->
<svg
   xmlns:dc="http://purl.org/dc/elements/1.1/"
   xmlns:cc="http://creativecommons.org/ns#"
   xmlns:rdf="http://www.w3.org/1999/02/22-rdf-syntax-ns#"
   xmlns:svg="http://www.w3.org/2000/svg"
   xmlns="http://www.w3.org/2000/svg"
   xmlns:xlink="http://www.w3.org/1999/xlink"
   xmlns:sodipodi="http://sodipodi.sourceforge.net/DTD/sodipodi-0.dtd"
   xmlns:inkscape="http://www.inkscape.org/namespaces/inkscape"
   width="24"
   height="24"
   id="svg7943"
   sodipodi:version="0.32"
   inkscape:version="0.46"
   version="1.0"
   sodipodi:docname="tray-offline.svg"
   inkscape:output_extension="org.inkscape.output.svg.inkscape"
   inkscape:export-filename="/home/hbons/Bureaublad/Projecten/Pidgin/Pidgin objecten voor 2.5.0/Pidgin Polish/tray/tray-invisible.png"
   inkscape:export-xdpi="90"
   inkscape:export-ydpi="90">
  <defs
     id="defs7945">
    <linearGradient
       inkscape:collect="always"
       id="linearGradient8907">
      <stop
         style="stop-color:#729fcf;stop-opacity:1"
         offset="0"
         id="stop8909" />
      <stop
         style="stop-color:#2f5379;stop-opacity:1"
         offset="1"
         id="stop8911" />
    </linearGradient>
    <linearGradient
       id="linearGradient29418">
      <stop
         id="stop29420"
         offset="0.0000000"
         style="stop-color:#f5f5f5;stop-opacity:1.0000000;" />
      <stop
         id="stop29422"
         offset="1.0000000"
         style="stop-color:#e9e9e9;stop-opacity:1.0000000;" />
    </linearGradient>
    <linearGradient
       inkscape:collect="always"
       xlink:href="#linearGradient29418"
       id="linearGradient8799"
       gradientUnits="userSpaceOnUse"
       gradientTransform="matrix(-0.6236299,0,0,0.6278379,30.602334,-1.5024686)"
       x1="35.003674"
       y1="10.957423"
       x2="27.273300"
       y2="24.143761" />
    <linearGradient
       inkscape:collect="always"
       id="linearGradient8710">
      <stop
         style="stop-color:#ffffff;stop-opacity:1;"
         offset="0"
         id="stop8712" />
      <stop
         style="stop-color:#c7d9ed;stop-opacity:1"
         offset="1"
         id="stop8714" />
    </linearGradient>
    <linearGradient
       inkscape:collect="always"
       xlink:href="#linearGradient8710"
       id="linearGradient8716"
       x1="9.9977369"
       y1="2.5581124"
       x2="9.9977369"
       y2="15.90989"
       gradientUnits="userSpaceOnUse" />
    <linearGradient
       inkscape:collect="always"
       xlink:href="#linearGradient8907"
       id="linearGradient8914"
       x1="11.531433"
       y1="2.0188477"
       x2="7.6475248"
       y2="16.513792"
       gradientUnits="userSpaceOnUse" />
    <linearGradient
       id="linearGradient3275"
       inkscape:collect="always">
      <stop
         id="stop3277"
         offset="0"
         style="stop-color:#2e3436;stop-opacity:1;" />
      <stop
         id="stop3279"
         offset="1"
         style="stop-color:#61635f;stop-opacity:1" />
    </linearGradient>
    <linearGradient
       id="linearGradient3295"
       inkscape:collect="always">
      <stop
         id="stop3297"
         offset="0"
         style="stop-color:#babdb6;stop-opacity:1" />
      <stop
         id="stop3299"
         offset="1"
         style="stop-color:#888a85;stop-opacity:1" />
    </linearGradient>
    <linearGradient
       id="linearGradient3303"
       inkscape:collect="always">
      <stop
         id="stop3305"
         offset="0"
         style="stop-color:#ffffff;stop-opacity:1;" />
      <stop
         id="stop3307"
         offset="1"
         style="stop-color:#ffffff;stop-opacity:0;" />
    </linearGradient>
    <linearGradient
       inkscape:collect="always"
       xlink:href="#linearGradient3295"
       id="linearGradient8231"
       gradientUnits="userSpaceOnUse"
       x1="4.8374491"
       y1="3.565635"
       x2="12.060304"
       y2="13.821809"
       gradientTransform="matrix(0.8705935,0,0,0.8662612,8.0664838,8.0686285)" />
    <linearGradient
       inkscape:collect="always"
       xlink:href="#linearGradient3275"
       id="linearGradient8233"
       gradientUnits="userSpaceOnUse"
       x1="14.345539"
       y1="14.69435"
       x2="6.8097677"
       y2="4.3450422"
       gradientTransform="matrix(0.8705935,0,0,0.8662612,8.0664838,8.0686285)" />
    <linearGradient
       inkscape:collect="always"
       xlink:href="#linearGradient3303"
       id="linearGradient8236"
       gradientUnits="userSpaceOnUse"
       x1="6.8490844"
       y1="8.6799088"
       x2="-3.3852992"
       y2="-4.1349444" />
  </defs>
  <sodipodi:namedview
     id="base"
     pagecolor="#ffffff"
     bordercolor="#666666"
     borderopacity="1.0"
     inkscape:pageopacity="0.0"
     inkscape:pageshadow="2"
     inkscape:zoom="22.627417"
     inkscape:cx="15.739764"
     inkscape:cy="11.526219"
     inkscape:current-layer="layer1"
     showgrid="true"
     inkscape:grid-bbox="true"
     inkscape:document-units="px"
     inkscape:window-width="1440"
     inkscape:window-height="847"
     inkscape:window-x="0"
     inkscape:window-y="0"
     inkscape:snap-bbox="true"
     inkscape:snap-nodes="false"
     objecttolerance="10"
     gridtolerance="10">
    <inkscape:grid
       type="xygrid"
       id="grid7872"
       visible="true"
       enabled="true" />
  </sodipodi:namedview>
  <metadata
     id="metadata7948">
    <rdf:RDF>
      <cc:Work
         rdf:about="">
        <dc:format>image/svg+xml</dc:format>
        <dc:type
           rdf:resource="http://purl.org/dc/dcmitype/StillImage" />
      </cc:Work>
    </rdf:RDF>
  </metadata>
  <g
     id="layer1"
     inkscape:label="Layer 1"
     inkscape:groupmode="layer">
    <path
       id="path29441"
       d="M 17.120074,2.4999994 C 17.911234,2.4999994 18.5,3.0785201 18.5,4.0031284 L 18.5,13.290965 C 18.5,13.958536 17.974302,14.487782 17.311203,14.487782 L 8.5609011,14.487782 C 8.0308788,15.189395 7.1533458,17.327271 4.6806888,18.274119 C 5.7815729,16.971634 5.5012166,14.487782 5.5012166,14.487782 L 4.0268295,14.487782 C 3.363733,14.487782 2.500001,13.703698 2.4999996,13.036127 L 2.4999996,3.9394188 C 2.4999996,3.2718465 3.3000234,2.4999994 3.9631199,2.4999994 L 17.120074,2.4999994 z"
       style="fill:url(#linearGradient8799);fill-opacity:1;fill-rule:nonzero;stroke:url(#linearGradient8914);stroke-width:0.99999939999999998;stroke-linecap:butt;stroke-linejoin:miter;marker:none;marker-start:none;marker-mid:none;marker-end:none;stroke-miterlimit:4;stroke-dashoffset:0;stroke-opacity:1;visibility:visible;display:block;overflow:visible"
       sodipodi:nodetypes="cccccccccccc" />
    <path
       sodipodi:type="inkscape:offset"
       inkscape:radius="-0.99184585"
       inkscape:original="M 3.71875 3.5 C 3.0556535 3.5 2.5000001 4.0511776 2.5 4.71875 L 2.5 14.28125 C 2.5000014 14.948821 3.0556534 15.5 3.71875 15.5 L 5.5 15.5 C 5.5 15.5 5.788384 17.978766 4.6875 19.28125 C 7.160157 18.334402 8.0324781 16.201613 8.5625 15.5 L 17.3125 15.5 C 17.975599 15.5 18.5 14.948821 18.5 14.28125 L 18.5 4.71875 C 18.5 4.0511777 17.975599 3.5000001 17.3125 3.5 L 3.71875 3.5 z "
       style="fill:url(#linearGradient8716);fill-opacity:1;fill-rule:nonzero;stroke:#ffffff;stroke-width:0.99999939999999998;stroke-linecap:butt;stroke-linejoin:miter;marker:none;marker-start:none;marker-mid:none;marker-end:none;stroke-miterlimit:4;stroke-dashoffset:0;stroke-opacity:1;visibility:visible;display:block;overflow:visible"
       id="path8805"
       d="M 3.71875,4.5 C 3.6052801,4.5 3.5,4.6015523 3.5,4.71875 L 3.5,14.28125 C 3.5000002,14.398448 3.6052813,14.5 3.71875,14.5 L 5.5,14.5 C 6.0083008,14.492334 6.440125,14.87018 6.5,15.375 C 6.5,15.375 6.5264519,16.055972 6.5,16.75 C 6.5214715,16.72401 6.5728376,16.713552 6.59375,16.6875 C 7.1128586,16.040814 7.3826252,15.433927 7.78125,14.90625 C 7.9639971,14.656332 8.2529544,14.506075 8.5625,14.5 L 17.3125,14.5 C 17.425973,14.5 17.5,14.429401 17.5,14.28125 L 17.5,4.71875 C 17.5,4.570597 17.425975,4.5 17.3125,4.5 L 3.71875,4.5 z"
       transform="translate(0,-1.0000002)" />
    <g
       id="g2057"
       inkscape:label="Layer 1"
       transform="translate(42.12926,5.0376345)" />
    <path
       style="fill:url(#linearGradient8231);fill-opacity:1;stroke:url(#linearGradient8233);stroke-width:0.99999833;stroke-miterlimit:4;stroke-opacity:1"
       d="M 19.651536,19.596035 C 17.100596,22.134283 12.96037,22.134712 10.409961,19.596995 C 7.8595522,17.059275 7.8599841,12.939651 10.410925,10.401404 C 12.961866,7.8631562 17.102091,7.8627263 19.6525,10.400445 C 22.202909,12.938163 22.202478,17.057788 19.651536,19.596035 z"
       id="path2187" />
    <path
       sodipodi:type="inkscape:offset"
       inkscape:radius="-1.0137641"
       inkscape:original="M 15.03125 8.5 C 13.358525 8.5001736 11.681721 9.1371259 10.40625 10.40625 C 7.8553091 12.944497 7.8558415 17.056031 10.40625 19.59375 C 12.956659 22.131467 17.105309 22.131998 19.65625 19.59375 C 22.207192 17.055503 22.206659 12.943968 19.65625 10.40625 C 18.381045 9.1373906 16.703975 8.4998264 15.03125 8.5 z "
       xlink:href="#path2187"
       style="opacity:0.4;fill:none;fill-opacity:1;stroke:url(#linearGradient8236);stroke-width:1.00200045;stroke-miterlimit:4;stroke-opacity:1"
       id="path2215"
       inkscape:href="#path2187"
       d="M 15.03125,9.5 C 13.615807,9.5001469 12.205781,10.049597 11.125,11.125 C 8.9621217,13.277115 8.9626347,16.723393 11.125,18.875 C 13.285811,21.025058 16.776176,21.02557 18.9375,18.875 C 21.100379,16.722885 21.099866,13.276605 18.9375,11.125 C 17.85696,10.049837 16.446305,9.4998531 15.03125,9.5 z"
       transform="matrix(-0.9948961,0,0,-1.0011165,29.954532,30.010608)" />
    <path
       style="fill:#eeeeec;fill-opacity:1;stroke:#555753;stroke-width:1.00000036;stroke-miterlimit:4;stroke-dasharray:none;stroke-opacity:1"
       d="M 18.389146,11.620482 C 17.839918,11.072738 17.23793,10.863672 16.688702,11.411416 L 15.036388,13.059262 L 13.384074,11.411416 C 12.834845,10.863672 12.197152,11.142764 11.647923,11.690508 C 11.098694,12.238251 10.852068,12.841088 11.401297,13.388831 L 13.053611,15.036678 L 11.401297,16.684524 C 10.852068,17.232268 11.096483,17.934576 11.645712,18.482321 C 12.194941,19.030063 12.834845,19.209683 13.384074,18.66194 L 15.036388,17.014093 L 16.688702,18.66194 C 17.23793,19.209683 17.910224,19.0331 18.459452,18.485357 C 19.008681,17.937612 19.220707,17.232268 18.671478,16.684524 L 17.019165,15.036678 L 18.671478,13.388832 C 19.220707,12.841088 18.938375,12.168226 18.389146,11.620482 z"
       id="rect2920"
       sodipodi:nodetypes="ccccscccscccscccc" />
  </g>
</svg>
