<?xml version="1.0" encoding="utf-8"?>
<!-- Generator: Adobe Illustrator 15.1.0, SVG Export Plug-In . SVG Version: 6.00 Build 0)  -->
<!DOCTYPE svg PUBLIC "-//W3C//DTD SVG 1.1//EN" "http://www.w3.org/Graphics/SVG/1.1/DTD/svg11.dtd">
<svg version="1.1" id="Layer_1" xmlns="http://www.w3.org/2000/svg" xmlns:xlink="http://www.w3.org/1999/xlink" x="0px" y="0px"
	 width="48px" height="48px" viewBox="0 0 48 48" enable-background="new 0 0 48 48" xml:space="preserve">
<g>
	
		<linearGradient id="SVGID_1_" gradientUnits="userSpaceOnUse" x1="-0.5654" y1="38.3721" x2="-1.3676" y2="-7.5858" gradientTransform="matrix(1 0 0 -1 24.9448 39.3594)">
		<stop  offset="0" style="stop-color:#D67B43"/>
		<stop  offset="0.2638" style="stop-color:#D16841"/>
		<stop  offset="1" style="stop-color:#CB222B"/>
	</linearGradient>
	<path fill="url(#SVGID_1_)" d="M1,23.964c0,17.022,5.954,22.978,22.978,22.978s22.978-5.953,22.978-22.978
		C46.956,7.315,41.254,1.259,25.077,1h-2.194C6.702,1.259,1,7.315,1,23.964"/>
	<g>
		<rect x="20.251" y="22.668" fill="#FFFFFF" width="6.656" height="12.984"/>
		<path fill="#FFFFFF" d="M30.659,12.288h-20.03v5.796l0,0c0,0.003,0,0.007,0,0.011c0,0.478,0.387,0.864,0.865,0.864
			c0.008,0,0.017-0.002,0.027-0.002c0,0.002,0,0.003,0.002,0.005h15.795c0,0,3.34,0,3.34,3.34v10.012
			c0,1.947,1.39,3.338,3.336,3.338h3.331V18.714C37.156,12.291,30.659,12.288,30.659,12.288z"/>
		<path fill="#FFFFFF" d="M10.629,32.314c0,1.949,1.391,3.338,3.337,3.338h3.322V22.657h-6.659V32.314z"/>
	</g>
</g>
</svg>
