<?xml version="1.0" encoding="UTF-8" standalone="no"?>
<!-- Created with Inkscape (http://www.inkscape.org/) -->
<svg
   xmlns:dc="http://purl.org/dc/elements/1.1/"
   xmlns:cc="http://creativecommons.org/ns#"
   xmlns:rdf="http://www.w3.org/1999/02/22-rdf-syntax-ns#"
   xmlns:svg="http://www.w3.org/2000/svg"
   xmlns="http://www.w3.org/2000/svg"
   xmlns:sodipodi="http://sodipodi.sourceforge.net/DTD/sodipodi-0.dtd"
   xmlns:inkscape="http://www.inkscape.org/namespaces/inkscape"
   width="16px"
   height="16px"
   id="svg1872"
   sodipodi:version="0.32"
   inkscape:version="0.46"
   sodipodi:docbase="/home/hbons/Desktop"
   sodipodi:docname="tray-extended-away.svg"
   inkscape:output_extension="org.inkscape.output.svg.inkscape">
  <defs
     id="defs1874" />
  <sodipodi:namedview
     id="base"
     pagecolor="#ffffff"
     bordercolor="#666666"
     borderopacity="1.0"
     inkscape:pageopacity="0.0"
     inkscape:pageshadow="2"
     inkscape:zoom="22.197802"
     inkscape:cx="23.810832"
     inkscape:cy="5.890161"
     inkscape:current-layer="layer1"
     showgrid="true"
     inkscape:grid-bbox="true"
     inkscape:document-units="px"
     inkscape:window-width="1440"
     inkscape:window-height="847"
     inkscape:window-x="0"
     inkscape:window-y="0" />
  <metadata
     id="metadata1877">
    <rdf:RDF>
      <cc:Work
         rdf:about="">
        <dc:format>image/svg+xml</dc:format>
        <dc:type
           rdf:resource="http://purl.org/dc/dcmitype/StillImage" />
      </cc:Work>
    </rdf:RDF>
  </metadata>
  <g
     id="layer1"
     inkscape:label="Layer 1"
     inkscape:groupmode="layer">
    <path
       style="fill:#efefef;fill-opacity:1;fill-rule:evenodd;stroke:#787878;stroke-width:1.00000036;stroke-miterlimit:4;stroke-dasharray:none;stroke-opacity:1"
       d="M 9.418273,0.49999995 C 10.02141,0.49999995 10.500003,1.0061936 10.500003,1.6499642 L 10.500003,8.32996 C 10.500003,8.9737304 10.021411,9.4799242 9.418273,9.4799242 L 5.2414529,9.4799242 L 2.471336,11.429863 L 2.471336,9.4799242 L 1.5817316,9.4799242 C 0.9785936,9.4799242 0.49999957,8.9737304 0.50000033,8.32996 L 0.50000033,1.6499642 C 0.50000033,1.0061936 0.9785936,0.49999995 1.5817316,0.49999995 L 9.418273,0.49999995 z "
       id="path2221"
       sodipodi:nodetypes="cccccccccccc" />
    <path
       style="fill:none;fill-opacity:1;fill-rule:evenodd;stroke:white;stroke-width:1;stroke-miterlimit:4;stroke-dasharray:none;stroke-opacity:1"
       d="M 9.2045414,1.5000001 C 9.3816286,1.5000001 9.4999957,1.6028844 9.4999957,1.7987807 L 9.4999957,7.3475646 C 9.4999957,7.543461 9.3816293,7.6463453 9.2045414,7.6463453 L 4.9999978,8.3220879 C 4.8242182,8.3232475 4.6547723,8.3838621 4.5227251,8.4928197 L 3.7045437,9.175747 L 3.7045437,9.0050151 C 3.7025982,8.6286041 3.3781242,8.3239148 2.9772712,8.3220879 L 1.7954537,7.6463453 C 1.6183665,7.6463453 1.4999993,7.5434596 1.4999993,7.3475646 L 1.4999993,1.7987807 C 1.4999993,1.6028846 1.6183665,1.5000001 1.7954537,1.5000001 L 9.2045414,1.5000001 z "
       id="path5807"
       sodipodi:nodetypes="cccccccccccccc" />
    <path
       style="fill:#fce94f;fill-opacity:1;stroke:#ce5c00;stroke-width:0.99999905;stroke-miterlimit:4;stroke-opacity:1"
       d="M 15.499991,8.1704554 L 12.602266,5.4999994 L 6.9176132,5.4999994 C 6.0082464,5.4999994 5.499995,6.0912626 5.499995,6.8290761 L 5.499995,15.500001 L 15.499991,15.500001 L 15.499991,8.1704554 z "
       id="rect5097"
       sodipodi:nodetypes="ccccccc" />
    <path
       style="opacity:0.5625;fill:none;fill-opacity:1;stroke:#eeeeec;stroke-width:0.99999952;stroke-miterlimit:4;stroke-opacity:1"
       d="M 14.457283,8.560765 L 12.183694,6.5000011 L 6.4999976,6.5128218 L 6.4999976,14.500001 L 14.499996,14.500001 L 14.457283,8.560765 z "
       id="rect5099"
       sodipodi:nodetypes="cccccc" />
    <rect
       style="opacity:0.4;fill:#ce5c00;fill-opacity:1;stroke:none;stroke-width:1;stroke-miterlimit:4;stroke-dasharray:none;stroke-opacity:1"
       id="rect5988"
       width="1"
       height="2.0000002"
       x="-12"
       y="7"
       transform="scale(-1,1)" />
    <rect
       style="opacity:0.4;fill:#ce5c00;fill-opacity:1;stroke:none;stroke-width:1;stroke-miterlimit:4;stroke-dasharray:none;stroke-opacity:1"
       id="rect5990"
       width="0.99999851"
       height="1.9999995"
       x="8.0000114"
       y="12.000002"
       transform="matrix(-2.004699e-7,1,1,-8.326572e-7,0,0)" />
    <rect
       style="fill:#888a85;fill-opacity:1;stroke:none;stroke-width:1;stroke-miterlimit:4;stroke-dasharray:none;stroke-opacity:1"
       id="rect7300"
       width="4"
       height="1"
       x="8"
       y="12" />
    <rect
       style="fill:#888a85;fill-opacity:1;stroke:none;stroke-width:1;stroke-miterlimit:4;stroke-dasharray:none;stroke-opacity:1"
       id="rect7302"
       width="3.6559839"
       height="0.91399604"
       x="8"
       y="10.086004" />
    <rect
       style="fill:#888a85;fill-opacity:1;stroke:none;stroke-width:1;stroke-miterlimit:4;stroke-dasharray:none;stroke-opacity:1"
       id="rect7304"
       width="2"
       height="1"
       x="8"
       y="8" />
  </g>
</svg>
