<?xml version="1.0" encoding="UTF-8" standalone="no"?>
<!-- Created with Inkscape (http://www.inkscape.org/) -->
<svg
   xmlns:dc="http://purl.org/dc/elements/1.1/"
   xmlns:cc="http://creativecommons.org/ns#"
   xmlns:rdf="http://www.w3.org/1999/02/22-rdf-syntax-ns#"
   xmlns:svg="http://www.w3.org/2000/svg"
   xmlns="http://www.w3.org/2000/svg"
   xmlns:xlink="http://www.w3.org/1999/xlink"
   xmlns:sodipodi="http://sodipodi.sourceforge.net/DTD/sodipodi-0.dtd"
   xmlns:inkscape="http://www.inkscape.org/namespaces/inkscape"
   width="16"
   height="16"
   id="svg2"
   sodipodi:version="0.32"
   inkscape:version="0.46"
   version="1.0"
   sodipodi:docbase="/home/hbons/Desktop"
   sodipodi:docname="tray-connecting.svg"
   inkscape:export-filename="/home/hbons/GUI/Tango/Gaim Refresh/notification-area/tray-connecting.png"
   inkscape:export-xdpi="90"
   inkscape:export-ydpi="90"
   inkscape:output_extension="org.inkscape.output.svg.inkscape">
  <defs
     id="defs4">
    <linearGradient
       inkscape:collect="always"
       id="linearGradient5189">
      <stop
         style="stop-color:white;stop-opacity:1;"
         offset="0"
         id="stop5191" />
      <stop
         style="stop-color:white;stop-opacity:0;"
         offset="1"
         id="stop5193" />
    </linearGradient>
    <linearGradient
       inkscape:collect="always"
       id="linearGradient5167">
      <stop
         style="stop-color:#204a87;stop-opacity:1;"
         offset="0"
         id="stop5169" />
      <stop
         style="stop-color:#204a87;stop-opacity:0;"
         offset="1"
         id="stop5171" />
    </linearGradient>
    <linearGradient
       inkscape:collect="always"
       xlink:href="#linearGradient5167"
       id="linearGradient5173"
       x1="2.532984"
       y1="19.600262"
       x2="4.5063553"
       y2="19.600262"
       gradientUnits="userSpaceOnUse"
       gradientTransform="matrix(1.520241,0,0,0.83297,-6.850746,-7.826426)" />
    <linearGradient
       inkscape:collect="always"
       xlink:href="#linearGradient5189"
       id="linearGradient5195"
       x1="13.140625"
       y1="17.39238"
       x2="13.140625"
       y2="19.558514"
       gradientUnits="userSpaceOnUse" />
    <linearGradient
       inkscape:collect="always"
       xlink:href="#linearGradient5189"
       id="linearGradient5199"
       gradientUnits="userSpaceOnUse"
       x1="13.140625"
       y1="17.39238"
       x2="13.140625"
       y2="19.558514" />
  </defs>
  <sodipodi:namedview
     id="base"
     pagecolor="#ffffff"
     bordercolor="#666666"
     borderopacity="1.0"
     inkscape:pageopacity="0.0"
     inkscape:pageshadow="2"
     inkscape:zoom="25.730843"
     inkscape:cx="9.7885693"
     inkscape:cy="10.965701"
     inkscape:document-units="px"
     inkscape:current-layer="layer1"
     showgrid="true"
     fill="#d3d7cf"
     inkscape:window-width="1274"
     inkscape:window-height="848"
     inkscape:window-x="219"
     inkscape:window-y="606"
     width="16px"
     height="16px" />
  <metadata
     id="metadata7">
    <rdf:RDF>
      <cc:Work
         rdf:about="">
        <dc:format>image/svg+xml</dc:format>
        <dc:type
           rdf:resource="http://purl.org/dc/dcmitype/StillImage" />
      </cc:Work>
    </rdf:RDF>
  </metadata>
  <g
     inkscape:label="Layer 1"
     inkscape:groupmode="layer"
     id="layer1">
    <rect
       style="opacity:1;fill:#fce94f;fill-opacity:1;stroke:#c4a000;stroke-width:1;stroke-miterlimit:4;stroke-dasharray:none;stroke-opacity:1"
       id="rect5163"
       width="3.9243481"
       height="2.000005"
       x="5.5"
       y="9.4999905"
       rx="0.92197275"
       ry="1.0000025" />
    <rect
       style="opacity:1;fill:#fce94f;fill-opacity:1;stroke:#c4a000;stroke-width:0.99999958;stroke-miterlimit:4;stroke-dasharray:none;stroke-opacity:1"
       id="rect4276"
       width="3.0000005"
       height="1.9999996"
       x="6.4999995"
       y="5.4999957"
       rx="0.70481014"
       ry="0.99999982" />
    <path
       style="opacity:1;fill:#729fcf;fill-opacity:1;stroke:#204a87;stroke-width:0.99999899;stroke-miterlimit:4;stroke-dasharray:none;stroke-opacity:1"
       d="M 5.4454196,4.4999958 C 3.5422197,4.4999958 3.5000001,6.8300533 3.5000001,6.8300533 L 3.5522474,9.8333292 C 3.5522474,9.8333292 3.4852045,12.499995 5.4454196,12.499995 L 7.5000026,12.499995 C 7.5000026,10.21962 7.5000026,6.7931358 7.5000026,4.4999958 L 5.4454196,4.4999958 z "
       id="rect4812"
       sodipodi:nodetypes="ccccccc" />
    <rect
       style="opacity:1;fill:url(#linearGradient5173);fill-opacity:1;stroke:none;stroke-width:1;stroke-miterlimit:4;stroke-dasharray:none;stroke-opacity:1"
       id="rect5165"
       width="3"
       height="1"
       x="-3"
       y="7.9999962"
       transform="scale(-1,1)" />
    <path
       style="opacity:1;fill:#729fcf;fill-opacity:1;stroke:#204a87;stroke-width:0.99999928;stroke-miterlimit:4;stroke-dasharray:none;stroke-opacity:1"
       d="M 13.554581,4.499996 C 15.45778,4.499996 15.5,6.8300545 15.5,6.8300545 L 15.447753,9.8333318 C 15.447753,9.8333318 15.514797,12.5 13.554581,12.5 L 11.499997,12.5 C 11.499997,10.219623 11.499997,6.7931371 11.499997,4.499996 L 13.554581,4.499996 z "
       id="path5179"
       sodipodi:nodetypes="ccccccc" />
    <path
       sodipodi:type="inkscape:offset"
       inkscape:radius="-0.70056742"
       inkscape:original="M 13.09375 15.5 C 11.825955 15.5 11.8125 17.25 11.8125 17.25 L 11.84375 19.5 C 11.84375 19.5 11.787975 21.5 13.09375 21.5 L 14.46875 21.5 C 14.46875 19.789718 14.46875 17.219855 14.46875 15.5 L 13.09375 15.5 z "
       style="opacity:0.4585153;fill:#729fcf;fill-opacity:1;stroke:url(#linearGradient5195);stroke-width:0.71123713;stroke-miterlimit:4;stroke-dasharray:none;stroke-opacity:1"
       id="path5187"
       d="M 13.09375,16.1875 C 12.937973,16.1875 12.909638,16.221044 12.84375,16.28125 C 12.777862,16.341456 12.680104,16.476035 12.625,16.625 C 12.514791,16.92293 12.5,17.25 12.5,17.25 L 12.53125,19.5 C 12.531482,19.510415 12.531482,19.520835 12.53125,19.53125 C 12.53125,19.53125 12.547019,19.946636 12.65625,20.3125 C 12.710866,20.495432 12.775674,20.6472 12.84375,20.71875 C 12.911826,20.7903 12.946144,20.8125 13.09375,20.8125 L 13.78125,20.8125 C 13.78125,19.359615 13.78125,17.646073 13.78125,16.1875 L 13.09375,16.1875 z "
       transform="matrix(1.56098,0,0,1.266408,-15.01225,-14.99999)" />
    <path
       sodipodi:type="inkscape:offset"
       inkscape:radius="-0.70056742"
       inkscape:original="M 13.09375 15.5 C 11.825955 15.5 11.8125 17.25 11.8125 17.25 L 11.84375 19.5 C 11.84375 19.5 11.787975 21.5 13.09375 21.5 L 14.46875 21.5 C 14.46875 19.789718 14.46875 17.219855 14.46875 15.5 L 13.09375 15.5 z "
       style="opacity:0.4585153;fill:#729fcf;fill-opacity:1;stroke:url(#linearGradient5199);stroke-width:0.70271838;stroke-miterlimit:4;stroke-dasharray:none;stroke-opacity:1"
       id="path5197"
       d="M 13.09375,16.1875 C 12.937973,16.1875 12.909638,16.221044 12.84375,16.28125 C 12.777862,16.341456 12.680104,16.476035 12.625,16.625 C 12.514791,16.92293 12.5,17.25 12.5,17.25 L 12.53125,19.5 C 12.531482,19.510415 12.531482,19.520835 12.53125,19.53125 C 12.53125,19.53125 12.547019,19.946636 12.65625,20.3125 C 12.710866,20.495432 12.775674,20.6472 12.84375,20.71875 C 12.911826,20.7903 12.946144,20.8125 13.09375,20.8125 L 13.78125,20.8125 C 13.78125,19.359615 13.78125,17.646073 13.78125,16.1875 L 13.09375,16.1875 z "
       transform="matrix(-1.56098,0,0,1.297298,34.01224,-15.50001)" />
  </g>
</svg>
