<?xml version="1.0" encoding="UTF-8" standalone="no"?>
<!-- Created with Inkscape (http://www.inkscape.org/) -->
<svg
   xmlns:dc="http://purl.org/dc/elements/1.1/"
   xmlns:cc="http://creativecommons.org/ns#"
   xmlns:rdf="http://www.w3.org/1999/02/22-rdf-syntax-ns#"
   xmlns:svg="http://www.w3.org/2000/svg"
   xmlns="http://www.w3.org/2000/svg"
   xmlns:sodipodi="http://sodipodi.sourceforge.net/DTD/sodipodi-0.dtd"
   xmlns:inkscape="http://www.inkscape.org/namespaces/inkscape"
   width="16px"
   height="16px"
   id="svg1872"
   sodipodi:version="0.32"
   inkscape:version="0.46"
   sodipodi:docbase="/home/hbons/Desktop"
   sodipodi:docname="tray-message.svg"
   inkscape:output_extension="org.inkscape.output.svg.inkscape">
  <defs
     id="defs1874" />
  <sodipodi:namedview
     id="base"
     pagecolor="#ffffff"
     bordercolor="#666666"
     borderopacity="1.0"
     inkscape:pageopacity="0.0"
     inkscape:pageshadow="2"
     inkscape:zoom="7.8481082"
     inkscape:cx="20.589801"
     inkscape:cy="5.5495262"
     inkscape:current-layer="layer1"
     showgrid="true"
     inkscape:grid-bbox="true"
     inkscape:document-units="px"
     inkscape:window-width="1440"
     inkscape:window-height="847"
     inkscape:window-x="0"
     inkscape:window-y="0" />
  <metadata
     id="metadata1877">
    <rdf:RDF>
      <cc:Work
         rdf:about="">
        <dc:format>image/svg+xml</dc:format>
        <dc:type
           rdf:resource="http://purl.org/dc/dcmitype/StillImage" />
      </cc:Work>
    </rdf:RDF>
  </metadata>
  <g
     id="layer1"
     inkscape:label="Layer 1"
     inkscape:groupmode="layer">
    <path
       style="fill:#efefef;fill-opacity:1;fill-rule:evenodd;stroke:#787878;stroke-width:1.00000036;stroke-miterlimit:4;stroke-dasharray:none;stroke-opacity:1"
       d="M 9.418273,0.49999995 C 10.02141,0.49999995 10.500003,1.0061936 10.500003,1.6499642 L 10.500003,8.32996 C 10.500003,8.9737304 10.021411,9.4799242 9.418273,9.4799242 L 5.2414529,9.4799242 L 2.471336,11.429863 L 2.471336,9.4799242 L 1.5817316,9.4799242 C 0.9785936,9.4799242 0.49999957,8.9737304 0.50000033,8.32996 L 0.50000033,1.6499642 C 0.50000033,1.0061936 0.9785936,0.49999995 1.5817316,0.49999995 L 9.418273,0.49999995 z "
       id="path2221"
       sodipodi:nodetypes="cccccccccccc" />
    <path
       style="fill:none;fill-opacity:1;fill-rule:evenodd;stroke:white;stroke-width:1;stroke-miterlimit:4;stroke-dasharray:none;stroke-opacity:1"
       d="M 9.2045414,1.5000001 C 9.3816286,1.5000001 9.4999957,1.6028844 9.4999957,1.7987807 L 9.4999957,7.3475646 C 9.4999957,7.543461 9.3816293,7.6463453 9.2045414,7.6463453 L 4.9999978,8.3220879 C 4.8242182,8.3232475 4.6547723,8.3838621 4.5227251,8.4928197 L 3.7045437,9.175747 L 3.7045437,9.0050151 C 3.7025982,8.6286041 3.3781242,8.3239148 2.9772712,8.3220879 L 1.7954537,7.6463453 C 1.6183665,7.6463453 1.4999993,7.5434596 1.4999993,7.3475646 L 1.4999993,1.7987807 C 1.4999993,1.6028846 1.6183665,1.5000001 1.7954537,1.5000001 L 9.2045414,1.5000001 z "
       id="path5807"
       sodipodi:nodetypes="cccccccccccccc" />
    <path
       style="fill:#efefef;fill-opacity:1;stroke:#888a85;stroke-width:1.00000167;stroke-miterlimit:4;stroke-opacity:1"
       d="M 6.4416648,8.0767122 L 14.508728,8.0767122 C 15.030409,8.0767122 15.450391,8.4774422 15.450391,8.9752122 L 15.450391,14.601489 C 15.450391,15.099258 15.030409,15.49999 14.508728,15.49999 L 6.4416648,15.49999 C 5.9199828,15.49999 5.5000008,15.099258 5.5000008,14.601489 L 5.5000008,8.9752122 C 5.5000008,8.4774422 5.9199828,8.0767122 6.4416648,8.0767122 z "
       id="path7503" />
    <path
       style="opacity:0.4;fill:none;fill-opacity:1;stroke:white;stroke-width:1.00000155;stroke-miterlimit:4;stroke-opacity:1"
       d="M 7.1139138,8.9015152 L 13.836463,8.9015152 C 14.271197,8.9015152 14.621182,9.2131942 14.621182,9.6003474 L 14.621182,13.976335 C 14.621182,14.363489 14.271197,14.675168 13.836463,14.675168 L 7.1139138,14.675168 C 6.6791788,14.675168 6.3291938,14.363489 6.3291938,13.976335 L 6.3291938,9.6003474 C 6.3291938,9.2131942 6.6791788,8.9015152 7.1139138,8.9015152 z "
       id="path7507" />
    <path
       style="opacity:0.4;fill:none;fill-opacity:1;stroke:white;stroke-width:0.99999934;stroke-miterlimit:4;stroke-opacity:1"
       d="M 10.475189,12.200748 L 7.1583938,14.675172 L 13.791985,14.675172 L 10.475189,12.200748 z "
       id="path7509" />
    <path
       style="fill:#eeeeec;fill-opacity:1;stroke:#babdb6;stroke-width:1.00000119;stroke-miterlimit:4;stroke-opacity:1"
       d="M 14.763998,15.500002 L 6.2015868,15.500002 C 5.8167108,15.500002 5.5068658,15.13371 5.5068658,14.678722 L 10.472899,10.500001 L 15.458721,14.678722 C 15.458721,15.13371 15.148874,15.500002 14.763998,15.500002 z "
       id="path7499" />
    <path
       style="opacity:0.4;fill:none;fill-opacity:1;stroke:white;stroke-width:1.00000119;stroke-miterlimit:4;stroke-opacity:1"
       d="M 7.1583978,8.9015212 L 10.475193,11.375936 L 13.791988,8.9015212 L 7.1583978,8.9015212 z "
       id="path7512" />
    <path
       style="fill:#eeeeec;fill-opacity:1;stroke:#babdb6;stroke-width:1.00000131;stroke-miterlimit:4;stroke-opacity:1"
       d="M 14.763998,7.5000019 L 6.2015868,7.5000019 C 5.8167108,7.5000019 5.5068658,7.8662936 5.5068658,8.3212822 L 10.472899,12.499995 L 15.458721,8.3212822 C 15.458721,7.8662936 15.148874,7.5000019 14.763998,7.5000019 z "
       id="path7514" />
    <path
       style="fill:none;fill-opacity:1;stroke:#888a85;stroke-width:1.00000155;stroke-miterlimit:4;stroke-opacity:1"
       d="M 6.4463598,7.500006 L 14.553645,7.500006 C 15.077927,7.500006 15.500003,7.9318687 15.500003,8.4683105 L 15.500003,14.531693 C 15.500003,15.068134 15.077927,15.499999 14.553645,15.499999 L 6.4463598,15.499999 C 5.9220768,15.499999 5.5000008,15.068134 5.5000008,14.531693 L 5.5000008,8.4683105 C 5.5000008,7.9318687 5.9220768,7.500006 6.4463598,7.500006 z "
       id="path7501" />
  </g>
</svg>
