<?xml version="1.0" encoding="UTF-8" standalone="no"?>
<!-- Created with Inkscape (http://www.inkscape.org/) -->
<svg
   xmlns:dc="http://purl.org/dc/elements/1.1/"
   xmlns:cc="http://creativecommons.org/ns#"
   xmlns:rdf="http://www.w3.org/1999/02/22-rdf-syntax-ns#"
   xmlns:svg="http://www.w3.org/2000/svg"
   xmlns="http://www.w3.org/2000/svg"
   xmlns:xlink="http://www.w3.org/1999/xlink"
   xmlns:sodipodi="http://sodipodi.sourceforge.net/DTD/sodipodi-0.dtd"
   xmlns:inkscape="http://www.inkscape.org/namespaces/inkscape"
   width="16px"
   height="16px"
   id="svg1872"
   sodipodi:version="0.32"
   inkscape:version="0.46"
   sodipodi:docbase="/home/hbons/Desktop"
   sodipodi:docname="tray-offline.svg"
   inkscape:output_extension="org.inkscape.output.svg.inkscape">
  <defs
     id="defs1874">
    <linearGradient
       id="linearGradient2781"
       inkscape:collect="always">
      <stop
         id="stop2783"
         offset="0"
         style="stop-color:black;stop-opacity:1;" />
      <stop
         id="stop2785"
         offset="1"
         style="stop-color:black;stop-opacity:0;" />
    </linearGradient>
    <linearGradient
       id="linearGradient2804">
      <stop
         id="stop2806"
         offset="0"
         style="stop-color:black;stop-opacity:0;" />
      <stop
         style="stop-color:black;stop-opacity:1;"
         offset="0.5"
         id="stop2812" />
      <stop
         id="stop2808"
         offset="1"
         style="stop-color:black;stop-opacity:0;" />
    </linearGradient>
    <radialGradient
       inkscape:collect="always"
       xlink:href="#linearGradient2781"
       id="radialGradient1970"
       gradientUnits="userSpaceOnUse"
       gradientTransform="matrix(2,0,0,0.8,-13,-79.2)"
       cx="1"
       cy="44"
       fx="1"
       fy="44"
       r="5" />
    <radialGradient
       inkscape:collect="always"
       xlink:href="#linearGradient2781"
       id="radialGradient1972"
       gradientUnits="userSpaceOnUse"
       gradientTransform="matrix(2,0,0,0.8,36,8.8)"
       cx="1"
       cy="44"
       fx="1"
       fy="44"
       r="5" />
    <linearGradient
       inkscape:collect="always"
       xlink:href="#linearGradient2804"
       id="linearGradient1974"
       gradientUnits="userSpaceOnUse"
       x1="21.875"
       y1="48.000977"
       x2="21.875"
       y2="40" />
    <linearGradient
       id="linearGradient2225"
       inkscape:collect="always">
      <stop
         id="stop2227"
         offset="0"
         style="stop-color:#eeeeec;stop-opacity:1;" />
      <stop
         id="stop2229"
         offset="1"
         style="stop-color:#eeeeec;stop-opacity:0;" />
    </linearGradient>
    <radialGradient
       inkscape:collect="always"
       xlink:href="#linearGradient2781"
       id="radialGradient3201"
       gradientUnits="userSpaceOnUse"
       gradientTransform="matrix(2,0,0,0.8,-13,-79.2)"
       cx="1"
       cy="44"
       fx="1"
       fy="44"
       r="5" />
    <radialGradient
       inkscape:collect="always"
       xlink:href="#linearGradient2781"
       id="radialGradient3203"
       gradientUnits="userSpaceOnUse"
       gradientTransform="matrix(2,0,0,0.8,36,8.8)"
       cx="1"
       cy="44"
       fx="1"
       fy="44"
       r="5" />
    <linearGradient
       inkscape:collect="always"
       xlink:href="#linearGradient2804"
       id="linearGradient3205"
       gradientUnits="userSpaceOnUse"
       x1="21.875"
       y1="48.000977"
       x2="21.875"
       y2="40" />
    <linearGradient
       inkscape:collect="always"
       xlink:href="#linearGradient2225"
       id="linearGradient3211"
       gradientUnits="userSpaceOnUse"
       x1="11.802028"
       y1="1.9986149"
       x2="11.802028"
       y2="14.895812"
       gradientTransform="matrix(0.799641,0,0,0.799917,3.703059,-1.099214)" />
  </defs>
  <sodipodi:namedview
     id="base"
     pagecolor="#ffffff"
     bordercolor="#666666"
     borderopacity="1.0"
     inkscape:pageopacity="0.0"
     inkscape:pageshadow="2"
     inkscape:zoom="22.197802"
     inkscape:cx="20.94098"
     inkscape:cy="10.016866"
     inkscape:current-layer="layer1"
     showgrid="true"
     inkscape:grid-bbox="true"
     inkscape:document-units="px"
     inkscape:window-width="1440"
     inkscape:window-height="847"
     inkscape:window-x="0"
     inkscape:window-y="0" />
  <metadata
     id="metadata1877">
    <rdf:RDF>
      <cc:Work
         rdf:about="">
        <dc:format>image/svg+xml</dc:format>
        <dc:type
           rdf:resource="http://purl.org/dc/dcmitype/StillImage" />
      </cc:Work>
    </rdf:RDF>
  </metadata>
  <g
     id="layer1"
     inkscape:label="Layer 1"
     inkscape:groupmode="layer">
    <g
       id="g2249"
       style="opacity:0.3"
       transform="matrix(-0.274688,0,0,0.504311,12.18504,-12.90685)">
      <rect
         transform="scale(-1,-1)"
         y="-48"
         x="-11"
         height="8"
         width="10"
         id="rect2251"
         style="opacity:1;color:black;fill:url(#radialGradient1970);fill-opacity:1;fill-rule:nonzero;stroke:none;stroke-width:1;stroke-linecap:square;stroke-linejoin:round;marker:none;marker-start:none;marker-mid:none;marker-end:none;stroke-miterlimit:4;stroke-dasharray:none;stroke-dashoffset:1.20000057;stroke-opacity:1;visibility:visible;display:inline;overflow:visible" />
      <rect
         y="40"
         x="38"
         height="8"
         width="10"
         id="rect2253"
         style="opacity:1;color:black;fill:url(#radialGradient1972);fill-opacity:1;fill-rule:nonzero;stroke:none;stroke-width:1;stroke-linecap:square;stroke-linejoin:round;marker:none;marker-start:none;marker-mid:none;marker-end:none;stroke-miterlimit:4;stroke-dasharray:none;stroke-dashoffset:1.20000057;stroke-opacity:1;visibility:visible;display:inline;overflow:visible" />
      <rect
         y="40"
         x="11"
         height="8"
         width="27"
         id="rect2255"
         style="opacity:1;color:black;fill:url(#linearGradient1974);fill-opacity:1;fill-rule:nonzero;stroke:none;stroke-width:1;stroke-linecap:square;stroke-linejoin:round;marker:none;marker-start:none;marker-mid:none;marker-end:none;stroke-miterlimit:4;stroke-dasharray:none;stroke-dashoffset:1.20000057;stroke-opacity:1;visibility:visible;display:inline;overflow:visible" />
    </g>
    <path
       style="fill:#efefef;fill-opacity:1;fill-rule:evenodd;stroke:#787878;stroke-width:1.00000036;stroke-miterlimit:4;stroke-dasharray:none;stroke-opacity:1"
       d="M 9.418273,0.49999995 C 10.02141,0.49999995 10.500003,1.0061936 10.500003,1.6499642 L 10.500003,8.32996 C 10.500003,8.9737304 10.021411,9.4799242 9.418273,9.4799242 L 5.2414529,9.4799242 L 2.471336,11.429863 L 2.471336,9.4799242 L 1.5817316,9.4799242 C 0.9785936,9.4799242 0.49999957,8.9737304 0.50000033,8.32996 L 0.50000033,1.6499642 C 0.50000033,1.0061936 0.9785936,0.49999995 1.5817316,0.49999995 L 9.418273,0.49999995 z "
       id="path2221"
       sodipodi:nodetypes="cccccccccccc" />
    <path
       style="fill:none;fill-opacity:1;fill-rule:evenodd;stroke:white;stroke-width:1;stroke-miterlimit:4;stroke-dasharray:none;stroke-opacity:1"
       d="M 9.2045414,1.5000001 C 9.3816286,1.5000001 9.4999957,1.6028844 9.4999957,1.7987807 L 9.4999957,7.3475646 C 9.4999957,7.543461 9.3816293,7.6463453 9.2045414,7.6463453 L 4.9999978,8.3220879 C 4.8242182,8.3232475 4.6547723,8.3838621 4.5227251,8.4928197 L 3.7045437,9.175747 L 3.7045437,9.0050151 C 3.7025982,8.6286041 3.3781242,8.3239148 2.9772712,8.3220879 L 1.7954537,7.6463453 C 1.6183665,7.6463453 1.4999993,7.5434596 1.4999993,7.3475646 L 1.4999993,1.7987807 C 1.4999993,1.6028846 1.6183665,1.5000001 1.7954537,1.5000001 L 9.2045414,1.5000001 z "
       id="path5807"
       sodipodi:nodetypes="cccccccccccccc" />
    <g
       id="g3183"
       style="opacity:0.3"
       transform="matrix(-0.340425,0,0,0.625,-11.6596,-23.99648)">
      <rect
         transform="scale(-1,-1)"
         y="-48"
         x="-11"
         height="8"
         width="10"
         id="rect3185"
         style="opacity:1;color:black;fill:url(#radialGradient3201);fill-opacity:1;fill-rule:nonzero;stroke:none;stroke-width:1;stroke-linecap:square;stroke-linejoin:round;marker:none;marker-start:none;marker-mid:none;marker-end:none;stroke-miterlimit:4;stroke-dasharray:none;stroke-dashoffset:1.20000057;stroke-opacity:1;visibility:visible;display:inline;overflow:visible" />
      <rect
         y="40"
         x="38"
         height="8"
         width="10"
         id="rect3187"
         style="opacity:1;color:black;fill:url(#radialGradient3203);fill-opacity:1;fill-rule:nonzero;stroke:none;stroke-width:1;stroke-linecap:square;stroke-linejoin:round;marker:none;marker-start:none;marker-mid:none;marker-end:none;stroke-miterlimit:4;stroke-dasharray:none;stroke-dashoffset:1.20000057;stroke-opacity:1;visibility:visible;display:inline;overflow:visible" />
      <rect
         y="40"
         x="11"
         height="8"
         width="27"
         id="rect3189"
         style="opacity:1;color:black;fill:url(#linearGradient3205);fill-opacity:1;fill-rule:nonzero;stroke:none;stroke-width:1;stroke-linecap:square;stroke-linejoin:round;marker:none;marker-start:none;marker-mid:none;marker-end:none;stroke-miterlimit:4;stroke-dasharray:none;stroke-dashoffset:1.20000057;stroke-opacity:1;visibility:visible;display:inline;overflow:visible" />
    </g>
    <path
       style="fill:#efefef;fill-opacity:1;fill-rule:evenodd;stroke:#787878;stroke-width:1;stroke-miterlimit:4;stroke-dasharray:none;stroke-opacity:1"
       d="M -14.90628,-7.496478 C -14.122201,-7.496478 -13.50003,-6.8637163 -13.50003,-6.058978 L -13.50003,2.066022 C -13.50003,2.87076 -14.1222,3.503522 -14.90628,3.503522 L -20.68753,3.503522 L -23.46878,5.941022 L -23.46878,3.503522 L -25.09378,3.503522 C -25.877859,3.503522 -26.500031,2.87076 -26.50003,2.066022 L -26.50003,-6.058978 C -26.50003,-6.8637163 -25.877859,-7.496478 -25.09378,-7.496478 L -14.90628,-7.496478 z "
       id="path3192"
       sodipodi:nodetypes="cccccccccccc" />
    <path
       sodipodi:type="inkscape:offset"
       inkscape:radius="-1.0047876"
       inkscape:original="M 1.59375 0.5 C 0.990612 0.5 0.49999997 1.0124794 0.5 1.65625 L 0.5 8.34375 C 0.49999924 8.9875204 0.99061204 9.46875 1.59375 9.46875 L 2.46875 9.46875 L 2.46875 11.4375 L 5.25 9.46875 L 9.40625 9.46875 C 10.009388 9.46875 10.5 8.9875205 10.5 8.34375 L 10.5 1.65625 C 10.5 1.0124794 10.009387 0.50000001 9.40625 0.5 L 1.59375 0.5 z "
       xlink:href="#path2221"
       style="fill:none;fill-opacity:1;fill-rule:evenodd;stroke:white;stroke-width:1;stroke-miterlimit:4;stroke-dasharray:none;stroke-opacity:1"
       id="path3194"
       inkscape:href="#path2221"
       d="M 1.59375,1.5 C 1.5597829,1.5 1.5,1.5229727 1.5,1.65625 L 1.5,8.34375 C 1.4999998,8.4770255 1.5250763,8.46875 1.59375,8.46875 L 2.46875,8.46875 C 3.0199231,8.4714246 3.4660754,8.9175769 3.46875,9.46875 L 3.46875,9.5 L 4.65625,8.65625 C 4.8293233,8.532463 5.0372235,8.4668103 5.25,8.46875 L 9.40625,8.46875 C 9.4749239,8.46875 9.5,8.4770272 9.5,8.34375 L 9.5,1.65625 C 9.5,1.5229737 9.4402151,1.5 9.40625,1.5 L 1.59375,1.5 z "
       transform="matrix(-1,0,0,1,-5.00003,-9.996478)" />
    <path
       style="fill:#2e3436;fill-opacity:1;stroke:none;stroke-width:1;stroke-miterlimit:4;stroke-opacity:1"
       d="M 12.46711,8.5945802 C 12.697599,8.5945812 12.884662,9.1557552 12.884662,9.8472022 C 12.884662,10.538649 12.697599,11.099824 12.46711,11.099823 C 12.236622,11.099823 12.049558,10.538648 12.049558,9.8472022 C 12.049558,9.1557542 12.236622,8.5945802 12.46711,8.5945802 z "
       id="path1588" />
    <path
       style="fill:#888a85;fill-opacity:1;stroke:#555753;stroke-width:0.99999905;stroke-miterlimit:4;stroke-opacity:1"
       d="M 14.035707,14.0357 C 12.083594,15.987813 8.915277,15.988142 6.963571,14.036438 C 5.0118649,12.08473 5.0121953,8.9164146 6.9643092,6.9643005 C 8.9164221,5.012187 12.084737,5.0118562 14.036444,6.9635632 C 15.988151,8.9152688 15.98782,12.083586 14.035707,14.0357 z "
       id="path2187" />
    <path
       style="opacity:0.4;fill:url(#linearGradient3211);fill-opacity:1;stroke:white;stroke-width:0.99999774;stroke-miterlimit:4;stroke-opacity:1"
       d="M 10.500005,6.4999989 C 9.4701653,6.5001062 8.4600166,6.892018 7.6762741,7.6748771 C 6.1077225,9.2416614 6.1080997,11.757883 7.6762741,13.324292 C 9.2454692,14.891716 11.754165,14.892095 13.323736,13.324292 C 14.892287,11.757508 14.891909,9.241284 13.323736,7.6748771 C 12.54017,6.8921943 11.529535,6.4998916 10.500005,6.4999989 z "
       id="path2215" />
    <path
       style="fill:#eeeeec;fill-opacity:1;stroke:#555753;stroke-width:0.99999911;stroke-miterlimit:4;stroke-opacity:1"
       d="M 12.012717,7.0856385 L 10.493143,8.5136887 L 9.0186203,6.9641831 L 6.905447,9.0600445 L 8.5171518,10.486297 L 6.9955461,11.971298 L 9.1224384,14.094548 L 10.493143,12.45891 L 11.967667,14.035803 L 14.094559,11.912554 L 12.469139,10.486297 L 14.125891,9.2088861 L 12.012717,7.0856385 z "
       id="rect1322"
       sodipodi:nodetypes="ccccccccccccc" />
  </g>
</svg>
