<?xml version="1.0" encoding="UTF-8" standalone="no"?>
<!-- Created with Inkscape (http://www.inkscape.org/) -->
<svg
   xmlns:dc="http://purl.org/dc/elements/1.1/"
   xmlns:cc="http://creativecommons.org/ns#"
   xmlns:rdf="http://www.w3.org/1999/02/22-rdf-syntax-ns#"
   xmlns:svg="http://www.w3.org/2000/svg"
   xmlns="http://www.w3.org/2000/svg"
   xmlns:xlink="http://www.w3.org/1999/xlink"
   xmlns:sodipodi="http://sodipodi.sourceforge.net/DTD/sodipodi-0.dtd"
   xmlns:inkscape="http://www.inkscape.org/namespaces/inkscape"
   width="11"
   height="11"
   id="svg7380"
   sodipodi:version="0.32"
   inkscape:version="0.46"
   sodipodi:docbase="/home/hbons/Desktop"
   sodipodi:docname="chat.svg"
   inkscape:export-filename="/home/hbons/Desktop/chat.png"
   inkscape:export-xdpi="90"
   inkscape:export-ydpi="90"
   inkscape:output_extension="org.inkscape.output.svg.inkscape"
   version="1.0">
  <defs
     id="defs7382">
    <linearGradient
       id="linearGradient3800">
      <stop
         style="stop-color:#f4d9b1;stop-opacity:1.0000000;"
         offset="0.0000000"
         id="stop3802" />
      <stop
         style="stop-color:#df9725;stop-opacity:1.0000000;"
         offset="1.0000000"
         id="stop3804" />
    </linearGradient>
    <linearGradient
       inkscape:collect="always"
       id="linearGradient7300">
      <stop
         style="stop-color:#eeeeec;stop-opacity:1;"
         offset="0"
         id="stop7302" />
      <stop
         style="stop-color:#eeeeec;stop-opacity:0;"
         offset="1"
         id="stop7304" />
    </linearGradient>
    <radialGradient
       inkscape:collect="always"
       xlink:href="#linearGradient7300"
       id="radialGradient2631"
       gradientUnits="userSpaceOnUse"
       gradientTransform="matrix(0.964825,0,0,0.631898,0.954495,11.94073)"
       cx="24.248138"
       cy="27.184834"
       fx="24.248138"
       fy="27.184834"
       r="12.499089" />
    <radialGradient
       inkscape:collect="always"
       xlink:href="#linearGradient3800"
       id="radialGradient2633"
       gradientUnits="userSpaceOnUse"
       gradientTransform="matrix(1.191087,0,0,1.124022,-5.086983,-1.361697)"
       cx="27.702486"
       cy="14.540437"
       fx="27.702486"
       fy="14.540437"
       r="9.1620579" />
    <radialGradient
       inkscape:collect="always"
       xlink:href="#linearGradient7300"
       id="radialGradient2188"
       gradientUnits="userSpaceOnUse"
       gradientTransform="matrix(0.964825,0,0,0.631898,0.954495,11.94073)"
       cx="24.248138"
       cy="27.184834"
       fx="24.248138"
       fy="27.184834"
       r="12.499089" />
    <radialGradient
       inkscape:collect="always"
       xlink:href="#linearGradient3800"
       id="radialGradient2190"
       gradientUnits="userSpaceOnUse"
       gradientTransform="matrix(1.191087,0,0,1.124022,-5.086983,-1.361697)"
       cx="27.702486"
       cy="14.540437"
       fx="27.702486"
       fy="14.540437"
       r="9.1620579" />
  </defs>
  <sodipodi:namedview
     id="base"
     pagecolor="#ffffff"
     bordercolor="#666666"
     borderopacity="1.0"
     inkscape:pageopacity="0.0"
     inkscape:pageshadow="2"
     inkscape:zoom="36.060436"
     inkscape:cx="12.098289"
     inkscape:cy="6.1866582"
     inkscape:current-layer="layer1"
     showgrid="true"
     inkscape:grid-bbox="true"
     inkscape:document-units="px"
     inkscape:window-width="1440"
     inkscape:window-height="843"
     inkscape:window-x="0"
     inkscape:window-y="0"
     width="11px"
     height="11px" />
  <metadata
     id="metadata7385">
    <rdf:RDF>
      <cc:Work
         rdf:about="">
        <dc:format>image/svg+xml</dc:format>
        <dc:type
           rdf:resource="http://purl.org/dc/dcmitype/StillImage" />
      </cc:Work>
    </rdf:RDF>
  </metadata>
  <g
     id="layer1"
     inkscape:label="Layer 1"
     inkscape:groupmode="layer">
    <path
       style="opacity:1;color:#000000;fill:#729fcf;fill-opacity:1;fill-rule:evenodd;stroke:#3465a4;stroke-width:0.99999994px;stroke-linecap:round;stroke-linejoin:round;marker:none;marker-start:none;marker-mid:none;marker-end:none;stroke-miterlimit:4;stroke-dasharray:none;stroke-dashoffset:0;stroke-opacity:1;visibility:visible;display:inline;overflow:visible"
       d="M 5.6663217,10.5 L 8.5076604,10.5 C 9.3127059,10.5 10.109736,10.185178 10.401886,9.2878789 C 10.679316,8.4357864 10.449241,6.8131316 8.6497271,5.5000004 L 5.2874764,5.5000004 C 3.4879623,6.7121213 3.26308,8.3698055 3.677385,9.3383838 C 4.0994615,10.32513 4.8139201,10.5 5.6663217,10.5 z "
       id="path2178"
       sodipodi:nodetypes="cczcczc" />
    <path
       sodipodi:type="inkscape:offset"
       inkscape:radius="-1.1784238"
       inkscape:original="M 24.5625 24.125 C 17.844986 28.367641 17.015916 34.172303 18.5625 37.5625 C 20.138096 41.016289 22.818019 41.625 26 41.625 L 36.59375 41.625 C 39.598953 41.624999 42.565667 40.546959 43.65625 37.40625 C 44.691891 34.423774 43.842514 28.721194 37.125 24.125 L 24.5625 24.125 z "
       style="opacity:0.45454544;color:#000000;fill:url(#radialGradient2188);fill-opacity:1;fill-rule:evenodd;stroke:#eeeeec;stroke-width:4.89376259px;stroke-linecap:round;stroke-linejoin:round;marker:none;marker-start:none;marker-mid:none;marker-end:none;stroke-miterlimit:4;stroke-dasharray:none;stroke-dashoffset:0;stroke-opacity:1;visibility:visible;display:inline;overflow:visible"
       id="path2180"
       d="M 24.96875,25.3125 C 18.887883,29.293056 18.373983,34.320202 19.625,37.0625 C 20.318936,38.583645 21.166625,39.341162 22.1875,39.8125 C 23.208375,40.283838 24.484153,40.4375 26,40.4375 L 36.59375,40.4375 C 37.955442,40.4375 39.252462,40.19959 40.28125,39.65625 C 41.310038,39.11291 42.08087,38.328274 42.53125,37.03125 C 43.335253,34.715853 42.805994,29.63256 36.71875,25.3125 L 24.96875,25.3125 z "
       transform="matrix(0.2105175,0,0,0.1983472,0.4849292,1.4793376)" />
    <path
       style="opacity:0.78977272;fill:#eeeeec;fill-opacity:1;stroke:none;stroke-width:1;stroke-miterlimit:4;stroke-opacity:1"
       d="M 8.9999998,7.5000004 C 8.9999998,8.3280004 7.9468851,8.5707392 7.0000001,9.0000002 C 5.6603268,8.5959901 4.9999998,8.3280004 4.9999998,7.5000004 C 4.9999998,6.6720007 5.8959997,6.0000002 7.0000001,6.0000002 C 8.1039998,6.0000002 8.9999998,6.6720007 8.9999998,7.5000004 z "
       id="path2182"
       sodipodi:nodetypes="ccssc" />
    <path
       sodipodi:type="arc"
       style="opacity:1;color:#000000;fill:url(#radialGradient2190);fill-opacity:1;fill-rule:evenodd;stroke:#b2730d;stroke-width:2.47487783px;stroke-linecap:round;stroke-linejoin:round;marker:none;marker-start:none;marker-mid:none;marker-end:none;stroke-miterlimit:4;stroke-dasharray:none;stroke-dashoffset:0;stroke-opacity:1;visibility:visible;display:inline;overflow:visible"
       id="path2184"
       sodipodi:cx="31.112698"
       sodipodi:cy="19.008621"
       sodipodi:rx="8.6620579"
       sodipodi:ry="8.6620579"
       d="M 39.774755 19.008621 A 8.6620579 8.6620579 0 1 1  22.45064,19.008621 A 8.6620579 8.6620579 0 1 1  39.774755 19.008621 z"
       transform="matrix(0.4040609,0,0,0.4040609,-5.571426,-3.680641)" />
    <path
       d="M 39.774755 19.008621 A 8.6620579 8.6620579 0 1 1  22.45064,19.008621 A 8.6620579 8.6620579 0 1 1  39.774755 19.008621 z"
       sodipodi:ry="8.6620579"
       sodipodi:rx="8.6620579"
       sodipodi:cy="19.008621"
       sodipodi:cx="31.112698"
       id="path2186"
       style="opacity:0.25;color:#000000;fill:none;fill-opacity:1;fill-rule:evenodd;stroke:#ffffff;stroke-width:3.46482706px;stroke-linecap:round;stroke-linejoin:round;marker:none;marker-start:none;marker-mid:none;marker-end:none;stroke-miterlimit:4;stroke-dasharray:none;stroke-dashoffset:0;stroke-opacity:1;visibility:visible;display:inline;overflow:visible"
       sodipodi:type="arc"
       transform="matrix(0.288615,0,0,0.288615,-1.9795919,-1.4861727)" />
    <path
       style="opacity:1;color:#000000;fill:#ad7fa8;fill-opacity:1;fill-rule:evenodd;stroke:#5c3566;stroke-width:0.99999994px;stroke-linecap:round;stroke-linejoin:round;marker:none;marker-start:none;marker-mid:none;marker-end:none;stroke-miterlimit:4;stroke-dasharray:none;stroke-dashoffset:0;stroke-opacity:1;visibility:visible;display:inline;overflow:visible"
       d="M 2.6663227,10.5 L 5.5076614,10.5 C 6.3127069,10.5 7.1097368,10.185178 7.4018867,9.2878787 C 7.6793171,8.4357862 7.4492418,6.8131314 5.6497281,5.5000002 L 2.2874774,5.5000002 C 0.48796329,6.7121211 0.26308099,8.3698053 0.67738599,9.3383836 C 1.0994625,10.32513 1.8139211,10.5 2.6663227,10.5 z "
       id="path4308"
       sodipodi:nodetypes="cczcczc" />
    <path
       sodipodi:type="inkscape:offset"
       inkscape:radius="-1.1784238"
       inkscape:original="M 24.5625 24.125 C 17.844986 28.367641 17.015916 34.172303 18.5625 37.5625 C 20.138096 41.016289 22.818019 41.625 26 41.625 L 36.59375 41.625 C 39.598953 41.624999 42.565667 40.546959 43.65625 37.40625 C 44.691891 34.423774 43.842514 28.721194 37.125 24.125 L 24.5625 24.125 z "
       style="opacity:0.45454544;color:#000000;fill:url(#radialGradient2631);fill-opacity:1;fill-rule:evenodd;stroke:#eeeeec;stroke-width:4.89376259px;stroke-linecap:round;stroke-linejoin:round;marker:none;marker-start:none;marker-mid:none;marker-end:none;stroke-miterlimit:4;stroke-dasharray:none;stroke-dashoffset:0;stroke-opacity:1;visibility:visible;display:inline;overflow:visible"
       id="path7281"
       d="M 24.96875,25.3125 C 18.887883,29.293056 18.373983,34.320202 19.625,37.0625 C 20.318936,38.583645 21.166625,39.341162 22.1875,39.8125 C 23.208375,40.283838 24.484153,40.4375 26,40.4375 L 36.59375,40.4375 C 37.955442,40.4375 39.252462,40.19959 40.28125,39.65625 C 41.310038,39.11291 42.08087,38.328274 42.53125,37.03125 C 43.335253,34.715853 42.805994,29.63256 36.71875,25.3125 L 24.96875,25.3125 z "
       transform="matrix(0.2105175,0,0,0.1983472,-2.5150698,1.4793374)" />
    <path
       style="opacity:0.78977272;fill:#eeeeec;fill-opacity:1;stroke:none;stroke-width:1;stroke-miterlimit:4;stroke-opacity:1"
       d="M 6.0000008,7.5000002 C 6.0000008,8.3280002 4.9468861,8.570739 4.0000011,9 C 2.6603278,8.5959899 2.0000008,8.3280002 2.0000008,7.5000002 C 2.0000008,6.6720005 2.8960007,6 4.0000011,6 C 5.1040008,6 6.0000008,6.6720005 6.0000008,7.5000002 z "
       id="path7285"
       sodipodi:nodetypes="ccssc" />
    <path
       sodipodi:type="arc"
       style="opacity:1;color:#000000;fill:url(#radialGradient2633);fill-opacity:1;fill-rule:evenodd;stroke:#b2730d;stroke-width:2.47487783px;stroke-linecap:round;stroke-linejoin:round;marker:none;marker-start:none;marker-mid:none;marker-end:none;stroke-miterlimit:4;stroke-dasharray:none;stroke-dashoffset:0;stroke-opacity:1;visibility:visible;display:inline;overflow:visible"
       id="path4320"
       sodipodi:cx="31.112698"
       sodipodi:cy="19.008621"
       sodipodi:rx="8.6620579"
       sodipodi:ry="8.6620579"
       d="M 39.774755 19.008621 A 8.6620579 8.6620579 0 1 1  22.45064,19.008621 A 8.6620579 8.6620579 0 1 1  39.774755 19.008621 z"
       transform="matrix(0.4040609,0,0,0.4040609,-8.571425,-3.6806412)" />
    <path
       d="M 39.774755 19.008621 A 8.6620579 8.6620579 0 1 1  22.45064,19.008621 A 8.6620579 8.6620579 0 1 1  39.774755 19.008621 z"
       sodipodi:ry="8.6620579"
       sodipodi:rx="8.6620579"
       sodipodi:cy="19.008621"
       sodipodi:cx="31.112698"
       id="path4322"
       style="opacity:0.25;color:#000000;fill:none;fill-opacity:1;fill-rule:evenodd;stroke:#ffffff;stroke-width:3.46482706px;stroke-linecap:round;stroke-linejoin:round;marker:none;marker-start:none;marker-mid:none;marker-end:none;stroke-miterlimit:4;stroke-dasharray:none;stroke-dashoffset:0;stroke-opacity:1;visibility:visible;display:inline;overflow:visible"
       sodipodi:type="arc"
       transform="matrix(0.288615,0,0,0.288615,-4.9795909,-1.4861729)" />
  </g>
</svg>
