<?xml version="1.0" encoding="UTF-8" standalone="no"?>
<!-- Created with Inkscape (http://www.inkscape.org/) -->
<svg
   xmlns:dc="http://purl.org/dc/elements/1.1/"
   xmlns:cc="http://creativecommons.org/ns#"
   xmlns:rdf="http://www.w3.org/1999/02/22-rdf-syntax-ns#"
   xmlns:svg="http://www.w3.org/2000/svg"
   xmlns="http://www.w3.org/2000/svg"
   xmlns:xlink="http://www.w3.org/1999/xlink"
   xmlns:sodipodi="http://sodipodi.sourceforge.net/DTD/sodipodi-0.dtd"
   xmlns:inkscape="http://www.inkscape.org/namespaces/inkscape"
   width="11"
   height="11"
   id="svg1872"
   sodipodi:version="0.32"
   inkscape:version="0.46"
   sodipodi:docbase="/home/hbons/Desktop/tabs"
   sodipodi:docname="offline.svg"
   inkscape:output_extension="org.inkscape.output.svg.inkscape"
   version="1.0"
   inkscape:export-filename="/home/hbons/Desktop/tabs/extended-away.png"
   inkscape:export-xdpi="90"
   inkscape:export-ydpi="90">
  <defs
     id="defs1874">
    <linearGradient
       id="linearGradient2225"
       inkscape:collect="always">
      <stop
         id="stop2227"
         offset="0"
         style="stop-color:#eeeeec;stop-opacity:1;" />
      <stop
         id="stop2229"
         offset="1"
         style="stop-color:#eeeeec;stop-opacity:0;" />
    </linearGradient>
    <linearGradient
       inkscape:collect="always"
       xlink:href="#linearGradient2225"
       id="linearGradient5293"
       gradientUnits="userSpaceOnUse"
       gradientTransform="matrix(0.799641,0,0,0.799917,-1.2969486,-6.0992136)"
       x1="11.802028"
       y1="1.9986149"
       x2="11.802028"
       y2="14.895812" />
  </defs>
  <sodipodi:namedview
     id="base"
     pagecolor="#ffffff"
     bordercolor="#666666"
     borderopacity="1.0"
     inkscape:pageopacity="0.0"
     inkscape:pageshadow="2"
     inkscape:zoom="11.098901"
     inkscape:cx="24.268079"
     inkscape:cy="12.383905"
     inkscape:current-layer="layer1"
     showgrid="true"
     inkscape:grid-bbox="true"
     inkscape:document-units="px"
     inkscape:window-width="1440"
     inkscape:window-height="847"
     inkscape:window-x="0"
     inkscape:window-y="0"
     width="11px"
     height="11px" />
  <metadata
     id="metadata1877">
    <rdf:RDF>
      <cc:Work
         rdf:about="">
        <dc:format>image/svg+xml</dc:format>
        <dc:type
           rdf:resource="http://purl.org/dc/dcmitype/StillImage" />
      </cc:Work>
    </rdf:RDF>
  </metadata>
  <g
     id="layer1"
     inkscape:label="Layer 1"
     inkscape:groupmode="layer">
    <path
       style="fill:#2e3436;fill-opacity:1;stroke:none;stroke-width:1;stroke-miterlimit:4;stroke-opacity:1"
       d="M 7.4671024,3.5945806 C 7.6975914,3.5945816 7.8846544,4.1557556 7.8846544,4.8472026 C 7.8846544,5.5386494 7.6975914,6.0998244 7.4671024,6.0998234 C 7.2366144,6.0998234 7.0495504,5.5386484 7.0495504,4.8472026 C 7.0495504,4.1557546 7.2366144,3.5945806 7.4671024,3.5945806 z "
       id="path1588" />
    <path
       style="fill:#888a85;fill-opacity:1;stroke:#555753;stroke-width:0.99999905;stroke-miterlimit:4;stroke-opacity:1"
       d="M 9.0356994,9.0357004 C 7.0835864,10.987813 3.9152694,10.988142 1.9635634,9.0364384 C 0.011857449,7.0847304 0.012187449,3.916415 1.9643014,1.9643009 C 3.9164144,0.012187388 7.0847294,0.011856588 9.0364364,1.9635636 C 10.988143,3.9152692 10.987812,7.0835864 9.0356994,9.0357004 z "
       id="path2187" />
    <path
       style="opacity:0.4;fill:url(#linearGradient5293);fill-opacity:1;stroke:#ffffff;stroke-width:0.99999774;stroke-miterlimit:4;stroke-opacity:1"
       d="M 5.4999974,1.4999993 C 4.4701574,1.5001066 3.4600094,1.8920184 2.6762664,2.6748775 C 1.1077144,4.2416618 1.1080924,6.7578834 2.6762664,8.3242924 C 4.2454614,9.8917164 6.7541574,9.8920954 8.3237284,8.3242924 C 9.8922794,6.7575084 9.8919014,4.2412844 8.3237284,2.6748775 C 7.5401624,1.8921947 6.5295274,1.499892 5.4999974,1.4999993 z "
       id="path2215" />
    <path
       style="fill:#eeeeec;fill-opacity:1;stroke:#555753;stroke-width:0.99999911;stroke-miterlimit:4;stroke-opacity:1"
       d="M 7.0127094,2.0856389 L 5.4931354,3.5136891 L 4.0186124,1.9641835 L 1.9054394,4.0600449 L 3.5171444,5.4862974 L 1.9955384,6.9712984 L 4.1224304,9.0945484 L 5.4931354,7.4589104 L 6.9676594,9.0358034 L 9.0945514,6.9125544 L 7.4691314,5.4862974 L 9.1258834,4.2088865 L 7.0127094,2.0856389 z "
       id="rect1322"
       sodipodi:nodetypes="ccccccccccccc" />
  </g>
</svg>
