/* XPM */
static char * msn_coffee[] = {
"29 22 29 1",
" 	c None",
".	c #CACACA",
"+	c #CCD4DB",
"@	c #D6D6D6",
"#	c #BDBCBB",
"$	c #A8AAB6",
"%	c #999899",
"&	c #8C9AAB",
"*	c #858BA7",
"=	c #B1B1B1",
"-	c #9BA5C2",
";	c #BDC2C7",
">	c #EAEBEB",
",	c #F7F7F7",
"'	c #F4F3F4",
")	c #676898",
"!	c #8B8C8E",
"~	c #8B9496",
"{	c #798597",
"]	c #6E6D72",
"^	c #8391C5",
"/	c #DDDDDD",
"(	c #CDEFF9",
"_	c #CADAF7",
":	c #B6CCDE",
"<	c #A5A6A6",
"[	c #A5BDC6",
"}	c #6789B3",
"|	c #A5B6DE",
"                             ",
"                             ",
"        .                    ",
"      ...+.                  ",
"       @  @                  ",
"      @                      ",
"      .+   +.                ",
"       @+ ..                 ",
"           @                 ",
"           @                 ",
"     @#$%&*=.&%$#@           ",
"    =&-;+>,>'>+;**).         ",
"    $*-!!~~%%~!~**)))&       ",
"    {;-&*{{){]{*--)  {=      ",
"    ^/(>_/_///:#$~)  {<      ",
"    &_///___:::[&&}  )<      ",
"    ;}+__:_::|[&*{)))<<      ",
"     #}|_:::|[-*{~<$=#       ",
"      [}|::|-&&{~=           ",
"       $&*{}{}}*=            ",
"                             ",
"                             "};
