/* XPM */
static char * msn_boy[] = {
"19 19 28 1",
" 	c None",
".	c #AA9F55",
"+	c #AA7F55",
"@	c #FF9F55",
"#	c #FFBF55",
"$	c #C0DCC0",
"%	c #808080",
"&	c #FF9F00",
"*	c #AA9FAA",
"=	c #AABFAA",
"-	c #7F7F55",
";	c #D4BF55",
">	c #A0A0A4",
",	c #557F55",
"'	c #559F55",
")	c #7F9FAA",
"!	c #2A5F55",
"~	c #2A7F00",
"{	c #2A7F55",
"]	c #55BF55",
"^	c #553F55",
"/	c #555F55",
"(	c #7F7FAA",
"_	c #557FAA",
":	c #7F5FAA",
"<	c #D4BFAA",
"[	c #D4DFFF",
"}	c #2A3F55",
"                   ",
"        .+         ",
"       +@#.        ",
"       .##@$       ",
"       %+&+*       ",
"       =-;>$       ",
"     $,'$$'')=     ",
"   ,!,='$'!>~{,    ",
"    $$$'']{>$==    ",
"       ^/^/*       ",
"       ((_:=       ",
"      *(_((>       ",
"      )(()(($      ",
"      ((*$((=      ",
"      (><[*(=      ",
"     /^}$ ^^^      ",
"      $<$ [$=$     ",
"                   ",
"                   "};
