/* XPM */
static char * msn_heart[] = {
"21 19 21 1",
" 	c None",
".	c #A05751",
"+	c #B54F37",
"@	c #A87066",
"#	c #A93623",
"$	c #CC5A3E",
"%	c #F78E65",
"&	c #F87B52",
"*	c #F5592E",
"=	c #EA3923",
"-	c #FAB089",
";	c #FCC3A4",
">	c #89716A",
",	c #E96C46",
"'	c #848484",
")	c #AB8485",
"!	c #DF856C",
"~	c #6E6D72",
"{	c #A88CA7",
"]	c #917584",
"^	c #999899",
"                     ",
"                     ",
"     .++@    .##.    ",
"    $%&**=  =====#   ",
"   @-;%***##===**=>  ",
"   $;;&,**======**#  ",
"   .;-&****=====*=#  ",
"   @-;&,****======.  ",
"    $--,***======#'  ",
"    )!;&,***=====>   ",
"     )!-,***===#~    ",
"      )!%****==>{    ",
"       ]&,**==~      ",
"        .,**=.       ",
"         +**#^       ",
"          $='        ",
"          ..         ",
"                     ",
"                     "};
