/* XPM */
static char * msn_girl[] = {
"21 21 32 1",
" 	c None",
".	c #555F55",
"+	c #808080",
"@	c #7F3F55",
"#	c #7F5F55",
"$	c #553F55",
"%	c #A0A0A4",
"&	c #AA5F55",
"*	c #FF7F00",
"=	c #2A1F00",
"-	c #C0DCC0",
";	c #AA3F00",
">	c #000000",
",	c #555FAA",
"'	c #7F3F00",
")	c #A6CAF0",
"!	c #557FAA",
"~	c #7FBFFF",
"{	c #2A5FAA",
"]	c #2A3FAA",
"^	c #AA9FAA",
"/	c #7F7FAA",
"(	c #7F9FAA",
"_	c #AABFAA",
":	c #D4DFFF",
"<	c #2A3F55",
"[	c #FFCCFF",
"}	c #FF9F55",
"|	c #D4BF55",
"1	c #AA7F55",
"2	c #AA3F55",
"3	c #D4BFAA",
"                     ",
"                     ",
"         .++         ",
"        @#.$%        ",
"        &*&=.-       ",
"        ;&;>+-       ",
"        ,'@.%-       ",
"      ),!)~{]^       ",
"    ,!,^!)/{({{!     ",
"     ---((/{%_-_:    ",
"        $.$<_[       ",
"       ^(!/{%-       ",
"       /!/{{]-       ",
"        }|12%-       ",
"        *_3;_        ",
"        *3-#-        ",
"       {{-:{]        ",
"        --  --       ",
"                     ",
"                     ",
"                     "};
