/* XPM */
static char * msn_photo[] = {
"29 19 28 1",
" 	c None",
".	c #999899",
"+	c #848484",
"@	c #6E6D72",
"#	c #B1B1B1",
"$	c #D6D6D6",
"%	c #DDDDDD",
"&	c #565350",
"*	c #706857",
"=	c #383836",
"-	c #5D7069",
";	c #A8AAB6",
">	c #FFFFFF",
",	c #8B9496",
"'	c #F4F3F4",
")	c #EAEBEB",
"!	c #F7F7F7",
"~	c #D7D3CD",
"{	c #A5A6A6",
"]	c #B3AAA0",
"^	c #BDBCBB",
"/	c #CCD4DB",
"(	c #CACACA",
"_	c #BDC2C7",
":	c #8B8C8E",
"<	c #4B5377",
"[	c #246BAC",
"}	c #163A5D",
"                             ",
"              .++@.          ",
"        #.+@@.$$+$%@&        ",
"     +*&+%$$$$#..@=&-;       ",
"    @>>#@+&*,+-+.@&&@.       ",
"    &')!~*@;{;]]^#,.@,       ",
"    &)/(_,:##$%.*+((@.       ",
"    &)%$(+^{#(*===*(@,       ",
"    &%$$(+(^^.=<[<={@.       ",
"    -%$/(+^^#+=[[[=.@,       ",
"    *%/((+^^#+=[[<=.@.       ",
"    -$(((+^##+===}&(@,       ",
"    &$$((+^##{*==&#_@.       ",
"    &$^^(+^^~%#.{{.@&.       ",
"    @$/_(+(_(_#+-&&@.        ",
"     &::::::+&&*@.#          ",
"      #,..,...{#             ",
"                             ",
"                             "};
