/* XPM */
static char * msn_email[] = {
"21 20 41 1",
" 	c None",
".	c #A5A6A6",
"+	c #B1B1B1",
"@	c #999899",
"#	c #BDC2C7",
"$	c #DFCFA7",
"%	c #FDF18D",
"&	c #A88CA7",
"*	c #FCC3A4",
"=	c #FBD96D",
"-	c #A8AAB6",
";	c #FAB089",
">	c #BBAE93",
",	c #FFEDD5",
"'	c #FFFFFF",
")	c #FFFFF4",
"!	c #F5DDCB",
"~	c #BDB7AB",
"{	c #F78E65",
"]	c #9BA5C2",
"^	c #FEFEFE",
"/	c #FFF5EF",
"(	c #FFFFD8",
"_	c #B6CCDE",
":	c #7EA7D7",
"<	c #DDDDDD",
"[	c #FEFABD",
"}	c #CACACA",
"|	c #E4F4FC",
"1	c #BDBCBB",
"2	c #CCD4DB",
"3	c #D7D3CD",
"4	c #CDEFF9",
"5	c #F2FCFF",
"6	c #B1E3FA",
"7	c #8391C5",
"8	c #92C9EC",
"9	c #CADAF7",
"0	c #6789B3",
"a	c #798597",
"b	c #8B9496",
"                     ",
"         .+@#        ",
"        $%%%$&       ",
"       $%%%*=*&-     ",
"      *%%%***;;&     ",
"     *%*;;=;;;>;&+   ",
"    *,''),!!$~;{]@+  ",
"   +*,''^')/)($_:@+  ",
"  :<$!)))),,[$}|:@1  ",
"  :||23!,$33}_44:@+  ",
"  :|||4##|55|_66:@1  ",
"  74|44_||||4488:@+  ",
"  7644_9|444466::@~  ",
"  7668_446666688:@+  ",
"  788866668888::0.+  ",
"  088868888:::ab@-   ",
"  7::8:::aab.++1     ",
"  +:::a@-+1          ",
"     1+1             ",
"                     "};
