/* XPM */
static char * msn_ooooh[] = {
"21 21 35 1",
" 	c None",
".	c #BDBCBB",
"+	c #BBAE93",
"@	c #C6B070",
"#	c #C5A549",
"$	c #BCA766",
"%	c #B1B1B1",
"&	c #631B13",
"*	c #706857",
"=	c #BDB7AB",
"-	c #AF9559",
";	c #FEEC51",
">	c #FCDE43",
",	c #F9CD34",
"'	c #D5B44E",
")	c #FFF662",
"!	c #EDB828",
"~	c #DFC772",
"{	c #927943",
"]	c #AF9478",
"^	c #FFFFFF",
"/	c #FFFFF4",
"(	c #FDFEFE",
"_	c #B3AAA0",
":	c #DBA82A",
"<	c #FEFEFE",
"[	c #9E7525",
"}	c #AA9B85",
"|	c #9C864E",
"1	c #E1C931",
"2	c #E3C44B",
"3	c #CC9930",
"4	c #CADAF7",
"5	c #B88E2C",
"6	c #CE8825",
"                     ",
"       .+@#$+.%&&*   ",
"     =-&&&#;>,&-  *  ",
"    +>&')'&));>!~    ",
"   +>)))))));)${-]   ",
"  =>)))@{{@));{^/-=  ",
"  @;))){(^{));{^^{-  ",
" .>)))){^^{));{_^{:= ",
" +>)))){_<{);;[&_{!} ",
" @)))))[&_{;);[&&[!| ",
" #;))))[&&[;;;1[[:,| ",
" $;;)))2[[2;;;>,,,!| ",
" +>;;;;;;;;;>2,>,,:} ",
" .,;;;;;;;;1[[3,,,3_ ",
"  $,;;;;;>2[44{,!!|  ",
"  =!>>>>>>54(^{,,5_  ",
"   +!,>,>,[4(^|,6}   ",
"    +:,,,,[4^{-5}    ",
"     =-:!!5[[5|_     ",
"       =}-||}_       ",
"                     "};
