/* XPM */
static char * msn_devil[] = {
"21 21 32 1",
" 	c None",
".	c #AA5F55",
"+	c #AA3F55",
"@	c #AA3F00",
"#	c #D45F55",
"$	c #AA1F00",
"%	c #AA9FAA",
"&	c #D4BFAA",
"*	c #AA1F55",
"=	c #D43F00",
"-	c #AA7FAA",
";	c #D41F00",
">	c #D41F55",
",	c #D49FAA",
"'	c #D43F55",
")	c #FF5F55",
"!	c #FF3F00",
"~	c #FF3F55",
"{	c #551F00",
"]	c #7F1F00",
"^	c #D47F55",
"/	c #D49F55",
"(	c #FF7F55",
"_	c #551F55",
":	c #FFFFFF",
"<	c #FFFBF0",
"[	c #2A7FFF",
"}	c #557FAA",
"|	c #2A7FAA",
"1	c #D47FAA",
"2	c #808080",
"3	c #AA7F55",
"                     ",
"    .+        @#     ",
"   #$%        &*.    ",
"  &+=-        &@;%   ",
"  .>$.,       .'*.   ",
"  @+@>@#)!'=#+;+;.   ",
"  &;+.~{{]^^#{]{+.   ",
"   .@^^/((]({(#'@%   ",
"   ,)^(^^^^^((($-    ",
"   ^#^^(]_((^{{#.    ",
"   )^^^{:<{({::{*    ",
"   ~^^^]<[]^]:}]=    ",
"   =^^(_|}@^_|[@*    ",
"   '(^((@_^((@{#@    ",
"   ^)(^^^^]{{(('.    ",
"    '^^^(]:::{(@-    ",
"    1=)#^({:{($2     ",
"     1@'(#({#+3      ",
"      ,.@>@+.2       ",
"                     ",
"                     "};
