/* XPM */
static char * msn_phone[] = {
"29 20 39 1",
" 	c None",
".	c #B3AAA0",
"+	c #AB8485",
"@	c #AF9559",
"#	c #AA9B85",
"$	c #CE8825",
"%	c #F6830D",
"&	c #F0A316",
"*	c #EDB828",
"=	c #927943",
"-	c #F9CD34",
";	c #FCD50A",
">	c #FEED0D",
",	c #FCDE43",
"'	c #FDE52F",
")	c #989281",
"!	c #4A794A",
"~	c #D1C021",
"{	c #BEB334",
"]	c #706857",
"^	c #E1C931",
"/	c #9C864E",
"(	c #848484",
"_	c #8B9496",
":	c #A5A6A6",
"<	c #D5B44E",
"[	c #89716A",
"}	c #BCA766",
"|	c #7E682D",
"1	c #97866C",
"2	c #9E7525",
"3	c #CC9930",
"4	c #AF9478",
"5	c #B88E2C",
"6	c #C79C55",
"7	c #FEEC51",
"8	c #6E6D72",
"9	c #999899",
"0	c #8B8C8E",
"                             ",
"      .+@                    ",
"    #$%&*#                   ",
"    =-;;>#                   ",
"    =,,'>)                   ",
"    !~{~;)                   ",
"    ]^{!/)                   ",
"    ({>/_                    ",
"    :/><:                    ",
"     !>;:                    ",
"     [{>}                    ",
"      |>;.                   ",
"      (/>^1234               ",
"       !~>52';6              ",
"        |~^{7>>}             ",
"        :!{^;>~)             ",
"          ={;~]]_   8        ",
"           )/)9888880        ",
"                             ",
"                             "};
