/* XPM */
static char * msn_angry[] = {
"21 21 23 1",
" 	c None",
".	c #AB8485",
"+	c #A05751",
"@	c #EA3923",
"#	c #A93623",
"$	c #B54F37",
"%	c #F5592E",
"&	c #E96C46",
"*	c #F87B52",
"=	c #CC5A3E",
"-	c #631B13",
";	c #F78E65",
">	c #FCFBFC",
",	c #DF856C",
"'	c #E1E1FE",
")	c #4E4292",
"!	c #BFBFF9",
"~	c #233E87",
"{	c #A88CA7",
"]	c #CADAF7",
"^	c #B3AAA0",
"/	c #FEFEFE",
"(	c #F9F9F9",
"                     ",
"      .+@@#$.        ",
"    .@%&**&=--.      ",
" --$%*;;;&--&%@+     ",
"  $--&;;;-&***&@+    ",
" .%;&-;;;;&-=*&%@.   ",
" @&-&;;;;&->-*&%%#   ",
".%->-,;;;-'>-*&&%@.  ",
"=&-'>-;;;-)!-&&%%@+  ",
"@*-)!-;;;-~~-*&&%%#  ",
"@*-~~-;;;&--%&%%%%#  ",
"#*&--&*******&&%%@#  ",
"$%****;;****&%%%%@+  ",
"{@******&---=%%%%#.  ",
" #&*#=*=-]]^-%%%%#   ",
" .@&=---]/>(-%%%#.   ",
"  +@%%%@----@%%@+    ",
"   +@%%%%%%%%%#+     ",
"    .#@@%%%@##.      ",
"      .+###+.        ",
"                     "};
