/* XPM */
static char * msn_dog[] = {
"29 17 53 1",
" 	c None",
".	c #BBAE93",
"+	c #CC9930",
"@	c #7E682D",
"#	c #AF9559",
"$	c #F0A316",
"%	c #CE8825",
"&	c #9E7525",
"*	c #B1B1B1",
"=	c #BDB7AB",
"-	c #9C864E",
";	c #060505",
">	c #706857",
",	c #DFC772",
"'	c #C79C55",
")	c #F4932E",
"!	c #565350",
"~	c #9BA5C2",
"{	c #DDDDDD",
"]	c #E3C44B",
"^	c #FCD50A",
"/	c #AA9B85",
"(	c #C6B070",
"_	c #CACACA",
":	c #D7D3CD",
"<	c #6E6D72",
"[	c #FDF18D",
"}	c #EDB828",
"|	c #B3AAA0",
"1	c #B88E2C",
"2	c #89716A",
"3	c #CADAF7",
"4	c #F4F3F4",
"5	c #FCC3A4",
"6	c #DEB819",
"7	c #BCA766",
"8	c #927943",
"9	c #FFEDD5",
"0	c #F9CD34",
"a	c #383836",
"b	c #999899",
"c	c #FDE52F",
"d	c #D1C021",
"e	c #BEB334",
"f	c #A5A6A6",
"g	c #E1C931",
"h	c #FCDE43",
"i	c #97866C",
"j	c #989281",
"k	c #DBA82A",
"l	c #C5A549",
"m	c #A93623",
"n	c #D5B44E",
"                             ",
"                             ",
"      .+@#+$+%&#*            ",
"     =$-;>,'%%)%&'*          ",
"     '+'!~{!;#]%%^^/         ",
"    .$&(_:{<!*[$$%^}|        ",
"    $12->!<~345$%&6^7        ",
"    $8-@;;;/9[0$&&+^6*       ",
"    %<71aaa10}$$%8+^6*       ",
"    *b.cd1d^}$$$&2e^6f       ",
"      |gc0hg0}$%@i6^6f       ",
"       =jedg6k%@<#^^6f       ",
"        =2dg6$%@f*l^+f       ",
"         *i&1&m@   nj        ",
"           iiii*             ",
"                             ",
"                             "};
