/* XPM */
static char * msn_sleep[] = {
"21 20 26 1",
" 	c None",
".	c #9BA5C2",
"+	c #A8AAB6",
"@	c #E1E1FE",
"#	c #CADAF7",
"$	c #BDC2C7",
"%	c #A5A6A6",
"&	c #F4F3F4",
"*	c #BFBFF9",
"=	c #999899",
"-	c #A5B6DE",
";	c #8C9AAB",
">	c #BDBCBB",
",	c #676898",
"'	c #8391C5",
")	c #848484",
"!	c #A5BDC6",
"~	c #798597",
"{	c #B1B1B1",
"]	c #6E6D72",
"^	c #FCFBFC",
"/	c #8B8C8E",
"(	c #9A9DF5",
"_	c #917584",
":	c #8B9496",
"<	c #858BA7",
"                     ",
"        ....+        ",
"      ..@@#$%        ",
"     .@&@*=%         ",
"    .@&@-;           ",
"   .@&&#;>           ",
"   .&@,*'            ",
"  .@@@,#,$           ",
"  .@@@#@#=)          ",
"  .@@@##*@-)         ",
"  .#@##***!~     =   ",
"  .*@*,*{)]{   $;)   ",
"  %.##*,~^^]/=;(,%   ",
"   +.***_~).(((']{   ",
"    {'**((((((']%    ",
"     %:((((('<]=$    ",
"       ==]]]]={      ",
"          $$         ",
"                     ",
"                     "};
