/* XPM */
static char * msn_laugh[] = {
"29 22 34 1",
" 	c None",
".	c #BDBCBB",
"+	c #BBAE93",
"@	c #C6B070",
"#	c #C5A549",
"$	c #BCA766",
"%	c #BDB7AB",
"&	c #927943",
"*	c #FDF18D",
"=	c #FFFFFF",
"-	c #FBD96D",
";	c #E3C44B",
">	c #FCDE43",
",	c #631B13",
"'	c #D5B44E",
")	c #9E7525",
"!	c #AF9559",
"~	c #DFC772",
"{	c #AA9B85",
"]	c #FFF662",
"^	c #9C864E",
"/	c #CDEFF9",
"(	c #CADAF7",
"_	c #FDFEFE",
":	c #B1E3FA",
"<	c #FFFFF4",
"[	c #CC9930",
"}	c #B3AAA0",
"|	c #DFCFA7",
"1	c #FEFEFE",
"2	c #97866C",
"3	c #DFE7C6",
"4	c #B88E2C",
"5	c #AF9478",
"                             ",
"          .+@#$+.            ",
"        %@&$***$&$%          ",
"       +@==&***&==$+         ",
"      +-&==&***&==&;+        ",
"     %>*&,,&***&,,&-'%       ",
"     @**),,)***),,)*-!       ",
"    .>**~))~***~));--'%      ",
"    +-*************--;{      ",
"    @**********]***---^      ",
"    #**~)~-*****-')'--^      ",
"    $]*)/))~-*-~))()-~^      ",
"    +-*)((/)))))((_)-'{      ",
"    .;*~)__(:(((<<)'-[}      ",
"     $-];)|_=1<_|)'-'2       ",
"     %;-*;))|3|))'--[}       ",
"      +;---')))'---[{        ",
"       +'--------'4{         ",
"        %!';~-;'[2}          ",
"          %5!^2{}            ",
"                             ",
"                             "};
