/* XPM */
static char * msn_sun[] = {
"19 19 77 1",
" 	c None",
".	c #EF1720",
"+	c #B0989F",
"@	c #EF1020",
"#	c #C0B0B0",
"$	c #BF6F70",
"%	c #AF505F",
"&	c #C0A8AF",
"*	c #EF382F",
"=	c #AF787F",
"-	c #BF786F",
";	c #AF9F8F",
">	c #A08050",
",	c #A06820",
"'	c #9F784F",
")	c #9F907F",
"!	c #BFB8B0",
"~	c #EF2F20",
"{	c #B09F9F",
"]	c #F04730",
"^	c #D0976F",
"/	c #BF903F",
"(	c #CFA720",
"_	c #E0C720",
":	c #F0DF20",
"<	c #E0C820",
"[	c #EF1F20",
"}	c #AF575F",
"|	c #AFA0A0",
"1	c #BFAFAF",
"2	c #B07F6F",
"3	c #BF8F3F",
"4	c #EFC820",
"5	c #F0E01F",
"6	c #F0E020",
"7	c #FFE020",
"8	c #A0887F",
"9	c #9F878F",
"0	c #A09780",
"a	c #908770",
"b	c #B0AFB0",
"c	c #B06F70",
"d	c #9F7F50",
"e	c #FFE01F",
"f	c #9F774F",
"g	c #BFA8AF",
"h	c #9F6820",
"i	c #F0DF1F",
"j	c #A06F20",
"k	c #EF2720",
"l	c #EF2F2F",
"m	c #AF474F",
"n	c #9F7F7F",
"o	c #A09F9F",
"p	c #9F8F7F",
"q	c #CFA72F",
"r	c #B08770",
"s	c #BF6750",
"t	c #A09790",
"u	c #BF9090",
"v	c #A0676F",
"w	c #AF777F",
"x	c #AF7F70",
"y	c #90908F",
"z	c #90774F",
"A	c #908F8F",
"B	c #B0675F",
"C	c #9F5860",
"D	c #AF9090",
"E	c #E01720",
"F	c #B0A0A0",
"G	c #A06F70",
"H	c #9F585F",
"I	c #A0A0A0",
"J	c #AF8F90",
"K	c #9F7F80",
"L	c #B0B0B0",
"                   ",
"         .+        ",
"  @#    $@%    &@  ",
"  #*=- ;>,')! $~{  ",
"   =]^/(_:<(/^[}|  ",
"   1234567754389   ",
"    0(6677765(ab   ",
"   cd_e576565_f%g  ",
" .@@h:7767667ij[kl ",
"  +%'_7666577_fmno ",
"    p(7765677qao   ",
"    r346556743st   ",
"   u*^3(_:_(3^lv   ",
"   ~wxyaz,zaABC.D  ",
"  EF    G@HI   J@  ",
"        1@K        ",
"         [L        ",
"                   ",
"                   "};
