/* XPM */
static char * msn_rainbow[] = {
"22 14 136 2",
"  	c None",
". 	c #C0A0A0",
"+ 	c #BF8F8F",
"@ 	c #C0A8AF",
"# 	c #BF8780",
"$ 	c #CF3F3F",
"% 	c #E0181F",
"& 	c #EF100F",
"* 	c #EF1010",
"= 	c #DF1F1F",
"- 	c #BF4740",
"; 	c #B09090",
"> 	c #C0A7A0",
", 	c #DF2720",
"' 	c #FF2700",
") 	c #FF6000",
"! 	c #FF9000",
"~ 	c #FFA800",
"{ 	c #FFA700",
"] 	c #FF8700",
"^ 	c #FF4800",
"/ 	c #F01700",
"( 	c #C03F3F",
"_ 	c #F0170F",
": 	c #FF5800",
"< 	c #FFC700",
"[ 	c #F0F800",
"} 	c #D0FF00",
"| 	c #BFFF00",
"1 	c #C0FF00",
"2 	c #DFFF00",
"3 	c #FFEF00",
"4 	c #FF3700",
"5 	c #D01F1F",
"6 	c #EF1710",
"7 	c #FF6800",
"8 	c #FFE800",
"9 	c #60E010",
"0 	c #30C720",
"a 	c #1FC030",
"b 	c #1FC02F",
"c 	c #3FCF1F",
"d 	c #80EF0F",
"e 	c #FF3800",
"f 	c #D03730",
"g 	c #FF5700",
"h 	c #FFE700",
"i 	c #AFF80F",
"j 	c #2FC720",
"k 	c #00B85F",
"l 	c #00CF90",
"m 	c #00D7B0",
"n 	c #00D7AF",
"o 	c #00C780",
"p 	c #00B740",
"q 	c #4FD71F",
"r 	c #FFB800",
"s 	c #AF4740",
"t 	c #BF9090",
"u 	c #F0270F",
"v 	c #FFBF00",
"w 	c #00C77F",
"x 	c #00DFDF",
"y 	c #00B7F0",
"z 	c #0088E0",
"A 	c #0097E0",
"B 	c #00CFF0",
"C 	c #00D8BF",
"D 	c #00B750",
"E 	c #5FDF10",
"F 	c #EFF800",
"G 	c #E00F0F",
"H 	c #A09790",
"I 	c #C05050",
"J 	c #F0EF00",
"K 	c #70E70F",
"L 	c #00C050",
"M 	c #00DFD0",
"N 	c #0090EF",
"O 	c #0F20A0",
"P 	c #1F008F",
"Q 	c #100090",
"R 	c #0040BF",
"S 	c #00C0F0",
"T 	c #10BF30",
"U 	c #AFF800",
"V 	c #FFC800",
"W 	c #F01F00",
"X 	c #9F5750",
"Y 	c #D02F2F",
"Z 	c #FF7F00",
"` 	c #D0F700",
" .	c #40D01F",
"..	c #00D890",
"+.	c #00B8E0",
"@.	c #0028AF",
"#.	c #50078F",
"$.	c #707070",
"%.	c #9F079F",
"&.	c #2F008F",
"*.	c #005FCF",
"=.	c #00DFE0",
"-.	c #00BF5F",
";.	c #7FE70F",
">.	c #FF3F00",
",.	c #AF3730",
"'.	c #CF3830",
").	c #E08810",
"!.	c #B0D80F",
"~.	c #30B82F",
"{.	c #0FC79F",
"].	c #0F88C0",
"^.	c #1F1890",
"/.	c #707770",
"(.	c #6F108F",
"_.	c #0F389F",
":.	c #0FB7CF",
"<.	c #10B060",
"[.	c #5FC01F",
"}.	c #D0D00F",
"|.	c #DF4F0F",
"1.	c #B0A0A0",
"2.	c #9F8870",
"3.	c #8F9060",
"4.	c #6F876F",
"5.	c #608880",
"6.	c #607F8F",
"7.	c #60607F",
"8.	c #A090A0",
"9.	c #70788F",
"0.	c #60878F",
"a.	c #608770",
"b.	c #708860",
"c.	c #8F8F60",
"d.	c #907060",
"e.	c #907F7F",
"                                            ",
"                  . + + @                   ",
"              # $ % & * = - ;               ",
"          > , ' ) ! ~ { ] ^ / (             ",
"        + _ : < [ } | 1 2 3 ~ 4 5           ",
"      > 6 7 8 1 9 0 a b c d 2 < e 5         ",
"      f g h i j k l m n o p q } r ' s       ",
"    t u v 1 j w x y z A B C D E F ] G H     ",
"    I g J K L M N O P Q R S n T U V W X     ",
"    Y Z `  ...+.@.#.$.%.&.*.=.-.;.8 >.,.    ",
"    '.).!.~.{.].^./.    (._.:.<.[.}.|.,.    ",
"    1.2.3.4.5.6.7.      8.9.0.a.b.c.d.e.    ",
"                                            ",
"                                            "};
