/* XPM */
static char * msn_sad[] = {
"21 21 31 1",
" 	c None",
".	c #BBAE93",
"+	c #C6B070",
"@	c #C5A549",
"#	c #BCA766",
"$	c #F9CD34",
"%	c #FCDE43",
"&	c #FEEC51",
"*	c #EDB828",
"=	c #FBD96D",
"-	c #DBA82A",
";	c #E3C44B",
">	c #9E7525",
",	c #D5B44E",
"'	c #631B13",
")	c #E1C931",
"!	c #AF9559",
"~	c #9C864E",
"{	c #383836",
"]	c #FFFFF4",
"^	c #F7FFF7",
"/	c #FDFEFE",
"(	c #AA9B85",
"_	c #FFFFFF",
":	c #927943",
"<	c #FEFEFE",
"[	c #CC9930",
"}	c #A93623",
"|	c #B88E2C",
"1	c #CE8825",
"2	c #DEB819",
"                     ",
"        .+@#.        ",
"      +$%&&%$*#      ",
"    .$&&=&&&&%$-.    ",
"   .%&&=&&=&&%%%-.   ",
"   $&;>>;&&&,>>,$-   ",
"  +%&>''>&=&>''>$)!  ",
"  $=&~{'~&&&~''~$$-  ",
" .%&&~]^~&&%~^/~$)-( ",
" +%&&~__:&&%~_<~$**~ ",
" @%&%#~~#&%%#~~@$**~ ",
" #%%&&&&&%%%%$$$**-~ ",
" .)%%%%%%%%%$$$)**-( ",
"  *%%%%,[}}}[-$***|  ",
"  #)%%[}}[-[}}1**-~  ",
"   -$$}[$$$$*1}*2|   ",
"   .-$$$$)*****2|(   ",
"    .-********-|(    ",
"      ![--*--|~      ",
"        (!~~(        ",
"                     "};
