/* XPM */
static char * msn_bat[] = {
"19 19 21 1",
" 	c None",
".	c #555F55",
"+	c #AA9FAA",
"@	c #553F55",
"#	c #808080",
"$	c #000000",
"%	c #2A3F00",
"&	c #2A1F55",
"*	c #D4DF00",
"=	c #2A3F55",
"-	c #2A1F00",
";	c #AA7F00",
">	c #7F1F55",
",	c #7F1F00",
"'	c #FF3F00",
")	c #551F00",
"!	c #FF3F55",
"~	c #AA3F55",
"{	c #AA3F00",
"]	c #553F00",
"^	c #7F5F55",
"                   ",
"                   ",
"                   ",
"                   ",
"       .+  @       ",
"   #@  @$ $%  ..   ",
"   .$. .$$$@ .$@   ",
"  #$.&.@*.*&.=@-.  ",
" #-.@@$$;-;$$@.@&. ",
" $&@=$=-$$$$@$..-$ ",
" @@-.-.$>$,$@-.-@. ",
"   $=$.$')!$.=$$   ",
"   .@.&$~ {$&].@   ",
"      %^   ^%      ",
"                   ",
"                   ",
"                   ",
"                   ",
"                   "};
