/* XPM */
static char * msn_icon[] = {
"29 17 35 1",
" 	c None",
".	c #679581",
"+	c #798597",
"@	c #A5A6A6",
"#	c #78BC81",
"$	c #396B4C",
"%	c #999899",
"&	c #BDB7AB",
"*	c #FEFABD",
"=	c #8C9AAB",
"-	c #5D7069",
";	c #DFCFA7",
">	c #163A5D",
",	c #9BD1A3",
"'	c #F7F7F7",
")	c #7EA7D7",
"!	c #233E87",
"~	c #246BAC",
"{	c #6E6D72",
"]	c #848484",
"^	c #4B5377",
"/	c #676898",
"(	c #B1B1B1",
"_	c #DFE7C6",
":	c #FFFFF4",
"<	c #CCD4DB",
"[	c #4A794A",
"}	c #58AC53",
"|	c #B6CCDE",
"1	c #FDFEFE",
"2	c #A5BDC6",
"3	c #CDEFF9",
"4	c #8B9496",
"5	c #92C9EC",
"6	c #A8AAB6",
"                             ",
"        ..+@ @#.$@           ",
"       %&*=-%#;#$>%          ",
"       .,')!.#,.~>{          ",
"        -~~~-$~~!!]          ",
"        .^^{]$>>!/%          ",
"       .;*&+/.$$>-(          ",
"      .__:<=[#,}$>-          ",
"     .|=_12.,,;#[>>^(        ",
"     .)._3.,#,,.~~>>/        ",
"     @+-2..~#,,.~~>!~(       ",
"        4}~!}5#~~~!>/(       ",
"         $!!}...~~!^4        ",
"         64.[.~~~~!-         ",
"             2@@%@@          ",
"                             ",
"                             "};
