/* XPM */
static char * msn_film[] = {
"30 21 35 1",
" 	c None",
".	c #B1B1B1",
"+	c #8B8C8E",
"@	c #999899",
"#	c #848484",
"$	c #6E6D72",
"%	c #8C9AAB",
"&	c #CACACA",
"*	c #BDC2C7",
"=	c #F7FFF7",
"-	c #EAEBEB",
";	c #F4F3F4",
">	c #FFFFFF",
",	c #A8AAB6",
"'	c #8B9496",
")	c #A5A6A6",
"!	c #FDFEFE",
"~	c #383836",
"{	c #DDDDDD",
"]	c #060505",
"^	c #5D7069",
"/	c #BDBCBB",
"(	c #565350",
"_	c #CCD4DB",
":	c #858BA7",
"<	c #97866C",
"[	c #D6D6D6",
"}	c #989281",
"|	c #F7F7F7",
"1	c #BDB7AB",
"2	c #706857",
"3	c #798597",
"4	c #679581",
"5	c #F9F9F9",
"6	c #89716A",
"                              ",
"           .+.@+              ",
"       @+#$%&*=-$             ",
"      #;>&,#@''@-#            ",
"     )-!#~+)'@%'@@,           ",
"     #{-$]^,/$$$'-$           ",
"     #((_~$->@(~';$/          ",
"     :(~-&*).{<~'[@+          ",
"     #*#'({~~/}~++|#          ",
"     #{{.$[~]#12~'+$          ",
"     '/(';-%~,&+(~'$          ",
"      3~(-#/[;[}((~'          ",
"      $$(-~~_-[4(~(]''        ",
"       +55~~@-[<+~~(]'''      ",
"       ),>,~@{#(~(((2(]+      ",
"        @'{[-^(((((((($]      ",
"         /$^($+6(((((2]       ",
"               '2~~(]]        ",
"                @]]]          ",
"                              ",
"                              "};
