/* XPM */
static char * msn_angel[] = {
"29 21 47 1",
" 	c None",
".	c #FAB089",
"+	c #BBAE93",
"@	c #E1C931",
"#	c #FBD96D",
"$	c #FEEC51",
"%	c #FEFABD",
"&	c #FFFFF4",
"*	c #F6830D",
"=	c #FEED0D",
"-	c #FFFFFF",
";	c #CACACA",
">	c #D7D3CD",
",	c #A8AAB6",
"'	c #CCD4DB",
")	c #AA9B85",
"!	c #C6B070",
"~	c #C5A549",
"{	c #D5B44E",
"]	c #BCA766",
"^	c #BDBCBB",
"/	c #D6D6D6",
"(	c #CE8825",
"_	c #FFF662",
":	c #FCDE43",
"<	c #B3AAA0",
"[	c #565350",
"}	c #FDE52F",
"|	c #EDB828",
"1	c #706857",
"2	c #4A794A",
"3	c #AF9559",
"4	c #DBA82A",
"5	c #F9CD34",
"6	c #C79C55",
"7	c #F7FFF7",
"8	c #FDFEFE",
"9	c #CC9930",
"0	c #DEB819",
"a	c #B88E2C",
"b	c #9E7525",
"c	c #97866C",
"d	c #631B13",
"e	c #B54F37",
"f	c #A93623",
"g	c #7E682D",
"h	c #F0A316",
"                             ",
"               .             ",
"       +@#      $@+          ",
"      +@%&******@%=          ",
"      @-**;;>;>>**,=         ",
"     + *;')!~{])^/( .        ",
"     @ *;!!___$:{<* =        ",
"      + {{_[[{}[[|#_.        ",
"      ]]!$_123:1234          ",
"       $$$!1&3{1&~56         ",
"      !$:$3783!78~|9         ",
"      ~$$$!33]!3~~59         ",
"      {$$:$$$}:0:5|a         ",
"      ]:}:$$::}54||a         ",
"       5$:b5}:5||b4c         ",
"       {55:de(aff|a          ",
"        455|afgb0(           ",
"         4|||||ha            ",
"          ]aaaac             ",
"                             ",
"                             "};
