/* XPM */
static char * msn_weird[] = {
"21 21 27 1",
" 	c None",
".	c #BBAE93",
"+	c #C6B070",
"@	c #C5A549",
"#	c #BCA766",
"$	c #FCDE43",
"%	c #FEEC51",
"&	c #FFF662",
"*	c #F9CD34",
"=	c #EDB828",
"-	c #927943",
";	c #DBA82A",
">	c #FFFFFF",
",	c #AF9559",
"'	c #B3AAA0",
")	c #631B13",
"!	c #AA9B85",
"~	c #FEFEFE",
"{	c #9C864E",
"]	c #A93623",
"^	c #9E7525",
"/	c #B54F37",
"(	c #CC9930",
"_	c #F4932E",
":	c #CC5A3E",
"<	c #B88E2C",
"[	c #CE8825",
"                     ",
"        .+@#.        ",
"      +$%%&%$*#      ",
"    .$%&&&&&&%$=.    ",
"   .$&&&&&&&&%%%=.   ",
"   $&.--+&&&#--+$;   ",
"  +%&->>-&&&->>-$*,  ",
"  $&&-')-&&&-)'-$$;  ",
" .$&&-')-&&&-)'-$*=! ",
" +%&&-~>-&&%->~-$*={ ",
" @&&&#--+&%&#--#***{ ",
" #%%&&&&&%%%%%$***={ ",
" .$%%%%%%%%%%$$$**;! ",
"  *%%%]%%%;^//(***(  ",
"  #*%%/;%;]_*(/*=={  ",
"   =$$=/]:(***]**<   ",
"   .=*$*$*****=*[!   ",
"    .;******=*=<!    ",
"      ,;==*=;({      ",
"        !,{{!        ",
"                     "};
