/* XPM */
static char * msn_drink[] = {
"21 21 31 1",
" 	c None",
".	c #FF9FAA",
"+	c #FF5F55",
"@	c #AABFAA",
"#	c #AA9FAA",
"$	c #A0A0A4",
"%	c #7F9FAA",
"&	c #AA7F55",
"*	c #D43F00",
"=	c #FFDFFF",
"-	c #D4FFFF",
";	c #FFFFFF",
">	c #D4DFFF",
",	c #C0DCC0",
"'	c #D4BFAA",
")	c #A6CAF0",
"!	c #808080",
"~	c #FFFBF0",
"{	c #CCCCFF",
"]	c #FF3F00",
"^	c #555FAA",
"/	c #D45F55",
"(	c #557FAA",
"_	c #AADFAA",
":	c #2A7F55",
"<	c #007F55",
"[	c #2A5F00",
"}	c #2A5F55",
"|	c #7F7F55",
"1	c #557F55",
"2	c #CCFFFF",
"                     ",
"            .+       ",
"     @@#$$%$&*%#     ",
"    $=-;->;,+';)!>   ",
"    !~>{{>{,]')!^@   ",
"    $%@,@@##/$(!!'   ",
"     $>~>>%]'>$!@>   ",
"      $@>_:<%%!#,    ",
"       $),[}|!#,     ",
"        !@%1!#,      ",
"         $$!$,       ",
"          >!@        ",
"          2!,        ",
"          >!,        ",
"          -!@        ",
"          >!,        ",
"         ,>!#        ",
"       ,{>>2#$       ",
"       >$$$$#%       ",
"        ,,,,,'       ",
"                     "};
