/* XPM */
static char * msn_cat[] = {
"21 20 32 1",
" 	c None",
".	c #B1B1B1",
"+	c #999899",
"@	c #917584",
"#	c #848484",
"$	c #8B9496",
"%	c #565350",
"&	c #383836",
"*	c #6E6D72",
"=	c #060505",
"-	c #A5A6A6",
";	c #8B8C8E",
">	c #89716A",
",	c #706857",
"'	c #5D7069",
")	c #989281",
"!	c #AB8485",
"~	c #D7D3CD",
"{	c #FFF5EF",
"]	c #F9F9F9",
"^	c #FCFBFC",
"/	c #EAEBEB",
"(	c #F7F7F7",
"_	c #FEFEFE",
":	c #FFFFFF",
"<	c #BDBCBB",
"[	c #A8AAB6",
"}	c #CACACA",
"|	c #BDC2C7",
"1	c #F4F3F4",
"2	c #BDB7AB",
"3	c #D6D6D6",
"                     ",
"              .+     ",
"    @#       $%&     ",
"    *=#-.++..&&&;    ",
"    >&&&%&&&&&%&,    ",
"    *&&&&%%&&&&&'.   ",
"     @)++!~~~;&&>    ",
"     &;{]%*~^/%&*    ",
"     ==(_==#_^,&,    ",
"     =-::%=@<<,%'[   ",
"   %&-}}|1#&&%+&*.   ",
"   #*/*=&:.*##@&;2   ",
"   &=2:%<:;%&=&*-    ",
"   .*-}:3::_+&*$.    ",
"     *,:::::%*$.     ",
"      #***'',+.      ",
"       *',,,+.       ",
"        .[[[.        ",
"                     ",
"                     "};
