/* XPM */
static char * msn_clock[] = {
"29 21 51 1",
" 	c None",
".	c #CACACA",
"+	c #A8AAB6",
"@	c #B1B1B1",
"#	c #BDBCBB",
"$	c #A5A6A6",
"%	c #999899",
"&	c #D6D6D6",
"*	c #EAEBEB",
"=	c #CCD4DB",
"-	c #B6CCDE",
";	c #BDC2C7",
">	c #8B8C8E",
",	c #A5BDC6",
"'	c #BDB7AB",
")	c #BBAE93",
"!	c #8B9496",
"~	c #DDDDDD",
"{	c #F2FCFF",
"]	c #FDFEFE",
"^	c #CC5A3E",
"/	c #FCC3A4",
"(	c #CDEFF9",
"_	c #9BA5C2",
":	c #848484",
"<	c #E1E1FE",
"[	c #FFFFFF",
"}	c #FFFFF4",
"|	c #F7FFF7",
"1	c #E4F4FC",
"2	c #7EA7D7",
"3	c #383836",
"4	c #8C9AAB",
"5	c #6E6D72",
"6	c #FEFEFE",
"7	c #798597",
"8	c #B1E3FA",
"9	c #6789B3",
"0	c #5D7069",
"a	c #FFF5EF",
"b	c #F5DDCB",
"c	c #CADAF7",
"d	c #4B5377",
"e	c #679581",
"f	c #92C9EC",
"g	c #A5B6DE",
"h	c #565350",
"i	c #858BA7",
"j	c #B3AAA0",
"k	c #F78E65",
"l	c #676898",
"                             ",
"         .+@#@$%@            ",
"        +&*=--;;@>.          ",
"      =#*-,-'),,+@!@         ",
"      #~,={]^/{(-_$:@        ",
"     +*,<[[[}|1(234%5        ",
"    .&-=[6[]{1(73487::       ",
"    $*;1[6{11(!39((!!0       ",
"    +=,][]11;739(((,45#      ",
"    '-'^a{1->33333/^::%      ",
"    @-,b{11c!de748~)>5%      ",
"    $.,(((((8f888({,_5@      ",
"    4#,8(((8888881{7gh       ",
"    @++-(888888816-iih       ",
"     4j4-(((c-(16.7gh%       ",
"     @4!4,((k^]{,7+55        ",
"      +%>7e4$%474+lh         ",
"       i05%444__i35          ",
"         :h050hhh$           ",
"                             ",
"                             "};
