/* XPM */
static char * msn_neutral[] = {
"29 22 27 1",
" 	c None",
".	c #BBAE93",
"+	c #C6B070",
"@	c #C5A549",
"#	c #BCA766",
"$	c #FCDE43",
"%	c #FEEC51",
"&	c #FFF662",
"*	c #F9CD34",
"=	c #AA9B85",
"-	c #631B13",
";	c #D5B44E",
">	c #AF9478",
",	c #DFC772",
"'	c #E3C44B",
")	c #DBA82A",
"!	c #927943",
"~	c #E1C931",
"{	c #AF9559",
"]	c #F5DDCB",
"^	c #FDFEFE",
"/	c #FFFFFF",
"(	c #EDB828",
"_	c #9C864E",
":	c #CC9930",
"<	c #A93623",
"[	c #B88E2C",
"                             ",
"           .+@#.             ",
"         +$%%&%$*#           ",
"       =---;&&&;--->         ",
"      .-,&,-&&&-'&;-.        ",
"      $&&&&&&&&&%%%$)        ",
"     +%$!!!$&&&*!!!~*{       ",
"     $&!]^]!&&&!]/]!$)       ",
"    .$&!/-^!&&&!/-^!*(=      ",
"    +%&!]^]!&&%!]^]!**_      ",
"    @%&'!!!'&%&'!!!(**_      ",
"    #%%&&&&&%%%%%$$**(_      ",
"    .$%&%%%&%%%%$$***)=      ",
"     *%%%%%%%%%$$****:       ",
"     #*%%%%$%$$*****(_       ",
"      ($$$<<<<<<<*(*[        ",
"      .(*$*$*******:=        ",
"       .)*******(([=         ",
"         {)((*():_           ",
"           ={__=             ",
"                             ",
"                             "};
