/* XPM */
static char * msn_beer[] = {
"21 21 30 1",
" 	c None",
".	c #C0DCC0",
"+	c #A0A0A4",
"@	c #AA9FAA",
"#	c #AABFAA",
"$	c #D4DFFF",
"%	c #FFDFFF",
"&	c #FFFBF0",
"*	c #CCCCFF",
"=	c #D4BFAA",
"-	c #808080",
";	c #FFFFFF",
">	c #FFDFAA",
",	c #AA9F55",
"'	c #FF9F55",
")	c #D4DFAA",
"!	c #7F7FAA",
"~	c #AA7F55",
"{	c #D49F55",
"]	c #FFBF55",
"^	c #D47F55",
"/	c #AA5F55",
"(	c #AA7FAA",
"_	c #D4BFFF",
":	c #D47F00",
"<	c #D45F55",
"[	c #D45F00",
"}	c #7F7F55",
"|	c #7F5F55",
"1	c #555F55",
"                     ",
"     .+@+@+#$        ",
"    #%$$$$$&#.       ",
"   .@.&&&&&*=+$      ",
"   #@.#@+@@##-.      ",
"   #*;$..*.;$-@      ",
"   =@>;;;&&&@---#    ",
"   .,'=&>)=@!-##-$   ",
"   @~{]]{^/(!-=_-.   ",
"   #~{]'{:<~!-#$-.   ",
"   #~{]]{</-(-#&-.   ",
"   @,{']{:[(!-#$-.   ",
"   @~{]>{<%-!-#%-.   ",
"   +~{>]{)/~!---+.   ",
"   -,{&]{><(!-!.=*   ",
"   !~'>''.<-!-#.$    ",
"   ++{>]{><-!-=      ",
"    #-+}||1|-+.      ",
"     .=@@@#@#.       ",
"      $&$&$$%        ",
"                     "};
