/* XPM */
static char * msn_wink[] = {
"29 23 41 1",
" 	c None",
".	c #BDBCBB",
"+	c #BBAE93",
"@	c #C6B070",
"#	c #C5A549",
"$	c #BCA766",
"%	c #BDB7AB",
"&	c #631B13",
"*	c #565350",
"=	c #CACACA",
"-	c #927943",
";	c #D5B44E",
">	c #FEEC51",
",	c #FCDE43",
"'	c #E1C931",
")	c #DFCFA7",
"!	c #706857",
"~	c #F9CD34",
"{	c #E3C44B",
"]	c #EDB828",
"^	c #DFC772",
"/	c #FFF662",
"(	c #FDE52F",
"_	c #9C864E",
":	c #AF9478",
"<	c #FEFEFE",
"[	c #FFFFF4",
"}	c #FFFFFF",
"|	c #AF9559",
"1	c #D1C021",
"2	c #9E7525",
"3	c #DBA82A",
"4	c #AA9B85",
"5	c #A93623",
"6	c #B88E2C",
"7	c #B3AAA0",
"8	c #CC9930",
"9	c #B54F37",
"0	c #CE8825",
"a	c #DEB819",
"b	c #F0A316",
"                             ",
"                             ",
"          .+@#$+.%&*=        ",
"        %-&&;>,,'&$)!        ",
"       +~,{;&{>,>~]^         ",
"      +,//>/{&>>(@__:        ",
"     %~>///>>>>>,_<<_%       ",
"     @>///>/>>>,(_[}_|       ",
"    .~>>>122~>>>>_&&_3%      ",
"    +,>>>>>~22>,(2&&234      ",
"    @>>>>>>>>>>>,'223]_      ",
"    #>,>>>>>>>(,,,~~]]_      ",
"    $,>>>>>>>,,,,~~]]]_      ",
"    +~(,(,5(,,,,~~~]]34      ",
"    .~,,,,53,,~~~~]]]67      ",
"     $~,,(358~~~~]]]3_       ",
"     %]~~~~39908]05]67       ",
"      +3~~~~309555064        ",
"       +3]]]]]a]a364         ",
"        %|83b]b36_7          ",
"          %4|__47            ",
"                             ",
"                             "};
