/* XPM */
static char *msn_away_xpm[] = {
/* columns rows colors chars-per-pixel */
"12 12 91 1",
"  c Gray0",
". c #193273",
"X c #1b3777",
"o c #293a61",
"O c #2d4553",
"+ c #3a5356",
"@ c #36586d",
"# c #3e5764",
"$ c #3c5475",
"% c #306b74",
"& c #3a617a",
"* c #7f402e",
"= c Gray25",
"- c Gray26",
"; c #425163",
": c #46667c",
"> c #506c73",
", c #567d7a",
"< c #617550",
"1 c #60736e",
"2 c #627469",
"3 c #65756a",
"4 c #114092",
"5 c #1f4ba7",
"6 c #2d5489",
"7 c #325286",
"8 c #365988",
"9 c #3e5584",
"0 c #3b578b",
"q c #3b588e",
"w c #385a99",
"e c #3a5d98",
"r c #3f6aa3",
"t c #3261bf",
"y c #3d72a2",
"u c #3874be",
"i c #225ac5",
"p c #2f60cf",
"a c #3f7ac5",
"s c #496988",
"d c #54758a",
"f c #5f7e8e",
"g c #7e8676",
"h c #788e7a",
"j c #749474",
"k c #4e9e80",
"l c #5f809e",
"z c #5a81a7",
"x c #5d86a7",
"c c #63b895",
"v c #77a0af",
"b c #7aa4a7",
"n c #69a5c1",
"m c #7cc5b8",
"M c #9b2f00",
"N c #95370b",
"B c #873720",
"V c #b1743d",
"C c #9e6f58",
"Z c #af7058",
"A c #b77750",
"S c #d7512a",
"D c #d7532c",
"F c #d85630",
"G c #dc6846",
"H c #d97f63",
"J c #829f6d",
"K c #90b87f",
"L c #b89766",
"P c #dd886f",
"I c #909090",
"U c #8bab8f",
"Y c #88a99e",
"T c #b7b7b7",
"R c #9bce90",
"E c #99c2bd",
"W c #b0c696",
"Q c #abeabe",
"! c #e79780",
"~ c #e4a488",
"^ c #f0beaf",
"/ c #f2c6b9",
"( c #f6d6cd",
") c #ede7e5",
"_ c #efefef",
"` c Gray94",
"' c #fcf4f1",
"] c #f9f9f9",
"[ c Gray98",
"{ c Gray100",
"} c None",
/* pixels */
"}}}}}}J<g}}}",
"}}}}}RWhO;}}",
"}}}}cQExw.}}",
"}}}}kmnap5}}",
"}}}},%yti4}}",
"}}}}}+@70}}}",
"}G!BPVKj2}}}",
"D({=)~LU>#}}",
"F]_=`^AYf$&}",
"FT=I]^Zbl9r6",
"S/{{'HCvzqeu",
"}1*MN3ds8Xo:"
};
