<?xml version="1.0" encoding="UTF-8" standalone="no"?>
<!-- Created with Inkscape (http://www.inkscape.org/) -->

<svg
   xmlns:dc="http://purl.org/dc/elements/1.1/"
   xmlns:cc="http://creativecommons.org/ns#"
   xmlns:rdf="http://www.w3.org/1999/02/22-rdf-syntax-ns#"
   xmlns:svg="http://www.w3.org/2000/svg"
   xmlns="http://www.w3.org/2000/svg"
   xmlns:xlink="http://www.w3.org/1999/xlink"
   xmlns:sodipodi="http://sodipodi.sourceforge.net/DTD/sodipodi-0.dtd"
   xmlns:inkscape="http://www.inkscape.org/namespaces/inkscape"
   width="48"
   height="48.532452"
   id="svg3879"
   sodipodi:version="0.32"
   inkscape:version="0.46+devel r20974"
   version="1.0"
   sodipodi:docname="video.svg"
   inkscape:output_extension="org.inkscape.output.svg.inkscape">
  <defs
     id="defs3881">
    <linearGradient
       inkscape:collect="always"
       xlink:href="#linearGradient5837"
       id="linearGradient6047"
       gradientUnits="userSpaceOnUse"
       gradientTransform="matrix(0.57152873,0,0,1,83.824661,85.161402)"
       x1="-206.31369"
       y1="-38.305504"
       x2="-193.64967"
       y2="-23.3778" />
    <linearGradient
       inkscape:collect="always"
       id="linearGradient5837">
      <stop
         style="stop-color:#ffffff;stop-opacity:1;"
         offset="0"
         id="stop5839" />
      <stop
         style="stop-color:#ffffff;stop-opacity:0;"
         offset="1"
         id="stop5841" />
    </linearGradient>
    <radialGradient
       inkscape:collect="always"
       xlink:href="#linearGradient5636"
       id="radialGradient5953"
       gradientUnits="userSpaceOnUse"
       gradientTransform="matrix(2.1576192,0,0,2.1576196,320.68789,86.658003)"
       cx="-287.39545"
       cy="-83.346062"
       fx="-287.39545"
       fy="-83.346062"
       r="28.001333" />
    <linearGradient
       inkscape:collect="always"
       id="linearGradient5636">
      <stop
         style="stop-color:#ce5c00;stop-opacity:1"
         offset="0"
         id="stop5638" />
      <stop
         style="stop-color:#ce5c00;stop-opacity:0;"
         offset="1"
         id="stop5640" />
    </linearGradient>
    <linearGradient
       inkscape:collect="always"
       xlink:href="#linearGradient5837"
       id="linearGradient5843"
       x1="-187.10881"
       y1="-31.514177"
       x2="-186.73495"
       y2="-27.740944"
       gradientUnits="userSpaceOnUse"
       gradientTransform="matrix(0.94234189,0,0,1,188.53503,85.161402)" />
    <linearGradient
       inkscape:collect="always"
       xlink:href="#linearGradient5795"
       id="linearGradient5801"
       x1="-265.00021"
       y1="-54.745949"
       x2="-251.85565"
       y2="-66.937424"
       gradientUnits="userSpaceOnUse" />
    <linearGradient
       inkscape:collect="always"
       id="linearGradient5795">
      <stop
         style="stop-color:#ffffff;stop-opacity:1;"
         offset="0"
         id="stop5797" />
      <stop
         style="stop-color:#ffffff;stop-opacity:0;"
         offset="1"
         id="stop5799" />
    </linearGradient>
    <radialGradient
       inkscape:collect="always"
       xlink:href="#linearGradient5585"
       id="radialGradient5681"
       gradientUnits="userSpaceOnUse"
       gradientTransform="matrix(1.4937663,0,0,1.493766,135.56448,35.312572)"
       cx="-277.8414"
       cy="-82.264709"
       fx="-277.8414"
       fy="-82.264709"
       r="27.622614" />
    <linearGradient
       inkscape:collect="always"
       id="linearGradient5585">
      <stop
         style="stop-color:#ffffff;stop-opacity:1;"
         offset="0"
         id="stop5587" />
      <stop
         style="stop-color:#ffffff;stop-opacity:0;"
         offset="1"
         id="stop5589" />
    </linearGradient>
    <radialGradient
       inkscape:collect="always"
       xlink:href="#linearGradient5636"
       id="radialGradient5646"
       cx="-278.76022"
       cy="-76.807457"
       fx="-278.76022"
       fy="-76.807457"
       r="28.001333"
       gradientUnits="userSpaceOnUse"
       gradientTransform="matrix(2.1576192,0,0,2.1576196,320.68789,86.658003)" />
    <radialGradient
       inkscape:collect="always"
       xlink:href="#linearGradient5614"
       id="radialGradient5624"
       gradientUnits="userSpaceOnUse"
       gradientTransform="matrix(1.1093921,0,0,1.1093921,30.866652,8.6133536)"
       cx="-280.78116"
       cy="-78.911339"
       fx="-280.78116"
       fy="-78.911339"
       r="29.214298" />
    <linearGradient
       inkscape:collect="always"
       id="linearGradient5614">
      <stop
         style="stop-color:#ffffff;stop-opacity:1;"
         offset="0"
         id="stop5616" />
      <stop
         style="stop-color:#ffffff;stop-opacity:0;"
         offset="1"
         id="stop5618" />
    </linearGradient>
    <radialGradient
       inkscape:collect="always"
       xlink:href="#linearGradient5585"
       id="radialGradient5591"
       cx="-273.07968"
       cy="-71.143715"
       fx="-273.07968"
       fy="-71.143715"
       r="27.622614"
       gradientUnits="userSpaceOnUse"
       gradientTransform="matrix(1.4937663,0,0,1.493766,135.56448,35.312572)" />
    <radialGradient
       inkscape:collect="always"
       xlink:href="#linearGradient5614"
       id="radialGradient5620"
       cx="-281.17819"
       cy="-78.86171"
       fx="-281.17819"
       fy="-78.86171"
       r="29.214298"
       gradientUnits="userSpaceOnUse"
       gradientTransform="matrix(1.3813297,0,0,1.3813297,107.2216,30.072312)" />
    <linearGradient
       inkscape:collect="always"
       xlink:href="#linearGradient5648"
       id="linearGradient5654"
       x1="-269.95532"
       y1="-62.28437"
       x2="-255.64305"
       y2="-34.32909"
       gradientUnits="userSpaceOnUse" />
    <linearGradient
       inkscape:collect="always"
       id="linearGradient5648">
      <stop
         style="stop-color:#ce5c00;stop-opacity:1;"
         offset="0"
         id="stop5650" />
      <stop
         style="stop-color:#4d2100;stop-opacity:1"
         offset="1"
         id="stop5652" />
    </linearGradient>
    <linearGradient
       inkscape:collect="always"
       xlink:href="#linearGradient5913"
       id="linearGradient5919"
       x1="-202.7368"
       y1="-50.5"
       x2="-192.7444"
       y2="-50.5"
       gradientUnits="userSpaceOnUse"
       gradientTransform="translate(197.97906,85.161402)" />
    <linearGradient
       inkscape:collect="always"
       id="linearGradient5913">
      <stop
         style="stop-color:#787878;stop-opacity:1;"
         offset="0"
         id="stop5915" />
      <stop
         style="stop-color:#787878;stop-opacity:0;"
         offset="1"
         id="stop5917" />
    </linearGradient>
    <linearGradient
       inkscape:collect="always"
       xlink:href="#linearGradient5887"
       id="linearGradient5893"
       x1="-247.54591"
       y1="-35.930092"
       x2="-264.87021"
       y2="-58.743122"
       gradientUnits="userSpaceOnUse" />
    <linearGradient
       inkscape:collect="always"
       id="linearGradient5887">
      <stop
         style="stop-color:#2e3436;stop-opacity:1;"
         offset="0"
         id="stop5889" />
      <stop
         style="stop-color:#2e3436;stop-opacity:0;"
         offset="1"
         id="stop5891" />
    </linearGradient>
    <filter
       inkscape:collect="always"
       id="filter5903">
      <feGaussianBlur
         inkscape:collect="always"
         stdDeviation="1.5089815"
         id="feGaussianBlur5905" />
    </filter>
    <linearGradient
       inkscape:collect="always"
       xlink:href="#linearGradient5987"
       id="linearGradient5993"
       x1="-183.87694"
       y1="-38.634178"
       x2="-183.87694"
       y2="-39.513264"
       gradientUnits="userSpaceOnUse"
       gradientTransform="matrix(1,0,0,1.7174974,199.08898,22.876918)" />
    <linearGradient
       inkscape:collect="always"
       id="linearGradient5987">
      <stop
         style="stop-color:#8ae234;stop-opacity:1;"
         offset="0"
         id="stop5989" />
      <stop
         style="stop-color:#ffffff;stop-opacity:1"
         offset="1"
         id="stop5991" />
    </linearGradient>
    <linearGradient
       inkscape:collect="always"
       xlink:href="#linearGradient5995"
       id="linearGradient6001"
       x1="-184.21419"
       y1="-37.343178"
       x2="-184.21419"
       y2="-39.290829"
       gradientUnits="userSpaceOnUse"
       gradientTransform="matrix(1,0,0,1.7174974,199.08898,22.876918)" />
    <linearGradient
       inkscape:collect="always"
       id="linearGradient5995">
      <stop
         style="stop-color:#4e9a06;stop-opacity:1;"
         offset="0"
         id="stop5997" />
      <stop
         style="stop-color:#72eb00;stop-opacity:1"
         offset="1"
         id="stop5999" />
    </linearGradient>
    <linearGradient
       inkscape:collect="always"
       xlink:href="#linearGradient5913"
       id="linearGradient5923"
       gradientUnits="userSpaceOnUse"
       x1="-203.15808"
       y1="-50.5"
       x2="-192.52609"
       y2="-50.5"
       gradientTransform="translate(228.08898,85.161402)" />
    <radialGradient
       inkscape:collect="always"
       xlink:href="#linearGradient5873"
       id="radialGradient5881"
       cx="-263.10712"
       cy="-59.058826"
       fx="-263.10712"
       fy="-59.058826"
       r="26.905991"
       gradientUnits="userSpaceOnUse"
       gradientTransform="matrix(2.2689136,-0.7557538,0.46722378,1.4051413,361.24185,-169.10186)" />
    <linearGradient
       inkscape:collect="always"
       id="linearGradient5873">
      <stop
         style="stop-color:#ffffff;stop-opacity:1"
         offset="0"
         id="stop5875" />
      <stop
         style="stop-color:#d3d7cf;stop-opacity:1"
         offset="1"
         id="stop5877" />
    </linearGradient>
    <linearGradient
       inkscape:collect="always"
       xlink:href="#linearGradient5730"
       id="linearGradient5736"
       x1="-260.28085"
       y1="-37.043636"
       x2="-259.48315"
       y2="-86.628036"
       gradientUnits="userSpaceOnUse" />
    <linearGradient
       inkscape:collect="always"
       id="linearGradient5730">
      <stop
         style="stop-color:#888a85;stop-opacity:1"
         offset="0"
         id="stop5732" />
      <stop
         style="stop-color:#2e3436;stop-opacity:1"
         offset="1"
         id="stop5734" />
    </linearGradient>
    <filter
       inkscape:collect="always"
       id="filter5867"
       x="-0.13159215"
       width="1.2631843"
       y="-0.13159215"
       height="1.2631843">
      <feGaussianBlur
         inkscape:collect="always"
         stdDeviation="2.8767211"
         id="feGaussianBlur5869" />
    </filter>
    <linearGradient
       inkscape:collect="always"
       xlink:href="#linearGradient5827"
       id="linearGradient6005"
       gradientUnits="userSpaceOnUse"
       x1="-203.06625"
       y1="-31.478365"
       x2="-191.55763"
       y2="-29.403404" />
    <linearGradient
       inkscape:collect="always"
       id="linearGradient5827">
      <stop
         style="stop-color:#ffffff;stop-opacity:1;"
         offset="0"
         id="stop5829" />
      <stop
         style="stop-color:#ffffff;stop-opacity:0;"
         offset="1"
         id="stop5831" />
    </linearGradient>
    <linearGradient
       gradientTransform="translate(199.08898,85.161402)"
       inkscape:collect="always"
       xlink:href="#linearGradient5783"
       id="linearGradient5789"
       x1="-179.45006"
       y1="-42.398266"
       x2="-176.44347"
       y2="-27.845135"
       gradientUnits="userSpaceOnUse" />
    <linearGradient
       inkscape:collect="always"
       id="linearGradient5783">
      <stop
         style="stop-color:#555753;stop-opacity:1"
         offset="0"
         id="stop5785" />
      <stop
         style="stop-color:#000000;stop-opacity:1"
         offset="1"
         id="stop5787" />
    </linearGradient>
    <filter
       inkscape:collect="always"
       id="filter6071"
       x="-0.06728632"
       width="1.1345726"
       y="-0.42854825"
       height="1.8570966">
      <feGaussianBlur
         inkscape:collect="always"
         stdDeviation="1.0645658"
         id="feGaussianBlur6073" />
    </filter>
  </defs>
  <sodipodi:namedview
     id="base"
     pagecolor="#ffffff"
     bordercolor="#666666"
     borderopacity="1.0"
     inkscape:pageopacity="0.0"
     inkscape:pageshadow="2"
     inkscape:zoom="7"
     inkscape:cx="33.886953"
     inkscape:cy="28.96425"
     inkscape:current-layer="layer1"
     showgrid="true"
     inkscape:grid-bbox="true"
     inkscape:document-units="px"
     inkscape:window-width="1280"
     inkscape:window-height="752"
     inkscape:window-x="0"
     inkscape:window-y="0" />
  <metadata
     id="metadata3884">
    <rdf:RDF>
      <cc:Work
         rdf:about="">
        <dc:format>image/svg+xml</dc:format>
        <dc:type
           rdf:resource="http://purl.org/dc/dcmitype/StillImage" />
        <dc:title></dc:title>
      </cc:Work>
    </rdf:RDF>
  </metadata>
  <g
     id="layer1"
     inkscape:label="Layer 1"
     inkscape:groupmode="layer"
     transform="translate(8.8571424,-13.162344)">
    <rect
       style="fill:none;stroke:none"
       id="rect6075"
       width="48"
       height="48"
       x="-8.8571424"
       y="13.196694"
       inkscape:export-xdpi="90.108963"
       inkscape:export-ydpi="90.108963" />
    <rect
       style="fill:#2e3436;fill-opacity:1;stroke:none;filter:url(#filter6071)"
       id="rect6053"
       width="37.971432"
       height="5.9618907"
       x="-201.937"
       y="-31.972912"
       rx="3.0037909"
       ry="2.7536142"
       transform="matrix(0.9923944,0,0,1.0825574,197.14181,87.087331)" />
    <path
       style="fill:#555753;fill-opacity:1;stroke:url(#linearGradient5789);stroke-width:0.99999994;stroke-linecap:round;stroke-linejoin:miter;stroke-miterlimit:4;stroke-opacity:1;stroke-dashoffset:220"
       d="m 3.5548184,46.680213 23.0742106,0.02567 c 0,0 5.89999,5.954475 5.89999,5.954475 0.63134,0.631336 1.02079,1.504553 1.02079,2.472078 0,1.935049 -1.55782,3.492869 -3.49286,3.492869 l -29.96012039,0 c -1.93505001,0 -3.49287001,-1.55782 -3.49287001,-3.492869 0,-0.967525 0.38945,-1.840742 1.02079,-2.472078 0,0 5.9300698,-5.980141 5.9300698,-5.980141 z"
       id="rect5738"
       sodipodi:nodetypes="ccssccssc" />
    <path
       transform="translate(199.08898,85.161402)"
       sodipodi:type="inkscape:offset"
       inkscape:radius="0.81427181"
       inkscape:original="M -194.625 -37.5 C -194.625 -37.5 -200.4375 -31.46875 -200.4375 -31.46875 C -200.81227 -31.093985 -201.03125 -30.595841 -201.03125 -30.03125 C -201.03125 -28.884593 -200.14666 -28 -199 -28 L -187.03125 -28 C -185.88461 -28 -185 -28.884598 -185 -30.03125 C -185 -30.595841 -185.21898 -31.093985 -185.59375 -31.46875 C -185.59375 -31.46875 -194.625 -37.5 -194.625 -37.5 z "
       style="fill:url(#linearGradient6005);fill-opacity:1;stroke:none"
       id="path6003"
       d="m -194.71875,-38.3125 a 0.81435323,0.81435323 0 0 0 -0.5,0.25 c 0,0 -5.8125,6.03125 -5.8125,6.03125 L -201,-32 c -0.50698,0.516344 -0.84375,1.202669 -0.84375,1.96875 0,1.565438 1.27831,2.84375 2.84375,2.84375 l 11.96875,0 c 1.56543,0 2.84375,-1.278306 2.84375,-2.84375 0,-0.775138 -0.32601,-1.482268 -0.84375,-2 a 0.81435323,0.81435323 0 0 0 -0.125,-0.125 c 0,0 -9.03125,-6.03125 -9.03125,-6.03125 a 0.81435323,0.81435323 0 0 0 -0.53125,-0.125 z" />
    <path
       transform="matrix(0.42980324,0,0,-0.19537277,129.65518,37.870176)"
       d="m -237.66937,-59.300812 c 0,14.488121 -11.74494,26.233063 -26.23307,26.233063 -14.48812,0 -26.23306,-11.744942 -26.23306,-26.233063 0,-14.48812 11.74494,-26.233063 26.23306,-26.233063 14.48813,0 26.23307,11.744943 26.23307,26.233063 z"
       sodipodi:ry="26.233063"
       sodipodi:rx="26.233063"
       sodipodi:cy="-59.300812"
       sodipodi:cx="-263.90244"
       id="path5849"
       style="fill:#080a0a;fill-opacity:1;stroke:none;filter:url(#filter5867)"
       sodipodi:type="arc" />
    <path
       sodipodi:type="arc"
       style="fill:url(#radialGradient5881);fill-opacity:1;stroke:url(#linearGradient5736);stroke-width:1.34585381;stroke-miterlimit:4;stroke-opacity:1;stroke-dasharray:none"
       id="path5557"
       sodipodi:cx="-263.90244"
       sodipodi:cy="-59.300812"
       sodipodi:rx="26.233063"
       sodipodi:ry="26.233063"
       d="m -237.66937,-59.300812 c 0,14.488121 -11.74494,26.233063 -26.23307,26.233063 -14.48812,0 -26.23306,-11.744942 -26.23306,-26.233063 0,-14.48812 11.74494,-26.233063 26.23306,-26.233063 14.48813,0 26.23307,11.744943 26.23307,26.233063 z"
       transform="matrix(0.64375722,-0.37167341,-0.37134943,-0.64319609,162.97152,-103.07446)" />
    <path
       sodipodi:type="arc"
       style="fill:#ffffff;fill-opacity:1;stroke:none"
       id="path5871"
       sodipodi:cx="-263.90244"
       sodipodi:cy="-59.300812"
       sodipodi:rx="26.233063"
       sodipodi:ry="26.233063"
       d="m -237.66937,-59.300812 c 0,14.488121 -11.74494,26.233063 -26.23307,26.233063 -14.48812,0 -26.23306,-11.744942 -26.23306,-26.233063 0,-14.48812 11.74494,-26.233063 26.23306,-26.233063 14.48813,0 26.23307,11.744943 26.23307,26.233063 z"
       transform="matrix(-0.55980337,0.32320262,0.25819179,0.4472013,-119.59851,141.1361)" />
    <rect
       y="34.161404"
       x="25.020939"
       height="0.99999887"
       width="9.0680408"
       id="rect5921"
       style="opacity:0.3918919;fill:url(#linearGradient5923);fill-opacity:1;stroke:none"
       rx="0"
       ry="0" />
    <rect
       style="fill:url(#linearGradient5993);fill-opacity:1;stroke:url(#linearGradient6001);stroke-width:1"
       id="rect5955"
       width="2.9923346"
       height="5.066411"
       x="13.586904"
       y="-46.666321"
       rx="1.4749399"
       ry="1.4749401"
       transform="scale(1,-1)" />
    <path
       transform="matrix(0.43982036,0,0,0.43982036,131.12191,58.309805)"
       d="m -237.66937,-59.300812 c 0,14.488121 -11.74494,26.233063 -26.23307,26.233063 -14.48812,0 -26.23306,-11.744942 -26.23306,-26.233063 0,-14.48812 11.74494,-26.233063 26.23306,-26.233063 14.48813,0 26.23307,11.744943 26.23307,26.233063 z"
       sodipodi:ry="26.233063"
       sodipodi:rx="26.233063"
       sodipodi:cy="-59.300812"
       sodipodi:cx="-263.90244"
       id="path5883"
       style="fill:none;stroke:url(#linearGradient5893);stroke-width:2.27365565;stroke-miterlimit:4;stroke-opacity:1;stroke-dasharray:none;filter:url(#filter5903)"
       sodipodi:type="arc" />
    <rect
       style="opacity:0.3918919;fill:url(#linearGradient5919);fill-opacity:1;stroke:none"
       id="rect5911"
       width="9.0680408"
       height="0.99999887"
       x="-5.0889788"
       y="34.161404"
       transform="scale(-1,1)" />
    <path
       sodipodi:type="arc"
       style="fill:#ffb03b;fill-opacity:1;stroke:url(#linearGradient5654);stroke-width:2.50314307;stroke-miterlimit:4;stroke-opacity:1;stroke-dasharray:none"
       id="path5563"
       sodipodi:cx="-263.90244"
       sodipodi:cy="-59.300812"
       sodipodi:rx="26.233063"
       sodipodi:ry="26.233063"
       d="m -237.66937,-59.300812 c 0,14.488121 -11.74494,26.233063 -26.23307,26.233063 -14.48812,0 -26.23306,-11.744942 -26.23306,-26.233063 0,-14.48812 11.74494,-26.233063 26.23306,-26.233063 14.48813,0 26.23307,11.744943 26.23307,26.233063 z"
       transform="matrix(0.39949774,0,0,0.39949774,120.48067,55.918641)" />
    <path
       transform="matrix(0.20794468,0,0,0.20794468,69.929359,44.559389)"
       d="m -237.66937,-59.300812 c 0,14.488121 -11.74494,26.233063 -26.23307,26.233063 -14.48812,0 -26.23306,-11.744942 -26.23306,-26.233063 0,-14.48812 11.74494,-26.233063 26.23306,-26.233063 14.48813,0 26.23307,11.744943 26.23307,26.233063 z"
       sodipodi:ry="26.233063"
       sodipodi:rx="26.233063"
       sodipodi:cy="-59.300812"
       sodipodi:cx="-263.90244"
       id="path5561"
       style="fill:#555753;fill-opacity:1;stroke:#080808;stroke-width:4.80897188;stroke-miterlimit:4;stroke-opacity:1;stroke-dasharray:none"
       sodipodi:type="arc" />
    <path
       sodipodi:type="arc"
       style="opacity:0.96846846;fill:none;stroke:url(#radialGradient5620);stroke-width:5.96247339;stroke-linecap:round;stroke-miterlimit:4;stroke-opacity:1;stroke-dasharray:none"
       id="path5565"
       sodipodi:cx="-263.90244"
       sodipodi:cy="-59.300812"
       sodipodi:rx="26.233063"
       sodipodi:ry="26.233063"
       d="m -237.66937,-59.300812 c 0,14.488121 -11.74494,26.233063 -26.23307,26.233063 -14.48812,0 -26.23306,-11.744942 -26.23306,-26.233063 0,-14.48812 11.74494,-26.233063 26.23306,-26.233063 14.48813,0 26.23307,11.744943 26.23307,26.233063 z"
       transform="matrix(0.16771563,0,0,0.16771563,59.312819,42.173774)" />
    <path
       transform="matrix(0.35982832,0,0,0.35982832,110.01182,53.566212)"
       d="m -237.66937,-59.300812 c 0,14.488121 -11.74494,26.233063 -26.23307,26.233063 -14.48812,0 -26.23306,-11.744942 -26.23306,-26.233063 0,-14.48812 11.74494,-26.233063 26.23306,-26.233063 14.48813,0 26.23307,11.744943 26.23307,26.233063 z"
       sodipodi:ry="26.233063"
       sodipodi:rx="26.233063"
       sodipodi:cy="-59.300812"
       sodipodi:cx="-263.90244"
       id="path5583"
       style="fill:none;stroke:url(#radialGradient5591);stroke-width:2.77910304;stroke-miterlimit:4;stroke-opacity:1;stroke-dasharray:none"
       sodipodi:type="arc" />
    <path
       sodipodi:type="arc"
       style="fill:#ffffff;fill-opacity:0.48584906;stroke:#000000;stroke-width:14.86451149;stroke-miterlimit:4;stroke-opacity:1;stroke-dasharray:none"
       id="path5599"
       sodipodi:cx="-263.90244"
       sodipodi:cy="-59.300812"
       sodipodi:rx="26.233063"
       sodipodi:ry="26.233063"
       d="m -237.66937,-59.300812 c 0,14.488121 -11.74494,26.233063 -26.23307,26.233063 -14.48812,0 -26.23306,-11.744942 -26.23306,-26.233063 0,-14.48812 11.74494,-26.233063 26.23306,-26.233063 14.48813,0 26.23307,11.744943 26.23307,26.233063 z"
       transform="matrix(0.06727433,0,0,0.06727433,32.806129,36.194528)" />
    <path
       transform="matrix(0.05704758,0,0,0.05704758,28.671959,34.16811)"
       d="m -237.66937,-59.300812 c 0,14.488121 -11.74494,26.233063 -26.23307,26.233063 -14.48812,0 -26.23306,-11.744942 -26.23306,-26.233063 0,-14.48812 11.74494,-26.233063 26.23306,-26.233063 14.48813,0 26.23307,11.744943 26.23307,26.233063 z"
       sodipodi:ry="26.233063"
       sodipodi:rx="26.233063"
       sodipodi:cy="-59.300812"
       sodipodi:cx="-263.90244"
       id="path5597"
       style="opacity:0.96846846;fill:#ffffff;fill-opacity:1;stroke:none"
       sodipodi:type="arc" />
    <path
       transform="matrix(-0.16771563,0,0,-0.16771563,-29.208311,22.282427)"
       d="m -237.66937,-59.300812 c 0,14.488121 -11.74494,26.233063 -26.23307,26.233063 -14.48812,0 -26.23306,-11.744942 -26.23306,-26.233063 0,-14.48812 11.74494,-26.233063 26.23306,-26.233063 14.48813,0 26.23307,11.744943 26.23307,26.233063 z"
       sodipodi:ry="26.233063"
       sodipodi:rx="26.233063"
       sodipodi:cy="-59.300812"
       sodipodi:cx="-263.90244"
       id="path5622"
       style="opacity:0.96846846;fill:none;stroke:url(#radialGradient5624);stroke-width:5.96247339;stroke-linecap:round;stroke-miterlimit:4;stroke-opacity:1;stroke-dasharray:none"
       sodipodi:type="arc" />
    <path
       transform="matrix(0.28276221,0,0,0.28276221,89.673879,48.996129)"
       d="m -237.66937,-59.300812 c 0,14.488121 -11.74494,26.233063 -26.23307,26.233063 -14.48812,0 -26.23306,-11.744942 -26.23306,-26.233063 0,-14.48812 11.74494,-26.233063 26.23306,-26.233063 14.48813,0 26.23307,11.744943 26.23307,26.233063 z"
       sodipodi:ry="26.233063"
       sodipodi:rx="26.233063"
       sodipodi:cy="-59.300812"
       sodipodi:cx="-263.90244"
       id="path5626"
       style="opacity:0.52252251;fill:none;stroke:url(#radialGradient5646);stroke-width:3.53654051;stroke-miterlimit:4;stroke-opacity:1;stroke-dasharray:none"
       sodipodi:type="arc" />
    <path
       sodipodi:type="arc"
       style="fill:none;stroke:url(#radialGradient5681);stroke-width:4.07555246;stroke-miterlimit:4;stroke-opacity:1;stroke-dasharray:none"
       id="path5679"
       sodipodi:cx="-263.90244"
       sodipodi:cy="-59.300812"
       sodipodi:rx="26.233063"
       sodipodi:ry="26.233063"
       d="m -237.66937,-59.300812 c 0,14.488121 -11.74494,26.233063 -26.23307,26.233063 -14.48812,0 -26.23306,-11.744942 -26.23306,-26.233063 0,-14.48812 11.74494,-26.233063 26.23306,-26.233063 14.48813,0 26.23307,11.744943 26.23307,26.233063 z"
       transform="matrix(0.24536551,0,0,0.24536551,79.804799,46.778475)" />
    <path
       transform="matrix(-0.7050649,0,0,0.7044495,-170.9646,74.927538)"
       d="m -237.66937,-59.300812 c 0,14.488121 -11.74494,26.233063 -26.23307,26.233063 -14.48812,0 -26.23306,-11.744942 -26.23306,-26.233063 0,-14.48812 11.74494,-26.233063 26.23306,-26.233063 14.48813,0 26.23307,11.744943 26.23307,26.233063 z"
       sodipodi:ry="26.233063"
       sodipodi:rx="26.233063"
       sodipodi:cy="-59.300812"
       sodipodi:cx="-263.90244"
       id="path5791"
       style="fill:none;stroke:url(#linearGradient5801);stroke-width:1.41892862;stroke-miterlimit:4;stroke-opacity:1;stroke-dasharray:none"
       sodipodi:type="arc" />
    <rect
       style="fill:url(#linearGradient5843);fill-opacity:1;stroke:none"
       id="rect5835"
       width="31.996775"
       height="2.00898"
       x="-0.91831505"
       y="55.172977"
       rx="1.00449"
       ry="1.00449" />
    <path
       sodipodi:type="arc"
       style="opacity:0.52252251;fill:none;stroke:url(#radialGradient5953);stroke-width:3.53654051;stroke-miterlimit:4;stroke-opacity:1;stroke-dasharray:none"
       id="path5951"
       sodipodi:cx="-263.90244"
       sodipodi:cy="-59.300812"
       sodipodi:rx="26.233063"
       sodipodi:ry="26.233063"
       d="m -237.66937,-59.300812 c 0,14.488121 -11.74494,26.233063 -26.23307,26.233063 -14.48812,0 -26.23306,-11.744942 -26.23306,-26.233063 0,-14.48812 11.74494,-26.233063 26.23306,-26.233063 14.48813,0 26.23307,11.744943 26.23307,26.233063 z"
       transform="matrix(-0.28276221,0,0,-0.28276221,-59.569391,15.460071)" />
    <rect
       ry="1.00449"
       rx="1.00449"
       y="55.172977"
       x="-31.078465"
       height="2.00898"
       width="19.405989"
       id="rect6045"
       style="fill:url(#linearGradient6047);fill-opacity:1;stroke:none"
       transform="scale(-1,1)" />
  </g>
</svg>
