<?xml version="1.0" encoding="UTF-8" standalone="no"?>
<!-- Created with Inkscape (http://www.inkscape.org/) -->
<svg
   xmlns:dc="http://purl.org/dc/elements/1.1/"
   xmlns:cc="http://web.resource.org/cc/"
   xmlns:rdf="http://www.w3.org/1999/02/22-rdf-syntax-ns#"
   xmlns:svg="http://www.w3.org/2000/svg"
   xmlns="http://www.w3.org/2000/svg"
   xmlns:xlink="http://www.w3.org/1999/xlink"
   xmlns:sodipodi="http://sodipodi.sourceforge.net/DTD/sodipodi-0.dtd"
   xmlns:inkscape="http://www.inkscape.org/namespaces/inkscape"
   width="32"
   height="32"
   id="svg4345"
   sodipodi:version="0.32"
   inkscape:version="0.44.1"
   sodipodi:docbase="/home/hbons/Desktop/2.0.2/pidgin/pixmaps/icons/32/scalable"
   sodipodi:docname="pidgin.svg"
   inkscape:export-filename="/home/hbons/Desktop/pidgin32.png"
   inkscape:export-xdpi="90"
   inkscape:export-ydpi="90"
   version="1.0">
  <defs
     id="defs4347">
    <linearGradient
       inkscape:collect="always"
       id="linearGradient3976">
      <stop
         style="stop-color:#3b1941;stop-opacity:1;"
         offset="0"
         id="stop3978" />
      <stop
         style="stop-color:#3b1941;stop-opacity:0;"
         offset="1"
         id="stop3980" />
    </linearGradient>
    <linearGradient
       inkscape:collect="always"
       id="linearGradient3968">
      <stop
         style="stop-color:#82508e;stop-opacity:1;"
         offset="0"
         id="stop3970" />
      <stop
         style="stop-color:#82508e;stop-opacity:0;"
         offset="1"
         id="stop3972" />
    </linearGradient>
    <linearGradient
       inkscape:collect="always"
       id="linearGradient3958">
      <stop
         style="stop-color:#eeeeec;stop-opacity:1;"
         offset="0"
         id="stop3960" />
      <stop
         style="stop-color:#eeeeec;stop-opacity:0;"
         offset="1"
         id="stop3962" />
    </linearGradient>
    <linearGradient
       inkscape:collect="always"
       id="linearGradient2850">
      <stop
         style="stop-color:#ce5c00;stop-opacity:1;"
         offset="0"
         id="stop2852" />
      <stop
         style="stop-color:#ce5c00;stop-opacity:0;"
         offset="1"
         id="stop2854" />
    </linearGradient>
    <linearGradient
       inkscape:collect="always"
       xlink:href="#linearGradient2850"
       id="linearGradient2856"
       x1="21.785719"
       y1="28.142857"
       x2="17.785713"
       y2="30.07143"
       gradientUnits="userSpaceOnUse"
       gradientTransform="translate(-47,-15.99998)" />
    <linearGradient
       inkscape:collect="always"
       id="linearGradient2816">
      <stop
         style="stop-color:#eeeeec;stop-opacity:1;"
         offset="0"
         id="stop2818" />
      <stop
         style="stop-color:#eeeeec;stop-opacity:0;"
         offset="1"
         id="stop2820" />
    </linearGradient>
    <radialGradient
       inkscape:collect="always"
       xlink:href="#linearGradient2816"
       id="radialGradient2824"
       cx="9.4288578"
       cy="19.283415"
       fx="9.4288578"
       fy="19.283415"
       r="16.390338"
       gradientTransform="matrix(1.556432,0,0,1.618148,-52.04294,-30.39321)"
       gradientUnits="userSpaceOnUse" />
    <linearGradient
       inkscape:collect="always"
       id="linearGradient2826">
      <stop
         style="stop-color:#3b1941;stop-opacity:1;"
         offset="0"
         id="stop2828" />
      <stop
         style="stop-color:#3b1941;stop-opacity:0;"
         offset="1"
         id="stop2830" />
    </linearGradient>
    <linearGradient
       inkscape:collect="always"
       xlink:href="#linearGradient2826"
       id="linearGradient2832"
       x1="13.191773"
       y1="41.606163"
       x2="13.191773"
       y2="47.843258"
       gradientUnits="userSpaceOnUse"
       gradientTransform="matrix(1,0,0,0.988192,-46.55265,-16.48621)" />
    <linearGradient
       inkscape:collect="always"
       id="linearGradient2834">
      <stop
         style="stop-color:#82508e;stop-opacity:1;"
         offset="0"
         id="stop2836" />
      <stop
         style="stop-color:#82508e;stop-opacity:0;"
         offset="1"
         id="stop2838" />
    </linearGradient>
    <linearGradient
       inkscape:collect="always"
       xlink:href="#linearGradient2834"
       id="linearGradient2840"
       x1="11.373499"
       y1="41.566242"
       x2="11.373499"
       y2="47.746658"
       gradientUnits="userSpaceOnUse"
       gradientTransform="matrix(1,0,0,0.988192,-46.55265,-16.48621)" />
    <linearGradient
       inkscape:collect="always"
       id="linearGradient6563">
      <stop
         style="stop-color:white;stop-opacity:1;"
         offset="0"
         id="stop6565" />
      <stop
         style="stop-color:white;stop-opacity:0;"
         offset="1"
         id="stop6567" />
    </linearGradient>
    <linearGradient
       inkscape:collect="always"
       id="linearGradient6537">
      <stop
         style="stop-color:white;stop-opacity:1;"
         offset="0"
         id="stop6539" />
      <stop
         style="stop-color:white;stop-opacity:0;"
         offset="1"
         id="stop6541" />
    </linearGradient>
    <linearGradient
       inkscape:collect="always"
       id="linearGradient6506">
      <stop
         style="stop-color:#eeeeec;stop-opacity:1;"
         offset="0"
         id="stop6508" />
      <stop
         style="stop-color:#eeeeec;stop-opacity:0;"
         offset="1"
         id="stop6510" />
    </linearGradient>
    <linearGradient
       id="linearGradient2804">
      <stop
         style="stop-color:black;stop-opacity:0;"
         offset="0"
         id="stop2806" />
      <stop
         id="stop2812"
         offset="0.5"
         style="stop-color:black;stop-opacity:1;" />
      <stop
         style="stop-color:black;stop-opacity:0;"
         offset="1"
         id="stop2808" />
    </linearGradient>
    <radialGradient
       inkscape:collect="always"
       xlink:href="#linearGradient25546"
       id="radialGradient25572"
       gradientUnits="userSpaceOnUse"
       gradientTransform="matrix(1,0,0,0.994693,0,4.16407e-2)"
       cx="7.8836637"
       cy="1.5104795"
       fx="7.8836637"
       fy="1.5104795"
       r="8.4883642" />
    <radialGradient
       inkscape:collect="always"
       xlink:href="#linearGradient25546"
       id="radialGradient25568"
       gradientUnits="userSpaceOnUse"
       gradientTransform="matrix(1,0,0,0.994693,0,4.16407e-2)"
       cx="7.8836741"
       cy="0.14505707"
       fx="7.8836741"
       fy="0.14505707"
       r="8.4883642" />
    <linearGradient
       inkscape:collect="always"
       id="linearGradient25546">
      <stop
         style="stop-color:white;stop-opacity:1;"
         offset="0"
         id="stop25548" />
      <stop
         style="stop-color:white;stop-opacity:0;"
         offset="1"
         id="stop25550" />
    </linearGradient>
    <radialGradient
       inkscape:collect="always"
       xlink:href="#linearGradient25546"
       id="radialGradient25554"
       cx="7.8836637"
       cy="2.6242435"
       fx="7.8836637"
       fy="2.6242435"
       r="8.4883642"
       gradientTransform="matrix(1.131317,0,0,1.125313,-1.035262,-0.301139)"
       gradientUnits="userSpaceOnUse" />
    <linearGradient
       id="linearGradient3800">
      <stop
         style="stop-color:#f4d9b1;stop-opacity:1.0000000;"
         offset="0.0000000"
         id="stop3802" />
      <stop
         style="stop-color:#df9725;stop-opacity:1.0000000;"
         offset="1.0000000"
         id="stop3804" />
    </linearGradient>
    <linearGradient
       inkscape:collect="always"
       xlink:href="#linearGradient6506"
       id="linearGradient6512"
       x1="15.645709"
       y1="39.743458"
       x2="14.943421"
       y2="50.079575"
       gradientUnits="userSpaceOnUse" />
    <linearGradient
       inkscape:collect="always"
       xlink:href="#linearGradient6537"
       id="linearGradient6543"
       x1="30.5"
       y1="0.033532728"
       x2="30.5"
       y2="23.559282"
       gradientUnits="userSpaceOnUse" />
    <linearGradient
       inkscape:collect="always"
       xlink:href="#linearGradient6563"
       id="linearGradient6569"
       x1="-1.6841649"
       y1="39.902092"
       x2="5.5366187"
       y2="44.272076"
       gradientUnits="userSpaceOnUse" />
    <linearGradient
       inkscape:collect="always"
       xlink:href="#linearGradient6537"
       id="linearGradient3069"
       gradientUnits="userSpaceOnUse"
       x1="30.5"
       y1="0.033532728"
       x2="30.5"
       y2="23.559282" />
    <linearGradient
       inkscape:collect="always"
       xlink:href="#linearGradient6506"
       id="linearGradient3071"
       gradientUnits="userSpaceOnUse"
       x1="15.645709"
       y1="39.743458"
       x2="15.645709"
       y2="53.502155"
       gradientTransform="translate(-47,-15)" />
    <radialGradient
       inkscape:collect="always"
       xlink:href="#linearGradient3958"
       id="radialGradient3966"
       cx="9.0640488"
       cy="21.511742"
       fx="9.0640488"
       fy="21.511742"
       r="16.663956"
       gradientTransform="matrix(1.68884,0,0,1.716583,-6.243689,-15.89085)"
       gradientUnits="userSpaceOnUse" />
    <linearGradient
       inkscape:collect="always"
       xlink:href="#linearGradient3968"
       id="linearGradient3974"
       x1="16.13257"
       y1="40.781811"
       x2="16.13257"
       y2="48.068741"
       gradientUnits="userSpaceOnUse" />
    <linearGradient
       inkscape:collect="always"
       xlink:href="#linearGradient3976"
       id="linearGradient3982"
       x1="12.095973"
       y1="40.907658"
       x2="12.095973"
       y2="46.463146"
       gradientUnits="userSpaceOnUse" />
    <linearGradient
       inkscape:collect="always"
       xlink:href="#linearGradient2850"
       id="linearGradient3991"
       gradientUnits="userSpaceOnUse"
       gradientTransform="matrix(0.769231,0,0,0.714287,-1.230773,-2.285726)"
       x1="21.785719"
       y1="28.142857"
       x2="17.785713"
       y2="30.07143" />
  </defs>
  <sodipodi:namedview
     id="base"
     pagecolor="#ffffff"
     bordercolor="#666666"
     borderopacity="1.0"
     inkscape:pageopacity="0.0"
     inkscape:pageshadow="2"
     inkscape:zoom="17.236022"
     inkscape:cx="21.944662"
     inkscape:cy="16.287609"
     inkscape:current-layer="layer1"
     showgrid="true"
     inkscape:grid-bbox="true"
     inkscape:document-units="px"
     inkscape:window-width="1434"
     inkscape:window-height="840"
     inkscape:window-x="0"
     inkscape:window-y="0"
     showguides="true"
     inkscape:guide-bbox="true"
     inkscape:grid-points="false"
     width="32px"
     height="32px"
     inkscape:object-bbox="true" />
  <metadata
     id="metadata4350">
    <rdf:RDF>
      <cc:Work
         rdf:about="">
        <dc:format>image/svg+xml</dc:format>
        <dc:type
           rdf:resource="http://purl.org/dc/dcmitype/StillImage" />
      </cc:Work>
    </rdf:RDF>
  </metadata>
  <g
     id="layer1"
     inkscape:label="Layer 1"
     inkscape:groupmode="layer">
    <path
       sodipodi:type="inkscape:offset"
       inkscape:radius="-1.0057179"
       inkscape:original="M 20.53125 1.5 C 17.192693 1.5 14.5 4.611235 14.5 8.46875 L 14.5 20.53125 C 14.5 24.388765 17.192693 27.5 20.53125 27.5 L 34.53125 27.5 L 34.53125 31.09375 L 39.34375 27.5 L 41.5 27.5 C 45.512737 27.5 46.5 24.38319 46.5 20.53125 L 46.5 8.46875 C 46.5 4.6112353 43.807307 1.5 40.46875 1.5 L 20.53125 1.5 z "
       style="fill:none;fill-opacity:1;stroke:white;stroke-width:1.47727883;stroke-miterlimit:4;stroke-opacity:1"
       id="path6504"
       d="M 20.53125,2.5 C 17.817519,2.5 15.5,5.0792547 15.5,8.46875 L 15.5,20.53125 C 15.5,23.920745 17.817519,26.5 20.53125,26.5 L 34.53125,26.5 C 35.082213,26.503178 35.528072,26.949037 35.53125,27.5 L 35.53125,29.09375 L 38.75,26.6875 C 38.923102,26.563771 39.130983,26.498125 39.34375,26.5 L 41.5,26.5 C 43.245978,26.5 44.034662,25.931926 44.625,24.9375 C 45.215338,23.943074 45.5,22.371297 45.5,20.53125 L 45.5,8.46875 C 45.5,5.079255 43.182481,2.5 40.46875,2.5 L 20.53125,2.5 z "
       transform="matrix(0.67692,0,0,0.67692,0.161535,-0.515354)" />
    <path
       style="fill:#efefef;fill-opacity:1;stroke:#787878;stroke-width:1.46586692;stroke-miterlimit:4;stroke-dasharray:none;stroke-opacity:1"
       d="M 20.53125,1.5 C 17.192693,1.5 14.5,4.611235 14.5,8.46875 L 14.5,20.53125 C 14.5,24.388765 17.428915,28.139948 20.767472,28.139948 L 33.409288,28.041495 L 33.415412,31.845969 L 38.723454,28.076231 L 42.130099,28.139948 C 46.142836,28.139948 46.5,24.580097 46.5,20.728157 L 46.5,8.46875 C 46.5,4.6112353 43.807307,1.5 40.46875,1.5 L 20.53125,1.5 z "
       id="rect5498"
       sodipodi:nodetypes="cccccccccccc"
       transform="matrix(0.687501,0,0,0.67692,-0.468758,-0.515381)" />
    <path
       transform="matrix(0.668893,0,0,0.668627,8.626692e-2,-0.192463)"
       style="fill:url(#linearGradient6543);fill-opacity:1;stroke:white;stroke-width:1.49530375;stroke-miterlimit:4;stroke-opacity:1"
       d="M 20.53125,2.53125 C 17.841732,2.53125 15.53125,5.0973912 15.53125,8.46875 L 15.53125,20.53125 C 15.53125,23.902609 17.841732,26.46875 20.53125,26.46875 L 33.967629,26.46875 C 34.534122,26.476048 34.991581,26.933507 34.998879,27.5 L 34.998879,29 L 38.71875,26.65625 C 38.901723,26.528628 39.120742,26.462922 39.34375,26.46875 L 42.415884,26.46875 C 45.139435,26.46875 45.46875,24.282574 45.46875,20.53125 L 45.46875,8.46875 C 45.46875,5.0973915 43.158268,2.53125 40.46875,2.53125 L 20.53125,2.53125 z "
       id="path6535"
       sodipodi:nodetypes="cccccccccccccc" />
    <path
       style="opacity:1;fill:url(#linearGradient3974);fill-opacity:1.0;stroke:url(#linearGradient3982);stroke-width:1.51128328;stroke-miterlimit:4;stroke-dasharray:none;stroke-opacity:1"
       d="M 15,13 C 8.3759979,13 3,18.600001 3,25.5 C 4.8460021,40.483064 0.49299658,38.484005 0.052646307,45.33795 C 0.052646307,47.422072 1.0380664,48.413461 3.1446965,48.413461 C 4.3321851,48.413461 29.360035,48.5596 32.051034,48.5596 C 34.165161,48.5596 34,46.5 34,46.5 C 34,43.834589 27.597902,41.598052 25.813453,39.641526 C 23.985035,37.640505 26,30.5 26,30.5 C 26.641306,28.9702 27,27.275084 27,25.5 C 27,18.600001 21.624002,13 15,13 z "
       id="path5176"
       sodipodi:nodetypes="cccccszcsc"
       transform="matrix(0.67692,0,0,0.646801,0.464358,-0.908413)" />
    <path
       style="opacity:0.5;fill:url(#radialGradient3966);fill-opacity:1.0;stroke:url(#linearGradient6512);stroke-width:1.55319357;stroke-miterlimit:4;stroke-opacity:1"
       d="M 15,14.0625 C 8.9877035,14.0625 4.0789961,19.13808 4.0625,25.46875 C 4.0624722,25.479427 4.0625,25.489316 4.0625,25.5 C 4.9744187,33.020507 4.3062656,37.469969 2.59375,40.59375 C -0.19778709,46.24536 1.5610206,47.490284 3.9033639,47.490284 C 5.8399452,47.490284 23.958121,47.46049 29.784094,47.46049 C 30.951301,47.46049 32.9375,47.964563 32.9375,46.5 C 32.9375,46.278257 32.737749,45.861323 32.1875,45.34375 C 31.637251,44.826177 30.81426,44.270409 29.90625,43.71875 C 28.99824,43.167091 28.02821,42.609033 27.15625,42.0625 C 26.28429,41.515967 25.511654,41.005793 24.96875,40.28125 C 24.358745,39.467156 24.078806,38.510169 24.024342,37.46875 C 23.969878,36.427331 24.107721,35.310041 24.224561,34.25 C 24.458241,32.129917 24.96875,30.28125 24.96875,30.28125 C 24.98374,30.216952 25.004663,30.154183 25.03125,30.09375 C 25.618731,28.692346 25.9375,27.131297 25.9375,25.5 C 25.9375,19.154404 21.022436,14.0625 15,14.0625 z "
       id="path5241"
       sodipodi:nodetypes="csscccssssssscssc"
       transform="matrix(0.660903,0,0,0.627207,0.731515,-0.320103)" />
    <path
       style="opacity:1;fill:#a46bb0;fill-opacity:1;stroke:none;stroke-width:1;stroke-miterlimit:4;stroke-opacity:1"
       d="M 5.0726004,12.086499 C 6.6079483,10.449324 9.1057173,10.885492 10.086057,11.930848 C 11.429483,13.36337 11.273722,15.85472 9.7383746,17.491894 C 8.4041332,18.914624 6.2095475,19.660821 4.8661202,18.228299 C 3.5226923,16.795776 3.8596213,13.379925 5.0726004,12.086499 z "
       id="path5160"
       sodipodi:nodetypes="csssc" />
    <path
       style="opacity:1;fill:white;fill-opacity:1;stroke:none;stroke-width:1;stroke-miterlimit:4;stroke-opacity:1"
       d="M 13.257119,24.626053 C 13.257119,26.227351 11.8279,27.316574 10.863875,27.316574 C 9.5428049,27.316574 8.4706318,26.01697 8.4706318,24.415672 C 8.4706318,23.024119 9.2055946,21.514771 10.526665,21.514771 C 11.847736,21.514771 13.257119,23.360971 13.257119,24.626053 z "
       id="path5157"
       sodipodi:nodetypes="csssc"
       transform="matrix(1.010846,0,0,1.029732,-3.562503,-10.12874)" />
    <path
       sodipodi:type="arc"
       style="opacity:1;fill:#5c3566;fill-opacity:1;stroke:none;stroke-width:1;stroke-miterlimit:4;stroke-dasharray:none;stroke-opacity:1"
       id="path5162"
       sodipodi:cx="10.169642"
       sodipodi:cy="24.3125"
       sodipodi:rx="1.2410715"
       sodipodi:ry="1.2946428"
       d="M 11.410714 24.3125 A 1.2410715 1.2946428 0 1 1  8.928571,24.3125 A 1.2410715 1.2946428 0 1 1  11.410714 24.3125 z"
       transform="matrix(1.208633,0,0,1.158621,-4.791365,-12.66897)" />
    <path
       transform="matrix(0.596326,-0.813274,-0.562251,-0.766804,24.4163,42.47989)"
       style="opacity:1;fill:#975fa3;fill-opacity:1;stroke:none;stroke-width:1;stroke-miterlimit:4;stroke-opacity:1"
       d="M 13.257119,24.626053 C 13.257119,26.227351 11.8279,27.316574 10.863875,27.316574 C 9.5428049,27.316574 8.4706318,26.01697 8.4706318,24.415672 C 8.4706318,23.024119 9.2055946,21.514771 10.526665,21.514771 C 11.847736,21.514771 13.257119,23.360971 13.257119,24.626053 z "
       id="path5167"
       sodipodi:nodetypes="csssc" />
    <path
       style="opacity:1;fill:white;fill-opacity:1;stroke:none;stroke-width:1;stroke-miterlimit:4;stroke-opacity:1"
       d="M 13.257119,24.626053 C 13.257119,26.227351 11.8279,27.316574 10.863875,27.316574 C 9.5428049,27.316574 8.4706318,26.01697 8.4706318,24.415672 C 8.4706318,23.024119 9.2055946,21.514771 10.526665,21.514771 C 11.847736,21.514771 13.257119,23.360971 13.257119,24.626053 z "
       id="path5169"
       sodipodi:nodetypes="csssc"
       transform="matrix(0.447398,-0.542185,-0.421833,-0.511203,23.06465,33.31996)" />
    <path
       sodipodi:type="arc"
       style="opacity:1;fill:#5c3566;fill-opacity:1;stroke:none;stroke-width:1;stroke-miterlimit:4;stroke-dasharray:none;stroke-opacity:1"
       id="path5171"
       sodipodi:cx="10.169642"
       sodipodi:cy="24.3125"
       sodipodi:rx="1.2410715"
       sodipodi:ry="1.2946428"
       d="M 11.410714 24.3125 A 1.2410715 1.2946428 0 1 1  8.928571,24.3125 A 1.2410715 1.2946428 0 1 1  11.410714 24.3125 z"
       transform="matrix(1.208633,0,0,1.158621,5.208632,-12.66896)" />
    <rect
       style="opacity:1;fill:#eeeeec;fill-opacity:1;stroke:none;stroke-width:1;stroke-miterlimit:4;stroke-dasharray:none;stroke-opacity:1"
       id="rect5215"
       width="4.4400907"
       height="1"
       x="10.535856"
       y="18"
       rx="0.69182354"
       ry="0.5" />
    <path
       transform="matrix(0.670792,0,0,0.486348,-1.815475,1.13962)"
       style="fill:#3b1941;fill-opacity:1;stroke:none;stroke-width:1;stroke-miterlimit:4;stroke-opacity:1"
       d="M 11.651119,11.193815 C 13.577759,8.2509126 16.249277,11.481501 17.614226,12.804399 L 14.761306,13.747613 L 11.651119,11.193815 z "
       id="path5192"
       sodipodi:nodetypes="cccc" />
    <path
       transform="matrix(0.851014,0,0,0.554879,-1.947706,-0.153319)"
       style="fill:#3b1941;fill-opacity:1;stroke:none;stroke-width:1;stroke-miterlimit:4;stroke-opacity:1"
       d="M 11.689238,9.8218679 C 13.591296,8.0161941 17.174576,11.994261 17.519594,13.650486 L 14.543472,12.891665 L 11.689238,9.8218679 z "
       id="rect5189"
       sodipodi:nodetypes="cccc" />
    <path
       style="fill:#fcaf3e;fill-opacity:1;stroke:none;stroke-width:1.0283047;stroke-miterlimit:4;stroke-opacity:1"
       d="M 8,18.893438 C 13.088512,22.243015 12.655188,17 13.431469,17 C 14.197069,17 13.699301,22.201991 18,18.895644 C 17.267157,20.102946 15.014668,22 14.06507,22 C 13.104781,22 9.1908718,20.676807 8,18.893438 z "
       id="path3987"
       sodipodi:nodetypes="czczc" />
    <path
       style="fill:url(#linearGradient3991);fill-opacity:1;stroke:none;stroke-width:1.0283047;stroke-miterlimit:4;stroke-opacity:1"
       d="M 8,18.893439 C 12.740404,23.171305 12.655188,17 13.431469,17 C 14.197069,17 13.641283,22.027939 18,18.895646 C 17.267157,20.102947 15.014668,22 14.06507,22 C 13.104781,22 9.1908731,20.676809 8,18.893439 z "
       id="path3989"
       sodipodi:nodetypes="czczc" />
  </g>
</svg>
