<?xml version="1.0" encoding="UTF-8" standalone="no"?>
<!-- Created with Inkscape (http://www.inkscape.org/) -->
<svg
   xmlns:dc="http://purl.org/dc/elements/1.1/"
   xmlns:cc="http://web.resource.org/cc/"
   xmlns:rdf="http://www.w3.org/1999/02/22-rdf-syntax-ns#"
   xmlns:svg="http://www.w3.org/2000/svg"
   xmlns="http://www.w3.org/2000/svg"
   xmlns:xlink="http://www.w3.org/1999/xlink"
   xmlns:sodipodi="http://inkscape.sourceforge.net/DTD/s odipodi-0.dtd"
   xmlns:inkscape="http://www.inkscape.org/namespaces/inkscape"
   width="24"
   height="24"
   id="svg2"
   sodipodi:version="0.32"
   inkscape:version="0.43"
   version="1.0"
   sodipodi:docbase="/home/hbons/Desktop/Gaim Refresh/emotes/scalable"
   sodipodi:docname="arrogant.svg"
   inkscape:export-filename="/home/hbons/Desktop/Gaim Refresh/arrogant.png"
   inkscape:export-xdpi="90"
   inkscape:export-ydpi="90">
  <defs
     id="defs4">
    <linearGradient
       inkscape:collect="always"
       id="linearGradient3150">
      <stop
         style="stop-color:#2e3436;stop-opacity:1;"
         offset="0"
         id="stop3152" />
      <stop
         style="stop-color:#2e3436;stop-opacity:0;"
         offset="1"
         id="stop3154" />
    </linearGradient>
    <linearGradient
       inkscape:collect="always"
       id="linearGradient3104">
      <stop
         style="stop-color:#eeeeec;stop-opacity:1;"
         offset="0"
         id="stop3106" />
      <stop
         style="stop-color:#eeeeec;stop-opacity:0;"
         offset="1"
         id="stop3108" />
    </linearGradient>
    <radialGradient
       inkscape:collect="always"
       xlink:href="#linearGradient3104"
       id="radialGradient3114"
       cx="8.3343515"
       cy="14.186539"
       fx="8.3343515"
       fy="14.186539"
       r="9.975256"
       gradientUnits="userSpaceOnUse"
       gradientTransform="matrix(-0.9327,0.932656,-0.947494,-0.947449,33.02126,11.96667)" />
    <radialGradient
       inkscape:collect="always"
       xlink:href="#linearGradient3150"
       id="radialGradient3156"
       cx="10.748654"
       cy="10.457643"
       fx="10.748654"
       fy="10.457643"
       r="6.6449099"
       gradientTransform="matrix(-0.842757,5.698892e-16,-4.565819e-9,-0.35721,19.80716,14.19321)"
       gradientUnits="userSpaceOnUse" />
  </defs>
  <sodipodi:namedview
     id="base"
     pagecolor="#ffffff"
     bordercolor="#666666"
     borderopacity="1.0"
     inkscape:pageopacity="0.0"
     inkscape:pageshadow="2"
     inkscape:zoom="31.678384"
     inkscape:cx="21.30821"
     inkscape:cy="13.421094"
     inkscape:document-units="px"
     inkscape:current-layer="layer1"
     showgrid="true"
     fill="#2e3436"
     inkscape:window-width="1268"
     inkscape:window-height="971"
     inkscape:window-x="6"
     inkscape:window-y="21" />
  <metadata
     id="metadata7">
    <rdf:RDF>
      <cc:Work
         rdf:about="">
        <dc:format>image/svg+xml</dc:format>
        <dc:type
           rdf:resource="http://purl.org/dc/dcmitype/StillImage" />
      </cc:Work>
    </rdf:RDF>
  </metadata>
  <g
     inkscape:label="Layer 1"
     inkscape:groupmode="layer"
     id="layer1">
    <path
       sodipodi:type="arc"
       style="opacity:0.6;fill:url(#radialGradient3156);fill-opacity:1.0;stroke:none;stroke-width:1;stroke-miterlimit:4;stroke-dasharray:none;stroke-opacity:1"
       id="path3140"
       sodipodi:cx="10.748654"
       sodipodi:cy="10.457643"
       sodipodi:rx="6.6449099"
       sodipodi:ry="2.3675451"
       d="M 17.393564 10.457643 A 6.6449099 2.3675451 0 1 1  4.1037445,10.457643 A 6.6449099 2.3675451 0 1 1  17.393564 10.457643 z"
       transform="matrix(1.504911,0,0,1.300982,-4.175772,6.474929)" />
    <path
       sodipodi:type="arc"
       style="opacity:1;fill:#edd400;fill-opacity:1;stroke:#f57900;stroke-width:1.05276573;stroke-miterlimit:4;stroke-dasharray:none;stroke-opacity:1"
       id="path1307"
       sodipodi:cx="11.806158"
       sodipodi:cy="10.983024"
       sodipodi:rx="9.975256"
       sodipodi:ry="9.975256"
       d="M 21.781414 10.983024 A 9.975256 9.975256 0 1 1  1.8309021,10.983024 A 9.975256 9.975256 0 1 1  21.781414 10.983024 z"
       transform="matrix(0.952236,0,0,0.952236,0.757713,1.541608)" />
    <path
       sodipodi:type="arc"
       style="opacity:0.79545455;fill:url(#radialGradient3114);fill-opacity:1.0;stroke:none;stroke-width:1.05274069;stroke-miterlimit:4;stroke-dasharray:none;stroke-opacity:1"
       id="path3102"
       sodipodi:cx="11.806158"
       sodipodi:cy="10.983024"
       sodipodi:rx="9.975256"
       sodipodi:ry="9.975256"
       d="M 21.781414 10.983024 A 9.975256 9.975256 0 1 1  1.8309021,10.983024 A 9.975256 9.975256 0 1 1  21.781414 10.983024 z"
       transform="matrix(0.8019,0,0,0.801938,2.532654,3.191833)" />
    <path
       sodipodi:type="arc"
       style="opacity:0.5;fill:none;fill-opacity:1.0;stroke:#ffffff;stroke-width:1.17343897;stroke-miterlimit:4;stroke-dasharray:none;stroke-opacity:1"
       id="path2184"
       sodipodi:cx="11.806158"
       sodipodi:cy="10.983024"
       sodipodi:rx="9.975256"
       sodipodi:ry="9.975256"
       d="M 21.781414 10.983024 A 9.975256 9.975256 0 1 1  1.8309021,10.983024 A 9.975256 9.975256 0 1 1  21.781414 10.983024 z"
       transform="matrix(0.852176,0,0,0.852216,1.93909,2.639626)" />
    <path
       style="opacity:1;fill:#2e3436;fill-opacity:1;stroke:none;stroke-width:1;stroke-miterlimit:4;stroke-dasharray:none;stroke-opacity:1"
       d="M 16.037524,14 C 18.197395,11.368995 16.377099,10 13.97328,10 C 11.569462,10 9.5597612,11.716235 8.9732802,14 C 10.027027,12.521189 11.877723,10.955598 13.97328,10.955598 C 16.068836,10.955597 16.846246,11.542604 16.037524,14 z "
       id="path2186"
       sodipodi:nodetypes="cscsc" />
    <path
       style="opacity:1;fill:#2e3436;fill-opacity:1;stroke:none;stroke-width:1;stroke-miterlimit:4;stroke-dasharray:none;stroke-opacity:1"
       d="M 12.353943,8.9444381 C 12.317838,8.9573953 12.249311,8.9702892 12.211517,8.9785594 C 12.160429,8.987537 12.061325,8.9990576 12.007729,9 C 11.317269,8.9869197 10.431766,8.3296174 9.8453164,7.3138571 C 9.7878214,7.2142728 9.7273674,7.1254533 9.6786644,7.0252074 C 10.17421,7.6809216 10.940182,7.9826608 11.544908,7.8239579 C 11.593343,7.8095428 11.681392,7.7873143 11.727864,7.7664361 C 11.750824,7.7551765 11.786554,7.7325516 11.808927,7.7196346 C 11.831301,7.7067171 11.868758,7.6870875 11.889989,7.6728331 C 11.931306,7.6430263 11.994581,7.5778878 12.031283,7.5431489 C 12.471086,7.0987928 12.592759,6.2845716 12.272666,5.5275594 C 12.335131,5.6198603 12.381823,5.7166248 12.439318,5.8162091 C 13.025768,6.8319694 13.152258,7.9274882 12.818355,8.531985 C 12.79074,8.5779296 12.731211,8.657996 12.697893,8.6977504 C 12.663147,8.7358781 12.597057,8.79614 12.556599,8.8274346 C 12.535656,8.8421887 12.49791,8.8613186 12.475536,8.8742361 C 12.453163,8.8871531 12.417722,8.9102777 12.394474,8.9210376 C 12.382641,8.9258853 12.365977,8.9401204 12.353943,8.9444381 z "
       id="path4668" />
    <path
       style="opacity:1;fill:#2e3436;fill-opacity:1;stroke:none;stroke-width:1;stroke-miterlimit:4;stroke-dasharray:none;stroke-opacity:1"
       d="M 16.675279,8.9444381 C 16.639174,8.9573953 16.570647,8.9702892 16.532853,8.9785594 C 16.481765,8.987537 16.382661,8.9990576 16.329065,9 C 15.638605,8.9869197 14.753102,8.3296174 14.166652,7.3138571 C 14.109157,7.2142728 14.048703,7.1254533 14,7.0252074 C 14.495546,7.6809216 15.261518,7.9826608 15.866244,7.8239579 C 15.914679,7.8095428 16.002728,7.7873143 16.0492,7.7664361 C 16.07216,7.7551765 16.10789,7.7325516 16.130263,7.7196346 C 16.152637,7.7067171 16.190094,7.6870875 16.211325,7.6728331 C 16.252642,7.6430263 16.315917,7.5778878 16.352619,7.5431489 C 16.792422,7.0987928 16.914095,6.2845716 16.594002,5.5275594 C 16.656467,5.6198603 16.703159,5.7166248 16.760654,5.8162091 C 17.347104,6.8319694 17.473594,7.9274882 17.139691,8.531985 C 17.112076,8.5779296 17.052547,8.657996 17.019229,8.6977504 C 16.984483,8.7358781 16.918393,8.79614 16.877935,8.8274346 C 16.856992,8.8421887 16.819246,8.8613186 16.796872,8.8742361 C 16.774499,8.8871531 16.739058,8.9102777 16.71581,8.9210376 C 16.703977,8.9258853 16.687313,8.9401204 16.675279,8.9444381 z "
       id="path4674" />
  </g>
</svg>
