<?xml version="1.0" encoding="UTF-8" standalone="no"?>
<!-- Created with Inkscape (http://www.inkscape.org/) -->
<svg
   xmlns:dc="http://purl.org/dc/elements/1.1/"
   xmlns:cc="http://web.resource.org/cc/"
   xmlns:rdf="http://www.w3.org/1999/02/22-rdf-syntax-ns#"
   xmlns:svg="http://www.w3.org/2000/svg"
   xmlns="http://www.w3.org/2000/svg"
   xmlns:xlink="http://www.w3.org/1999/xlink"
   xmlns:sodipodi="http://inkscape.sourceforge.net/DTD/s odipodi-0.dtd"
   xmlns:inkscape="http://www.inkscape.org/namespaces/inkscape"
   width="24"
   height="24"
   id="svg2"
   sodipodi:version="0.32"
   inkscape:version="0.43"
   version="1.0"
   sodipodi:docbase="/home/hbons/Desktop/Gaim Refresh/emotes/scalable"
   sodipodi:docname="bashful.svg"
   inkscape:export-filename="/home/hbons/Desktop/Gaim Refresh/emotes/bashful.png"
   inkscape:export-xdpi="90"
   inkscape:export-ydpi="90">
  <defs
     id="defs4">
    <linearGradient
       inkscape:collect="always"
       id="linearGradient2427">
      <stop
         style="stop-color:#ef2929;stop-opacity:1;"
         offset="0"
         id="stop2429" />
      <stop
         style="stop-color:#ef2929;stop-opacity:0;"
         offset="1"
         id="stop2431" />
    </linearGradient>
    <linearGradient
       inkscape:collect="always"
       id="linearGradient3150">
      <stop
         style="stop-color:#2e3436;stop-opacity:1;"
         offset="0"
         id="stop3152" />
      <stop
         style="stop-color:#2e3436;stop-opacity:0;"
         offset="1"
         id="stop3154" />
    </linearGradient>
    <linearGradient
       inkscape:collect="always"
       id="linearGradient3104">
      <stop
         style="stop-color:#eeeeec;stop-opacity:1;"
         offset="0"
         id="stop3106" />
      <stop
         style="stop-color:#eeeeec;stop-opacity:0;"
         offset="1"
         id="stop3108" />
    </linearGradient>
    <radialGradient
       inkscape:collect="always"
       xlink:href="#linearGradient3104"
       id="radialGradient3114"
       cx="8.3343515"
       cy="14.186539"
       fx="8.3343515"
       fy="14.186539"
       r="9.975256"
       gradientUnits="userSpaceOnUse"
       gradientTransform="matrix(-0.9327,0.932656,-0.947494,-0.947449,33.02126,11.96667)" />
    <radialGradient
       inkscape:collect="always"
       xlink:href="#linearGradient3150"
       id="radialGradient3156"
       cx="10.748654"
       cy="10.457643"
       fx="10.748654"
       fy="10.457643"
       r="6.6449099"
       gradientTransform="matrix(-0.842757,5.698892e-16,-4.565819e-9,-0.35721,19.80716,14.19321)"
       gradientUnits="userSpaceOnUse" />
    <radialGradient
       inkscape:collect="always"
       xlink:href="#linearGradient2427"
       id="radialGradient2433"
       cx="12.467445"
       cy="13.207286"
       fx="12.467445"
       fy="13.207286"
       r="3.8738739"
       gradientTransform="matrix(1.031727,-3.469361e-16,2.206895e-16,0.405482,-0.39556,7.851964)"
       gradientUnits="userSpaceOnUse" />
  </defs>
  <sodipodi:namedview
     id="base"
     pagecolor="#ffffff"
     bordercolor="#666666"
     borderopacity="1.0"
     inkscape:pageopacity="0.0"
     inkscape:pageshadow="2"
     inkscape:zoom="29.556977"
     inkscape:cx="20.410928"
     inkscape:cy="13.314409"
     inkscape:document-units="px"
     inkscape:current-layer="layer1"
     showgrid="true"
     fill="#ef2929"
     inkscape:window-width="1268"
     inkscape:window-height="971"
     inkscape:window-x="6"
     inkscape:window-y="21" />
  <metadata
     id="metadata7">
    <rdf:RDF>
      <cc:Work
         rdf:about="">
        <dc:format>image/svg+xml</dc:format>
        <dc:type
           rdf:resource="http://purl.org/dc/dcmitype/StillImage" />
      </cc:Work>
    </rdf:RDF>
  </metadata>
  <g
     inkscape:label="Layer 1"
     inkscape:groupmode="layer"
     id="layer1">
    <path
       sodipodi:type="arc"
       style="opacity:0.6;fill:url(#radialGradient3156);fill-opacity:1.0;stroke:none;stroke-width:1;stroke-miterlimit:4;stroke-dasharray:none;stroke-opacity:1"
       id="path3140"
       sodipodi:cx="10.748654"
       sodipodi:cy="10.457643"
       sodipodi:rx="6.6449099"
       sodipodi:ry="2.3675451"
       d="M 17.393564 10.457643 A 6.6449099 2.3675451 0 1 1  4.1037445,10.457643 A 6.6449099 2.3675451 0 1 1  17.393564 10.457643 z"
       transform="matrix(1.504911,0,0,1.300982,-4.175772,6.474929)" />
    <path
       sodipodi:type="arc"
       style="opacity:1;fill:#edd400;fill-opacity:1;stroke:#f57900;stroke-width:1.05276573;stroke-miterlimit:4;stroke-dasharray:none;stroke-opacity:1"
       id="path1307"
       sodipodi:cx="11.806158"
       sodipodi:cy="10.983024"
       sodipodi:rx="9.975256"
       sodipodi:ry="9.975256"
       d="M 21.781414 10.983024 A 9.975256 9.975256 0 1 1  1.8309021,10.983024 A 9.975256 9.975256 0 1 1  21.781414 10.983024 z"
       transform="matrix(0.952236,0,0,0.952236,0.757713,1.541608)" />
    <path
       sodipodi:type="arc"
       style="opacity:0.79545455;fill:url(#radialGradient3114);fill-opacity:1.0;stroke:none;stroke-width:1.05274069;stroke-miterlimit:4;stroke-dasharray:none;stroke-opacity:1"
       id="path3102"
       sodipodi:cx="11.806158"
       sodipodi:cy="10.983024"
       sodipodi:rx="9.975256"
       sodipodi:ry="9.975256"
       d="M 21.781414 10.983024 A 9.975256 9.975256 0 1 1  1.8309021,10.983024 A 9.975256 9.975256 0 1 1  21.781414 10.983024 z"
       transform="matrix(0.8019,0,0,0.801938,2.532654,3.191833)" />
    <path
       sodipodi:type="arc"
       style="opacity:0.5;fill:none;fill-opacity:1.0;stroke:#ffffff;stroke-width:1.17343897;stroke-miterlimit:4;stroke-dasharray:none;stroke-opacity:1"
       id="path2184"
       sodipodi:cx="11.806158"
       sodipodi:cy="10.983024"
       sodipodi:rx="9.975256"
       sodipodi:ry="9.975256"
       d="M 21.781414 10.983024 A 9.975256 9.975256 0 1 1  1.8309021,10.983024 A 9.975256 9.975256 0 1 1  21.781414 10.983024 z"
       transform="matrix(0.852176,0,0,0.852216,1.93909,2.639626)" />
    <path
       style="opacity:1;fill:#2e3436;fill-opacity:1;stroke:none;stroke-width:1;stroke-miterlimit:4;stroke-dasharray:none;stroke-opacity:1"
       d="M 14.641583,11.998975 C 14.679329,11.992144 14.745122,11.969047 14.781988,11.957312 C 14.83072,11.939543 14.922307,11.899968 14.969194,11.873986 C 15.56061,11.517428 15.998827,10.505436 15.998827,9.3325371 C 15.998827,9.2175471 16.006772,9.1104001 15.998827,8.9992331 C 15.897529,9.8148711 15.385047,10.459171 14.781988,10.624093 C 14.732834,10.635827 14.645467,10.660601 14.594782,10.665756 C 14.569268,10.667485 14.527013,10.665756 14.501179,10.665756 C 14.475344,10.665756 14.43309,10.667485 14.407576,10.665756 C 14.356891,10.660601 14.269524,10.635827 14.22037,10.624093 C 13.617311,10.459171 13.104829,9.8148711 13.003531,8.9992331 C 12.995586,9.1104001 13.003531,9.2175471 13.003531,9.3325371 C 13.003531,10.505436 13.441747,11.517428 14.033164,11.873986 C 14.080051,11.899968 14.171638,11.939543 14.22037,11.957312 C 14.269524,11.972959 14.356891,11.992102 14.407576,11.998975 C 14.43309,12.001281 14.475344,11.998975 14.501179,11.998975 C 14.527013,11.998975 14.569268,12.001281 14.594782,11.998975 C 14.607453,11.997257 14.629002,12.001253 14.641583,11.998975 z "
       id="path2193" />
    <path
       style="opacity:1;fill:#2e3436;fill-opacity:1;stroke:none;stroke-width:1;stroke-miterlimit:4;stroke-dasharray:none;stroke-opacity:1"
       d="M 9.3584164,11.998975 C 9.3206704,11.992144 9.2548774,11.969047 9.2180114,11.957312 C 9.1692794,11.939543 9.0776924,11.899968 9.0308054,11.873986 C 8.4393894,11.517428 8.0011724,10.505436 8.0011724,9.3325371 C 8.0011724,9.2175471 7.9932274,9.1104001 8.0011724,8.9992331 C 8.1024704,9.8148711 8.6149524,10.459171 9.2180114,10.624093 C 9.2671654,10.635827 9.3545324,10.660601 9.4052174,10.665756 C 9.4307314,10.667485 9.4729864,10.665756 9.4988204,10.665756 C 9.5246554,10.665756 9.5669094,10.667485 9.5924234,10.665756 C 9.6431084,10.660601 9.7304754,10.635827 9.7796294,10.624093 C 10.382688,10.459171 10.895171,9.8148711 10.996469,8.9992331 C 11.004414,9.1104001 10.996469,9.2175471 10.996469,9.3325371 C 10.996469,10.505436 10.558253,11.517428 9.9668354,11.873986 C 9.9199484,11.899968 9.8283614,11.939543 9.7796294,11.957312 C 9.7304754,11.972959 9.6431084,11.992102 9.5924234,11.998975 C 9.5669094,12.001281 9.5246554,11.998975 9.4988204,11.998975 C 9.4729864,11.998975 9.4307314,12.001281 9.4052174,11.998975 C 9.3925464,11.997257 9.3709974,12.001253 9.3584164,11.998975 z "
       id="path2423" />
    <path
       style="opacity:1;fill:#2e3436;fill-opacity:1;stroke:none;stroke-width:1;stroke-miterlimit:4;stroke-dasharray:none;stroke-opacity:1"
       d="M 17,13 C 16.413519,15.283765 14.403819,17 12,17 C 9.596182,17 7.586481,15.283765 7,13 C 8.053747,14.478811 9.904443,16.044402 12,16.044402 C 14.095556,16.044403 15.946253,14.478811 17,13 z "
       id="path8451"
       sodipodi:nodetypes="cscsc" />
  </g>
</svg>
