<?xml version="1.0" encoding="UTF-8" standalone="no"?>
<!-- Created with Inkscape (http://www.inkscape.org/) -->
<svg
   xmlns:dc="http://purl.org/dc/elements/1.1/"
   xmlns:cc="http://web.resource.org/cc/"
   xmlns:rdf="http://www.w3.org/1999/02/22-rdf-syntax-ns#"
   xmlns:svg="http://www.w3.org/2000/svg"
   xmlns="http://www.w3.org/2000/svg"
   xmlns:xlink="http://www.w3.org/1999/xlink"
   xmlns:sodipodi="http://inkscape.sourceforge.net/DTD/s odipodi-0.dtd"
   xmlns:inkscape="http://www.inkscape.org/namespaces/inkscape"
   width="24"
   height="24"
   id="svg2"
   sodipodi:version="0.32"
   inkscape:version="0.43"
   version="1.0"
   sodipodi:docbase="/home/hbons/Desktop/Gaim Refresh/emotes/scalable"
   sodipodi:docname="clap.svg"
   inkscape:export-filename="/home/hbons/Desktop/Gaim Refresh/clap.png"
   inkscape:export-xdpi="90"
   inkscape:export-ydpi="90">
  <defs
     id="defs4">
    <linearGradient
       inkscape:collect="always"
       id="linearGradient2192">
      <stop
         style="stop-color:#cc0000;stop-opacity:1;"
         offset="0"
         id="stop2194" />
      <stop
         style="stop-color:#cc0000;stop-opacity:0;"
         offset="1"
         id="stop2196" />
    </linearGradient>
    <linearGradient
       inkscape:collect="always"
       id="linearGradient3150">
      <stop
         style="stop-color:#2e3436;stop-opacity:1;"
         offset="0"
         id="stop3152" />
      <stop
         style="stop-color:#2e3436;stop-opacity:0;"
         offset="1"
         id="stop3154" />
    </linearGradient>
    <linearGradient
       inkscape:collect="always"
       id="linearGradient3104">
      <stop
         style="stop-color:#eeeeec;stop-opacity:1;"
         offset="0"
         id="stop3106" />
      <stop
         style="stop-color:#eeeeec;stop-opacity:0;"
         offset="1"
         id="stop3108" />
    </linearGradient>
    <radialGradient
       inkscape:collect="always"
       xlink:href="#linearGradient3104"
       id="radialGradient3114"
       cx="8.3343515"
       cy="14.186539"
       fx="8.3343515"
       fy="14.186539"
       r="9.975256"
       gradientUnits="userSpaceOnUse"
       gradientTransform="matrix(-0.9327,0.932656,-0.947494,-0.947449,33.02126,11.96667)" />
    <radialGradient
       inkscape:collect="always"
       xlink:href="#linearGradient3150"
       id="radialGradient3156"
       cx="10.748654"
       cy="10.457643"
       fx="10.748654"
       fy="10.457643"
       r="6.6449099"
       gradientTransform="matrix(-0.842757,5.698892e-16,-4.565819e-9,-0.35721,19.80716,14.19321)"
       gradientUnits="userSpaceOnUse" />
    <linearGradient
       inkscape:collect="always"
       xlink:href="#linearGradient2192"
       id="linearGradient2198"
       x1="12.13016"
       y1="15.102485"
       x2="12.13016"
       y2="19.816549"
       gradientUnits="userSpaceOnUse" />
    <linearGradient
       inkscape:collect="always"
       xlink:href="#linearGradient2192"
       id="linearGradient2211"
       gradientUnits="userSpaceOnUse"
       x1="12.13016"
       y1="15.102485"
       x2="12.13016"
       y2="19.816549" />
  </defs>
  <sodipodi:namedview
     id="base"
     pagecolor="#ffffff"
     bordercolor="#666666"
     borderopacity="1.0"
     inkscape:pageopacity="0.0"
     inkscape:pageshadow="2"
     inkscape:zoom="18.194454"
     inkscape:cx="14.880848"
     inkscape:cy="7.2192475"
     inkscape:document-units="px"
     inkscape:current-layer="layer1"
     showgrid="true"
     fill="#ef2929"
     inkscape:window-width="1268"
     inkscape:window-height="971"
     inkscape:window-x="6"
     inkscape:window-y="21" />
  <metadata
     id="metadata7">
    <rdf:RDF>
      <cc:Work
         rdf:about="">
        <dc:format>image/svg+xml</dc:format>
        <dc:type
           rdf:resource="http://purl.org/dc/dcmitype/StillImage" />
      </cc:Work>
    </rdf:RDF>
  </metadata>
  <g
     inkscape:label="Layer 1"
     inkscape:groupmode="layer"
     id="layer1">
    <path
       sodipodi:type="arc"
       style="opacity:0.6;fill:url(#radialGradient3156);fill-opacity:1.0;stroke:none;stroke-width:1;stroke-miterlimit:4;stroke-dasharray:none;stroke-opacity:1"
       id="path3140"
       sodipodi:cx="10.748654"
       sodipodi:cy="10.457643"
       sodipodi:rx="6.6449099"
       sodipodi:ry="2.3675451"
       d="M 17.393564 10.457643 A 6.6449099 2.3675451 0 1 1  4.1037445,10.457643 A 6.6449099 2.3675451 0 1 1  17.393564 10.457643 z"
       transform="matrix(1.504911,0,0,1.300982,-4.175772,6.474929)" />
    <path
       sodipodi:type="arc"
       style="opacity:1;fill:#edd400;fill-opacity:1;stroke:#f57900;stroke-width:1.05276573;stroke-miterlimit:4;stroke-dasharray:none;stroke-opacity:1"
       id="path1307"
       sodipodi:cx="11.806158"
       sodipodi:cy="10.983024"
       sodipodi:rx="9.975256"
       sodipodi:ry="9.975256"
       d="M 21.781414 10.983024 A 9.975256 9.975256 0 1 1  1.8309021,10.983024 A 9.975256 9.975256 0 1 1  21.781414 10.983024 z"
       transform="matrix(0.952236,0,0,0.952236,0.757713,1.541608)" />
    <path
       sodipodi:type="arc"
       style="opacity:0.79545455;fill:url(#radialGradient3114);fill-opacity:1.0;stroke:none;stroke-width:1.05274069;stroke-miterlimit:4;stroke-dasharray:none;stroke-opacity:1"
       id="path3102"
       sodipodi:cx="11.806158"
       sodipodi:cy="10.983024"
       sodipodi:rx="9.975256"
       sodipodi:ry="9.975256"
       d="M 21.781414 10.983024 A 9.975256 9.975256 0 1 1  1.8309021,10.983024 A 9.975256 9.975256 0 1 1  21.781414 10.983024 z"
       transform="matrix(0.8019,0,0,0.801938,2.532654,3.191833)" />
    <path
       style="opacity:1;fill:#cc0000;fill-opacity:1;stroke:#a40000;stroke-width:1.00000024;stroke-miterlimit:4;stroke-opacity:1"
       d="M 17.502944,13.527087 C 17.502944,15.892107 15.140024,17.503252 12.067027,17.503252 C 8.9940272,17.503252 6.5000001,15.891125 6.5000001,13.496751 C 8.8954736,13.496751 14.896167,13.527087 17.502944,13.527087 z "
       id="path3160"
       sodipodi:nodetypes="cscc" />
    <path
       style="fill:#eeeeec;fill-opacity:1;stroke:none;stroke-width:1;stroke-miterlimit:4;stroke-opacity:1"
       d="M 7.0137405,14 L 17,14 L 16.615267,15 L 7.4479109,15 L 7.0137405,14 z "
       id="rect1324"
       sodipodi:nodetypes="ccccc" />
    <path
       sodipodi:type="arc"
       style="opacity:0.5;fill:none;fill-opacity:1.0;stroke:#ffffff;stroke-width:1.17343897;stroke-miterlimit:4;stroke-dasharray:none;stroke-opacity:1"
       id="path2184"
       sodipodi:cx="11.806158"
       sodipodi:cy="10.983024"
       sodipodi:rx="9.975256"
       sodipodi:ry="9.975256"
       d="M 21.781414 10.983024 A 9.975256 9.975256 0 1 1  1.8309021,10.983024 A 9.975256 9.975256 0 1 1  21.781414 10.983024 z"
       transform="matrix(0.852176,0,0,0.852216,1.93909,2.639626)" />
    <path
       style="fill:#ef2929;fill-opacity:1;stroke:none;stroke-width:1;stroke-miterlimit:4;stroke-opacity:1"
       d="M 8.4015265,16 L 15.615267,16 C 15.615267,16 14.704206,16.587786 14.250771,16.656489 C 14.250771,16.656489 13.614227,17 12.116518,17 C 10.756145,17.002082 9.2677613,16.532825 9.2677613,16.532825 L 8.4015265,16 z "
       id="path2207"
       sodipodi:nodetypes="cccccc" />
    <path
       sodipodi:type="arc"
       style="opacity:1;fill:#edd400;fill-opacity:1;stroke:#f57900;stroke-width:4.07718897;stroke-miterlimit:4;stroke-dasharray:none;stroke-opacity:1"
       id="path3672"
       sodipodi:cx="11.806158"
       sodipodi:cy="10.983024"
       sodipodi:rx="9.975256"
       sodipodi:ry="9.975256"
       d="M 21.781414 10.983024 A 9.975256 9.975256 0 1 1  1.8309021,10.983024 A 9.975256 9.975256 0 1 1  21.781414 10.983024 z"
       transform="matrix(-0.201764,0,0,0.299632,11.88694,16.2122)" />
    <path
       sodipodi:type="arc"
       style="opacity:0.5;fill:none;fill-opacity:1;stroke:#ffffff;stroke-width:7.2810359;stroke-miterlimit:4;stroke-dasharray:none;stroke-opacity:1"
       id="path3674"
       sodipodi:cx="11.806158"
       sodipodi:cy="10.983024"
       sodipodi:rx="9.975256"
       sodipodi:ry="9.975256"
       d="M 21.781414 10.983024 A 9.975256 9.975256 0 1 1  1.8309021,10.983024 A 9.975256 9.975256 0 1 1  21.781414 10.983024 z"
       transform="matrix(-9.548652e-2,0,0,0.19755,10.61749,17.33031)" />
    <path
       style="opacity:1;fill:#2e3436;fill-opacity:1;stroke:none;stroke-width:1;stroke-miterlimit:4;stroke-dasharray:none;stroke-opacity:1"
       d="M 9.360775,9.000258 C 9.323029,9.007089 9.257236,9.030186 9.22037,9.041921 C 9.171638,9.05969 9.080051,9.099265 9.033164,9.125247 C 8.4417481,9.481805 8.0035311,10.493797 8.0035311,11.666696 C 8.0035311,11.781686 7.9955861,11.888833 8.0035311,12 C 8.1048291,11.184362 8.6173111,10.540062 9.22037,10.37514 C 9.269524,10.363406 9.356891,10.338632 9.407576,10.333477 C 9.43309,10.331748 9.475345,10.333477 9.501179,10.333477 C 9.527014,10.333477 9.569268,10.331748 9.594782,10.333477 C 9.645467,10.338632 9.732834,10.363406 9.781988,10.37514 C 10.385047,10.540062 10.897529,11.184362 10.998827,12 C 11.006772,11.888833 10.998827,11.781686 10.998827,11.666696 C 10.998827,10.493797 10.560611,9.481805 9.969194,9.125247 C 9.922307,9.099265 9.83072,9.05969 9.781988,9.041921 C 9.732834,9.026274 9.645467,9.007131 9.594782,9.000258 C 9.569268,8.997952 9.527014,9.000258 9.501179,9.000258 C 9.475345,9.000258 9.43309,8.997952 9.407576,9.000258 C 9.394905,9.001976 9.373356,8.99798 9.360775,9.000258 z "
       id="path2271" />
    <path
       style="opacity:1;fill:#2e3436;fill-opacity:1;stroke:none;stroke-width:1;stroke-miterlimit:4;stroke-dasharray:none;stroke-opacity:1"
       d="M 14.360775,9.000258 C 14.323029,9.007089 14.257236,9.030186 14.22037,9.041921 C 14.171638,9.05969 14.080051,9.099265 14.033164,9.125247 C 13.441748,9.481805 13.003531,10.493797 13.003531,11.666696 C 13.003531,11.781686 12.995586,11.888833 13.003531,12 C 13.104829,11.184362 13.617311,10.540062 14.22037,10.37514 C 14.269524,10.363406 14.356891,10.338632 14.407576,10.333477 C 14.43309,10.331748 14.475345,10.333477 14.501179,10.333477 C 14.527014,10.333477 14.569268,10.331748 14.594782,10.333477 C 14.645467,10.338632 14.732834,10.363406 14.781988,10.37514 C 15.385047,10.540062 15.897529,11.184362 15.998827,12 C 16.006772,11.888833 15.998827,11.781686 15.998827,11.666696 C 15.998827,10.493797 15.560611,9.481805 14.969194,9.125247 C 14.922307,9.099265 14.83072,9.05969 14.781988,9.041921 C 14.732834,9.026274 14.645467,9.007131 14.594782,9.000258 C 14.569268,8.997952 14.527014,9.000258 14.501179,9.000258 C 14.475345,9.000258 14.43309,8.997952 14.407576,9.000258 C 14.394905,9.001976 14.373356,8.99798 14.360775,9.000258 z "
       id="path6204" />
    <path
       sodipodi:type="arc"
       style="opacity:1;fill:#edd400;fill-opacity:1;stroke:#f57900;stroke-width:4.07718897;stroke-miterlimit:4;stroke-dasharray:none;stroke-opacity:1"
       id="path6206"
       sodipodi:cx="11.806158"
       sodipodi:cy="10.983024"
       sodipodi:rx="9.975256"
       sodipodi:ry="9.975256"
       d="M 21.781414 10.983024 A 9.975256 9.975256 0 1 1  1.8309021,10.983024 A 9.975256 9.975256 0 1 1  21.781414 10.983024 z"
       transform="matrix(-0.201764,0,0,0.299632,16.84928,16.2122)" />
    <path
       sodipodi:type="arc"
       style="opacity:0.5;fill:none;fill-opacity:1;stroke:#ffffff;stroke-width:7.2810359;stroke-miterlimit:4;stroke-dasharray:none;stroke-opacity:1"
       id="path6208"
       sodipodi:cx="11.806158"
       sodipodi:cy="10.983024"
       sodipodi:rx="9.975256"
       sodipodi:ry="9.975256"
       d="M 21.781414 10.983024 A 9.975256 9.975256 0 1 1  1.8309021,10.983024 A 9.975256 9.975256 0 1 1  21.781414 10.983024 z"
       transform="matrix(-9.548652e-2,0,0,0.19755,15.57983,17.33031)" />
  </g>
</svg>
