<?xml version="1.0" encoding="UTF-8" standalone="no"?>
<!-- Created with Inkscape (http://www.inkscape.org/) -->
<svg
   xmlns:dc="http://purl.org/dc/elements/1.1/"
   xmlns:cc="http://web.resource.org/cc/"
   xmlns:rdf="http://www.w3.org/1999/02/22-rdf-syntax-ns#"
   xmlns:svg="http://www.w3.org/2000/svg"
   xmlns="http://www.w3.org/2000/svg"
   xmlns:xlink="http://www.w3.org/1999/xlink"
   xmlns:sodipodi="http://inkscape.sourceforge.net/DTD/s odipodi-0.dtd"
   xmlns:inkscape="http://www.inkscape.org/namespaces/inkscape"
   width="24"
   height="24"
   id="svg2"
   sodipodi:version="0.32"
   inkscape:version="0.43"
   version="1.0"
   sodipodi:docbase="/home/hbons/Desktop/Gaim Refresh/emotes/scalable"
   sodipodi:docname="crying.svg"
   inkscape:export-filename="/home/hbons/Desktop/Gaim Refresh/face-sad.png"
   inkscape:export-xdpi="90"
   inkscape:export-ydpi="90">
  <defs
     id="defs4">
    <linearGradient
       inkscape:collect="always"
       id="linearGradient3150">
      <stop
         style="stop-color:#2e3436;stop-opacity:1;"
         offset="0"
         id="stop3152" />
      <stop
         style="stop-color:#2e3436;stop-opacity:0;"
         offset="1"
         id="stop3154" />
    </linearGradient>
    <linearGradient
       inkscape:collect="always"
       id="linearGradient3104">
      <stop
         style="stop-color:#eeeeec;stop-opacity:1;"
         offset="0"
         id="stop3106" />
      <stop
         style="stop-color:#eeeeec;stop-opacity:0;"
         offset="1"
         id="stop3108" />
    </linearGradient>
    <radialGradient
       inkscape:collect="always"
       xlink:href="#linearGradient3104"
       id="radialGradient3114"
       cx="8.3343515"
       cy="14.186539"
       fx="8.3343515"
       fy="14.186539"
       r="9.975256"
       gradientUnits="userSpaceOnUse"
       gradientTransform="matrix(-0.9327,0.932656,-0.947494,-0.947449,33.02126,11.96667)" />
    <radialGradient
       inkscape:collect="always"
       xlink:href="#linearGradient3150"
       id="radialGradient3156"
       cx="10.748654"
       cy="10.457643"
       fx="10.748654"
       fy="10.457643"
       r="6.6449099"
       gradientTransform="matrix(-0.842757,5.698892e-16,-4.565819e-9,-0.35721,19.80716,14.19321)"
       gradientUnits="userSpaceOnUse" />
  </defs>
  <sodipodi:namedview
     id="base"
     pagecolor="#ffffff"
     bordercolor="#666666"
     borderopacity="1.0"
     inkscape:pageopacity="0.0"
     inkscape:pageshadow="2"
     inkscape:zoom="31.678384"
     inkscape:cx="14.868488"
     inkscape:cy="11.684894"
     inkscape:document-units="px"
     inkscape:current-layer="layer1"
     showgrid="true"
     fill="#3465a4"
     inkscape:window-width="1268"
     inkscape:window-height="971"
     inkscape:window-x="6"
     inkscape:window-y="21" />
  <metadata
     id="metadata7">
    <rdf:RDF>
      <cc:Work
         rdf:about="">
        <dc:format>image/svg+xml</dc:format>
        <dc:type
           rdf:resource="http://purl.org/dc/dcmitype/StillImage" />
      </cc:Work>
    </rdf:RDF>
  </metadata>
  <g
     inkscape:label="Layer 1"
     inkscape:groupmode="layer"
     id="layer1">
    <path
       sodipodi:type="arc"
       style="opacity:0.6;fill:url(#radialGradient3156);fill-opacity:1.0;stroke:none;stroke-width:1;stroke-miterlimit:4;stroke-dasharray:none;stroke-opacity:1"
       id="path3140"
       sodipodi:cx="10.748654"
       sodipodi:cy="10.457643"
       sodipodi:rx="6.6449099"
       sodipodi:ry="2.3675451"
       d="M 17.393564 10.457643 A 6.6449099 2.3675451 0 1 1  4.1037445,10.457643 A 6.6449099 2.3675451 0 1 1  17.393564 10.457643 z"
       transform="matrix(1.504911,0,0,1.300982,-4.175772,6.474929)" />
    <path
       sodipodi:type="arc"
       style="opacity:1;fill:#edd400;fill-opacity:1;stroke:#f57900;stroke-width:1.05276573;stroke-miterlimit:4;stroke-dasharray:none;stroke-opacity:1"
       id="path1307"
       sodipodi:cx="11.806158"
       sodipodi:cy="10.983024"
       sodipodi:rx="9.975256"
       sodipodi:ry="9.975256"
       d="M 21.781414 10.983024 A 9.975256 9.975256 0 1 1  1.8309021,10.983024 A 9.975256 9.975256 0 1 1  21.781414 10.983024 z"
       transform="matrix(0.952236,0,0,0.952236,0.757713,1.541608)" />
    <path
       sodipodi:type="arc"
       style="opacity:0.79545455;fill:url(#radialGradient3114);fill-opacity:1.0;stroke:none;stroke-width:1.05274069;stroke-miterlimit:4;stroke-dasharray:none;stroke-opacity:1"
       id="path3102"
       sodipodi:cx="11.806158"
       sodipodi:cy="10.983024"
       sodipodi:rx="9.975256"
       sodipodi:ry="9.975256"
       d="M 21.781414 10.983024 A 9.975256 9.975256 0 1 1  1.8309021,10.983024 A 9.975256 9.975256 0 1 1  21.781414 10.983024 z"
       transform="matrix(0.8019,0,0,0.801938,2.532654,3.191833)" />
    <path
       sodipodi:type="arc"
       style="opacity:0.5;fill:none;fill-opacity:1.0;stroke:#ffffff;stroke-width:1.17343897;stroke-miterlimit:4;stroke-dasharray:none;stroke-opacity:1"
       id="path2184"
       sodipodi:cx="11.806158"
       sodipodi:cy="10.983024"
       sodipodi:rx="9.975256"
       sodipodi:ry="9.975256"
       d="M 21.781414 10.983024 A 9.975256 9.975256 0 1 1  1.8309021,10.983024 A 9.975256 9.975256 0 1 1  21.781414 10.983024 z"
       transform="matrix(0.852176,0,0,0.852216,1.93909,2.639626)" />
    <path
       style="opacity:1;fill:#2e3436;fill-opacity:1;stroke:none;stroke-width:1;stroke-miterlimit:4;stroke-dasharray:none;stroke-opacity:1"
       d="M 15,16 C 14.648111,14.858117 13.442291,14 12,14 C 10.557709,14 9.351889,14.858117 9,16 C 10.04381,16 13.608449,16 15,16 z "
       id="path2186"
       sodipodi:nodetypes="cscc" />
    <path
       style="fill:#3465a4;fill-opacity:1;stroke:none;stroke-width:1;stroke-miterlimit:4;stroke-opacity:1"
       d="M 8.9999989,9.999999 C 8.9999989,11.103999 9.4479989,12 9.9999995,12 C 10.552,12 11,11.103999 11,9.999999 C 11,8.8959994 11,8.6363112 11,7.9999995 C 9.7850869,8.7260465 8.9999989,8.8959994 8.9999989,9.999999 z "
       id="path2191"
       sodipodi:nodetypes="csscc" />
    <path
       style="fill:#3465a4;fill-opacity:1;stroke:none;stroke-width:1;stroke-miterlimit:4;stroke-opacity:1"
       d="M 15,9.999999 C 15,11.103999 14.551999,12 13.999999,12 C 13.447999,12 12.999999,11.103999 12.999999,9.999999 C 12.999999,8.8959994 12.999999,8.6363112 12.999999,7.9999995 C 14.214911,8.7260465 15,8.8959994 15,9.999999 z "
       id="path1340"
       sodipodi:nodetypes="csscc" />
    <path
       sodipodi:type="inkscape:offset"
       inkscape:radius="-0.98891073"
       inkscape:original="M 16.5 12.09375 C 16.549716 13.296534 16.466835 14.004127 16.53125 15.5625 C 16.610919 17.489916 18.710432 17.7864 19.53125 17.3125 C 20.352067 16.838601 21.200289 14.92141 19.5 13.84375 C 18.393101 13.142185 17.486309 12.718884 16.5 12.09375 z "
       xlink:href="#path2222"
       style="opacity:0.10795456;fill:none;fill-opacity:1;stroke:#ffffff;stroke-width:1;stroke-miterlimit:4;stroke-opacity:1"
       id="path2225"
       inkscape:href="#path2222"
       d="M 14,13.65625 C 13.986119,14.163557 13.96988,14.615056 14,15.34375 C 14.025117,15.951397 14.235194,16.074858 14.59375,16.21875 C 14.952306,16.362642 15.483111,16.291001 15.5,16.28125 C 15.538061,16.259275 15.882262,15.832911 15.9375,15.46875 C 15.992738,15.104589 16.00087,14.85707 15.4375,14.5 C 14.924967,14.175151 14.464358,13.918767 14,13.65625 z " />
    <path
       style="fill:#729fcf;fill-opacity:1;stroke:#3465a4;stroke-width:1.00000012;stroke-miterlimit:4;stroke-opacity:1"
       d="M 9.3568222,11.622985 C 9.7422222,12.008385 9.2761891,13.237301 8.8255021,13.687988 C 8.3748152,14.138675 7.6962523,14.191662 7.3108523,13.806262 C 6.9254515,13.420861 6.9784384,12.742298 7.4291253,12.291611 C 7.8798123,11.840924 8.9714221,11.237584 9.3568222,11.622985 z "
       id="path2227"
       sodipodi:nodetypes="csssc" />
    <path
       style="fill:#729fcf;fill-opacity:1;stroke:#3465a4;stroke-width:1.00000012;stroke-miterlimit:4;stroke-opacity:1"
       d="M 14.643178,11.622985 C 14.257778,12.008385 14.723811,13.237301 15.174498,13.687988 C 15.625185,14.138675 16.303748,14.191662 16.689148,13.806262 C 17.074549,13.420861 17.021562,12.742298 16.570875,12.291611 C 16.120188,11.840924 15.028578,11.237584 14.643178,11.622985 z "
       id="path2242"
       sodipodi:nodetypes="csssc" />
  </g>
</svg>
