<?xml version="1.0" encoding="UTF-8" standalone="no"?>
<!-- Created with Inkscape (http://www.inkscape.org/) -->
<svg
   xmlns:dc="http://purl.org/dc/elements/1.1/"
   xmlns:cc="http://web.resource.org/cc/"
   xmlns:rdf="http://www.w3.org/1999/02/22-rdf-syntax-ns#"
   xmlns:svg="http://www.w3.org/2000/svg"
   xmlns="http://www.w3.org/2000/svg"
   xmlns:xlink="http://www.w3.org/1999/xlink"
   xmlns:sodipodi="http://inkscape.sourceforge.net/DTD/s odipodi-0.dtd"
   xmlns:inkscape="http://www.inkscape.org/namespaces/inkscape"
   width="24"
   height="24"
   id="svg2"
   sodipodi:version="0.32"
   inkscape:version="0.43"
   version="1.0"
   sodipodi:docbase="/home/hbons/Desktop/Gaim Refresh/emotes/scalable"
   sodipodi:docname="curse.svg"
   inkscape:export-filename="/home/hbons/Desktop/Gaim Refresh/curse.png"
   inkscape:export-xdpi="90"
   inkscape:export-ydpi="90">
  <defs
     id="defs4">
    <linearGradient
       inkscape:collect="always"
       id="linearGradient2192">
      <stop
         style="stop-color:#cc0000;stop-opacity:1;"
         offset="0"
         id="stop2194" />
      <stop
         style="stop-color:#cc0000;stop-opacity:0;"
         offset="1"
         id="stop2196" />
    </linearGradient>
    <linearGradient
       inkscape:collect="always"
       id="linearGradient3150">
      <stop
         style="stop-color:#2e3436;stop-opacity:1;"
         offset="0"
         id="stop3152" />
      <stop
         style="stop-color:#2e3436;stop-opacity:0;"
         offset="1"
         id="stop3154" />
    </linearGradient>
    <linearGradient
       inkscape:collect="always"
       id="linearGradient3104">
      <stop
         style="stop-color:#eeeeec;stop-opacity:1;"
         offset="0"
         id="stop3106" />
      <stop
         style="stop-color:#eeeeec;stop-opacity:0;"
         offset="1"
         id="stop3108" />
    </linearGradient>
    <radialGradient
       inkscape:collect="always"
       xlink:href="#linearGradient3104"
       id="radialGradient3114"
       cx="8.3343515"
       cy="14.186539"
       fx="8.3343515"
       fy="14.186539"
       r="9.975256"
       gradientUnits="userSpaceOnUse"
       gradientTransform="matrix(-0.9327,0.932656,-0.947494,-0.947449,33.02126,11.96667)" />
    <radialGradient
       inkscape:collect="always"
       xlink:href="#linearGradient3150"
       id="radialGradient3156"
       cx="10.748654"
       cy="10.457643"
       fx="10.748654"
       fy="10.457643"
       r="6.6449099"
       gradientTransform="matrix(-0.842757,5.698892e-16,-4.565819e-9,-0.35721,19.80716,14.19321)"
       gradientUnits="userSpaceOnUse" />
    <linearGradient
       inkscape:collect="always"
       xlink:href="#linearGradient2192"
       id="linearGradient2198"
       x1="12.13016"
       y1="15.102485"
       x2="12.13016"
       y2="19.816549"
       gradientUnits="userSpaceOnUse" />
    <linearGradient
       inkscape:collect="always"
       xlink:href="#linearGradient2192"
       id="linearGradient2211"
       gradientUnits="userSpaceOnUse"
       x1="12.13016"
       y1="15.102485"
       x2="12.13016"
       y2="19.816549" />
  </defs>
  <sodipodi:namedview
     id="base"
     pagecolor="#ffffff"
     bordercolor="#666666"
     borderopacity="1.0"
     inkscape:pageopacity="0.0"
     inkscape:pageshadow="2"
     inkscape:zoom="18.194454"
     inkscape:cx="24.828934"
     inkscape:cy="20.080309"
     inkscape:document-units="px"
     inkscape:current-layer="layer1"
     showgrid="true"
     fill="#fcaf3e"
     inkscape:window-width="1267"
     inkscape:window-height="971"
     inkscape:window-x="7"
     inkscape:window-y="21"
     showguides="true"
     inkscape:guide-bbox="true" />
  <metadata
     id="metadata7">
    <rdf:RDF>
      <cc:Work
         rdf:about="">
        <dc:format>image/svg+xml</dc:format>
        <dc:type
           rdf:resource="http://purl.org/dc/dcmitype/StillImage" />
      </cc:Work>
    </rdf:RDF>
  </metadata>
  <g
     inkscape:label="Layer 1"
     inkscape:groupmode="layer"
     id="layer1">
    <path
       sodipodi:type="arc"
       style="opacity:0.6;fill:url(#radialGradient3156);fill-opacity:1.0;stroke:none;stroke-width:1;stroke-miterlimit:4;stroke-dasharray:none;stroke-opacity:1"
       id="path3140"
       sodipodi:cx="10.748654"
       sodipodi:cy="10.457643"
       sodipodi:rx="6.6449099"
       sodipodi:ry="2.3675451"
       d="M 17.393564 10.457643 A 6.6449099 2.3675451 0 1 1  4.1037445,10.457643 A 6.6449099 2.3675451 0 1 1  17.393564 10.457643 z"
       transform="matrix(1.504911,0,0,1.300982,-4.175772,6.474929)" />
    <path
       sodipodi:type="arc"
       style="opacity:1;fill:#edd400;fill-opacity:1;stroke:#f57900;stroke-width:1.05276573;stroke-miterlimit:4;stroke-dasharray:none;stroke-opacity:1"
       id="path1307"
       sodipodi:cx="11.806158"
       sodipodi:cy="10.983024"
       sodipodi:rx="9.975256"
       sodipodi:ry="9.975256"
       d="M 21.781414 10.983024 A 9.975256 9.975256 0 1 1  1.8309021,10.983024 A 9.975256 9.975256 0 1 1  21.781414 10.983024 z"
       transform="matrix(0.952236,0,0,0.952236,0.757713,1.541608)" />
    <path
       sodipodi:type="arc"
       style="opacity:0.79545455;fill:url(#radialGradient3114);fill-opacity:1.0;stroke:none;stroke-width:1.05274069;stroke-miterlimit:4;stroke-dasharray:none;stroke-opacity:1"
       id="path3102"
       sodipodi:cx="11.806158"
       sodipodi:cy="10.983024"
       sodipodi:rx="9.975256"
       sodipodi:ry="9.975256"
       d="M 21.781414 10.983024 A 9.975256 9.975256 0 1 1  1.8309021,10.983024 A 9.975256 9.975256 0 1 1  21.781414 10.983024 z"
       transform="matrix(0.8019,0,0,0.801938,2.532654,3.191833)" />
    <path
       sodipodi:type="arc"
       style="opacity:0.5;fill:none;fill-opacity:1.0;stroke:#ffffff;stroke-width:1.17343897;stroke-miterlimit:4;stroke-dasharray:none;stroke-opacity:1"
       id="path2184"
       sodipodi:cx="11.806158"
       sodipodi:cy="10.983024"
       sodipodi:rx="9.975256"
       sodipodi:ry="9.975256"
       d="M 21.781414 10.983024 A 9.975256 9.975256 0 1 1  1.8309021,10.983024 A 9.975256 9.975256 0 1 1  21.781414 10.983024 z"
       transform="matrix(0.852176,0,0,0.852216,1.93909,2.639626)" />
    <path
       style="opacity:1;fill:#cc0000;fill-opacity:1;stroke:#a40000;stroke-width:1.00000024;stroke-miterlimit:4;stroke-opacity:1"
       d="M 17.502944,17.472916 C 17.502944,15.107896 15.140024,13.496751 12.067027,13.496751 C 8.9940272,13.496751 6.5000001,15.108878 6.5000001,17.503252 C 8.8954736,17.503252 14.896167,17.472916 17.502944,17.472916 z "
       id="path3160"
       sodipodi:nodetypes="cscc" />
    <path
       style="fill:#ef2929;fill-opacity:1;stroke:none;stroke-width:1;stroke-miterlimit:4;stroke-opacity:1"
       d="M 7.0137405,17.000003 L 17,17.000003 L 16.615267,16.000003 L 7.4479109,16.000003 L 7.0137405,17.000003 z "
       id="rect1324"
       sodipodi:nodetypes="ccccc" />
    <path
       style="fill:#eeeeec;fill-opacity:1;stroke:none;stroke-width:1;stroke-miterlimit:4;stroke-opacity:1"
       d="M 8.4015265,15.000003 L 15.615267,15.000003 C 15.615267,15.000003 14.704206,14.412217 14.250771,14.343514 C 14.250771,14.343514 13.614227,14.000003 12.116518,14.000003 C 10.756145,13.997921 9.2677613,14.467178 9.2677613,14.467178 L 8.4015265,15.000003 z "
       id="path2207"
       sodipodi:nodetypes="cccccc" />
    <path
       style="fill:#2e3436;fill-opacity:1;stroke:none;stroke-width:1;stroke-miterlimit:4;stroke-opacity:1"
       d="M 10.227795,8.7845774 C 10.227795,9.5861334 9.7045357,10.236672 9.0598059,10.236672 C 8.415076,10.236672 7.891817,9.5861334 7.891817,8.7845774 C 7.891817,7.9830213 7.8918174,7.7944754 7.8918174,7.3324831 C 9.3108209,7.8596275 10.227795,7.9830213 10.227795,8.7845774 z "
       id="path2191"
       sodipodi:nodetypes="csscc"
       transform="matrix(0.856173,0,0,1.377321,2.243239,-2.099183)" />
    <rect
       style="opacity:1;fill:#fcaf3e;fill-opacity:1;fill-rule:evenodd;stroke:none;stroke-width:1.00100005;stroke-miterlimit:4;stroke-dasharray:none;stroke-opacity:1"
       id="rect2476"
       width="1"
       height="2"
       x="17.000004"
       y="5.000001" />
    <rect
       style="opacity:1;fill:#fcaf3e;fill-opacity:1;fill-rule:evenodd;stroke:none;stroke-width:1.00100005;stroke-miterlimit:4;stroke-dasharray:none;stroke-opacity:1"
       id="rect2478"
       width="0.99999958"
       height="2"
       x="5.9999995"
       y="-19.000006"
       transform="matrix(-8.852541e-8,1,-1,-8.852533e-8,0,0)" />
    <rect
       style="opacity:1;fill:#fcaf3e;fill-opacity:1;fill-rule:evenodd;stroke:none;stroke-width:1.00100005;stroke-miterlimit:4;stroke-dasharray:none;stroke-opacity:1"
       id="rect2480"
       width="1"
       height="2"
       x="-16.000004"
       y="5.0000014"
       transform="scale(-1,1)" />
    <rect
       style="opacity:1;fill:#fcaf3e;fill-opacity:1;fill-rule:evenodd;stroke:none;stroke-width:1.00100005;stroke-miterlimit:4;stroke-dasharray:none;stroke-opacity:1"
       id="rect2482"
       width="0.99999958"
       height="2"
       x="6.0000024"
       y="14.000003"
       transform="matrix(8.852541e-8,1,1,-8.852533e-8,0,0)" />
    <rect
       style="opacity:1;fill:#fcaf3e;fill-opacity:1;fill-rule:evenodd;stroke:none;stroke-width:1.00100005;stroke-miterlimit:4;stroke-dasharray:none;stroke-opacity:1"
       id="rect2484"
       width="1"
       height="2"
       x="-16.000004"
       y="-10"
       transform="scale(-1,-1)" />
    <rect
       style="opacity:1;fill:#fcaf3e;fill-opacity:1;fill-rule:evenodd;stroke:none;stroke-width:1.00100005;stroke-miterlimit:4;stroke-dasharray:none;stroke-opacity:1"
       id="rect2486"
       width="0.99999958"
       height="2"
       x="-9"
       y="14.000001"
       transform="matrix(8.852541e-8,-1,1,8.852533e-8,0,0)" />
    <path
       style="fill:#2e3436;fill-opacity:1;stroke:none;stroke-width:1;stroke-miterlimit:4;stroke-opacity:1"
       d="M 13,9.9999999 C 13,11.104 13.448,12 14,12 C 14.552001,12 15.000001,11.104 15.000001,9.9999999 C 15.000001,8.8959999 15.000001,8.6363117 15.000001,8 C 13.785088,8.726047 13,8.8959999 13,9.9999999 z "
       id="path3132"
       sodipodi:nodetypes="csscc" />
    <rect
       style="opacity:1;fill:#fcaf3e;fill-opacity:1;fill-rule:evenodd;stroke:none;stroke-width:1.00100005;stroke-miterlimit:4;stroke-dasharray:none;stroke-opacity:1"
       id="rect2488"
       width="1"
       height="2"
       x="17"
       y="-10"
       transform="scale(1,-1)" />
    <rect
       style="opacity:1;fill:#fcaf3e;fill-opacity:1;fill-rule:evenodd;stroke:none;stroke-width:1.00100005;stroke-miterlimit:4;stroke-dasharray:none;stroke-opacity:1"
       id="rect2490"
       width="0.99999958"
       height="2"
       x="-9.0000019"
       y="-19.000002"
       transform="matrix(-8.852541e-8,-1,-1,8.852533e-8,0,0)" />
    <path
       sodipodi:type="arc"
       style="opacity:1;fill:#edd400;fill-opacity:1;stroke:#f57900;stroke-width:4.00356054;stroke-miterlimit:4;stroke-dasharray:none;stroke-opacity:1"
       id="path2635"
       sodipodi:cx="11.806158"
       sodipodi:cy="10.983024"
       sodipodi:rx="9.975256"
       sodipodi:ry="9.975256"
       d="M 21.781414 10.983024 A 9.975256 9.975256 0 1 1  1.8309021,10.983024 A 9.975256 9.975256 0 1 1  21.781414 10.983024 z"
       transform="matrix(-0.250486,0,0,0.25031,7.95516,2.277023)" />
    <path
       sodipodi:type="arc"
       style="opacity:0.5;fill:none;fill-opacity:1;stroke:#ffffff;stroke-width:6.69739294;stroke-miterlimit:4;stroke-dasharray:none;stroke-opacity:1"
       id="path2637"
       sodipodi:cx="11.806158"
       sodipodi:cy="10.983024"
       sodipodi:rx="9.975256"
       sodipodi:ry="9.975256"
       d="M 21.781414 10.983024 A 9.975256 9.975256 0 1 1  1.8309021,10.983024 A 9.975256 9.975256 0 1 1  21.781414 10.983024 z"
       transform="matrix(-0.149308,0,0,0.149316,6.75214,3.370593)" />
  </g>
</svg>
