<?xml version="1.0" encoding="UTF-8" standalone="no"?>
<!-- Created with Inkscape (http://www.inkscape.org/) -->
<svg
   xmlns:dc="http://purl.org/dc/elements/1.1/"
   xmlns:cc="http://web.resource.org/cc/"
   xmlns:rdf="http://www.w3.org/1999/02/22-rdf-syntax-ns#"
   xmlns:svg="http://www.w3.org/2000/svg"
   xmlns="http://www.w3.org/2000/svg"
   xmlns:xlink="http://www.w3.org/1999/xlink"
   xmlns:sodipodi="http://inkscape.sourceforge.net/DTD/s odipodi-0.dtd"
   xmlns:inkscape="http://www.inkscape.org/namespaces/inkscape"
   width="24"
   height="24"
   id="svg2"
   sodipodi:version="0.32"
   inkscape:version="0.43"
   version="1.0"
   sodipodi:docbase="/home/hbons/Desktop/Gaim Refresh/emotes/scalable"
   sodipodi:docname="dance.svg"
   inkscape:export-filename="/home/hbons/Desktop/Gaim Refresh/dance.png"
   inkscape:export-xdpi="90"
   inkscape:export-ydpi="90">
  <defs
     id="defs4">
    <linearGradient
       inkscape:collect="always"
       id="linearGradient2427">
      <stop
         style="stop-color:#ef2929;stop-opacity:1;"
         offset="0"
         id="stop2429" />
      <stop
         style="stop-color:#ef2929;stop-opacity:0;"
         offset="1"
         id="stop2431" />
    </linearGradient>
    <linearGradient
       inkscape:collect="always"
       id="linearGradient3150">
      <stop
         style="stop-color:#2e3436;stop-opacity:1;"
         offset="0"
         id="stop3152" />
      <stop
         style="stop-color:#2e3436;stop-opacity:0;"
         offset="1"
         id="stop3154" />
    </linearGradient>
    <linearGradient
       inkscape:collect="always"
       id="linearGradient3104">
      <stop
         style="stop-color:#eeeeec;stop-opacity:1;"
         offset="0"
         id="stop3106" />
      <stop
         style="stop-color:#eeeeec;stop-opacity:0;"
         offset="1"
         id="stop3108" />
    </linearGradient>
    <radialGradient
       inkscape:collect="always"
       xlink:href="#linearGradient3104"
       id="radialGradient3114"
       cx="8.3343515"
       cy="14.186539"
       fx="8.3343515"
       fy="14.186539"
       r="9.975256"
       gradientUnits="userSpaceOnUse"
       gradientTransform="matrix(-0.9327,0.932656,-0.947494,-0.947449,33.02126,11.96667)" />
    <radialGradient
       inkscape:collect="always"
       xlink:href="#linearGradient3150"
       id="radialGradient3156"
       cx="10.748654"
       cy="10.457643"
       fx="10.748654"
       fy="10.457643"
       r="6.6449099"
       gradientTransform="matrix(-0.842757,5.698892e-16,-4.565819e-9,-0.35721,19.80716,14.19321)"
       gradientUnits="userSpaceOnUse" />
    <radialGradient
       inkscape:collect="always"
       xlink:href="#linearGradient2427"
       id="radialGradient2433"
       cx="12.467445"
       cy="13.207286"
       fx="12.467445"
       fy="13.207286"
       r="3.8738739"
       gradientTransform="matrix(1.031727,-3.469361e-16,2.206895e-16,0.405482,-0.39556,7.851964)"
       gradientUnits="userSpaceOnUse" />
  </defs>
  <sodipodi:namedview
     id="base"
     pagecolor="#ffffff"
     bordercolor="#666666"
     borderopacity="1.0"
     inkscape:pageopacity="0.0"
     inkscape:pageshadow="2"
     inkscape:zoom="22.4"
     inkscape:cx="19.96832"
     inkscape:cy="11.019117"
     inkscape:document-units="px"
     inkscape:current-layer="layer1"
     showgrid="true"
     fill="#5c3566"
     inkscape:window-width="1268"
     inkscape:window-height="971"
     inkscape:window-x="6"
     inkscape:window-y="21" />
  <metadata
     id="metadata7">
    <rdf:RDF>
      <cc:Work
         rdf:about="">
        <dc:format>image/svg+xml</dc:format>
        <dc:type
           rdf:resource="http://purl.org/dc/dcmitype/StillImage" />
      </cc:Work>
    </rdf:RDF>
  </metadata>
  <g
     inkscape:label="Layer 1"
     inkscape:groupmode="layer"
     id="layer1">
    <path
       sodipodi:type="arc"
       style="opacity:0.6;fill:url(#radialGradient3156);fill-opacity:1.0;stroke:none;stroke-width:1;stroke-miterlimit:4;stroke-dasharray:none;stroke-opacity:1"
       id="path3140"
       sodipodi:cx="10.748654"
       sodipodi:cy="10.457643"
       sodipodi:rx="6.6449099"
       sodipodi:ry="2.3675451"
       d="M 17.393564 10.457643 A 6.6449099 2.3675451 0 1 1  4.1037445,10.457643 A 6.6449099 2.3675451 0 1 1  17.393564 10.457643 z"
       transform="matrix(1.504911,0,0,1.300982,-4.175772,6.474929)" />
    <path
       sodipodi:type="arc"
       style="opacity:1;fill:#edd400;fill-opacity:1;stroke:#f57900;stroke-width:1.05276573;stroke-miterlimit:4;stroke-dasharray:none;stroke-opacity:1"
       id="path1307"
       sodipodi:cx="11.806158"
       sodipodi:cy="10.983024"
       sodipodi:rx="9.975256"
       sodipodi:ry="9.975256"
       d="M 21.781414 10.983024 A 9.975256 9.975256 0 1 1  1.8309021,10.983024 A 9.975256 9.975256 0 1 1  21.781414 10.983024 z"
       transform="matrix(0.952236,0,0,0.952236,0.757713,1.541608)" />
    <path
       sodipodi:type="arc"
       style="opacity:0.79545455;fill:url(#radialGradient3114);fill-opacity:1.0;stroke:none;stroke-width:1.05274069;stroke-miterlimit:4;stroke-dasharray:none;stroke-opacity:1"
       id="path3102"
       sodipodi:cx="11.806158"
       sodipodi:cy="10.983024"
       sodipodi:rx="9.975256"
       sodipodi:ry="9.975256"
       d="M 21.781414 10.983024 A 9.975256 9.975256 0 1 1  1.8309021,10.983024 A 9.975256 9.975256 0 1 1  21.781414 10.983024 z"
       transform="matrix(0.8019,0,0,0.801938,2.532654,3.191833)" />
    <path
       sodipodi:type="arc"
       style="opacity:0.5;fill:none;fill-opacity:1.0;stroke:#ffffff;stroke-width:1.17343897;stroke-miterlimit:4;stroke-dasharray:none;stroke-opacity:1"
       id="path2184"
       sodipodi:cx="11.806158"
       sodipodi:cy="10.983024"
       sodipodi:rx="9.975256"
       sodipodi:ry="9.975256"
       d="M 21.781414 10.983024 A 9.975256 9.975256 0 1 1  1.8309021,10.983024 A 9.975256 9.975256 0 1 1  21.781414 10.983024 z"
       transform="matrix(0.852176,0,0,0.852216,1.93909,2.639626)" />
    <path
       style="opacity:1;fill:#2e3436;fill-opacity:1;stroke:none;stroke-width:1;stroke-miterlimit:4;stroke-dasharray:none;stroke-opacity:1"
       d="M 14.641583,9.000258 C 14.679329,9.007089 14.745122,9.030186 14.781988,9.041921 C 14.83072,9.05969 14.922307,9.099265 14.969194,9.125247 C 15.56061,9.481805 15.998827,10.493797 15.998827,11.666696 C 15.998827,11.781686 16.006772,11.888833 15.998827,12 C 15.897529,11.184362 15.385047,10.540062 14.781988,10.37514 C 14.732834,10.363406 14.645467,10.338632 14.594782,10.333477 C 14.569268,10.331748 14.527013,10.333477 14.501179,10.333477 C 14.475344,10.333477 14.43309,10.331748 14.407576,10.333477 C 14.356891,10.338632 14.269524,10.363406 14.22037,10.37514 C 13.617311,10.540062 13.104829,11.184362 13.003531,12 C 12.995586,11.888833 13.003531,11.781686 13.003531,11.666696 C 13.003531,10.493797 13.441747,9.481805 14.033164,9.125247 C 14.080051,9.099265 14.171638,9.05969 14.22037,9.041921 C 14.269524,9.026274 14.356891,9.007131 14.407576,9.000258 C 14.43309,8.997952 14.475344,9.000258 14.501179,9.000258 C 14.527013,9.000258 14.569268,8.997952 14.594782,9.000258 C 14.607453,9.001976 14.629002,8.99798 14.641583,9.000258 z "
       id="path2193" />
    <path
       style="opacity:1;fill:#2e3436;fill-opacity:1;stroke:none;stroke-width:1;stroke-miterlimit:4;stroke-dasharray:none;stroke-opacity:1"
       d="M 9.3584164,9.000258 C 9.3206704,9.007089 9.2548774,9.030186 9.2180114,9.041921 C 9.1692794,9.05969 9.0776924,9.099265 9.0308054,9.125247 C 8.4393894,9.481805 8.0011724,10.493797 8.0011724,11.666696 C 8.0011724,11.781686 7.9932274,11.888833 8.0011724,12 C 8.1024704,11.184362 8.6149524,10.540062 9.2180114,10.37514 C 9.2671654,10.363406 9.3545324,10.338632 9.4052174,10.333477 C 9.4307314,10.331748 9.4729864,10.333477 9.4988204,10.333477 C 9.5246554,10.333477 9.5669094,10.331748 9.5924234,10.333477 C 9.6431084,10.338632 9.7304754,10.363406 9.7796294,10.37514 C 10.382688,10.540062 10.895171,11.184362 10.996469,12 C 11.004414,11.888833 10.996469,11.781686 10.996469,11.666696 C 10.996469,10.493797 10.558253,9.481805 9.9668354,9.125247 C 9.9199484,9.099265 9.8283614,9.05969 9.7796294,9.041921 C 9.7304754,9.026274 9.6431084,9.007131 9.5924234,9.000258 C 9.5669094,8.997952 9.5246554,9.000258 9.4988204,9.000258 C 9.4729864,9.000258 9.4307314,8.997952 9.4052174,9.000258 C 9.3925464,9.001976 9.3709974,8.99798 9.3584164,9.000258 z "
       id="path2423" />
    <path
       style="opacity:1;fill:#2e3436;fill-opacity:1;stroke:none;stroke-width:1;stroke-miterlimit:4;stroke-dasharray:none;stroke-opacity:1"
       d="M 15.983731,13.028802 C 15.39725,15.312567 14.3982,16.013813 11.994381,16.013813 C 9.5905633,16.013813 8.586481,15.283765 8,13 C 9.053747,14.478811 9.8793924,14.018763 11.974949,14.018763 C 14.070505,14.018764 14.929984,14.507613 15.983731,13.028802 z "
       id="path3634"
       sodipodi:nodetypes="cscsc" />
    <path
       style="opacity:1;fill:#edd400;fill-opacity:1;stroke:#f57900;stroke-width:1;stroke-miterlimit:4;stroke-dasharray:none;stroke-opacity:1"
       d="M 18.40625,11.5 C 17.913773,11.628034 17.53125,12.706922 17.53125,14 C 17.53125,14.418095 17.553923,14.809851 17.625,15.15625 C 17.622306,15.163949 17.627621,15.179766 17.625,15.1875 C 17.539831,15.438838 17.5,15.720034 17.5,16 C 17.500001,17.378292 18.620739,18.5 20,18.5 C 21.379261,18.5 22.5,17.378292 22.5,16 C 22.500001,14.621707 21.379261,13.5 20,13.5 C 19.816817,13.5 19.640752,13.525049 19.46875,13.5625 C 19.391354,12.455369 19.008894,11.586954 18.5625,11.5 C 18.545855,11.49784 18.516854,11.5 18.5,11.5 C 18.483146,11.5 18.454145,11.49784 18.4375,11.5 C 18.429233,11.50161 18.414458,11.497866 18.40625,11.5 z "
       id="path3638" />
    <path
       sodipodi:type="arc"
       style="opacity:0.5;fill:none;fill-opacity:1;stroke:#ffffff;stroke-width:6.69739294;stroke-miterlimit:4;stroke-dasharray:none;stroke-opacity:1"
       id="path3640"
       sodipodi:cx="11.806158"
       sodipodi:cy="10.983024"
       sodipodi:rx="9.975256"
       sodipodi:ry="9.975256"
       d="M 21.781414 10.983024 A 9.975256 9.975256 0 1 1  1.8309021,10.983024 A 9.975256 9.975256 0 1 1  21.781414 10.983024 z"
       transform="matrix(-0.149308,0,0,0.149316,21.75214,14.34256)" />
    <path
       style="opacity:1;fill:#edd400;fill-opacity:1;stroke:#f57900;stroke-width:1;stroke-miterlimit:4;stroke-dasharray:none;stroke-opacity:1"
       d="M 6.5725224,2.528033 C 7.0649994,2.656067 7.4475224,3.734955 7.4475224,5.028033 C 7.4475224,5.446128 7.4248494,5.837884 7.3537724,6.184283 C 7.3564664,6.191982 7.3511514,6.207799 7.3537724,6.215533 C 7.4389414,6.466871 7.4787724,6.748067 7.4787724,7.028033 C 7.4787714,8.406325 6.3580334,9.528033 4.9787725,9.528033 C 3.5995114,9.528033 2.4787724,8.406325 2.4787724,7.028033 C 2.4787714,5.64974 3.5995114,4.528033 4.9787725,4.528033 C 5.1619555,4.528033 5.3380205,4.553082 5.5100225,4.590533 C 5.5874185,3.483402 5.9698785,2.614987 6.4162724,2.528033 C 6.4329174,2.525873 6.4619184,2.528033 6.4787724,2.528033 C 6.4956264,2.528033 6.5246274,2.525873 6.5412724,2.528033 C 6.5495394,2.529643 6.5643144,2.525899 6.5725224,2.528033 z "
       id="path4643" />
    <path
       sodipodi:type="arc"
       style="opacity:0.5;fill:none;fill-opacity:1;stroke:#ffffff;stroke-width:6.69739294;stroke-miterlimit:4;stroke-dasharray:none;stroke-opacity:1"
       id="path4645"
       sodipodi:cx="11.806158"
       sodipodi:cy="10.983024"
       sodipodi:rx="9.975256"
       sodipodi:ry="9.975256"
       d="M 21.781414 10.983024 A 9.975256 9.975256 0 1 1  1.8309021,10.983024 A 9.975256 9.975256 0 1 1  21.781414 10.983024 z"
       transform="matrix(0.149308,0,0,0.149316,3.226632,5.370593)" />
  </g>
</svg>
