<?xml version="1.0" encoding="UTF-8" standalone="no"?>
<!-- Created with Inkscape (http://www.inkscape.org/) -->
<svg
   xmlns:dc="http://purl.org/dc/elements/1.1/"
   xmlns:cc="http://web.resource.org/cc/"
   xmlns:rdf="http://www.w3.org/1999/02/22-rdf-syntax-ns#"
   xmlns:svg="http://www.w3.org/2000/svg"
   xmlns="http://www.w3.org/2000/svg"
   xmlns:xlink="http://www.w3.org/1999/xlink"
   xmlns:sodipodi="http://inkscape.sourceforge.net/DTD/s odipodi-0.dtd"
   xmlns:inkscape="http://www.inkscape.org/namespaces/inkscape"
   width="24"
   height="24"
   id="svg2"
   sodipodi:version="0.32"
   inkscape:version="0.43"
   version="1.0"
   sodipodi:docbase="/home/hbons/Desktop/Gaim Refresh/emotes/scalable"
   sodipodi:docname="in-love.svg"
   inkscape:export-filename="/home/hbons/Desktop/Gaim Refresh/emotes/face-smile.png"
   inkscape:export-xdpi="90"
   inkscape:export-ydpi="90">
  <defs
     id="defs4">
    <linearGradient
       inkscape:collect="always"
       id="linearGradient2221">
      <stop
         style="stop-color:#ffffff;stop-opacity:1;"
         offset="0"
         id="stop2223" />
      <stop
         style="stop-color:#ffffff;stop-opacity:0;"
         offset="1"
         id="stop2225" />
    </linearGradient>
    <linearGradient
       inkscape:collect="always"
       xlink:href="#linearGradient2221"
       id="linearGradient2227"
       x1="11.5"
       y1="6.4401813"
       x2="11.5"
       y2="10.845449"
       gradientUnits="userSpaceOnUse" />
    <linearGradient
       inkscape:collect="always"
       id="linearGradient3150">
      <stop
         style="stop-color:#2e3436;stop-opacity:1;"
         offset="0"
         id="stop3152" />
      <stop
         style="stop-color:#2e3436;stop-opacity:0;"
         offset="1"
         id="stop3154" />
    </linearGradient>
    <linearGradient
       inkscape:collect="always"
       id="linearGradient3104">
      <stop
         style="stop-color:#eeeeec;stop-opacity:1;"
         offset="0"
         id="stop3106" />
      <stop
         style="stop-color:#eeeeec;stop-opacity:0;"
         offset="1"
         id="stop3108" />
    </linearGradient>
    <radialGradient
       inkscape:collect="always"
       xlink:href="#linearGradient3104"
       id="radialGradient3114"
       cx="8.3343515"
       cy="14.186539"
       fx="8.3343515"
       fy="14.186539"
       r="9.975256"
       gradientUnits="userSpaceOnUse"
       gradientTransform="matrix(-0.9327,0.932656,-0.947494,-0.947449,33.02126,11.96667)" />
    <radialGradient
       inkscape:collect="always"
       xlink:href="#linearGradient3150"
       id="radialGradient3156"
       cx="10.748654"
       cy="10.457643"
       fx="10.748654"
       fy="10.457643"
       r="6.6449099"
       gradientTransform="matrix(-0.842757,5.698892e-16,-4.565819e-9,-0.35721,19.80716,14.19321)"
       gradientUnits="userSpaceOnUse" />
    <linearGradient
       inkscape:collect="always"
       xlink:href="#linearGradient2221"
       id="linearGradient2874"
       gradientUnits="userSpaceOnUse"
       x1="11.5"
       y1="6.4401813"
       x2="11.5"
       y2="10.845449" />
  </defs>
  <sodipodi:namedview
     id="base"
     pagecolor="#ffffff"
     bordercolor="#666666"
     borderopacity="1.0"
     inkscape:pageopacity="0.0"
     inkscape:pageshadow="2"
     inkscape:zoom="25.730843"
     inkscape:cx="20.309429"
     inkscape:cy="13.589223"
     inkscape:document-units="px"
     inkscape:current-layer="layer1"
     showgrid="true"
     fill="#2e3436"
     inkscape:window-width="1268"
     inkscape:window-height="971"
     inkscape:window-x="6"
     inkscape:window-y="21" />
  <metadata
     id="metadata7">
    <rdf:RDF>
      <cc:Work
         rdf:about="">
        <dc:format>image/svg+xml</dc:format>
        <dc:type
           rdf:resource="http://purl.org/dc/dcmitype/StillImage" />
      </cc:Work>
    </rdf:RDF>
  </metadata>
  <g
     inkscape:label="Layer 1"
     inkscape:groupmode="layer"
     id="layer1">
    <path
       sodipodi:type="arc"
       style="opacity:0.6;fill:url(#radialGradient3156);fill-opacity:1.0;stroke:none;stroke-width:1;stroke-miterlimit:4;stroke-dasharray:none;stroke-opacity:1"
       id="path3140"
       sodipodi:cx="10.748654"
       sodipodi:cy="10.457643"
       sodipodi:rx="6.6449099"
       sodipodi:ry="2.3675451"
       d="M 17.393564 10.457643 A 6.6449099 2.3675451 0 1 1  4.1037445,10.457643 A 6.6449099 2.3675451 0 1 1  17.393564 10.457643 z"
       transform="matrix(1.504911,0,0,1.300982,-4.175772,6.474929)" />
    <path
       sodipodi:type="arc"
       style="opacity:1;fill:#edd400;fill-opacity:1;stroke:#f57900;stroke-width:1.05276573;stroke-miterlimit:4;stroke-dasharray:none;stroke-opacity:1"
       id="path1307"
       sodipodi:cx="11.806158"
       sodipodi:cy="10.983024"
       sodipodi:rx="9.975256"
       sodipodi:ry="9.975256"
       d="M 21.781414 10.983024 A 9.975256 9.975256 0 1 1  1.8309021,10.983024 A 9.975256 9.975256 0 1 1  21.781414 10.983024 z"
       transform="matrix(0.952236,0,0,0.952236,0.757713,1.541608)" />
    <path
       sodipodi:type="arc"
       style="opacity:0.79545455;fill:url(#radialGradient3114);fill-opacity:1.0;stroke:none;stroke-width:1.05274069;stroke-miterlimit:4;stroke-dasharray:none;stroke-opacity:1"
       id="path3102"
       sodipodi:cx="11.806158"
       sodipodi:cy="10.983024"
       sodipodi:rx="9.975256"
       sodipodi:ry="9.975256"
       d="M 21.781414 10.983024 A 9.975256 9.975256 0 1 1  1.8309021,10.983024 A 9.975256 9.975256 0 1 1  21.781414 10.983024 z"
       transform="matrix(0.8019,0,0,0.801938,2.532654,3.191833)" />
    <path
       sodipodi:type="arc"
       style="opacity:0.5;fill:none;fill-opacity:1.0;stroke:#ffffff;stroke-width:1.17343897;stroke-miterlimit:4;stroke-dasharray:none;stroke-opacity:1"
       id="path2184"
       sodipodi:cx="11.806158"
       sodipodi:cy="10.983024"
       sodipodi:rx="9.975256"
       sodipodi:ry="9.975256"
       d="M 21.781414 10.983024 A 9.975256 9.975256 0 1 1  1.8309021,10.983024 A 9.975256 9.975256 0 1 1  21.781414 10.983024 z"
       transform="matrix(0.852176,0,0,0.852216,1.93909,2.639626)" />
    <path
       style="opacity:1;fill:#2e3436;fill-opacity:1;stroke:none;stroke-width:1;stroke-miterlimit:4;stroke-dasharray:none;stroke-opacity:1"
       d="M 16.067267,14.01046 C 15.480786,16.294225 14.403819,17 12,17 C 9.596182,17 8.5969415,16.333089 8.0104605,14.049324 C 9.0642075,15.528135 9.904443,16.044402 12,16.044402 C 14.095556,16.044403 15.01352,15.489271 16.067267,14.01046 z "
       id="path2186"
       sodipodi:nodetypes="cscsc" />
    <path
       style="opacity:1;fill:#ef2929;fill-opacity:1;stroke:#a40000;stroke-width:1.00000024;stroke-miterlimit:4;stroke-dasharray:none;stroke-opacity:1"
       d="M 5.090642,5.5044434 C 4.1823736,5.5824129 3.4660175,6.4444942 3.4660175,7.4880151 C 3.4660175,9.8775942 6.1640159,11.573918 6.9840024,12.498594 C 7.7580456,11.625726 10.501985,9.9018607 10.501985,7.4880151 C 10.501985,6.3930509 9.7139875,5.5044434 8.7429938,5.5044434 C 7.6473346,5.5044434 7.3649194,6.4006819 6.9840024,7.1446871 C 6.6192344,6.4322267 6.3218141,5.5044434 5.2250099,5.5044434 C 5.1794741,5.5044434 5.1353108,5.5006089 5.090642,5.5044434 z "
       id="path2870"
       sodipodi:nodetypes="cscsscsc" />
    <path
       sodipodi:type="inkscape:offset"
       inkscape:radius="-1.0245959"
       inkscape:original="M 5.09375 5.5 C 4.1854816 5.5779697 3.46875 6.4564791 3.46875 7.5 C 3.46875 9.889579 6.1487635 11.575324 6.96875 12.5 C 7.742793 11.627132 10.5 9.9138456 10.5 7.5 C 10.5 6.4050357 9.7209937 5.5 8.75 5.5 C 7.6543412 5.5000002 7.349667 6.4122448 6.96875 7.15625 C 6.6039818 6.4437895 6.3155542 5.5 5.21875 5.5 C 5.1732142 5.5000002 5.1384188 5.4961655 5.09375 5.5 z "
       xlink:href="#path2870"
       style="opacity:0.35;fill:none;fill-opacity:1;stroke:#ffffff;stroke-width:1.00000024;stroke-miterlimit:4;stroke-dasharray:none;stroke-opacity:1"
       id="path2876"
       inkscape:href="#path2870"
       d="M 5.1875,6.53125 C 4.8869139,6.5570536 4.5,6.9256345 4.5,7.5 C 4.5,8.311747 4.9650518,9.0959887 5.65625,9.84375 C 6.0921511,10.315322 6.5283094,10.699154 6.96875,11.09375 C 7.4061382,10.708209 7.8392963,10.346811 8.28125,9.875 C 8.9851491,9.1235476 9.46875,8.3168091 9.46875,7.5 C 9.46875,6.8909977 9.0843292,6.53125 8.75,6.53125 C 8.4865298,6.53125 8.5024945,6.5305102 8.375,6.6875 C 8.2475055,6.8444898 8.0923729,7.2004284 7.875,7.625 C 7.6976263,7.9611147 7.3487955,8.1714541 6.96875,8.1714541 C 6.5887045,8.1714541 6.2398737,7.9611147 6.0625,7.625 C 5.8464019,7.20292 5.6877436,6.8472497 5.5625,6.6875 C 5.4372564,6.5277503 5.4732671,6.53125 5.21875,6.53125 C 5.1156891,6.5312505 5.1289966,6.5362721 5.1875,6.53125 z " />
    <path
       style="opacity:1;fill:#ef2929;fill-opacity:1;stroke:#a40000;stroke-width:1.00000024;stroke-miterlimit:4;stroke-dasharray:none;stroke-opacity:1"
       d="M 15.090642,5.5044434 C 14.182373,5.5824129 13.466018,6.4444942 13.466018,7.4880151 C 13.466018,9.8775942 16.164016,11.573918 16.984002,12.498594 C 17.758045,11.625726 20.501985,9.9018607 20.501985,7.4880151 C 20.501985,6.3930509 19.713987,5.5044434 18.742994,5.5044434 C 17.647334,5.5044434 17.364919,6.4006819 16.984002,7.1446871 C 16.619234,6.4322267 16.321814,5.5044434 15.22501,5.5044434 C 15.179474,5.5044434 15.135311,5.5006089 15.090642,5.5044434 z "
       id="path2878"
       sodipodi:nodetypes="cscsscsc" />
    <path
       sodipodi:type="inkscape:offset"
       inkscape:radius="-1.0245959"
       inkscape:original="M 5.09375 5.5 C 4.1854816 5.5779697 3.46875 6.4564791 3.46875 7.5 C 3.46875 9.889579 6.1487635 11.575324 6.96875 12.5 C 7.742793 11.627132 10.5 9.9138456 10.5 7.5 C 10.5 6.4050357 9.7209937 5.5 8.75 5.5 C 7.6543412 5.5000002 7.349667 6.4122448 6.96875 7.15625 C 6.6039818 6.4437895 6.3155542 5.5 5.21875 5.5 C 5.1732142 5.5000002 5.1384188 5.4961655 5.09375 5.5 z "
       xlink:href="#path2870"
       style="opacity:0.35;fill:none;fill-opacity:1;stroke:#ffffff;stroke-width:1.00000024;stroke-miterlimit:4;stroke-dasharray:none;stroke-opacity:1"
       id="path2880"
       inkscape:href="#path2870"
       d="M 5.1875,6.53125 C 4.8869139,6.5570536 4.5,6.9256345 4.5,7.5 C 4.5,8.311747 4.9650518,9.0959887 5.65625,9.84375 C 6.0921511,10.315322 6.5283094,10.699154 6.96875,11.09375 C 7.4061382,10.708209 7.8392963,10.346811 8.28125,9.875 C 8.9851491,9.1235476 9.46875,8.3168091 9.46875,7.5 C 9.46875,6.8909977 9.0843292,6.53125 8.75,6.53125 C 8.4865298,6.53125 8.5024945,6.5305102 8.375,6.6875 C 8.2475055,6.8444898 8.0923729,7.2004284 7.875,7.625 C 7.6976263,7.9611147 7.3487955,8.1714541 6.96875,8.1714541 C 6.5887045,8.1714541 6.2398737,7.9611147 6.0625,7.625 C 5.8464019,7.20292 5.6877436,6.8472497 5.5625,6.6875 C 5.4372564,6.5277503 5.4732671,6.53125 5.21875,6.53125 C 5.1156891,6.5312505 5.1289966,6.5362721 5.1875,6.53125 z "
       transform="translate(10,0)" />
  </g>
</svg>
