<?xml version="1.0" encoding="UTF-8" standalone="no"?>
<!-- Created with Inkscape (http://www.inkscape.org/) -->
<svg
   xmlns:dc="http://purl.org/dc/elements/1.1/"
   xmlns:cc="http://web.resource.org/cc/"
   xmlns:rdf="http://www.w3.org/1999/02/22-rdf-syntax-ns#"
   xmlns:svg="http://www.w3.org/2000/svg"
   xmlns="http://www.w3.org/2000/svg"
   xmlns:xlink="http://www.w3.org/1999/xlink"
   xmlns:sodipodi="http://inkscape.sourceforge.net/DTD/s odipodi-0.dtd"
   xmlns:inkscape="http://www.inkscape.org/namespaces/inkscape"
   width="24"
   height="24"
   id="svg2"
   sodipodi:version="0.32"
   inkscape:version="0.43"
   version="1.0"
   sodipodi:docbase="/home/hbons/Desktop/Gaim Refresh/emotes"
   sodipodi:docname="island.svg"
   inkscape:export-filename="/home/hbons/Desktop/Gaim Refresh/emotes/island.png"
   inkscape:export-xdpi="90"
   inkscape:export-ydpi="90">
  <defs
     id="defs4">
    <linearGradient
       inkscape:collect="always"
       id="linearGradient2377">
      <stop
         style="stop-color:#eeeeec;stop-opacity:1;"
         offset="0"
         id="stop2379" />
      <stop
         style="stop-color:#eeeeec;stop-opacity:0;"
         offset="1"
         id="stop2381" />
    </linearGradient>
    <linearGradient
       inkscape:collect="always"
       id="linearGradient2301">
      <stop
         style="stop-color:#ffffff;stop-opacity:1;"
         offset="0"
         id="stop2303" />
      <stop
         style="stop-color:#ffffff;stop-opacity:0;"
         offset="1"
         id="stop2305" />
    </linearGradient>
    <linearGradient
       inkscape:collect="always"
       id="linearGradient2291">
      <stop
         style="stop-color:#ffffff;stop-opacity:1;"
         offset="0"
         id="stop2293" />
      <stop
         style="stop-color:#ffffff;stop-opacity:0;"
         offset="1"
         id="stop2295" />
    </linearGradient>
    <linearGradient
       inkscape:collect="always"
       id="linearGradient3150">
      <stop
         style="stop-color:#2e3436;stop-opacity:1;"
         offset="0"
         id="stop3152" />
      <stop
         style="stop-color:#2e3436;stop-opacity:0;"
         offset="1"
         id="stop3154" />
    </linearGradient>
    <radialGradient
       inkscape:collect="always"
       xlink:href="#linearGradient3150"
       id="radialGradient3156"
       cx="10.748654"
       cy="10.457643"
       fx="10.748654"
       fy="10.457643"
       r="6.6449099"
       gradientTransform="matrix(-0.842757,5.698892e-16,-4.565819e-9,-0.35721,19.80716,14.19321)"
       gradientUnits="userSpaceOnUse" />
    <linearGradient
       inkscape:collect="always"
       xlink:href="#linearGradient2291"
       id="linearGradient2297"
       x1="11.820373"
       y1="13.911581"
       x2="11.820373"
       y2="20.294048"
       gradientUnits="userSpaceOnUse"
       gradientTransform="translate(0.949933,0.922963)" />
    <linearGradient
       inkscape:collect="always"
       xlink:href="#linearGradient2301"
       id="linearGradient2307"
       x1="11.499829"
       y1="-0.17405257"
       x2="11.499829"
       y2="10.501381"
       gradientUnits="userSpaceOnUse"
       gradientTransform="matrix(0.983129,0,0,1.190736,1.169261,-0.960665)" />
    <radialGradient
       inkscape:collect="always"
       xlink:href="#linearGradient3150"
       id="radialGradient2346"
       gradientUnits="userSpaceOnUse"
       gradientTransform="matrix(-0.842757,5.698892e-16,-4.565819e-9,-0.35721,19.80716,14.19321)"
       cx="10.748654"
       cy="10.457643"
       fx="10.748654"
       fy="10.457643"
       r="6.6449099" />
    <radialGradient
       inkscape:collect="always"
       xlink:href="#linearGradient2377"
       id="radialGradient2385"
       cx="10.400353"
       cy="2.4042056"
       fx="10.400353"
       fy="2.4042056"
       r="8.4669685"
       gradientTransform="matrix(-0.370865,0.370865,-0.285345,-0.285345,16.09003,-5.814472e-2)"
       gradientUnits="userSpaceOnUse" />
  </defs>
  <sodipodi:namedview
     id="base"
     pagecolor="#ffffff"
     bordercolor="#666666"
     borderopacity="1.0"
     inkscape:pageopacity="0.0"
     inkscape:pageshadow="2"
     inkscape:zoom="22.34181"
     inkscape:cx="19.388498"
     inkscape:cy="16.618115"
     inkscape:document-units="px"
     inkscape:current-layer="layer1"
     showgrid="true"
     fill="#eeeeec"
     inkscape:window-width="1268"
     inkscape:window-height="971"
     inkscape:window-x="6"
     inkscape:window-y="21" />
  <metadata
     id="metadata7">
    <rdf:RDF>
      <cc:Work
         rdf:about="">
        <dc:format>image/svg+xml</dc:format>
        <dc:type
           rdf:resource="http://purl.org/dc/dcmitype/StillImage" />
      </cc:Work>
    </rdf:RDF>
  </metadata>
  <g
     inkscape:label="Layer 1"
     inkscape:groupmode="layer"
     id="layer1">
    <path
       sodipodi:type="arc"
       style="opacity:0.5;fill:url(#radialGradient2346);fill-opacity:1;stroke:none;stroke-width:1;stroke-miterlimit:4;stroke-dasharray:none;stroke-opacity:1"
       id="path2344"
       sodipodi:cx="10.748654"
       sodipodi:cy="10.457643"
       sodipodi:rx="6.6449099"
       sodipodi:ry="2.3675451"
       d="M 17.393564 10.457643 A 6.6449099 2.3675451 0 1 1  4.1037445,10.457643 A 6.6449099 2.3675451 0 1 1  17.393564 10.457643 z"
       transform="matrix(1.429666,0,0,1.267136,-2.866983,7.748743)" />
    <path
       style="fill:#edd400;fill-opacity:1;stroke:none;stroke-width:0.9999997;stroke-miterlimit:4;stroke-opacity:1"
       d="M 20.44992,21.5 C 16.649133,21.5 7.6355175,21.5 4.4499425,21.5 C 4.4499425,18.694279 8.0339375,16.417169 12.449931,16.417169 C 16.865926,16.417169 20.44992,18.694279 20.44992,21.5 z "
       id="path2281"
       sodipodi:nodetypes="cccc" />
    <path
       style="fill:url(#linearGradient2297);fill-opacity:1;stroke:#c4a000;stroke-width:0.9999997;stroke-miterlimit:4;stroke-opacity:1"
       d="M 20.44992,21.5 C 16.649133,21.5 7.6355175,21.5 4.4499425,21.5 C 4.4499425,18.694279 8.0339375,16.417169 12.449931,16.417169 C 16.865926,16.417169 20.44992,18.694279 20.44992,21.5 z "
       id="path2255"
       sodipodi:nodetypes="cccc" />
    <path
       sodipodi:type="inkscape:offset"
       inkscape:radius="-1.0142764"
       inkscape:original="M 12.4375 16.40625 C 8.0215065 16.40625 4.4374999 18.694279 4.4375 21.5 C 7.623075 21.5 16.636712 21.5 20.4375 21.5 C 20.4375 18.694279 16.853495 16.406249 12.4375 16.40625 z "
       xlink:href="#path2255"
       style="opacity:0.4;fill:#fce94f;fill-opacity:1;stroke:#ffffff;stroke-width:1;stroke-miterlimit:4;stroke-opacity:1"
       id="path2271"
       inkscape:href="#path2255"
       d="M 11.5,16.5 C 9.4647842,16.5 7.6256462,17.053537 6.375,17.84375 C 5.5576191,18.360207 5.0943465,18.943924 4.8125,19.5625 C 8.2126304,19.5625 14.357464,19.562499 18.1875,19.5625 C 17.905654,18.943924 17.442381,18.360207 16.625,17.84375 C 15.374354,17.053537 13.535217,16.5 11.5,16.5 z " />
    <rect
       style="opacity:1;fill:#c17d11;fill-opacity:1;stroke:none;stroke-width:0.99999905;stroke-miterlimit:4;stroke-dasharray:none;stroke-opacity:1"
       id="rect2299"
       width="2.0007775"
       height="11.82298"
       x="11.449373"
       y="5.5874205"
       rx="0.89386761"
       ry="0.89386892" />
    <rect
       style="opacity:1;fill:url(#linearGradient2307);fill-opacity:1;stroke:#8f5902;stroke-width:0.99999917;stroke-miterlimit:4;stroke-dasharray:none;stroke-opacity:1"
       id="rect2260"
       width="1.9670224"
       height="11.905596"
       x="11.491565"
       y="5.5909152"
       rx="0.89386761"
       ry="0.89386904" />
    <path
       style="opacity:1;fill:#73d216;fill-opacity:1;stroke:none;stroke-width:0.96518666;stroke-miterlimit:4;stroke-dasharray:none;stroke-opacity:1"
       d="M 15.03125 1.46875 C 13.671244 1.4953891 12.326235 1.913744 11.21875 2.65625 C 8.820845 2.1576009 6.1648983 2.6557833 4.28125 4.125 C 4.0188289 4.3296843 3.7779176 4.557311 3.5625 4.78125 C 5.3985841 3.7269046 7.7351539 3.4503346 9.84375 3.9375 C 9.7952687 3.9969553 9.733955 4.0635262 9.6875 4.125 C 9.5728332 4.2767378 9.4765749 4.4300792 9.375 4.59375 C 9.3227613 4.6779239 9.2975588 4.7895799 9.25 4.875 C 9.2447157 4.8844911 9.2239768 4.8967444 9.21875 4.90625 C 9.2087122 4.9148017 9.197495 4.928882 9.1875 4.9375 C 7.5483243 6.3508573 6.46875 8.6564776 6.46875 11.25 C 6.4687498 11.684953 6.4732464 12.084488 6.53125 12.5 C 6.7382095 10.744681 7.4719259 9.2016901 8.5 8.03125 C 8.6075192 10.089099 9.8027976 12.04328 11.875 13.15625 C 12.137816 13.297408 12.383281 13.426067 12.65625 13.53125 C 10.427506 11.786404 9.6487012 8.856746 10.75 6.34375 C 11.458743 6.0334539 12.233219 5.84375 13.03125 5.84375 C 13.181747 5.84375 13.320808 5.8630347 13.46875 5.875 C 13.475395 5.8816035 13.493399 5.8683786 13.5 5.875 C 15.430831 7.8117641 15.501348 10.535459 13.71875 12.53125 C 13.967665 12.382489 14.178523 12.208875 14.40625 12.03125 C 16.179901 10.647829 16.846126 8.7480735 16.375 6.96875 C 17.969214 8.1018848 19.13002 9.9991432 19.46875 12.25 C 19.506173 11.914119 19.53125 11.597963 19.53125 11.25 C 19.531249 7.2015744 16.923623 3.88153 13.59375 3.53125 C 13.575404 3.5293201 13.54964 3.5329997 13.53125 3.53125 C 13.522053 3.5260772 13.509221 3.5363842 13.5 3.53125 C 13.488953 3.5302545 13.479813 3.5009303 13.46875 3.5 C 13.445607 3.4873091 13.429541 3.4499499 13.40625 3.4375 C 15.180372 2.4009808 17.408598 2.1350516 19.4375 2.875 C 19.171276 2.6809804 18.896606 2.5064109 18.59375 2.34375 C 17.470979 1.7407151 16.237293 1.4451266 15.03125 1.46875 z "
       id="path2375" />
    <path
       style="opacity:1;fill:url(#radialGradient2385);fill-opacity:1.0;stroke:#4e9a06;stroke-width:0.96518666;stroke-miterlimit:4;stroke-dasharray:none;stroke-opacity:1"
       d="M 15.03125 1.46875 C 13.671244 1.4953891 12.326235 1.913744 11.21875 2.65625 C 8.820845 2.1576009 6.1648983 2.6557833 4.28125 4.125 C 4.0188289 4.3296843 3.7779176 4.557311 3.5625 4.78125 C 5.3985841 3.7269046 7.7351539 3.4503346 9.84375 3.9375 C 9.7952687 3.9969553 9.733955 4.0635262 9.6875 4.125 C 9.5728332 4.2767378 9.4765749 4.4300792 9.375 4.59375 C 9.3227613 4.6779239 9.2975588 4.7895799 9.25 4.875 C 9.2447157 4.8844911 9.2239768 4.8967444 9.21875 4.90625 C 9.2087122 4.9148017 9.197495 4.928882 9.1875 4.9375 C 7.5483243 6.3508573 6.46875 8.6564776 6.46875 11.25 C 6.4687498 11.684953 6.4732464 12.084488 6.53125 12.5 C 6.7382095 10.744681 7.4719259 9.2016901 8.5 8.03125 C 8.6075192 10.089099 9.8027976 12.04328 11.875 13.15625 C 12.137816 13.297408 12.383281 13.426067 12.65625 13.53125 C 10.427506 11.786404 9.6487012 8.856746 10.75 6.34375 C 11.458743 6.0334539 12.233219 5.84375 13.03125 5.84375 C 13.181747 5.84375 13.320808 5.8630347 13.46875 5.875 C 13.475395 5.8816035 13.493399 5.8683786 13.5 5.875 C 15.430831 7.8117641 15.501348 10.535459 13.71875 12.53125 C 13.967665 12.382489 14.178523 12.208875 14.40625 12.03125 C 16.179901 10.647829 16.846126 8.7480735 16.375 6.96875 C 17.969214 8.1018848 19.13002 9.9991432 19.46875 12.25 C 19.506173 11.914119 19.53125 11.597963 19.53125 11.25 C 19.531249 7.2015744 16.923623 3.88153 13.59375 3.53125 C 13.575404 3.5293201 13.54964 3.5329997 13.53125 3.53125 C 13.522053 3.5260772 13.509221 3.5363842 13.5 3.53125 C 13.488953 3.5302545 13.479813 3.5009303 13.46875 3.5 C 13.445607 3.4873091 13.429541 3.4499499 13.40625 3.4375 C 15.180372 2.4009808 17.408598 2.1350516 19.4375 2.875 C 19.171276 2.6809804 18.896606 2.5064109 18.59375 2.34375 C 17.470979 1.7407151 16.237293 1.4451266 15.03125 1.46875 z "
       id="path2262" />
    <image
       id="image2355"
       height="64"
       width="64"
       sodipodi:absref="/home/hbons/Desktop/Tango-Palette.png"
       xlink:href="/home/hbons/Desktop/Tango-Palette.png"
       x="-69"
       y="-22" />
  </g>
</svg>
