<?xml version="1.0" encoding="UTF-8" standalone="no"?>
<!-- Created with Inkscape (http://www.inkscape.org/) -->
<svg
   xmlns:dc="http://purl.org/dc/elements/1.1/"
   xmlns:cc="http://web.resource.org/cc/"
   xmlns:rdf="http://www.w3.org/1999/02/22-rdf-syntax-ns#"
   xmlns:svg="http://www.w3.org/2000/svg"
   xmlns="http://www.w3.org/2000/svg"
   xmlns:xlink="http://www.w3.org/1999/xlink"
   xmlns:sodipodi="http://inkscape.sourceforge.net/DTD/s odipodi-0.dtd"
   xmlns:inkscape="http://www.inkscape.org/namespaces/inkscape"
   width="24"
   height="24"
   id="svg2"
   sodipodi:version="0.32"
   inkscape:version="0.43"
   version="1.0"
   sodipodi:docbase="/home/hbons/Desktop/Gaim Refresh/emotes/scalable"
   sodipodi:docname="meeting.svg"
   inkscape:export-filename="/home/hbons/Desktop/Gaim Refresh/emotes/meeting.png"
   inkscape:export-xdpi="90"
   inkscape:export-ydpi="90">
  <defs
     id="defs4">
    <linearGradient
       inkscape:collect="always"
       id="linearGradient3150">
      <stop
         style="stop-color:#2e3436;stop-opacity:1;"
         offset="0"
         id="stop3152" />
      <stop
         style="stop-color:#2e3436;stop-opacity:0;"
         offset="1"
         id="stop3154" />
    </linearGradient>
    <linearGradient
       inkscape:collect="always"
       id="linearGradient3104">
      <stop
         style="stop-color:#eeeeec;stop-opacity:1;"
         offset="0"
         id="stop3106" />
      <stop
         style="stop-color:#eeeeec;stop-opacity:0;"
         offset="1"
         id="stop3108" />
    </linearGradient>
    <radialGradient
       inkscape:collect="always"
       xlink:href="#linearGradient3104"
       id="radialGradient3114"
       cx="8.3343515"
       cy="14.186539"
       fx="8.3343515"
       fy="14.186539"
       r="9.975256"
       gradientUnits="userSpaceOnUse"
       gradientTransform="matrix(-0.9327,0.932656,-0.947494,-0.947449,33.02126,11.96667)" />
    <radialGradient
       inkscape:collect="always"
       xlink:href="#linearGradient3150"
       id="radialGradient3156"
       cx="10.748654"
       cy="10.457643"
       fx="10.748654"
       fy="10.457643"
       r="6.6449099"
       gradientTransform="matrix(-0.842757,5.698892e-16,-4.565819e-9,-0.35721,19.80716,14.19321)"
       gradientUnits="userSpaceOnUse" />
    <radialGradient
       inkscape:collect="always"
       xlink:href="#linearGradient3104"
       id="radialGradient2263"
       gradientUnits="userSpaceOnUse"
       gradientTransform="matrix(-0.9327,0.932656,-0.947494,-0.947449,33.02126,11.96667)"
       cx="8.3343515"
       cy="14.186539"
       fx="8.3343515"
       fy="14.186539"
       r="9.975256" />
    <radialGradient
       inkscape:collect="always"
       xlink:href="#linearGradient3150"
       id="radialGradient2275"
       gradientUnits="userSpaceOnUse"
       gradientTransform="matrix(-0.842757,5.698892e-16,-4.565819e-9,-0.35721,19.80716,14.19321)"
       cx="10.748654"
       cy="10.457643"
       fx="10.748654"
       fy="10.457643"
       r="6.6449099" />
    <radialGradient
       inkscape:collect="always"
       xlink:href="#linearGradient3150"
       id="radialGradient3204"
       gradientUnits="userSpaceOnUse"
       gradientTransform="matrix(-0.842757,5.698892e-16,-4.565819e-9,-0.35721,19.80716,14.19321)"
       cx="10.748654"
       cy="10.457643"
       fx="10.748654"
       fy="10.457643"
       r="6.6449099" />
    <radialGradient
       inkscape:collect="always"
       xlink:href="#linearGradient3104"
       id="radialGradient3206"
       gradientUnits="userSpaceOnUse"
       gradientTransform="matrix(-0.9327,0.932656,-0.947494,-0.947449,33.02126,11.96667)"
       cx="8.3343515"
       cy="14.186539"
       fx="8.3343515"
       fy="14.186539"
       r="9.975256" />
  </defs>
  <sodipodi:namedview
     id="base"
     pagecolor="#ffffff"
     bordercolor="#666666"
     borderopacity="1.0"
     inkscape:pageopacity="0.0"
     inkscape:pageshadow="2"
     inkscape:zoom="20.899939"
     inkscape:cx="24.38045"
     inkscape:cy="14.498426"
     inkscape:document-units="px"
     inkscape:current-layer="layer1"
     showgrid="true"
     fill="#2e3436"
     inkscape:window-width="1268"
     inkscape:window-height="971"
     inkscape:window-x="6"
     inkscape:window-y="21"
     inkscape:grid-points="true" />
  <metadata
     id="metadata7">
    <rdf:RDF>
      <cc:Work
         rdf:about="">
        <dc:format>image/svg+xml</dc:format>
        <dc:type
           rdf:resource="http://purl.org/dc/dcmitype/StillImage" />
      </cc:Work>
    </rdf:RDF>
  </metadata>
  <g
     inkscape:label="Layer 1"
     inkscape:groupmode="layer"
     id="layer1">
    <path
       sodipodi:type="arc"
       style="opacity:0.6;fill:url(#radialGradient3156);fill-opacity:1;stroke:none;stroke-width:1;stroke-miterlimit:4;stroke-dasharray:none;stroke-opacity:1"
       id="path3140"
       sodipodi:cx="10.748654"
       sodipodi:cy="10.457643"
       sodipodi:rx="6.6449099"
       sodipodi:ry="2.3675451"
       d="M 17.393564 10.457643 A 6.6449099 2.3675451 0 1 1  4.1037445,10.457643 A 6.6449099 2.3675451 0 1 1  17.393564 10.457643 z"
       transform="matrix(1.20393,0,0,1.267135,2.059373,6.748751)" />
    <path
       sodipodi:type="arc"
       style="opacity:0.6;fill:url(#radialGradient3204);fill-opacity:1;stroke:none;stroke-width:1;stroke-miterlimit:4;stroke-dasharray:none;stroke-opacity:1"
       id="path3190"
       sodipodi:cx="10.748654"
       sodipodi:cy="10.457643"
       sodipodi:rx="6.6449099"
       sodipodi:ry="2.3675451"
       d="M 17.393564 10.457643 A 6.6449099 2.3675451 0 1 1  4.1037445,10.457643 A 6.6449099 2.3675451 0 1 1  17.393564 10.457643 z"
       transform="matrix(-0.902949,0,0,1.055946,26.71908,0.477889)" />
    <path
       sodipodi:type="arc"
       style="opacity:1;fill:#edd400;fill-opacity:1;stroke:#f57900;stroke-width:1.81676304;stroke-miterlimit:4;stroke-dasharray:none;stroke-opacity:1"
       id="path3192"
       sodipodi:cx="11.806158"
       sodipodi:cy="10.983024"
       sodipodi:rx="9.975256"
       sodipodi:ry="9.975256"
       d="M 21.781414 10.983024 A 9.975256 9.975256 0 1 1  1.8309021,10.983024 A 9.975256 9.975256 0 1 1  21.781414 10.983024 z"
       transform="matrix(-0.55132,0,0,0.552272,23.52257,0.944679)" />
    <path
       sodipodi:type="arc"
       style="opacity:0.79545456;fill:url(#radialGradient3206);fill-opacity:1;stroke:none;stroke-width:1.05274069;stroke-miterlimit:4;stroke-dasharray:none;stroke-opacity:1"
       id="path3194"
       sodipodi:cx="11.806158"
       sodipodi:cy="10.983024"
       sodipodi:rx="9.975256"
       sodipodi:ry="9.975256"
       d="M 21.781414 10.983024 A 9.975256 9.975256 0 1 1  1.8309021,10.983024 A 9.975256 9.975256 0 1 1  21.781414 10.983024 z"
       transform="matrix(-0.400992,0,0,0.400992,21.74777,2.616484)" />
    <path
       sodipodi:type="arc"
       style="opacity:0.5;fill:none;fill-opacity:1;stroke:#ffffff;stroke-width:2.21003675;stroke-miterlimit:4;stroke-dasharray:none;stroke-opacity:1"
       id="path3196"
       sodipodi:cx="11.806158"
       sodipodi:cy="10.983024"
       sodipodi:rx="9.975256"
       sodipodi:ry="9.975256"
       d="M 21.781414 10.983024 A 9.975256 9.975256 0 1 1  1.8309021,10.983024 A 9.975256 9.975256 0 1 1  21.781414 10.983024 z"
       transform="matrix(-0.45248,0,0,0.452481,22.35565,2.050981)" />
    <path
       sodipodi:type="arc"
       style="opacity:0.6;fill:url(#radialGradient2275);fill-opacity:1;stroke:none;stroke-width:1;stroke-miterlimit:4;stroke-dasharray:none;stroke-opacity:1"
       id="path2273"
       sodipodi:cx="10.748654"
       sodipodi:cy="10.457643"
       sodipodi:rx="6.6449099"
       sodipodi:ry="2.3675451"
       d="M 17.393564 10.457643 A 6.6449099 2.3675451 0 1 1  4.1037445,10.457643 A 6.6449099 2.3675451 0 1 1  17.393564 10.457643 z"
       transform="matrix(0.902949,0,0,1.055946,-2.705484,2.443685)" />
    <path
       style="opacity:1;fill:#2e3436;fill-opacity:1;stroke:none;stroke-width:1;stroke-miterlimit:4;stroke-dasharray:none;stroke-opacity:1"
       d="M 14.0136,7.0205912 C 14.365489,8.1624737 15.571309,9.0205912 17.0136,9.0205912 C 18.455891,9.0205912 19.661711,8.1624737 20.0136,7.0205912 C 19.381351,7.759997 18.270934,8.542792 17.0136,8.542792 C 15.756266,8.5427929 14.645848,7.759997 14.0136,7.0205912 z "
       id="path3198"
       sodipodi:nodetypes="cscsc" />
    <path
       sodipodi:type="arc"
       style="opacity:1;fill:#edd400;fill-opacity:1;stroke:#f57900;stroke-width:1.81676304;stroke-miterlimit:4;stroke-dasharray:none;stroke-opacity:1"
       id="path2257"
       sodipodi:cx="11.806158"
       sodipodi:cy="10.983024"
       sodipodi:rx="9.975256"
       sodipodi:ry="9.975256"
       d="M 21.781414 10.983024 A 9.975256 9.975256 0 1 1  1.8309021,10.983024 A 9.975256 9.975256 0 1 1  21.781414 10.983024 z"
       transform="matrix(0.55132,0,0,0.552272,0.491027,2.910475)" />
    <path
       sodipodi:type="arc"
       style="opacity:0.79545456;fill:url(#radialGradient2263);fill-opacity:1;stroke:none;stroke-width:1.05274069;stroke-miterlimit:4;stroke-dasharray:none;stroke-opacity:1"
       id="path2259"
       sodipodi:cx="11.806158"
       sodipodi:cy="10.983024"
       sodipodi:rx="9.975256"
       sodipodi:ry="9.975256"
       d="M 21.781414 10.983024 A 9.975256 9.975256 0 1 1  1.8309021,10.983024 A 9.975256 9.975256 0 1 1  21.781414 10.983024 z"
       transform="matrix(0.400992,0,0,0.400992,2.265822,4.58228)" />
    <path
       sodipodi:type="arc"
       style="opacity:1;fill:#2e3436;fill-opacity:1;stroke:none;stroke-width:1;stroke-miterlimit:4;stroke-dasharray:none;stroke-opacity:1"
       id="path3200"
       sodipodi:cx="9.0598059"
       sodipodi:cy="8.7845774"
       sodipodi:rx="1.1679889"
       sodipodi:ry="1.4520943"
       d="M 10.227795 8.7845774 A 1.1679889 1.4520943 0 1 1  7.891817,8.7845774 A 1.1679889 1.4520943 0 1 1  10.227795 8.7845774 z"
       transform="matrix(-0.428089,0,0,1.03299,19.392,-3.55379)" />
    <path
       sodipodi:type="arc"
       style="opacity:0.5;fill:none;fill-opacity:1;stroke:#ffffff;stroke-width:2.21003675;stroke-miterlimit:4;stroke-dasharray:none;stroke-opacity:1"
       id="path2261"
       sodipodi:cx="11.806158"
       sodipodi:cy="10.983024"
       sodipodi:rx="9.975256"
       sodipodi:ry="9.975256"
       d="M 21.781414 10.983024 A 9.975256 9.975256 0 1 1  1.8309021,10.983024 A 9.975256 9.975256 0 1 1  21.781414 10.983024 z"
       transform="matrix(0.45248,0,0,0.452481,1.657947,4.016777)" />
    <path
       style="opacity:1;fill:#2e3436;fill-opacity:1;stroke:none;stroke-width:1;stroke-miterlimit:4;stroke-dasharray:none;stroke-opacity:1"
       d="M 10,8.9863874 C 9.648111,10.12827 8.442291,10.986387 7,10.986387 C 5.557709,10.986387 4.3518886,10.12827 4,8.9863874 C 4.6322482,9.7257932 5.742666,10.508588 7,10.508588 C 8.257334,10.508589 9.367752,9.7257932 10,8.9863874 z "
       id="path2186"
       sodipodi:nodetypes="cscsc" />
    <path
       sodipodi:type="arc"
       style="opacity:1;fill:#2e3436;fill-opacity:1;stroke:none;stroke-width:1;stroke-miterlimit:4;stroke-dasharray:none;stroke-opacity:1"
       id="path3202"
       sodipodi:cx="9.0598059"
       sodipodi:cy="8.7845774"
       sodipodi:rx="1.1679889"
       sodipodi:ry="1.4520943"
       d="M 10.227795 8.7845774 A 1.1679889 1.4520943 0 1 1  7.891817,8.7845774 A 1.1679889 1.4520943 0 1 1  10.227795 8.7845774 z"
       transform="matrix(-0.428087,0,0,1.032991,21.39198,-3.553795)" />
    <path
       sodipodi:type="arc"
       style="opacity:1;fill:#edd400;fill-opacity:1;stroke:#f57900;stroke-width:1.33246088;stroke-miterlimit:4;stroke-dasharray:none;stroke-opacity:1"
       id="path1307"
       sodipodi:cx="11.806158"
       sodipodi:cy="10.983024"
       sodipodi:rx="9.975256"
       sodipodi:ry="9.975256"
       d="M 21.781414 10.983024 A 9.975256 9.975256 0 1 1  1.8309021,10.983024 A 9.975256 9.975256 0 1 1  21.781414 10.983024 z"
       transform="matrix(0.751775,0,0,0.752933,6.124429,5.730516)" />
    <path
       sodipodi:type="arc"
       style="opacity:1;fill:#2e3436;fill-opacity:1;stroke:none;stroke-width:1;stroke-miterlimit:4;stroke-dasharray:none;stroke-opacity:1"
       id="path2265"
       sodipodi:cx="9.0598059"
       sodipodi:cy="8.7845774"
       sodipodi:rx="1.1679889"
       sodipodi:ry="1.4520943"
       d="M 10.227795 8.7845774 A 1.1679889 1.4520943 0 1 1  7.891817,8.7845774 A 1.1679889 1.4520943 0 1 1  10.227795 8.7845774 z"
       transform="matrix(0.428089,0,0,1.03299,4.621596,-1.587994)" />
    <path
       sodipodi:type="arc"
       style="opacity:0.79545456;fill:url(#radialGradient3114);fill-opacity:1;stroke:none;stroke-width:1.05274069;stroke-miterlimit:4;stroke-dasharray:none;stroke-opacity:1"
       id="path3102"
       sodipodi:cx="11.806158"
       sodipodi:cy="10.983024"
       sodipodi:rx="9.975256"
       sodipodi:ry="9.975256"
       d="M 21.781414 10.983024 A 9.975256 9.975256 0 1 1  1.8309021,10.983024 A 9.975256 9.975256 0 1 1  21.781414 10.983024 z"
       transform="matrix(0.601488,0,0,0.601488,7.898735,7.393839)" />
    <path
       sodipodi:type="arc"
       style="opacity:1;fill:#2e3436;fill-opacity:1;stroke:none;stroke-width:1;stroke-miterlimit:4;stroke-dasharray:none;stroke-opacity:1"
       id="path2267"
       sodipodi:cx="9.0598059"
       sodipodi:cy="8.7845774"
       sodipodi:rx="1.1679889"
       sodipodi:ry="1.4520943"
       d="M 10.227795 8.7845774 A 1.1679889 1.4520943 0 1 1  7.891817,8.7845774 A 1.1679889 1.4520943 0 1 1  10.227795 8.7845774 z"
       transform="matrix(0.428087,0,0,1.032991,2.621614,-1.587999)" />
    <path
       sodipodi:type="arc"
       style="opacity:0.5;fill:none;fill-opacity:1;stroke:#ffffff;stroke-width:1.53191662;stroke-miterlimit:4;stroke-dasharray:none;stroke-opacity:1"
       id="path2184"
       sodipodi:cx="11.806158"
       sodipodi:cy="10.983024"
       sodipodi:rx="9.975256"
       sodipodi:ry="9.975256"
       d="M 21.781414 10.983024 A 9.975256 9.975256 0 1 1  1.8309021,10.983024 A 9.975256 9.975256 0 1 1  21.781414 10.983024 z"
       transform="matrix(0.652766,0,0,0.652787,7.289484,6.826771)" />
  </g>
</svg>
