<?xml version="1.0" encoding="UTF-8" standalone="no"?>
<!-- Created with Inkscape (http://www.inkscape.org/) -->
<svg
   xmlns:dc="http://purl.org/dc/elements/1.1/"
   xmlns:cc="http://web.resource.org/cc/"
   xmlns:rdf="http://www.w3.org/1999/02/22-rdf-syntax-ns#"
   xmlns:svg="http://www.w3.org/2000/svg"
   xmlns="http://www.w3.org/2000/svg"
   xmlns:xlink="http://www.w3.org/1999/xlink"
   xmlns:sodipodi="http://inkscape.sourceforge.net/DTD/s odipodi-0.dtd"
   xmlns:inkscape="http://www.inkscape.org/namespaces/inkscape"
   width="24"
   height="24"
   id="svg2"
   sodipodi:version="0.32"
   inkscape:version="0.43"
   version="1.0"
   sodipodi:docbase="/home/hbons/Desktop/Gaim Refresh/emotes/scalable"
   sodipodi:docname="msn-busy.svg"
   inkscape:export-filename="/home/hbons/Desktop/Gaim Refresh/emotes/msn/todo/msn_occ.png"
   inkscape:export-xdpi="90"
   inkscape:export-ydpi="90">
  <defs
     id="defs4">
    <linearGradient
       inkscape:collect="always"
       xlink:href="#linearGradient2239"
       id="linearGradient2345"
       gradientUnits="userSpaceOnUse"
       gradientTransform="matrix(0.370788,0,0,0.370892,10.56557,10.55964)"
       x1="15.535398"
       y1="1.8014067"
       x2="15.535398"
       y2="48.674999" />
    <linearGradient
       inkscape:collect="always"
       id="linearGradient2186">
      <stop
         style="stop-color:#ffffff;stop-opacity:1;"
         offset="0"
         id="stop2188" />
      <stop
         style="stop-color:#ffffff;stop-opacity:0;"
         offset="1"
         id="stop2190" />
    </linearGradient>
    <linearGradient
       inkscape:collect="always"
       xlink:href="#linearGradient2186"
       id="linearGradient2343"
       gradientUnits="userSpaceOnUse"
       gradientTransform="matrix(0.525701,0,0,0.525844,10.18726,10.18624)"
       x1="11.226587"
       y1="-5.4832759"
       x2="11.226587"
       y2="17.697369" />
    <linearGradient
       inkscape:collect="always"
       id="linearGradient2260">
      <stop
         style="stop-color:#555753;stop-opacity:1;"
         offset="0"
         id="stop2262" />
      <stop
         style="stop-color:#555753;stop-opacity:0"
         offset="1"
         id="stop2264" />
    </linearGradient>
    <radialGradient
       inkscape:collect="always"
       xlink:href="#linearGradient2260"
       id="radialGradient2266"
       cx="11.756953"
       cy="17.588654"
       fx="11.756953"
       fy="17.588654"
       r="6.3436799"
       gradientTransform="matrix(1.147277,-7.982062e-16,2.037973e-16,0.71896,-1.731525,4.943114)"
       gradientUnits="userSpaceOnUse" />
    <linearGradient
       inkscape:collect="always"
       xlink:href="#linearGradient2239"
       id="linearGradient1357"
       gradientUnits="userSpaceOnUse"
       gradientTransform="matrix(0.371983,0,0,0.372254,10.53035,9.522329)"
       x1="15.602553"
       y1="1.5657365"
       x2="15.522223"
       y2="33.483475" />
    <linearGradient
       inkscape:collect="always"
       id="linearGradient2239">
      <stop
         style="stop-color:#ffffff;stop-opacity:1;"
         offset="0"
         id="stop2241" />
      <stop
         style="stop-color:#ffffff;stop-opacity:0;"
         offset="1"
         id="stop2243" />
    </linearGradient>
    <linearGradient
       inkscape:collect="always"
       xlink:href="#linearGradient2239"
       id="linearGradient2245"
       x1="15.602553"
       y1="1.5657365"
       x2="15.522223"
       y2="33.483475"
       gradientUnits="userSpaceOnUse"
       gradientTransform="matrix(0.300504,0,0,0.300499,11.2109,10.23233)" />
    <linearGradient
       inkscape:collect="always"
       id="linearGradient3816">
      <stop
         style="stop-color:#000000;stop-opacity:1;"
         offset="0"
         id="stop3818" />
      <stop
         style="stop-color:#000000;stop-opacity:0;"
         offset="1"
         id="stop3820" />
    </linearGradient>
    <radialGradient
       inkscape:collect="always"
       xlink:href="#linearGradient3816"
       id="radialGradient3822"
       cx="31.112698"
       cy="19.008621"
       fx="31.112698"
       fy="19.008621"
       r="8.6620579"
       gradientUnits="userSpaceOnUse" />
    <linearGradient
       inkscape:collect="always"
       id="linearGradient2228">
      <stop
         style="stop-color:#f56600;stop-opacity:1;"
         offset="0"
         id="stop2230" />
      <stop
         style="stop-color:#f56600;stop-opacity:0;"
         offset="1"
         id="stop2232" />
    </linearGradient>
    <linearGradient
       inkscape:collect="always"
       id="linearGradient2219">
      <stop
         style="stop-color:#3465a4;stop-opacity:1;"
         offset="0"
         id="stop2221" />
      <stop
         style="stop-color:#3465a4;stop-opacity:0;"
         offset="1"
         id="stop2223" />
    </linearGradient>
    <linearGradient
       inkscape:collect="always"
       xlink:href="#linearGradient2219"
       id="linearGradient2251"
       gradientUnits="userSpaceOnUse"
       gradientTransform="matrix(0.747158,0,0,0.74873,0.374035,0.608489)"
       x1="9.9973583"
       y1="14.918511"
       x2="14.069712"
       y2="18.218639" />
    <linearGradient
       inkscape:collect="always"
       xlink:href="#linearGradient2228"
       id="linearGradient1330"
       gradientUnits="userSpaceOnUse"
       gradientTransform="matrix(0.782765,0,0,0.747651,1.035995,0.614065)"
       x1="20.998175"
       y1="11.741063"
       x2="17.999571"
       y2="18.866741" />
    <radialGradient
       inkscape:collect="always"
       xlink:href="#linearGradient3816"
       id="radialGradient1691"
       gradientUnits="userSpaceOnUse"
       cx="31.112698"
       cy="19.008621"
       fx="31.112698"
       fy="19.008621"
       r="8.6620579" />
  </defs>
  <sodipodi:namedview
     id="base"
     pagecolor="#ffffff"
     bordercolor="#666666"
     borderopacity="1.0"
     inkscape:pageopacity="0.0"
     inkscape:pageshadow="2"
     inkscape:zoom="24.007725"
     inkscape:cx="24.82492"
     inkscape:cy="10.486753"
     inkscape:document-units="px"
     inkscape:current-layer="layer1"
     showgrid="true"
     fill="#edd400"
     showguides="true"
     inkscape:guide-bbox="true"
     inkscape:window-width="1268"
     inkscape:window-height="971"
     inkscape:window-x="6"
     inkscape:window-y="21" />
  <metadata
     id="metadata7">
    <rdf:RDF>
      <cc:Work
         rdf:about="">
        <dc:format>image/svg+xml</dc:format>
        <dc:type
           rdf:resource="http://purl.org/dc/dcmitype/StillImage" />
      </cc:Work>
    </rdf:RDF>
  </metadata>
  <g
     inkscape:label="Layer 1"
     inkscape:groupmode="layer"
     id="layer1">
    <path
       d="M 39.774755 19.008621 A 8.6620579 8.6620579 0 1 1  22.45064,19.008621 A 8.6620579 8.6620579 0 1 1  39.774755 19.008621 z"
       sodipodi:ry="8.6620579"
       sodipodi:rx="8.6620579"
       sodipodi:cy="19.008621"
       sodipodi:cx="31.112698"
       id="path4318"
       style="opacity:0.4;color:#000000;fill:url(#radialGradient3822);fill-opacity:1;fill-rule:evenodd;stroke:none;stroke-width:1px;stroke-linecap:round;stroke-linejoin:round;marker:none;marker-start:none;marker-mid:none;marker-end:none;stroke-miterlimit:4;stroke-dasharray:none;stroke-dashoffset:0;stroke-opacity:1;visibility:visible;display:inline;overflow:visible"
       sodipodi:type="arc"
       transform="matrix(1.044119,0,0,0.346338,-18.44114,13.41659)" />
    <path
       style="opacity:1;fill:#edd400;fill-opacity:1;stroke:#c4a000;stroke-width:1.00000083;stroke-miterlimit:4;stroke-opacity:1"
       d="M 18.436518,9.9127618 C 21.037357,10.673309 21.362289,19.501337 18.407881,19.501337 C 15.489266,19.501337 8.9905421,7.150538 18.436518,9.9127618 z "
       id="rect2194"
       sodipodi:nodetypes="czs" />
    <path
       sodipodi:type="inkscape:offset"
       inkscape:radius="-0.96520001"
       inkscape:original="M 15.59375 9.53125 C 10.549483 10.044796 15.852462 19.5 18.40625 19.5 C 21.360658 19.5 21.038339 10.666797 18.4375 9.90625 C 17.256753 9.560972 16.31436 9.4578863 15.59375 9.53125 z "
       xlink:href="#rect2194"
       style="opacity:0.5;fill:none;fill-opacity:1;stroke:#ffffff;stroke-width:1.00000024;stroke-miterlimit:4;stroke-opacity:1"
       id="path2259"
       inkscape:href="#rect2194"
       d="M 16,10.75 C 15.512126,10.798024 15.253534,10.920051 15.09375,11.0625 C 14.933966,11.204949 14.83864,11.380838 14.78125,11.6875 C 14.66647,12.300825 14.844054,13.385232 15.3125,14.46875 C 15.780946,15.552268 16.512913,16.653582 17.21875,17.4375 C 17.924587,18.221418 18.67699,18.5625 18.75,18.5625 C 18.89196,18.5625 18.968845,18.54667 19.09375,18.4375 C 19.218655,18.32833 19.365593,18.098064 19.5,17.78125 C 19.768815,17.147621 19.923112,16.154119 19.90625,15.125 C 19.889388,14.095881 19.705611,13.023656 19.40625,12.25 C 19.106889,11.476344 18.724904,11.117253 18.53125,11.0625 C 17.425208,10.749781 16.582845,10.692627 16,10.75 z " />
    <path
       style="fill:#73d216;fill-opacity:1;stroke:#4e9a06;stroke-width:1.00000083;stroke-miterlimit:4;stroke-opacity:1"
       d="M 13.316085,20.509475 C 10.851196,20.509475 4.3258741,14.508937 9.3204332,11.066555 C 14.310647,7.6271659 15.818731,20.509475 13.316085,20.509475 z "
       id="rect2201"
       sodipodi:nodetypes="czz" />
    <path
       style="opacity:0.25;fill:none;fill-opacity:1;stroke:#ffffff;stroke-width:1;stroke-miterlimit:4;stroke-opacity:1"
       d="M 10.99506,11.498797 C 10.735658,11.486846 10.370038,11.588319 9.8835883,11.932121 C 8.8737,12.645867 8.5374239,13.351301 8.4999186,14.121547 C 8.4624133,14.891791 8.7901654,15.780902 9.3391937,16.607457 C 9.8882225,17.43401 10.661309,18.195719 11.403357,18.728462 C 12.145404,19.261206 12.809412,19.500227 13.070994,19.500227 C 13.222335,19.500227 13.331682,19.0625 13.39947,18.682848 C 13.535046,17.923542 13.548476,16.808781 13.376787,15.695196 C 13.205098,14.58161 12.846108,13.444035 12.401414,12.661929 C 11.95672,11.879824 11.481565,11.52121 10.99506,11.498797 z "
       id="path2254"
       sodipodi:nodetypes="cssssssssc" />
    <path
       sodipodi:type="inkscape:offset"
       inkscape:radius="-0.99454969"
       inkscape:original="M 19.8125 2.53125 C 16.600144 3.1011521 12.46875 9.9375003 12.46875 9.9375 L 14.46875 14.5 C 18.173566 14.5 20.656251 12.6875 20.65625 12.6875 C 20.65625 12.6875 24.40713 4.4120618 21.125 2.6875 C 20.718044 2.4736692 20.271408 2.4498354 19.8125 2.53125 z "
       xlink:href="#rect1317"
       style="opacity:0.25;fill:none;fill-opacity:1;stroke:#ffffff;stroke-width:1;stroke-miterlimit:4;stroke-opacity:1"
       id="path2245"
       inkscape:href="#rect1317"
       d="M 20,3.5 C 18.995087,3.678281 17.104383,5.3426949 15.71875,7.0625 C 14.498278,8.5773128 13.796939,9.7027104 13.59375,10.03125 L 15.0625,13.375 C 17.799931,13.187054 19.57299,12.186552 19.84375,12 C 19.951969,11.755173 20.691026,10.13991 21.15625,8.125 C 21.405718,7.0445423 21.52736,5.9263632 21.4375,5.09375 C 21.34764,4.2611368 21.117806,3.8050199 20.65625,3.5625 C 20.487599,3.4738843 20.316754,3.4438049 20,3.5 z " />
    <path
       style="opacity:1;fill:url(#linearGradient2251);fill-opacity:1;stroke:#204a87;stroke-width:1.00000036;stroke-miterlimit:4;stroke-opacity:1"
       d="M 1.7306799,5.8222291 C 3.0741729,3.5659039 16.882213,13.11203 11.087148,14.375153 C 5.2996209,15.636634 0.40087698,8.0555627 1.7306799,5.8222291 z "
       id="rect2197"
       sodipodi:nodetypes="czz" />
    <path
       style="opacity:0.2;fill:none;fill-opacity:1;stroke:#ffffff;stroke-width:0.99999994;stroke-miterlimit:4;stroke-dasharray:none;stroke-opacity:1"
       d="M 2.7390794,8.1722341 C 3.0496879,9.0060223 3.6590736,9.9821112 4.4574474,10.857929 C 6.0541952,12.609562 8.35926,13.89948 10.765977,13.389526 C 11.255672,13.285765 11.400406,13.151715 11.448617,13.081331 C 11.496824,13.010949 11.537361,12.912219 11.448617,12.641053 C 11.271127,12.098721 10.521911,11.132591 9.4713148,10.219525 C 8.4207206,9.3064602 7.0856043,8.3957283 5.8462653,7.7099423 C 4.6069262,7.0241566 3.3045923,6.5498939 2.7239802,6.4956482 C 2.4148401,6.4667656 2.428471,7.3384455 2.7390794,8.1722341 z "
       id="path2249"
       sodipodi:nodetypes="cssssssss" />
    <path
       style="opacity:1;fill:url(#linearGradient1330);fill-opacity:1;stroke:#ce5d00;stroke-width:1.0000006;stroke-miterlimit:4;stroke-opacity:1"
       d="M 12.478485,9.9508709 C 12.478485,9.9508709 17.866649,0.9861607 21.122294,2.6968071 C 24.404423,4.4213689 20.644961,12.673483 20.644961,12.673483 C 20.644961,12.673483 18.181394,14.512366 14.476578,14.512366 L 12.478485,9.9508709 z "
       id="rect1317"
       sodipodi:nodetypes="czccc" />
    <path
       sodipodi:type="inkscape:offset"
       inkscape:radius="-0.99298751"
       inkscape:original="M 19.8125 2.53125 C 16.600144 3.1011521 12.46875 9.9375003 12.46875 9.9375 L 14.46875 14.5 C 18.173566 14.5 20.656251 12.6875 20.65625 12.6875 C 20.65625 12.6875 24.40713 4.4120618 21.125 2.6875 C 20.718044 2.4736692 20.271408 2.4498354 19.8125 2.53125 z "
       xlink:href="#rect1317"
       style="opacity:0.25;fill:none;fill-opacity:1;stroke:#ffffff;stroke-width:1.0000006;stroke-miterlimit:4;stroke-opacity:1"
       id="path1328"
       inkscape:href="#rect1317"
       d="M 20,3.5 C 18.994143,3.6784485 17.104459,5.3425998 15.71875,7.0625 C 14.49821,8.5773965 13.796948,9.7026949 13.59375,10.03125 L 15.0625,13.375 C 17.800353,13.18702 19.57294,12.186586 19.84375,12 C 19.951976,11.755161 20.690984,10.140091 21.15625,8.125 C 21.40574,7.0444453 21.527392,5.9266549 21.4375,5.09375 C 21.347608,4.2608451 21.11837,3.8053161 20.65625,3.5625 C 20.487225,3.4736876 20.316977,3.4437653 20,3.5 z " />
    <path
       sodipodi:type="arc"
       style="opacity:1;fill:#75507b;fill-opacity:1;stroke:#5c3566;stroke-width:1.35211551;stroke-miterlimit:4;stroke-dasharray:none;stroke-opacity:1"
       id="path2192"
       sodipodi:cx="13.4375"
       sodipodi:cy="15.825892"
       sodipodi:rx="0.8035714"
       sodipodi:ry="5.1116071"
       d="M 14.241071 15.825892 A 0.8035714 5.1116071 0 1 1  12.633929,15.825892 A 0.8035714 5.1116071 0 1 1  14.241071 15.825892 z"
       transform="matrix(0.603448,-0.487879,0.280285,0.679821,0.46572,8.794406)" />
    <image
       id="image2210"
       height="8"
       width="8"
       sodipodi:absref="/home/hbons/Desktop/Gaim Refresh/Tango-Palette.png"
       xlink:href="/home/hbons/Desktop/Gaim Refresh/Tango-Palette.png"
       x="-16"
       y="14" />
    <path
       sodipodi:type="arc"
       style="color:#000000;fill:#ef2929;fill-opacity:1;fill-rule:evenodd;stroke:none;stroke-width:1.36561811px;stroke-linecap:butt;stroke-linejoin:miter;marker:none;marker-start:none;marker-mid:none;marker-end:none;stroke-miterlimit:4;stroke-dasharray:none;stroke-dashoffset:0;stroke-opacity:1;visibility:visible;display:inline;overflow:visible"
       id="path1311"
       sodipodi:cx="15.590227"
       sodipodi:cy="16.57217"
       sodipodi:rx="14.345175"
       sodipodi:ry="14.345175"
       d="M 29.935402 16.57217 A 14.345175 14.345175 0 1 1  1.2450523,16.57217 A 14.345175 14.345175 0 1 1  29.935402 16.57217 z"
       transform="matrix(0.428768,0,0,0.428768,9.892003,9.386493)" />
    <path
       sodipodi:type="arc"
       style="color:#000000;fill:#ef2929;fill-opacity:1;fill-rule:evenodd;stroke:#a40000;stroke-width:2.39228702px;stroke-linecap:butt;stroke-linejoin:miter;marker:none;marker-start:none;marker-mid:none;marker-end:none;stroke-miterlimit:4;stroke-dasharray:none;stroke-dashoffset:0;stroke-opacity:1;visibility:visible;display:inline;overflow:visible"
       id="path2325"
       sodipodi:cx="15.590227"
       sodipodi:cy="16.57217"
       sodipodi:rx="14.345175"
       sodipodi:ry="14.345175"
       d="M 29.935402 16.57217 A 14.345175 14.345175 0 1 1  1.2450523,16.57217 A 14.345175 14.345175 0 1 1  29.935402 16.57217 z"
       transform="matrix(0.418007,0,0,0.418014,9.979183,9.569085)" />
    <path
       style="opacity:0.6;color:#000000;fill:url(#linearGradient2343);fill-opacity:1;fill-rule:evenodd;stroke:url(#linearGradient2345);stroke-width:0.99999946px;stroke-linecap:butt;stroke-linejoin:miter;marker:none;marker-start:none;marker-mid:none;marker-end:none;stroke-miterlimit:4;stroke-dashoffset:0;stroke-opacity:1;visibility:visible;display:inline;overflow:visible"
       d="M 21.5,16.493913 C 21.5,19.255693 19.259185,21.497138 16.498179,21.497138 C 13.737175,21.497138 11.496359,19.255693 11.496359,16.493913 C 11.496359,13.732133 13.737175,11.490689 16.498179,11.490689 C 19.259185,11.490689 21.5,13.732133 21.5,16.493913 z "
       id="path2327" />
    <path
       style="color:#000000;fill:#eeeeec;fill-opacity:1;fill-rule:evenodd;stroke:#a40000;stroke-width:0.99999982px;stroke-linecap:butt;stroke-linejoin:miter;marker:none;marker-start:none;marker-mid:none;marker-end:none;stroke-miterlimit:4;stroke-dashoffset:0;stroke-opacity:1;visibility:visible;display:inline;overflow:visible"
       d="M 20.496182,16.458239 C 20.496182,17.703608 20.024622,17.483447 16.462297,17.483447 C 12.933743,17.483447 12.495999,17.683305 12.495999,16.513032 C 12.495999,15.324498 13.508591,15.534349 16.49609,15.534349 C 19.461295,15.534349 20.496182,15.194605 20.496182,16.458239 z "
       id="path2329"
       sodipodi:nodetypes="czzzz" />
  </g>
</svg>
