<?xml version="1.0" encoding="UTF-8" standalone="no"?>
<!-- Created with Inkscape (http://www.inkscape.org/) -->
<svg
   xmlns:dc="http://purl.org/dc/elements/1.1/"
   xmlns:cc="http://web.resource.org/cc/"
   xmlns:rdf="http://www.w3.org/1999/02/22-rdf-syntax-ns#"
   xmlns:svg="http://www.w3.org/2000/svg"
   xmlns="http://www.w3.org/2000/svg"
   xmlns:xlink="http://www.w3.org/1999/xlink"
   xmlns:sodipodi="http://inkscape.sourceforge.net/DTD/s odipodi-0.dtd"
   xmlns:inkscape="http://www.inkscape.org/namespaces/inkscape"
   width="24"
   height="24"
   id="svg2"
   sodipodi:version="0.32"
   inkscape:version="0.43"
   version="1.0"
   sodipodi:docbase="/home/hbons/Desktop/Gaim Refresh/emotes"
   sodipodi:docname="musical-note.svg">
  <defs
     id="defs4">
    <linearGradient
       inkscape:collect="always"
       id="linearGradient3150">
      <stop
         style="stop-color:#2e3436;stop-opacity:1;"
         offset="0"
         id="stop3152" />
      <stop
         style="stop-color:#2e3436;stop-opacity:0;"
         offset="1"
         id="stop3154" />
    </linearGradient>
    <radialGradient
       inkscape:collect="always"
       xlink:href="#linearGradient3150"
       id="radialGradient1351"
       gradientUnits="userSpaceOnUse"
       gradientTransform="matrix(-0.842757,5.698892e-16,-4.565819e-9,-0.35721,19.80716,14.19321)"
       cx="10.748654"
       cy="10.457643"
       fx="10.748654"
       fy="10.457643"
       r="6.6449099" />
  </defs>
  <sodipodi:namedview
     id="base"
     pagecolor="#ffffff"
     bordercolor="#666666"
     borderopacity="1.0"
     inkscape:pageopacity="0.0"
     inkscape:pageshadow="2"
     inkscape:zoom="20.899939"
     inkscape:cx="18.848252"
     inkscape:cy="12.879344"
     inkscape:document-units="px"
     inkscape:current-layer="layer1"
     showgrid="true"
     fill="#3465a4"
     inkscape:window-width="1137"
     inkscape:window-height="880"
     inkscape:window-x="12"
     inkscape:window-y="42" />
  <metadata
     id="metadata7">
    <rdf:RDF>
      <cc:Work
         rdf:about="">
        <dc:format>image/svg+xml</dc:format>
        <dc:type
           rdf:resource="http://purl.org/dc/dcmitype/StillImage" />
      </cc:Work>
    </rdf:RDF>
  </metadata>
  <g
     inkscape:label="Layer 1"
     inkscape:groupmode="layer"
     id="layer1">
    <path
       sodipodi:type="arc"
       style="opacity:0.5;fill:url(#radialGradient1351);fill-opacity:1;stroke:none;stroke-width:1;stroke-miterlimit:4;stroke-dasharray:none;stroke-opacity:1"
       id="path3140"
       sodipodi:cx="10.748654"
       sodipodi:cy="10.457643"
       sodipodi:rx="6.6449099"
       sodipodi:ry="2.3675451"
       d="M 17.393564 10.457643 A 6.6449099 2.3675451 0 1 1  4.1037445,10.457643 A 6.6449099 2.3675451 0 1 1  17.393564 10.457643 z"
       transform="matrix(1.730649,0,0,1.478324,-6.102155,3.040217)" />
    <path
       style="fill:#3465a4;fill-opacity:1;stroke:#204a87;stroke-width:1;stroke-miterlimit:4;stroke-opacity:1"
       d="M 20.496648,1.6387536 L 7.4780197,3.5312501 L 7.4780197,6.5312501 L 7.4780197,7.6250001 L 7.4780197,14.84375 C 6.8929442,14.629418 6.1981274,14.5 5.4751537,14.5 C 3.9603516,14.5 2.6463278,15.051363 1.9701381,15.84375 C 1.6769592,16.197465 1.5007164,16.603716 1.5007164,17.03125 C 1.5007164,17.294348 1.5718017,17.573755 1.6884851,17.8125 C 2.2084305,18.831687 3.7021467,19.593751 5.4751537,19.59375 C 7.0415968,19.59375 8.4206414,18.993226 9.0740536,18.15625 C 9.1511621,18.054387 9.237589,17.921345 9.2931171,17.8125 C 9.4098005,17.573755 9.4808857,17.294348 9.4808858,17.03125 C 9.4808858,16.992881 9.4835514,16.943053 9.4808858,16.90625 L 9.4808858,7.4687501 L 18.493782,6.8437501 L 18.493782,12.84375 C 17.908707,12.629418 17.21389,12.5 16.490916,12.5 C 14.976114,12.5 13.66209,13.051363 12.985901,13.84375 C 12.692722,14.197465 12.516479,14.603716 12.516479,15.03125 C 12.516479,15.294348 12.587565,15.573755 12.704248,15.8125 C 13.224193,16.831687 14.717909,17.593751 16.490916,17.59375 C 18.05736,17.59375 19.436404,16.993226 20.089816,16.15625 C 20.166924,16.054387 20.253351,15.921345 20.30888,15.8125 C 20.425562,15.573755 20.496648,15.294348 20.496648,15.03125 C 20.496648,15.020288 20.496866,15.01093 20.496648,15 C 20.49556,14.945351 20.503079,14.897519 20.496648,14.84375 L 20.496648,6.6875001 L 20.496648,5.5625001 L 20.496648,1.6387536 z "
       id="rect1307"
       sodipodi:nodetypes="cccccssssssssscccssssssssscccc" />
    <path
       style="opacity:0.25;fill:#204a87;fill-opacity:1;stroke:#ffffff;stroke-width:1.00000012;stroke-miterlimit:4;stroke-opacity:1"
       d="M 19.5,2.7803505 L 8.5,4.46875 L 8.5,6.53125 C 8.5,6.53125 8.9439604,6.4975922 9.4375,6.46875 L 18.4375,5.84375 L 19.5,5.7519036 L 19.5,2.7803505 z "
       id="path2249"
       sodipodi:nodetypes="ccccccc" />
    <path
       sodipodi:type="arc"
       style="opacity:0.25;fill:#204a87;fill-opacity:1;stroke:#ffffff;stroke-width:0.72941452;stroke-miterlimit:4;stroke-dasharray:none;stroke-opacity:1"
       id="path2265"
       sodipodi:cx="-7.0346861"
       sodipodi:cy="14.100674"
       sodipodi:rx="2.6833339"
       sodipodi:ry="0.90653169"
       d="M -4.3513522 14.100674 A 2.6833339 0.90653169 0 1 1  -9.71802,14.100674 A 2.6833339 0.90653169 0 1 1  -4.3513522 14.100674 z"
       transform="matrix(1.115071,0,0,1.685578,13.34417,-6.739755)" />
    <path
       sodipodi:type="arc"
       style="opacity:0.25;fill:#204a87;fill-opacity:1;stroke:#ffffff;stroke-width:0.72941452;stroke-miterlimit:4;stroke-dasharray:none;stroke-opacity:1"
       id="path2267"
       sodipodi:cx="-7.0346861"
       sodipodi:cy="14.100674"
       sodipodi:rx="2.6833339"
       sodipodi:ry="0.90653169"
       d="M -4.3513522 14.100674 A 2.6833339 0.90653169 0 1 1  -9.71802,14.100674 A 2.6833339 0.90653169 0 1 1  -4.3513522 14.100674 z"
       transform="matrix(1.115071,0,0,1.685578,24.35207,-8.739755)" />
    <path
       style="opacity:0.25;fill:#ffffff;fill-opacity:1;stroke:none;stroke-width:1;stroke-miterlimit:4;stroke-opacity:1"
       d="M 8.0208266,7.0416533 L 9,7 L 9,17.017353 C 9,17.017353 9.0413315,16.184288 8,15.559489 L 8.0208266,7.0416533 z "
       id="rect2271"
       sodipodi:nodetypes="ccccc" />
    <path
       style="opacity:0.25;fill:#ffffff;fill-opacity:1;stroke:none;stroke-width:1;stroke-miterlimit:4;stroke-opacity:1"
       d="M 19.020603,6.3123995 L 19.999776,6.2082663 L 19.999776,14.976022 C 19.999776,14.976022 20.041108,14.184609 18.999777,13.559811 L 19.020603,6.3123995 z "
       id="path2274"
       sodipodi:nodetypes="ccccc" />
  </g>
</svg>
