<?xml version="1.0" encoding="UTF-8" standalone="no"?>
<!-- Created with Inkscape (http://www.inkscape.org/) -->
<svg
   xmlns:dc="http://purl.org/dc/elements/1.1/"
   xmlns:cc="http://web.resource.org/cc/"
   xmlns:rdf="http://www.w3.org/1999/02/22-rdf-syntax-ns#"
   xmlns:svg="http://www.w3.org/2000/svg"
   xmlns="http://www.w3.org/2000/svg"
   xmlns:xlink="http://www.w3.org/1999/xlink"
   xmlns:sodipodi="http://inkscape.sourceforge.net/DTD/s odipodi-0.dtd"
   xmlns:inkscape="http://www.inkscape.org/namespaces/inkscape"
   width="24"
   height="24"
   id="svg2"
   sodipodi:version="0.32"
   inkscape:version="0.43"
   version="1.0"
   sodipodi:docbase="/home/hbons/Desktop/Gaim Refresh/emotes/scalable"
   sodipodi:docname="face-party.svg"
   inkscape:export-filename="/home/hbons/Desktop/Gaim Refresh/emotes/face-party.png"
   inkscape:export-xdpi="90"
   inkscape:export-ydpi="90">
  <defs
     id="defs4">
    <linearGradient
       inkscape:collect="always"
       id="linearGradient3254">
      <stop
         style="stop-color:#cc0000;stop-opacity:1;"
         offset="0"
         id="stop3256" />
      <stop
         style="stop-color:#cc0000;stop-opacity:0;"
         offset="1"
         id="stop3258" />
    </linearGradient>
    <radialGradient
       inkscape:collect="always"
       xlink:href="#linearGradient3254"
       id="radialGradient3260"
       cx="7.055284"
       cy="11.57828"
       fx="7.055284"
       fy="11.57828"
       r="1.6257142"
       gradientTransform="matrix(1,0,0,0.436893,0,6.519808)"
       gradientUnits="userSpaceOnUse" />
    <linearGradient
       inkscape:collect="always"
       id="linearGradient3150">
      <stop
         style="stop-color:#2e3436;stop-opacity:1;"
         offset="0"
         id="stop3152" />
      <stop
         style="stop-color:#2e3436;stop-opacity:0;"
         offset="1"
         id="stop3154" />
    </linearGradient>
    <linearGradient
       inkscape:collect="always"
       id="linearGradient3104">
      <stop
         style="stop-color:#eeeeec;stop-opacity:1;"
         offset="0"
         id="stop3106" />
      <stop
         style="stop-color:#eeeeec;stop-opacity:0;"
         offset="1"
         id="stop3108" />
    </linearGradient>
    <radialGradient
       inkscape:collect="always"
       xlink:href="#linearGradient3104"
       id="radialGradient3114"
       cx="8.3343515"
       cy="14.186539"
       fx="8.3343515"
       fy="14.186539"
       r="9.975256"
       gradientUnits="userSpaceOnUse"
       gradientTransform="matrix(-0.9327,0.932656,-0.947494,-0.947449,33.02126,11.96667)" />
    <radialGradient
       inkscape:collect="always"
       xlink:href="#linearGradient3150"
       id="radialGradient3156"
       cx="10.748654"
       cy="10.457643"
       fx="10.748654"
       fy="10.457643"
       r="6.6449099"
       gradientTransform="matrix(-0.842757,5.698892e-16,-4.565819e-9,-0.35721,19.80716,14.19321)"
       gradientUnits="userSpaceOnUse" />
    <radialGradient
       inkscape:collect="always"
       xlink:href="#linearGradient3254"
       id="radialGradient8079"
       gradientUnits="userSpaceOnUse"
       gradientTransform="matrix(1,0,0,0.436893,2.244298e-16,6.519808)"
       cx="7.055284"
       cy="11.57828"
       fx="7.055284"
       fy="11.57828"
       r="1.6257142" />
  </defs>
  <sodipodi:namedview
     id="base"
     pagecolor="#ffffff"
     bordercolor="#666666"
     borderopacity="1.0"
     inkscape:pageopacity="0.0"
     inkscape:pageshadow="2"
     inkscape:zoom="25.730843"
     inkscape:cx="16.884031"
     inkscape:cy="14.362201"
     inkscape:document-units="px"
     inkscape:current-layer="layer1"
     showgrid="true"
     fill="#ad7fa8"
     inkscape:window-width="1268"
     inkscape:window-height="971"
     inkscape:window-x="6"
     inkscape:window-y="21"
     inkscape:grid-points="false" />
  <metadata
     id="metadata7">
    <rdf:RDF>
      <cc:Work
         rdf:about="">
        <dc:format>image/svg+xml</dc:format>
        <dc:type
           rdf:resource="http://purl.org/dc/dcmitype/StillImage" />
      </cc:Work>
    </rdf:RDF>
  </metadata>
  <g
     inkscape:label="Layer 1"
     inkscape:groupmode="layer"
     id="layer1">
    <path
       sodipodi:type="arc"
       style="opacity:0.6;fill:url(#radialGradient3156);fill-opacity:1.0;stroke:none;stroke-width:1;stroke-miterlimit:4;stroke-dasharray:none;stroke-opacity:1"
       id="path3140"
       sodipodi:cx="10.748654"
       sodipodi:cy="10.457643"
       sodipodi:rx="6.6449099"
       sodipodi:ry="2.3675451"
       d="M 17.393564 10.457643 A 6.6449099 2.3675451 0 1 1  4.1037445,10.457643 A 6.6449099 2.3675451 0 1 1  17.393564 10.457643 z"
       transform="matrix(1.504911,0,0,1.300982,-4.175772,6.474929)" />
    <path
       sodipodi:type="arc"
       style="opacity:1;fill:#edd400;fill-opacity:1;stroke:#f57900;stroke-width:1.05276573;stroke-miterlimit:4;stroke-dasharray:none;stroke-opacity:1"
       id="path1307"
       sodipodi:cx="11.806158"
       sodipodi:cy="10.983024"
       sodipodi:rx="9.975256"
       sodipodi:ry="9.975256"
       d="M 21.781414 10.983024 A 9.975256 9.975256 0 1 1  1.8309021,10.983024 A 9.975256 9.975256 0 1 1  21.781414 10.983024 z"
       transform="matrix(0.952236,0,0,0.952236,0.757713,1.541608)" />
    <path
       sodipodi:type="arc"
       style="opacity:0.79545455;fill:url(#radialGradient3114);fill-opacity:1.0;stroke:none;stroke-width:1.05274069;stroke-miterlimit:4;stroke-dasharray:none;stroke-opacity:1"
       id="path3102"
       sodipodi:cx="11.806158"
       sodipodi:cy="10.983024"
       sodipodi:rx="9.975256"
       sodipodi:ry="9.975256"
       d="M 21.781414 10.983024 A 9.975256 9.975256 0 1 1  1.8309021,10.983024 A 9.975256 9.975256 0 1 1  21.781414 10.983024 z"
       transform="matrix(0.8019,0,0,0.801938,2.532654,3.191833)" />
    <path
       sodipodi:type="arc"
       style="opacity:0.5;fill:none;fill-opacity:1.0;stroke:#ffffff;stroke-width:1.17343897;stroke-miterlimit:4;stroke-dasharray:none;stroke-opacity:1"
       id="path2184"
       sodipodi:cx="11.806158"
       sodipodi:cy="10.983024"
       sodipodi:rx="9.975256"
       sodipodi:ry="9.975256"
       d="M 21.781414 10.983024 A 9.975256 9.975256 0 1 1  1.8309021,10.983024 A 9.975256 9.975256 0 1 1  21.781414 10.983024 z"
       transform="matrix(0.852176,0,0,0.852216,1.93909,2.639626)" />
    <path
       style="fill:#ad7fa8;fill-opacity:1;fill-rule:evenodd;stroke:#5c3566;stroke-width:1;stroke-miterlimit:4;stroke-opacity:1"
       d="M 1.5038318,1.5040621 L 9.500202,2.4835529 C 9.500202,2.4835529 7.4473048,8.0802362 2.3584488,9.4907028 L 1.5038318,1.5040621 z "
       id="rect1334"
       sodipodi:nodetypes="cccc" />
    <path
       sodipodi:type="inkscape:offset"
       inkscape:radius="-1.0032781"
       inkscape:original="M 1.5 1.5 L 2.34375 9.5 C 7.432606 8.0895334 9.4999998 2.46875 9.5 2.46875 L 1.5 1.5 z "
       xlink:href="#rect1334"
       style="fill:#ad7fa8;fill-opacity:1;fill-rule:evenodd;stroke:#ffffff;stroke-width:1;stroke-miterlimit:4;stroke-opacity:1;opacity:0.5"
       id="path8081"
       inkscape:href="#rect1334"
       d="M 2.625,2.65625 L 3.1875,7.9375 C 5.9756152,6.60908 7.3106626,4.5091608 7.90625,3.28125 L 2.625,2.65625 z " />
    <path
       style="opacity:1;fill:#2e3436;fill-opacity:1;stroke:none;stroke-width:1;stroke-miterlimit:4;stroke-dasharray:none;stroke-opacity:1"
       d="M 14.641583,9.000258 C 14.679329,9.007089 14.745122,9.030186 14.781988,9.041921 C 14.83072,9.05969 14.922307,9.099265 14.969194,9.125247 C 15.56061,9.481805 15.998827,10.493797 15.998827,11.666696 C 15.998827,11.781686 16.006772,11.888833 15.998827,12 C 15.897529,11.184362 15.385047,10.540062 14.781988,10.37514 C 14.732834,10.363406 14.645467,10.338632 14.594782,10.333477 C 14.569268,10.331748 14.527013,10.333477 14.501179,10.333477 C 14.475344,10.333477 14.43309,10.331748 14.407576,10.333477 C 14.356891,10.338632 14.269524,10.363406 14.22037,10.37514 C 13.617311,10.540062 13.104829,11.184362 13.003531,12 C 12.995586,11.888833 13.003531,11.781686 13.003531,11.666696 C 13.003531,10.493797 13.441747,9.481805 14.033164,9.125247 C 14.080051,9.099265 14.171638,9.05969 14.22037,9.041921 C 14.269524,9.026274 14.356891,9.007131 14.407576,9.000258 C 14.43309,8.997952 14.475344,9.000258 14.501179,9.000258 C 14.527013,9.000258 14.569268,8.997952 14.594782,9.000258 C 14.607453,9.001976 14.629002,8.99798 14.641583,9.000258 z "
       id="path2775" />
    <path
       style="opacity:1;fill:#2e3436;fill-opacity:1;stroke:none;stroke-width:1;stroke-miterlimit:4;stroke-dasharray:none;stroke-opacity:1"
       d="M 9.6392249,9.0010249 C 9.6769709,9.0078559 9.7427639,9.0309529 9.7796299,9.0426879 C 9.8283619,9.0604569 9.9199489,9.1000319 9.9668359,9.1260139 C 10.558252,9.4825719 10.996469,10.494564 10.996469,11.667462 C 10.996469,11.782452 11.004414,11.889599 10.996469,12.000766 C 10.895171,11.185128 10.382689,10.540828 9.7796299,10.375907 C 9.7304759,10.364173 9.6431089,10.339399 9.5924239,10.334244 C 9.5669099,10.332515 9.5246549,10.334244 9.4988209,10.334244 C 9.4729859,10.334244 9.4307319,10.332515 9.4052179,10.334244 C 9.3545329,10.339399 9.2671659,10.364173 9.2180119,10.375907 C 8.6149529,10.540828 8.1024709,11.185128 8.0011729,12.000766 C 7.9932279,11.889599 8.0011729,11.782452 8.0011729,11.667462 C 8.0011729,10.494564 8.4393889,9.4825719 9.0308059,9.1260139 C 9.0776929,9.1000319 9.1692799,9.0604569 9.2180119,9.0426879 C 9.2671659,9.0270409 9.3545329,9.0078979 9.4052179,9.0010249 C 9.4307319,8.9987189 9.4729859,9.0010249 9.4988209,9.0010249 C 9.5246549,9.0010249 9.5669099,8.9987189 9.5924239,9.0010249 C 9.6050949,9.0027429 9.6266439,8.9987469 9.6392249,9.0010249 z "
       id="path2777" />
    <path
       style="opacity:1;fill:#cc0000;fill-opacity:1;stroke:#a40000;stroke-width:1.00000024;stroke-miterlimit:4;stroke-opacity:1"
       d="M 17.502944,13.527087 C 17.502944,15.892107 15.140024,17.503252 12.067027,17.503252 C 8.9940272,17.503252 6.5000001,15.891125 6.5000001,13.496751 C 8.8954736,13.496751 14.896167,13.527087 17.502944,13.527087 z "
       id="path3160"
       sodipodi:nodetypes="cscc" />
    <path
       style="fill:#eeeeec;fill-opacity:1;stroke:none;stroke-width:1;stroke-miterlimit:4;stroke-opacity:1"
       d="M 7.0137405,14 L 17,14 L 16.615267,15 L 7.4479109,15 L 7.0137405,14 z "
       id="rect1324"
       sodipodi:nodetypes="ccccc" />
    <path
       style="fill:#ef2929;fill-opacity:1;stroke:none;stroke-width:1;stroke-miterlimit:4;stroke-opacity:1"
       d="M 8.4015265,16 L 15.615267,16 C 15.615267,16 14.704206,16.587786 14.250771,16.656489 C 14.250771,16.656489 13.614227,17 12.116518,17 C 10.756145,17.002082 9.2677613,16.532825 9.2677613,16.532825 L 8.4015265,16 z "
       id="path2207"
       sodipodi:nodetypes="cccccc" />
    <path
       sodipodi:type="arc"
       style="opacity:0.6;fill:url(#radialGradient3260);fill-opacity:1.0;stroke:none;stroke-width:1;stroke-miterlimit:4;stroke-dasharray:none;stroke-opacity:1"
       id="path3240"
       sodipodi:cx="7.055284"
       sodipodi:cy="11.57828"
       sodipodi:rx="1.6257142"
       sodipodi:ry="0.71026349"
       d="M 8.6809982 11.57828 A 1.6257142 0.71026349 0 1 1  5.4295698,11.57828 A 1.6257142 0.71026349 0 1 1  8.6809982 11.57828 z"
       transform="matrix(1.845345,0,0,2.815857,3.980563,-20.60278)" />
    <path
       sodipodi:type="arc"
       style="opacity:0.6;fill:url(#radialGradient8079);fill-opacity:1;stroke:none;stroke-width:1;stroke-miterlimit:4;stroke-dasharray:none;stroke-opacity:1"
       id="path8077"
       sodipodi:cx="7.055284"
       sodipodi:cy="11.57828"
       sodipodi:rx="1.6257142"
       sodipodi:ry="0.71026349"
       d="M 8.6809982 11.57828 A 1.6257142 0.71026349 0 1 1  5.4295698,11.57828 A 1.6257142 0.71026349 0 1 1  8.6809982 11.57828 z"
       transform="matrix(1.845345,0,0,2.815857,-6.019437,-20.60278)" />
  </g>
</svg>
