<?xml version="1.0" encoding="UTF-8" standalone="no"?>
<!-- Created with Inkscape (http://www.inkscape.org/) -->
<svg
   xmlns:dc="http://purl.org/dc/elements/1.1/"
   xmlns:cc="http://web.resource.org/cc/"
   xmlns:rdf="http://www.w3.org/1999/02/22-rdf-syntax-ns#"
   xmlns:svg="http://www.w3.org/2000/svg"
   xmlns="http://www.w3.org/2000/svg"
   xmlns:xlink="http://www.w3.org/1999/xlink"
   xmlns:sodipodi="http://inkscape.sourceforge.net/DTD/s odipodi-0.dtd"
   xmlns:inkscape="http://www.inkscape.org/namespaces/inkscape"
   width="24"
   height="24"
   id="svg2"
   sodipodi:version="0.32"
   inkscape:version="0.43"
   version="1.0"
   sodipodi:docbase="/home/hbons/Desktop/Gaim Refresh/emotes/scalable"
   sodipodi:docname="peace.svg"
   inkscape:export-filename="/home/hbons/Desktop/Gaim Refresh/peace.png"
   inkscape:export-xdpi="90"
   inkscape:export-ydpi="90">
  <defs
     id="defs4">
    <linearGradient
       inkscape:collect="always"
       id="linearGradient2411">
      <stop
         style="stop-color:#ffffff;stop-opacity:1;"
         offset="0"
         id="stop2413" />
      <stop
         style="stop-color:#ffffff;stop-opacity:0;"
         offset="1"
         id="stop2415" />
    </linearGradient>
    <linearGradient
       inkscape:collect="always"
       id="linearGradient3150">
      <stop
         style="stop-color:#2e3436;stop-opacity:1;"
         offset="0"
         id="stop3152" />
      <stop
         style="stop-color:#2e3436;stop-opacity:0;"
         offset="1"
         id="stop3154" />
    </linearGradient>
    <radialGradient
       inkscape:collect="always"
       xlink:href="#linearGradient3150"
       id="radialGradient3156"
       cx="10.748654"
       cy="10.457643"
       fx="10.748654"
       fy="10.457643"
       r="6.6449099"
       gradientTransform="matrix(-0.842757,5.698892e-16,-4.565819e-9,-0.35721,19.80716,14.19321)"
       gradientUnits="userSpaceOnUse" />
    <linearGradient
       inkscape:collect="always"
       xlink:href="#linearGradient2411"
       id="linearGradient6287"
       x1="12.372425"
       y1="-3.3435202"
       x2="12.372425"
       y2="19.17733"
       gradientUnits="userSpaceOnUse" />
  </defs>
  <sodipodi:namedview
     id="base"
     pagecolor="#ffffff"
     bordercolor="#666666"
     borderopacity="1.0"
     inkscape:pageopacity="0.0"
     inkscape:pageshadow="2"
     inkscape:zoom="27.577635"
     inkscape:cx="19.57416"
     inkscape:cy="14.348641"
     inkscape:document-units="px"
     inkscape:current-layer="layer1"
     showgrid="true"
     fill="#f57900"
     inkscape:window-width="1268"
     inkscape:window-height="971"
     inkscape:window-x="6"
     inkscape:window-y="21" />
  <metadata
     id="metadata7">
    <rdf:RDF>
      <cc:Work
         rdf:about="">
        <dc:format>image/svg+xml</dc:format>
        <dc:type
           rdf:resource="http://purl.org/dc/dcmitype/StillImage" />
      </cc:Work>
    </rdf:RDF>
  </metadata>
  <g
     inkscape:label="Layer 1"
     inkscape:groupmode="layer"
     id="layer1">
    <path
       sodipodi:type="arc"
       style="opacity:0.6;fill:url(#radialGradient3156);fill-opacity:1.0;stroke:none;stroke-width:1;stroke-miterlimit:4;stroke-dasharray:none;stroke-opacity:1"
       id="path3140"
       sodipodi:cx="10.748654"
       sodipodi:cy="10.457643"
       sodipodi:rx="6.6449099"
       sodipodi:ry="2.3675451"
       d="M 17.393564 10.457643 A 6.6449099 2.3675451 0 1 1  4.1037445,10.457643 A 6.6449099 2.3675451 0 1 1  17.393564 10.457643 z"
       transform="matrix(1.504911,0,0,1.300982,-4.175772,6.474929)" />
    <path
       style="opacity:1;fill:#f57900;fill-opacity:1;stroke:none;stroke-width:1.05276573;stroke-miterlimit:4;stroke-dasharray:none;stroke-opacity:1"
       d="M 11.125,2.5 C 7.0037374,2.7975382 3.3865102,6.1284581 2.6716487,10.184881 C 1.9453139,13.724405 3.4646719,17.585713 6.409321,19.679569 C 9.4981122,21.997419 14.01784,22.105633 17.214887,19.940151 C 20.278661,17.974576 21.987723,14.147253 21.390458,10.554022 C 20.852001,6.7144817 17.720044,3.425067 13.913614,2.6931444 C 12.997332,2.4928408 12.058156,2.4875659 11.125,2.5 z M 10.5,4.625 C 10.494048,6.6785714 10.488096,8.7321428 10.482143,10.785714 C 8.7619052,12.327381 7.041667,13.869047 5.3214288,15.410714 C 4.3331829,13.932775 4.3778155,12.030071 4.6820336,10.348809 C 5.2914181,7.5161389 7.651604,5.1792353 10.5,4.625 z M 13.5,4.65625 C 16.840712,5.285378 19.483069,8.4253733 19.498114,11.830645 C 19.51811,13.101016 19.605438,14.499508 18.767857,15.558036 C 17.011905,13.988095 15.255952,12.418155 13.5,10.848214 C 13.5,8.7842261 13.5,6.720238 13.5,4.65625 z M 10.5,14.1875 C 10.5,15.90625 10.5,17.625 10.5,19.34375 C 9.1571379,19.07187 7.9049998,18.403116 6.90625,17.46875 C 8.1041667,16.375 9.3020833,15.28125 10.5,14.1875 z M 13.522321,14.290179 C 14.63988,15.42262 15.75744,16.55506 16.875,17.6875 C 15.912926,18.511173 14.741635,19.090603 13.5,19.34375 C 13.50744,17.659226 13.51488,15.974703 13.522321,14.290179 z "
       id="path1536" />
    <path
       style="opacity:1;fill:url(#linearGradient6287);fill-opacity:1.0;stroke:#ce5c00;stroke-width:1.05276573;stroke-miterlimit:4;stroke-dasharray:none;stroke-opacity:1"
       d="M 11.125,2.5 C 7.0037374,2.7975382 3.3865102,6.1284581 2.6716487,10.184881 C 1.9453139,13.724405 3.4646719,17.585713 6.409321,19.679569 C 9.4981122,21.997419 14.01784,22.105633 17.214887,19.940151 C 20.278661,17.974576 21.987723,14.147253 21.390458,10.554022 C 20.852001,6.7144817 17.720044,3.425067 13.913614,2.6931444 C 12.997332,2.4928408 12.058156,2.4875659 11.125,2.5 z M 10.5,4.625 C 10.494048,6.6785714 10.488096,8.7321428 10.482143,10.785714 C 8.7619052,12.327381 7.2954959,13.905308 5.5752577,15.446975 C 4.5870118,13.969036 4.3778155,12.030071 4.6820336,10.348809 C 5.2914181,7.5161389 8.5164186,4.625 10.5,4.625 z M 13.5,4.65625 C 15.644712,4.65625 19.483069,8.4253733 19.498114,11.830645 C 19.51811,13.101016 19.351609,14.499508 18.514028,15.558036 C 16.758076,13.988095 15.255952,12.418155 13.5,10.848214 C 13.5,8.7842261 13.5,6.720238 13.5,4.65625 z M 10.5,14.1875 C 10.5,15.90625 10.5,17.625 10.5,19.34375 C 9.1571379,19.07187 7.9049998,18.403116 6.90625,17.46875 C 8.1041667,16.375 9.3020833,15.28125 10.5,14.1875 z M 13.522321,14.290179 C 14.63988,15.42262 16.011269,16.337492 17.128829,17.469932 C 16.166755,18.293605 14.741635,19.090603 13.5,19.34375 C 13.50744,17.659226 13.51488,15.974703 13.522321,14.290179 z "
       id="path1307"
       sodipodi:nodetypes="ccccccccccccccccccccccccc" />
  </g>
</svg>
