<?xml version="1.0" encoding="UTF-8" standalone="no"?>
<!-- Created with Inkscape (http://www.inkscape.org/) -->
<svg
   xmlns:dc="http://purl.org/dc/elements/1.1/"
   xmlns:cc="http://web.resource.org/cc/"
   xmlns:rdf="http://www.w3.org/1999/02/22-rdf-syntax-ns#"
   xmlns:svg="http://www.w3.org/2000/svg"
   xmlns="http://www.w3.org/2000/svg"
   xmlns:xlink="http://www.w3.org/1999/xlink"
   xmlns:sodipodi="http://sodipodi.sourceforge.net/DTD/sodipodi-0.dtd"
   xmlns:inkscape="http://www.inkscape.org/namespaces/inkscape"
   width="24"
   height="24"
   id="svg2"
   sodipodi:version="0.32"
   inkscape:version="0.44.1"
   version="1.0"
   sodipodi:docbase="/home/hbons/GUI/Tango/Gaim Refresh/emotes/22/scalable"
   sodipodi:docname="rotfl.svg"
   inkscape:export-filename="/home/hbons/GUI/Tango/Gaim Refresh/emotes/22/rotfl.png"
   inkscape:export-xdpi="90"
   inkscape:export-ydpi="90">
  <defs
     id="defs4">
    <linearGradient
       inkscape:collect="always"
       id="linearGradient2192">
      <stop
         style="stop-color:#cc0000;stop-opacity:1;"
         offset="0"
         id="stop2194" />
      <stop
         style="stop-color:#cc0000;stop-opacity:0;"
         offset="1"
         id="stop2196" />
    </linearGradient>
    <linearGradient
       inkscape:collect="always"
       id="linearGradient3150">
      <stop
         style="stop-color:#2e3436;stop-opacity:1;"
         offset="0"
         id="stop3152" />
      <stop
         style="stop-color:#2e3436;stop-opacity:0;"
         offset="1"
         id="stop3154" />
    </linearGradient>
    <linearGradient
       inkscape:collect="always"
       id="linearGradient3104">
      <stop
         style="stop-color:#eeeeec;stop-opacity:1;"
         offset="0"
         id="stop3106" />
      <stop
         style="stop-color:#eeeeec;stop-opacity:0;"
         offset="1"
         id="stop3108" />
    </linearGradient>
    <radialGradient
       inkscape:collect="always"
       xlink:href="#linearGradient3104"
       id="radialGradient3114"
       cx="8.3343515"
       cy="14.186539"
       fx="8.3343515"
       fy="14.186539"
       r="9.975256"
       gradientUnits="userSpaceOnUse"
       gradientTransform="matrix(-0.9327,0.932656,-0.947494,-0.947449,33.02126,11.96667)" />
    <radialGradient
       inkscape:collect="always"
       xlink:href="#linearGradient3150"
       id="radialGradient3156"
       cx="10.748654"
       cy="10.457643"
       fx="10.748654"
       fy="10.457643"
       r="6.6449099"
       gradientTransform="matrix(-0.842757,5.698892e-16,-4.565819e-9,-0.35721,19.80716,14.19321)"
       gradientUnits="userSpaceOnUse" />
    <linearGradient
       inkscape:collect="always"
       xlink:href="#linearGradient2192"
       id="linearGradient2198"
       x1="12.13016"
       y1="15.102485"
       x2="12.13016"
       y2="19.816549"
       gradientUnits="userSpaceOnUse" />
    <linearGradient
       inkscape:collect="always"
       xlink:href="#linearGradient2192"
       id="linearGradient2211"
       gradientUnits="userSpaceOnUse"
       x1="12.13016"
       y1="15.102485"
       x2="12.13016"
       y2="19.816549" />
    <radialGradient
       gradientUnits="userSpaceOnUse"
       gradientTransform="matrix(1.031727,-3.469361e-16,2.206895e-16,0.405482,-0.39556,7.851964)"
       r="3.8738739"
       fy="13.207286"
       fx="12.467445"
       cy="13.207286"
       cx="12.467445"
       id="radialGradient2433"
       xlink:href="#linearGradient2427"
       inkscape:collect="always" />
    <radialGradient
       gradientUnits="userSpaceOnUse"
       gradientTransform="matrix(-0.842757,5.698892e-16,-4.565819e-9,-0.35721,19.80716,14.19321)"
       r="6.6449099"
       fy="10.457643"
       fx="10.748654"
       cy="10.457643"
       cx="10.748654"
       id="radialGradient4280"
       xlink:href="#linearGradient3150"
       inkscape:collect="always" />
    <radialGradient
       gradientTransform="matrix(-0.9327,0.932656,-0.947494,-0.947449,33.02126,11.96667)"
       gradientUnits="userSpaceOnUse"
       r="9.975256"
       fy="14.186539"
       fx="8.3343515"
       cy="14.186539"
       cx="8.3343515"
       id="radialGradient4278"
       xlink:href="#linearGradient3104"
       inkscape:collect="always" />
    <linearGradient
       id="linearGradient2427"
       inkscape:collect="always">
      <stop
         id="stop2429"
         offset="0"
         style="stop-color:#ef2929;stop-opacity:1;" />
      <stop
         id="stop2431"
         offset="1"
         style="stop-color:#ef2929;stop-opacity:0;" />
    </linearGradient>
    <radialGradient
       inkscape:collect="always"
       xlink:href="#linearGradient3150"
       id="radialGradient4297"
       gradientUnits="userSpaceOnUse"
       gradientTransform="matrix(-0.842757,0,0,-0.35721,19.80716,14.19321)"
       cx="10.748654"
       cy="10.457643"
       fx="10.748654"
       fy="10.457643"
       r="6.6449099" />
    <radialGradient
       inkscape:collect="always"
       xlink:href="#linearGradient3104"
       id="radialGradient4299"
       gradientUnits="userSpaceOnUse"
       gradientTransform="matrix(-0.9327,0.932656,-0.947494,-0.947449,33.02126,11.96667)"
       cx="8.3343515"
       cy="14.186539"
       fx="8.3343515"
       fy="14.186539"
       r="9.975256" />
    <radialGradient
       gradientUnits="userSpaceOnUse"
       gradientTransform="matrix(-0.842757,5.698892e-16,-4.565819e-9,-0.35721,19.80716,14.19321)"
       r="6.6449099"
       fy="10.457643"
       fx="10.748654"
       cy="10.457643"
       cx="10.748654"
       id="radialGradient4347"
       xlink:href="#linearGradient3150"
       inkscape:collect="always" />
    <radialGradient
       gradientTransform="matrix(-0.9327,0.932656,-0.947494,-0.947449,33.02126,11.96667)"
       gradientUnits="userSpaceOnUse"
       r="9.975256"
       fy="14.186539"
       fx="8.3343515"
       cy="14.186539"
       cx="8.3343515"
       id="radialGradient4345"
       xlink:href="#linearGradient3104"
       inkscape:collect="always" />
    <radialGradient
       inkscape:collect="always"
       xlink:href="#linearGradient3150"
       id="radialGradient4366"
       gradientUnits="userSpaceOnUse"
       gradientTransform="matrix(-0.842757,0,0,-0.35721,19.80716,14.19321)"
       cx="10.748654"
       cy="10.457643"
       fx="10.748654"
       fy="10.457643"
       r="6.6449099" />
    <radialGradient
       inkscape:collect="always"
       xlink:href="#linearGradient3104"
       id="radialGradient4368"
       gradientUnits="userSpaceOnUse"
       gradientTransform="matrix(-0.9327,0.932656,-0.947494,-0.947449,33.02126,11.96667)"
       cx="8.3343515"
       cy="14.186539"
       fx="8.3343515"
       fy="14.186539"
       r="9.975256" />
    <radialGradient
       inkscape:collect="always"
       xlink:href="#linearGradient3104"
       id="radialGradient4370"
       gradientUnits="userSpaceOnUse"
       gradientTransform="matrix(-0.9327,0.932656,-0.947494,-0.947449,33.02126,11.96667)"
       cx="8.3343515"
       cy="14.186539"
       fx="8.3343515"
       fy="14.186539"
       r="9.975256" />
    <radialGradient
       gradientUnits="userSpaceOnUse"
       gradientTransform="matrix(-0.842757,5.698892e-16,-4.565819e-9,-0.35721,19.80716,14.19321)"
       r="6.6449099"
       fy="10.457643"
       fx="10.748654"
       cy="10.457643"
       cx="10.748654"
       id="radialGradient4294"
       xlink:href="#linearGradient3150"
       inkscape:collect="always" />
    <radialGradient
       gradientTransform="matrix(-0.9327,0.932656,-0.947494,-0.947449,33.02126,11.96667)"
       gradientUnits="userSpaceOnUse"
       r="9.975256"
       fy="14.186539"
       fx="8.3343515"
       cy="14.186539"
       cx="8.3343515"
       id="radialGradient4292"
       xlink:href="#linearGradient3104"
       inkscape:collect="always" />
    <radialGradient
       inkscape:collect="always"
       xlink:href="#linearGradient3150"
       id="radialGradient4313"
       gradientUnits="userSpaceOnUse"
       gradientTransform="matrix(-0.842757,0,0,-0.35721,19.80716,14.19321)"
       cx="10.748654"
       cy="10.457643"
       fx="10.748654"
       fy="10.457643"
       r="6.6449099" />
    <radialGradient
       inkscape:collect="always"
       xlink:href="#linearGradient3104"
       id="radialGradient4315"
       gradientUnits="userSpaceOnUse"
       gradientTransform="matrix(-0.9327,0.932656,-0.947494,-0.947449,33.02126,11.96667)"
       cx="8.3343515"
       cy="14.186539"
       fx="8.3343515"
       fy="14.186539"
       r="9.975256" />
    <radialGradient
       gradientUnits="userSpaceOnUse"
       gradientTransform="matrix(-0.842757,5.698892e-16,-4.565819e-9,-0.35721,19.80716,14.19321)"
       r="6.6449099"
       fy="10.457643"
       fx="10.748654"
       cy="10.457643"
       cx="10.748654"
       id="radialGradient4371"
       xlink:href="#linearGradient3150"
       inkscape:collect="always" />
    <radialGradient
       gradientTransform="matrix(-0.9327,0.932656,-0.947494,-0.947449,33.02126,11.96667)"
       gradientUnits="userSpaceOnUse"
       r="9.975256"
       fy="11.471028"
       fx="11.092934"
       cy="11.471028"
       cx="11.092934"
       id="radialGradient4369"
       xlink:href="#linearGradient3104"
       inkscape:collect="always" />
    <radialGradient
       inkscape:collect="always"
       xlink:href="#linearGradient3150"
       id="radialGradient4392"
       gradientUnits="userSpaceOnUse"
       gradientTransform="matrix(-0.842757,0,0,-0.35721,19.80716,14.19321)"
       cx="10.748654"
       cy="10.457643"
       fx="10.748654"
       fy="10.457643"
       r="6.6449099" />
    <radialGradient
       inkscape:collect="always"
       xlink:href="#linearGradient3104"
       id="radialGradient4394"
       gradientUnits="userSpaceOnUse"
       gradientTransform="matrix(-0.9327,0.932656,-0.947494,-0.947449,33.02126,11.96667)"
       cx="8.3343515"
       cy="14.186539"
       fx="8.3343515"
       fy="14.186539"
       r="9.975256" />
  </defs>
  <sodipodi:namedview
     id="base"
     pagecolor="#ffffff"
     bordercolor="#666666"
     borderopacity="1.0"
     inkscape:pageopacity="0.0"
     inkscape:pageshadow="2"
     inkscape:zoom="18.194454"
     inkscape:cx="21.120207"
     inkscape:cy="18.588273"
     inkscape:document-units="px"
     inkscape:current-layer="layer1"
     showgrid="true"
     fill="#ef2929"
     inkscape:window-width="1268"
     inkscape:window-height="971"
     inkscape:window-x="6"
     inkscape:window-y="25" />
  <metadata
     id="metadata7">
    <rdf:RDF>
      <cc:Work
         rdf:about="">
        <dc:format>image/svg+xml</dc:format>
        <dc:type
           rdf:resource="http://purl.org/dc/dcmitype/StillImage" />
      </cc:Work>
    </rdf:RDF>
  </metadata>
  <g
     inkscape:label="Layer 1"
     inkscape:groupmode="layer"
     id="layer1">
    <path
       sodipodi:type="arc"
       style="opacity:0.6;fill:url(#radialGradient3156);fill-opacity:1.0;stroke:none;stroke-width:1;stroke-miterlimit:4;stroke-dasharray:none;stroke-opacity:1"
       id="path3140"
       sodipodi:cx="10.748654"
       sodipodi:cy="10.457643"
       sodipodi:rx="6.6449099"
       sodipodi:ry="2.3675451"
       d="M 17.393564 10.457643 A 6.6449099 2.3675451 0 1 1  4.1037445,10.457643 A 6.6449099 2.3675451 0 1 1  17.393564 10.457643 z"
       transform="matrix(1.504911,0,0,1.300982,-4.175772,6.474929)" />
    <path
       sodipodi:type="arc"
       style="opacity:1;fill:#edd400;fill-opacity:1;stroke:#f57900;stroke-width:1.05276573;stroke-miterlimit:4;stroke-dasharray:none;stroke-opacity:1"
       id="path1307"
       sodipodi:cx="11.806158"
       sodipodi:cy="10.983024"
       sodipodi:rx="9.975256"
       sodipodi:ry="9.975256"
       d="M 21.781414 10.983024 A 9.975256 9.975256 0 1 1  1.8309021,10.983024 A 9.975256 9.975256 0 1 1  21.781414 10.983024 z"
       transform="matrix(0.952236,0,0,0.952236,0.757713,1.541608)" />
    <path
       sodipodi:type="arc"
       style="opacity:0.79545455;fill:url(#radialGradient3114);fill-opacity:1.0;stroke:none;stroke-width:1.05274069;stroke-miterlimit:4;stroke-dasharray:none;stroke-opacity:1"
       id="path3102"
       sodipodi:cx="11.806158"
       sodipodi:cy="10.983024"
       sodipodi:rx="9.975256"
       sodipodi:ry="9.975256"
       d="M 21.781414 10.983024 A 9.975256 9.975256 0 1 1  1.8309021,10.983024 A 9.975256 9.975256 0 1 1  21.781414 10.983024 z"
       transform="matrix(0.8019,0,0,0.801938,2.532654,3.191833)" />
    <path
       style="opacity:1;fill:#c00;fill-opacity:1;stroke:#a40000;stroke-width:0.61382484;stroke-miterlimit:4;stroke-opacity:1"
       d="M 17.502944,13.527087 C 17.502944,15.892107 16.396026,17.503252 12.067027,17.503252 C 8.2483655,17.503252 6.5000001,15.748283 6.5000001,13.496751 C 8.8954736,13.496751 14.896167,13.527087 17.502944,13.527087 z "
       id="path3160"
       sodipodi:nodetypes="cscc"
       transform="matrix(1.181502,0,0,2.246346,-2.179761,-20.81838)" />
    <path
       style="fill:#eeeeec;fill-opacity:1;stroke:none;stroke-width:1;stroke-miterlimit:4;stroke-opacity:1"
       d="M 7.0137405,14 L 17,14 L 16.84396,15 L 7.219218,15 L 7.0137405,14 z "
       id="rect1324"
       sodipodi:nodetypes="ccccc"
       transform="matrix(1.201651,0,0,2.249998,-2.428075,-21.43746)" />
    <path
       sodipodi:type="arc"
       style="opacity:0.5;fill:none;fill-opacity:1.0;stroke:#ffffff;stroke-width:1.17343897;stroke-miterlimit:4;stroke-dasharray:none;stroke-opacity:1"
       id="path2184"
       sodipodi:cx="11.806158"
       sodipodi:cy="10.983024"
       sodipodi:rx="9.975256"
       sodipodi:ry="9.975256"
       d="M 21.781414 10.983024 A 9.975256 9.975256 0 1 1  1.8309021,10.983024 A 9.975256 9.975256 0 1 1  21.781414 10.983024 z"
       transform="matrix(0.852176,0,0,0.852216,1.93909,2.639626)" />
    <path
       style="fill:#ef2929;fill-opacity:1;stroke:none;stroke-width:1;stroke-miterlimit:4;stroke-opacity:1"
       d="M 8.1856395,16 C 8.1856395,16 12.07472,15.322133 15.960686,16 C 15.088059,16.698228 14.146334,17.036641 11.900631,17.036641 C 10.343848,17.036641 8.3808048,16.309056 8.1856395,16 z "
       id="path2207"
       sodipodi:nodetypes="cccc"
       transform="matrix(1.27293,0,0,2.999971,-3.277671,-32.99953)" />
    <path
       sodipodi:type="arc"
       style="opacity:0.79545456;fill:url(#radialGradient4370);fill-opacity:1;stroke:none;stroke-width:1.05274069;stroke-miterlimit:4;stroke-dasharray:none;stroke-opacity:1"
       id="path4289"
       sodipodi:cx="11.806158"
       sodipodi:cy="10.983024"
       sodipodi:rx="9.975256"
       sodipodi:ry="9.975256"
       d="M 21.781414 10.983024 A 9.975256 9.975256 0 1 1  1.8309021,10.983024 A 9.975256 9.975256 0 1 1  21.781414 10.983024 z"
       transform="matrix(0.8019,0,0,0.801938,45.53196,-10.80663)" />
    <path
       sodipodi:type="arc"
       style="opacity:0.5;fill:none;fill-opacity:1;stroke:white;stroke-width:1.17343903;stroke-miterlimit:4;stroke-dasharray:none;stroke-opacity:1"
       id="path4291"
       sodipodi:cx="11.806158"
       sodipodi:cy="10.983024"
       sodipodi:rx="9.975256"
       sodipodi:ry="9.975256"
       d="M 21.781414 10.983024 A 9.975256 9.975256 0 1 1  1.8309021,10.983024 A 9.975256 9.975256 0 1 1  21.781414 10.983024 z"
       transform="matrix(0.852176,0,0,0.852216,44.9384,-11.35884)" />
    <path
       style="fill:#2e3436;fill-opacity:1;stroke:none;stroke-width:1;stroke-miterlimit:4;stroke-dasharray:none;stroke-opacity:1"
       d="M 14.641583,9.000258 C 14.679329,9.007089 14.745122,9.030186 14.781988,9.041921 C 14.83072,9.05969 14.922307,9.099265 14.969194,9.125247 C 15.56061,9.481805 15.998827,10.493797 15.998827,11.666696 C 15.998827,11.781686 16.006772,11.888833 15.998827,12 C 15.897529,11.184362 15.385047,10.540062 14.781988,10.37514 C 14.732834,10.363406 14.645467,10.338632 14.594782,10.333477 C 14.569268,10.331748 14.527013,10.333477 14.501179,10.333477 C 14.475344,10.333477 14.43309,10.331748 14.407576,10.333477 C 14.356891,10.338632 14.269524,10.363406 14.22037,10.37514 C 13.617311,10.540062 13.104829,11.184362 13.003531,12 C 12.995586,11.888833 13.003531,11.781686 13.003531,11.666696 C 13.003531,10.493797 13.441747,9.481805 14.033164,9.125247 C 14.080051,9.099265 14.171638,9.05969 14.22037,9.041921 C 14.269524,9.026274 14.356891,9.007131 14.407576,9.000258 C 14.43309,8.997952 14.475344,9.000258 14.501179,9.000258 C 14.527013,9.000258 14.569268,8.997952 14.594782,9.000258 C 14.607453,9.001976 14.629002,8.99798 14.641583,9.000258 z "
       id="path4294"
       transform="translate(1.113333e-7,-4)" />
    <path
       style="fill:#2e3436;fill-opacity:1;stroke:none;stroke-width:1;stroke-miterlimit:4;stroke-dasharray:none;stroke-opacity:1"
       d="M 9.3584164,9.000258 C 9.3206704,9.007089 9.2548774,9.030186 9.2180114,9.041921 C 9.1692794,9.05969 9.0776924,9.099265 9.0308054,9.125247 C 8.4393894,9.481805 8.0011724,10.493797 8.0011724,11.666696 C 8.0011724,11.781686 7.9932274,11.888833 8.0011724,12 C 8.1024704,11.184362 8.6149524,10.540062 9.2180114,10.37514 C 9.2671654,10.363406 9.3545324,10.338632 9.4052174,10.333477 C 9.4307314,10.331748 9.4729864,10.333477 9.4988204,10.333477 C 9.5246554,10.333477 9.5669094,10.331748 9.5924234,10.333477 C 9.6431084,10.338632 9.7304754,10.363406 9.7796294,10.37514 C 10.382688,10.540062 10.895171,11.184362 10.996469,12 C 11.004414,11.888833 10.996469,11.781686 10.996469,11.666696 C 10.996469,10.493797 10.558253,9.481805 9.9668354,9.125247 C 9.9199484,9.099265 9.8283614,9.05969 9.7796294,9.041921 C 9.7304754,9.026274 9.6431084,9.007131 9.5924234,9.000258 C 9.5669094,8.997952 9.5246554,9.000258 9.4988204,9.000258 C 9.4729864,9.000258 9.4307314,8.997952 9.4052174,9.000258 C 9.3925464,9.001976 9.3709974,8.99798 9.3584164,9.000258 z "
       id="path2423"
       transform="translate(2.358711e-3,-4)" />
    <path
       sodipodi:type="arc"
       style="fill:#edd400;fill-opacity:1;stroke:#f57900;stroke-width:4.72525024;stroke-miterlimit:4;stroke-dasharray:none;stroke-opacity:1"
       id="path4407"
       sodipodi:cx="11.806158"
       sodipodi:cy="10.983024"
       sodipodi:rx="9.975256"
       sodipodi:ry="9.975256"
       d="M 21.781414 10.983024 A 9.975256 9.975256 0 1 1  1.8309021,10.983024 A 9.975256 9.975256 0 1 1  21.781414 10.983024 z"
       transform="matrix(-0.299391,0,0,0.150338,23.04691,18.34974)" />
    <path
       sodipodi:type="arc"
       style="opacity:0.5;fill:none;fill-opacity:1;stroke:white;stroke-width:9.93023205;stroke-miterlimit:4;stroke-dasharray:none;stroke-opacity:1"
       id="path4409"
       sodipodi:cx="11.806158"
       sodipodi:cy="10.983024"
       sodipodi:rx="9.975256"
       sodipodi:ry="9.975256"
       d="M 21.781414 10.983024 A 9.975256 9.975256 0 1 1  1.8309021,10.983024 A 9.975256 9.975256 0 1 1  21.781414 10.983024 z"
       transform="matrix(-0.197857,0,0,5.125458e-2,21.84819,19.4267)" />
    <path
       sodipodi:type="arc"
       style="fill:#edd400;fill-opacity:1;stroke:#f57900;stroke-width:4.00226641;stroke-miterlimit:4;stroke-dasharray:none;stroke-opacity:1"
       id="path4411"
       sodipodi:cx="11.806158"
       sodipodi:cy="10.983024"
       sodipodi:rx="9.975256"
       sodipodi:ry="9.975256"
       d="M 21.781414 10.983024 A 9.975256 9.975256 0 1 1  1.8309021,10.983024 A 9.975256 9.975256 0 1 1  21.781414 10.983024 z"
       transform="matrix(-0.250479,0,0,0.25048,7.9572,2.248973)" />
    <path
       sodipodi:type="arc"
       style="opacity:0.5;fill:none;fill-opacity:1;stroke:white;stroke-width:6.65018988;stroke-miterlimit:4;stroke-dasharray:none;stroke-opacity:1"
       id="path4413"
       sodipodi:cx="11.806158"
       sodipodi:cy="10.983024"
       sodipodi:rx="9.975256"
       sodipodi:ry="9.975256"
       d="M 21.781414 10.983024 A 9.975256 9.975256 0 1 1  1.8309021,10.983024 A 9.975256 9.975256 0 1 1  21.781414 10.983024 z"
       transform="matrix(-0.150372,0,0,0.150372,6.775314,3.348461)" />
  </g>
</svg>
