<?xml version="1.0" encoding="UTF-8" standalone="no"?>
<!-- Created with Inkscape (http://www.inkscape.org/) -->
<svg
   xmlns:dc="http://purl.org/dc/elements/1.1/"
   xmlns:cc="http://creativecommons.org/ns#"
   xmlns:rdf="http://www.w3.org/1999/02/22-rdf-syntax-ns#"
   xmlns:svg="http://www.w3.org/2000/svg"
   xmlns="http://www.w3.org/2000/svg"
   xmlns:xlink="http://www.w3.org/1999/xlink"
   xmlns:sodipodi="http://sodipodi.sourceforge.net/DTD/sodipodi-0.dtd"
   xmlns:inkscape="http://www.inkscape.org/namespaces/inkscape"
   width="24"
   height="24"
   id="svg4345"
   sodipodi:version="0.32"
   inkscape:version="0.46"
   sodipodi:docbase="/home/hbons/Desktop/Pidgin/2.1.0/icons/24/scalable"
   sodipodi:docname="pidgin.svg"
   inkscape:export-filename="/home/hbons/Bureaublad/pidgin.png"
   inkscape:export-xdpi="90"
   inkscape:export-ydpi="90"
   version="1.0"
   inkscape:output_extension="org.inkscape.output.svg.inkscape">
  <defs
     id="defs4347">
    <linearGradient
       id="linearGradient8989"
       inkscape:collect="always">
      <stop
         id="stop8991"
         offset="0"
         style="stop-color:#ffffff;stop-opacity:0.81407034" />
      <stop
         id="stop8993"
         offset="1"
         style="stop-color:#eeeeec;stop-opacity:0;" />
    </linearGradient>
    <linearGradient
       inkscape:collect="always"
       id="linearGradient8838">
      <stop
         style="stop-color:#3b1941;stop-opacity:1;"
         offset="0"
         id="stop8840" />
      <stop
         style="stop-color:#3b1941;stop-opacity:0;"
         offset="1"
         id="stop8842" />
    </linearGradient>
    <linearGradient
       inkscape:collect="always"
       id="linearGradient8830">
      <stop
         style="stop-color:#3b1941;stop-opacity:1;"
         offset="0"
         id="stop8832" />
      <stop
         style="stop-color:#3b1941;stop-opacity:0;"
         offset="1"
         id="stop8834" />
    </linearGradient>
    <linearGradient
       inkscape:collect="always"
       id="linearGradient8776">
      <stop
         style="stop-color:#ffffff;stop-opacity:0.82412058"
         offset="0"
         id="stop8778" />
      <stop
         style="stop-color:#ffffff;stop-opacity:0"
         offset="1"
         id="stop8780" />
    </linearGradient>
    <linearGradient
       inkscape:collect="always"
       id="linearGradient8720">
      <stop
         style="stop-color:#fdc26a;stop-opacity:1"
         offset="0"
         id="stop8722" />
      <stop
         style="stop-color:#f57900;stop-opacity:1"
         offset="1"
         id="stop8724" />
    </linearGradient>
    <inkscape:perspective
       sodipodi:type="inkscape:persp3d"
       inkscape:vp_x="0 : 12 : 1"
       inkscape:vp_y="0 : 1000 : 0"
       inkscape:vp_z="24 : 12 : 1"
       inkscape:persp3d-origin="12 : 8 : 1"
       id="perspective97" />
    <linearGradient
       inkscape:collect="always"
       id="linearGradient3124">
      <stop
         style="stop-color:#3b1941;stop-opacity:1;"
         offset="0"
         id="stop3126" />
      <stop
         style="stop-color:#3b1941;stop-opacity:0;"
         offset="1"
         id="stop3128" />
    </linearGradient>
    <linearGradient
       inkscape:collect="always"
       id="linearGradient3116">
      <stop
         style="stop-color:#82508e;stop-opacity:1;"
         offset="0"
         id="stop3118" />
      <stop
         style="stop-color:#82508e;stop-opacity:0"
         offset="1"
         id="stop3120" />
    </linearGradient>
    <linearGradient
       inkscape:collect="always"
       id="linearGradient5438">
      <stop
         style="stop-color:white;stop-opacity:1;"
         offset="0"
         id="stop5440" />
      <stop
         style="stop-color:white;stop-opacity:0;"
         offset="1"
         id="stop5442" />
    </linearGradient>
    <linearGradient
       inkscape:collect="always"
       id="linearGradient6817">
      <stop
         style="stop-color:white;stop-opacity:1;"
         offset="0"
         id="stop6819" />
      <stop
         style="stop-color:white;stop-opacity:0;"
         offset="1"
         id="stop6821" />
    </linearGradient>
    <linearGradient
       inkscape:collect="always"
       id="linearGradient6537">
      <stop
         style="stop-color:white;stop-opacity:1;"
         offset="0"
         id="stop6539" />
      <stop
         style="stop-color:white;stop-opacity:0;"
         offset="1"
         id="stop6541" />
    </linearGradient>
    <linearGradient
       inkscape:collect="always"
       id="linearGradient6506">
      <stop
         style="stop-color:#eeeeec;stop-opacity:1;"
         offset="0"
         id="stop6508" />
      <stop
         style="stop-color:#eeeeec;stop-opacity:0;"
         offset="1"
         id="stop6510" />
    </linearGradient>
    <linearGradient
       id="linearGradient2804">
      <stop
         style="stop-color:black;stop-opacity:0;"
         offset="0"
         id="stop2806" />
      <stop
         id="stop2812"
         offset="0.5"
         style="stop-color:black;stop-opacity:1;" />
      <stop
         style="stop-color:black;stop-opacity:0;"
         offset="1"
         id="stop2808" />
    </linearGradient>
    <radialGradient
       inkscape:collect="always"
       xlink:href="#linearGradient25546"
       id="radialGradient25572"
       gradientUnits="userSpaceOnUse"
       gradientTransform="matrix(1,0,0,0.994693,0,4.16407e-2)"
       cx="7.8836637"
       cy="1.5104795"
       fx="7.8836637"
       fy="1.5104795"
       r="8.4883642" />
    <radialGradient
       inkscape:collect="always"
       xlink:href="#linearGradient25546"
       id="radialGradient25568"
       gradientUnits="userSpaceOnUse"
       gradientTransform="matrix(1,0,0,0.994693,0,4.16407e-2)"
       cx="7.8836741"
       cy="0.14505707"
       fx="7.8836741"
       fy="0.14505707"
       r="8.4883642" />
    <linearGradient
       inkscape:collect="always"
       id="linearGradient25546">
      <stop
         style="stop-color:white;stop-opacity:1;"
         offset="0"
         id="stop25548" />
      <stop
         style="stop-color:white;stop-opacity:0;"
         offset="1"
         id="stop25550" />
    </linearGradient>
    <radialGradient
       inkscape:collect="always"
       xlink:href="#linearGradient25546"
       id="radialGradient25554"
       cx="7.8836637"
       cy="2.6242435"
       fx="7.8836637"
       fy="2.6242435"
       r="8.4883642"
       gradientTransform="matrix(1.131317,0,0,1.125313,-1.035262,-0.301139)"
       gradientUnits="userSpaceOnUse" />
    <linearGradient
       id="linearGradient3800">
      <stop
         style="stop-color:#f4d9b1;stop-opacity:1.0000000;"
         offset="0.0000000"
         id="stop3802" />
      <stop
         style="stop-color:#df9725;stop-opacity:1.0000000;"
         offset="1.0000000"
         id="stop3804" />
    </linearGradient>
    <linearGradient
       inkscape:collect="always"
       xlink:href="#linearGradient8989"
       id="linearGradient6512"
       x1="15.242517"
       y1="38.888657"
       x2="15.712908"
       y2="42.28862"
       gradientUnits="userSpaceOnUse"
       gradientTransform="matrix(0.657666,0,0,0.625853,-0.1715315,-4.3010586)" />
    <linearGradient
       inkscape:collect="always"
       xlink:href="#linearGradient6817"
       id="linearGradient6823"
       x1="0.23931108"
       y1="38.950283"
       x2="5.7089725"
       y2="42.982571"
       gradientUnits="userSpaceOnUse" />
    <linearGradient
       inkscape:collect="always"
       xlink:href="#linearGradient5438"
       id="linearGradient5444"
       x1="30.152058"
       y1="-0.86487341"
       x2="30.152058"
       y2="23.011967"
       gradientUnits="userSpaceOnUse" />
    <linearGradient
       gradientUnits="userSpaceOnUse"
       y2="44.272076"
       x2="5.5366187"
       y1="39.902092"
       x1="-1.6841649"
       id="linearGradient6569"
       xlink:href="#linearGradient6563"
       inkscape:collect="always" />
    <linearGradient
       gradientUnits="userSpaceOnUse"
       y2="23.559282"
       x2="30.5"
       y1="0.033532728"
       x1="30.5"
       id="linearGradient2089"
       xlink:href="#linearGradient6537"
       inkscape:collect="always" />
    <linearGradient
       gradientUnits="userSpaceOnUse"
       y2="50.079575"
       x2="14.943421"
       y1="39.743458"
       x1="15.645709"
       id="linearGradient2087"
       xlink:href="#linearGradient6506"
       inkscape:collect="always" />
    <linearGradient
       id="linearGradient2081">
      <stop
         id="stop2083"
         offset="0.0000000"
         style="stop-color:#f4d9b1;stop-opacity:1.0000000;" />
      <stop
         id="stop2085"
         offset="1.0000000"
         style="stop-color:#df9725;stop-opacity:1.0000000;" />
    </linearGradient>
    <radialGradient
       gradientUnits="userSpaceOnUse"
       gradientTransform="matrix(1.131317,0,0,1.125313,-1.035262,-0.301139)"
       r="8.4883642"
       fy="2.6242435"
       fx="7.8836637"
       cy="2.6242435"
       cx="7.8836637"
       id="radialGradient2079"
       xlink:href="#linearGradient25546"
       inkscape:collect="always" />
    <radialGradient
       r="8.4883642"
       fy="0.14505707"
       fx="7.8836741"
       cy="0.14505707"
       cx="7.8836741"
       gradientTransform="matrix(1,0,0,0.994693,0,4.16407e-2)"
       gradientUnits="userSpaceOnUse"
       id="radialGradient2071"
       xlink:href="#linearGradient25546"
       inkscape:collect="always" />
    <radialGradient
       r="8.4883642"
       fy="1.5104795"
       fx="7.8836637"
       cy="1.5104795"
       cx="7.8836637"
       gradientTransform="matrix(1,0,0,0.994693,0,4.16407e-2)"
       gradientUnits="userSpaceOnUse"
       id="radialGradient2069"
       xlink:href="#linearGradient25546"
       inkscape:collect="always" />
    <linearGradient
       id="linearGradient2061">
      <stop
         id="stop2063"
         offset="0"
         style="stop-color:black;stop-opacity:0;" />
      <stop
         style="stop-color:black;stop-opacity:1;"
         offset="0.5"
         id="stop2065" />
      <stop
         id="stop2067"
         offset="1"
         style="stop-color:black;stop-opacity:0;" />
    </linearGradient>
    <linearGradient
       id="linearGradient6563"
       inkscape:collect="always">
      <stop
         id="stop6565"
         offset="0"
         style="stop-color:white;stop-opacity:1;" />
      <stop
         id="stop6567"
         offset="1"
         style="stop-color:white;stop-opacity:0;" />
    </linearGradient>
    <linearGradient
       id="linearGradient2850"
       inkscape:collect="always">
      <stop
         id="stop2852"
         offset="0"
         style="stop-color:#ce5c00;stop-opacity:1;" />
      <stop
         id="stop2854"
         offset="1"
         style="stop-color:#ce5c00;stop-opacity:0;" />
    </linearGradient>
    <linearGradient
       id="linearGradient3958"
       inkscape:collect="always">
      <stop
         id="stop3960"
         offset="0"
         style="stop-color:#eeeeec;stop-opacity:1;" />
      <stop
         id="stop3962"
         offset="1"
         style="stop-color:#eeeeec;stop-opacity:0;" />
    </linearGradient>
    <linearGradient
       id="linearGradient3968"
       inkscape:collect="always">
      <stop
         id="stop3970"
         offset="0"
         style="stop-color:#82508e;stop-opacity:1;" />
      <stop
         id="stop3972"
         offset="1"
         style="stop-color:#82508e;stop-opacity:0;" />
    </linearGradient>
    <linearGradient
       id="linearGradient3976"
       inkscape:collect="always">
      <stop
         id="stop3978"
         offset="0"
         style="stop-color:#3b1941;stop-opacity:1;" />
      <stop
         id="stop3980"
         offset="1"
         style="stop-color:#3b1941;stop-opacity:0;" />
    </linearGradient>
    <linearGradient
       inkscape:collect="always"
       xlink:href="#linearGradient2850"
       id="linearGradient2149"
       gradientUnits="userSpaceOnUse"
       gradientTransform="matrix(0.769231,0,0,0.714287,-34.23081,-12.28573)"
       x1="21.785719"
       y1="28.142857"
       x2="17.785713"
       y2="30.07143" />
    <radialGradient
       inkscape:collect="always"
       xlink:href="#linearGradient3958"
       id="radialGradient2191"
       gradientUnits="userSpaceOnUse"
       gradientTransform="matrix(1.116159,0,0,1.076653,-36.39499,-20.28695)"
       cx="9.0640488"
       cy="21.511742"
       fx="9.0640488"
       fy="21.511742"
       r="16.663956" />
    <linearGradient
       inkscape:collect="always"
       xlink:href="#linearGradient6506"
       id="linearGradient2193"
       gradientUnits="userSpaceOnUse"
       x1="15.645709"
       y1="39.743458"
       x2="15.645709"
       y2="53.502155"
       gradientTransform="matrix(0.660903,0,0,0.627207,-32.26852,-10.3201)" />
    <linearGradient
       inkscape:collect="always"
       xlink:href="#linearGradient3968"
       id="linearGradient2196"
       gradientUnits="userSpaceOnUse"
       x1="16.13257"
       y1="40.781811"
       x2="16.13257"
       y2="48.068741"
       gradientTransform="matrix(0.67692,0,0,0.646801,-32.53568,-10.90841)" />
    <linearGradient
       inkscape:collect="always"
       xlink:href="#linearGradient3976"
       id="linearGradient2198"
       gradientUnits="userSpaceOnUse"
       x1="12.095973"
       y1="40.907658"
       x2="12.095973"
       y2="46.463146"
       gradientTransform="matrix(0.67692,0,0,0.646801,-32.53568,-10.90841)" />
    <linearGradient
       inkscape:collect="always"
       xlink:href="#linearGradient6537"
       id="linearGradient2201"
       gradientUnits="userSpaceOnUse"
       x1="30.5"
       y1="0.033532728"
       x2="30.5"
       y2="23.559282"
       gradientTransform="matrix(0.668893,0,0,0.668627,-32.91377,-10.19246)" />
    <linearGradient
       inkscape:collect="always"
       xlink:href="#linearGradient3124"
       id="linearGradient3130"
       x1="12.027549"
       y1="36.059811"
       x2="12.561858"
       y2="42.352577"
       gradientUnits="userSpaceOnUse"
       gradientTransform="matrix(0.6753496,0,0,0.6455349,-0.509203,-4.891953)" />
    <linearGradient
       inkscape:collect="always"
       xlink:href="#linearGradient5438"
       id="linearGradient2848"
       gradientUnits="userSpaceOnUse"
       x1="30.152058"
       y1="-0.86487341"
       x2="30.152058"
       y2="23.011967" />
    <linearGradient
       inkscape:collect="always"
       xlink:href="#linearGradient8720"
       id="linearGradient8726"
       x1="12.806054"
       y1="16.65247"
       x2="13.166923"
       y2="16.608501"
       gradientUnits="userSpaceOnUse" />
    <linearGradient
       inkscape:collect="always"
       xlink:href="#linearGradient3116"
       id="linearGradient8774"
       x1="10.386011"
       y1="19.281519"
       x2="10.624538"
       y2="22.99383"
       gradientUnits="userSpaceOnUse" />
    <radialGradient
       inkscape:collect="always"
       xlink:href="#linearGradient8776"
       id="radialGradient8782"
       cx="11.763939"
       cy="12.831866"
       fx="11.763939"
       fy="12.831866"
       r="9.5000002"
       gradientTransform="matrix(1.5913256,-4.8823489e-2,2.9994878e-2,0.9776358,-6.9422349,1.0103644)"
       gradientUnits="userSpaceOnUse" />
    <filter
       inkscape:collect="always"
       id="filter8810"
       x="-0.066766478"
       width="1.133533"
       y="-0.10563155"
       height="1.2112631">
      <feGaussianBlur
         inkscape:collect="always"
         stdDeviation="0.30534121"
         id="feGaussianBlur8812" />
    </filter>
    <linearGradient
       inkscape:collect="always"
       xlink:href="#linearGradient8830"
       id="linearGradient8836"
       x1="6.3341951"
       y1="3.1008458"
       x2="0.83419508"
       y2="3.1008458"
       gradientUnits="userSpaceOnUse" />
    <linearGradient
       inkscape:collect="always"
       xlink:href="#linearGradient8838"
       id="linearGradient8844"
       x1="9.5704832"
       y1="3.0778286"
       x2="3.0625"
       y2="-0.047171354"
       gradientUnits="userSpaceOnUse" />
    <filter
       inkscape:collect="always"
       id="filter9040"
       x="-0.095484515"
       width="1.190969"
       y="-0.32181818"
       height="1.6436364">
      <feGaussianBlur
         inkscape:collect="always"
         stdDeviation="0.22627841"
         id="feGaussianBlur9042" />
    </filter>
  </defs>
  <sodipodi:namedview
     id="base"
     pagecolor="#ffffff"
     bordercolor="#666666"
     borderopacity="1.0"
     inkscape:pageopacity="0.0"
     inkscape:pageshadow="2"
     inkscape:zoom="22.627417"
     inkscape:cx="12.702237"
     inkscape:cy="12.256271"
     inkscape:current-layer="layer1"
     showgrid="true"
     inkscape:grid-bbox="true"
     inkscape:document-units="px"
     inkscape:window-width="1440"
     inkscape:window-height="847"
     inkscape:window-x="0"
     inkscape:window-y="0"
     showguides="true"
     inkscape:guide-bbox="true"
     inkscape:grid-points="false"
     width="24px"
     height="24px"
     inkscape:object-bbox="true"
     inkscape:snap-bbox="true"
     inkscape:snap-nodes="false"
     objecttolerance="10"
     gridtolerance="10">
    <inkscape:grid
       type="xygrid"
       id="grid7936"
       visible="true"
       enabled="true" />
  </sodipodi:namedview>
  <metadata
     id="metadata4350">
    <rdf:RDF>
      <cc:Work
         rdf:about="">
        <dc:format>image/svg+xml</dc:format>
        <dc:type
           rdf:resource="http://purl.org/dc/dcmitype/StillImage" />
      </cc:Work>
    </rdf:RDF>
  </metadata>
  <g
     id="layer1"
     inkscape:label="Layer 1"
     inkscape:groupmode="layer">
    <path
       style="fill:url(#linearGradient8844);fill-opacity:1;stroke:none;stroke-width:1;stroke-miterlimit:4;stroke-opacity:1"
       d="M 5.945483,1.9731142 C 7.217445,-0.34713734 10,1.9093507 10,4.2806574 L 8.954525,4.1947658 C 8.954525,2.9993751 7.9505388,1.7171212 5.945483,1.9731142 z"
       id="rect5189"
       sodipodi:nodetypes="cccc" />
    <path
       style="fill:url(#linearGradient8836);fill-opacity:1;stroke:none;stroke-width:1;stroke-miterlimit:4;stroke-opacity:1"
       d="M 3.3349138,3.782206 C 3.2763395,1.1368282 6.814347,1.6997265 8,3.7533385 L 7.051646,4.2016918 C 6.4539515,3.1664528 4.9433467,2.5579816 3.3349138,3.782206 z"
       id="path8784"
       sodipodi:nodetypes="cccc"
       inkscape:transform-center-x="1.7235728"
       inkscape:transform-center-y="-0.24306796" />
    <path
       style="opacity:1;fill:url(#linearGradient8774);fill-opacity:1;stroke:url(#linearGradient3130);stroke-width:0.99999994000000003;stroke-miterlimit:4;stroke-dasharray:none;stroke-opacity:1"
       d="M 9.6210408,3.5 C 5.1475237,3.5 1.5168457,7.1149956 1.5168457,11.569186 C 1.5168457,15.218486 1.5439694,21.481174 3.5225944,23.427658 C 4.3245644,23.427658 18.364363,24.544826 20.181729,24.544826 C 21.609503,24.544826 21.497963,23.215283 21.497963,23.215283 C 21.497963,22.576692 21.033908,21.976237 20.388647,21.409004 C 19.29532,20.447887 17.920241,19.83089 16.923902,18.787899 C 15.927563,17.744908 17.049886,14.796859 17.049886,14.796859 C 17.482992,13.809319 17.549357,12.846972 17.549357,11.701094 C 17.549357,7.2469039 14.094559,3.5 9.6210408,3.5 z"
       id="path5176"
       sodipodi:nodetypes="ccccsszcsc" />
    <path
       style="opacity:0.5;fill:url(#radialGradient8782);fill-opacity:1;stroke:url(#linearGradient6512);stroke-width:1;stroke-miterlimit:4;stroke-dasharray:none;stroke-opacity:1"
       d="M 9.693459,4.5 C 5.739376,4.5 2.5110855,7.6765676 2.5002365,11.638635 C 2.5002185,11.645318 2.4997125,11.651527 2.5002365,11.658194 C 2.5002365,16.219081 2.4988555,20.806087 4.3856815,23.549325 C 5.659306,23.549325 14.594567,23.530678 18.426112,23.530678 C 19.193745,23.530678 20.5,23.846154 20.5,22.929553 C 20.5,22.790774 20.36863,22.529834 20.00675,22.20591 C 19.64487,21.881986 19.103616,21.534156 18.50645,21.188899 C 16.708853,20.449743 15.460748,19.238726 15.399921,17.277317 C 15.480347,15.30249 16.649061,13.948626 16.512942,11.768117 C 16.512942,7.7967072 13.65421,4.5 9.693459,4.5 z"
       id="path5241"
       sodipodi:nodetypes="cscccsscccc" />
    <path
       sodipodi:type="inkscape:offset"
       inkscape:radius="0.97252291"
       inkscape:original="M 7.15625 8 C 5.7694225 8 4.9999998 9.5395554 5 10.96875 C 5 12.613363 6.1444228 13.96875 7.53125 13.96875 C 8.5432599 13.96875 10.03125 12.832113 10.03125 11.1875 C 10.03125 9.8881973 8.5430781 8 7.15625 8 z "
       style="opacity:1;fill:#9757a4;fill-opacity:1;stroke:none;stroke-width:1;stroke-miterlimit:4;stroke-opacity:1"
       id="path8816"
       d="M 7.15625,7.03125 C 6.1029614,7.03125 5.2431984,7.6462575 4.75,8.40625 C 4.2568016,9.1662425 4.0312499,10.07963 4.03125,10.96875 C 4.03125,13.064524 5.5107726,14.9375 7.53125,14.9375 C 8.4013507,14.9375 9.1895212,14.517728 9.84375,13.875 C 10.497979,13.232272 11,12.303108 11,11.1875 C 11,10.166552 10.509035,9.2426793 9.84375,8.46875 C 9.1784648,7.6948207 8.2910346,7.03125 7.15625,7.03125 z"
       transform="translate(-1,6.25e-2)" />
    <path
       style="opacity:1;fill:#ffffff;fill-opacity:1;stroke:none;stroke-width:1;stroke-miterlimit:4;stroke-opacity:1"
       d="M 9,11.217568 C 9,12.873569 7.5163584,14 6.5156249,14 C 5.1442504,14 4.0312505,12.656001 4.0312505,11 C 4.0312505,9.5609094 4.7941997,8 6.1655744,8 C 7.5369496,8 9,9.9092687 9,11.217568 z"
       id="path5157"
       sodipodi:nodetypes="csssc" />
    <path
       sodipodi:type="arc"
       style="opacity:1;fill:#5c3566;fill-opacity:1;stroke:none;stroke-width:1;stroke-miterlimit:4;stroke-dasharray:none;stroke-opacity:1"
       id="path5162"
       sodipodi:cx="10.169642"
       sodipodi:cy="24.3125"
       sodipodi:rx="1.2410715"
       sodipodi:ry="1.2946428"
       d="M 11.410714,24.3125 A 1.2410715,1.2946428 0 1 1 8.928571,24.3125 A 1.2410715,1.2946428 0 1 1 11.410714,24.3125 z"
       transform="matrix(1.1960429,0,0,1.158621,-5.6789543,-16.575223)" />
    <path
       sodipodi:type="inkscape:offset"
       inkscape:radius="1.0018603"
       inkscape:original="M 15.375 8 C 14.972613 8.0219165 14.616322 8.2670758 14.40625 8.59375 C 13.830495 9.4890789 13.873243 11.039266 14.53125 12.0625 C 15.103067 12.951704 16.049246 13.426577 16.625 12.53125 C 17.200756 11.635921 17.051098 9.4958908 16.53125 8.6875 C 16.202247 8.1758836 15.777387 7.9780835 15.375 8 z "
       style="fill:#9757a4;fill-opacity:1;stroke:none;stroke-width:1;stroke-miterlimit:4;stroke-opacity:1"
       id="path8820"
       d="M 15.3125,7 C 14.537055,7.0422356 13.927975,7.4941649 13.5625,8.0625 C 12.689986,9.4193046 12.791183,11.199932 13.6875,12.59375 C 14.065497,13.181554 14.559478,13.713455 15.28125,13.9375 C 16.003022,14.161545 17.002245,13.787939 17.46875,13.0625 C 17.974403,12.276184 18.035404,11.401604 18,10.53125 C 17.964596,9.6608958 17.828805,8.8619408 17.375,8.15625 C 16.897304,7.4134085 16.079992,6.9581976 15.3125,7 z" />
    <path
       style="fill:#ffffff;fill-opacity:1;stroke:none;stroke-width:1;stroke-miterlimit:4;stroke-opacity:1"
       d="M 16.540313,8.6790592 C 15.882307,7.6558262 14.811834,7.9284344 14.39169,8.5817827 C 13.815935,9.4771112 13.882691,11.034204 14.540698,12.057438 C 15.112515,12.946642 16.05305,13.413012 16.628804,12.517685 C 17.204559,11.622356 17.060161,9.48745 16.540313,8.6790592 z"
       id="path3134"
       sodipodi:nodetypes="csssc" />
    <path
       sodipodi:type="arc"
       style="fill:#5c3566;fill-opacity:1;stroke:none;stroke-width:1;stroke-miterlimit:4;stroke-dasharray:none;stroke-opacity:1"
       id="path3136"
       sodipodi:cx="10.169642"
       sodipodi:cy="24.3125"
       sodipodi:rx="1.2410715"
       sodipodi:ry="1.2946428"
       d="M 11.410714,24.3125 A 1.2410715,1.2946428 0 1 1 8.928571,24.3125 A 1.2410715,1.2946428 0 1 1 11.410714,24.3125 z"
       transform="matrix(0.8057553,0,0,1.158621,6.8057568,-16.668973)" />
    <path
       style="fill:#5c3566;fill-opacity:1;stroke:none;stroke-width:1.0283047;stroke-miterlimit:4;stroke-opacity:1;filter:url(#filter8810)"
       d="M 12.59375,12.4375 C 12.222391,12.4375 11.952722,12.697732 11.8125,12.90625 C 11.672278,13.114768 11.591589,13.333559 11.5,13.5625 C 11.316822,14.020382 11.132944,14.51781 10.875,14.875 C 10.617056,15.23219 10.354505,15.452654 9.84375,15.46875 C 9.3329954,15.484846 8.5004312,15.240041 7.28125,14.4375 C 7.0585983,14.276718 6.752174,14.30128 6.5579772,14.495477 C 6.3637804,14.689674 6.3392176,14.996098 6.5,15.21875 C 7.2056342,16.27546 8.2639191,17.5841 9.640625,18.40625 C 10.328978,18.817325 11.432979,19.087337 12.015625,19.34375 C 12.598271,19.600163 12.941819,19.5625 13.40625,19.5625 C 13.927105,19.5625 14.262855,19.263825 14.625,18.9375 C 14.987145,18.611175 15.366757,18.201439 15.71875,17.75 C 16.422736,16.847123 17.063583,15.803499 17.4375,15.1875 C 17.548363,14.941092 17.467317,14.65066 17.244886,14.49726 C 17.022454,14.343859 16.722179,14.37131 16.53125,14.5625 C 15.91539,15.324047 15.537809,15.447586 15.34375,15.4375 C 15.149691,15.427414 14.901069,15.263025 14.625,14.875 C 14.348931,14.486975 14.076271,13.963561 13.8125,13.5 C 13.680615,13.26822 13.545778,13.036007 13.375,12.84375 C 13.204222,12.651493 12.96049,12.4375 12.59375,12.4375 z"
       id="path8770"
       sodipodi:nodetypes="csssscscssssscscssssc" />
    <path
       sodipodi:type="inkscape:offset"
       inkscape:radius="0.63276428"
       inkscape:original="M 10.5 14 C 10.223 14 10 14.223 10 14.5 C 10 14.777 10.223 15 10.5 15 L 11.5 15 C 11.777 15 12 14.777 12 14.5 C 12 14.223 11.777 14 11.5 14 L 10.5 14 z M 13.5 14 C 13.223 14 13 14.223 13 14.5 C 13 14.777 13.223 15 13.5 15 L 14.5 15 C 14.777 15 15 14.777 15 14.5 C 15 14.223 14.777 14 14.5 14 L 13.5 14 z "
       style="fill:#5c3566;fill-opacity:1;stroke:none;stroke-width:1;stroke-miterlimit:4;stroke-dasharray:none;stroke-opacity:1;filter:url(#filter9040)"
       id="path8998"
       d="M 10.5,13.375 C 9.8833937,13.375 9.375,13.883394 9.375,14.5 C 9.375,15.116606 9.8833937,15.625 10.5,15.625 L 11.5,15.625 C 11.997417,15.625 12.351557,15.26606 12.5,14.8125 C 12.648443,15.26606 13.002583,15.625 13.5,15.625 L 14.5,15.625 C 15.116606,15.625 15.625,15.116606 15.625,14.5 C 15.625,13.883394 15.116606,13.375 14.5,13.375 L 13.5,13.375 C 13.002583,13.375 12.648443,13.73394 12.5,14.1875 C 12.351557,13.73394 11.997417,13.375 11.5,13.375 L 10.5,13.375 z" />
    <path
       style="fill:#eeeeec;fill-opacity:1;stroke:none;stroke-width:1;stroke-miterlimit:4;stroke-dasharray:none;stroke-opacity:1"
       d="M 10,14 C 10,14 10,15 10,15 L 11.5,15 C 11.777,15 12,14.777 12,14.5 C 12,14.223 11.777,14 11.5,14 L 10,14 z M 13.5,14 C 13.223,14 13,14.223 13,14.5 C 13,14.777 13.223,15 13.5,15 L 15.03125,15 C 15.03125,15 15.03125,14.168014 15.03125,14 L 13.5,14 z"
       id="rect3140"
       sodipodi:nodetypes="cccscccscccc" />
    <path
       style="fill:url(#linearGradient8726);fill-opacity:1;stroke:none;stroke-width:1.02830470000000007;stroke-miterlimit:4;stroke-opacity:1"
       d="M 7.0099232,14.992875 C 12.098435,18.088335 11.605646,13 12.595061,13 C 13.606375,13 14.291899,18.201991 16.965729,14.895644 C 16.545386,16.431071 14.354137,19.011297 13.404539,19.011297 C 12.44425,19.011297 9.0625816,18.378283 7.0099232,14.992875 z"
       id="path3142"
       sodipodi:nodetypes="czczc" />
  </g>
</svg>
