<?xml version="1.0" encoding="UTF-8" standalone="no"?>
<!-- Created with Inkscape (http://www.inkscape.org/) -->
<svg
   xmlns:dc="http://purl.org/dc/elements/1.1/"
   xmlns:cc="http://creativecommons.org/ns#"
   xmlns:rdf="http://www.w3.org/1999/02/22-rdf-syntax-ns#"
   xmlns:svg="http://www.w3.org/2000/svg"
   xmlns="http://www.w3.org/2000/svg"
   xmlns:xlink="http://www.w3.org/1999/xlink"
   xmlns:sodipodi="http://sodipodi.sourceforge.net/DTD/sodipodi-0.dtd"
   xmlns:inkscape="http://www.inkscape.org/namespaces/inkscape"
   width="24"
   height="24"
   id="svg4345"
   sodipodi:version="0.32"
   inkscape:version="0.46"
   sodipodi:docbase="/home/hbons/Desktop/Pidgin/2.1.0/icons/24/scalable"
   sodipodi:docname="pidgin.svg"
   inkscape:export-filename="/home/hbons/Bureaublad/pidgin.png"
   inkscape:export-xdpi="90"
   inkscape:export-ydpi="90"
   version="1.0"
   inkscape:output_extension="org.inkscape.output.svg.inkscape">
  <defs
     id="defs4347">
    <linearGradient
       id="linearGradient8989"
       inkscape:collect="always">
      <stop
         id="stop8991"
         offset="0"
         style="stop-color:#ffffff;stop-opacity:0.81407034" />
      <stop
         id="stop8993"
         offset="1"
         style="stop-color:#eeeeec;stop-opacity:0;" />
    </linearGradient>
    <linearGradient
       inkscape:collect="always"
       id="linearGradient8838">
      <stop
         style="stop-color:#3b1941;stop-opacity:1;"
         offset="0"
         id="stop8840" />
      <stop
         style="stop-color:#3b1941;stop-opacity:0;"
         offset="1"
         id="stop8842" />
    </linearGradient>
    <linearGradient
       inkscape:collect="always"
       id="linearGradient8830">
      <stop
         style="stop-color:#3b1941;stop-opacity:1;"
         offset="0"
         id="stop8832" />
      <stop
         style="stop-color:#3b1941;stop-opacity:0;"
         offset="1"
         id="stop8834" />
    </linearGradient>
    <linearGradient
       inkscape:collect="always"
       id="linearGradient8776">
      <stop
         style="stop-color:#ffffff;stop-opacity:0.82412058"
         offset="0"
         id="stop8778" />
      <stop
         style="stop-color:#ffffff;stop-opacity:0"
         offset="1"
         id="stop8780" />
    </linearGradient>
    <linearGradient
       inkscape:collect="always"
       id="linearGradient8720">
      <stop
         style="stop-color:#fdc26a;stop-opacity:1"
         offset="0"
         id="stop8722" />
      <stop
         style="stop-color:#f57900;stop-opacity:1"
         offset="1"
         id="stop8724" />
    </linearGradient>
    <linearGradient
       inkscape:collect="always"
       id="linearGradient3124">
      <stop
         style="stop-color:#3b1941;stop-opacity:1;"
         offset="0"
         id="stop3126" />
      <stop
         style="stop-color:#3b1941;stop-opacity:0;"
         offset="1"
         id="stop3128" />
    </linearGradient>
    <linearGradient
       inkscape:collect="always"
       id="linearGradient3116">
      <stop
         style="stop-color:#82508e;stop-opacity:1;"
         offset="0"
         id="stop3118" />
      <stop
         style="stop-color:#82508e;stop-opacity:0"
         offset="1"
         id="stop3120" />
    </linearGradient>
    <linearGradient
       inkscape:collect="always"
       xlink:href="#linearGradient8989"
       id="linearGradient6512"
       x1="15.712908"
       y1="41.672424"
       x2="15.712908"
       y2="43.283482"
       gradientUnits="userSpaceOnUse"
       gradientTransform="matrix(0.657666,0,0,0.625853,0.8007403,-4.3010586)" />
    <linearGradient
       inkscape:collect="always"
       xlink:href="#linearGradient3124"
       id="linearGradient3130"
       x1="12.561858"
       y1="39.538197"
       x2="12.561858"
       y2="43.858727"
       gradientUnits="userSpaceOnUse"
       gradientTransform="matrix(0.6753496,0,0,0.6455349,0.4630688,-4.891953)" />
    <linearGradient
       inkscape:collect="always"
       xlink:href="#linearGradient8720"
       id="linearGradient8726"
       x1="12.806054"
       y1="16.65247"
       x2="13.166923"
       y2="16.608501"
       gradientUnits="userSpaceOnUse"
       gradientTransform="translate(0.9722718,0)" />
    <linearGradient
       inkscape:collect="always"
       xlink:href="#linearGradient3116"
       id="linearGradient8774"
       x1="10.624538"
       y1="19.763729"
       x2="10.624538"
       y2="23.347383"
       gradientUnits="userSpaceOnUse"
       gradientTransform="translate(0.9722718,0)" />
    <radialGradient
       inkscape:collect="always"
       xlink:href="#linearGradient8776"
       id="radialGradient8782"
       cx="11.763939"
       cy="12.831866"
       fx="11.763939"
       fy="12.831866"
       r="9.5000002"
       gradientTransform="matrix(1.5913256,-4.8823489e-2,2.9994878e-2,0.9776358,-5.9699631,1.0103644)"
       gradientUnits="userSpaceOnUse" />
    <filter
       inkscape:collect="always"
       id="filter8810"
       x="-0.066766478"
       width="1.133533"
       y="-0.10563155"
       height="1.2112631">
      <feGaussianBlur
         inkscape:collect="always"
         stdDeviation="0.30534121"
         id="feGaussianBlur8812" />
    </filter>
    <linearGradient
       inkscape:collect="always"
       xlink:href="#linearGradient8830"
       id="linearGradient8836"
       x1="6.3341951"
       y1="3.1008458"
       x2="0.83419508"
       y2="3.1008458"
       gradientUnits="userSpaceOnUse"
       gradientTransform="translate(0.9722718,0)" />
    <linearGradient
       inkscape:collect="always"
       xlink:href="#linearGradient8838"
       id="linearGradient8844"
       x1="9.5704832"
       y1="3.0778286"
       x2="3.0625"
       y2="-0.047171354"
       gradientUnits="userSpaceOnUse"
       gradientTransform="translate(0.9722718,0)" />
    <filter
       inkscape:collect="always"
       id="filter9040"
       x="-0.095484515"
       width="1.190969"
       y="-0.32181818"
       height="1.6436364">
      <feGaussianBlur
         inkscape:collect="always"
         stdDeviation="0.22627841"
         id="feGaussianBlur9042" />
    </filter>
  </defs>
  <sodipodi:namedview
     id="base"
     pagecolor="#ffffff"
     bordercolor="#666666"
     borderopacity="1.0"
     inkscape:pageopacity="0.0"
     inkscape:pageshadow="2"
     inkscape:zoom="22.627417"
     inkscape:cx="21.62498"
     inkscape:cy="11.838987"
     inkscape:current-layer="layer1"
     showgrid="true"
     inkscape:grid-bbox="true"
     inkscape:document-units="px"
     inkscape:window-width="1440"
     inkscape:window-height="847"
     inkscape:window-x="0"
     inkscape:window-y="0"
     showguides="true"
     inkscape:guide-bbox="true"
     inkscape:grid-points="false"
     width="24px"
     height="24px"
     inkscape:object-bbox="true"
     inkscape:snap-bbox="true"
     inkscape:snap-nodes="false"
     objecttolerance="10"
     gridtolerance="10">
    <inkscape:grid
       type="xygrid"
       id="grid7936"
       visible="true"
       enabled="true" />
  </sodipodi:namedview>
  <metadata
     id="metadata4350">
    <rdf:RDF>
      <cc:Work
         rdf:about="">
        <dc:format>image/svg+xml</dc:format>
        <dc:type
           rdf:resource="http://purl.org/dc/dcmitype/StillImage" />
      </cc:Work>
    </rdf:RDF>
  </metadata>
  <g
     id="layer1"
     inkscape:label="Layer 1"
     inkscape:groupmode="layer">
    <path
       style="fill:url(#linearGradient8844);fill-opacity:1;stroke:none;stroke-width:1;stroke-miterlimit:4;stroke-opacity:1"
       d="M 6.9177548,1.9731142 C 8.1897168,-0.34713734 10.972272,1.9093507 10.972272,4.2806574 L 9.9267968,4.1947658 C 9.9267968,2.9993751 8.9228106,1.7171212 6.9177548,1.9731142 z"
       id="rect5189"
       sodipodi:nodetypes="cccc" />
    <path
       style="fill:url(#linearGradient8836);fill-opacity:1;stroke:none;stroke-width:1;stroke-miterlimit:4;stroke-opacity:1"
       d="M 4.3071856,3.782206 C 4.2486113,1.1368282 7.7866188,1.6997265 8.9722718,3.7533385 L 8.0239178,4.2016918 C 7.4262233,3.1664528 5.9156185,2.5579816 4.3071856,3.782206 z"
       id="path8784"
       sodipodi:nodetypes="cccc"
       inkscape:transform-center-x="1.7235728"
       inkscape:transform-center-y="-0.24306796" />
    <path
       style="opacity:1;fill:url(#linearGradient8774);fill-opacity:1;stroke:url(#linearGradient3130);stroke-width:0.99999994000000003;stroke-miterlimit:4;stroke-dasharray:none;stroke-opacity:1"
       d="M 10.593313,3.5 C 6.1197955,3.5 2.4891175,7.1149956 2.4891175,11.569186 C 2.4891175,15.218486 3.4986749,23.427658 -1.7892089,23.427658 C -0.98723886,23.427658 18.806305,24.544826 20.623671,24.544826 C 22.051445,24.544826 21.939905,23.215283 21.939905,23.215283 C 21.939905,22.576692 21.741015,22.10882 20.830589,21.409004 C 19.67644,20.521846 19.025096,20.449608 18.028757,19.406617 C 17.032418,18.363626 18.022158,14.796859 18.022158,14.796859 C 18.455264,13.809319 18.521629,12.846972 18.521629,11.701094 C 18.521629,7.2469039 15.066831,3.5 10.593313,3.5 z"
       id="path5176"
       sodipodi:nodetypes="ccccsszcsc" />
    <path
       style="opacity:0.5;fill:url(#radialGradient8782);fill-opacity:1;stroke:url(#linearGradient6512);stroke-width:1;stroke-miterlimit:4;stroke-dasharray:none;stroke-opacity:1"
       d="M 10.665731,4.5 C 6.7116478,4.5 3.4833573,7.6765676 3.4725083,11.638635 C 3.4724903,11.645318 3.4719843,11.651527 3.4725083,11.658194 C 3.4725083,11.658194 4.335542,22.578523 0.47920826,23.611825 C 1.7528328,23.611825 14.992315,23.530678 18.82386,23.530678 C 19.591493,23.530678 20.897748,23.846154 20.897748,22.929553 C 20.897748,22.790774 20.766378,22.529834 20.404498,22.20591 C 20.042618,21.881986 19.501364,21.534156 18.904198,21.188899 C 17.106601,20.449743 16.43302,19.238726 16.372193,17.277317 C 16.452619,15.30249 17.621333,13.948626 17.485214,11.768117 C 17.485214,7.7967072 14.626482,4.5 10.665731,4.5 z"
       id="path5241"
       sodipodi:nodetypes="cscccsscccc" />
    <path
       sodipodi:type="inkscape:offset"
       inkscape:radius="0.97252291"
       inkscape:original="M 7.15625 8 C 5.7694225 8 4.9999998 9.5395554 5 10.96875 C 5 12.613363 6.1444228 13.96875 7.53125 13.96875 C 8.5432599 13.96875 10.03125 12.832113 10.03125 11.1875 C 10.03125 9.8881973 8.5430781 8 7.15625 8 z "
       style="opacity:1;fill:#9757a4;fill-opacity:1;stroke:none;stroke-width:1;stroke-miterlimit:4;stroke-opacity:1"
       id="path8816"
       d="M 7.15625,7.03125 C 6.1029614,7.03125 5.2431984,7.6462575 4.75,8.40625 C 4.2568016,9.1662425 4.0312499,10.07963 4.03125,10.96875 C 4.03125,13.064524 5.5107726,14.9375 7.53125,14.9375 C 8.4013507,14.9375 9.1895212,14.517728 9.84375,13.875 C 10.497979,13.232272 11,12.303108 11,11.1875 C 11,10.166552 10.509035,9.2426793 9.84375,8.46875 C 9.1784648,7.6948207 8.2910346,7.03125 7.15625,7.03125 z"
       transform="matrix(1.0039789,0,0,1,-4.3768242e-2,6.25e-2)" />
    <path
       style="opacity:1;fill:#ffffff;fill-opacity:1;stroke:none;stroke-width:1;stroke-miterlimit:4;stroke-opacity:1"
       d="M 9.9722718,11.217568 C 9.9722718,12.873569 8.4886302,14 7.4878967,14 C 6.1165222,14 5.0035223,12.656001 5.0035223,11 C 5.0035223,9.5609094 5.7664715,8 7.1378462,8 C 8.5092214,8 9.9722718,9.9092687 9.9722718,11.217568 z"
       id="path5157"
       sodipodi:nodetypes="csssc" />
    <path
       sodipodi:type="arc"
       style="opacity:1;fill:#5c3566;fill-opacity:1;stroke:none;stroke-width:1;stroke-miterlimit:4;stroke-dasharray:none;stroke-opacity:1"
       id="path5162"
       sodipodi:cx="10.169642"
       sodipodi:cy="24.3125"
       sodipodi:rx="1.2410715"
       sodipodi:ry="1.2946428"
       d="M 11.410714,24.3125 A 1.2410715,1.2946428 0 1 1 8.928571,24.3125 A 1.2410715,1.2946428 0 1 1 11.410714,24.3125 z"
       transform="matrix(1.1960429,0,0,1.158621,-4.7066825,-16.575223)" />
    <path
       sodipodi:type="inkscape:offset"
       inkscape:radius="1.0018603"
       inkscape:original="M 15.375 8 C 14.972613 8.0219165 14.616322 8.2670758 14.40625 8.59375 C 13.830495 9.4890789 13.873243 11.039266 14.53125 12.0625 C 15.103067 12.951704 16.049246 13.426577 16.625 12.53125 C 17.200756 11.635921 17.051098 9.4958908 16.53125 8.6875 C 16.202247 8.1758836 15.777387 7.9780835 15.375 8 z "
       style="fill:#9757a4;fill-opacity:1;stroke:none;stroke-width:1;stroke-miterlimit:4;stroke-opacity:1"
       id="path8820"
       d="M 15.3125,7 C 14.537055,7.0422356 13.927975,7.4941649 13.5625,8.0625 C 12.689986,9.4193046 12.791183,11.199932 13.6875,12.59375 C 14.065497,13.181554 14.559478,13.713455 15.28125,13.9375 C 16.003022,14.161545 17.002245,13.787939 17.46875,13.0625 C 17.974403,12.276184 18.035404,11.401604 18,10.53125 C 17.964596,9.6608958 17.828805,8.8619408 17.375,8.15625 C 16.897304,7.4134085 16.079992,6.9581976 15.3125,7 z"
       transform="translate(0.9722718,0)" />
    <path
       style="fill:#ffffff;fill-opacity:1;stroke:none;stroke-width:1;stroke-miterlimit:4;stroke-opacity:1"
       d="M 17.512585,8.6790592 C 16.854579,7.6558262 15.784106,7.9284344 15.363962,8.5817827 C 14.788207,9.4771112 14.854963,11.034204 15.51297,12.057438 C 16.084787,12.946642 17.025322,13.413012 17.601076,12.517685 C 18.176831,11.622356 18.032433,9.48745 17.512585,8.6790592 z"
       id="path3134"
       sodipodi:nodetypes="csssc" />
    <path
       sodipodi:type="arc"
       style="fill:#5c3566;fill-opacity:1;stroke:none;stroke-width:1;stroke-miterlimit:4;stroke-dasharray:none;stroke-opacity:1"
       id="path3136"
       sodipodi:cx="10.169642"
       sodipodi:cy="24.3125"
       sodipodi:rx="1.2410715"
       sodipodi:ry="1.2946428"
       d="M 11.410714,24.3125 A 1.2410715,1.2946428 0 1 1 8.928571,24.3125 A 1.2410715,1.2946428 0 1 1 11.410714,24.3125 z"
       transform="matrix(0.8057553,0,0,1.158621,7.7780286,-16.668973)" />
    <path
       style="fill:#5c3566;fill-opacity:1;stroke:none;stroke-width:1.0283047;stroke-miterlimit:4;stroke-opacity:1;filter:url(#filter8810)"
       d="M 13.566022,12.4375 C 13.194663,12.4375 12.924994,12.697732 12.784772,12.90625 C 12.64455,13.114768 12.563861,13.333559 12.472272,13.5625 C 12.289094,14.020382 12.105216,14.51781 11.847272,14.875 C 11.589328,15.23219 11.326777,15.452654 10.816022,15.46875 C 10.305267,15.484846 9.472703,15.240041 8.2535218,14.4375 C 8.0308701,14.276718 7.7244458,14.30128 7.530249,14.495477 C 7.3360522,14.689674 7.3114894,14.996098 7.4722718,15.21875 C 8.177906,16.27546 9.2361909,17.5841 10.612897,18.40625 C 11.30125,18.817325 12.405251,19.087337 12.987897,19.34375 C 13.570543,19.600163 13.914091,19.5625 14.378522,19.5625 C 14.899377,19.5625 15.235127,19.263825 15.597272,18.9375 C 15.959417,18.611175 16.339029,18.201439 16.691022,17.75 C 17.395008,16.847123 18.035855,15.803499 18.409772,15.1875 C 18.520635,14.941092 18.439589,14.65066 18.217158,14.49726 C 17.994726,14.343859 17.694451,14.37131 17.503522,14.5625 C 16.887662,15.324047 16.510081,15.447586 16.316022,15.4375 C 16.121963,15.427414 15.873341,15.263025 15.597272,14.875 C 15.321203,14.486975 15.048543,13.963561 14.784772,13.5 C 14.652887,13.26822 14.51805,13.036007 14.347272,12.84375 C 14.176494,12.651493 13.932762,12.4375 13.566022,12.4375 z"
       id="path8770"
       sodipodi:nodetypes="csssscscssssscscssssc" />
    <path
       sodipodi:type="inkscape:offset"
       inkscape:radius="0.63276428"
       inkscape:original="M 10.5 14 C 10.223 14 10 14.223 10 14.5 C 10 14.777 10.223 15 10.5 15 L 11.5 15 C 11.777 15 12 14.777 12 14.5 C 12 14.223 11.777 14 11.5 14 L 10.5 14 z M 13.5 14 C 13.223 14 13 14.223 13 14.5 C 13 14.777 13.223 15 13.5 15 L 14.5 15 C 14.777 15 15 14.777 15 14.5 C 15 14.223 14.777 14 14.5 14 L 13.5 14 z "
       style="fill:#5c3566;fill-opacity:1;stroke:none;stroke-width:1;stroke-miterlimit:4;stroke-dasharray:none;stroke-opacity:1;filter:url(#filter9040)"
       id="path8998"
       d="M 10.5,13.375 C 9.8833937,13.375 9.375,13.883394 9.375,14.5 C 9.375,15.116606 9.8833937,15.625 10.5,15.625 L 11.5,15.625 C 11.997417,15.625 12.351557,15.26606 12.5,14.8125 C 12.648443,15.26606 13.002583,15.625 13.5,15.625 L 14.5,15.625 C 15.116606,15.625 15.625,15.116606 15.625,14.5 C 15.625,13.883394 15.116606,13.375 14.5,13.375 L 13.5,13.375 C 13.002583,13.375 12.648443,13.73394 12.5,14.1875 C 12.351557,13.73394 11.997417,13.375 11.5,13.375 L 10.5,13.375 z"
       transform="translate(0.9722718,0)" />
    <path
       style="fill:#eeeeec;fill-opacity:1;stroke:none;stroke-width:1;stroke-miterlimit:4;stroke-dasharray:none;stroke-opacity:1"
       d="M 11,14 C 11,14 11,15 11,15 L 12.491733,15 C 12.767207,15 12.988978,14.777 12.988978,14.5 C 12.988978,14.223 12.767207,14 12.491733,14 L 11,14 z M 14.480711,14 C 14.205238,14 13.983467,14.223 13.983467,14.5 C 13.983467,14.777 14.205238,15 14.480711,15 L 16.003522,15 C 16.003522,15 16.003522,14.168014 16.003522,14 L 14.480711,14 z"
       id="rect3140"
       sodipodi:nodetypes="cccscccscccc" />
    <path
       style="fill:url(#linearGradient8726);fill-opacity:1;stroke:none;stroke-width:1.0283047;stroke-miterlimit:4;stroke-opacity:1"
       d="M 7.982195,14.992875 C 13.070707,18.088335 12.577918,13 13.567333,13 C 14.578647,13 15.264171,18.201991 17.938001,14.895644 C 17.517658,16.431071 15.326409,19.011297 14.376811,19.011297 C 13.416522,19.011297 10.034853,18.378283 7.982195,14.992875 z"
       id="path3142"
       sodipodi:nodetypes="czczc" />
  </g>
</svg>
