<?xml version="1.0" encoding="UTF-8" standalone="no"?>
<!-- Created with Inkscape (http://www.inkscape.org/) -->
<svg
   xmlns:dc="http://purl.org/dc/elements/1.1/"
   xmlns:cc="http://creativecommons.org/ns#"
   xmlns:rdf="http://www.w3.org/1999/02/22-rdf-syntax-ns#"
   xmlns:svg="http://www.w3.org/2000/svg"
   xmlns="http://www.w3.org/2000/svg"
   xmlns:xlink="http://www.w3.org/1999/xlink"
   xmlns:sodipodi="http://sodipodi.sourceforge.net/DTD/sodipodi-0.dtd"
   xmlns:inkscape="http://www.inkscape.org/namespaces/inkscape"
   width="16px"
   height="16px"
   id="svg7380"
   sodipodi:version="0.32"
   inkscape:version="0.46"
   sodipodi:docbase="/home/hbons/Desktop"
   sodipodi:docname="external.svg"
   inkscape:export-filename="/home/hbons/Desktop/external.png"
   inkscape:export-xdpi="90"
   inkscape:export-ydpi="90"
   inkscape:output_extension="org.inkscape.output.svg.inkscape">
  <defs
     id="defs7382">
    <linearGradient
       inkscape:collect="always"
       id="linearGradient25546">
      <stop
         style="stop-color:white;stop-opacity:1;"
         offset="0"
         id="stop25548" />
      <stop
         style="stop-color:white;stop-opacity:0;"
         offset="1"
         id="stop25550" />
    </linearGradient>
    <radialGradient
       inkscape:collect="always"
       xlink:href="#linearGradient25546"
       id="radialGradient25554"
       cx="7.8836637"
       cy="1.5104795"
       fx="7.8836637"
       fy="1.5104795"
       r="8.4883642"
       gradientTransform="matrix(1,0,0,0.994693,0,4.16407e-2)"
       gradientUnits="userSpaceOnUse" />
    <radialGradient
       inkscape:collect="always"
       xlink:href="#linearGradient25546"
       id="radialGradient25568"
       gradientUnits="userSpaceOnUse"
       gradientTransform="matrix(1,0,0,0.994693,0,4.16407e-2)"
       cx="7.8836741"
       cy="0.14505707"
       fx="7.8836741"
       fy="0.14505707"
       r="8.4883642" />
    <radialGradient
       inkscape:collect="always"
       xlink:href="#linearGradient25546"
       id="radialGradient25572"
       gradientUnits="userSpaceOnUse"
       gradientTransform="matrix(1,0,0,0.994693,0,4.16407e-2)"
       cx="7.8836637"
       cy="1.5104795"
       fx="7.8836637"
       fy="1.5104795"
       r="8.4883642" />
  </defs>
  <sodipodi:namedview
     id="base"
     pagecolor="#ffffff"
     bordercolor="#666666"
     borderopacity="1.0"
     inkscape:pageopacity="0.0"
     inkscape:pageshadow="2"
     inkscape:zoom="22.197802"
     inkscape:cx="15.928713"
     inkscape:cy="7.0990099"
     inkscape:current-layer="layer1"
     showgrid="true"
     inkscape:grid-bbox="true"
     inkscape:document-units="px"
     width="24px"
     height="24px"
     showguides="true"
     inkscape:guide-bbox="true"
     inkscape:window-width="872"
     inkscape:window-height="626"
     inkscape:window-x="6"
     inkscape:window-y="94" />
  <metadata
     id="metadata7385">
    <rdf:RDF>
      <cc:Work
         rdf:about="">
        <dc:format>image/svg+xml</dc:format>
        <dc:type
           rdf:resource="http://purl.org/dc/dcmitype/StillImage" />
      </cc:Work>
    </rdf:RDF>
  </metadata>
  <g
     id="layer1"
     inkscape:label="Layer 1"
     inkscape:groupmode="layer">
    <path
       sodipodi:type="arc"
       style="opacity:1;fill:#729fcf;fill-opacity:1;stroke:#204a87;stroke-width:1.0481478;stroke-miterlimit:4;stroke-dasharray:none;stroke-opacity:1"
       id="path7388"
       sodipodi:cx="7.8836637"
       sodipodi:cy="7.8460393"
       sodipodi:rx="7.8836637"
       sodipodi:ry="7.838614"
       d="M 15.767327 7.8460393 A 7.8836637 7.838614 0 1 1  0,7.8460393 A 7.8836637 7.838614 0 1 1  15.767327 7.8460393 z"
       transform="matrix(0.951334,0,0,0.956802,0.5,0.492896)" />
    <path
       style="opacity:1;fill:#3465a4;fill-opacity:1;stroke:none;stroke-width:1;stroke-miterlimit:4;stroke-dasharray:none;stroke-opacity:1"
       d="M 10.90625,2 C 9.7428141,2 8.7812499,2.8959991 8.78125,4 C 8.78125,5.1040008 9.7428141,5.9999999 10.90625,6 C 12.069686,6 13,5.1040007 13,4 C 13,2.8959992 12.069686,2 10.90625,2 z M 4,3 C 2.8960002,3 2,3.8959993 2,5 C 2,5.4301796 2.1436219,5.8299355 2.375,6.15625 C 1.573931,6.5477359 0.99999996,7.6683 1,9 C 1,10.656 1.8960002,12 3,12 C 4.1039998,12 5.0000002,10.655999 5,9 C 5,8.2118079 4.7692756,7.5043072 4.4375,6.96875 C 5.3340078,6.771061 6.0000002,5.9556507 6,5 C 6,3.8959992 5.1039998,3 4,3 z M 11.5,6 C 9.568,6 8.0000001,7.1200004 8,8.5 C 8,9.5086172 8.8261102,10.38618 10.03125,10.78125 C 10.116966,12.025862 10.730396,13 11.5,13 C 12.269604,13 12.883034,12.025862 12.96875,10.78125 C 14.17389,10.38618 15,9.5086171 15,8.5 C 15,7.1200006 13.432,6 11.5,6 z "
       id="path8277" />
    <path
       sodipodi:type="arc"
       style="opacity:0.6;fill:url(#radialGradient25554);fill-opacity:1;stroke:#eeeeec;stroke-width:1.20940173;stroke-miterlimit:4;stroke-dasharray:none;stroke-opacity:1"
       id="path8275"
       sodipodi:cx="7.8836637"
       sodipodi:cy="7.8460393"
       sodipodi:rx="7.8836637"
       sodipodi:ry="7.838614"
       d="M 15.767327 7.8460393 A 7.8836637 7.838614 0 1 1  0,7.8460393 A 7.8836637 7.838614 0 1 1  15.767327 7.8460393 z"
       transform="matrix(0.824489,0,0,0.829228,1.5,1.493846)" />
    <path
       sodipodi:type="arc"
       style="opacity:0.2544643;fill:url(#radialGradient25568);fill-opacity:1;stroke:#eeeeec;stroke-width:1.64813614;stroke-miterlimit:4;stroke-dasharray:none;stroke-opacity:1"
       id="path25566"
       sodipodi:cx="7.8836637"
       sodipodi:cy="7.8460393"
       sodipodi:rx="7.8836637"
       sodipodi:ry="7.838614"
       d="M 15.767327 7.8460393 A 7.8836637 7.838614 0 1 1  0,7.8460393 A 7.8836637 7.838614 0 1 1  15.767327 7.8460393 z"
       transform="matrix(0.443956,0,0,0.829228,4.5,1.493846)" />
    <path
       sodipodi:type="arc"
       style="opacity:0.25892855;fill:url(#radialGradient25572);fill-opacity:1;stroke:#eeeeec;stroke-width:1.64813614;stroke-miterlimit:4;stroke-dasharray:none;stroke-opacity:1"
       id="path25570"
       sodipodi:cx="7.8836637"
       sodipodi:cy="7.8460393"
       sodipodi:rx="7.8836637"
       sodipodi:ry="7.838614"
       d="M 15.767327 7.8460393 A 7.8836637 7.838614 0 1 1  0,7.8460393 A 7.8836637 7.838614 0 1 1  15.767327 7.8460393 z"
       transform="matrix(0,0.443956,-0.829228,0,14.50615,4.5)" />
  </g>
</svg>
