<?xml version="1.0" encoding="UTF-8" standalone="no"?>
<!-- Created with Inkscape (http://www.inkscape.org/) -->
<svg
   xmlns:dc="http://purl.org/dc/elements/1.1/"
   xmlns:cc="http://web.resource.org/cc/"
   xmlns:rdf="http://www.w3.org/1999/02/22-rdf-syntax-ns#"
   xmlns:svg="http://www.w3.org/2000/svg"
   xmlns="http://www.w3.org/2000/svg"
   xmlns:xlink="http://www.w3.org/1999/xlink"
   xmlns:sodipodi="http://inkscape.sourceforge.net/DTD/s odipodi-0.dtd"
   xmlns:inkscape="http://www.inkscape.org/namespaces/inkscape"
   width="16"
   height="16"
   id="svg1307"
   sodipodi:version="0.32"
   inkscape:version="0.43"
   sodipodi:docbase="/home/hbons/Desktop/Gaim Refresh"
   sodipodi:docname="female.svg"
   inkscape:export-filename="/home/hbons/Desktop/Gaim Refresh/female.png"
   inkscape:export-xdpi="90"
   inkscape:export-ydpi="90"
   version="1.0">
  <defs
     id="defs1309">
    <linearGradient
       inkscape:collect="always"
       id="linearGradient2206">
      <stop
         style="stop-color:#c372cf;stop-opacity:1;"
         offset="0"
         id="stop2208" />
      <stop
         style="stop-color:#c372cf;stop-opacity:0;"
         offset="1"
         id="stop2210" />
    </linearGradient>
    <linearGradient
       inkscape:collect="always"
       xlink:href="#linearGradient2206"
       id="linearGradient2212"
       x1="8.7527227"
       y1="8.5870285"
       x2="8.7527227"
       y2="-0.61677557"
       gradientUnits="userSpaceOnUse" />
  </defs>
  <sodipodi:namedview
     id="base"
     pagecolor="#ffffff"
     bordercolor="#666666"
     borderopacity="1.0"
     inkscape:pageopacity="0.0"
     inkscape:pageshadow="2"
     inkscape:zoom="44.395605"
     inkscape:cx="15.206295"
     inkscape:cy="6.2089057"
     inkscape:current-layer="layer1"
     showgrid="true"
     inkscape:grid-bbox="true"
     inkscape:document-units="px"
     fill="#729fcf"
     inkscape:window-width="1268"
     inkscape:window-height="971"
     inkscape:window-x="6"
     inkscape:window-y="21"
     showguides="true"
     inkscape:guide-bbox="true" />
  <metadata
     id="metadata1312">
    <rdf:RDF>
      <cc:Work
         rdf:about="">
        <dc:format>image/svg+xml</dc:format>
        <dc:type
           rdf:resource="http://purl.org/dc/dcmitype/StillImage" />
      </cc:Work>
    </rdf:RDF>
  </metadata>
  <g
     id="layer1"
     inkscape:label="Layer 1"
     inkscape:groupmode="layer">
    <path
       sodipodi:type="arc"
       style="opacity:0.59659095;fill:#ad7fa8;fill-opacity:1;stroke:#ad7fa8;stroke-width:1;stroke-miterlimit:4;stroke-dasharray:none;stroke-opacity:1"
       id="path1305"
       sodipodi:cx="5.0230198"
       sodipodi:cy="5.3570547"
       sodipodi:rx="3.3111386"
       sodipodi:ry="2.6917078"
       d="M 5.2408909,8.0429293 A 3.3111386,2.6917078 0 0 1 5.227167,8.0436417"
       sodipodi:start="1.5049493"
       sodipodi:end="1.5091025"
       sodipodi:open="true" />
    <path
       sodipodi:type="arc"
       style="opacity:0.59659095;fill:#ad7fa8;fill-opacity:1;stroke:#ad7fa8;stroke-width:1;stroke-miterlimit:4;stroke-dasharray:none;stroke-opacity:1"
       id="path1307"
       sodipodi:cx="2.8944306"
       sodipodi:cy="2.8680694"
       sodipodi:rx="1.4303218"
       sodipodi:ry="1.4190594"
       d="M 2.988545,4.2840535 A 1.4303218,1.4190594 0 0 1 2.9826167,4.2844291"
       sodipodi:start="1.5049493"
       sodipodi:end="1.5091025"
       sodipodi:open="true" />
    <path
       style="opacity:1;fill:url(#linearGradient2212);fill-opacity:1.0;stroke:#c7349f;stroke-width:1;stroke-miterlimit:4;stroke-dasharray:none;stroke-opacity:1"
       d="M 8.03125 1.5 C 6.0362037 1.7252787 4.4999999 3.4448511 4.5 5.5 C 4.5 7.3629757 5.7751975 8.9308504 7.5 9.375 L 7.5 10.5 L 5.5 10.5 L 5.5 12.5 L 7.5 12.5 L 7.5 14.5 L 9.5 14.5 L 9.5 12.5 L 11.5 12.5 L 11.5 10.5 L 9.5 10.5 L 9.5 9.375 C 11.224803 8.9308505 12.5 7.3629757 12.5 5.5 C 12.5 3.2920288 10.707789 1.5 8.5 1.5 C 8.3965099 1.5 8.2890204 1.4922668 8.1875 1.5 C 8.1391192 1.5036853 8.0791311 1.4945933 8.03125 1.5 z M 8.34375 3.5 C 8.3943599 3.4961452 8.4484081 3.5 8.5 3.5 C 9.6006259 3.4999999 10.5 4.3993736 10.5 5.5 C 10.5 6.6006265 9.6006264 7.5 8.5 7.5 C 7.3993732 7.5000001 6.5 6.6006264 6.5 5.5 C 6.5 4.4509656 7.3146811 3.5783814 8.34375 3.5 z "
       id="path1313" />
  </g>
</svg>
