<?xml version="1.0" encoding="UTF-8" standalone="no"?>
<!-- Created with Inkscape (http://www.inkscape.org/) -->
<svg
   xmlns:dc="http://purl.org/dc/elements/1.1/"
   xmlns:cc="http://web.resource.org/cc/"
   xmlns:rdf="http://www.w3.org/1999/02/22-rdf-syntax-ns#"
   xmlns:svg="http://www.w3.org/2000/svg"
   xmlns="http://www.w3.org/2000/svg"
   xmlns:xlink="http://www.w3.org/1999/xlink"
   xmlns:sodipodi="http://inkscape.sourceforge.net/DTD/s odipodi-0.dtd"
   xmlns:inkscape="http://www.inkscape.org/namespaces/inkscape"
   width="16"
   height="16"
   id="svg2"
   sodipodi:version="0.32"
   inkscape:version="0.43"
   version="1.0"
   sodipodi:docbase="/home/hbons/Desktop/Gaim Refresh/emblems"
   sodipodi:docname="free-for-chat.svg"
   inkscape:export-filename="/home/hbons/Desktop/Gaim Refresh/emblems/free-for-chat.png"
   inkscape:export-xdpi="90"
   inkscape:export-ydpi="90">
  <defs
     id="defs4">
    <linearGradient
       inkscape:collect="always"
       id="linearGradient2264">
      <stop
         style="stop-color:#eeeeec;stop-opacity:1;"
         offset="0"
         id="stop2266" />
      <stop
         style="stop-color:#eeeeec;stop-opacity:0;"
         offset="1"
         id="stop2268" />
    </linearGradient>
    <linearGradient
       inkscape:collect="always"
       xlink:href="#linearGradient2264"
       id="linearGradient2270"
       x1="8"
       y1="3.5630622"
       x2="8"
       y2="11.671161"
       gradientUnits="userSpaceOnUse" />
  </defs>
  <sodipodi:namedview
     id="base"
     pagecolor="#ffffff"
     bordercolor="#666666"
     borderopacity="1.0"
     inkscape:pageopacity="0.0"
     inkscape:pageshadow="2"
     inkscape:zoom="18.988897"
     inkscape:cx="18.056488"
     inkscape:cy="9.5017395"
     inkscape:document-units="px"
     inkscape:current-layer="layer1"
     showguides="true"
     inkscape:guide-bbox="true"
     showgrid="true"
     fill="#ef2929"
     inkscape:window-width="1268"
     inkscape:window-height="971"
     inkscape:window-x="6"
     inkscape:window-y="21">
    <sodipodi:guide
       orientation="vertical"
       position="-845.97209"
       id="guide1317" />
  </sodipodi:namedview>
  <metadata
     id="metadata7">
    <rdf:RDF>
      <cc:Work
         rdf:about="">
        <dc:format>image/svg+xml</dc:format>
        <dc:type
           rdf:resource="http://purl.org/dc/dcmitype/StillImage" />
      </cc:Work>
    </rdf:RDF>
  </metadata>
  <g
     inkscape:label="Layer 1"
     inkscape:groupmode="layer"
     id="layer1">
    <path
       sodipodi:type="arc"
       style="opacity:1;fill:#ef2929;fill-opacity:1;fill-rule:evenodd;stroke:#a40000;stroke-width:0.88040388;stroke-miterlimit:4;stroke-dasharray:none;stroke-opacity:1"
       id="path2298"
       sodipodi:cx="8.4598217"
       sodipodi:cy="13.254464"
       sodipodi:rx="1.9866072"
       sodipodi:ry="1.5401785"
       d="M 10.446429 13.254464 A 1.9866072 1.5401785 0 1 1  6.4732145,13.254464 A 1.9866072 1.5401785 0 1 1  10.446429 13.254464 z"
       transform="matrix(1.005386,0,0,1.283226,-2.693353e-3,-4.508477)" />
    <path
       style="fill:#73d216;fill-opacity:1;fill-rule:evenodd;stroke:#4e9a06;stroke-width:1;stroke-miterlimit:4;stroke-opacity:1"
       d="M 10.494614,3.4952344 C 10.494614,4.5966047 10.378283,8.5195842 8.4973071,8.5195842 C 6.6332449,8.5195842 6.5,4.5966047 6.5,3.4952344 C 6.5,2.3938653 6.599719,1.5 8.4973071,1.5 C 10.411812,1.5 10.494614,2.3938653 10.494614,3.4952344 z "
       id="path2300"
       sodipodi:nodetypes="czszc" />
    <path
       sodipodi:type="inkscape:offset"
       inkscape:radius="-1.0091907"
       inkscape:original="M 8.5 1.5 C 6.6024119 1.5 6.5 2.3986308 6.5 3.5 C 6.5 4.6013703 6.6359381 8.5312495 8.5 8.53125 C 10.380976 8.53125 10.5 4.6013702 10.5 3.5 C 10.5 2.3986309 10.414505 1.5 8.5 1.5 z "
       xlink:href="#path2300"
       style="fill:none;fill-opacity:1;fill-rule:evenodd;stroke:#ffffff;stroke-width:1;stroke-miterlimit:4;stroke-opacity:1;opacity:0.4"
       id="path2303"
       inkscape:href="#path2300"
       d="M 8.5,2.5 C 7.7105117,2.5 7.6157621,2.6571515 7.59375,2.6875 C 7.5717379,2.7178485 7.5,2.9805956 7.5,3.5 C 7.5,4.0091649 7.5492869,5.2143203 7.78125,6.1875 C 7.8972316,6.6740899 8.0667087,7.0991963 8.21875,7.3125 C 8.3707913,7.5258037 8.3885863,7.53125 8.5,7.53125 C 8.6188309,7.53125 8.629492,7.5247939 8.78125,7.3125 C 8.933008,7.1002061 9.1038304,6.6734831 9.21875,6.1875 C 9.4485893,5.2155339 9.5,4.014331 9.5,3.5 C 9.5,2.9754286 9.4251548,2.7137758 9.40625,2.6875 C 9.3873452,2.6612242 9.2993544,2.5 8.5,2.5 z " />
    <path
       sodipodi:type="arc"
       style="opacity:0.3;fill:none;fill-opacity:1;fill-rule:evenodd;stroke:#ffffff;stroke-width:1.73399174;stroke-miterlimit:4;stroke-dasharray:none;stroke-opacity:1"
       id="path2305"
       sodipodi:cx="8.4598217"
       sodipodi:cy="13.254464"
       sodipodi:rx="1.9866072"
       sodipodi:ry="1.5401785"
       d="M 10.446429 13.254464 A 1.9866072 1.5401785 0 1 1  6.4732145,13.254464 A 1.9866072 1.5401785 0 1 1  10.446429 13.254464 z"
       transform="matrix(0.505976,0,0,0.657319,4.22108,3.796914)" />
    <path
       sodipodi:type="arc"
       style="opacity:1;fill:#73d216;fill-opacity:1;fill-rule:evenodd;stroke:#4e9a06;stroke-width:0.88040388;stroke-miterlimit:4;stroke-dasharray:none;stroke-opacity:1"
       id="path2307"
       sodipodi:cx="8.4598217"
       sodipodi:cy="13.254464"
       sodipodi:rx="1.9866072"
       sodipodi:ry="1.5401785"
       d="M 10.446429 13.254464 A 1.9866072 1.5401785 0 1 1  6.4732145,13.254464 A 1.9866072 1.5401785 0 1 1  10.446429 13.254464 z"
       transform="matrix(1.005386,0,0,1.283226,-2.693353e-3,-4.508477)" />
    <path
       sodipodi:type="arc"
       style="opacity:0.4;fill:none;fill-opacity:1;fill-rule:evenodd;stroke:#ffffff;stroke-width:1.73399174;stroke-miterlimit:4;stroke-dasharray:none;stroke-opacity:1"
       id="path2309"
       sodipodi:cx="8.4598217"
       sodipodi:cy="13.254464"
       sodipodi:rx="1.9866072"
       sodipodi:ry="1.5401785"
       d="M 10.446429 13.254464 A 1.9866072 1.5401785 0 1 1  6.4732145,13.254464 A 1.9866072 1.5401785 0 1 1  10.446429 13.254464 z"
       transform="matrix(0.505976,0,0,0.657319,4.22108,3.796914)" />
  </g>
</svg>
