<?xml version="1.0" encoding="UTF-8" standalone="no"?>
<!-- Created with Inkscape (http://www.inkscape.org/) -->
<svg
   xmlns:dc="http://purl.org/dc/elements/1.1/"
   xmlns:cc="http://creativecommons.org/ns#"
   xmlns:rdf="http://www.w3.org/1999/02/22-rdf-syntax-ns#"
   xmlns:svg="http://www.w3.org/2000/svg"
   xmlns="http://www.w3.org/2000/svg"
   xmlns:xlink="http://www.w3.org/1999/xlink"
   xmlns:sodipodi="http://sodipodi.sourceforge.net/DTD/sodipodi-0.dtd"
   xmlns:inkscape="http://www.inkscape.org/namespaces/inkscape"
   width="16"
   height="16"
   id="svg2"
   sodipodi:version="0.32"
   inkscape:version="0.46"
   version="1.0"
   sodipodi:docbase="/home/hbons/Desktop/Gaim Refresh/emblems"
   sodipodi:docname="not-authorized.svg"
   inkscape:export-filename="/home/hbons/Desktop/Gaim Refresh/emblems/voice.png"
   inkscape:export-xdpi="90"
   inkscape:export-ydpi="90"
   inkscape:output_extension="org.inkscape.output.svg.inkscape">
  <defs
     id="defs4">
    <linearGradient
       inkscape:collect="always"
       id="linearGradient3300">
      <stop
         style="stop-color:#eeeeec;stop-opacity:1;"
         offset="0"
         id="stop3302" />
      <stop
         style="stop-color:#eeeeec;stop-opacity:0;"
         offset="1"
         id="stop3304" />
    </linearGradient>
    <linearGradient
       inkscape:collect="always"
       xlink:href="#linearGradient3300"
       id="linearGradient3306"
       x1="8.6152382"
       y1="-9.8347273"
       x2="8.6152382"
       y2="12.348849"
       gradientUnits="userSpaceOnUse" />
  </defs>
  <sodipodi:namedview
     id="base"
     pagecolor="#ffffff"
     bordercolor="#666666"
     borderopacity="1.0"
     inkscape:pageopacity="0.0"
     inkscape:pageshadow="2"
     inkscape:zoom="39.000665"
     inkscape:cx="13.905353"
     inkscape:cy="8.018215"
     inkscape:document-units="px"
     inkscape:current-layer="layer1"
     showgrid="true"
     fill="#eeeeec"
     showguides="true"
     inkscape:guide-bbox="true"
     inkscape:window-width="1268"
     inkscape:window-height="971"
     inkscape:window-x="6"
     inkscape:window-y="21" />
  <metadata
     id="metadata7">
    <rdf:RDF>
      <cc:Work
         rdf:about="">
        <dc:format>image/svg+xml</dc:format>
        <dc:type
           rdf:resource="http://purl.org/dc/dcmitype/StillImage" />
      </cc:Work>
    </rdf:RDF>
  </metadata>
  <g
     inkscape:label="Layer 1"
     inkscape:groupmode="layer"
     id="layer1">
    <rect
       style="opacity:1;fill:#5c3566;fill-opacity:1;fill-rule:evenodd;stroke:#204a87;stroke-width:1;stroke-miterlimit:4;stroke-dasharray:none;stroke-opacity:1"
       id="rect2200"
       width="0"
       height="1"
       x="13"
       y="4" />
    <path
       style="opacity:1;fill:#ef2929;fill-opacity:1;fill-rule:evenodd;stroke:none;stroke-width:0.99999976;stroke-miterlimit:4;stroke-dasharray:none;stroke-opacity:1"
       d="M 7.4375 0.5 C 3.5645752 0.79220137 0.49999998 4.0537353 0.5 8 C 0.5 12.138223 3.8611989 15.5 8 15.5 C 12.138801 15.5 15.5 12.138223 15.5 8 C 15.5 3.8617774 12.138801 0.49999998 8 0.5 C 7.8706625 0.49999998 7.7527358 0.49351902 7.625 0.5 C 7.563128 0.50313923 7.498975 0.49536188 7.4375 0.5 z M 7.59375 2.5 C 7.6388078 2.4965991 7.6733994 2.502301 7.71875 2.5 C 7.812377 2.4952496 7.905199 2.5 8 2.5 C 8.9717099 2.5 9.8946048 2.7438747 10.6875 3.1875 L 3.1875 10.6875 C 2.7438131 9.8947148 2.5 8.9715754 2.5 8 C 2.5000001 5.1074903 4.7551106 2.7142577 7.59375 2.5 z M 12.8125 5.3125 C 13.256187 6.1052852 13.5 7.0284247 13.5 8 C 13.5 11.03321 11.033631 13.5 8 13.5 C 7.0282899 13.5 6.1053952 13.256125 5.3125 12.8125 L 12.8125 5.3125 z "
       id="path3298" />
    <path
       style="opacity:1;fill:url(#linearGradient3306);fill-opacity:1.0;fill-rule:evenodd;stroke:#a40000;stroke-width:0.99999976;stroke-miterlimit:4;stroke-dasharray:none;stroke-opacity:1"
       d="M 7.4375 0.5 C 3.5645752 0.79220137 0.49999998 4.0537353 0.5 8 C 0.5 12.138223 3.8611989 15.5 8 15.5 C 12.138801 15.5 15.5 12.138223 15.5 8 C 15.5 3.8617774 12.138801 0.49999998 8 0.5 C 7.8706625 0.49999998 7.7527358 0.49351902 7.625 0.5 C 7.563128 0.50313923 7.498975 0.49536188 7.4375 0.5 z M 7.59375 2.5 C 7.6388078 2.4965991 7.6733994 2.502301 7.71875 2.5 C 7.812377 2.4952496 7.905199 2.5 8 2.5 C 8.9717099 2.5 9.8946048 2.7438747 10.6875 3.1875 L 3.1875 10.6875 C 2.7438131 9.8947148 2.5 8.9715754 2.5 8 C 2.5000001 5.1074903 4.7551106 2.7142577 7.59375 2.5 z M 12.8125 5.3125 C 13.256187 6.1052852 13.5 7.0284247 13.5 8 C 13.5 11.03321 11.033631 13.5 8 13.5 C 7.0282899 13.5 6.1053952 13.256125 5.3125 12.8125 L 12.8125 5.3125 z "
       id="path3278" />
  </g>
</svg>
