<?xml version="1.0" encoding="UTF-8" standalone="no"?>
<!DOCTYPE svg PUBLIC "-//W3C//DTD SVG 1.0//EN"
"http://www.w3.org/TR/2001/REC-SVG-20010904/DTD/svg10.dtd">
<!-- Created with Sodipodi ("http://www.sodipodi.com/") -->
<svg
   id="svg656"
   sodipodi:version="0.34"
   xmlns="http://www.w3.org/2000/svg"
   xmlns:sodipodi="http://sodipodi.sourceforge.net/DTD/sodipodi-0.dtd"
   xmlns:xlink="http://www.w3.org/1999/xlink"
   width="32pt"
   height="32pt"
   xml:space="preserve"
   sodipodi:docbase="/home/build"
   sodipodi:docname="/home/build/founder.svg"><defs
   id="defs658"><linearGradient
   id="linearGradient665"><stop
   style="stop-color:#e50000;stop-opacity:1;"
   offset="0"
   id="stop666" /><stop
   style="stop-color:#fffd00;stop-opacity:1;"
   offset="1"
   id="stop667" /></linearGradient><linearGradient
   id="linearGradient660"><stop
   style="stop-color:#ffff2f;stop-opacity:1;"
   offset="0"
   id="stop661" /><stop
   style="stop-color:#e50000;stop-opacity:1;"
   offset="1"
   id="stop662" /></linearGradient><linearGradient
   xlink:href="#linearGradient665"
   id="linearGradient663"
   x1="8.26311464e-8"
   y1="-1.55637082e-7"
   x2="1.00000024"
   y2="-1.55637082e-7"
   spreadMethod="pad"
   gradientUnits="objectBoundingBox" /><radialGradient
   xlink:href="#linearGradient665"
   id="radialGradient664"
   cx="0.5"
   cy="0.5"
   r="0.5"
   fx="0.5"
   fy="0.5" /><radialGradient
   xlink:href="#linearGradient665"
   id="radialGradient668"
   cx="0.42774564"
   cy="0.47096771"
   r="0.55007958"
   fx="0.42774564"
   fy="0.47096771"
   spreadMethod="pad" /></defs><sodipodi:namedview
   id="base"
   showgrid="false"
   snaptogrid="false"
   snaptoguides="false" /><path
   sodipodi:type="spiral"
   style="font-size:12;fill:url(#radialGradient664);fill-rule:evenodd;stroke:#000000;stroke-width:1.9759;fill-opacity:1;stroke-dasharray:none;stroke-linejoin:bevel;stroke-linecap:round;stroke-opacity:1;"
   id="path659"
   sodipodi:cx="4.48084641"
   sodipodi:cy="5.90660334"
   sodipodi:expansion="1"
   sodipodi:revolution="3"
   sodipodi:radius="17.6416454"
   sodipodi:argument="-18.0953979"
   sodipodi:t0="0"
   d="M 4.480846 5.906603 C 4.935488 6.582345 4.122899 7.106161 3.47428 6.97811 C 2.10434 6.707657 1.812772 4.978034 2.337832 3.893471 C 3.267143 1.97389 5.798381 1.652043 7.500546 2.692082 C 9.982851 4.208796 10.33764 7.631665 8.766874 9.932869 C 6.682602 12.98637 2.341894 13.37245 -0.551986 11.26414 C -4.181049 8.620212 -4.597599 3.350751 -1.948195 -0.132795 C 1.251495 -4.339882 7.45529 -4.786495 11.52681 -1.593945 C 16.31342 2.159319 16.78989 9.300695 13.0529 13.95914 C 8.747414 19.32625 0.666401 19.83246 -4.578251 15.55017 C -10.52654 10.69335 -11.06243 1.671308 -6.234223 -4.159061 C -0.826688 -10.68901 9.137353 -11.25453 15.55308 -5.879973 C 22.66503 0.077829 23.26017 10.9846 17.33893 17.9854 "
   transform="matrix(-1.195682,0,0,1.195682,26.97744,14.72193)" /></svg>
