/* XPM */
static char * available_xa_xpm[] = {
"12 14 10 1",
" 	c None",
".	c #FF0000",
"+	c #333333",
"@	c #FFFF00",
"#	c #7F0000",
"$	c #666666",
"%	c #FFFFFF",
"&	c #000000",
"*	c #B2B2B2",
"=	c #4C4C4C",
"   .+++.    ",
"  .+@@@+.   ",
"  .@@@@@.## ",
" +.@$@##.%# ",
" +.###%%%&&#",
"##.%%%*%&&%#",
"#%*&*&%&%*&#",
"#%&%&&%&&%&#",
"#%&%&%&&%%%#",
" #*&*%%%### ",
" #%%####    ",
" ###+&&=    ",
"    +++     ",
"            "};
