/* XPM */
static char * available_dnd_xpm[] = {
"12 14 8 1",
" 	c None",
".	c #333333",
"+	c #FFFF00",
"@	c #666666",
"#	c #7F0000",
"$	c #FF0000",
"%	c #FFFFFF",
"&	c #4C4C4C",
"   ...      ",
"  .+++.     ",
" .+++++.    ",
".++@+@++.   ",
".+@+@+@+.   ",
".+@+++###   ",
" .+@+#$$$#  ",
" .+@#%@$@%# ",
"  .#$@%@%@$#",
"  .#$$@%@$$#",
"  &#$@%@%@$#",
"  &.#%@$@%# ",
"   ..#$$$#  ",
"      ###   "};
