<?xml version="1.0" encoding="UTF-8" standalone="no"?>
<!-- Created with Inkscape (http://www.inkscape.org/) -->
<svg
   xmlns:dc="http://purl.org/dc/elements/1.1/"
   xmlns:cc="http://web.resource.org/cc/"
   xmlns:rdf="http://www.w3.org/1999/02/22-rdf-syntax-ns#"
   xmlns:svg="http://www.w3.org/2000/svg"
   xmlns="http://www.w3.org/2000/svg"
   xmlns:xlink="http://www.w3.org/1999/xlink"
   xmlns:sodipodi="http://inkscape.sourceforge.net/DTD/s odipodi-0.dtd"
   xmlns:inkscape="http://www.inkscape.org/namespaces/inkscape"
   width="24"
   height="24"
   id="svg2"
   sodipodi:version="0.32"
   inkscape:version="0.43"
   version="1.0"
   sodipodi:docbase="/home/hbons/Desktop/Gaim Refresh/protocols"
   sodipodi:docname="aim.svg"
   inkscape:export-filename="/home/hbons/Desktop/Gaim Refresh/protocols/aim.png"
   inkscape:export-xdpi="90"
   inkscape:export-ydpi="90">
  <defs
     id="defs4">
    <linearGradient
       inkscape:collect="always"
       id="linearGradient2263">
      <stop
         style="stop-color:#edc100;stop-opacity:1;"
         offset="0"
         id="stop2265" />
      <stop
         style="stop-color:#edc100;stop-opacity:0;"
         offset="1"
         id="stop2267" />
    </linearGradient>
    <linearGradient
       inkscape:collect="always"
       id="linearGradient2255">
      <stop
         style="stop-color:#edc100;stop-opacity:1;"
         offset="0"
         id="stop2257" />
      <stop
         style="stop-color:#edc100;stop-opacity:0;"
         offset="1"
         id="stop2259" />
    </linearGradient>
    <linearGradient
       inkscape:collect="always"
       id="linearGradient3150">
      <stop
         style="stop-color:#2e3436;stop-opacity:1;"
         offset="0"
         id="stop3152" />
      <stop
         style="stop-color:#2e3436;stop-opacity:0;"
         offset="1"
         id="stop3154" />
    </linearGradient>
    <radialGradient
       inkscape:collect="always"
       xlink:href="#linearGradient3150"
       id="radialGradient3156"
       cx="10.748654"
       cy="10.457643"
       fx="10.748654"
       fy="10.457643"
       r="6.6449099"
       gradientTransform="matrix(-0.842757,5.698892e-16,-4.565819e-9,-0.35721,19.80716,14.19321)"
       gradientUnits="userSpaceOnUse" />
    <radialGradient
       inkscape:collect="always"
       xlink:href="#linearGradient3150"
       id="radialGradient4330"
       gradientUnits="userSpaceOnUse"
       gradientTransform="matrix(-0.842757,5.698892e-16,-4.565819e-9,-0.35721,19.80716,14.19321)"
       cx="10.748654"
       cy="10.457643"
       fx="10.748654"
       fy="10.457643"
       r="6.6449099" />
    <linearGradient
       inkscape:collect="always"
       xlink:href="#linearGradient2255"
       id="linearGradient2261"
       x1="12.514956"
       y1="18.246853"
       x2="12.514956"
       y2="-0.22752593"
       gradientUnits="userSpaceOnUse" />
    <linearGradient
       inkscape:collect="always"
       xlink:href="#linearGradient2263"
       id="linearGradient2269"
       x1="11.725797"
       y1="6.7099471"
       x2="11.725797"
       y2="-1.7656245"
       gradientUnits="userSpaceOnUse" />
  </defs>
  <sodipodi:namedview
     id="base"
     pagecolor="#ffffff"
     bordercolor="#666666"
     borderopacity="1.0"
     inkscape:pageopacity="0.0"
     inkscape:pageshadow="2"
     inkscape:zoom="18.194454"
     inkscape:cx="21.028138"
     inkscape:cy="12.129637"
     inkscape:document-units="px"
     inkscape:current-layer="layer1"
     showgrid="true"
     fill="#edd400"
     showguides="true"
     inkscape:guide-bbox="true"
     inkscape:window-width="1268"
     inkscape:window-height="971"
     inkscape:window-x="6"
     inkscape:window-y="21" />
  <metadata
     id="metadata7">
    <rdf:RDF>
      <cc:Work
         rdf:about="">
        <dc:format>image/svg+xml</dc:format>
        <dc:type
           rdf:resource="http://purl.org/dc/dcmitype/StillImage" />
      </cc:Work>
    </rdf:RDF>
  </metadata>
  <g
     inkscape:label="Layer 1"
     inkscape:groupmode="layer"
     id="layer1">
    <path
       style="opacity:1;fill:#ffffff;fill-opacity:1;stroke:none;stroke-width:0.99999988;stroke-miterlimit:4;stroke-dasharray:none;stroke-opacity:1"
       d="M 11.958337,8.6532903 C 10.214088,7.6488702 9.8526923,12.097445 8.6371785,14.197294 C 7.4474897,16.252529 3.5065645,17.589535 3.5065645,17.589535 L 5.9517457,22.489783 L 11.922453,16.916072 C 11.922453,16.916072 15.933817,19.534872 17.160901,22.390612 L 20.390534,19.246933 C 20.390534,19.246933 18.693358,15.872721 14.921211,13.538266 L 20.491001,12.72627 L 19.715221,8.8524949 C 16.110632,9.7210318 13.926705,9.7867691 11.958337,8.6532903 z "
       id="path1322"
       sodipodi:nodetypes="czccccccccs" />
    <path
       sodipodi:type="arc"
       style="opacity:1;fill:#ffffff;fill-opacity:1;stroke:none;stroke-width:1.45242631;stroke-miterlimit:4;stroke-dasharray:none;stroke-opacity:1"
       id="path1324"
       sodipodi:cx="10.555883"
       sodipodi:cy="4.0385542"
       sodipodi:rx="5.074944"
       sodipodi:ry="5.074944"
       d="M 15.630827 4.0385542 A 5.074944 5.074944 0 1 1  5.4809394,4.0385542 A 5.074944 5.074944 0 1 1  15.630827 4.0385542 z"
       transform="matrix(0.688186,0,0,0.688819,6.743084,1.213885)" />
    <path
       sodipodi:type="arc"
       style="opacity:0.25;fill:url(#radialGradient4330);fill-opacity:1;stroke:none;stroke-width:1;stroke-miterlimit:4;stroke-dasharray:none;stroke-opacity:1"
       id="path3140"
       sodipodi:cx="10.748654"
       sodipodi:cy="10.457643"
       sodipodi:rx="6.6449099"
       sodipodi:ry="2.3675451"
       d="M 17.393564 10.457643 A 6.6449099 2.3675451 0 1 1  4.1037445,10.457643 A 6.6449099 2.3675451 0 1 1  17.393564 10.457643 z"
       transform="matrix(1.805894,0,0,1.300982,-7.410933,6.474929)" />
    <path
       style="opacity:1;fill:url(#linearGradient2261);fill-opacity:1.0;stroke:#c4a000;stroke-width:0.99999988;stroke-miterlimit:4;stroke-dasharray:none;stroke-opacity:1"
       d="M 11.958337,8.6532903 C 10.214088,7.6488702 9.8526923,12.097445 8.6371785,14.197294 C 7.4474897,16.252529 3.5065645,17.589535 3.5065645,17.589535 L 5.9517457,22.489783 L 11.922453,16.916072 C 11.922453,16.916072 15.933817,19.534872 17.160901,22.390612 L 20.390534,19.246933 C 20.390534,19.246933 18.693358,15.872721 14.921211,13.538266 L 20.491001,12.72627 L 19.715221,8.8524949 C 16.110632,9.7210318 13.926705,9.7867691 11.958337,8.6532903 z "
       id="path4275"
       sodipodi:nodetypes="czccccccccs" />
    <path
       sodipodi:type="inkscape:offset"
       inkscape:radius="-0.97533494"
       inkscape:original="M 11.96875 8.65625 C 10.224501 7.6518295 9.8405138 12.087651 8.625 14.1875 C 7.4353113 16.242735 3.5 17.59375 3.5 17.59375 L 5.9375 22.5 L 11.9375 16.90625 C 11.9375 16.906249 15.929166 19.51926 17.15625 22.375 L 20.375 19.25 C 20.375001 19.25 18.678397 15.865705 14.90625 13.53125 L 20.5 12.71875 L 19.71875 8.84375 C 16.114161 9.7122866 13.937118 9.7897288 11.96875 8.65625 z "
       xlink:href="#path4275"
       style="opacity:0.5;fill:none;fill-opacity:1;stroke:#ffffff;stroke-width:0.99999988;stroke-miterlimit:4;stroke-dasharray:none;stroke-opacity:1"
       id="path4304"
       inkscape:href="#path4275"
       d="M 11.5625,9.53125 C 11.452518,9.6624786 11.20418,10.047821 11,10.59375 C 10.56791,11.749055 10.203376,13.418405 9.46875,14.6875 C 8.6867322,16.038467 7.2662927,16.899179 6.0625,17.53125 C 5.412514,17.872536 5.2627915,17.893887 4.84375,18.0625 L 6.21875,20.90625 L 11.28125,16.1875 C 11.609827,15.89012 12.09758,15.851614 12.46875,16.09375 C 12.46875,16.09375 13.514111,16.786729 14.71875,17.84375 C 15.622229,18.636516 16.558838,19.686944 17.3125,20.84375 L 19.125,19.125 C 18.707223,18.391513 17.391924,16.222734 14.40625,14.375 C 14.042988,14.164323 13.855332,13.744801 13.940413,13.333577 C 14.025494,12.922352 14.364213,12.611735 14.78125,12.5625 L 19.34375,11.90625 L 18.9375,9.96875 C 15.910346,10.738935 13.497199,10.615244 11.5625,9.53125 z " />
    <path
       sodipodi:type="arc"
       style="opacity:1;fill:url(#linearGradient2269);fill-opacity:1.0;stroke:#c4a000;stroke-width:1.45242631;stroke-miterlimit:4;stroke-dasharray:none;stroke-opacity:1"
       id="path4302"
       sodipodi:cx="10.555883"
       sodipodi:cy="4.0385542"
       sodipodi:rx="5.074944"
       sodipodi:ry="5.074944"
       d="M 15.630827 4.0385542 A 5.074944 5.074944 0 1 1  5.4809394,4.0385542 A 5.074944 5.074944 0 1 1  15.630827 4.0385542 z"
       transform="matrix(0.688186,0,0,0.688819,6.743084,1.213885)" />
    <path
       sodipodi:type="arc"
       style="opacity:0.5;fill:#fce94f;fill-opacity:1;stroke:#ffffff;stroke-width:2.02834463;stroke-miterlimit:4;stroke-dasharray:none;stroke-opacity:1"
       id="path4273"
       sodipodi:cx="10.555883"
       sodipodi:cy="4.0385542"
       sodipodi:rx="5.074944"
       sodipodi:ry="5.074944"
       d="M 15.630827 4.0385542 A 5.074944 5.074944 0 1 1  5.4809394,4.0385542 A 5.074944 5.074944 0 1 1  15.630827 4.0385542 z"
       transform="matrix(0.492994,0,0,0.493032,8.79793,2.010973)" />
  </g>
</svg>
