<?xml version="1.0" encoding="UTF-8" standalone="no"?>
<!-- Created with Inkscape (http://www.inkscape.org/) -->
<svg
   xmlns:dc="http://purl.org/dc/elements/1.1/"
   xmlns:cc="http://creativecommons.org/ns#"
   xmlns:rdf="http://www.w3.org/1999/02/22-rdf-syntax-ns#"
   xmlns:svg="http://www.w3.org/2000/svg"
   xmlns="http://www.w3.org/2000/svg"
   xmlns:xlink="http://www.w3.org/1999/xlink"
   xmlns:sodipodi="http://sodipodi.sourceforge.net/DTD/sodipodi-0.dtd"
   xmlns:inkscape="http://www.inkscape.org/namespaces/inkscape"
   width="24"
   height="24"
   id="svg2"
   sodipodi:version="0.32"
   inkscape:version="0.46"
   version="1.0"
   sodipodi:docbase="/home/hbons/Desktop/Gaim Refresh/protocols"
   sodipodi:docname="bonjour.svg"
   inkscape:export-filename="/home/hbons/Desktop/Gaim Refresh/protocols/bonjour.png"
   inkscape:export-xdpi="90"
   inkscape:export-ydpi="90"
   inkscape:output_extension="org.inkscape.output.svg.inkscape">
  <defs
     id="defs4">
    <linearGradient
       inkscape:collect="always"
       id="linearGradient3150">
      <stop
         style="stop-color:#2e3436;stop-opacity:1;"
         offset="0"
         id="stop3152" />
      <stop
         style="stop-color:#2e3436;stop-opacity:0;"
         offset="1"
         id="stop3154" />
    </linearGradient>
    <radialGradient
       inkscape:collect="always"
       xlink:href="#linearGradient3150"
       id="radialGradient3156"
       cx="10.748654"
       cy="10.457643"
       fx="10.748654"
       fy="10.457643"
       r="6.6449099"
       gradientTransform="matrix(-0.842757,5.698892e-16,-4.565819e-9,-0.35721,19.80716,14.19321)"
       gradientUnits="userSpaceOnUse" />
  </defs>
  <sodipodi:namedview
     id="base"
     pagecolor="#ffffff"
     bordercolor="#666666"
     borderopacity="1.0"
     inkscape:pageopacity="0.0"
     inkscape:pageshadow="2"
     inkscape:zoom="24.007726"
     inkscape:cx="19.418659"
     inkscape:cy="14.593926"
     inkscape:document-units="px"
     inkscape:current-layer="layer1"
     showgrid="true"
     fill="#babdb6"
     inkscape:window-width="1268"
     inkscape:window-height="971"
     inkscape:window-x="6"
     inkscape:window-y="21" />
  <metadata
     id="metadata7">
    <rdf:RDF>
      <cc:Work
         rdf:about="">
        <dc:format>image/svg+xml</dc:format>
        <dc:type
           rdf:resource="http://purl.org/dc/dcmitype/StillImage" />
      </cc:Work>
    </rdf:RDF>
  </metadata>
  <g
     inkscape:label="Layer 1"
     inkscape:groupmode="layer"
     id="layer1">
    <image
       id="image2218"
       height="24.071428"
       width="23.131142"
       sodipodi:absref="/home/hbons/Desktop/indextop20050412.jpg"
       xlink:href="/home/hbons/Desktop/indextop20050412.jpg"
       x="0"
       y="1.0807102"
       style="opacity:0" />
    <path
       sodipodi:type="arc"
       style="opacity:0.35;fill:url(#radialGradient3156);fill-opacity:1;stroke:none;stroke-width:1;stroke-miterlimit:4;stroke-dasharray:none;stroke-opacity:1"
       id="path3140"
       sodipodi:cx="10.748654"
       sodipodi:cy="10.457643"
       sodipodi:rx="6.6449099"
       sodipodi:ry="2.3675451"
       d="M 17.393564 10.457643 A 6.6449099 2.3675451 0 1 1  4.1037445,10.457643 A 6.6449099 2.3675451 0 1 1  17.393564 10.457643 z"
       transform="matrix(1.805894,0,0,1.478326,-7.410926,5.0402)" />
    <path
       sodipodi:type="arc"
       style="opacity:1;fill:#f57900;fill-opacity:1;stroke:#ce5c00;stroke-width:1.18495774;stroke-miterlimit:4;stroke-dasharray:none;stroke-opacity:1"
       id="path3210"
       sodipodi:cx="5.6698728"
       sodipodi:cy="3.7607069"
       sodipodi:rx="2.7512043"
       sodipodi:ry="2.0574222"
       d="M 8.421077 3.7607069 A 2.7512043 2.0574222 0 1 1  2.9186685,3.7607069 A 2.7512043 2.0574222 0 1 1  8.421077 3.7607069 z"
       transform="matrix(0.728546,0,0,0.977547,0.373616,1.964643)" />
    <path
       style="fill:#babdb6;fill-opacity:1;stroke:#888a85;stroke-width:1;stroke-miterlimit:4;stroke-opacity:1"
       d="M 26.5,4.3717336 C 30.06901,-1.9135499 35.080181,2.3148691 35.080181,5.6521385 L 32.664416,4.7456069 C 31.625041,2.6021767 26.5,4.3717336 26.5,4.3717336 z "
       id="rect3251"
       sodipodi:nodetypes="cccc" />
    <path
       sodipodi:type="arc"
       style="opacity:1;fill:#f57900;fill-opacity:1;stroke:#ce5c00;stroke-width:1.18495774;stroke-miterlimit:4;stroke-dasharray:none;stroke-opacity:1"
       id="path3265"
       sodipodi:cx="5.6698728"
       sodipodi:cy="3.7607069"
       sodipodi:rx="2.7512043"
       sodipodi:ry="2.0574222"
       d="M 8.421077 3.7607069 A 2.7512043 2.0574222 0 1 1  2.9186685,3.7607069 A 2.7512043 2.0574222 0 1 1  8.421077 3.7607069 z"
       transform="matrix(0.728546,0,0,0.977547,16.36486,1.964643)" />
    <path
       sodipodi:type="arc"
       style="opacity:1;fill:#f57900;fill-opacity:1;stroke:#ce5c00;stroke-width:1.18495774;stroke-miterlimit:4;stroke-dasharray:none;stroke-opacity:1"
       id="path3267"
       sodipodi:cx="5.6698728"
       sodipodi:cy="3.7607069"
       sodipodi:rx="2.7512043"
       sodipodi:ry="2.0574222"
       d="M 8.421077 3.7607069 A 2.7512043 2.0574222 0 1 1  2.9186685,3.7607069 A 2.7512043 2.0574222 0 1 1  8.421077 3.7607069 z"
       transform="matrix(0.728546,0,0,0.977547,8.383099,14.96465)" />
    <path
       sodipodi:type="arc"
       style="opacity:0.35;fill:none;fill-opacity:1;stroke:#ffffff;stroke-width:2.36390281;stroke-miterlimit:4;stroke-dasharray:none;stroke-opacity:1"
       id="path3278"
       sodipodi:cx="5.6698728"
       sodipodi:cy="3.7607069"
       sodipodi:rx="2.7512043"
       sodipodi:ry="2.0574222"
       d="M 8.421077 3.7607069 A 2.7512043 2.0574222 0 1 1  2.9186685,3.7607069 A 2.7512043 2.0574222 0 1 1  8.421077 3.7607069 z"
       transform="matrix(0.3652,0,0,0.490017,2.442502,3.775647)" />
    <path
       sodipodi:type="arc"
       style="opacity:0.35;fill:none;fill-opacity:1;stroke:#ffffff;stroke-width:2.36390281;stroke-miterlimit:4;stroke-dasharray:none;stroke-opacity:1"
       id="path3280"
       sodipodi:cx="5.6698728"
       sodipodi:cy="3.7607069"
       sodipodi:rx="2.7512043"
       sodipodi:ry="2.0574222"
       d="M 8.421077 3.7607069 A 2.7512043 2.0574222 0 1 1  2.9186685,3.7607069 A 2.7512043 2.0574222 0 1 1  8.421077 3.7607069 z"
       transform="matrix(0.3652,0,0,0.490017,18.41586,3.801155)" />
    <path
       sodipodi:type="arc"
       style="opacity:0.35;fill:none;fill-opacity:1;stroke:#ffffff;stroke-width:2.36390281;stroke-miterlimit:4;stroke-dasharray:none;stroke-opacity:1"
       id="path3282"
       sodipodi:cx="5.6698728"
       sodipodi:cy="3.7607069"
       sodipodi:rx="2.7512043"
       sodipodi:ry="2.0574222"
       d="M 8.421077 3.7607069 A 2.7512043 2.0574222 0 1 1  2.9186685,3.7607069 A 2.7512043 2.0574222 0 1 1  8.421077 3.7607069 z"
       transform="matrix(0.3652,0,0,0.490017,10.4341,16.79505)" />
    <path
       style="opacity:1;fill:#babdb6;fill-opacity:1;stroke:#888a85;stroke-width:0.99999976;stroke-miterlimit:4;stroke-opacity:1"
       d="M 7.7318759,2.7396133 C 12.169337,3.9286259 14.955511,8.0423718 15.280153,9.2539565 C 14.057144,8.5478522 8.4371398,5.666617 8.4371398,5.666617 L 7.7318759,2.7396133 z "
       id="rect3098"
       sodipodi:nodetypes="cccc" />
    <path
       style="opacity:1;fill:#babdb6;fill-opacity:1;stroke:#888a85;stroke-width:0.99999893;stroke-miterlimit:4;stroke-opacity:1"
       d="M 8.2402219,17.350151 C 6.3014525,13.204266 8.7140226,9.106829 9.6009641,8.2198893 C 9.6009631,9.6320977 10.392827,15.689612 10.392827,15.689612 L 8.2402219,17.350151 z "
       id="path3101"
       sodipodi:nodetypes="cccc" />
    <path
       style="opacity:1;fill:#babdb6;fill-opacity:1;stroke:#888a85;stroke-width:0.99999946;stroke-miterlimit:4;stroke-opacity:1"
       d="M 20.999419,10.287708 C 17.750972,13.53615 13.261202,14.092622 12.049619,13.767978 C 13.272629,13.061875 18.044934,9.5274806 18.044934,9.5274806 L 20.999419,10.287708 z "
       id="path3103"
       sodipodi:nodetypes="cccc" />
    <path
       style="opacity:1;fill:#babdb6;fill-opacity:1;stroke:#888a85;stroke-width:0.99999946;stroke-miterlimit:4;stroke-opacity:1"
       d="M 1.5549628,8.708934 C 1.5526429,11.954488 4.7660086,13.487253 6.3046441,13.487253 C 5.4626496,12.028876 3.7044795,9.4471457 3.7044795,9.4471457 L 1.5549628,8.708934 z "
       id="path3105"
       sodipodi:nodetypes="cccc" />
    <path
       style="opacity:1;fill:#babdb6;fill-opacity:1;stroke:#888a85;stroke-width:0.99999946;stroke-miterlimit:4;stroke-opacity:1"
       d="M 19.83722,1.3615728 C 16.493168,0.56581196 13.018,2.1889619 12.593131,3.5931305 C 14.361353,3.5931305 16.849492,3.4926544 16.849492,3.4926544 L 19.83722,1.3615728 z "
       id="path3107"
       sodipodi:nodetypes="cccc" />
    <path
       style="opacity:1;fill:#babdb6;fill-opacity:1;stroke:#888a85;stroke-width:0.99999994;stroke-miterlimit:4;stroke-opacity:1"
       d="M 16.5,20.072196 C 19.311894,18.451427 18.826975,15.382116 18.057657,14.049618 C 17.215662,15.507995 16.53488,17.120673 16.53488,17.120673 L 16.5,20.072196 z "
       id="path3109"
       sodipodi:nodetypes="cccc" />
  </g>
</svg>
