<?xml version="1.0" encoding="UTF-8" standalone="no"?>
<!-- Created with Inkscape (http://www.inkscape.org/) -->
<svg
   xmlns:dc="http://purl.org/dc/elements/1.1/"
   xmlns:cc="http://web.resource.org/cc/"
   xmlns:rdf="http://www.w3.org/1999/02/22-rdf-syntax-ns#"
   xmlns:svg="http://www.w3.org/2000/svg"
   xmlns="http://www.w3.org/2000/svg"
   xmlns:xlink="http://www.w3.org/1999/xlink"
   xmlns:sodipodi="http://inkscape.sourceforge.net/DTD/s odipodi-0.dtd"
   xmlns:inkscape="http://www.inkscape.org/namespaces/inkscape"
   width="24"
   height="24"
   id="svg13306"
   sodipodi:version="0.32"
   inkscape:version="0.43"
   version="1.0"
   inkscape:export-filename="/home/hbons/Desktop/Gaim Refresh/status/32/irc32.png"
   inkscape:export-xdpi="90"
   inkscape:export-ydpi="90"
   sodipodi:docbase="/home/hbons/Desktop/Gaim Refresh/protocols/22/scalable"
   sodipodi:docname="irc.svg">
  <defs
     id="defs13308">
    <linearGradient
       inkscape:collect="always"
       id="linearGradient2280">
      <stop
         style="stop-color:#d3d7cf;stop-opacity:1;"
         offset="0"
         id="stop2282" />
      <stop
         style="stop-color:#d3d7cf;stop-opacity:0;"
         offset="1"
         id="stop2284" />
    </linearGradient>
    <linearGradient
       inkscape:collect="always"
       id="linearGradient3150">
      <stop
         style="stop-color:#2e3436;stop-opacity:1;"
         offset="0"
         id="stop3152" />
      <stop
         style="stop-color:#2e3436;stop-opacity:0;"
         offset="1"
         id="stop3154" />
    </linearGradient>
    <radialGradient
       inkscape:collect="always"
       xlink:href="#linearGradient3150"
       id="radialGradient3156"
       cx="10.748654"
       cy="10.457643"
       fx="10.748654"
       fy="10.457643"
       r="6.6449099"
       gradientTransform="matrix(-0.842757,5.698892e-16,-4.565819e-9,-0.35721,19.80716,14.19321)"
       gradientUnits="userSpaceOnUse" />
    <linearGradient
       inkscape:collect="always"
       id="linearGradient3131">
      <stop
         style="stop-color:#eeeeec;stop-opacity:1;"
         offset="0"
         id="stop3133" />
      <stop
         style="stop-color:#d3d7cf"
         offset="1"
         id="stop3135" />
    </linearGradient>
    <linearGradient
       inkscape:collect="always"
       id="linearGradient3121">
      <stop
         style="stop-color:#d3d7cf;stop-opacity:1;"
         offset="0"
         id="stop3123" />
      <stop
         style="stop-color:#d3d7cf;stop-opacity:0;"
         offset="1"
         id="stop3125" />
    </linearGradient>
    <linearGradient
       inkscape:collect="always"
       xlink:href="#linearGradient3121"
       id="linearGradient3127"
       x1="13"
       y1="26.785713"
       x2="13"
       y2="18.078569"
       gradientUnits="userSpaceOnUse" />
    <linearGradient
       inkscape:collect="always"
       xlink:href="#linearGradient3131"
       id="linearGradient3137"
       x1="18.206755"
       y1="4.8468447"
       x2="18.150391"
       y2="13.775416"
       gradientUnits="userSpaceOnUse" />
    <radialGradient
       inkscape:collect="always"
       xlink:href="#linearGradient2280"
       id="radialGradient2286"
       cx="10.288303"
       cy="6.7567434"
       fx="10.288303"
       fy="6.7567434"
       r="9.5"
       gradientTransform="matrix(2.369002,1.711096e-16,-1.716974e-16,2.389565,-14.87449,-9.225873)"
       gradientUnits="userSpaceOnUse" />
    <linearGradient
       inkscape:collect="always"
       xlink:href="#linearGradient3121"
       id="linearGradient2314"
       gradientUnits="userSpaceOnUse"
       x1="13"
       y1="26.785713"
       x2="13"
       y2="18.078569" />
    <radialGradient
       inkscape:collect="always"
       xlink:href="#linearGradient2280"
       id="radialGradient2316"
       gradientUnits="userSpaceOnUse"
       gradientTransform="matrix(-1.276682,0,0,1.19816,31.40394,-2.987018)"
       cx="10.5"
       cy="12.373168"
       fx="10.5"
       fy="12.373168"
       r="9.5" />
    <radialGradient
       inkscape:collect="always"
       xlink:href="#linearGradient3150"
       id="radialGradient2259"
       gradientUnits="userSpaceOnUse"
       gradientTransform="matrix(-0.842757,5.698892e-16,-4.565819e-9,-0.35721,19.80716,14.19321)"
       cx="10.748654"
       cy="10.457643"
       fx="10.748654"
       fy="10.457643"
       r="6.6449099" />
    <radialGradient
       inkscape:collect="always"
       xlink:href="#linearGradient2280"
       id="radialGradient2288"
       gradientUnits="userSpaceOnUse"
       gradientTransform="matrix(-3.068505,2.211325e-16,2.22395e-16,3.088141,49.79439,-16.48838)"
       cx="10.288303"
       cy="6.7567434"
       fx="10.288303"
       fy="6.7567434"
       r="9.5" />
    <radialGradient
       inkscape:collect="always"
       xlink:href="#linearGradient2280"
       id="radialGradient2303"
       gradientUnits="userSpaceOnUse"
       gradientTransform="matrix(-3.068505,2.211325e-16,2.22395e-16,3.088141,49.79439,-16.48838)"
       cx="10.288303"
       cy="6.7567434"
       fx="10.288303"
       fy="6.7567434"
       r="9.5" />
    <radialGradient
       inkscape:collect="always"
       xlink:href="#linearGradient2280"
       id="radialGradient2311"
       gradientUnits="userSpaceOnUse"
       gradientTransform="matrix(-2.369597,1.712163e-16,1.717406e-16,2.391056,38.88682,-13.24031)"
       cx="10.288303"
       cy="6.7567434"
       fx="10.288303"
       fy="6.7567434"
       r="9.5" />
  </defs>
  <sodipodi:namedview
     id="base"
     pagecolor="#ffffff"
     bordercolor="#666666"
     borderopacity="1.0"
     inkscape:pageopacity="0.0"
     inkscape:pageshadow="2"
     inkscape:zoom="11.371534"
     inkscape:cx="20.85698"
     inkscape:cy="14.844022"
     inkscape:current-layer="layer1"
     showgrid="true"
     inkscape:grid-bbox="true"
     inkscape:document-units="px"
     fill="#ff0033"
     inkscape:window-width="1268"
     inkscape:window-height="971"
     inkscape:window-x="6"
     inkscape:window-y="21" />
  <metadata
     id="metadata13311">
    <rdf:RDF>
      <cc:Work
         rdf:about="">
        <dc:format>image/svg+xml</dc:format>
        <dc:type
           rdf:resource="http://purl.org/dc/dcmitype/StillImage" />
      </cc:Work>
    </rdf:RDF>
  </metadata>
  <g
     id="layer1"
     inkscape:label="Layer 1"
     inkscape:groupmode="layer">
    <rect
       style="fill:#babdb6;fill-opacity:0.75;fill-rule:evenodd;stroke:none;stroke-width:1px;stroke-linecap:butt;stroke-linejoin:miter;stroke-opacity:1"
       id="rect2266"
       width="5.9860415"
       height="1.0008848"
       x="6.054316"
       y="7.5486698" />
    <path
       sodipodi:type="arc"
       style="opacity:0.5;fill:url(#radialGradient2259);fill-opacity:1;stroke:none;stroke-width:1;stroke-miterlimit:4;stroke-dasharray:none;stroke-opacity:1"
       id="path2257"
       sodipodi:cx="10.748654"
       sodipodi:cy="10.457643"
       sodipodi:rx="6.6449099"
       sodipodi:ry="2.3675451"
       d="M 17.393564 10.457643 A 6.6449099 2.3675451 0 1 1  4.1037445,10.457643 A 6.6449099 2.3675451 0 1 1  17.393564 10.457643 z"
       transform="matrix(1.48539,0,0,1.13303,-1.306933,4.968885)" />
    <path
       sodipodi:type="inkscape:offset"
       inkscape:radius="-1.0020103"
       inkscape:original="M 10.03125 5.5 C 5.2809556 5.6861502 1.5 8.7231084 1.5 12.4375 C 1.5 14.570281 2.4139213 16.850503 4.375 18.125 C 4.790921 19.906271 3.5825788 21.282326 3.375 21.5 C 3.7506605 21.398222 6.7302843 20.58004 7.84375 19.375 C 8.9660824 19.328744 9.5914383 19.40625 10.5 19.40625 C 15.465015 19.40625 19.500001 16.271711 19.5 12.4375 C 19.499999 8.6032883 15.465015 5.5 10.5 5.5 C 10.344844 5.4999998 10.184486 5.4939951 10.03125 5.5 z "
       xlink:href="#path13316"
       style="color:#000000;fill:none;fill-opacity:1;fill-rule:evenodd;stroke:none;stroke-width:1;stroke-linecap:butt;stroke-linejoin:miter;marker:none;marker-start:none;marker-mid:none;marker-end:none;stroke-miterlimit:4;stroke-dasharray:none;stroke-dashoffset:0;stroke-opacity:1;visibility:visible;display:inline;overflow:visible"
       id="path2268"
       inkscape:href="#path13316"
       d="M 10.0625,6.5 C 7.8900031,6.5851338 5.9762716,7.3427975 4.625,8.4375 C 3.2737284,9.5322025 2.5,10.920293 2.5,12.4375 C 2.5,14.284032 3.2837785,16.226812 4.90625,17.28125 C 5.1287835,17.423752 5.2860248,17.648382 5.34375,17.90625 C 5.4955807,18.556498 5.4707531,19.125743 5.375,19.65625 C 6.0781419,19.333618 6.8270886,18.976092 7.09375,18.6875 C 7.2809756,18.490079 7.540428,18.377274 7.8125,18.375 C 8.9961476,18.326217 9.6484235,18.40625 10.5,18.40625 C 12.771643,18.40625 14.815021,17.674738 16.25,16.5625 C 17.684979,15.450262 18.5,14.003112 18.5,12.4375 C 18.5,10.871887 17.684227,9.4172787 16.25,8.3125 C 14.815773,7.2077213 12.773745,6.5 10.5,6.5 C 10.318992,6.4999998 10.162289,6.4960896 10.0625,6.5 z "
       transform="matrix(-0.997673,0,0,1.000884,24.00493,-3.47033)" />
    <rect
       style="fill:#babdb6;fill-opacity:0.75;fill-rule:evenodd;stroke:none;stroke-width:1px;stroke-linecap:butt;stroke-linejoin:miter;stroke-opacity:1"
       id="rect2270"
       width="5.9860415"
       height="1.0008848"
       x="-18.018883"
       y="7.5393991"
       transform="scale(-1,1)" />
    <rect
       style="fill:#babdb6;fill-opacity:0.75;fill-rule:evenodd;stroke:none;stroke-width:1px;stroke-linecap:butt;stroke-linejoin:miter;stroke-opacity:1"
       id="rect2272"
       width="8.9790611"
       height="1.0008843"
       x="-18.018883"
       y="9.5411692"
       transform="scale(-1,1)" />
    <path
       style="fill:#eeeeec;fill-opacity:1;stroke:none;stroke-width:1.00000012;stroke-miterlimit:4;stroke-dasharray:none;stroke-opacity:1"
       d="M 17.462848,2.0345351 C 20.28167,2.2326326 22.508414,4.8428606 22.508414,8.0398417 L 22.508414,10.041609 C 22.508414,12.276899 21.432831,14.230867 19.817446,15.264975 L 19.817446,18.11124 L 16.930261,16.046916 L 11.74454,16.046916 C 8.7629471,16.046916 6.3626031,13.36855 6.3626031,10.041609 L 6.3626031,8.0398417 C 6.3626031,4.7129016 8.7629471,2.0345351 11.74454,2.0345351 L 17.126478,2.0345351 C 17.242945,2.0345351 17.348262,2.0264824 17.462848,2.0345351 z "
       id="path2274" />
    <path
       style="fill:url(#radialGradient2311);fill-opacity:1;stroke:#555753;stroke-width:0.99999911;stroke-miterlimit:4;stroke-dasharray:none;stroke-opacity:1"
       d="M 17.191187,1.5081301 C 20.156942,1.7179684 22.499759,4.4829039 22.499759,7.8693698 L 22.499759,9.9897819 C 22.499759,12.357556 22.260496,14.385421 20.560908,15.480822 L 20.560908,18.495784 L 16.630838,16.351022 L 11.174805,16.351022 C 8.0377925,16.351022 5.5123276,13.513909 5.5123276,9.9897819 L 5.5123276,7.8693698 C 5.5123276,4.3452417 8.0377925,1.5081301 11.174805,1.5081301 L 16.837282,1.5081301 C 16.959821,1.5081301 17.070627,1.4995998 17.191187,1.5081301 z "
       id="path2276"
       sodipodi:nodetypes="cccccccccccc" />
    <path
       style="fill:none;fill-opacity:1;stroke:#eeeeec;stroke-width:0.99999958;stroke-miterlimit:4;stroke-opacity:1"
       d="M 17.135857,2.4916226 C 19.561138,2.6615394 21.50422,4.8998576 21.50422,7.7452031 L 21.50422,9.8466356 C 21.50422,11.837212 21.538584,13.553581 20.144119,14.443518 C 19.853317,14.634376 19.473329,15.130753 19.472969,15.491409 L 19.472969,16.50929 L 17.198264,15.297225 C 17.034405,15.173056 16.838501,15.104339 16.636617,15.100218 L 11.176166,15.100218 C 8.6004294,15.100218 6.4957772,12.805706 6.4957772,9.8466356 L 6.4957772,7.7452031 C 6.4957772,4.7861327 8.6004294,2.4916226 11.176166,2.4916226 L 16.823833,2.4916226 C 16.989883,2.4916226 17.106652,2.4895765 17.135857,2.4916226 z "
       id="path2280"
       sodipodi:nodetypes="cccccccccccccc" />
    <path
       sodipodi:type="inkscape:offset"
       inkscape:radius="-1.0020103"
       inkscape:original="M 10.03125 5.5 C 5.2809556 5.6861502 1.5 8.7231084 1.5 12.4375 C 1.5 14.570281 2.4139213 16.850503 4.375 18.125 C 4.790921 19.906271 3.5825788 21.282326 3.375 21.5 C 3.7506605 21.398222 6.7302843 20.58004 7.84375 19.375 C 8.9660824 19.328744 9.5914383 19.40625 10.5 19.40625 C 15.465015 19.40625 19.500001 16.271711 19.5 12.4375 C 19.499999 8.6032883 15.465015 5.5 10.5 5.5 C 10.344844 5.4999998 10.184486 5.4939951 10.03125 5.5 z "
       xlink:href="#path13316"
       style="color:#000000;fill:none;fill-opacity:1;fill-rule:evenodd;stroke:none;stroke-width:1;stroke-linecap:butt;stroke-linejoin:miter;marker:none;marker-start:none;marker-mid:none;marker-end:none;stroke-miterlimit:4;stroke-dasharray:none;stroke-dashoffset:0;stroke-opacity:1;visibility:visible;display:inline;overflow:visible"
       id="path2288"
       inkscape:href="#path13316"
       d="M 10.0625,6.5 C 7.8900031,6.5851338 5.9762716,7.3427975 4.625,8.4375 C 3.2737284,9.5322025 2.5,10.920293 2.5,12.4375 C 2.5,14.284032 3.2837785,16.226812 4.90625,17.28125 C 5.1287835,17.423752 5.2860248,17.648382 5.34375,17.90625 C 5.4955807,18.556498 5.4707531,19.125743 5.375,19.65625 C 6.0781419,19.333618 6.8270886,18.976092 7.09375,18.6875 C 7.2809756,18.490079 7.540428,18.377274 7.8125,18.375 C 8.9961476,18.326217 9.6484235,18.40625 10.5,18.40625 C 12.771643,18.40625 14.815021,17.674738 16.25,16.5625 C 17.684979,15.450262 18.5,14.003112 18.5,12.4375 C 18.5,10.871887 17.684227,9.4172787 16.25,8.3125 C 14.815773,7.2077213 12.773745,6.5 10.5,6.5 C 10.318992,6.4999998 10.162289,6.4960896 10.0625,6.5 z "
       transform="matrix(-1.000884,0,0,1.000884,24.01062,-3.667893)" />
    <rect
       style="fill:#babdb6;fill-opacity:0.75;fill-rule:evenodd;stroke:none;stroke-width:1px;stroke-linecap:butt;stroke-linejoin:miter;stroke-opacity:1"
       id="rect2300"
       width="6.0053062"
       height="1.0008848"
       x="-18.005306"
       y="11.345372"
       transform="scale(-1,1)" />
    <path
       sodipodi:type="inkscape:offset"
       inkscape:radius="-1.0020103"
       inkscape:original="M 10.03125 5.5 C 5.2809556 5.6861502 1.5 8.7231084 1.5 12.4375 C 1.5 14.570281 2.4139213 16.850503 4.375 18.125 C 4.790921 19.906271 3.5825788 21.282326 3.375 21.5 C 3.7506605 21.398222 6.7302843 20.58004 7.84375 19.375 C 8.9660824 19.328744 9.5914383 19.40625 10.5 19.40625 C 15.465015 19.40625 19.500001 16.271711 19.5 12.4375 C 19.499999 8.6032883 15.465015 5.5 10.5 5.5 C 10.344844 5.4999998 10.184486 5.4939951 10.03125 5.5 z "
       xlink:href="#path13316"
       style="color:#000000;fill:none;fill-opacity:1;fill-rule:evenodd;stroke:none;stroke-width:1;stroke-linecap:butt;stroke-linejoin:miter;marker:none;marker-start:none;marker-mid:none;marker-end:none;stroke-miterlimit:4;stroke-dasharray:none;stroke-dashoffset:0;stroke-opacity:1;visibility:visible;display:inline;overflow:visible"
       id="path13434"
       inkscape:href="#path13316"
       d="M 10.0625,6.5 C 7.8900031,6.5851338 5.9762716,7.3427975 4.625,8.4375 C 3.2737284,9.5322025 2.5,10.920293 2.5,12.4375 C 2.5,14.284032 3.2837785,16.226812 4.90625,17.28125 C 5.1287835,17.423752 5.2860248,17.648382 5.34375,17.90625 C 5.4955807,18.556498 5.4707531,19.125743 5.375,19.65625 C 6.0781419,19.333618 6.8270886,18.976092 7.09375,18.6875 C 7.2809756,18.490079 7.540428,18.377274 7.8125,18.375 C 8.9961476,18.326217 9.6484235,18.40625 10.5,18.40625 C 12.771643,18.40625 14.815021,17.674738 16.25,16.5625 C 17.684979,15.450262 18.5,14.003112 18.5,12.4375 C 18.5,10.871887 17.684227,9.4172787 16.25,8.3125 C 14.815773,7.2077213 12.773745,6.5 10.5,6.5 C 10.318992,6.4999998 10.162289,6.4960896 10.0625,6.5 z "
       transform="matrix(-1.318248,0,0,1.318248,41.87276,-10.91182)" />
    <path
       sodipodi:type="arc"
       style="opacity:0.5;fill:url(#radialGradient3156);fill-opacity:1;stroke:none;stroke-width:1;stroke-miterlimit:4;stroke-dasharray:none;stroke-opacity:1"
       id="path3140"
       sodipodi:cx="10.748654"
       sodipodi:cy="10.457643"
       sodipodi:rx="6.6449099"
       sodipodi:ry="2.3675451"
       d="M 17.393564 10.457643 A 6.6449099 2.3675451 0 1 1  4.1037445,10.457643 A 6.6449099 2.3675451 0 1 1  17.393564 10.457643 z"
       transform="matrix(1.48539,0,0,1.13303,-5.862459,8.056126)" />
    <path
       sodipodi:type="inkscape:offset"
       inkscape:radius="-1.0020103"
       inkscape:original="M 10.03125 5.5 C 5.2809556 5.6861502 1.5 8.7231084 1.5 12.4375 C 1.5 14.570281 2.4139213 16.850503 4.375 18.125 C 4.790921 19.906271 3.5825788 21.282326 3.375 21.5 C 3.7506605 21.398222 6.7302843 20.58004 7.84375 19.375 C 8.9660824 19.328744 9.5914383 19.40625 10.5 19.40625 C 15.465015 19.40625 19.500001 16.271711 19.5 12.4375 C 19.499999 8.6032883 15.465015 5.5 10.5 5.5 C 10.344844 5.4999998 10.184486 5.4939951 10.03125 5.5 z "
       xlink:href="#path13316"
       style="color:#000000;fill:none;fill-opacity:1;fill-rule:evenodd;stroke:none;stroke-width:1;stroke-linecap:butt;stroke-linejoin:miter;marker:none;marker-start:none;marker-mid:none;marker-end:none;stroke-miterlimit:4;stroke-dasharray:none;stroke-dashoffset:0;stroke-opacity:1;visibility:visible;display:inline;overflow:visible"
       id="path13323"
       inkscape:href="#path13316"
       d="M 10.0625,6.5 C 7.8900031,6.5851338 5.9762716,7.3427975 4.625,8.4375 C 3.2737284,9.5322025 2.5,10.920293 2.5,12.4375 C 2.5,14.284032 3.2837785,16.226812 4.90625,17.28125 C 5.1287835,17.423752 5.2860248,17.648382 5.34375,17.90625 C 5.4955807,18.556498 5.4707531,19.125743 5.375,19.65625 C 6.0781419,19.333618 6.8270886,18.976092 7.09375,18.6875 C 7.2809756,18.490079 7.540428,18.377274 7.8125,18.375 C 8.9961476,18.326217 9.6484235,18.40625 10.5,18.40625 C 12.771643,18.40625 14.815021,17.674738 16.25,16.5625 C 17.684979,15.450262 18.5,14.003112 18.5,12.4375 C 18.5,10.871887 17.684227,9.4172787 16.25,8.3125 C 14.815773,7.2077213 12.773745,6.5 10.5,6.5 C 10.318992,6.4999998 10.162289,6.4960896 10.0625,6.5 z "
       transform="matrix(1.000884,0,0,1.000884,-3.072507e-3,0.326374)" />
    <rect
       style="fill:#babdb6;fill-opacity:0.75;fill-rule:evenodd;stroke:none;stroke-width:1px;stroke-linecap:butt;stroke-linejoin:miter;stroke-opacity:1"
       id="rect13438"
       width="6.0053062"
       height="1.0008848"
       x="6.002233"
       y="11.336102" />
    <rect
       style="fill:#babdb6;fill-opacity:0.75;fill-rule:evenodd;stroke:none;stroke-width:1px;stroke-linecap:butt;stroke-linejoin:miter;stroke-opacity:1"
       id="rect13440"
       width="9.0079584"
       height="1.0008843"
       x="6.002233"
       y="13.337872" />
    <path
       style="opacity:1;fill:#eeeeec;fill-opacity:1;stroke:none;stroke-width:1.00000012;stroke-miterlimit:4;stroke-dasharray:none;stroke-opacity:1"
       d="M 6.560058,5.8312381 C 3.7321648,6.0293356 1.4982534,8.6395636 1.4982534,11.836545 L 1.4982534,13.838313 C 1.4982534,16.073601 2.5772989,18.02757 4.1978826,19.061679 L 4.1978826,21.907943 L 7.0943597,19.84362 L 12.296769,19.84362 C 15.287958,19.84362 17.696027,17.165252 17.696027,13.838313 L 17.696027,11.836545 C 17.696027,8.5096045 15.287958,5.8312381 12.296769,5.8312381 L 6.8975116,5.8312381 C 6.7806683,5.8312381 6.675013,5.8231853 6.560058,5.8312381 z "
       id="path2262" />
    <path
       style="opacity:1;fill:url(#radialGradient2286);fill-opacity:1;stroke:#555753;stroke-width:0.99999976;stroke-miterlimit:4;stroke-dasharray:none;stroke-opacity:1"
       d="M 6.8156547,5.5133605 C 3.8506456,5.7230681 1.5084186,8.4862805 1.5084186,11.870636 L 1.5084186,13.989727 C 1.5084186,16.356026 2.8905386,18.382627 4.5896996,19.477345 L 4.5896996,22.490429 L 7.3758631,20.347004 L 12.830522,20.347004 C 15.966746,20.347004 18.491575,17.511659 18.491575,13.989727 L 18.491575,11.870636 C 18.491575,8.3487041 15.966746,5.5133605 12.830522,5.5133605 L 7.1694706,5.5133605 C 7.0469618,5.5133605 6.9361836,5.5048355 6.8156547,5.5133605 z "
       id="rect1326"
       sodipodi:nodetypes="cccccccccccc" />
    <rect
       style="opacity:1;fill:#9a9b96;fill-opacity:1;stroke:none;stroke-width:1;stroke-miterlimit:4;stroke-dasharray:none;stroke-opacity:1"
       id="rect2207"
       width="10"
       height="1"
       x="5"
       y="9"
       rx="0"
       ry="2" />
    <path
       style="fill:none;fill-opacity:1;stroke:#eeeeec;stroke-width:1;stroke-miterlimit:4;stroke-opacity:1"
       d="M 6.8635186,6.4916243 C 4.4377546,6.6615411 2.4942864,8.8998594 2.4942864,11.745205 L 2.4942864,13.846637 C 2.4942866,15.837213 3.4714142,17.553583 4.8661553,18.44352 C 5.1570178,18.634378 5.5370806,19.130756 5.5374411,19.491411 L 5.5374411,20.509293 L 6.8011009,19.297227 C 6.9649913,19.173058 7.1609349,19.104341 7.3628594,19.10022 L 12.824398,19.10022 C 15.400648,19.10022 17.505719,16.805708 17.505719,13.846637 L 17.505719,11.745205 C 17.505719,8.7861344 15.400648,6.4916243 12.824398,6.4916243 L 7.1756064,6.4916243 C 7.0095223,6.4916243 6.8927299,6.4895782 6.8635186,6.4916243 z "
       id="path2248"
       sodipodi:nodetypes="cccccccccccccc" />
    <rect
       style="opacity:1;fill:#9a9b96;fill-opacity:1;stroke:none;stroke-width:1;stroke-miterlimit:4;stroke-dasharray:none;stroke-opacity:1"
       id="rect2209"
       width="7"
       height="1"
       x="5"
       y="11"
       rx="0"
       ry="1.9999999" />
    <rect
       style="opacity:1;fill:#9a9b96;fill-opacity:1;stroke:none;stroke-width:1;stroke-miterlimit:4;stroke-dasharray:none;stroke-opacity:1"
       id="rect1358"
       width="10"
       height="1"
       x="5"
       y="13"
       rx="0"
       ry="2" />
    <rect
       style="opacity:1;fill:#9a9b96;fill-opacity:1;stroke:none;stroke-width:1;stroke-miterlimit:4;stroke-dasharray:none;stroke-opacity:1"
       id="rect1360"
       width="7"
       height="1"
       x="5"
       y="15"
       rx="0"
       ry="1.9999999" />
  </g>
</svg>
