<?xml version="1.0" encoding="UTF-8" standalone="no"?>
<!-- Created with Inkscape (http://www.inkscape.org/) -->
<svg
   xmlns:dc="http://purl.org/dc/elements/1.1/"
   xmlns:cc="http://creativecommons.org/ns#"
   xmlns:rdf="http://www.w3.org/1999/02/22-rdf-syntax-ns#"
   xmlns:svg="http://www.w3.org/2000/svg"
   xmlns="http://www.w3.org/2000/svg"
   xmlns:xlink="http://www.w3.org/1999/xlink"
   xmlns:sodipodi="http://sodipodi.sourceforge.net/DTD/sodipodi-0.dtd"
   xmlns:inkscape="http://www.inkscape.org/namespaces/inkscape"
   width="24"
   height="24"
   id="svg3302"
   sodipodi:version="0.32"
   inkscape:version="0.46"
   sodipodi:docbase="/home/hbons/Desktop"
   sodipodi:docname="jabber.svg"
   inkscape:output_extension="org.inkscape.output.svg.inkscape"
   inkscape:export-filename="/home/hbons/Desktop/xmpp22.png"
   inkscape:export-xdpi="90"
   inkscape:export-ydpi="90"
   version="1.0">
  <defs
     id="defs3304">
    <linearGradient
       id="linearGradient2222"
       inkscape:collect="always">
      <stop
         id="stop2224"
         offset="0"
         style="stop-color:#429538;stop-opacity:1" />
      <stop
         id="stop2226"
         offset="1"
         style="stop-color:#033e6f;stop-opacity:1" />
    </linearGradient>
    <linearGradient
       id="linearGradient2214"
       inkscape:collect="always">
      <stop
         id="stop2216"
         offset="0"
         style="stop-color:#033e6f;stop-opacity:1" />
      <stop
         id="stop2218"
         offset="1"
         style="stop-color:#14a9de;stop-opacity:1" />
    </linearGradient>
    <linearGradient
       inkscape:collect="always"
       id="linearGradient3417">
      <stop
         style="stop-color:#df5219;stop-opacity:1"
         offset="0"
         id="stop3419" />
      <stop
         style="stop-color:#034072;stop-opacity:1"
         offset="1"
         id="stop3421" />
    </linearGradient>
    <linearGradient
       inkscape:collect="always"
       id="linearGradient3334">
      <stop
         style="stop-color:#034072;stop-opacity:1"
         offset="0"
         id="stop3336" />
      <stop
         style="stop-color:#109cd3;stop-opacity:1"
         offset="1"
         id="stop3338" />
    </linearGradient>
    <linearGradient
       inkscape:collect="always"
       xlink:href="#linearGradient3417"
       id="linearGradient3423"
       x1="31.736355"
       y1="20.841261"
       x2="35.292381"
       y2="22.255474"
       gradientUnits="userSpaceOnUse"
       gradientTransform="matrix(0.4696897,0,0,0.4693264,1.1291183,0.5593256)" />
    <filter
       inkscape:collect="always"
       x="-0.49491513"
       width="1.9898303"
       y="-1.0582331"
       height="3.1164663"
       id="filter3871">
      <feGaussianBlur
         inkscape:collect="always"
         stdDeviation="5.4785069"
         id="feGaussianBlur3873" />
    </filter>
    <linearGradient
       inkscape:collect="always"
       xlink:href="#linearGradient2222"
       id="linearGradient2206"
       gradientUnits="userSpaceOnUse"
       x1="18.734463"
       y1="21.519651"
       x2="15.642859"
       y2="23.876795"
       gradientTransform="matrix(0.4696897,0,0,0.4693264,0.7859883,0.5593256)" />
    <linearGradient
       inkscape:collect="always"
       xlink:href="#linearGradient3334"
       id="linearGradient2427"
       gradientUnits="userSpaceOnUse"
       x1="5.0133924"
       y1="12.455358"
       x2="15.638392"
       y2="30.098215"
       gradientTransform="matrix(-0.4731084,0,0,0.4693403,23.025142,0.6736289)" />
    <linearGradient
       inkscape:collect="always"
       xlink:href="#linearGradient2214"
       id="linearGradient2429"
       gradientUnits="userSpaceOnUse"
       x1="5.0133924"
       y1="12.455358"
       x2="15.638392"
       y2="30.098215"
       gradientTransform="matrix(0.4731084,0,0,0.4693403,0.7795066,0.6736289)" />
  </defs>
  <sodipodi:namedview
     id="base"
     pagecolor="#ffffff"
     bordercolor="#666666"
     borderopacity="1.0"
     inkscape:pageopacity="0.0"
     inkscape:pageshadow="2"
     inkscape:zoom="14"
     inkscape:cx="11.10389"
     inkscape:cy="13.373032"
     inkscape:current-layer="layer1"
     showgrid="true"
     inkscape:grid-bbox="true"
     inkscape:document-units="px"
     inkscape:window-width="1434"
     inkscape:window-height="823"
     inkscape:window-x="3"
     inkscape:window-y="43"
     inkscape:snap-bbox="true"
     inkscape:snap-nodes="false"
     objecttolerance="9"
     gridtolerance="12">
    <inkscape:grid
       type="xygrid"
       id="grid2421"
       visible="true"
       enabled="true" />
  </sodipodi:namedview>
  <metadata
     id="metadata3307">
    <rdf:RDF>
      <cc:Work
         rdf:about="">
        <dc:format>image/svg+xml</dc:format>
        <dc:type
           rdf:resource="http://purl.org/dc/dcmitype/StillImage" />
      </cc:Work>
    </rdf:RDF>
  </metadata>
  <g
     id="layer1"
     inkscape:label="Layer 1"
     inkscape:groupmode="layer">
    <path
       sodipodi:type="arc"
       style="opacity:0.29670332;fill:#2e3436;fill-opacity:1;stroke:none;stroke-width:1;stroke-miterlimit:4;stroke-dasharray:none;stroke-opacity:1;filter:url(#filter3871)"
       id="path3425"
       sodipodi:cx="22.273863"
       sodipodi:cy="36.736797"
       sodipodi:rx="13.283506"
       sodipodi:ry="6.2124381"
       d="M 35.557369,36.736797 A 13.283506,6.2124381 0 1 1 8.9903564,36.736797 A 13.283506,6.2124381 0 1 1 35.557369,36.736797 z"
       transform="matrix(0.5199608,0,0,0.1850564,0.5826339,12.558808)" />
    <path
       style="fill:#da6812;fill-opacity:1;stroke:#a24900;stroke-width:1.00000012;stroke-miterlimit:4;stroke-opacity:1"
       d="M 22.499999,4.5000001 L 14.975448,6.4912682 C 15.521075,9.1224749 12.829223,17.516252 5.5000001,19.499999 C 14.446104,19.499999 22.499999,10.35826 22.499999,4.5000001 z"
       id="path3380"
       sodipodi:nodetypes="cccc" />
    <path
       style="fill:url(#linearGradient2427);fill-opacity:1;stroke:none;stroke-width:1;stroke-miterlimit:4;stroke-opacity:1"
       d="M 22.005002,4.971026 C 21.851961,7.7335015 19.92301,11.265451 16.933871,14.123162 C 14.261115,16.678402 10.768225,18.676617 7.0429489,19.197904 C 9.8517135,17.932843 11.867038,15.740114 13.163789,13.477819 C 13.943334,12.117834 14.259517,10.820984 14.558499,9.6081884 C 14.82922,8.5100321 14.983993,6.7178749 14.8856,6.0068516 L 22.005002,4.971026 z"
       id="path3382"
       sodipodi:nodetypes="cscsscc" />
    <path
       style="fill:#abbb25;fill-opacity:1;stroke:none;stroke-width:1;stroke-miterlimit:4;stroke-opacity:1"
       d="M 18.868549,5.7525618 L 15.016096,6.7750535 C 15.049889,7.9148799 14.627471,15.172893 7.1591181,19.179048 C 15.27359,18.073731 18.969928,8.3689705 18.868549,5.7525618 z"
       id="path3384"
       sodipodi:nodetypes="cccc" />
    <path
       style="fill:none;fill-opacity:1;stroke:url(#linearGradient3423);stroke-width:1.00000024;stroke-miterlimit:4;stroke-opacity:1"
       d="M 22.499999,4.5000003 L 14.317055,5.5583642 C 14.862682,8.1895711 12.829223,17.516254 5.4999998,19.500001 C 14.446104,19.500001 22.499999,10.358261 22.499999,4.5000003 z"
       id="path3388"
       sodipodi:nodetypes="cccc" />
    <path
       style="fill:#df5219;fill-opacity:1;stroke:none;stroke-width:1;stroke-miterlimit:4;stroke-opacity:1"
       d="M 19.203087,5.4052024 L 15.293888,5.9416777 C 15.327681,7.0815041 14.627471,15.172893 7.1591181,19.179048 C 15.27359,18.073731 19.304466,8.0216111 19.203087,5.4052024 z"
       id="path3386"
       sodipodi:nodetypes="cccc" />
    <path
       style="fill:#e96d1f;fill-opacity:1;stroke:none;stroke-width:1;stroke-miterlimit:4;stroke-opacity:1"
       d="M 17.202112,5.6933762 L 14.951055,6.0174391 C 14.984849,7.1572655 14.688699,15.172893 7.2203467,19.179048 C 15.706546,17.068001 18.393936,6.9484519 17.202112,5.6933762 z"
       id="path2228"
       sodipodi:nodetypes="cccc" />
    <path
       style="opacity:0.4;fill:none;fill-opacity:1;stroke:#ffffff;stroke-width:1.00000012;stroke-miterlimit:4;stroke-opacity:1"
       d="M 21.5,5.5000001 C 21.259562,7.8476013 19.283758,10.890908 16.721197,13.322762 C 14.636171,15.301438 12.341463,16.82458 9.4999988,17.5 C 11.488026,16.319811 12.990581,14.640432 13.991693,12.906761 C 14.701922,11.676826 14.851876,10.636782 15.125188,9.5362725 C 15.351957,8.6231762 15.486367,7.0468868 15.426863,6.3988159 L 21.5,5.5000001 z"
       id="path3390"
       sodipodi:nodetypes="cscsscc" />
    <path
       style="fill:#da6812;fill-opacity:1;stroke:#a24900;stroke-width:1.00000012;stroke-miterlimit:4;stroke-opacity:1"
       d="M 1.5,4.5000001 L 9.0245518,6.4912682 C 8.4789251,9.1224749 11.170778,17.516252 18.499999,19.499999 C 9.5538954,19.499999 1.5,10.35826 1.5,4.5000001 z"
       id="rect3321"
       sodipodi:nodetypes="cccc" />
    <path
       style="fill:url(#linearGradient2429);fill-opacity:1;stroke:none;stroke-width:1;stroke-miterlimit:4;stroke-opacity:1"
       d="M 1.7996466,4.971026 C 1.9526876,7.7335015 3.8816385,11.265451 6.8707772,14.123162 C 9.5435341,16.678402 13.036424,18.676617 16.7617,19.197904 C 13.952935,17.932843 11.937611,15.740114 10.64086,13.477819 C 9.8613144,12.117834 9.3431008,10.745223 9.044119,9.532427 C 8.7733983,8.4342707 8.9721786,6.8188901 9.0705719,6.1078667 L 1.7996466,4.971026 z"
       id="path3332"
       sodipodi:nodetypes="cscsscc" />
    <path
       style="fill:#08aec5;fill-opacity:1;stroke:none;stroke-width:1;stroke-miterlimit:4;stroke-opacity:1"
       d="M 4.936101,5.7525618 L 8.7885541,6.7750535 C 8.7547609,7.9148799 9.1771789,15.172893 16.645531,19.179048 C 8.5310592,18.073731 4.8347205,8.3689705 4.936101,5.7525618 z"
       id="rect3326"
       sodipodi:nodetypes="cccc" />
    <path
       style="fill:#429538;fill-opacity:1;stroke:none;stroke-width:1;stroke-miterlimit:4;stroke-opacity:1"
       d="M 4.6746077,5.4242622 L 8.9905846,5.9416777 C 8.9567914,7.0815041 9.1771789,15.172893 16.645531,19.179048 C 8.5310592,18.073731 4.4776451,8.3725446 4.6746077,5.4242622 z"
       id="path3342"
       sodipodi:nodetypes="cccc" />
    <path
       style="fill:#a0ce67;fill-opacity:1;stroke:none;stroke-width:1;stroke-miterlimit:4;stroke-opacity:1"
       d="M 6.8152887,5.6933762 L 8.9905846,6.0679467 C 8.9567914,7.2077731 9.1771789,15.172893 16.645531,19.179048 C 8.1593314,17.068001 5.6948939,7.1270234 6.8152887,5.6933762 z"
       id="path2220"
       sodipodi:nodetypes="cccc" />
    <path
       style="fill:none;fill-opacity:1;stroke:url(#linearGradient2206);stroke-width:1.00000024;stroke-miterlimit:4;stroke-opacity:1"
       d="M 1.5000001,4.5000003 L 9.5252953,5.6445861 C 8.9796685,8.275793 11.170777,17.516254 18.5,19.500001 C 9.5538955,19.500001 1.5000001,10.358261 1.5000001,4.5000003 z"
       id="path3352"
       sodipodi:nodetypes="cccc" />
    <path
       style="opacity:0.4;fill:none;fill-opacity:1;stroke:#ffffff;stroke-width:1.00000012;stroke-miterlimit:4;stroke-opacity:1"
       d="M 2.6528401,5.6995163 C 3.1155917,8.0886161 4.8685432,11.14436 7.4405852,13.603314 C 9.0643917,15.155725 10.886287,16.515122 12.976833,17.423211 C 11.790214,16.318736 11.187637,15.199935 10.457851,13.926759 C 9.6473369,12.512747 9.1262733,11.255179 8.8124406,9.9821414 C 8.5924509,9.0897701 8.4306975,7.2046934 8.4453019,6.4949387 L 2.6528401,5.6995163 z"
       id="path3366"
       sodipodi:nodetypes="cscsscc" />
  </g>
</svg>
