<?xml version="1.0" encoding="UTF-8" standalone="no"?>
<!-- Created with Inkscape (http://www.inkscape.org/) -->
<svg
   xmlns:dc="http://purl.org/dc/elements/1.1/"
   xmlns:cc="http://web.resource.org/cc/"
   xmlns:rdf="http://www.w3.org/1999/02/22-rdf-syntax-ns#"
   xmlns:svg="http://www.w3.org/2000/svg"
   xmlns="http://www.w3.org/2000/svg"
   xmlns:xlink="http://www.w3.org/1999/xlink"
   xmlns:sodipodi="http://sodipodi.sourceforge.net/DTD/sodipodi-0.dtd"
   xmlns:inkscape="http://www.inkscape.org/namespaces/inkscape"
   width="24"
   height="24"
   id="svg2160"
   sodipodi:version="0.32"
   inkscape:version="0.45"
   sodipodi:docname="myspace48.svg"
   sodipodi:docbase="/home/hbons/Desktop"
   inkscape:output_extension="org.inkscape.output.svg.inkscape"
   sodipodi:modified="true"
   version="1.0">
  <defs
     id="defs2162">
    <linearGradient
       inkscape:collect="always"
       id="linearGradient3147">
      <stop
         style="stop-color:#eeeeec;stop-opacity:1;"
         offset="0"
         id="stop3149" />
      <stop
         style="stop-color:#eeeeec;stop-opacity:0;"
         offset="1"
         id="stop3151" />
    </linearGradient>
    <linearGradient
       inkscape:collect="always"
       id="linearGradient3172">
      <stop
         style="stop-color:#eeeeec;stop-opacity:1;"
         offset="0"
         id="stop3174" />
      <stop
         style="stop-color:#eeeeec;stop-opacity:0;"
         offset="1"
         id="stop3176" />
    </linearGradient>
    <linearGradient
       inkscape:collect="always"
       xlink:href="#linearGradient3172"
       id="linearGradient3178"
       x1="10.549266"
       y1="5.125"
       x2="52.810349"
       y2="49.864979"
       gradientUnits="userSpaceOnUse" />
    <linearGradient
       inkscape:collect="always"
       xlink:href="#linearGradient3147"
       id="linearGradient3153"
       x1="6.0203052"
       y1="1.0398448"
       x2="26.101271"
       y2="25.83909"
       gradientUnits="userSpaceOnUse" />
  </defs>
  <sodipodi:namedview
     id="base"
     pagecolor="#ffffff"
     bordercolor="#666666"
     borderopacity="1.0"
     inkscape:pageopacity="0.0"
     inkscape:pageshadow="2"
     inkscape:zoom="9.8994949"
     inkscape:cx="31.349135"
     inkscape:cy="11.3794"
     inkscape:current-layer="layer1"
     showgrid="true"
     inkscape:grid-bbox="true"
     inkscape:document-units="px"
     inkscape:window-width="1440"
     inkscape:window-height="847"
     inkscape:window-x="3"
     inkscape:window-y="25"
     width="24px"
     height="24px" />
  <metadata
     id="metadata2165">
    <rdf:RDF>
      <cc:Work
         rdf:about="">
        <dc:format>image/svg+xml</dc:format>
        <dc:type
           rdf:resource="http://purl.org/dc/dcmitype/StillImage" />
      </cc:Work>
    </rdf:RDF>
  </metadata>
  <g
     id="layer1"
     inkscape:label="Layer 1"
     inkscape:groupmode="layer">
    <path
       style="opacity:1;fill:#babdb6;fill-opacity:1;stroke:#888a85;stroke-width:1.00000012;stroke-miterlimit:4;stroke-dasharray:none;stroke-opacity:1"
       d="M 17 1.5 C 15.068 1.5 13.5 3.0680001 13.5 5 C 13.5 6.932 15.068 8.5 17 8.5 C 18.932 8.5 20.499999 6.932 20.5 5 C 20.5 3.068 18.931999 1.4999999 17 1.5 z M 10.5 2.5 C 8.8439999 2.5 7.5000001 3.8439999 7.5 5.5 C 7.5 7.1559999 8.8439997 8.4999996 10.5 8.5 C 9.395701 8.5527352 8.4448563 9.5454035 7.875 10.4375 C 7.830859 8.7148111 7.161553 7.5791344 5.6875 7.5 C 6.7035586 7.4052513 7.5 6.5406823 7.5 5.5 C 7.5 4.396 6.604 3.5 5.5 3.5 C 4.396 3.5 3.4999999 4.396 3.5 5.5 C 3.5 6.5828941 4.3626534 7.4666427 5.4375 7.5 C 4.352857 7.6401732 3.5000005 8.6243123 3.5 9.875 L 3.5 14.53125 L 7.5625 14.53125 L 7.5625 18.53125 L 12.5 18.53125 L 12.5 22.5 L 21.5 22.5 C 21.499867 19.408873 21.5 16.303843 21.5 13.21875 C 21.5 10.634939 19.434134 8.53125 16.875 8.53125 C 15.587036 8.5312503 14.40291 9.424387 13.5625 10.28125 C 13.046577 9.1148819 11.916283 8.5 10.59375 8.5 C 12.205095 8.4489386 13.5 7.1236737 13.5 5.5 C 13.5 3.8440001 12.156 2.5 10.5 2.5 z "
       id="path3149" />
    <path
       sodipodi:type="inkscape:offset"
       inkscape:radius="-1.00878"
       inkscape:original="M 17 1.5 C 15.068 1.5 13.5 3.0680001 13.5 5 C 13.5 6.932 15.068 8.5 17 8.5 C 18.932 8.5 20.499999 6.932 20.5 5 C 20.5 3.068 18.931999 1.4999999 17 1.5 z M 10.5 2.5 C 8.8439999 2.5 7.5000001 3.8439999 7.5 5.5 C 7.5 7.1559999 8.8439997 8.4999996 10.5 8.5 C 9.395701 8.5527352 8.4448563 9.5454035 7.875 10.4375 C 7.830859 8.7148111 7.161553 7.5791344 5.6875 7.5 C 6.7035586 7.4052513 7.5 6.5406823 7.5 5.5 C 7.5 4.396 6.604 3.5 5.5 3.5 C 4.396 3.5 3.4999999 4.396 3.5 5.5 C 3.5 6.5828941 4.3626534 7.4666427 5.4375 7.5 C 4.352857 7.6401732 3.5000005 8.6243123 3.5 9.875 L 3.5 14.53125 L 7.5625 14.53125 L 7.5625 18.53125 L 12.5 18.53125 L 12.5 22.5 L 21.5 22.5 C 21.499867 19.408873 21.5 16.303843 21.5 13.21875 C 21.5 10.634939 19.434134 8.53125 16.875 8.53125 C 15.587036 8.5312503 14.40291 9.424387 13.5625 10.28125 C 13.046577 9.1148819 11.916283 8.5 10.59375 8.5 C 12.205095 8.4489386 13.5 7.1236737 13.5 5.5 C 13.5 3.8440001 12.156 2.5 10.5 2.5 z "
       style="opacity:1;fill:url(#linearGradient3153);fill-opacity:1.0;stroke:#ffffff;stroke-width:1.00000012;stroke-miterlimit:4;stroke-dasharray:none;stroke-opacity:1"
       id="path2174"
       d="M 17,2.5 C 15.613813,2.5 14.5,3.6138135 14.5,5 C 14.5,6.3861867 15.613813,7.5 17,7.5 C 18.386187,7.5 19.499999,6.3861873 19.5,5 C 19.5,3.6138137 18.386185,2.4999999 17,2.5 z M 10.5,3.5 C 9.3898132,3.5 8.5000001,4.3898131 8.5,5.5 C 8.5,6.5997176 9.3733703,7.4835976 10.46875,7.5 C 10.499983,7.4985473 10.531267,7.4985473 10.5625,7.5 C 10.572807,7.4996734 10.583484,7.5004795 10.59375,7.5 C 11.655314,7.4504166 12.5,6.5769144 12.5,5.5 C 12.5,4.3898135 11.610187,3.5 10.5,3.5 z M 5.5,4.5 C 4.9418133,4.5 4.4999999,4.9418134 4.5,5.5 C 4.5,6.0471523 4.9293308,6.4832594 5.46875,6.5 C 5.4999831,6.4985473 5.5312669,6.4985473 5.5625,6.5 C 5.572916,6.4998387 5.583334,6.4998387 5.59375,6.5 C 6.0934659,6.4534009 6.5,6.0259981 6.5,5.5 C 6.5,4.9418133 6.0581867,4.5 5.5,4.5 z M 5.53125,8.5 C 4.98621,8.5848564 4.5000003,9.0959604 4.5,9.875 L 4.5,13.53125 L 7.5625,13.53125 C 8.1127746,13.536073 8.557677,13.980975 8.5625,14.53125 L 8.5625,17.53125 L 12.5,17.53125 C 13.050275,17.536073 13.495177,17.980975 13.5,18.53125 L 13.5,21.5 L 20.5,21.5 C 20.499928,18.739558 20.5,15.971417 20.5,13.21875 C 20.5,11.172647 18.881301,9.53125 16.875,9.53125 C 16.053394,9.5312502 15.035346,10.231141 14.28125,11 C 14.045303,11.244024 13.70246,11.353041 13.368907,11.290106 C 13.035354,11.227172 12.755806,11.000722 12.625,10.6875 C 12.280526,9.9087333 11.615906,9.5089368 10.625,9.5 C 10.614584,9.5001613 10.604166,9.5001613 10.59375,9.5 C 10.583334,9.5001613 10.572916,9.5001613 10.5625,9.5 C 10.033117,9.5252804 9.1973144,10.219569 8.71875,10.96875 C 8.4774641,11.327111 8.0347855,11.49207 7.6178253,11.378996 C 7.2008651,11.265922 6.9021772,10.899915 6.875,10.46875 C 6.8561284,9.7322475 6.6929787,9.2126452 6.5,8.9375 C 6.312535,8.6702161 6.1126513,8.5308317 5.65625,8.5 C 5.645834,8.5001613 5.635416,8.5001613 5.625,8.5 C 5.5937669,8.5014527 5.5624831,8.5014527 5.53125,8.5 L 5.53125,8.5 z " />
  </g>
</svg>
