<?xml version="1.0" encoding="UTF-8" standalone="no"?>
<!-- Created with Inkscape (http://www.inkscape.org/) -->
<svg
   xmlns:dc="http://purl.org/dc/elements/1.1/"
   xmlns:cc="http://creativecommons.org/ns#"
   xmlns:rdf="http://www.w3.org/1999/02/22-rdf-syntax-ns#"
   xmlns:svg="http://www.w3.org/2000/svg"
   xmlns="http://www.w3.org/2000/svg"
   xmlns:xlink="http://www.w3.org/1999/xlink"
   xmlns:sodipodi="http://sodipodi.sourceforge.net/DTD/sodipodi-0.dtd"
   xmlns:inkscape="http://www.inkscape.org/namespaces/inkscape"
   width="24"
   height="24"
   id="svg2"
   sodipodi:version="0.32"
   inkscape:version="0.46"
   version="1.0"
   sodipodi:docbase="/home/hbons/Desktop/Gaim Refresh/protocols"
   sodipodi:docname="qq.svg"
   inkscape:export-filename="/home/hbons/Desktop/Gaim Refresh/protocols/qq.png"
   inkscape:export-xdpi="90"
   inkscape:export-ydpi="90"
   inkscape:output_extension="org.inkscape.output.svg.inkscape">
  <defs
     id="defs4">
    <linearGradient
       inkscape:collect="always"
       id="linearGradient3150">
      <stop
         style="stop-color:#2e3436;stop-opacity:1;"
         offset="0"
         id="stop3152" />
      <stop
         style="stop-color:#2e3436;stop-opacity:0;"
         offset="1"
         id="stop3154" />
    </linearGradient>
    <radialGradient
       inkscape:collect="always"
       xlink:href="#linearGradient3150"
       id="radialGradient3156"
       cx="10.748654"
       cy="10.457643"
       fx="10.748654"
       fy="10.457643"
       r="6.6449099"
       gradientTransform="matrix(-0.842757,5.698892e-16,-4.565819e-9,-0.35721,19.80716,14.19321)"
       gradientUnits="userSpaceOnUse" />
  </defs>
  <sodipodi:namedview
     id="base"
     pagecolor="#ffffff"
     bordercolor="#666666"
     borderopacity="1.0"
     inkscape:pageopacity="0.0"
     inkscape:pageshadow="2"
     inkscape:zoom="19.500333"
     inkscape:cx="9.0374837"
     inkscape:cy="12.473676"
     inkscape:document-units="px"
     inkscape:current-layer="layer1"
     showgrid="true"
     showguides="true"
     inkscape:guide-bbox="true"
     fill="#f57900"
     inkscape:window-width="1268"
     inkscape:window-height="971"
     inkscape:window-x="6"
     inkscape:window-y="21" />
  <metadata
     id="metadata7">
    <rdf:RDF>
      <cc:Work
         rdf:about="">
        <dc:format>image/svg+xml</dc:format>
        <dc:type
           rdf:resource="http://purl.org/dc/dcmitype/StillImage" />
      </cc:Work>
    </rdf:RDF>
  </metadata>
  <g
     inkscape:label="Layer 1"
     inkscape:groupmode="layer"
     id="layer1">
    <path
       sodipodi:type="arc"
       style="opacity:0.6;fill:url(#radialGradient3156);fill-opacity:1;stroke:none;stroke-width:1;stroke-miterlimit:4;stroke-dasharray:none;stroke-opacity:1"
       id="path3140"
       sodipodi:cx="10.748654"
       sodipodi:cy="10.457643"
       sodipodi:rx="6.6449099"
       sodipodi:ry="2.3675451"
       d="M 17.393564 10.457643 A 6.6449099 2.3675451 0 1 1  4.1037445,10.457643 A 6.6449099 2.3675451 0 1 1  17.393564 10.457643 z"
       transform="matrix(1.504911,0,0,1.300982,-4.17577,7.314662)"
       inkscape:export-xdpi="90"
       inkscape:export-ydpi="90" />
    <image
       id="image2314"
       height="13.517763"
       width="21.433571"
       sodipodi:absref="/home/hbons/Desktop/logo.jpg"
       xlink:href="/home/hbons/Desktop/logo.jpg"
       x="-22"
       y="5" />
    <path
       sodipodi:type="arc"
       style="opacity:1;fill:#f57900;fill-opacity:1;stroke:#ce5c00;stroke-width:1.08307958;stroke-miterlimit:4;stroke-dasharray:none;stroke-opacity:1"
       id="path2344"
       sodipodi:cx="3.4614794"
       sodipodi:cy="19.897507"
       sodipodi:rx="3.8204477"
       sodipodi:ry="1.8461224"
       d="M 7.2819271 19.897507 A 3.8204477 1.8461224 0 1 1  -0.35896826,19.897507 A 3.8204477 1.8461224 0 1 1  7.2819271 19.897507 z"
       transform="matrix(1,0,0,1.083352,14.71807,-1.555998)" />
    <path
       sodipodi:type="arc"
       style="opacity:1;fill:#f57900;fill-opacity:1;stroke:#ce5c00;stroke-width:1.08307958;stroke-miterlimit:4;stroke-dasharray:none;stroke-opacity:1"
       id="path2340"
       sodipodi:cx="3.4614794"
       sodipodi:cy="19.897507"
       sodipodi:rx="3.8204477"
       sodipodi:ry="1.8461224"
       d="M 7.2819271 19.897507 A 3.8204477 1.8461224 0 1 1  -0.35896826,19.897507 A 3.8204477 1.8461224 0 1 1  7.2819271 19.897507 z"
       transform="matrix(1,0,0,1.083352,3.358968,-1.555998)" />
    <path
       sodipodi:type="arc"
       style="opacity:1;fill:#555753;fill-opacity:1;stroke:#2e3436;stroke-width:2.05454516;stroke-miterlimit:4;stroke-dasharray:none;stroke-opacity:1"
       id="path2346"
       sodipodi:cx="11.230577"
       sodipodi:cy="16.820635"
       sodipodi:rx="7.0768023"
       sodipodi:ry="5.7434916"
       d="M 18.30738 16.820635 A 7.0768023 5.7434916 0 1 1  4.1537752,16.820635 A 7.0768023 5.7434916 0 1 1  18.30738 16.820635 z"
       transform="matrix(0.454887,0,0,0.520793,0.610502,5.739923)" />
    <path
       sodipodi:type="arc"
       style="opacity:1;fill:#555753;fill-opacity:1;stroke:#2e3436;stroke-width:2.05454516;stroke-miterlimit:4;stroke-dasharray:none;stroke-opacity:1"
       id="path2348"
       sodipodi:cx="11.230577"
       sodipodi:cy="16.820635"
       sodipodi:rx="7.0768023"
       sodipodi:ry="5.7434916"
       d="M 18.30738 16.820635 A 7.0768023 5.7434916 0 1 1  4.1537752,16.820635 A 7.0768023 5.7434916 0 1 1  18.30738 16.820635 z"
       transform="matrix(0.454887,0,0,0.520793,14.17221,5.739922)" />
    <path
       sodipodi:type="arc"
       style="opacity:1;fill:#555753;fill-opacity:1;stroke:#2e3436;stroke-width:0.92058963;stroke-miterlimit:4;stroke-dasharray:none;stroke-opacity:1"
       id="path2322"
       sodipodi:cx="11.230577"
       sodipodi:cy="16.820635"
       sodipodi:rx="7.0768023"
       sodipodi:ry="5.7434916"
       d="M 18.30738 16.820635 A 7.0768023 5.7434916 0 1 1  4.1537752,16.820635 A 7.0768023 5.7434916 0 1 1  18.30738 16.820635 z"
       transform="matrix(1.129597,0,0,1.044584,-0.192009,-2.070134)" />
    <path
       style="fill:#eeeeec;fill-opacity:1;stroke:#babdb6;stroke-width:0.9999994;stroke-miterlimit:4;stroke-opacity:1"
       d="M 18.496537,15.938036 C 18.496537,18.457471 15.810467,20.502231 12.500846,20.502231 C 9.1912247,20.502231 6.5051554,18.457471 6.5051554,15.938036 C 6.5051554,13.418599 9.1912247,11.37384 12.500846,11.37384 C 15.810467,11.37384 18.496537,13.418599 18.496537,15.938036 z "
       id="path2324" />
    <path
       style="fill:#ef2929;fill-opacity:1;stroke:#a40000;stroke-width:1.00000036;stroke-miterlimit:4;stroke-opacity:1"
       d="M 20.50144,12.296479 C 20.50144,13.870379 17.042081,15.503908 12.526649,15.503908 C 11.397792,15.503908 8.58817,14.86018 5.5728131,17.575061 C 4.8050142,16.807262 3.924343,16.313069 3.5383056,15.644433 C 5.173074,13.847126 4.5005252,13.032549 4.5005252,12.245599 C 4.5005252,10.671699 7.8061478,9.8550602 12.321579,9.8550602 C 16.837009,9.8550602 20.50144,10.722579 20.50144,12.296479 z "
       id="path2338"
       sodipodi:nodetypes="csccscc" />
    <path
       sodipodi:type="inkscape:offset"
       inkscape:radius="-1.0198945"
       inkscape:original="M 12.3125 9.84375 C 7.7970688 9.84375 4.5000002 10.6761 4.5 12.25 C 4.5 13.03695 5.1660185 13.858943 3.53125 15.65625 C 3.9172874 16.324886 4.7947012 16.7947 5.5625 17.5625 C 8.5778569 14.847619 11.402393 15.5 12.53125 15.5 C 17.046682 15.5 20.5 13.85515 20.5 12.28125 C 20.5 10.70735 16.82793 9.8437496 12.3125 9.84375 z "
       xlink:href="#path2338"
       style="fill:#ef2929;fill-opacity:1;stroke:#ffffff;stroke-width:1.00000036;stroke-miterlimit:4;stroke-opacity:1;opacity:0.2"
       id="path2352"
       inkscape:href="#path2338"
       d="M 12.3125,10.875 C 10.117452,10.875 8.2321783,11.078302 7,11.4375 C 6.3839109,11.617099 5.9382904,11.826889 5.71875,12 C 5.4992096,12.173111 5.53125,12.212611 5.53125,12.25 C 5.53125,12.355753 5.7119428,12.87839 5.65625,13.65625 C 5.6162718,14.214625 5.2987213,14.849536 4.84375,15.53125 C 5.031129,15.703805 5.3147599,15.99025 5.65625,16.28125 C 7.0496223,15.252824 8.4257504,14.668178 9.59375,14.5 C 10.982399,14.300051 12.163292,14.46875 12.53125,14.46875 C 14.665126,14.46875 16.546855,14.070171 17.8125,13.53125 C 18.445323,13.26179 18.919142,12.974335 19.1875,12.71875 C 19.455858,12.463165 19.46875,12.301764 19.46875,12.28125 C 19.46875,12.284361 19.507489,12.250145 19.25,12.0625 C 18.992511,11.874855 18.48117,11.654874 17.8125,11.46875 C 16.47516,11.096503 14.505195,10.875 12.3125,10.875 z " />
    <path
       style="fill:#555753;fill-opacity:1;stroke:#2e3436;stroke-width:0.9999997;stroke-miterlimit:4;stroke-opacity:1"
       d="M 11.441791,1.5019332 L 13.414353,1.5019332 C 16.173636,1.5019332 18.51929,4.1204181 19.214545,6.9680529 C 19.9287,9.8930987 19.628275,12.434174 14.489996,12.434174 L 10.46859,12.434174 C 5.3219845,12.434174 5.0811089,9.8930987 5.7952636,6.9680529 C 6.4612442,4.2403195 8.6825094,1.5019332 11.441791,1.5019332 z "
       id="rect2317"
       sodipodi:nodetypes="ccsccsc" />
    <path
       sodipodi:type="inkscape:offset"
       inkscape:radius="-1.0200312"
       inkscape:original="M 11.4375 1.5 C 8.6782184 1.5 6.4472304 4.2410166 5.78125 6.96875 C 5.0670953 9.8937958 5.3221447 12.4375 10.46875 12.4375 L 14.5 12.4375 C 19.638279 12.4375 19.932906 9.8937958 19.21875 6.96875 C 18.523495 4.1211152 16.165533 1.5 13.40625 1.5 L 11.4375 1.5 z "
       xlink:href="#rect2317"
       style="fill:#555753;fill-opacity:1;stroke:#ffffff;stroke-width:0.9999997;stroke-miterlimit:4;stroke-opacity:1;opacity:0.1"
       id="path2355"
       inkscape:href="#rect2317"
       d="M 11.4375,2.53125 C 10.395619,2.53125 9.4077339,3.0264524 8.5625,3.90625 C 7.7172661,4.7860476 7.0706643,6.0333622 6.78125,7.21875 C 6.4469684,8.5879059 6.4108307,9.6495067 6.78125,10.25 C 7.1516693,10.850493 8.0634971,11.40625 10.46875,11.40625 L 14.5,11.40625 C 16.900817,11.40625 17.809374,10.854326 18.1875,10.25 C 18.565626,9.6456738 18.552002,8.5836879 18.21875,7.21875 C 17.615329,4.7472513 15.519563,2.53125 13.40625,2.53125 L 11.4375,2.53125 z " />
    <path
       style="fill:#f57900;fill-opacity:1;stroke:#ce5c00;stroke-width:0.99999946;stroke-miterlimit:4;stroke-opacity:1"
       d="M 18.5,10.968241 C 18.5,12.330711 15.789139,13.436482 12.448969,13.436482 C 9.1088005,13.436482 6.3979386,12.330711 6.3979386,10.968241 C 6.3979386,9.6057719 9.1088005,8.4999997 12.448969,8.4999997 C 15.789139,8.4999997 18.5,9.6057719 18.5,10.968241 z "
       id="path2320" />
    <path
       sodipodi:type="arc"
       style="opacity:1;fill:#eeeeec;fill-opacity:1;stroke:none;stroke-width:1;stroke-miterlimit:4;stroke-dasharray:none;stroke-opacity:1"
       id="path2326"
       sodipodi:cx="5.5383673"
       sodipodi:cy="3.4618888"
       sodipodi:rx="1.2307483"
       sodipodi:ry="2.4871371"
       d="M 6.7691156 3.4618888 A 1.2307483 2.4871371 0 1 1  4.307619,3.4618888 A 1.2307483 2.4871371 0 1 1  6.7691156 3.4618888 z"
       transform="matrix(1.218771,0,0,1.005172,3.749997,2.020207)" />
    <path
       sodipodi:type="arc"
       style="opacity:1;fill:#eeeeec;fill-opacity:1;stroke:none;stroke-width:1;stroke-miterlimit:4;stroke-dasharray:none;stroke-opacity:1"
       id="path2328"
       sodipodi:cx="5.5383673"
       sodipodi:cy="3.4618888"
       sodipodi:rx="1.2307483"
       sodipodi:ry="2.4871371"
       d="M 6.7691156 3.4618888 A 1.2307483 2.4871371 0 1 1  4.307619,3.4618888 A 1.2307483 2.4871371 0 1 1  6.7691156 3.4618888 z"
       transform="matrix(1.218771,0,0,1.005172,7.75,2.020207)" />
    <path
       sodipodi:type="arc"
       style="opacity:1;fill:#2e3436;fill-opacity:1;stroke:none;stroke-width:1;stroke-miterlimit:4;stroke-dasharray:none;stroke-opacity:1"
       id="path2330"
       sodipodi:cx="5.5383673"
       sodipodi:cy="3.4618888"
       sodipodi:rx="1.2307483"
       sodipodi:ry="2.4871371"
       d="M 6.7691156 3.4618888 A 1.2307483 2.4871371 0 1 1  4.307619,3.4618888 A 1.2307483 2.4871371 0 1 1  6.7691156 3.4618888 z"
       transform="matrix(0.812514,0,0,0.402069,9.500001,4.608083)" />
    <path
       sodipodi:type="arc"
       style="opacity:1;fill:#2e3436;fill-opacity:1;stroke:none;stroke-width:1;stroke-miterlimit:4;stroke-dasharray:none;stroke-opacity:1"
       id="path2332"
       sodipodi:cx="5.5383673"
       sodipodi:cy="3.4618888"
       sodipodi:rx="1.2307483"
       sodipodi:ry="2.4871371"
       d="M 6.7691156 3.4618888 A 1.2307483 2.4871371 0 1 1  4.307619,3.4618888 A 1.2307483 2.4871371 0 1 1  6.7691156 3.4618888 z"
       transform="matrix(0.812515,0,0,0.402069,6.499996,4.608083)" />
    <path
       sodipodi:type="arc"
       style="opacity:0.19318183;fill:none;fill-opacity:1;stroke:#ffffff;stroke-width:1.39726615;stroke-miterlimit:4;stroke-dasharray:none;stroke-opacity:1"
       id="path2336"
       sodipodi:cx="13.296353"
       sodipodi:cy="10.923561"
       sodipodi:rx="8.2214088"
       sodipodi:ry="1.7085644"
       d="M 21.517762 10.923561 A 8.2214088 1.7085644 0 1 1  5.0749445,10.923561 A 8.2214088 1.7085644 0 1 1  21.517762 10.923561 z"
       transform="matrix(0.613487,0,0,0.834904,4.361502,1.806363)" />
  </g>
</svg>
