<?xml version="1.0" encoding="UTF-8" standalone="no"?>
<!-- Created with Inkscape (http://www.inkscape.org/) -->
<svg
   xmlns:dc="http://purl.org/dc/elements/1.1/"
   xmlns:cc="http://creativecommons.org/ns#"
   xmlns:rdf="http://www.w3.org/1999/02/22-rdf-syntax-ns#"
   xmlns:svg="http://www.w3.org/2000/svg"
   xmlns="http://www.w3.org/2000/svg"
   xmlns:xlink="http://www.w3.org/1999/xlink"
   xmlns:sodipodi="http://sodipodi.sourceforge.net/DTD/sodipodi-0.dtd"
   xmlns:inkscape="http://www.inkscape.org/namespaces/inkscape"
   width="24"
   height="24"
   id="svg2"
   sodipodi:version="0.32"
   inkscape:version="0.46"
   version="1.0"
   sodipodi:docbase="/home/hbons/Desktop/Gaim Refresh"
   sodipodi:docname="silc.svg"
   inkscape:export-filename="/home/hbons/Desktop/Gaim Refresh/silc.png"
   inkscape:export-xdpi="90"
   inkscape:export-ydpi="90"
   inkscape:output_extension="org.inkscape.output.svg.inkscape">
  <defs
     id="defs4">
    <linearGradient
       inkscape:collect="always"
       id="linearGradient2222">
      <stop
         style="stop-color:#8ae234;stop-opacity:1;"
         offset="0"
         id="stop2224" />
      <stop
         style="stop-color:#8ae234;stop-opacity:0;"
         offset="1"
         id="stop2226" />
    </linearGradient>
    <linearGradient
       inkscape:collect="always"
       id="linearGradient3150">
      <stop
         style="stop-color:#2e3436;stop-opacity:1;"
         offset="0"
         id="stop3152" />
      <stop
         style="stop-color:#2e3436;stop-opacity:0;"
         offset="1"
         id="stop3154" />
    </linearGradient>
    <radialGradient
       inkscape:collect="always"
       xlink:href="#linearGradient3150"
       id="radialGradient3156"
       cx="10.748654"
       cy="10.457643"
       fx="10.748654"
       fy="10.457643"
       r="6.6449099"
       gradientTransform="matrix(-0.842757,5.698892e-16,-4.565819e-9,-0.35721,19.80716,14.19321)"
       gradientUnits="userSpaceOnUse" />
    <linearGradient
       inkscape:collect="always"
       xlink:href="#linearGradient2222"
       id="linearGradient2228"
       x1="14.315197"
       y1="11.002394"
       x2="13.638538"
       y2="-28.749279"
       gradientUnits="userSpaceOnUse" />
  </defs>
  <sodipodi:namedview
     id="base"
     pagecolor="#ffffff"
     bordercolor="#666666"
     borderopacity="1.0"
     inkscape:pageopacity="0.0"
     inkscape:pageshadow="2"
     inkscape:zoom="7.3892443"
     inkscape:cx="17.369816"
     inkscape:cy="12.086934"
     inkscape:document-units="px"
     inkscape:current-layer="layer1"
     showgrid="true"
     fill="#9db029"
     showguides="true"
     inkscape:guide-bbox="true"
     inkscape:window-width="1268"
     inkscape:window-height="971"
     inkscape:window-x="6"
     inkscape:window-y="21" />
  <metadata
     id="metadata7">
    <rdf:RDF>
      <cc:Work
         rdf:about="">
        <dc:format>image/svg+xml</dc:format>
        <dc:type
           rdf:resource="http://purl.org/dc/dcmitype/StillImage" />
      </cc:Work>
    </rdf:RDF>
  </metadata>
  <g
     inkscape:label="Layer 1"
     inkscape:groupmode="layer"
     id="layer1">
    <path
       sodipodi:type="arc"
       style="opacity:0.35;fill:url(#radialGradient3156);fill-opacity:1;stroke:none;stroke-width:1;stroke-miterlimit:4;stroke-dasharray:none;stroke-opacity:1"
       id="path3140"
       sodipodi:cx="10.748654"
       sodipodi:cy="10.457643"
       sodipodi:rx="6.6449099"
       sodipodi:ry="2.3675451"
       d="M 17.393564 10.457643 A 6.6449099 2.3675451 0 1 1  4.1037445,10.457643 A 6.6449099 2.3675451 0 1 1  17.393564 10.457643 z"
       transform="matrix(1.655403,0,0,1.300982,-5.793351,5.474929)" />
    <path
       style="opacity:1;fill:url(#linearGradient2228);fill-opacity:1.0;stroke:#4e9a06;stroke-width:0.99999964;stroke-miterlimit:4;stroke-dasharray:none;stroke-opacity:1"
       d="M 10.494577,6.2547874 C 10.494577,6.7069733 10.550854,14.667436 10.504973,15.531249 C 10.504973,15.531249 4.6361995,15.499999 4.5312498,15.499999 C 3.411786,15.499999 2.4999998,16.35618 2.4999998,17.526317 C 2.4999998,18.690466 3.411786,19.504787 4.5312498,19.504787 L 11.27063,19.504787 C 13.660042,19.504787 14.5625,18.376459 14.5625,16.754787 C 14.5625,16.302601 14.434213,7.3539406 14.486856,6.5047874 C 14.486856,6.5047874 20.224476,6.5047874 20.574309,6.5047874 C 21.693773,6.5047874 22.635012,5.5969416 22.635012,4.430623 C 22.635012,3.6010066 21.693772,2.4999998 20.574309,2.4999998 L 13.59375,2.4999998 C 12.029203,2.4999998 10.494577,3.5345411 10.494577,6.2547874 z "
       id="rect3167"
       sodipodi:nodetypes="ccssscscssscs" />
    <path
       sodipodi:type="inkscape:offset"
       inkscape:radius="-1.0003172"
       inkscape:original="M 13.59375 2.5 C 12.029203 2.5 10.5 3.5297537 10.5 6.25 C 10.5 6.7021859 10.545881 14.667437 10.5 15.53125 C 10.5 15.53125 4.6361997 15.5 4.53125 15.5 C 3.411786 15.5 2.5 16.361113 2.5 17.53125 C 2.5 18.695398 3.4117862 19.5 4.53125 19.5 L 11.28125 19.5 C 13.670662 19.5 14.5625 18.371672 14.5625 16.75 C 14.5625 16.297814 14.447357 7.3491532 14.5 6.5 C 14.5 6.5 20.212667 6.5 20.5625 6.5 C 21.681965 6.5 22.625 5.6038186 22.625 4.4375 C 22.625 3.6078835 21.681963 2.5 20.5625 2.5 L 13.59375 2.5 z "
       xlink:href="#rect3167"
       style="opacity:0.5;fill:none;fill-opacity:1;stroke:#ffffff;stroke-width:0.99999964;stroke-miterlimit:4;stroke-dasharray:none;stroke-opacity:1"
       id="path3189"
       inkscape:href="#rect3167"
       d="M 13.59375,3.5 C 13.030939,3.5 12.555105,3.6824271 12.1875,4.0625 C 11.819895,4.4425729 11.5,5.0773217 11.5,6.25 C 11.5,6.4422606 11.52551,8.5611209 11.53125,10.71875 C 11.53699,12.876379 11.532515,14.981588 11.5,15.59375 C 11.466751,16.121392 11.028688,16.532076 10.5,16.53125 C 10.5,16.53125 9.0415375,16.539062 7.5625,16.53125 C 6.0834625,16.523438 4.4844395,16.5 4.53125,16.5 C 3.9247614,16.5 3.5,16.880753 3.5,17.53125 C 3.5,18.173084 3.8910974,18.5 4.53125,18.5 L 11.28125,18.5 C 12.318499,18.5 12.844693,18.260508 13.125,18 C 13.405307,17.739492 13.5625,17.377461 13.5625,16.75 C 13.5625,16.608813 13.522223,14.183039 13.5,11.78125 C 13.488888,10.580356 13.503404,9.3752554 13.5,8.40625 C 13.496596,7.4372446 13.478732,6.7805618 13.5,6.4375 C 13.533249,5.9098578 13.971312,5.4991739 14.5,5.5 C 14.5,5.5 20.212667,5.5 20.5625,5.5 C 21.148099,5.5 21.625,5.0646096 21.625,4.4375 C 21.625,4.4017167 21.537161,4.1026393 21.3125,3.875 C 21.087839,3.6473607 20.792241,3.5 20.5625,3.5 L 13.59375,3.5 z " />
    <image
       id="image1322"
       height="58.310913"
       width="58.310913"
       sodipodi:absref="/home/hbons/Desktop/Tango-Palette.png"
       xlink:href="/home/hbons/Desktop/Tango-Palette.png"
       x="-67.310913"
       y="-20.310913" />
  </g>
</svg>
