<?xml version="1.0" encoding="UTF-8" standalone="no"?>
<!-- Created with Inkscape (http://www.inkscape.org/) -->
<svg
   xmlns:dc="http://purl.org/dc/elements/1.1/"
   xmlns:cc="http://creativecommons.org/ns#"
   xmlns:rdf="http://www.w3.org/1999/02/22-rdf-syntax-ns#"
   xmlns:svg="http://www.w3.org/2000/svg"
   xmlns="http://www.w3.org/2000/svg"
   xmlns:xlink="http://www.w3.org/1999/xlink"
   xmlns:sodipodi="http://sodipodi.sourceforge.net/DTD/sodipodi-0.dtd"
   xmlns:inkscape="http://www.inkscape.org/namespaces/inkscape"
   width="24"
   height="24"
   id="svg2"
   sodipodi:version="0.32"
   inkscape:version="0.46"
   version="1.0"
   sodipodi:docbase="/home/hbons/Desktop/Gaim Refresh/protocols"
   sodipodi:docname="simple.svg"
   inkscape:export-filename="/home/hbons/Desktop/Gaim Refresh/sip.png"
   inkscape:export-xdpi="90"
   inkscape:export-ydpi="90"
   inkscape:output_extension="org.inkscape.output.svg.inkscape">
  <defs
     id="defs4">
    <linearGradient
       inkscape:collect="always"
       id="linearGradient2264">
      <stop
         style="stop-color:#eeeeec;stop-opacity:1;"
         offset="0"
         id="stop2266" />
      <stop
         style="stop-color:#eeeeec;stop-opacity:0;"
         offset="1"
         id="stop2268" />
    </linearGradient>
    <linearGradient
       inkscape:collect="always"
       id="linearGradient3150">
      <stop
         style="stop-color:#2e3436;stop-opacity:1;"
         offset="0"
         id="stop3152" />
      <stop
         style="stop-color:#2e3436;stop-opacity:0;"
         offset="1"
         id="stop3154" />
    </linearGradient>
    <radialGradient
       inkscape:collect="always"
       xlink:href="#linearGradient3150"
       id="radialGradient3156"
       cx="10.748654"
       cy="10.457643"
       fx="10.748654"
       fy="10.457643"
       r="6.6449099"
       gradientTransform="matrix(-0.842757,5.698892e-16,-4.565819e-9,-0.35721,19.80716,14.19321)"
       gradientUnits="userSpaceOnUse" />
    <linearGradient
       inkscape:collect="always"
       xlink:href="#linearGradient2264"
       id="linearGradient2291"
       gradientUnits="userSpaceOnUse"
       x1="11.5"
       y1="0.18190941"
       x2="11.5"
       y2="10.189009" />
  </defs>
  <sodipodi:namedview
     id="base"
     pagecolor="#ffffff"
     bordercolor="#666666"
     borderopacity="1.0"
     inkscape:pageopacity="0.0"
     inkscape:pageshadow="2"
     inkscape:zoom="20.899939"
     inkscape:cx="23.702664"
     inkscape:cy="14.488722"
     inkscape:document-units="px"
     inkscape:current-layer="layer1"
     showgrid="true"
     fill="#eeeeec"
     inkscape:window-width="1268"
     inkscape:window-height="971"
     inkscape:window-x="6"
     inkscape:window-y="21" />
  <metadata
     id="metadata7">
    <rdf:RDF>
      <cc:Work
         rdf:about="">
        <dc:format>image/svg+xml</dc:format>
        <dc:type
           rdf:resource="http://purl.org/dc/dcmitype/StillImage" />
      </cc:Work>
    </rdf:RDF>
  </metadata>
  <g
     inkscape:label="Layer 1"
     inkscape:groupmode="layer"
     id="layer1">
    <path
       sodipodi:type="arc"
       style="opacity:0.4;fill:url(#radialGradient3156);fill-opacity:1;stroke:none;stroke-width:1;stroke-miterlimit:4;stroke-dasharray:none;stroke-opacity:1"
       id="path3140"
       sodipodi:cx="10.748654"
       sodipodi:cy="10.457643"
       sodipodi:rx="6.6449099"
       sodipodi:ry="2.3675451"
       d="M 17.393564 10.457643 A 6.6449099 2.3675451 0 1 1  4.1037445,10.457643 A 6.6449099 2.3675451 0 1 1  17.393564 10.457643 z"
       transform="matrix(1.730647,0,0,1.267135,-7.102133,0.748756)" />
    <path
       style="opacity:1;fill:#729fcf;fill-opacity:1;stroke:#3465a4;stroke-width:1.00000024;stroke-miterlimit:4;stroke-dasharray:none;stroke-opacity:1"
       d="M 0.5,4.5 L 0.5,10.5 L 6.5,10.5 L 6.5,12.5 L 0.5,12.5 L 0.5,14.5 L 8.5,14.5 L 8.5,8.5 L 2.5,8.5 L 2.5,6.5 L 8.5,6.5 L 8.5,4.5 L 0.5,4.5 z "
       id="rect2212"
       sodipodi:nodetypes="ccccccccccccc" />
    <rect
       style="opacity:1;fill:#729fcf;fill-opacity:1;stroke:#3465a4;stroke-width:0.99999988;stroke-miterlimit:4;stroke-dasharray:none;stroke-opacity:1"
       id="rect2224"
       width="10.0164"
       height="2.0509641"
       x="-14.508198"
       y="10.493749"
       transform="matrix(4.833737e-8,-1,1,1.62126e-7,0,0)" />
    <path
       style="opacity:1;fill:#729fcf;fill-opacity:1;stroke:#3465a4;stroke-width:1.00000012;stroke-miterlimit:4;stroke-dasharray:none;stroke-opacity:1"
       d="M 14.5,4.5 L 14.5,14.5 L 16.5,14.5 L 16.5,10.5 L 22.5,10.5 L 22.5,4.5 L 14.5,4.5 z M 16.5,6.5 L 20.5,6.5 L 20.5,8.53125 L 16.5,8.53125 L 16.5,6.5 z "
       id="rect2226"
       sodipodi:nodetypes="cccccccccccc" />
    <rect
       style="opacity:0.3;fill:#ffffff;fill-opacity:1;stroke:none;stroke-width:1;stroke-miterlimit:4;stroke-dasharray:none;stroke-opacity:1"
       id="rect2249"
       width="1"
       height="1"
       x="0"
       y="4" />
    <rect
       style="opacity:0.3;fill:#ffffff;fill-opacity:1;stroke:none;stroke-width:1;stroke-miterlimit:4;stroke-dasharray:none;stroke-opacity:1"
       id="rect2253"
       width="1"
       height="1"
       x="8"
       y="4" />
    <rect
       style="opacity:0.3;fill:#ffffff;fill-opacity:1;stroke:none;stroke-width:1;stroke-miterlimit:4;stroke-dasharray:none;stroke-opacity:1"
       id="rect2255"
       width="1"
       height="1"
       x="8"
       y="14" />
    <rect
       style="opacity:0.3;fill:#ffffff;fill-opacity:1;stroke:none;stroke-width:1;stroke-miterlimit:4;stroke-dasharray:none;stroke-opacity:1"
       id="rect2257"
       width="1"
       height="1"
       x="0"
       y="14" />
    <rect
       style="opacity:0.3;fill:#ffffff;fill-opacity:1;stroke:none;stroke-width:1;stroke-miterlimit:4;stroke-dasharray:none;stroke-opacity:1"
       id="rect2259"
       width="1"
       height="1"
       x="0"
       y="12" />
    <rect
       style="opacity:0.3;fill:#ffffff;fill-opacity:1;stroke:none;stroke-width:1;stroke-miterlimit:4;stroke-dasharray:none;stroke-opacity:1"
       id="rect2261"
       width="1"
       height="1"
       x="8"
       y="8" />
    <rect
       style="opacity:0.3;fill:#ffffff;fill-opacity:1;stroke:none;stroke-width:1;stroke-miterlimit:4;stroke-dasharray:none;stroke-opacity:1"
       id="rect2263"
       width="1"
       height="1"
       x="0"
       y="10" />
    <rect
       style="opacity:0.3;fill:#ffffff;fill-opacity:1;stroke:none;stroke-width:1;stroke-miterlimit:4;stroke-dasharray:none;stroke-opacity:1"
       id="rect2265"
       width="1"
       height="1"
       x="8"
       y="6" />
    <rect
       style="opacity:0.3;fill:#ffffff;fill-opacity:1;stroke:none;stroke-width:1;stroke-miterlimit:4;stroke-dasharray:none;stroke-opacity:1"
       id="rect2269"
       width="1"
       height="1"
       x="10"
       y="4" />
    <rect
       style="opacity:0.3;fill:#ffffff;fill-opacity:1;stroke:none;stroke-width:1;stroke-miterlimit:4;stroke-dasharray:none;stroke-opacity:1"
       id="rect2271"
       width="1"
       height="1"
       x="12"
       y="4" />
    <rect
       style="opacity:0.3;fill:#ffffff;fill-opacity:1;stroke:none;stroke-width:1;stroke-miterlimit:4;stroke-dasharray:none;stroke-opacity:1"
       id="rect2273"
       width="1"
       height="1"
       x="12"
       y="14" />
    <rect
       style="opacity:0.3;fill:#ffffff;fill-opacity:1;stroke:none;stroke-width:1;stroke-miterlimit:4;stroke-dasharray:none;stroke-opacity:1"
       id="rect2275"
       width="1"
       height="1"
       x="10"
       y="14" />
    <rect
       style="opacity:0.3;fill:#ffffff;fill-opacity:1;stroke:none;stroke-width:1;stroke-miterlimit:4;stroke-dasharray:none;stroke-opacity:1"
       id="rect2277"
       width="1"
       height="1"
       x="14"
       y="14" />
    <rect
       style="opacity:0.3;fill:#ffffff;fill-opacity:1;stroke:none;stroke-width:1;stroke-miterlimit:4;stroke-dasharray:none;stroke-opacity:1"
       id="rect2279"
       width="1"
       height="1"
       x="16"
       y="14" />
    <rect
       style="opacity:0.3;fill:#ffffff;fill-opacity:1;stroke:none;stroke-width:1;stroke-miterlimit:4;stroke-dasharray:none;stroke-opacity:1"
       id="rect2281"
       width="1"
       height="1"
       x="22"
       y="10" />
    <rect
       style="opacity:0.3;fill:#ffffff;fill-opacity:1;stroke:none;stroke-width:1;stroke-miterlimit:4;stroke-dasharray:none;stroke-opacity:1"
       id="rect2283"
       width="1"
       height="1"
       x="22"
       y="4" />
    <rect
       style="opacity:0.3;fill:#ffffff;fill-opacity:1;stroke:none;stroke-width:1;stroke-miterlimit:4;stroke-dasharray:none;stroke-opacity:1"
       id="rect2285"
       width="1"
       height="1"
       x="14"
       y="4" />
    <path
       style="opacity:1;fill:url(#linearGradient2291);fill-opacity:1.0;stroke:none;stroke-width:1;stroke-miterlimit:4;stroke-dasharray:none;stroke-opacity:1"
       d="M 1 5 L 1 5.4375 L 1 6 L 1 9 L 1 10 L 7 10 L 7 13 L 1 13 L 1 14 L 8 14 L 8 13 L 8 9 L 2 9 L 2 6 L 8 6 L 8 5 L 1 5 z M 11 5 L 11 14 L 12 14 L 12 5 L 11 5 z M 15 5 L 15 14 L 16 14 L 16 10 L 21 10 L 22 10 L 22 5 L 21 5 L 16 5 L 15 5 z M 16 6 L 21 6 L 21 9 L 16 9 L 16 6 z "
       id="rect2243" />
  </g>
</svg>
